<svg xmlns="http://www.w3.org/2000/svg" viewBox="0 0 800 800" width="800" height="800">
    <rect width="100%" height="100%" fill="white"/>
    <g fill="none" stroke="black" stroke-width="4" stroke-linecap="round" stroke-linejoin="round"><circle cx="166.66666666666669" cy="166.66666666666669" r="23.333333333333336"/><circle cx="166.66666666666669" cy="166.66666666666669" r="46.66666666666667"/><circle cx="166.66666666666669" cy="166.66666666666669" r="70"/><circle cx="166.66666666666669" cy="166.66666666666669" r="93.33333333333334"/><circle cx="400.00000000000006" cy="166.66666666666669" r="29.166666666666668"/><circle cx="400.00000000000006" cy="166.66666666666669" r="58.333333333333336"/><circle cx="400.00000000000006" cy="166.66666666666669" r="87.5"/><circle cx="633.3333333333334" cy="166.66666666666669" r="29.166666666666668"/><circle cx="633.3333333333334" cy="166.66666666666669" r="58.333333333333336"/><circle cx="633.3333333333334" cy="166.66666666666669" r="87.5"/><circle cx="166.66666666666669" cy="400.00000000000006" r="19.444444444444446"/><circle cx="166.66666666666669" cy="400.00000000000006" r="38.88888888888889"/><circle cx="166.66666666666669" cy="400.00000000000006" r="58.333333333333336"/><circle cx="166.66666666666669" cy="400.00000000000006" r="77.77777777777779"/><circle cx="166.66666666666669" cy="400.00000000000006" r="97.22222222222223"/><circle cx="400.00000000000006" cy="400.00000000000006" r="19.444444444444446"/><circle cx="400.00000000000006" cy="400.00000000000006" r="38.88888888888889"/><circle cx="400.00000000000006" cy="400.00000000000006" r="58.333333333333336"/><circle cx="400.00000000000006" cy="400.00000000000006" r="77.77777777777779"/><circle cx="400.00000000000006" cy="400.00000000000006" r="97.22222222222223"/><circle cx="633.3333333333334" cy="400.00000000000006" r="19.444444444444446"/><circle cx="633.3333333333334" cy="400.00000000000006" r="38.88888888888889"/><circle cx="633.3333333333334" cy="400.00000000000006" r="58.333333333333336"/><circle cx="633.3333333333334" cy="400.00000000000006" r="77.77777777777779"/><circle cx="633.3333333333334" cy="400.00000000000006" r="97.22222222222223"/><circle cx="166.66666666666669" cy="633.3333333333334" r="19.444444444444446"/><circle cx="166.66666666666669" cy="633.3333333333334" r="38.88888888888889"/><circle cx="166.66666666666669" cy="633.3333333333334" r="58.333333333333336"/><circle cx="166.66666666666669" cy="633.3333333333334" r="77.77777777777779"/><circle cx="166.66666666666669" cy="633.3333333333334" r="97.22222222222223"/><circle cx="400.00000000000006" cy="633.3333333333334" r="29.166666666666668"/><circle cx="400.00000000000006" cy="633.3333333333334" r="58.333333333333336"/><circle cx="400.00000000000006" cy="633.3333333333334" r="87.5"/><circle cx="633.3333333333334" cy="633.3333333333334" r="19.444444444444446"/><circle cx="633.3333333333334" cy="633.3333333333334" r="38.88888888888889"/><circle cx="633.3333333333334" cy="633.3333333333334" r="58.333333333333336"/><circle cx="633.3333333333334" cy="633.3333333333334" r="77.77777777777779"/><circle cx="633.3333333333334" cy="633.3333333333334" r="97.22222222222223"/></g></svg>