<svg xmlns="http://www.w3.org/2000/svg" viewBox="0 0 800 800" width="800" height="800">
    <rect width="100%" height="100%" fill="white"/>
    <g fill="none" stroke="black" stroke-width="4" stroke-linecap="round" stroke-linejoin="round"><path d="M 166.66666666666669 88.8888888888889 L 195.83333333333334 137.50000000000003 L 244.44444444444446 166.66666666666669 L 195.83333333333334 195.83333333333334 L 166.66666666666669 244.44444444444446 L 137.50000000000003 195.83333333333334 L 88.8888888888889 166.66666666666669 L 137.50000000000003 137.50000000000003 Z"/><rect x="50.000000000000014" y="50.000000000000014" width="233.33333333333334" height="233.33333333333334"/><path d="M 400.00000000000006 88.8888888888889 L 429.16666666666674 137.50000000000003 L 477.7777777777778 166.66666666666669 L 429.16666666666674 195.83333333333334 L 400.00000000000006 244.44444444444446 L 370.83333333333337 195.83333333333334 L 322.2222222222223 166.66666666666669 L 370.83333333333337 137.50000000000003 Z"/><rect x="283.33333333333337" y="50.000000000000014" width="233.33333333333334" height="233.33333333333334"/><path d="M 633.3333333333334 88.8888888888889 L 662.5 137.50000000000003 L 711.1111111111112 166.66666666666669 L 662.5 195.83333333333334 L 633.3333333333334 244.44444444444446 L 604.1666666666667 195.83333333333334 L 555.5555555555555 166.66666666666669 L 604.1666666666667 137.50000000000003 Z"/><rect x="516.6666666666667" y="50.000000000000014" width="233.33333333333334" height="233.33333333333334"/><path d="M 166.66666666666669 322.2222222222223 L 195.83333333333334 370.83333333333337 L 244.44444444444446 400.00000000000006 L 195.83333333333334 429.16666666666674 L 166.66666666666669 477.7777777777778 L 137.50000000000003 429.16666666666674 L 88.8888888888889 400.00000000000006 L 137.50000000000003 370.83333333333337 Z"/><rect x="50.000000000000014" y="283.33333333333337" width="233.33333333333334" height="233.33333333333334"/><path d="M 400.00000000000006 322.2222222222223 L 429.16666666666674 370.83333333333337 L 477.7777777777778 400.00000000000006 L 429.16666666666674 429.16666666666674 L 400.00000000000006 477.7777777777778 L 370.83333333333337 429.16666666666674 L 322.2222222222223 400.00000000000006 L 370.83333333333337 370.83333333333337 Z"/><rect x="283.33333333333337" y="283.33333333333337" width="233.33333333333334" height="233.33333333333334"/><path d="M 633.3333333333334 322.2222222222223 L 662.5 370.83333333333337 L 711.1111111111112 400.00000000000006 L 662.5 429.16666666666674 L 633.3333333333334 477.7777777777778 L 604.1666666666667 429.16666666666674 L 555.5555555555555 400.00000000000006 L 604.1666666666667 370.83333333333337 Z"/><rect x="516.6666666666667" y="283.33333333333337" width="233.33333333333334" height="233.33333333333334"/><path d="M 166.66666666666669 555.5555555555555 L 195.83333333333334 604.1666666666667 L 244.44444444444446 633.3333333333334 L 195.83333333333334 662.5 L 166.66666666666669 711.1111111111112 L 137.50000000000003 662.5 L 88.8888888888889 633.3333333333334 L 137.50000000000003 604.1666666666667 Z"/><rect x="50.000000000000014" y="516.6666666666667" width="233.33333333333334" height="233.33333333333334"/><path d="M 400.00000000000006 555.5555555555555 L 429.16666666666674 604.1666666666667 L 477.7777777777778 633.3333333333334 L 429.16666666666674 662.5 L 400.00000000000006 711.1111111111112 L 370.83333333333337 662.5 L 322.2222222222223 633.3333333333334 L 370.83333333333337 604.1666666666667 Z"/><rect x="283.33333333333337" y="516.6666666666667" width="233.33333333333334" height="233.33333333333334"/><path d="M 633.3333333333334 555.5555555555555 L 662.5 604.1666666666667 L 711.1111111111112 633.3333333333334 L 662.5 662.5 L 633.3333333333334 711.1111111111112 L 604.1666666666667 662.5 L 555.5555555555555 633.3333333333334 L 604.1666666666667 604.1666666666667 Z"/><rect x="516.6666666666667" y="516.6666666666667" width="233.33333333333334" height="233.33333333333334"/></g></svg>