<svg xmlns="http://www.w3.org/2000/svg" viewBox="0 0 800 800" width="800" height="800">
    <rect width="100%" height="100%" fill="white"/>
    <g fill="none" stroke="black" stroke-width="4" stroke-linecap="round" stroke-linejoin="round"><circle cx="137.5" cy="137.5" r="17.5"/><circle cx="137.5" cy="137.5" r="35"/><circle cx="137.5" cy="137.5" r="52.5"/><circle cx="137.5" cy="137.5" r="70"/><circle cx="312.5" cy="137.5" r="14.583333333333334"/><circle cx="312.5" cy="137.5" r="29.166666666666668"/><circle cx="312.5" cy="137.5" r="43.75"/><circle cx="312.5" cy="137.5" r="58.333333333333336"/><circle cx="312.5" cy="137.5" r="72.91666666666667"/><circle cx="487.5" cy="137.5" r="29.166666666666668"/><circle cx="487.5" cy="137.5" r="58.333333333333336"/><circle cx="662.5" cy="137.5" r="29.166666666666668"/><circle cx="662.5" cy="137.5" r="58.333333333333336"/><circle cx="137.5" cy="312.5" r="14.583333333333334"/><circle cx="137.5" cy="312.5" r="29.166666666666668"/><circle cx="137.5" cy="312.5" r="43.75"/><circle cx="137.5" cy="312.5" r="58.333333333333336"/><circle cx="137.5" cy="312.5" r="72.91666666666667"/><circle cx="312.5" cy="312.5" r="14.583333333333334"/><circle cx="312.5" cy="312.5" r="29.166666666666668"/><circle cx="312.5" cy="312.5" r="43.75"/><circle cx="312.5" cy="312.5" r="58.333333333333336"/><circle cx="312.5" cy="312.5" r="72.91666666666667"/><circle cx="487.5" cy="312.5" r="29.166666666666668"/><circle cx="487.5" cy="312.5" r="58.333333333333336"/><circle cx="662.5" cy="312.5" r="17.5"/><circle cx="662.5" cy="312.5" r="35"/><circle cx="662.5" cy="312.5" r="52.5"/><circle cx="662.5" cy="312.5" r="70"/><circle cx="137.5" cy="487.5" r="14.583333333333334"/><circle cx="137.5" cy="487.5" r="29.166666666666668"/><circle cx="137.5" cy="487.5" r="43.75"/><circle cx="137.5" cy="487.5" r="58.333333333333336"/><circle cx="137.5" cy="487.5" r="72.91666666666667"/><circle cx="312.5" cy="487.5" r="17.5"/><circle cx="312.5" cy="487.5" r="35"/><circle cx="312.5" cy="487.5" r="52.5"/><circle cx="312.5" cy="487.5" r="70"/><circle cx="487.5" cy="487.5" r="17.5"/><circle cx="487.5" cy="487.5" r="35"/><circle cx="487.5" cy="487.5" r="52.5"/><circle cx="487.5" cy="487.5" r="70"/><circle cx="662.5" cy="487.5" r="14.583333333333334"/><circle cx="662.5" cy="487.5" r="29.166666666666668"/><circle cx="662.5" cy="487.5" r="43.75"/><circle cx="662.5" cy="487.5" r="58.333333333333336"/><circle cx="662.5" cy="487.5" r="72.91666666666667"/><circle cx="137.5" cy="662.5" r="14.583333333333334"/><circle cx="137.5" cy="662.5" r="29.166666666666668"/><circle cx="137.5" cy="662.5" r="43.75"/><circle cx="137.5" cy="662.5" r="58.333333333333336"/><circle cx="137.5" cy="662.5" r="72.91666666666667"/><circle cx="312.5" cy="662.5" r="29.166666666666668"/><circle cx="312.5" cy="662.5" r="58.333333333333336"/><circle cx="487.5" cy="662.5" r="14.583333333333334"/><circle cx="487.5" cy="662.5" r="29.166666666666668"/><circle cx="487.5" cy="662.5" r="43.75"/><circle cx="487.5" cy="662.5" r="58.333333333333336"/><circle cx="487.5" cy="662.5" r="72.91666666666667"/><circle cx="662.5" cy="662.5" r="29.166666666666668"/><circle cx="662.5" cy="662.5" r="58.333333333333336"/></g></svg>