<svg xmlns="http://www.w3.org/2000/svg" viewBox="0 0 800 800" width="800" height="800">
    <rect width="100%" height="100%" fill="white"/>
    <g fill="none" stroke="black" stroke-width="4" stroke-linecap="round" stroke-linejoin="round"><rect x="115.625" y="115.625" width="43.75" height="43.75"/><rect x="93.75" y="93.75" width="87.5" height="87.5"/><rect x="71.875" y="71.875" width="131.25" height="131.25"/><rect x="283.3333333333333" y="108.33333333333333" width="58.333333333333336" height="58.333333333333336"/><rect x="254.16666666666666" y="79.16666666666666" width="116.66666666666667" height="116.66666666666667"/><rect x="458.3333333333333" y="108.33333333333333" width="58.333333333333336" height="58.333333333333336"/><rect x="429.1666666666667" y="79.16666666666666" width="116.66666666666667" height="116.66666666666667"/><rect x="633.3333333333334" y="108.33333333333333" width="58.333333333333336" height="58.333333333333336"/><rect x="604.1666666666666" y="79.16666666666666" width="116.66666666666667" height="116.66666666666667"/><rect x="108.33333333333333" y="283.3333333333333" width="58.333333333333336" height="58.333333333333336"/><rect x="79.16666666666666" y="254.16666666666666" width="116.66666666666667" height="116.66666666666667"/><rect x="297.9166666666667" y="297.9166666666667" width="29.166666666666668" height="29.166666666666668"/><rect x="283.3333333333333" y="283.3333333333333" width="58.333333333333336" height="58.333333333333336"/><rect x="268.75" y="268.75" width="87.5" height="87.5"/><rect x="254.16666666666666" y="254.16666666666666" width="116.66666666666667" height="116.66666666666667"/><rect x="239.58333333333331" y="239.58333333333331" width="145.83333333333334" height="145.83333333333334"/><rect x="458.3333333333333" y="283.3333333333333" width="58.333333333333336" height="58.333333333333336"/><rect x="429.1666666666667" y="254.16666666666666" width="116.66666666666667" height="116.66666666666667"/><rect x="645" y="295" width="35" height="35"/><rect x="627.5" y="277.5" width="70" height="70"/><rect x="610" y="260" width="105" height="105"/><rect x="592.5" y="242.5" width="140" height="140"/><rect x="122.91666666666667" y="472.9166666666667" width="29.166666666666668" height="29.166666666666668"/><rect x="108.33333333333333" y="458.3333333333333" width="58.333333333333336" height="58.333333333333336"/><rect x="93.75" y="443.75" width="87.5" height="87.5"/><rect x="79.16666666666666" y="429.1666666666667" width="116.66666666666667" height="116.66666666666667"/><rect x="64.58333333333333" y="414.5833333333333" width="145.83333333333334" height="145.83333333333334"/><rect x="295" y="470" width="35" height="35"/><rect x="277.5" y="452.5" width="70" height="70"/><rect x="260" y="435" width="105" height="105"/><rect x="242.5" y="417.5" width="140" height="140"/><rect x="472.9166666666667" y="472.9166666666667" width="29.166666666666668" height="29.166666666666668"/><rect x="458.3333333333333" y="458.3333333333333" width="58.333333333333336" height="58.333333333333336"/><rect x="443.75" y="443.75" width="87.5" height="87.5"/><rect x="429.1666666666667" y="429.1666666666667" width="116.66666666666667" height="116.66666666666667"/><rect x="414.5833333333333" y="414.5833333333333" width="145.83333333333334" height="145.83333333333334"/><rect x="647.9166666666666" y="472.9166666666667" width="29.166666666666668" height="29.166666666666668"/><rect x="633.3333333333334" y="458.3333333333333" width="58.333333333333336" height="58.333333333333336"/><rect x="618.75" y="443.75" width="87.5" height="87.5"/><rect x="604.1666666666666" y="429.1666666666667" width="116.66666666666667" height="116.66666666666667"/><rect x="589.5833333333334" y="414.5833333333333" width="145.83333333333334" height="145.83333333333334"/><rect x="115.625" y="640.625" width="43.75" height="43.75"/><rect x="93.75" y="618.75" width="87.5" height="87.5"/><rect x="71.875" y="596.875" width="131.25" height="131.25"/><rect x="295" y="645" width="35" height="35"/><rect x="277.5" y="627.5" width="70" height="70"/><rect x="260" y="610" width="105" height="105"/><rect x="242.5" y="592.5" width="140" height="140"/><rect x="472.9166666666667" y="647.9166666666666" width="29.166666666666668" height="29.166666666666668"/><rect x="458.3333333333333" y="633.3333333333334" width="58.333333333333336" height="58.333333333333336"/><rect x="443.75" y="618.75" width="87.5" height="87.5"/><rect x="429.1666666666667" y="604.1666666666666" width="116.66666666666667" height="116.66666666666667"/><rect x="414.5833333333333" y="589.5833333333334" width="145.83333333333334" height="145.83333333333334"/><rect x="647.9166666666666" y="647.9166666666666" width="29.166666666666668" height="29.166666666666668"/><rect x="633.3333333333334" y="633.3333333333334" width="58.333333333333336" height="58.333333333333336"/><rect x="618.75" y="618.75" width="87.5" height="87.5"/><rect x="604.1666666666666" y="604.1666666666666" width="116.66666666666667" height="116.66666666666667"/><rect x="589.5833333333334" y="589.5833333333334" width="145.83333333333334" height="145.83333333333334"/></g></svg>