<svg xmlns="http://www.w3.org/2000/svg" viewBox="0 0 800 800" width="800" height="800">
    <rect width="100%" height="100%" fill="white"/>
    <g fill="none" stroke="black" stroke-width="4" stroke-linecap="round" stroke-linejoin="round"><rect x="108.33333333333333" y="108.33333333333333" width="23.333333333333332" height="23.333333333333332"/><rect x="96.66666666666667" y="96.66666666666667" width="46.666666666666664" height="46.666666666666664"/><rect x="85" y="85" width="70" height="70"/><rect x="73.33333333333334" y="73.33333333333334" width="93.33333333333333" height="93.33333333333333"/><rect x="61.666666666666664" y="61.666666666666664" width="116.66666666666667" height="116.66666666666667"/><rect x="236.66666666666666" y="96.66666666666667" width="46.666666666666664" height="46.666666666666664"/><rect x="213.33333333333334" y="73.33333333333334" width="93.33333333333333" height="93.33333333333333"/><rect x="388.3333333333333" y="108.33333333333333" width="23.333333333333332" height="23.333333333333332"/><rect x="376.6666666666667" y="96.66666666666667" width="46.666666666666664" height="46.666666666666664"/><rect x="365" y="85" width="70" height="70"/><rect x="353.3333333333333" y="73.33333333333334" width="93.33333333333333" height="93.33333333333333"/><rect x="341.6666666666667" y="61.666666666666664" width="116.66666666666667" height="116.66666666666667"/><rect x="528.3333333333334" y="108.33333333333333" width="23.333333333333332" height="23.333333333333332"/><rect x="516.6666666666666" y="96.66666666666667" width="46.666666666666664" height="46.666666666666664"/><rect x="505" y="85" width="70" height="70"/><rect x="493.3333333333333" y="73.33333333333334" width="93.33333333333333" height="93.33333333333333"/><rect x="481.6666666666667" y="61.666666666666664" width="116.66666666666667" height="116.66666666666667"/><rect x="662.5" y="102.5" width="35" height="35"/><rect x="645" y="85" width="70" height="70"/><rect x="627.5" y="67.5" width="105" height="105"/><rect x="102.5" y="242.5" width="35" height="35"/><rect x="85" y="225" width="70" height="70"/><rect x="67.5" y="207.5" width="105" height="105"/><rect x="242.5" y="242.5" width="35" height="35"/><rect x="225" y="225" width="70" height="70"/><rect x="207.5" y="207.5" width="105" height="105"/><rect x="382.5" y="242.5" width="35" height="35"/><rect x="365" y="225" width="70" height="70"/><rect x="347.5" y="207.5" width="105" height="105"/><rect x="528.3333333333334" y="248.33333333333334" width="23.333333333333332" height="23.333333333333332"/><rect x="516.6666666666666" y="236.66666666666666" width="46.666666666666664" height="46.666666666666664"/><rect x="505" y="225" width="70" height="70"/><rect x="493.3333333333333" y="213.33333333333334" width="93.33333333333333" height="93.33333333333333"/><rect x="481.6666666666667" y="201.66666666666666" width="116.66666666666667" height="116.66666666666667"/><rect x="662.5" y="242.5" width="35" height="35"/><rect x="645" y="225" width="70" height="70"/><rect x="627.5" y="207.5" width="105" height="105"/><rect x="96.66666666666667" y="376.6666666666667" width="46.666666666666664" height="46.666666666666664"/><rect x="73.33333333333334" y="353.3333333333333" width="93.33333333333333" height="93.33333333333333"/><rect x="246" y="386" width="28" height="28"/><rect x="232" y="372" width="56" height="56"/><rect x="218" y="358" width="84" height="84"/><rect x="204" y="344" width="112" height="112"/><rect x="382.5" y="382.5" width="35" height="35"/><rect x="365" y="365" width="70" height="70"/><rect x="347.5" y="347.5" width="105" height="105"/><rect x="522.5" y="382.5" width="35" height="35"/><rect x="505" y="365" width="70" height="70"/><rect x="487.5" y="347.5" width="105" height="105"/><rect x="662.5" y="382.5" width="35" height="35"/><rect x="645" y="365" width="70" height="70"/><rect x="627.5" y="347.5" width="105" height="105"/><rect x="96.66666666666667" y="516.6666666666666" width="46.666666666666664" height="46.666666666666664"/><rect x="73.33333333333334" y="493.3333333333333" width="93.33333333333333" height="93.33333333333333"/><rect x="236.66666666666666" y="516.6666666666666" width="46.666666666666664" height="46.666666666666664"/><rect x="213.33333333333334" y="493.3333333333333" width="93.33333333333333" height="93.33333333333333"/><rect x="382.5" y="522.5" width="35" height="35"/><rect x="365" y="505" width="70" height="70"/><rect x="347.5" y="487.5" width="105" height="105"/><rect x="516.6666666666666" y="516.6666666666666" width="46.666666666666664" height="46.666666666666664"/><rect x="493.3333333333333" y="493.3333333333333" width="93.33333333333333" height="93.33333333333333"/><rect x="668.3333333333334" y="528.3333333333334" width="23.333333333333332" height="23.333333333333332"/><rect x="656.6666666666666" y="516.6666666666666" width="46.666666666666664" height="46.666666666666664"/><rect x="645" y="505" width="70" height="70"/><rect x="633.3333333333334" y="493.3333333333333" width="93.33333333333333" height="93.33333333333333"/><rect x="621.6666666666666" y="481.6666666666667" width="116.66666666666667" height="116.66666666666667"/><rect x="102.5" y="662.5" width="35" height="35"/><rect x="85" y="645" width="70" height="70"/><rect x="67.5" y="627.5" width="105" height="105"/><rect x="242.5" y="662.5" width="35" height="35"/><rect x="225" y="645" width="70" height="70"/><rect x="207.5" y="627.5" width="105" height="105"/><rect x="382.5" y="662.5" width="35" height="35"/><rect x="365" y="645" width="70" height="70"/><rect x="347.5" y="627.5" width="105" height="105"/><rect x="526" y="666" width="28" height="28"/><rect x="512" y="652" width="56" height="56"/><rect x="498" y="638" width="84" height="84"/><rect x="484" y="624" width="112" height="112"/><rect x="662.5" y="662.5" width="35" height="35"/><rect x="645" y="645" width="70" height="70"/><rect x="627.5" y="627.5" width="105" height="105"/></g></svg>