<svg xmlns="http://www.w3.org/2000/svg" viewBox="0 0 800 800" width="800" height="800">
    <rect width="100%" height="100%" fill="white"/>
    <g fill="none" stroke="black" stroke-width="4" stroke-linecap="round" stroke-linejoin="round"><circle cx="100" cy="100" r="12.5"/><circle cx="100" cy="100" r="25"/><circle cx="100" cy="100" r="37.5"/><circle cx="200" cy="100" r="10"/><circle cx="200" cy="100" r="20"/><circle cx="200" cy="100" r="30"/><circle cx="200" cy="100" r="40"/><circle cx="300" cy="100" r="16.666666666666668"/><circle cx="300" cy="100" r="33.333333333333336"/><circle cx="400" cy="100" r="12.5"/><circle cx="400" cy="100" r="25"/><circle cx="400" cy="100" r="37.5"/><circle cx="500" cy="100" r="12.5"/><circle cx="500" cy="100" r="25"/><circle cx="500" cy="100" r="37.5"/><circle cx="600" cy="100" r="12.5"/><circle cx="600" cy="100" r="25"/><circle cx="600" cy="100" r="37.5"/><circle cx="700" cy="100" r="10"/><circle cx="700" cy="100" r="20"/><circle cx="700" cy="100" r="30"/><circle cx="700" cy="100" r="40"/><circle cx="100" cy="200" r="16.666666666666668"/><circle cx="100" cy="200" r="33.333333333333336"/><circle cx="200" cy="200" r="16.666666666666668"/><circle cx="200" cy="200" r="33.333333333333336"/><circle cx="300" cy="200" r="8.333333333333334"/><circle cx="300" cy="200" r="16.666666666666668"/><circle cx="300" cy="200" r="25"/><circle cx="300" cy="200" r="33.333333333333336"/><circle cx="300" cy="200" r="41.666666666666664"/><circle cx="400" cy="200" r="16.666666666666668"/><circle cx="400" cy="200" r="33.333333333333336"/><circle cx="500" cy="200" r="16.666666666666668"/><circle cx="500" cy="200" r="33.333333333333336"/><circle cx="600" cy="200" r="12.5"/><circle cx="600" cy="200" r="25"/><circle cx="600" cy="200" r="37.5"/><circle cx="700" cy="200" r="8.333333333333334"/><circle cx="700" cy="200" r="16.666666666666668"/><circle cx="700" cy="200" r="25"/><circle cx="700" cy="200" r="33.333333333333336"/><circle cx="700" cy="200" r="41.666666666666664"/><circle cx="100" cy="300" r="10"/><circle cx="100" cy="300" r="20"/><circle cx="100" cy="300" r="30"/><circle cx="100" cy="300" r="40"/><circle cx="200" cy="300" r="12.5"/><circle cx="200" cy="300" r="25"/><circle cx="200" cy="300" r="37.5"/><circle cx="300" cy="300" r="10"/><circle cx="300" cy="300" r="20"/><circle cx="300" cy="300" r="30"/><circle cx="300" cy="300" r="40"/><circle cx="400" cy="300" r="8.333333333333334"/><circle cx="400" cy="300" r="16.666666666666668"/><circle cx="400" cy="300" r="25"/><circle cx="400" cy="300" r="33.333333333333336"/><circle cx="400" cy="300" r="41.666666666666664"/><circle cx="500" cy="300" r="10"/><circle cx="500" cy="300" r="20"/><circle cx="500" cy="300" r="30"/><circle cx="500" cy="300" r="40"/><circle cx="600" cy="300" r="8.333333333333334"/><circle cx="600" cy="300" r="16.666666666666668"/><circle cx="600" cy="300" r="25"/><circle cx="600" cy="300" r="33.333333333333336"/><circle cx="600" cy="300" r="41.666666666666664"/><circle cx="700" cy="300" r="12.5"/><circle cx="700" cy="300" r="25"/><circle cx="700" cy="300" r="37.5"/><circle cx="100" cy="400" r="8.333333333333334"/><circle cx="100" cy="400" r="16.666666666666668"/><circle cx="100" cy="400" r="25"/><circle cx="100" cy="400" r="33.333333333333336"/><circle cx="100" cy="400" r="41.666666666666664"/><circle cx="200" cy="400" r="16.666666666666668"/><circle cx="200" cy="400" r="33.333333333333336"/><circle cx="300" cy="400" r="16.666666666666668"/><circle cx="300" cy="400" r="33.333333333333336"/><circle cx="400" cy="400" r="8.333333333333334"/><circle cx="400" cy="400" r="16.666666666666668"/><circle cx="400" cy="400" r="25"/><circle cx="400" cy="400" r="33.333333333333336"/><circle cx="400" cy="400" r="41.666666666666664"/><circle cx="500" cy="400" r="10"/><circle cx="500" cy="400" r="20"/><circle cx="500" cy="400" r="30"/><circle cx="500" cy="400" r="40"/><circle cx="600" cy="400" r="12.5"/><circle cx="600" cy="400" r="25"/><circle cx="600" cy="400" r="37.5"/><circle cx="700" cy="400" r="16.666666666666668"/><circle cx="700" cy="400" r="33.333333333333336"/><circle cx="100" cy="500" r="8.333333333333334"/><circle cx="100" cy="500" r="16.666666666666668"/><circle cx="100" cy="500" r="25"/><circle cx="100" cy="500" r="33.333333333333336"/><circle cx="100" cy="500" r="41.666666666666664"/><circle cx="200" cy="500" r="10"/><circle cx="200" cy="500" r="20"/><circle cx="200" cy="500" r="30"/><circle cx="200" cy="500" r="40"/><circle cx="300" cy="500" r="8.333333333333334"/><circle cx="300" cy="500" r="16.666666666666668"/><circle cx="300" cy="500" r="25"/><circle cx="300" cy="500" r="33.333333333333336"/><circle cx="300" cy="500" r="41.666666666666664"/><circle cx="400" cy="500" r="10"/><circle cx="400" cy="500" r="20"/><circle cx="400" cy="500" r="30"/><circle cx="400" cy="500" r="40"/><circle cx="500" cy="500" r="8.333333333333334"/><circle cx="500" cy="500" r="16.666666666666668"/><circle cx="500" cy="500" r="25"/><circle cx="500" cy="500" r="33.333333333333336"/><circle cx="500" cy="500" r="41.666666666666664"/><circle cx="600" cy="500" r="10"/><circle cx="600" cy="500" r="20"/><circle cx="600" cy="500" r="30"/><circle cx="600" cy="500" r="40"/><circle cx="700" cy="500" r="10"/><circle cx="700" cy="500" r="20"/><circle cx="700" cy="500" r="30"/><circle cx="700" cy="500" r="40"/><circle cx="100" cy="600" r="8.333333333333334"/><circle cx="100" cy="600" r="16.666666666666668"/><circle cx="100" cy="600" r="25"/><circle cx="100" cy="600" r="33.333333333333336"/><circle cx="100" cy="600" r="41.666666666666664"/><circle cx="200" cy="600" r="12.5"/><circle cx="200" cy="600" r="25"/><circle cx="200" cy="600" r="37.5"/><circle cx="300" cy="600" r="12.5"/><circle cx="300" cy="600" r="25"/><circle cx="300" cy="600" r="37.5"/><circle cx="400" cy="600" r="10"/><circle cx="400" cy="600" r="20"/><circle cx="400" cy="600" r="30"/><circle cx="400" cy="600" r="40"/><circle cx="500" cy="600" r="10"/><circle cx="500" cy="600" r="20"/><circle cx="500" cy="600" r="30"/><circle cx="500" cy="600" r="40"/><circle cx="600" cy="600" r="16.666666666666668"/><circle cx="600" cy="600" r="33.333333333333336"/><circle cx="700" cy="600" r="12.5"/><circle cx="700" cy="600" r="25"/><circle cx="700" cy="600" r="37.5"/><circle cx="100" cy="700" r="12.5"/><circle cx="100" cy="700" r="25"/><circle cx="100" cy="700" r="37.5"/><circle cx="200" cy="700" r="12.5"/><circle cx="200" cy="700" r="25"/><circle cx="200" cy="700" r="37.5"/><circle cx="300" cy="700" r="12.5"/><circle cx="300" cy="700" r="25"/><circle cx="300" cy="700" r="37.5"/><circle cx="400" cy="700" r="12.5"/><circle cx="400" cy="700" r="25"/><circle cx="400" cy="700" r="37.5"/><circle cx="500" cy="700" r="10"/><circle cx="500" cy="700" r="20"/><circle cx="500" cy="700" r="30"/><circle cx="500" cy="700" r="40"/><circle cx="600" cy="700" r="10"/><circle cx="600" cy="700" r="20"/><circle cx="600" cy="700" r="30"/><circle cx="600" cy="700" r="40"/><circle cx="700" cy="700" r="16.666666666666668"/><circle cx="700" cy="700" r="33.333333333333336"/></g></svg>