<svg xmlns="http://www.w3.org/2000/svg" viewBox="0 0 800 800" width="800" height="800">
    <rect width="100%" height="100%" fill="white"/>
    <g fill="none" stroke="black" stroke-width="4" stroke-linecap="round" stroke-linejoin="round"><circle cx="120" cy="120" r="14"/><circle cx="120" cy="120" r="28"/><circle cx="120" cy="120" r="42"/><circle cx="120" cy="120" r="56"/><circle cx="260" cy="120" r="23.333333333333332"/><circle cx="260" cy="120" r="46.666666666666664"/><circle cx="400" cy="120" r="17.5"/><circle cx="400" cy="120" r="35"/><circle cx="400" cy="120" r="52.5"/><circle cx="540" cy="120" r="14"/><circle cx="540" cy="120" r="28"/><circle cx="540" cy="120" r="42"/><circle cx="540" cy="120" r="56"/><circle cx="680" cy="120" r="14"/><circle cx="680" cy="120" r="28"/><circle cx="680" cy="120" r="42"/><circle cx="680" cy="120" r="56"/><circle cx="120" cy="260" r="23.333333333333332"/><circle cx="120" cy="260" r="46.666666666666664"/><circle cx="260" cy="260" r="14"/><circle cx="260" cy="260" r="28"/><circle cx="260" cy="260" r="42"/><circle cx="260" cy="260" r="56"/><circle cx="400" cy="260" r="17.5"/><circle cx="400" cy="260" r="35"/><circle cx="400" cy="260" r="52.5"/><circle cx="540" cy="260" r="23.333333333333332"/><circle cx="540" cy="260" r="46.666666666666664"/><circle cx="680" cy="260" r="17.5"/><circle cx="680" cy="260" r="35"/><circle cx="680" cy="260" r="52.5"/><circle cx="120" cy="400" r="23.333333333333332"/><circle cx="120" cy="400" r="46.666666666666664"/><circle cx="260" cy="400" r="14"/><circle cx="260" cy="400" r="28"/><circle cx="260" cy="400" r="42"/><circle cx="260" cy="400" r="56"/><circle cx="400" cy="400" r="23.333333333333332"/><circle cx="400" cy="400" r="46.666666666666664"/><circle cx="540" cy="400" r="14"/><circle cx="540" cy="400" r="28"/><circle cx="540" cy="400" r="42"/><circle cx="540" cy="400" r="56"/><circle cx="680" cy="400" r="11.666666666666666"/><circle cx="680" cy="400" r="23.333333333333332"/><circle cx="680" cy="400" r="35"/><circle cx="680" cy="400" r="46.666666666666664"/><circle cx="680" cy="400" r="58.333333333333336"/><circle cx="120" cy="540" r="14"/><circle cx="120" cy="540" r="28"/><circle cx="120" cy="540" r="42"/><circle cx="120" cy="540" r="56"/><circle cx="260" cy="540" r="23.333333333333332"/><circle cx="260" cy="540" r="46.666666666666664"/><circle cx="400" cy="540" r="17.5"/><circle cx="400" cy="540" r="35"/><circle cx="400" cy="540" r="52.5"/><circle cx="540" cy="540" r="14"/><circle cx="540" cy="540" r="28"/><circle cx="540" cy="540" r="42"/><circle cx="540" cy="540" r="56"/><circle cx="680" cy="540" r="14"/><circle cx="680" cy="540" r="28"/><circle cx="680" cy="540" r="42"/><circle cx="680" cy="540" r="56"/><circle cx="120" cy="680" r="17.5"/><circle cx="120" cy="680" r="35"/><circle cx="120" cy="680" r="52.5"/><circle cx="260" cy="680" r="11.666666666666666"/><circle cx="260" cy="680" r="23.333333333333332"/><circle cx="260" cy="680" r="35"/><circle cx="260" cy="680" r="46.666666666666664"/><circle cx="260" cy="680" r="58.333333333333336"/><circle cx="400" cy="680" r="17.5"/><circle cx="400" cy="680" r="35"/><circle cx="400" cy="680" r="52.5"/><circle cx="540" cy="680" r="23.333333333333332"/><circle cx="540" cy="680" r="46.666666666666664"/><circle cx="680" cy="680" r="11.666666666666666"/><circle cx="680" cy="680" r="23.333333333333332"/><circle cx="680" cy="680" r="35"/><circle cx="680" cy="680" r="46.666666666666664"/><circle cx="680" cy="680" r="58.333333333333336"/></g></svg>