<svg xmlns="http://www.w3.org/2000/svg" viewBox="0 0 800 800" width="800" height="800">
    <rect width="100%" height="100%" fill="white"/>
    <g transform="translate(400, 400)" fill="none" stroke="black" stroke-width="4" stroke-linecap="round" stroke-linejoin="round"><g transform="rotate(0)"><path d="M 0 51.87098075635731 L 12.967745189089328 62.245176907628775 L 0 72.61937305890024 L -12.967745189089328 62.245176907628775 Z"/></g><g transform="rotate(25.714285714285715)"><path d="M 0 51.87098075635731 L 12.967745189089328 62.245176907628775 L 0 72.61937305890024 L -12.967745189089328 62.245176907628775 Z"/></g><g transform="rotate(51.42857142857143)"><path d="M 0 51.87098075635731 L 12.967745189089328 62.245176907628775 L 0 72.61937305890024 L -12.967745189089328 62.245176907628775 Z"/></g><g transform="rotate(77.14285714285714)"><path d="M 0 51.87098075635731 L 12.967745189089328 62.245176907628775 L 0 72.61937305890024 L -12.967745189089328 62.245176907628775 Z"/></g><g transform="rotate(102.85714285714286)"><path d="M 0 51.87098075635731 L 12.967745189089328 62.245176907628775 L 0 72.61937305890024 L -12.967745189089328 62.245176907628775 Z"/></g><g transform="rotate(128.57142857142858)"><path d="M 0 51.87098075635731 L 12.967745189089328 62.245176907628775 L 0 72.61937305890024 L -12.967745189089328 62.245176907628775 Z"/></g><g transform="rotate(154.28571428571428)"><path d="M 0 51.87098075635731 L 12.967745189089328 62.245176907628775 L 0 72.61937305890024 L -12.967745189089328 62.245176907628775 Z"/></g><g transform="rotate(180)"><path d="M 0 51.87098075635731 L 12.967745189089328 62.245176907628775 L 0 72.61937305890024 L -12.967745189089328 62.245176907628775 Z"/></g><g transform="rotate(205.71428571428572)"><path d="M 0 51.87098075635731 L 12.967745189089328 62.245176907628775 L 0 72.61937305890024 L -12.967745189089328 62.245176907628775 Z"/></g><g transform="rotate(231.42857142857142)"><path d="M 0 51.87098075635731 L 12.967745189089328 62.245176907628775 L 0 72.61937305890024 L -12.967745189089328 62.245176907628775 Z"/></g><g transform="rotate(257.14285714285717)"><path d="M 0 51.87098075635731 L 12.967745189089328 62.245176907628775 L 0 72.61937305890024 L -12.967745189089328 62.245176907628775 Z"/></g><g transform="rotate(282.85714285714283)"><path d="M 0 51.87098075635731 L 12.967745189089328 62.245176907628775 L 0 72.61937305890024 L -12.967745189089328 62.245176907628775 Z"/></g><g transform="rotate(308.57142857142856)"><path d="M 0 51.87098075635731 L 12.967745189089328 62.245176907628775 L 0 72.61937305890024 L -12.967745189089328 62.245176907628775 Z"/></g><g transform="rotate(334.2857142857143)"><path d="M 0 51.87098075635731 L 12.967745189089328 62.245176907628775 L 0 72.61937305890024 L -12.967745189089328 62.245176907628775 Z"/></g><g transform="rotate(0)"><path d="M -30.22153329011053 120.88613316044211 Q 0 145.06335979253052 30.22153329011053 120.88613316044211"/></g><g transform="rotate(25.714285714285715)"><path d="M -30.22153329011053 120.88613316044211 Q 0 145.06335979253052 30.22153329011053 120.88613316044211"/></g><g transform="rotate(51.42857142857143)"><path d="M -30.22153329011053 120.88613316044211 Q 0 145.06335979253052 30.22153329011053 120.88613316044211"/></g><g transform="rotate(77.14285714285714)"><path d="M -30.22153329011053 120.88613316044211 Q 0 145.06335979253052 30.22153329011053 120.88613316044211"/></g><g transform="rotate(102.85714285714286)"><path d="M -30.22153329011053 120.88613316044211 Q 0 145.06335979253052 30.22153329011053 120.88613316044211"/></g><g transform="rotate(128.57142857142858)"><path d="M -30.22153329011053 120.88613316044211 Q 0 145.06335979253052 30.22153329011053 120.88613316044211"/></g><g transform="rotate(154.28571428571428)"><path d="M -30.22153329011053 120.88613316044211 Q 0 145.06335979253052 30.22153329011053 120.88613316044211"/></g><g transform="rotate(180)"><path d="M -30.22153329011053 120.88613316044211 Q 0 145.06335979253052 30.22153329011053 120.88613316044211"/></g><g transform="rotate(205.71428571428572)"><path d="M -30.22153329011053 120.88613316044211 Q 0 145.06335979253052 30.22153329011053 120.88613316044211"/></g><g transform="rotate(231.42857142857142)"><path d="M -30.22153329011053 120.88613316044211 Q 0 145.06335979253052 30.22153329011053 120.88613316044211"/></g><g transform="rotate(257.14285714285717)"><path d="M -30.22153329011053 120.88613316044211 Q 0 145.06335979253052 30.22153329011053 120.88613316044211"/></g><g transform="rotate(282.85714285714283)"><path d="M -30.22153329011053 120.88613316044211 Q 0 145.06335979253052 30.22153329011053 120.88613316044211"/></g><g transform="rotate(308.57142857142856)"><path d="M -30.22153329011053 120.88613316044211 Q 0 145.06335979253052 30.22153329011053 120.88613316044211"/></g><g transform="rotate(334.2857142857143)"><path d="M -30.22153329011053 120.88613316044211 Q 0 145.06335979253052 30.22153329011053 120.88613316044211"/></g><g transform="rotate(0)"><circle cx="0" cy="187.47549014352262" r="46.868872535880655"/></g><g transform="rotate(25.714285714285715)"><circle cx="0" cy="187.47549014352262" r="46.868872535880655"/></g><g transform="rotate(51.42857142857143)"><circle cx="0" cy="187.47549014352262" r="46.868872535880655"/></g><g transform="rotate(77.14285714285714)"><circle cx="0" cy="187.47549014352262" r="46.868872535880655"/></g><g transform="rotate(102.85714285714286)"><circle cx="0" cy="187.47549014352262" r="46.868872535880655"/></g><g transform="rotate(128.57142857142858)"><circle cx="0" cy="187.47549014352262" r="46.868872535880655"/></g><g transform="rotate(154.28571428571428)"><circle cx="0" cy="187.47549014352262" r="46.868872535880655"/></g><g transform="rotate(180)"><circle cx="0" cy="187.47549014352262" r="46.868872535880655"/></g><g transform="rotate(205.71428571428572)"><circle cx="0" cy="187.47549014352262" r="46.868872535880655"/></g><g transform="rotate(231.42857142857142)"><circle cx="0" cy="187.47549014352262" r="46.868872535880655"/></g><g transform="rotate(257.14285714285717)"><circle cx="0" cy="187.47549014352262" r="46.868872535880655"/></g><g transform="rotate(282.85714285714283)"><circle cx="0" cy="187.47549014352262" r="46.868872535880655"/></g><g transform="rotate(308.57142857142856)"><circle cx="0" cy="187.47549014352262" r="46.868872535880655"/></g><g transform="rotate(334.2857142857143)"><circle cx="0" cy="187.47549014352262" r="46.868872535880655"/></g><g transform="rotate(0)"><path d="M 0 247.51385298371315 Q 82.50461766123772 297.01662358045576 0 371.2707794755697 Q -82.50461766123772 297.01662358045576 0 247.51385298371315"/></g><g transform="rotate(25.714285714285715)"><path d="M 0 247.51385298371315 Q 82.50461766123772 297.01662358045576 0 371.2707794755697 Q -82.50461766123772 297.01662358045576 0 247.51385298371315"/></g><g transform="rotate(51.42857142857143)"><path d="M 0 247.51385298371315 Q 82.50461766123772 297.01662358045576 0 371.2707794755697 Q -82.50461766123772 297.01662358045576 0 247.51385298371315"/></g><g transform="rotate(77.14285714285714)"><path d="M 0 247.51385298371315 Q 82.50461766123772 297.01662358045576 0 371.2707794755697 Q -82.50461766123772 297.01662358045576 0 247.51385298371315"/></g><g transform="rotate(102.85714285714286)"><path d="M 0 247.51385298371315 Q 82.50461766123772 297.01662358045576 0 371.2707794755697 Q -82.50461766123772 297.01662358045576 0 247.51385298371315"/></g><g transform="rotate(128.57142857142858)"><path d="M 0 247.51385298371315 Q 82.50461766123772 297.01662358045576 0 371.2707794755697 Q -82.50461766123772 297.01662358045576 0 247.51385298371315"/></g><g transform="rotate(154.28571428571428)"><path d="M 0 247.51385298371315 Q 82.50461766123772 297.01662358045576 0 371.2707794755697 Q -82.50461766123772 297.01662358045576 0 247.51385298371315"/></g><g transform="rotate(180)"><path d="M 0 247.51385298371315 Q 82.50461766123772 297.01662358045576 0 371.2707794755697 Q -82.50461766123772 297.01662358045576 0 247.51385298371315"/></g><g transform="rotate(205.71428571428572)"><path d="M 0 247.51385298371315 Q 82.50461766123772 297.01662358045576 0 371.2707794755697 Q -82.50461766123772 297.01662358045576 0 247.51385298371315"/></g><g transform="rotate(231.42857142857142)"><path d="M 0 247.51385298371315 Q 82.50461766123772 297.01662358045576 0 371.2707794755697 Q -82.50461766123772 297.01662358045576 0 247.51385298371315"/></g><g transform="rotate(257.14285714285717)"><path d="M 0 247.51385298371315 Q 82.50461766123772 297.01662358045576 0 371.2707794755697 Q -82.50461766123772 297.01662358045576 0 247.51385298371315"/></g><g transform="rotate(282.85714285714283)"><path d="M 0 247.51385298371315 Q 82.50461766123772 297.01662358045576 0 371.2707794755697 Q -82.50461766123772 297.01662358045576 0 247.51385298371315"/></g><g transform="rotate(308.57142857142856)"><path d="M 0 247.51385298371315 Q 82.50461766123772 297.01662358045576 0 371.2707794755697 Q -82.50461766123772 297.01662358045576 0 247.51385298371315"/></g><g transform="rotate(334.2857142857143)"><path d="M 0 247.51385298371315 Q 82.50461766123772 297.01662358045576 0 371.2707794755697 Q -82.50461766123772 297.01662358045576 0 247.51385298371315"/></g><g transform="rotate(0)"><path d="M 0 311.8498398307711 L 0 405.4047917800024"/></g><g transform="rotate(25.714285714285715)"><path d="M 0 311.8498398307711 L 0 405.4047917800024"/></g><g transform="rotate(51.42857142857143)"><path d="M 0 311.8498398307711 L 0 405.4047917800024"/></g><g transform="rotate(77.14285714285714)"><path d="M 0 311.8498398307711 L 0 405.4047917800024"/></g><g transform="rotate(102.85714285714286)"><path d="M 0 311.8498398307711 L 0 405.4047917800024"/></g><g transform="rotate(128.57142857142858)"><path d="M 0 311.8498398307711 L 0 405.4047917800024"/></g><g transform="rotate(154.28571428571428)"><path d="M 0 311.8498398307711 L 0 405.4047917800024"/></g><g transform="rotate(180)"><path d="M 0 311.8498398307711 L 0 405.4047917800024"/></g><g transform="rotate(205.71428571428572)"><path d="M 0 311.8498398307711 L 0 405.4047917800024"/></g><g transform="rotate(231.42857142857142)"><path d="M 0 311.8498398307711 L 0 405.4047917800024"/></g><g transform="rotate(257.14285714285717)"><path d="M 0 311.8498398307711 L 0 405.4047917800024"/></g><g transform="rotate(282.85714285714283)"><path d="M 0 311.8498398307711 L 0 405.4047917800024"/></g><g transform="rotate(308.57142857142856)"><path d="M 0 311.8498398307711 L 0 405.4047917800024"/></g><g transform="rotate(334.2857142857143)"><path d="M 0 311.8498398307711 L 0 405.4047917800024"/></g></g></svg>