<svg xmlns="http://www.w3.org/2000/svg" viewBox="0 0 800 800" width="800" height="800">
    <rect width="100%" height="100%" fill="white"/>
    <g transform="translate(400, 400)" fill="none" stroke="black" stroke-width="4" stroke-linecap="round" stroke-linejoin="round"><g transform="rotate(0)"><circle cx="0" cy="55.58752279728651" r="13.896880699321628"/></g><g transform="rotate(30)"><circle cx="0" cy="55.58752279728651" r="13.896880699321628"/></g><g transform="rotate(60)"><circle cx="0" cy="55.58752279728651" r="13.896880699321628"/></g><g transform="rotate(90)"><circle cx="0" cy="55.58752279728651" r="13.896880699321628"/></g><g transform="rotate(120)"><circle cx="0" cy="55.58752279728651" r="13.896880699321628"/></g><g transform="rotate(150)"><circle cx="0" cy="55.58752279728651" r="13.896880699321628"/></g><g transform="rotate(180)"><circle cx="0" cy="55.58752279728651" r="13.896880699321628"/></g><g transform="rotate(210)"><circle cx="0" cy="55.58752279728651" r="13.896880699321628"/></g><g transform="rotate(240)"><circle cx="0" cy="55.58752279728651" r="13.896880699321628"/></g><g transform="rotate(270)"><circle cx="0" cy="55.58752279728651" r="13.896880699321628"/></g><g transform="rotate(300)"><circle cx="0" cy="55.58752279728651" r="13.896880699321628"/></g><g transform="rotate(330)"><circle cx="0" cy="55.58752279728651" r="13.896880699321628"/></g><g transform="rotate(0)"><path d="M 0 78.94657441000972 Q 26.315524803336572 94.73588929201166 0 118.41986161501458 Q -26.315524803336572 94.73588929201166 0 78.94657441000972"/></g><g transform="rotate(30)"><path d="M 0 78.94657441000972 Q 26.315524803336572 94.73588929201166 0 118.41986161501458 Q -26.315524803336572 94.73588929201166 0 78.94657441000972"/></g><g transform="rotate(60)"><path d="M 0 78.94657441000972 Q 26.315524803336572 94.73588929201166 0 118.41986161501458 Q -26.315524803336572 94.73588929201166 0 78.94657441000972"/></g><g transform="rotate(90)"><path d="M 0 78.94657441000972 Q 26.315524803336572 94.73588929201166 0 118.41986161501458 Q -26.315524803336572 94.73588929201166 0 78.94657441000972"/></g><g transform="rotate(120)"><path d="M 0 78.94657441000972 Q 26.315524803336572 94.73588929201166 0 118.41986161501458 Q -26.315524803336572 94.73588929201166 0 78.94657441000972"/></g><g transform="rotate(150)"><path d="M 0 78.94657441000972 Q 26.315524803336572 94.73588929201166 0 118.41986161501458 Q -26.315524803336572 94.73588929201166 0 78.94657441000972"/></g><g transform="rotate(180)"><path d="M 0 78.94657441000972 Q 26.315524803336572 94.73588929201166 0 118.41986161501458 Q -26.315524803336572 94.73588929201166 0 78.94657441000972"/></g><g transform="rotate(210)"><path d="M 0 78.94657441000972 Q 26.315524803336572 94.73588929201166 0 118.41986161501458 Q -26.315524803336572 94.73588929201166 0 78.94657441000972"/></g><g transform="rotate(240)"><path d="M 0 78.94657441000972 Q 26.315524803336572 94.73588929201166 0 118.41986161501458 Q -26.315524803336572 94.73588929201166 0 78.94657441000972"/></g><g transform="rotate(270)"><path d="M 0 78.94657441000972 Q 26.315524803336572 94.73588929201166 0 118.41986161501458 Q -26.315524803336572 94.73588929201166 0 78.94657441000972"/></g><g transform="rotate(300)"><path d="M 0 78.94657441000972 Q 26.315524803336572 94.73588929201166 0 118.41986161501458 Q -26.315524803336572 94.73588929201166 0 78.94657441000972"/></g><g transform="rotate(330)"><path d="M 0 78.94657441000972 Q 26.315524803336572 94.73588929201166 0 118.41986161501458 Q -26.315524803336572 94.73588929201166 0 78.94657441000972"/></g><g transform="rotate(0)"><path d="M -27.865398556718397 111.46159422687359 Q 0 133.7539130722483 27.865398556718397 111.46159422687359"/></g><g transform="rotate(30)"><path d="M -27.865398556718397 111.46159422687359 Q 0 133.7539130722483 27.865398556718397 111.46159422687359"/></g><g transform="rotate(60)"><path d="M -27.865398556718397 111.46159422687359 Q 0 133.7539130722483 27.865398556718397 111.46159422687359"/></g><g transform="rotate(90)"><path d="M -27.865398556718397 111.46159422687359 Q 0 133.7539130722483 27.865398556718397 111.46159422687359"/></g><g transform="rotate(120)"><path d="M -27.865398556718397 111.46159422687359 Q 0 133.7539130722483 27.865398556718397 111.46159422687359"/></g><g transform="rotate(150)"><path d="M -27.865398556718397 111.46159422687359 Q 0 133.7539130722483 27.865398556718397 111.46159422687359"/></g><g transform="rotate(180)"><path d="M -27.865398556718397 111.46159422687359 Q 0 133.7539130722483 27.865398556718397 111.46159422687359"/></g><g transform="rotate(210)"><path d="M -27.865398556718397 111.46159422687359 Q 0 133.7539130722483 27.865398556718397 111.46159422687359"/></g><g transform="rotate(240)"><path d="M -27.865398556718397 111.46159422687359 Q 0 133.7539130722483 27.865398556718397 111.46159422687359"/></g><g transform="rotate(270)"><path d="M -27.865398556718397 111.46159422687359 Q 0 133.7539130722483 27.865398556718397 111.46159422687359"/></g><g transform="rotate(300)"><path d="M -27.865398556718397 111.46159422687359 Q 0 133.7539130722483 27.865398556718397 111.46159422687359"/></g><g transform="rotate(330)"><path d="M -27.865398556718397 111.46159422687359 Q 0 133.7539130722483 27.865398556718397 111.46159422687359"/></g><g transform="rotate(0)"><path d="M -39.063267991101995 156.25307196440798 Q 0 187.50368635728958 39.063267991101995 156.25307196440798"/></g><g transform="rotate(30)"><path d="M -39.063267991101995 156.25307196440798 Q 0 187.50368635728958 39.063267991101995 156.25307196440798"/></g><g transform="rotate(60)"><path d="M -39.063267991101995 156.25307196440798 Q 0 187.50368635728958 39.063267991101995 156.25307196440798"/></g><g transform="rotate(90)"><path d="M -39.063267991101995 156.25307196440798 Q 0 187.50368635728958 39.063267991101995 156.25307196440798"/></g><g transform="rotate(120)"><path d="M -39.063267991101995 156.25307196440798 Q 0 187.50368635728958 39.063267991101995 156.25307196440798"/></g><g transform="rotate(150)"><path d="M -39.063267991101995 156.25307196440798 Q 0 187.50368635728958 39.063267991101995 156.25307196440798"/></g><g transform="rotate(180)"><path d="M -39.063267991101995 156.25307196440798 Q 0 187.50368635728958 39.063267991101995 156.25307196440798"/></g><g transform="rotate(210)"><path d="M -39.063267991101995 156.25307196440798 Q 0 187.50368635728958 39.063267991101995 156.25307196440798"/></g><g transform="rotate(240)"><path d="M -39.063267991101995 156.25307196440798 Q 0 187.50368635728958 39.063267991101995 156.25307196440798"/></g><g transform="rotate(270)"><path d="M -39.063267991101995 156.25307196440798 Q 0 187.50368635728958 39.063267991101995 156.25307196440798"/></g><g transform="rotate(300)"><path d="M -39.063267991101995 156.25307196440798 Q 0 187.50368635728958 39.063267991101995 156.25307196440798"/></g><g transform="rotate(330)"><path d="M -39.063267991101995 156.25307196440798 Q 0 187.50368635728958 39.063267991101995 156.25307196440798"/></g><g transform="rotate(0)"><path d="M 0 191.64507342709436 L 0 249.13859545522268"/></g><g transform="rotate(30)"><path d="M 0 191.64507342709436 L 0 249.13859545522268"/></g><g transform="rotate(60)"><path d="M 0 191.64507342709436 L 0 249.13859545522268"/></g><g transform="rotate(90)"><path d="M 0 191.64507342709436 L 0 249.13859545522268"/></g><g transform="rotate(120)"><path d="M 0 191.64507342709436 L 0 249.13859545522268"/></g><g transform="rotate(150)"><path d="M 0 191.64507342709436 L 0 249.13859545522268"/></g><g transform="rotate(180)"><path d="M 0 191.64507342709436 L 0 249.13859545522268"/></g><g transform="rotate(210)"><path d="M 0 191.64507342709436 L 0 249.13859545522268"/></g><g transform="rotate(240)"><path d="M 0 191.64507342709436 L 0 249.13859545522268"/></g><g transform="rotate(270)"><path d="M 0 191.64507342709436 L 0 249.13859545522268"/></g><g transform="rotate(300)"><path d="M 0 191.64507342709436 L 0 249.13859545522268"/></g><g transform="rotate(330)"><path d="M 0 191.64507342709436 L 0 249.13859545522268"/></g><g transform="rotate(0)"><path d="M 0 227.49004672074483 L 0 295.73706073696826"/></g><g transform="rotate(30)"><path d="M 0 227.49004672074483 L 0 295.73706073696826"/></g><g transform="rotate(60)"><path d="M 0 227.49004672074483 L 0 295.73706073696826"/></g><g transform="rotate(90)"><path d="M 0 227.49004672074483 L 0 295.73706073696826"/></g><g transform="rotate(120)"><path d="M 0 227.49004672074483 L 0 295.73706073696826"/></g><g transform="rotate(150)"><path d="M 0 227.49004672074483 L 0 295.73706073696826"/></g><g transform="rotate(180)"><path d="M 0 227.49004672074483 L 0 295.73706073696826"/></g><g transform="rotate(210)"><path d="M 0 227.49004672074483 L 0 295.73706073696826"/></g><g transform="rotate(240)"><path d="M 0 227.49004672074483 L 0 295.73706073696826"/></g><g transform="rotate(270)"><path d="M 0 227.49004672074483 L 0 295.73706073696826"/></g><g transform="rotate(300)"><path d="M 0 227.49004672074483 L 0 295.73706073696826"/></g><g transform="rotate(330)"><path d="M 0 227.49004672074483 L 0 295.73706073696826"/></g><g transform="rotate(0)"><path d="M 0 265.89700981353724 L 0 345.6661127575984"/></g><g transform="rotate(30)"><path d="M 0 265.89700981353724 L 0 345.6661127575984"/></g><g transform="rotate(60)"><path d="M 0 265.89700981353724 L 0 345.6661127575984"/></g><g transform="rotate(90)"><path d="M 0 265.89700981353724 L 0 345.6661127575984"/></g><g transform="rotate(120)"><path d="M 0 265.89700981353724 L 0 345.6661127575984"/></g><g transform="rotate(150)"><path d="M 0 265.89700981353724 L 0 345.6661127575984"/></g><g transform="rotate(180)"><path d="M 0 265.89700981353724 L 0 345.6661127575984"/></g><g transform="rotate(210)"><path d="M 0 265.89700981353724 L 0 345.6661127575984"/></g><g transform="rotate(240)"><path d="M 0 265.89700981353724 L 0 345.6661127575984"/></g><g transform="rotate(270)"><path d="M 0 265.89700981353724 L 0 345.6661127575984"/></g><g transform="rotate(300)"><path d="M 0 265.89700981353724 L 0 345.6661127575984"/></g><g transform="rotate(330)"><path d="M 0 265.89700981353724 L 0 345.6661127575984"/></g><g transform="rotate(0)"><path d="M 0 294.5686858509564 L 73.6421714627391 353.48242302114767 L 0 412.39616019133894 L -73.6421714627391 353.48242302114767 Z"/></g><g transform="rotate(30)"><path d="M 0 294.5686858509564 L 73.6421714627391 353.48242302114767 L 0 412.39616019133894 L -73.6421714627391 353.48242302114767 Z"/></g><g transform="rotate(60)"><path d="M 0 294.5686858509564 L 73.6421714627391 353.48242302114767 L 0 412.39616019133894 L -73.6421714627391 353.48242302114767 Z"/></g><g transform="rotate(90)"><path d="M 0 294.5686858509564 L 73.6421714627391 353.48242302114767 L 0 412.39616019133894 L -73.6421714627391 353.48242302114767 Z"/></g><g transform="rotate(120)"><path d="M 0 294.5686858509564 L 73.6421714627391 353.48242302114767 L 0 412.39616019133894 L -73.6421714627391 353.48242302114767 Z"/></g><g transform="rotate(150)"><path d="M 0 294.5686858509564 L 73.6421714627391 353.48242302114767 L 0 412.39616019133894 L -73.6421714627391 353.48242302114767 Z"/></g><g transform="rotate(180)"><path d="M 0 294.5686858509564 L 73.6421714627391 353.48242302114767 L 0 412.39616019133894 L -73.6421714627391 353.48242302114767 Z"/></g><g transform="rotate(210)"><path d="M 0 294.5686858509564 L 73.6421714627391 353.48242302114767 L 0 412.39616019133894 L -73.6421714627391 353.48242302114767 Z"/></g><g transform="rotate(240)"><path d="M 0 294.5686858509564 L 73.6421714627391 353.48242302114767 L 0 412.39616019133894 L -73.6421714627391 353.48242302114767 Z"/></g><g transform="rotate(270)"><path d="M 0 294.5686858509564 L 73.6421714627391 353.48242302114767 L 0 412.39616019133894 L -73.6421714627391 353.48242302114767 Z"/></g><g transform="rotate(300)"><path d="M 0 294.5686858509564 L 73.6421714627391 353.48242302114767 L 0 412.39616019133894 L -73.6421714627391 353.48242302114767 Z"/></g><g transform="rotate(330)"><path d="M 0 294.5686858509564 L 73.6421714627391 353.48242302114767 L 0 412.39616019133894 L -73.6421714627391 353.48242302114767 Z"/></g><g transform="rotate(0)"><path d="M 0 336.9883088808921 Q 112.32943629363069 404.38597065707046 0 505.4824633213381 Q -112.32943629363069 404.38597065707046 0 336.9883088808921"/></g><g transform="rotate(30)"><path d="M 0 336.9883088808921 Q 112.32943629363069 404.38597065707046 0 505.4824633213381 Q -112.32943629363069 404.38597065707046 0 336.9883088808921"/></g><g transform="rotate(60)"><path d="M 0 336.9883088808921 Q 112.32943629363069 404.38597065707046 0 505.4824633213381 Q -112.32943629363069 404.38597065707046 0 336.9883088808921"/></g><g transform="rotate(90)"><path d="M 0 336.9883088808921 Q 112.32943629363069 404.38597065707046 0 505.4824633213381 Q -112.32943629363069 404.38597065707046 0 336.9883088808921"/></g><g transform="rotate(120)"><path d="M 0 336.9883088808921 Q 112.32943629363069 404.38597065707046 0 505.4824633213381 Q -112.32943629363069 404.38597065707046 0 336.9883088808921"/></g><g transform="rotate(150)"><path d="M 0 336.9883088808921 Q 112.32943629363069 404.38597065707046 0 505.4824633213381 Q -112.32943629363069 404.38597065707046 0 336.9883088808921"/></g><g transform="rotate(180)"><path d="M 0 336.9883088808921 Q 112.32943629363069 404.38597065707046 0 505.4824633213381 Q -112.32943629363069 404.38597065707046 0 336.9883088808921"/></g><g transform="rotate(210)"><path d="M 0 336.9883088808921 Q 112.32943629363069 404.38597065707046 0 505.4824633213381 Q -112.32943629363069 404.38597065707046 0 336.9883088808921"/></g><g transform="rotate(240)"><path d="M 0 336.9883088808921 Q 112.32943629363069 404.38597065707046 0 505.4824633213381 Q -112.32943629363069 404.38597065707046 0 336.9883088808921"/></g><g transform="rotate(270)"><path d="M 0 336.9883088808921 Q 112.32943629363069 404.38597065707046 0 505.4824633213381 Q -112.32943629363069 404.38597065707046 0 336.9883088808921"/></g><g transform="rotate(300)"><path d="M 0 336.9883088808921 Q 112.32943629363069 404.38597065707046 0 505.4824633213381 Q -112.32943629363069 404.38597065707046 0 336.9883088808921"/></g><g transform="rotate(330)"><path d="M 0 336.9883088808921 Q 112.32943629363069 404.38597065707046 0 505.4824633213381 Q -112.32943629363069 404.38597065707046 0 336.9883088808921"/></g></g></svg>