<svg xmlns="http://www.w3.org/2000/svg" viewBox="0 0 800 800" width="800" height="800">
    <rect width="100%" height="100%" fill="white"/>
    <g transform="translate(400, 400)" fill="none" stroke="black" stroke-width="4" stroke-linecap="round" stroke-linejoin="round"><g transform="rotate(0)"><path d="M 0 56.89460763242096 Q 18.964869210806985 68.27352915890515 0 85.34191144863144 Q -18.964869210806985 68.27352915890515 0 56.89460763242096"/></g><g transform="rotate(25.714285714285715)"><path d="M 0 56.89460763242096 Q 18.964869210806985 68.27352915890515 0 85.34191144863144 Q -18.964869210806985 68.27352915890515 0 56.89460763242096"/></g><g transform="rotate(51.42857142857143)"><path d="M 0 56.89460763242096 Q 18.964869210806985 68.27352915890515 0 85.34191144863144 Q -18.964869210806985 68.27352915890515 0 56.89460763242096"/></g><g transform="rotate(77.14285714285714)"><path d="M 0 56.89460763242096 Q 18.964869210806985 68.27352915890515 0 85.34191144863144 Q -18.964869210806985 68.27352915890515 0 56.89460763242096"/></g><g transform="rotate(102.85714285714286)"><path d="M 0 56.89460763242096 Q 18.964869210806985 68.27352915890515 0 85.34191144863144 Q -18.964869210806985 68.27352915890515 0 56.89460763242096"/></g><g transform="rotate(128.57142857142858)"><path d="M 0 56.89460763242096 Q 18.964869210806985 68.27352915890515 0 85.34191144863144 Q -18.964869210806985 68.27352915890515 0 56.89460763242096"/></g><g transform="rotate(154.28571428571428)"><path d="M 0 56.89460763242096 Q 18.964869210806985 68.27352915890515 0 85.34191144863144 Q -18.964869210806985 68.27352915890515 0 56.89460763242096"/></g><g transform="rotate(180)"><path d="M 0 56.89460763242096 Q 18.964869210806985 68.27352915890515 0 85.34191144863144 Q -18.964869210806985 68.27352915890515 0 56.89460763242096"/></g><g transform="rotate(205.71428571428572)"><path d="M 0 56.89460763242096 Q 18.964869210806985 68.27352915890515 0 85.34191144863144 Q -18.964869210806985 68.27352915890515 0 56.89460763242096"/></g><g transform="rotate(231.42857142857142)"><path d="M 0 56.89460763242096 Q 18.964869210806985 68.27352915890515 0 85.34191144863144 Q -18.964869210806985 68.27352915890515 0 56.89460763242096"/></g><g transform="rotate(257.14285714285717)"><path d="M 0 56.89460763242096 Q 18.964869210806985 68.27352915890515 0 85.34191144863144 Q -18.964869210806985 68.27352915890515 0 56.89460763242096"/></g><g transform="rotate(282.85714285714283)"><path d="M 0 56.89460763242096 Q 18.964869210806985 68.27352915890515 0 85.34191144863144 Q -18.964869210806985 68.27352915890515 0 56.89460763242096"/></g><g transform="rotate(308.57142857142856)"><path d="M 0 56.89460763242096 Q 18.964869210806985 68.27352915890515 0 85.34191144863144 Q -18.964869210806985 68.27352915890515 0 56.89460763242096"/></g><g transform="rotate(334.2857142857143)"><path d="M 0 56.89460763242096 Q 18.964869210806985 68.27352915890515 0 85.34191144863144 Q -18.964869210806985 68.27352915890515 0 56.89460763242096"/></g><g transform="rotate(0)"><path d="M 0 110.3576521932458 L 27.58941304831145 132.42918263189495 L 0 154.5007130705441 L -27.58941304831145 132.42918263189495 Z"/></g><g transform="rotate(25.714285714285715)"><path d="M 0 110.3576521932458 L 27.58941304831145 132.42918263189495 L 0 154.5007130705441 L -27.58941304831145 132.42918263189495 Z"/></g><g transform="rotate(51.42857142857143)"><path d="M 0 110.3576521932458 L 27.58941304831145 132.42918263189495 L 0 154.5007130705441 L -27.58941304831145 132.42918263189495 Z"/></g><g transform="rotate(77.14285714285714)"><path d="M 0 110.3576521932458 L 27.58941304831145 132.42918263189495 L 0 154.5007130705441 L -27.58941304831145 132.42918263189495 Z"/></g><g transform="rotate(102.85714285714286)"><path d="M 0 110.3576521932458 L 27.58941304831145 132.42918263189495 L 0 154.5007130705441 L -27.58941304831145 132.42918263189495 Z"/></g><g transform="rotate(128.57142857142858)"><path d="M 0 110.3576521932458 L 27.58941304831145 132.42918263189495 L 0 154.5007130705441 L -27.58941304831145 132.42918263189495 Z"/></g><g transform="rotate(154.28571428571428)"><path d="M 0 110.3576521932458 L 27.58941304831145 132.42918263189495 L 0 154.5007130705441 L -27.58941304831145 132.42918263189495 Z"/></g><g transform="rotate(180)"><path d="M 0 110.3576521932458 L 27.58941304831145 132.42918263189495 L 0 154.5007130705441 L -27.58941304831145 132.42918263189495 Z"/></g><g transform="rotate(205.71428571428572)"><path d="M 0 110.3576521932458 L 27.58941304831145 132.42918263189495 L 0 154.5007130705441 L -27.58941304831145 132.42918263189495 Z"/></g><g transform="rotate(231.42857142857142)"><path d="M 0 110.3576521932458 L 27.58941304831145 132.42918263189495 L 0 154.5007130705441 L -27.58941304831145 132.42918263189495 Z"/></g><g transform="rotate(257.14285714285717)"><path d="M 0 110.3576521932458 L 27.58941304831145 132.42918263189495 L 0 154.5007130705441 L -27.58941304831145 132.42918263189495 Z"/></g><g transform="rotate(282.85714285714283)"><path d="M 0 110.3576521932458 L 27.58941304831145 132.42918263189495 L 0 154.5007130705441 L -27.58941304831145 132.42918263189495 Z"/></g><g transform="rotate(308.57142857142856)"><path d="M 0 110.3576521932458 L 27.58941304831145 132.42918263189495 L 0 154.5007130705441 L -27.58941304831145 132.42918263189495 Z"/></g><g transform="rotate(334.2857142857143)"><path d="M 0 110.3576521932458 L 27.58941304831145 132.42918263189495 L 0 154.5007130705441 L -27.58941304831145 132.42918263189495 Z"/></g><g transform="rotate(0)"><path d="M 0 148.32003628990304 L 0 192.81604717687395"/></g><g transform="rotate(25.714285714285715)"><path d="M 0 148.32003628990304 L 0 192.81604717687395"/></g><g transform="rotate(51.42857142857143)"><path d="M 0 148.32003628990304 L 0 192.81604717687395"/></g><g transform="rotate(77.14285714285714)"><path d="M 0 148.32003628990304 L 0 192.81604717687395"/></g><g transform="rotate(102.85714285714286)"><path d="M 0 148.32003628990304 L 0 192.81604717687395"/></g><g transform="rotate(128.57142857142858)"><path d="M 0 148.32003628990304 L 0 192.81604717687395"/></g><g transform="rotate(154.28571428571428)"><path d="M 0 148.32003628990304 L 0 192.81604717687395"/></g><g transform="rotate(180)"><path d="M 0 148.32003628990304 L 0 192.81604717687395"/></g><g transform="rotate(205.71428571428572)"><path d="M 0 148.32003628990304 L 0 192.81604717687395"/></g><g transform="rotate(231.42857142857142)"><path d="M 0 148.32003628990304 L 0 192.81604717687395"/></g><g transform="rotate(257.14285714285717)"><path d="M 0 148.32003628990304 L 0 192.81604717687395"/></g><g transform="rotate(282.85714285714283)"><path d="M 0 148.32003628990304 L 0 192.81604717687395"/></g><g transform="rotate(308.57142857142856)"><path d="M 0 148.32003628990304 L 0 192.81604717687395"/></g><g transform="rotate(334.2857142857143)"><path d="M 0 148.32003628990304 L 0 192.81604717687395"/></g><g transform="rotate(0)"><circle cx="0" cy="201.9514873670414" r="50.48787184176035"/></g><g transform="rotate(25.714285714285715)"><circle cx="0" cy="201.9514873670414" r="50.48787184176035"/></g><g transform="rotate(51.42857142857143)"><circle cx="0" cy="201.9514873670414" r="50.48787184176035"/></g><g transform="rotate(77.14285714285714)"><circle cx="0" cy="201.9514873670414" r="50.48787184176035"/></g><g transform="rotate(102.85714285714286)"><circle cx="0" cy="201.9514873670414" r="50.48787184176035"/></g><g transform="rotate(128.57142857142858)"><circle cx="0" cy="201.9514873670414" r="50.48787184176035"/></g><g transform="rotate(154.28571428571428)"><circle cx="0" cy="201.9514873670414" r="50.48787184176035"/></g><g transform="rotate(180)"><circle cx="0" cy="201.9514873670414" r="50.48787184176035"/></g><g transform="rotate(205.71428571428572)"><circle cx="0" cy="201.9514873670414" r="50.48787184176035"/></g><g transform="rotate(231.42857142857142)"><circle cx="0" cy="201.9514873670414" r="50.48787184176035"/></g><g transform="rotate(257.14285714285717)"><circle cx="0" cy="201.9514873670414" r="50.48787184176035"/></g><g transform="rotate(282.85714285714283)"><circle cx="0" cy="201.9514873670414" r="50.48787184176035"/></g><g transform="rotate(308.57142857142856)"><circle cx="0" cy="201.9514873670414" r="50.48787184176035"/></g><g transform="rotate(334.2857142857143)"><circle cx="0" cy="201.9514873670414" r="50.48787184176035"/></g><g transform="rotate(0)"><path d="M 0 256.794219937486 L 0 333.8324859187318"/></g><g transform="rotate(25.714285714285715)"><path d="M 0 256.794219937486 L 0 333.8324859187318"/></g><g transform="rotate(51.42857142857143)"><path d="M 0 256.794219937486 L 0 333.8324859187318"/></g><g transform="rotate(77.14285714285714)"><path d="M 0 256.794219937486 L 0 333.8324859187318"/></g><g transform="rotate(102.85714285714286)"><path d="M 0 256.794219937486 L 0 333.8324859187318"/></g><g transform="rotate(128.57142857142858)"><path d="M 0 256.794219937486 L 0 333.8324859187318"/></g><g transform="rotate(154.28571428571428)"><path d="M 0 256.794219937486 L 0 333.8324859187318"/></g><g transform="rotate(180)"><path d="M 0 256.794219937486 L 0 333.8324859187318"/></g><g transform="rotate(205.71428571428572)"><path d="M 0 256.794219937486 L 0 333.8324859187318"/></g><g transform="rotate(231.42857142857142)"><path d="M 0 256.794219937486 L 0 333.8324859187318"/></g><g transform="rotate(257.14285714285717)"><path d="M 0 256.794219937486 L 0 333.8324859187318"/></g><g transform="rotate(282.85714285714283)"><path d="M 0 256.794219937486 L 0 333.8324859187318"/></g><g transform="rotate(308.57142857142856)"><path d="M 0 256.794219937486 L 0 333.8324859187318"/></g><g transform="rotate(334.2857142857143)"><path d="M 0 256.794219937486 L 0 333.8324859187318"/></g><g transform="rotate(0)"><circle cx="0" cy="325.65619272335124" r="81.41404818083781"/></g><g transform="rotate(25.714285714285715)"><circle cx="0" cy="325.65619272335124" r="81.41404818083781"/></g><g transform="rotate(51.42857142857143)"><circle cx="0" cy="325.65619272335124" r="81.41404818083781"/></g><g transform="rotate(77.14285714285714)"><circle cx="0" cy="325.65619272335124" r="81.41404818083781"/></g><g transform="rotate(102.85714285714286)"><circle cx="0" cy="325.65619272335124" r="81.41404818083781"/></g><g transform="rotate(128.57142857142858)"><circle cx="0" cy="325.65619272335124" r="81.41404818083781"/></g><g transform="rotate(154.28571428571428)"><circle cx="0" cy="325.65619272335124" r="81.41404818083781"/></g><g transform="rotate(180)"><circle cx="0" cy="325.65619272335124" r="81.41404818083781"/></g><g transform="rotate(205.71428571428572)"><circle cx="0" cy="325.65619272335124" r="81.41404818083781"/></g><g transform="rotate(231.42857142857142)"><circle cx="0" cy="325.65619272335124" r="81.41404818083781"/></g><g transform="rotate(257.14285714285717)"><circle cx="0" cy="325.65619272335124" r="81.41404818083781"/></g><g transform="rotate(282.85714285714283)"><circle cx="0" cy="325.65619272335124" r="81.41404818083781"/></g><g transform="rotate(308.57142857142856)"><circle cx="0" cy="325.65619272335124" r="81.41404818083781"/></g><g transform="rotate(334.2857142857143)"><circle cx="0" cy="325.65619272335124" r="81.41404818083781"/></g></g></svg>