<svg xmlns="http://www.w3.org/2000/svg" viewBox="0 0 800 800" width="800" height="800">
    <rect width="100%" height="100%" fill="white"/>
    <g transform="translate(400, 400)" fill="none" stroke="black" stroke-width="4" stroke-linecap="round" stroke-linejoin="round"><g transform="rotate(0)"><path d="M -10.32994864275679 41.31979457102716 Q 0 49.58375348523259 10.32994864275679 41.31979457102716"/></g><g transform="rotate(36)"><path d="M -10.32994864275679 41.31979457102716 Q 0 49.58375348523259 10.32994864275679 41.31979457102716"/></g><g transform="rotate(72)"><path d="M -10.32994864275679 41.31979457102716 Q 0 49.58375348523259 10.32994864275679 41.31979457102716"/></g><g transform="rotate(108)"><path d="M -10.32994864275679 41.31979457102716 Q 0 49.58375348523259 10.32994864275679 41.31979457102716"/></g><g transform="rotate(144)"><path d="M -10.32994864275679 41.31979457102716 Q 0 49.58375348523259 10.32994864275679 41.31979457102716"/></g><g transform="rotate(180)"><path d="M -10.32994864275679 41.31979457102716 Q 0 49.58375348523259 10.32994864275679 41.31979457102716"/></g><g transform="rotate(216)"><path d="M -10.32994864275679 41.31979457102716 Q 0 49.58375348523259 10.32994864275679 41.31979457102716"/></g><g transform="rotate(252)"><path d="M -10.32994864275679 41.31979457102716 Q 0 49.58375348523259 10.32994864275679 41.31979457102716"/></g><g transform="rotate(288)"><path d="M -10.32994864275679 41.31979457102716 Q 0 49.58375348523259 10.32994864275679 41.31979457102716"/></g><g transform="rotate(324)"><path d="M -10.32994864275679 41.31979457102716 Q 0 49.58375348523259 10.32994864275679 41.31979457102716"/></g><g transform="rotate(0)"><path d="M 0 82.82254587444994 L 20.705636468612486 99.38705504933993 L 0 115.95156422422991 L -20.705636468612486 99.38705504933993 Z"/></g><g transform="rotate(36)"><path d="M 0 82.82254587444994 L 20.705636468612486 99.38705504933993 L 0 115.95156422422991 L -20.705636468612486 99.38705504933993 Z"/></g><g transform="rotate(72)"><path d="M 0 82.82254587444994 L 20.705636468612486 99.38705504933993 L 0 115.95156422422991 L -20.705636468612486 99.38705504933993 Z"/></g><g transform="rotate(108)"><path d="M 0 82.82254587444994 L 20.705636468612486 99.38705504933993 L 0 115.95156422422991 L -20.705636468612486 99.38705504933993 Z"/></g><g transform="rotate(144)"><path d="M 0 82.82254587444994 L 20.705636468612486 99.38705504933993 L 0 115.95156422422991 L -20.705636468612486 99.38705504933993 Z"/></g><g transform="rotate(180)"><path d="M 0 82.82254587444994 L 20.705636468612486 99.38705504933993 L 0 115.95156422422991 L -20.705636468612486 99.38705504933993 Z"/></g><g transform="rotate(216)"><path d="M 0 82.82254587444994 L 20.705636468612486 99.38705504933993 L 0 115.95156422422991 L -20.705636468612486 99.38705504933993 Z"/></g><g transform="rotate(252)"><path d="M 0 82.82254587444994 L 20.705636468612486 99.38705504933993 L 0 115.95156422422991 L -20.705636468612486 99.38705504933993 Z"/></g><g transform="rotate(288)"><path d="M 0 82.82254587444994 L 20.705636468612486 99.38705504933993 L 0 115.95156422422991 L -20.705636468612486 99.38705504933993 Z"/></g><g transform="rotate(324)"><path d="M 0 82.82254587444994 L 20.705636468612486 99.38705504933993 L 0 115.95156422422991 L -20.705636468612486 99.38705504933993 Z"/></g><g transform="rotate(0)"><path d="M 0 111.4519912759877 L 27.862997818996924 133.74238953118524 L 0 156.03278778638276 L -27.862997818996924 133.74238953118524 Z"/></g><g transform="rotate(36)"><path d="M 0 111.4519912759877 L 27.862997818996924 133.74238953118524 L 0 156.03278778638276 L -27.862997818996924 133.74238953118524 Z"/></g><g transform="rotate(72)"><path d="M 0 111.4519912759877 L 27.862997818996924 133.74238953118524 L 0 156.03278778638276 L -27.862997818996924 133.74238953118524 Z"/></g><g transform="rotate(108)"><path d="M 0 111.4519912759877 L 27.862997818996924 133.74238953118524 L 0 156.03278778638276 L -27.862997818996924 133.74238953118524 Z"/></g><g transform="rotate(144)"><path d="M 0 111.4519912759877 L 27.862997818996924 133.74238953118524 L 0 156.03278778638276 L -27.862997818996924 133.74238953118524 Z"/></g><g transform="rotate(180)"><path d="M 0 111.4519912759877 L 27.862997818996924 133.74238953118524 L 0 156.03278778638276 L -27.862997818996924 133.74238953118524 Z"/></g><g transform="rotate(216)"><path d="M 0 111.4519912759877 L 27.862997818996924 133.74238953118524 L 0 156.03278778638276 L -27.862997818996924 133.74238953118524 Z"/></g><g transform="rotate(252)"><path d="M 0 111.4519912759877 L 27.862997818996924 133.74238953118524 L 0 156.03278778638276 L -27.862997818996924 133.74238953118524 Z"/></g><g transform="rotate(288)"><path d="M 0 111.4519912759877 L 27.862997818996924 133.74238953118524 L 0 156.03278778638276 L -27.862997818996924 133.74238953118524 Z"/></g><g transform="rotate(324)"><path d="M 0 111.4519912759877 L 27.862997818996924 133.74238953118524 L 0 156.03278778638276 L -27.862997818996924 133.74238953118524 Z"/></g><g transform="rotate(0)"><path d="M 0 157.50932556266588 Q 52.503108520888624 189.01119067519906 0 236.26398834399882 Q -52.503108520888624 189.01119067519906 0 157.50932556266588"/></g><g transform="rotate(36)"><path d="M 0 157.50932556266588 Q 52.503108520888624 189.01119067519906 0 236.26398834399882 Q -52.503108520888624 189.01119067519906 0 157.50932556266588"/></g><g transform="rotate(72)"><path d="M 0 157.50932556266588 Q 52.503108520888624 189.01119067519906 0 236.26398834399882 Q -52.503108520888624 189.01119067519906 0 157.50932556266588"/></g><g transform="rotate(108)"><path d="M 0 157.50932556266588 Q 52.503108520888624 189.01119067519906 0 236.26398834399882 Q -52.503108520888624 189.01119067519906 0 157.50932556266588"/></g><g transform="rotate(144)"><path d="M 0 157.50932556266588 Q 52.503108520888624 189.01119067519906 0 236.26398834399882 Q -52.503108520888624 189.01119067519906 0 157.50932556266588"/></g><g transform="rotate(180)"><path d="M 0 157.50932556266588 Q 52.503108520888624 189.01119067519906 0 236.26398834399882 Q -52.503108520888624 189.01119067519906 0 157.50932556266588"/></g><g transform="rotate(216)"><path d="M 0 157.50932556266588 Q 52.503108520888624 189.01119067519906 0 236.26398834399882 Q -52.503108520888624 189.01119067519906 0 157.50932556266588"/></g><g transform="rotate(252)"><path d="M 0 157.50932556266588 Q 52.503108520888624 189.01119067519906 0 236.26398834399882 Q -52.503108520888624 189.01119067519906 0 157.50932556266588"/></g><g transform="rotate(288)"><path d="M 0 157.50932556266588 Q 52.503108520888624 189.01119067519906 0 236.26398834399882 Q -52.503108520888624 189.01119067519906 0 157.50932556266588"/></g><g transform="rotate(324)"><path d="M 0 157.50932556266588 Q 52.503108520888624 189.01119067519906 0 236.26398834399882 Q -52.503108520888624 189.01119067519906 0 157.50932556266588"/></g><g transform="rotate(0)"><path d="M 0 195.32359176522328 Q 65.1078639217411 234.38831011826792 0 292.98538764783495 Q -65.1078639217411 234.38831011826792 0 195.32359176522328"/></g><g transform="rotate(36)"><path d="M 0 195.32359176522328 Q 65.1078639217411 234.38831011826792 0 292.98538764783495 Q -65.1078639217411 234.38831011826792 0 195.32359176522328"/></g><g transform="rotate(72)"><path d="M 0 195.32359176522328 Q 65.1078639217411 234.38831011826792 0 292.98538764783495 Q -65.1078639217411 234.38831011826792 0 195.32359176522328"/></g><g transform="rotate(108)"><path d="M 0 195.32359176522328 Q 65.1078639217411 234.38831011826792 0 292.98538764783495 Q -65.1078639217411 234.38831011826792 0 195.32359176522328"/></g><g transform="rotate(144)"><path d="M 0 195.32359176522328 Q 65.1078639217411 234.38831011826792 0 292.98538764783495 Q -65.1078639217411 234.38831011826792 0 195.32359176522328"/></g><g transform="rotate(180)"><path d="M 0 195.32359176522328 Q 65.1078639217411 234.38831011826792 0 292.98538764783495 Q -65.1078639217411 234.38831011826792 0 195.32359176522328"/></g><g transform="rotate(216)"><path d="M 0 195.32359176522328 Q 65.1078639217411 234.38831011826792 0 292.98538764783495 Q -65.1078639217411 234.38831011826792 0 195.32359176522328"/></g><g transform="rotate(252)"><path d="M 0 195.32359176522328 Q 65.1078639217411 234.38831011826792 0 292.98538764783495 Q -65.1078639217411 234.38831011826792 0 195.32359176522328"/></g><g transform="rotate(288)"><path d="M 0 195.32359176522328 Q 65.1078639217411 234.38831011826792 0 292.98538764783495 Q -65.1078639217411 234.38831011826792 0 195.32359176522328"/></g><g transform="rotate(324)"><path d="M 0 195.32359176522328 Q 65.1078639217411 234.38831011826792 0 292.98538764783495 Q -65.1078639217411 234.38831011826792 0 195.32359176522328"/></g><g transform="rotate(0)"><path d="M -57.82800550986495 231.3120220394598 Q 0 277.57442644735175 57.82800550986495 231.3120220394598"/></g><g transform="rotate(36)"><path d="M -57.82800550986495 231.3120220394598 Q 0 277.57442644735175 57.82800550986495 231.3120220394598"/></g><g transform="rotate(72)"><path d="M -57.82800550986495 231.3120220394598 Q 0 277.57442644735175 57.82800550986495 231.3120220394598"/></g><g transform="rotate(108)"><path d="M -57.82800550986495 231.3120220394598 Q 0 277.57442644735175 57.82800550986495 231.3120220394598"/></g><g transform="rotate(144)"><path d="M -57.82800550986495 231.3120220394598 Q 0 277.57442644735175 57.82800550986495 231.3120220394598"/></g><g transform="rotate(180)"><path d="M -57.82800550986495 231.3120220394598 Q 0 277.57442644735175 57.82800550986495 231.3120220394598"/></g><g transform="rotate(216)"><path d="M -57.82800550986495 231.3120220394598 Q 0 277.57442644735175 57.82800550986495 231.3120220394598"/></g><g transform="rotate(252)"><path d="M -57.82800550986495 231.3120220394598 Q 0 277.57442644735175 57.82800550986495 231.3120220394598"/></g><g transform="rotate(288)"><path d="M -57.82800550986495 231.3120220394598 Q 0 277.57442644735175 57.82800550986495 231.3120220394598"/></g><g transform="rotate(324)"><path d="M -57.82800550986495 231.3120220394598 Q 0 277.57442644735175 57.82800550986495 231.3120220394598"/></g><g transform="rotate(0)"><path d="M 0 263.3260841139903 L 65.83152102849758 315.9913009367884 L 0 368.6565177595864 L -65.83152102849758 315.9913009367884 Z"/></g><g transform="rotate(36)"><path d="M 0 263.3260841139903 L 65.83152102849758 315.9913009367884 L 0 368.6565177595864 L -65.83152102849758 315.9913009367884 Z"/></g><g transform="rotate(72)"><path d="M 0 263.3260841139903 L 65.83152102849758 315.9913009367884 L 0 368.6565177595864 L -65.83152102849758 315.9913009367884 Z"/></g><g transform="rotate(108)"><path d="M 0 263.3260841139903 L 65.83152102849758 315.9913009367884 L 0 368.6565177595864 L -65.83152102849758 315.9913009367884 Z"/></g><g transform="rotate(144)"><path d="M 0 263.3260841139903 L 65.83152102849758 315.9913009367884 L 0 368.6565177595864 L -65.83152102849758 315.9913009367884 Z"/></g><g transform="rotate(180)"><path d="M 0 263.3260841139903 L 65.83152102849758 315.9913009367884 L 0 368.6565177595864 L -65.83152102849758 315.9913009367884 Z"/></g><g transform="rotate(216)"><path d="M 0 263.3260841139903 L 65.83152102849758 315.9913009367884 L 0 368.6565177595864 L -65.83152102849758 315.9913009367884 Z"/></g><g transform="rotate(252)"><path d="M 0 263.3260841139903 L 65.83152102849758 315.9913009367884 L 0 368.6565177595864 L -65.83152102849758 315.9913009367884 Z"/></g><g transform="rotate(288)"><path d="M 0 263.3260841139903 L 65.83152102849758 315.9913009367884 L 0 368.6565177595864 L -65.83152102849758 315.9913009367884 Z"/></g><g transform="rotate(324)"><path d="M 0 263.3260841139903 L 65.83152102849758 315.9913009367884 L 0 368.6565177595864 L -65.83152102849758 315.9913009367884 Z"/></g><g transform="rotate(0)"><circle cx="0" cy="308.2192684606546" r="77.05481711516364"/></g><g transform="rotate(36)"><circle cx="0" cy="308.2192684606546" r="77.05481711516364"/></g><g transform="rotate(72)"><circle cx="0" cy="308.2192684606546" r="77.05481711516364"/></g><g transform="rotate(108)"><circle cx="0" cy="308.2192684606546" r="77.05481711516364"/></g><g transform="rotate(144)"><circle cx="0" cy="308.2192684606546" r="77.05481711516364"/></g><g transform="rotate(180)"><circle cx="0" cy="308.2192684606546" r="77.05481711516364"/></g><g transform="rotate(216)"><circle cx="0" cy="308.2192684606546" r="77.05481711516364"/></g><g transform="rotate(252)"><circle cx="0" cy="308.2192684606546" r="77.05481711516364"/></g><g transform="rotate(288)"><circle cx="0" cy="308.2192684606546" r="77.05481711516364"/></g><g transform="rotate(324)"><circle cx="0" cy="308.2192684606546" r="77.05481711516364"/></g><g transform="rotate(0)"><circle cx="0" cy="337.3265575938341" r="84.33163939845852"/></g><g transform="rotate(36)"><circle cx="0" cy="337.3265575938341" r="84.33163939845852"/></g><g transform="rotate(72)"><circle cx="0" cy="337.3265575938341" r="84.33163939845852"/></g><g transform="rotate(108)"><circle cx="0" cy="337.3265575938341" r="84.33163939845852"/></g><g transform="rotate(144)"><circle cx="0" cy="337.3265575938341" r="84.33163939845852"/></g><g transform="rotate(180)"><circle cx="0" cy="337.3265575938341" r="84.33163939845852"/></g><g transform="rotate(216)"><circle cx="0" cy="337.3265575938341" r="84.33163939845852"/></g><g transform="rotate(252)"><circle cx="0" cy="337.3265575938341" r="84.33163939845852"/></g><g transform="rotate(288)"><circle cx="0" cy="337.3265575938341" r="84.33163939845852"/></g><g transform="rotate(324)"><circle cx="0" cy="337.3265575938341" r="84.33163939845852"/></g></g></svg>