<svg xmlns="http://www.w3.org/2000/svg" viewBox="0 0 800 800" width="800" height="800">
    <rect width="100%" height="100%" fill="white"/>
    <g transform="translate(400, 400)" fill="none" stroke="black" stroke-width="4" stroke-linecap="round" stroke-linejoin="round"><g transform="rotate(0)"><circle cx="0" cy="53.17806559149176" r="13.29451639787294"/></g><g transform="rotate(22.5)"><circle cx="0" cy="53.17806559149176" r="13.29451639787294"/></g><g transform="rotate(45)"><circle cx="0" cy="53.17806559149176" r="13.29451639787294"/></g><g transform="rotate(67.5)"><circle cx="0" cy="53.17806559149176" r="13.29451639787294"/></g><g transform="rotate(90)"><circle cx="0" cy="53.17806559149176" r="13.29451639787294"/></g><g transform="rotate(112.5)"><circle cx="0" cy="53.17806559149176" r="13.29451639787294"/></g><g transform="rotate(135)"><circle cx="0" cy="53.17806559149176" r="13.29451639787294"/></g><g transform="rotate(157.5)"><circle cx="0" cy="53.17806559149176" r="13.29451639787294"/></g><g transform="rotate(180)"><circle cx="0" cy="53.17806559149176" r="13.29451639787294"/></g><g transform="rotate(202.5)"><circle cx="0" cy="53.17806559149176" r="13.29451639787294"/></g><g transform="rotate(225)"><circle cx="0" cy="53.17806559149176" r="13.29451639787294"/></g><g transform="rotate(247.5)"><circle cx="0" cy="53.17806559149176" r="13.29451639787294"/></g><g transform="rotate(270)"><circle cx="0" cy="53.17806559149176" r="13.29451639787294"/></g><g transform="rotate(292.5)"><circle cx="0" cy="53.17806559149176" r="13.29451639787294"/></g><g transform="rotate(315)"><circle cx="0" cy="53.17806559149176" r="13.29451639787294"/></g><g transform="rotate(337.5)"><circle cx="0" cy="53.17806559149176" r="13.29451639787294"/></g><g transform="rotate(0)"><circle cx="0" cy="90.51943316590041" r="22.629858291475102"/></g><g transform="rotate(22.5)"><circle cx="0" cy="90.51943316590041" r="22.629858291475102"/></g><g transform="rotate(45)"><circle cx="0" cy="90.51943316590041" r="22.629858291475102"/></g><g transform="rotate(67.5)"><circle cx="0" cy="90.51943316590041" r="22.629858291475102"/></g><g transform="rotate(90)"><circle cx="0" cy="90.51943316590041" r="22.629858291475102"/></g><g transform="rotate(112.5)"><circle cx="0" cy="90.51943316590041" r="22.629858291475102"/></g><g transform="rotate(135)"><circle cx="0" cy="90.51943316590041" r="22.629858291475102"/></g><g transform="rotate(157.5)"><circle cx="0" cy="90.51943316590041" r="22.629858291475102"/></g><g transform="rotate(180)"><circle cx="0" cy="90.51943316590041" r="22.629858291475102"/></g><g transform="rotate(202.5)"><circle cx="0" cy="90.51943316590041" r="22.629858291475102"/></g><g transform="rotate(225)"><circle cx="0" cy="90.51943316590041" r="22.629858291475102"/></g><g transform="rotate(247.5)"><circle cx="0" cy="90.51943316590041" r="22.629858291475102"/></g><g transform="rotate(270)"><circle cx="0" cy="90.51943316590041" r="22.629858291475102"/></g><g transform="rotate(292.5)"><circle cx="0" cy="90.51943316590041" r="22.629858291475102"/></g><g transform="rotate(315)"><circle cx="0" cy="90.51943316590041" r="22.629858291475102"/></g><g transform="rotate(337.5)"><circle cx="0" cy="90.51943316590041" r="22.629858291475102"/></g><g transform="rotate(0)"><path d="M -30.194594162749127 120.7783766509965 Q 0 144.9340519811958 30.194594162749127 120.7783766509965"/></g><g transform="rotate(22.5)"><path d="M -30.194594162749127 120.7783766509965 Q 0 144.9340519811958 30.194594162749127 120.7783766509965"/></g><g transform="rotate(45)"><path d="M -30.194594162749127 120.7783766509965 Q 0 144.9340519811958 30.194594162749127 120.7783766509965"/></g><g transform="rotate(67.5)"><path d="M -30.194594162749127 120.7783766509965 Q 0 144.9340519811958 30.194594162749127 120.7783766509965"/></g><g transform="rotate(90)"><path d="M -30.194594162749127 120.7783766509965 Q 0 144.9340519811958 30.194594162749127 120.7783766509965"/></g><g transform="rotate(112.5)"><path d="M -30.194594162749127 120.7783766509965 Q 0 144.9340519811958 30.194594162749127 120.7783766509965"/></g><g transform="rotate(135)"><path d="M -30.194594162749127 120.7783766509965 Q 0 144.9340519811958 30.194594162749127 120.7783766509965"/></g><g transform="rotate(157.5)"><path d="M -30.194594162749127 120.7783766509965 Q 0 144.9340519811958 30.194594162749127 120.7783766509965"/></g><g transform="rotate(180)"><path d="M -30.194594162749127 120.7783766509965 Q 0 144.9340519811958 30.194594162749127 120.7783766509965"/></g><g transform="rotate(202.5)"><path d="M -30.194594162749127 120.7783766509965 Q 0 144.9340519811958 30.194594162749127 120.7783766509965"/></g><g transform="rotate(225)"><path d="M -30.194594162749127 120.7783766509965 Q 0 144.9340519811958 30.194594162749127 120.7783766509965"/></g><g transform="rotate(247.5)"><path d="M -30.194594162749127 120.7783766509965 Q 0 144.9340519811958 30.194594162749127 120.7783766509965"/></g><g transform="rotate(270)"><path d="M -30.194594162749127 120.7783766509965 Q 0 144.9340519811958 30.194594162749127 120.7783766509965"/></g><g transform="rotate(292.5)"><path d="M -30.194594162749127 120.7783766509965 Q 0 144.9340519811958 30.194594162749127 120.7783766509965"/></g><g transform="rotate(315)"><path d="M -30.194594162749127 120.7783766509965 Q 0 144.9340519811958 30.194594162749127 120.7783766509965"/></g><g transform="rotate(337.5)"><path d="M -30.194594162749127 120.7783766509965 Q 0 144.9340519811958 30.194594162749127 120.7783766509965"/></g><g transform="rotate(0)"><path d="M 0 167.87893505301327 L 41.969733763253316 201.45472206361592 L 0 235.03050907421854 L -41.969733763253316 201.45472206361592 Z"/></g><g transform="rotate(22.5)"><path d="M 0 167.87893505301327 L 41.969733763253316 201.45472206361592 L 0 235.03050907421854 L -41.969733763253316 201.45472206361592 Z"/></g><g transform="rotate(45)"><path d="M 0 167.87893505301327 L 41.969733763253316 201.45472206361592 L 0 235.03050907421854 L -41.969733763253316 201.45472206361592 Z"/></g><g transform="rotate(67.5)"><path d="M 0 167.87893505301327 L 41.969733763253316 201.45472206361592 L 0 235.03050907421854 L -41.969733763253316 201.45472206361592 Z"/></g><g transform="rotate(90)"><path d="M 0 167.87893505301327 L 41.969733763253316 201.45472206361592 L 0 235.03050907421854 L -41.969733763253316 201.45472206361592 Z"/></g><g transform="rotate(112.5)"><path d="M 0 167.87893505301327 L 41.969733763253316 201.45472206361592 L 0 235.03050907421854 L -41.969733763253316 201.45472206361592 Z"/></g><g transform="rotate(135)"><path d="M 0 167.87893505301327 L 41.969733763253316 201.45472206361592 L 0 235.03050907421854 L -41.969733763253316 201.45472206361592 Z"/></g><g transform="rotate(157.5)"><path d="M 0 167.87893505301327 L 41.969733763253316 201.45472206361592 L 0 235.03050907421854 L -41.969733763253316 201.45472206361592 Z"/></g><g transform="rotate(180)"><path d="M 0 167.87893505301327 L 41.969733763253316 201.45472206361592 L 0 235.03050907421854 L -41.969733763253316 201.45472206361592 Z"/></g><g transform="rotate(202.5)"><path d="M 0 167.87893505301327 L 41.969733763253316 201.45472206361592 L 0 235.03050907421854 L -41.969733763253316 201.45472206361592 Z"/></g><g transform="rotate(225)"><path d="M 0 167.87893505301327 L 41.969733763253316 201.45472206361592 L 0 235.03050907421854 L -41.969733763253316 201.45472206361592 Z"/></g><g transform="rotate(247.5)"><path d="M 0 167.87893505301327 L 41.969733763253316 201.45472206361592 L 0 235.03050907421854 L -41.969733763253316 201.45472206361592 Z"/></g><g transform="rotate(270)"><path d="M 0 167.87893505301327 L 41.969733763253316 201.45472206361592 L 0 235.03050907421854 L -41.969733763253316 201.45472206361592 Z"/></g><g transform="rotate(292.5)"><path d="M 0 167.87893505301327 L 41.969733763253316 201.45472206361592 L 0 235.03050907421854 L -41.969733763253316 201.45472206361592 Z"/></g><g transform="rotate(315)"><path d="M 0 167.87893505301327 L 41.969733763253316 201.45472206361592 L 0 235.03050907421854 L -41.969733763253316 201.45472206361592 Z"/></g><g transform="rotate(337.5)"><path d="M 0 167.87893505301327 L 41.969733763253316 201.45472206361592 L 0 235.03050907421854 L -41.969733763253316 201.45472206361592 Z"/></g><g transform="rotate(0)"><path d="M 0 209.88787523005158 Q 69.96262507668386 251.8654502760619 0 314.83181284507737 Q -69.96262507668386 251.8654502760619 0 209.88787523005158"/></g><g transform="rotate(22.5)"><path d="M 0 209.88787523005158 Q 69.96262507668386 251.8654502760619 0 314.83181284507737 Q -69.96262507668386 251.8654502760619 0 209.88787523005158"/></g><g transform="rotate(45)"><path d="M 0 209.88787523005158 Q 69.96262507668386 251.8654502760619 0 314.83181284507737 Q -69.96262507668386 251.8654502760619 0 209.88787523005158"/></g><g transform="rotate(67.5)"><path d="M 0 209.88787523005158 Q 69.96262507668386 251.8654502760619 0 314.83181284507737 Q -69.96262507668386 251.8654502760619 0 209.88787523005158"/></g><g transform="rotate(90)"><path d="M 0 209.88787523005158 Q 69.96262507668386 251.8654502760619 0 314.83181284507737 Q -69.96262507668386 251.8654502760619 0 209.88787523005158"/></g><g transform="rotate(112.5)"><path d="M 0 209.88787523005158 Q 69.96262507668386 251.8654502760619 0 314.83181284507737 Q -69.96262507668386 251.8654502760619 0 209.88787523005158"/></g><g transform="rotate(135)"><path d="M 0 209.88787523005158 Q 69.96262507668386 251.8654502760619 0 314.83181284507737 Q -69.96262507668386 251.8654502760619 0 209.88787523005158"/></g><g transform="rotate(157.5)"><path d="M 0 209.88787523005158 Q 69.96262507668386 251.8654502760619 0 314.83181284507737 Q -69.96262507668386 251.8654502760619 0 209.88787523005158"/></g><g transform="rotate(180)"><path d="M 0 209.88787523005158 Q 69.96262507668386 251.8654502760619 0 314.83181284507737 Q -69.96262507668386 251.8654502760619 0 209.88787523005158"/></g><g transform="rotate(202.5)"><path d="M 0 209.88787523005158 Q 69.96262507668386 251.8654502760619 0 314.83181284507737 Q -69.96262507668386 251.8654502760619 0 209.88787523005158"/></g><g transform="rotate(225)"><path d="M 0 209.88787523005158 Q 69.96262507668386 251.8654502760619 0 314.83181284507737 Q -69.96262507668386 251.8654502760619 0 209.88787523005158"/></g><g transform="rotate(247.5)"><path d="M 0 209.88787523005158 Q 69.96262507668386 251.8654502760619 0 314.83181284507737 Q -69.96262507668386 251.8654502760619 0 209.88787523005158"/></g><g transform="rotate(270)"><path d="M 0 209.88787523005158 Q 69.96262507668386 251.8654502760619 0 314.83181284507737 Q -69.96262507668386 251.8654502760619 0 209.88787523005158"/></g><g transform="rotate(292.5)"><path d="M 0 209.88787523005158 Q 69.96262507668386 251.8654502760619 0 314.83181284507737 Q -69.96262507668386 251.8654502760619 0 209.88787523005158"/></g><g transform="rotate(315)"><path d="M 0 209.88787523005158 Q 69.96262507668386 251.8654502760619 0 314.83181284507737 Q -69.96262507668386 251.8654502760619 0 209.88787523005158"/></g><g transform="rotate(337.5)"><path d="M 0 209.88787523005158 Q 69.96262507668386 251.8654502760619 0 314.83181284507737 Q -69.96262507668386 251.8654502760619 0 209.88787523005158"/></g><g transform="rotate(0)"><path d="M 0 242.01933819334954 Q 80.67311273111652 290.42320583201945 0 363.0290072900243 Q -80.67311273111652 290.42320583201945 0 242.01933819334954"/></g><g transform="rotate(22.5)"><path d="M 0 242.01933819334954 Q 80.67311273111652 290.42320583201945 0 363.0290072900243 Q -80.67311273111652 290.42320583201945 0 242.01933819334954"/></g><g transform="rotate(45)"><path d="M 0 242.01933819334954 Q 80.67311273111652 290.42320583201945 0 363.0290072900243 Q -80.67311273111652 290.42320583201945 0 242.01933819334954"/></g><g transform="rotate(67.5)"><path d="M 0 242.01933819334954 Q 80.67311273111652 290.42320583201945 0 363.0290072900243 Q -80.67311273111652 290.42320583201945 0 242.01933819334954"/></g><g transform="rotate(90)"><path d="M 0 242.01933819334954 Q 80.67311273111652 290.42320583201945 0 363.0290072900243 Q -80.67311273111652 290.42320583201945 0 242.01933819334954"/></g><g transform="rotate(112.5)"><path d="M 0 242.01933819334954 Q 80.67311273111652 290.42320583201945 0 363.0290072900243 Q -80.67311273111652 290.42320583201945 0 242.01933819334954"/></g><g transform="rotate(135)"><path d="M 0 242.01933819334954 Q 80.67311273111652 290.42320583201945 0 363.0290072900243 Q -80.67311273111652 290.42320583201945 0 242.01933819334954"/></g><g transform="rotate(157.5)"><path d="M 0 242.01933819334954 Q 80.67311273111652 290.42320583201945 0 363.0290072900243 Q -80.67311273111652 290.42320583201945 0 242.01933819334954"/></g><g transform="rotate(180)"><path d="M 0 242.01933819334954 Q 80.67311273111652 290.42320583201945 0 363.0290072900243 Q -80.67311273111652 290.42320583201945 0 242.01933819334954"/></g><g transform="rotate(202.5)"><path d="M 0 242.01933819334954 Q 80.67311273111652 290.42320583201945 0 363.0290072900243 Q -80.67311273111652 290.42320583201945 0 242.01933819334954"/></g><g transform="rotate(225)"><path d="M 0 242.01933819334954 Q 80.67311273111652 290.42320583201945 0 363.0290072900243 Q -80.67311273111652 290.42320583201945 0 242.01933819334954"/></g><g transform="rotate(247.5)"><path d="M 0 242.01933819334954 Q 80.67311273111652 290.42320583201945 0 363.0290072900243 Q -80.67311273111652 290.42320583201945 0 242.01933819334954"/></g><g transform="rotate(270)"><path d="M 0 242.01933819334954 Q 80.67311273111652 290.42320583201945 0 363.0290072900243 Q -80.67311273111652 290.42320583201945 0 242.01933819334954"/></g><g transform="rotate(292.5)"><path d="M 0 242.01933819334954 Q 80.67311273111652 290.42320583201945 0 363.0290072900243 Q -80.67311273111652 290.42320583201945 0 242.01933819334954"/></g><g transform="rotate(315)"><path d="M 0 242.01933819334954 Q 80.67311273111652 290.42320583201945 0 363.0290072900243 Q -80.67311273111652 290.42320583201945 0 242.01933819334954"/></g><g transform="rotate(337.5)"><path d="M 0 242.01933819334954 Q 80.67311273111652 290.42320583201945 0 363.0290072900243 Q -80.67311273111652 290.42320583201945 0 242.01933819334954"/></g><g transform="rotate(0)"><path d="M 0 289.84975152183324 Q 96.61658384061109 347.8197018261999 0 434.77462728274986 Q -96.61658384061109 347.8197018261999 0 289.84975152183324"/></g><g transform="rotate(22.5)"><path d="M 0 289.84975152183324 Q 96.61658384061109 347.8197018261999 0 434.77462728274986 Q -96.61658384061109 347.8197018261999 0 289.84975152183324"/></g><g transform="rotate(45)"><path d="M 0 289.84975152183324 Q 96.61658384061109 347.8197018261999 0 434.77462728274986 Q -96.61658384061109 347.8197018261999 0 289.84975152183324"/></g><g transform="rotate(67.5)"><path d="M 0 289.84975152183324 Q 96.61658384061109 347.8197018261999 0 434.77462728274986 Q -96.61658384061109 347.8197018261999 0 289.84975152183324"/></g><g transform="rotate(90)"><path d="M 0 289.84975152183324 Q 96.61658384061109 347.8197018261999 0 434.77462728274986 Q -96.61658384061109 347.8197018261999 0 289.84975152183324"/></g><g transform="rotate(112.5)"><path d="M 0 289.84975152183324 Q 96.61658384061109 347.8197018261999 0 434.77462728274986 Q -96.61658384061109 347.8197018261999 0 289.84975152183324"/></g><g transform="rotate(135)"><path d="M 0 289.84975152183324 Q 96.61658384061109 347.8197018261999 0 434.77462728274986 Q -96.61658384061109 347.8197018261999 0 289.84975152183324"/></g><g transform="rotate(157.5)"><path d="M 0 289.84975152183324 Q 96.61658384061109 347.8197018261999 0 434.77462728274986 Q -96.61658384061109 347.8197018261999 0 289.84975152183324"/></g><g transform="rotate(180)"><path d="M 0 289.84975152183324 Q 96.61658384061109 347.8197018261999 0 434.77462728274986 Q -96.61658384061109 347.8197018261999 0 289.84975152183324"/></g><g transform="rotate(202.5)"><path d="M 0 289.84975152183324 Q 96.61658384061109 347.8197018261999 0 434.77462728274986 Q -96.61658384061109 347.8197018261999 0 289.84975152183324"/></g><g transform="rotate(225)"><path d="M 0 289.84975152183324 Q 96.61658384061109 347.8197018261999 0 434.77462728274986 Q -96.61658384061109 347.8197018261999 0 289.84975152183324"/></g><g transform="rotate(247.5)"><path d="M 0 289.84975152183324 Q 96.61658384061109 347.8197018261999 0 434.77462728274986 Q -96.61658384061109 347.8197018261999 0 289.84975152183324"/></g><g transform="rotate(270)"><path d="M 0 289.84975152183324 Q 96.61658384061109 347.8197018261999 0 434.77462728274986 Q -96.61658384061109 347.8197018261999 0 289.84975152183324"/></g><g transform="rotate(292.5)"><path d="M 0 289.84975152183324 Q 96.61658384061109 347.8197018261999 0 434.77462728274986 Q -96.61658384061109 347.8197018261999 0 289.84975152183324"/></g><g transform="rotate(315)"><path d="M 0 289.84975152183324 Q 96.61658384061109 347.8197018261999 0 434.77462728274986 Q -96.61658384061109 347.8197018261999 0 289.84975152183324"/></g><g transform="rotate(337.5)"><path d="M 0 289.84975152183324 Q 96.61658384061109 347.8197018261999 0 434.77462728274986 Q -96.61658384061109 347.8197018261999 0 289.84975152183324"/></g><g transform="rotate(0)"><path d="M 0 320.2552149211988 L 0 416.3317793975584"/></g><g transform="rotate(22.5)"><path d="M 0 320.2552149211988 L 0 416.3317793975584"/></g><g transform="rotate(45)"><path d="M 0 320.2552149211988 L 0 416.3317793975584"/></g><g transform="rotate(67.5)"><path d="M 0 320.2552149211988 L 0 416.3317793975584"/></g><g transform="rotate(90)"><path d="M 0 320.2552149211988 L 0 416.3317793975584"/></g><g transform="rotate(112.5)"><path d="M 0 320.2552149211988 L 0 416.3317793975584"/></g><g transform="rotate(135)"><path d="M 0 320.2552149211988 L 0 416.3317793975584"/></g><g transform="rotate(157.5)"><path d="M 0 320.2552149211988 L 0 416.3317793975584"/></g><g transform="rotate(180)"><path d="M 0 320.2552149211988 L 0 416.3317793975584"/></g><g transform="rotate(202.5)"><path d="M 0 320.2552149211988 L 0 416.3317793975584"/></g><g transform="rotate(225)"><path d="M 0 320.2552149211988 L 0 416.3317793975584"/></g><g transform="rotate(247.5)"><path d="M 0 320.2552149211988 L 0 416.3317793975584"/></g><g transform="rotate(270)"><path d="M 0 320.2552149211988 L 0 416.3317793975584"/></g><g transform="rotate(292.5)"><path d="M 0 320.2552149211988 L 0 416.3317793975584"/></g><g transform="rotate(315)"><path d="M 0 320.2552149211988 L 0 416.3317793975584"/></g><g transform="rotate(337.5)"><path d="M 0 320.2552149211988 L 0 416.3317793975584"/></g></g></svg>