<svg xmlns="http://www.w3.org/2000/svg" viewBox="0 0 800 800" width="800" height="800">
    <rect width="100%" height="100%" fill="white"/>
    <g transform="translate(400, 400)" fill="none" stroke="black" stroke-width="4" stroke-linecap="round" stroke-linejoin="round"><g transform="rotate(0)"><path d="M 0 48.154438715428114 L 12.038609678857028 57.78532645851374 L 0 67.41621420159936 L -12.038609678857028 57.78532645851374 Z"/></g><g transform="rotate(20)"><path d="M 0 48.154438715428114 L 12.038609678857028 57.78532645851374 L 0 67.41621420159936 L -12.038609678857028 57.78532645851374 Z"/></g><g transform="rotate(40)"><path d="M 0 48.154438715428114 L 12.038609678857028 57.78532645851374 L 0 67.41621420159936 L -12.038609678857028 57.78532645851374 Z"/></g><g transform="rotate(60)"><path d="M 0 48.154438715428114 L 12.038609678857028 57.78532645851374 L 0 67.41621420159936 L -12.038609678857028 57.78532645851374 Z"/></g><g transform="rotate(80)"><path d="M 0 48.154438715428114 L 12.038609678857028 57.78532645851374 L 0 67.41621420159936 L -12.038609678857028 57.78532645851374 Z"/></g><g transform="rotate(100)"><path d="M 0 48.154438715428114 L 12.038609678857028 57.78532645851374 L 0 67.41621420159936 L -12.038609678857028 57.78532645851374 Z"/></g><g transform="rotate(120)"><path d="M 0 48.154438715428114 L 12.038609678857028 57.78532645851374 L 0 67.41621420159936 L -12.038609678857028 57.78532645851374 Z"/></g><g transform="rotate(140)"><path d="M 0 48.154438715428114 L 12.038609678857028 57.78532645851374 L 0 67.41621420159936 L -12.038609678857028 57.78532645851374 Z"/></g><g transform="rotate(160)"><path d="M 0 48.154438715428114 L 12.038609678857028 57.78532645851374 L 0 67.41621420159936 L -12.038609678857028 57.78532645851374 Z"/></g><g transform="rotate(180)"><path d="M 0 48.154438715428114 L 12.038609678857028 57.78532645851374 L 0 67.41621420159936 L -12.038609678857028 57.78532645851374 Z"/></g><g transform="rotate(200)"><path d="M 0 48.154438715428114 L 12.038609678857028 57.78532645851374 L 0 67.41621420159936 L -12.038609678857028 57.78532645851374 Z"/></g><g transform="rotate(220)"><path d="M 0 48.154438715428114 L 12.038609678857028 57.78532645851374 L 0 67.41621420159936 L -12.038609678857028 57.78532645851374 Z"/></g><g transform="rotate(240)"><path d="M 0 48.154438715428114 L 12.038609678857028 57.78532645851374 L 0 67.41621420159936 L -12.038609678857028 57.78532645851374 Z"/></g><g transform="rotate(260)"><path d="M 0 48.154438715428114 L 12.038609678857028 57.78532645851374 L 0 67.41621420159936 L -12.038609678857028 57.78532645851374 Z"/></g><g transform="rotate(280)"><path d="M 0 48.154438715428114 L 12.038609678857028 57.78532645851374 L 0 67.41621420159936 L -12.038609678857028 57.78532645851374 Z"/></g><g transform="rotate(300)"><path d="M 0 48.154438715428114 L 12.038609678857028 57.78532645851374 L 0 67.41621420159936 L -12.038609678857028 57.78532645851374 Z"/></g><g transform="rotate(320)"><path d="M 0 48.154438715428114 L 12.038609678857028 57.78532645851374 L 0 67.41621420159936 L -12.038609678857028 57.78532645851374 Z"/></g><g transform="rotate(340)"><path d="M 0 48.154438715428114 L 12.038609678857028 57.78532645851374 L 0 67.41621420159936 L -12.038609678857028 57.78532645851374 Z"/></g><g transform="rotate(0)"><path d="M 0 96.09553318071579 L 24.023883295178948 115.31463981685894 L 0 134.5337464530021 L -24.023883295178948 115.31463981685894 Z"/></g><g transform="rotate(20)"><path d="M 0 96.09553318071579 L 24.023883295178948 115.31463981685894 L 0 134.5337464530021 L -24.023883295178948 115.31463981685894 Z"/></g><g transform="rotate(40)"><path d="M 0 96.09553318071579 L 24.023883295178948 115.31463981685894 L 0 134.5337464530021 L -24.023883295178948 115.31463981685894 Z"/></g><g transform="rotate(60)"><path d="M 0 96.09553318071579 L 24.023883295178948 115.31463981685894 L 0 134.5337464530021 L -24.023883295178948 115.31463981685894 Z"/></g><g transform="rotate(80)"><path d="M 0 96.09553318071579 L 24.023883295178948 115.31463981685894 L 0 134.5337464530021 L -24.023883295178948 115.31463981685894 Z"/></g><g transform="rotate(100)"><path d="M 0 96.09553318071579 L 24.023883295178948 115.31463981685894 L 0 134.5337464530021 L -24.023883295178948 115.31463981685894 Z"/></g><g transform="rotate(120)"><path d="M 0 96.09553318071579 L 24.023883295178948 115.31463981685894 L 0 134.5337464530021 L -24.023883295178948 115.31463981685894 Z"/></g><g transform="rotate(140)"><path d="M 0 96.09553318071579 L 24.023883295178948 115.31463981685894 L 0 134.5337464530021 L -24.023883295178948 115.31463981685894 Z"/></g><g transform="rotate(160)"><path d="M 0 96.09553318071579 L 24.023883295178948 115.31463981685894 L 0 134.5337464530021 L -24.023883295178948 115.31463981685894 Z"/></g><g transform="rotate(180)"><path d="M 0 96.09553318071579 L 24.023883295178948 115.31463981685894 L 0 134.5337464530021 L -24.023883295178948 115.31463981685894 Z"/></g><g transform="rotate(200)"><path d="M 0 96.09553318071579 L 24.023883295178948 115.31463981685894 L 0 134.5337464530021 L -24.023883295178948 115.31463981685894 Z"/></g><g transform="rotate(220)"><path d="M 0 96.09553318071579 L 24.023883295178948 115.31463981685894 L 0 134.5337464530021 L -24.023883295178948 115.31463981685894 Z"/></g><g transform="rotate(240)"><path d="M 0 96.09553318071579 L 24.023883295178948 115.31463981685894 L 0 134.5337464530021 L -24.023883295178948 115.31463981685894 Z"/></g><g transform="rotate(260)"><path d="M 0 96.09553318071579 L 24.023883295178948 115.31463981685894 L 0 134.5337464530021 L -24.023883295178948 115.31463981685894 Z"/></g><g transform="rotate(280)"><path d="M 0 96.09553318071579 L 24.023883295178948 115.31463981685894 L 0 134.5337464530021 L -24.023883295178948 115.31463981685894 Z"/></g><g transform="rotate(300)"><path d="M 0 96.09553318071579 L 24.023883295178948 115.31463981685894 L 0 134.5337464530021 L -24.023883295178948 115.31463981685894 Z"/></g><g transform="rotate(320)"><path d="M 0 96.09553318071579 L 24.023883295178948 115.31463981685894 L 0 134.5337464530021 L -24.023883295178948 115.31463981685894 Z"/></g><g transform="rotate(340)"><path d="M 0 96.09553318071579 L 24.023883295178948 115.31463981685894 L 0 134.5337464530021 L -24.023883295178948 115.31463981685894 Z"/></g><g transform="rotate(0)"><path d="M 0 150.0290685998542 L 0 195.0377891798105"/></g><g transform="rotate(20)"><path d="M 0 150.0290685998542 L 0 195.0377891798105"/></g><g transform="rotate(40)"><path d="M 0 150.0290685998542 L 0 195.0377891798105"/></g><g transform="rotate(60)"><path d="M 0 150.0290685998542 L 0 195.0377891798105"/></g><g transform="rotate(80)"><path d="M 0 150.0290685998542 L 0 195.0377891798105"/></g><g transform="rotate(100)"><path d="M 0 150.0290685998542 L 0 195.0377891798105"/></g><g transform="rotate(120)"><path d="M 0 150.0290685998542 L 0 195.0377891798105"/></g><g transform="rotate(140)"><path d="M 0 150.0290685998542 L 0 195.0377891798105"/></g><g transform="rotate(160)"><path d="M 0 150.0290685998542 L 0 195.0377891798105"/></g><g transform="rotate(180)"><path d="M 0 150.0290685998542 L 0 195.0377891798105"/></g><g transform="rotate(200)"><path d="M 0 150.0290685998542 L 0 195.0377891798105"/></g><g transform="rotate(220)"><path d="M 0 150.0290685998542 L 0 195.0377891798105"/></g><g transform="rotate(240)"><path d="M 0 150.0290685998542 L 0 195.0377891798105"/></g><g transform="rotate(260)"><path d="M 0 150.0290685998542 L 0 195.0377891798105"/></g><g transform="rotate(280)"><path d="M 0 150.0290685998542 L 0 195.0377891798105"/></g><g transform="rotate(300)"><path d="M 0 150.0290685998542 L 0 195.0377891798105"/></g><g transform="rotate(320)"><path d="M 0 150.0290685998542 L 0 195.0377891798105"/></g><g transform="rotate(340)"><path d="M 0 150.0290685998542 L 0 195.0377891798105"/></g><g transform="rotate(0)"><circle cx="0" cy="178.58415781254214" r="44.646039453135536"/></g><g transform="rotate(20)"><circle cx="0" cy="178.58415781254214" r="44.646039453135536"/></g><g transform="rotate(40)"><circle cx="0" cy="178.58415781254214" r="44.646039453135536"/></g><g transform="rotate(60)"><circle cx="0" cy="178.58415781254214" r="44.646039453135536"/></g><g transform="rotate(80)"><circle cx="0" cy="178.58415781254214" r="44.646039453135536"/></g><g transform="rotate(100)"><circle cx="0" cy="178.58415781254214" r="44.646039453135536"/></g><g transform="rotate(120)"><circle cx="0" cy="178.58415781254214" r="44.646039453135536"/></g><g transform="rotate(140)"><circle cx="0" cy="178.58415781254214" r="44.646039453135536"/></g><g transform="rotate(160)"><circle cx="0" cy="178.58415781254214" r="44.646039453135536"/></g><g transform="rotate(180)"><circle cx="0" cy="178.58415781254214" r="44.646039453135536"/></g><g transform="rotate(200)"><circle cx="0" cy="178.58415781254214" r="44.646039453135536"/></g><g transform="rotate(220)"><circle cx="0" cy="178.58415781254214" r="44.646039453135536"/></g><g transform="rotate(240)"><circle cx="0" cy="178.58415781254214" r="44.646039453135536"/></g><g transform="rotate(260)"><circle cx="0" cy="178.58415781254214" r="44.646039453135536"/></g><g transform="rotate(280)"><circle cx="0" cy="178.58415781254214" r="44.646039453135536"/></g><g transform="rotate(300)"><circle cx="0" cy="178.58415781254214" r="44.646039453135536"/></g><g transform="rotate(320)"><circle cx="0" cy="178.58415781254214" r="44.646039453135536"/></g><g transform="rotate(340)"><circle cx="0" cy="178.58415781254214" r="44.646039453135536"/></g><g transform="rotate(0)"><path d="M 0 225.1339713138129 Q 75.0446571046043 270.1607655765755 0 337.70095697071935 Q -75.0446571046043 270.1607655765755 0 225.1339713138129"/></g><g transform="rotate(20)"><path d="M 0 225.1339713138129 Q 75.0446571046043 270.1607655765755 0 337.70095697071935 Q -75.0446571046043 270.1607655765755 0 225.1339713138129"/></g><g transform="rotate(40)"><path d="M 0 225.1339713138129 Q 75.0446571046043 270.1607655765755 0 337.70095697071935 Q -75.0446571046043 270.1607655765755 0 225.1339713138129"/></g><g transform="rotate(60)"><path d="M 0 225.1339713138129 Q 75.0446571046043 270.1607655765755 0 337.70095697071935 Q -75.0446571046043 270.1607655765755 0 225.1339713138129"/></g><g transform="rotate(80)"><path d="M 0 225.1339713138129 Q 75.0446571046043 270.1607655765755 0 337.70095697071935 Q -75.0446571046043 270.1607655765755 0 225.1339713138129"/></g><g transform="rotate(100)"><path d="M 0 225.1339713138129 Q 75.0446571046043 270.1607655765755 0 337.70095697071935 Q -75.0446571046043 270.1607655765755 0 225.1339713138129"/></g><g transform="rotate(120)"><path d="M 0 225.1339713138129 Q 75.0446571046043 270.1607655765755 0 337.70095697071935 Q -75.0446571046043 270.1607655765755 0 225.1339713138129"/></g><g transform="rotate(140)"><path d="M 0 225.1339713138129 Q 75.0446571046043 270.1607655765755 0 337.70095697071935 Q -75.0446571046043 270.1607655765755 0 225.1339713138129"/></g><g transform="rotate(160)"><path d="M 0 225.1339713138129 Q 75.0446571046043 270.1607655765755 0 337.70095697071935 Q -75.0446571046043 270.1607655765755 0 225.1339713138129"/></g><g transform="rotate(180)"><path d="M 0 225.1339713138129 Q 75.0446571046043 270.1607655765755 0 337.70095697071935 Q -75.0446571046043 270.1607655765755 0 225.1339713138129"/></g><g transform="rotate(200)"><path d="M 0 225.1339713138129 Q 75.0446571046043 270.1607655765755 0 337.70095697071935 Q -75.0446571046043 270.1607655765755 0 225.1339713138129"/></g><g transform="rotate(220)"><path d="M 0 225.1339713138129 Q 75.0446571046043 270.1607655765755 0 337.70095697071935 Q -75.0446571046043 270.1607655765755 0 225.1339713138129"/></g><g transform="rotate(240)"><path d="M 0 225.1339713138129 Q 75.0446571046043 270.1607655765755 0 337.70095697071935 Q -75.0446571046043 270.1607655765755 0 225.1339713138129"/></g><g transform="rotate(260)"><path d="M 0 225.1339713138129 Q 75.0446571046043 270.1607655765755 0 337.70095697071935 Q -75.0446571046043 270.1607655765755 0 225.1339713138129"/></g><g transform="rotate(280)"><path d="M 0 225.1339713138129 Q 75.0446571046043 270.1607655765755 0 337.70095697071935 Q -75.0446571046043 270.1607655765755 0 225.1339713138129"/></g><g transform="rotate(300)"><path d="M 0 225.1339713138129 Q 75.0446571046043 270.1607655765755 0 337.70095697071935 Q -75.0446571046043 270.1607655765755 0 225.1339713138129"/></g><g transform="rotate(320)"><path d="M 0 225.1339713138129 Q 75.0446571046043 270.1607655765755 0 337.70095697071935 Q -75.0446571046043 270.1607655765755 0 225.1339713138129"/></g><g transform="rotate(340)"><path d="M 0 225.1339713138129 Q 75.0446571046043 270.1607655765755 0 337.70095697071935 Q -75.0446571046043 270.1607655765755 0 225.1339713138129"/></g><g transform="rotate(0)"><path d="M -71.0858304469314 284.3433217877256 Q 0 341.2119861452707 71.0858304469314 284.3433217877256"/></g><g transform="rotate(20)"><path d="M -71.0858304469314 284.3433217877256 Q 0 341.2119861452707 71.0858304469314 284.3433217877256"/></g><g transform="rotate(40)"><path d="M -71.0858304469314 284.3433217877256 Q 0 341.2119861452707 71.0858304469314 284.3433217877256"/></g><g transform="rotate(60)"><path d="M -71.0858304469314 284.3433217877256 Q 0 341.2119861452707 71.0858304469314 284.3433217877256"/></g><g transform="rotate(80)"><path d="M -71.0858304469314 284.3433217877256 Q 0 341.2119861452707 71.0858304469314 284.3433217877256"/></g><g transform="rotate(100)"><path d="M -71.0858304469314 284.3433217877256 Q 0 341.2119861452707 71.0858304469314 284.3433217877256"/></g><g transform="rotate(120)"><path d="M -71.0858304469314 284.3433217877256 Q 0 341.2119861452707 71.0858304469314 284.3433217877256"/></g><g transform="rotate(140)"><path d="M -71.0858304469314 284.3433217877256 Q 0 341.2119861452707 71.0858304469314 284.3433217877256"/></g><g transform="rotate(160)"><path d="M -71.0858304469314 284.3433217877256 Q 0 341.2119861452707 71.0858304469314 284.3433217877256"/></g><g transform="rotate(180)"><path d="M -71.0858304469314 284.3433217877256 Q 0 341.2119861452707 71.0858304469314 284.3433217877256"/></g><g transform="rotate(200)"><path d="M -71.0858304469314 284.3433217877256 Q 0 341.2119861452707 71.0858304469314 284.3433217877256"/></g><g transform="rotate(220)"><path d="M -71.0858304469314 284.3433217877256 Q 0 341.2119861452707 71.0858304469314 284.3433217877256"/></g><g transform="rotate(240)"><path d="M -71.0858304469314 284.3433217877256 Q 0 341.2119861452707 71.0858304469314 284.3433217877256"/></g><g transform="rotate(260)"><path d="M -71.0858304469314 284.3433217877256 Q 0 341.2119861452707 71.0858304469314 284.3433217877256"/></g><g transform="rotate(280)"><path d="M -71.0858304469314 284.3433217877256 Q 0 341.2119861452707 71.0858304469314 284.3433217877256"/></g><g transform="rotate(300)"><path d="M -71.0858304469314 284.3433217877256 Q 0 341.2119861452707 71.0858304469314 284.3433217877256"/></g><g transform="rotate(320)"><path d="M -71.0858304469314 284.3433217877256 Q 0 341.2119861452707 71.0858304469314 284.3433217877256"/></g><g transform="rotate(340)"><path d="M -71.0858304469314 284.3433217877256 Q 0 341.2119861452707 71.0858304469314 284.3433217877256"/></g><g transform="rotate(0)"><path d="M 0 327.4213878012129 Q 109.1404626004043 392.9056653614555 0 491.1320817018194 Q -109.1404626004043 392.9056653614555 0 327.4213878012129"/></g><g transform="rotate(20)"><path d="M 0 327.4213878012129 Q 109.1404626004043 392.9056653614555 0 491.1320817018194 Q -109.1404626004043 392.9056653614555 0 327.4213878012129"/></g><g transform="rotate(40)"><path d="M 0 327.4213878012129 Q 109.1404626004043 392.9056653614555 0 491.1320817018194 Q -109.1404626004043 392.9056653614555 0 327.4213878012129"/></g><g transform="rotate(60)"><path d="M 0 327.4213878012129 Q 109.1404626004043 392.9056653614555 0 491.1320817018194 Q -109.1404626004043 392.9056653614555 0 327.4213878012129"/></g><g transform="rotate(80)"><path d="M 0 327.4213878012129 Q 109.1404626004043 392.9056653614555 0 491.1320817018194 Q -109.1404626004043 392.9056653614555 0 327.4213878012129"/></g><g transform="rotate(100)"><path d="M 0 327.4213878012129 Q 109.1404626004043 392.9056653614555 0 491.1320817018194 Q -109.1404626004043 392.9056653614555 0 327.4213878012129"/></g><g transform="rotate(120)"><path d="M 0 327.4213878012129 Q 109.1404626004043 392.9056653614555 0 491.1320817018194 Q -109.1404626004043 392.9056653614555 0 327.4213878012129"/></g><g transform="rotate(140)"><path d="M 0 327.4213878012129 Q 109.1404626004043 392.9056653614555 0 491.1320817018194 Q -109.1404626004043 392.9056653614555 0 327.4213878012129"/></g><g transform="rotate(160)"><path d="M 0 327.4213878012129 Q 109.1404626004043 392.9056653614555 0 491.1320817018194 Q -109.1404626004043 392.9056653614555 0 327.4213878012129"/></g><g transform="rotate(180)"><path d="M 0 327.4213878012129 Q 109.1404626004043 392.9056653614555 0 491.1320817018194 Q -109.1404626004043 392.9056653614555 0 327.4213878012129"/></g><g transform="rotate(200)"><path d="M 0 327.4213878012129 Q 109.1404626004043 392.9056653614555 0 491.1320817018194 Q -109.1404626004043 392.9056653614555 0 327.4213878012129"/></g><g transform="rotate(220)"><path d="M 0 327.4213878012129 Q 109.1404626004043 392.9056653614555 0 491.1320817018194 Q -109.1404626004043 392.9056653614555 0 327.4213878012129"/></g><g transform="rotate(240)"><path d="M 0 327.4213878012129 Q 109.1404626004043 392.9056653614555 0 491.1320817018194 Q -109.1404626004043 392.9056653614555 0 327.4213878012129"/></g><g transform="rotate(260)"><path d="M 0 327.4213878012129 Q 109.1404626004043 392.9056653614555 0 491.1320817018194 Q -109.1404626004043 392.9056653614555 0 327.4213878012129"/></g><g transform="rotate(280)"><path d="M 0 327.4213878012129 Q 109.1404626004043 392.9056653614555 0 491.1320817018194 Q -109.1404626004043 392.9056653614555 0 327.4213878012129"/></g><g transform="rotate(300)"><path d="M 0 327.4213878012129 Q 109.1404626004043 392.9056653614555 0 491.1320817018194 Q -109.1404626004043 392.9056653614555 0 327.4213878012129"/></g><g transform="rotate(320)"><path d="M 0 327.4213878012129 Q 109.1404626004043 392.9056653614555 0 491.1320817018194 Q -109.1404626004043 392.9056653614555 0 327.4213878012129"/></g><g transform="rotate(340)"><path d="M 0 327.4213878012129 Q 109.1404626004043 392.9056653614555 0 491.1320817018194 Q -109.1404626004043 392.9056653614555 0 327.4213878012129"/></g></g></svg>