<svg xmlns="http://www.w3.org/2000/svg" viewBox="0 0 800 800" width="800" height="800">
    <rect width="100%" height="100%" fill="white"/>
    <g transform="translate(400, 400)" fill="none" stroke="black" stroke-width="4" stroke-linecap="round" stroke-linejoin="round"><g transform="rotate(0)"><path d="M -14.022863807622343 56.09145523048937 Q 0 67.30974627658725 14.022863807622343 56.09145523048937"/></g><g transform="rotate(22.5)"><path d="M -14.022863807622343 56.09145523048937 Q 0 67.30974627658725 14.022863807622343 56.09145523048937"/></g><g transform="rotate(45)"><path d="M -14.022863807622343 56.09145523048937 Q 0 67.30974627658725 14.022863807622343 56.09145523048937"/></g><g transform="rotate(67.5)"><path d="M -14.022863807622343 56.09145523048937 Q 0 67.30974627658725 14.022863807622343 56.09145523048937"/></g><g transform="rotate(90)"><path d="M -14.022863807622343 56.09145523048937 Q 0 67.30974627658725 14.022863807622343 56.09145523048937"/></g><g transform="rotate(112.5)"><path d="M -14.022863807622343 56.09145523048937 Q 0 67.30974627658725 14.022863807622343 56.09145523048937"/></g><g transform="rotate(135)"><path d="M -14.022863807622343 56.09145523048937 Q 0 67.30974627658725 14.022863807622343 56.09145523048937"/></g><g transform="rotate(157.5)"><path d="M -14.022863807622343 56.09145523048937 Q 0 67.30974627658725 14.022863807622343 56.09145523048937"/></g><g transform="rotate(180)"><path d="M -14.022863807622343 56.09145523048937 Q 0 67.30974627658725 14.022863807622343 56.09145523048937"/></g><g transform="rotate(202.5)"><path d="M -14.022863807622343 56.09145523048937 Q 0 67.30974627658725 14.022863807622343 56.09145523048937"/></g><g transform="rotate(225)"><path d="M -14.022863807622343 56.09145523048937 Q 0 67.30974627658725 14.022863807622343 56.09145523048937"/></g><g transform="rotate(247.5)"><path d="M -14.022863807622343 56.09145523048937 Q 0 67.30974627658725 14.022863807622343 56.09145523048937"/></g><g transform="rotate(270)"><path d="M -14.022863807622343 56.09145523048937 Q 0 67.30974627658725 14.022863807622343 56.09145523048937"/></g><g transform="rotate(292.5)"><path d="M -14.022863807622343 56.09145523048937 Q 0 67.30974627658725 14.022863807622343 56.09145523048937"/></g><g transform="rotate(315)"><path d="M -14.022863807622343 56.09145523048937 Q 0 67.30974627658725 14.022863807622343 56.09145523048937"/></g><g transform="rotate(337.5)"><path d="M -14.022863807622343 56.09145523048937 Q 0 67.30974627658725 14.022863807622343 56.09145523048937"/></g><g transform="rotate(0)"><path d="M 0 88.28934585261676 L 0 114.7761496084018"/></g><g transform="rotate(22.5)"><path d="M 0 88.28934585261676 L 0 114.7761496084018"/></g><g transform="rotate(45)"><path d="M 0 88.28934585261676 L 0 114.7761496084018"/></g><g transform="rotate(67.5)"><path d="M 0 88.28934585261676 L 0 114.7761496084018"/></g><g transform="rotate(90)"><path d="M 0 88.28934585261676 L 0 114.7761496084018"/></g><g transform="rotate(112.5)"><path d="M 0 88.28934585261676 L 0 114.7761496084018"/></g><g transform="rotate(135)"><path d="M 0 88.28934585261676 L 0 114.7761496084018"/></g><g transform="rotate(157.5)"><path d="M 0 88.28934585261676 L 0 114.7761496084018"/></g><g transform="rotate(180)"><path d="M 0 88.28934585261676 L 0 114.7761496084018"/></g><g transform="rotate(202.5)"><path d="M 0 88.28934585261676 L 0 114.7761496084018"/></g><g transform="rotate(225)"><path d="M 0 88.28934585261676 L 0 114.7761496084018"/></g><g transform="rotate(247.5)"><path d="M 0 88.28934585261676 L 0 114.7761496084018"/></g><g transform="rotate(270)"><path d="M 0 88.28934585261676 L 0 114.7761496084018"/></g><g transform="rotate(292.5)"><path d="M 0 88.28934585261676 L 0 114.7761496084018"/></g><g transform="rotate(315)"><path d="M 0 88.28934585261676 L 0 114.7761496084018"/></g><g transform="rotate(337.5)"><path d="M 0 88.28934585261676 L 0 114.7761496084018"/></g><g transform="rotate(0)"><path d="M 0 126.24044524609215 L 0 164.1125788199198"/></g><g transform="rotate(22.5)"><path d="M 0 126.24044524609215 L 0 164.1125788199198"/></g><g transform="rotate(45)"><path d="M 0 126.24044524609215 L 0 164.1125788199198"/></g><g transform="rotate(67.5)"><path d="M 0 126.24044524609215 L 0 164.1125788199198"/></g><g transform="rotate(90)"><path d="M 0 126.24044524609215 L 0 164.1125788199198"/></g><g transform="rotate(112.5)"><path d="M 0 126.24044524609215 L 0 164.1125788199198"/></g><g transform="rotate(135)"><path d="M 0 126.24044524609215 L 0 164.1125788199198"/></g><g transform="rotate(157.5)"><path d="M 0 126.24044524609215 L 0 164.1125788199198"/></g><g transform="rotate(180)"><path d="M 0 126.24044524609215 L 0 164.1125788199198"/></g><g transform="rotate(202.5)"><path d="M 0 126.24044524609215 L 0 164.1125788199198"/></g><g transform="rotate(225)"><path d="M 0 126.24044524609215 L 0 164.1125788199198"/></g><g transform="rotate(247.5)"><path d="M 0 126.24044524609215 L 0 164.1125788199198"/></g><g transform="rotate(270)"><path d="M 0 126.24044524609215 L 0 164.1125788199198"/></g><g transform="rotate(292.5)"><path d="M 0 126.24044524609215 L 0 164.1125788199198"/></g><g transform="rotate(315)"><path d="M 0 126.24044524609215 L 0 164.1125788199198"/></g><g transform="rotate(337.5)"><path d="M 0 126.24044524609215 L 0 164.1125788199198"/></g><g transform="rotate(0)"><path d="M 0 148.04899728546542 L 37.012249321366355 177.6587967425585 L 0 207.26859619965157 L -37.012249321366355 177.6587967425585 Z"/></g><g transform="rotate(22.5)"><path d="M 0 148.04899728546542 L 37.012249321366355 177.6587967425585 L 0 207.26859619965157 L -37.012249321366355 177.6587967425585 Z"/></g><g transform="rotate(45)"><path d="M 0 148.04899728546542 L 37.012249321366355 177.6587967425585 L 0 207.26859619965157 L -37.012249321366355 177.6587967425585 Z"/></g><g transform="rotate(67.5)"><path d="M 0 148.04899728546542 L 37.012249321366355 177.6587967425585 L 0 207.26859619965157 L -37.012249321366355 177.6587967425585 Z"/></g><g transform="rotate(90)"><path d="M 0 148.04899728546542 L 37.012249321366355 177.6587967425585 L 0 207.26859619965157 L -37.012249321366355 177.6587967425585 Z"/></g><g transform="rotate(112.5)"><path d="M 0 148.04899728546542 L 37.012249321366355 177.6587967425585 L 0 207.26859619965157 L -37.012249321366355 177.6587967425585 Z"/></g><g transform="rotate(135)"><path d="M 0 148.04899728546542 L 37.012249321366355 177.6587967425585 L 0 207.26859619965157 L -37.012249321366355 177.6587967425585 Z"/></g><g transform="rotate(157.5)"><path d="M 0 148.04899728546542 L 37.012249321366355 177.6587967425585 L 0 207.26859619965157 L -37.012249321366355 177.6587967425585 Z"/></g><g transform="rotate(180)"><path d="M 0 148.04899728546542 L 37.012249321366355 177.6587967425585 L 0 207.26859619965157 L -37.012249321366355 177.6587967425585 Z"/></g><g transform="rotate(202.5)"><path d="M 0 148.04899728546542 L 37.012249321366355 177.6587967425585 L 0 207.26859619965157 L -37.012249321366355 177.6587967425585 Z"/></g><g transform="rotate(225)"><path d="M 0 148.04899728546542 L 37.012249321366355 177.6587967425585 L 0 207.26859619965157 L -37.012249321366355 177.6587967425585 Z"/></g><g transform="rotate(247.5)"><path d="M 0 148.04899728546542 L 37.012249321366355 177.6587967425585 L 0 207.26859619965157 L -37.012249321366355 177.6587967425585 Z"/></g><g transform="rotate(270)"><path d="M 0 148.04899728546542 L 37.012249321366355 177.6587967425585 L 0 207.26859619965157 L -37.012249321366355 177.6587967425585 Z"/></g><g transform="rotate(292.5)"><path d="M 0 148.04899728546542 L 37.012249321366355 177.6587967425585 L 0 207.26859619965157 L -37.012249321366355 177.6587967425585 Z"/></g><g transform="rotate(315)"><path d="M 0 148.04899728546542 L 37.012249321366355 177.6587967425585 L 0 207.26859619965157 L -37.012249321366355 177.6587967425585 Z"/></g><g transform="rotate(337.5)"><path d="M 0 148.04899728546542 L 37.012249321366355 177.6587967425585 L 0 207.26859619965157 L -37.012249321366355 177.6587967425585 Z"/></g><g transform="rotate(0)"><path d="M 0 199.17145016810133 L 0 258.92288521853175"/></g><g transform="rotate(22.5)"><path d="M 0 199.17145016810133 L 0 258.92288521853175"/></g><g transform="rotate(45)"><path d="M 0 199.17145016810133 L 0 258.92288521853175"/></g><g transform="rotate(67.5)"><path d="M 0 199.17145016810133 L 0 258.92288521853175"/></g><g transform="rotate(90)"><path d="M 0 199.17145016810133 L 0 258.92288521853175"/></g><g transform="rotate(112.5)"><path d="M 0 199.17145016810133 L 0 258.92288521853175"/></g><g transform="rotate(135)"><path d="M 0 199.17145016810133 L 0 258.92288521853175"/></g><g transform="rotate(157.5)"><path d="M 0 199.17145016810133 L 0 258.92288521853175"/></g><g transform="rotate(180)"><path d="M 0 199.17145016810133 L 0 258.92288521853175"/></g><g transform="rotate(202.5)"><path d="M 0 199.17145016810133 L 0 258.92288521853175"/></g><g transform="rotate(225)"><path d="M 0 199.17145016810133 L 0 258.92288521853175"/></g><g transform="rotate(247.5)"><path d="M 0 199.17145016810133 L 0 258.92288521853175"/></g><g transform="rotate(270)"><path d="M 0 199.17145016810133 L 0 258.92288521853175"/></g><g transform="rotate(292.5)"><path d="M 0 199.17145016810133 L 0 258.92288521853175"/></g><g transform="rotate(315)"><path d="M 0 199.17145016810133 L 0 258.92288521853175"/></g><g transform="rotate(337.5)"><path d="M 0 199.17145016810133 L 0 258.92288521853175"/></g><g transform="rotate(0)"><circle cx="0" cy="234.20299358458982" r="58.550748396147455"/></g><g transform="rotate(22.5)"><circle cx="0" cy="234.20299358458982" r="58.550748396147455"/></g><g transform="rotate(45)"><circle cx="0" cy="234.20299358458982" r="58.550748396147455"/></g><g transform="rotate(67.5)"><circle cx="0" cy="234.20299358458982" r="58.550748396147455"/></g><g transform="rotate(90)"><circle cx="0" cy="234.20299358458982" r="58.550748396147455"/></g><g transform="rotate(112.5)"><circle cx="0" cy="234.20299358458982" r="58.550748396147455"/></g><g transform="rotate(135)"><circle cx="0" cy="234.20299358458982" r="58.550748396147455"/></g><g transform="rotate(157.5)"><circle cx="0" cy="234.20299358458982" r="58.550748396147455"/></g><g transform="rotate(180)"><circle cx="0" cy="234.20299358458982" r="58.550748396147455"/></g><g transform="rotate(202.5)"><circle cx="0" cy="234.20299358458982" r="58.550748396147455"/></g><g transform="rotate(225)"><circle cx="0" cy="234.20299358458982" r="58.550748396147455"/></g><g transform="rotate(247.5)"><circle cx="0" cy="234.20299358458982" r="58.550748396147455"/></g><g transform="rotate(270)"><circle cx="0" cy="234.20299358458982" r="58.550748396147455"/></g><g transform="rotate(292.5)"><circle cx="0" cy="234.20299358458982" r="58.550748396147455"/></g><g transform="rotate(315)"><circle cx="0" cy="234.20299358458982" r="58.550748396147455"/></g><g transform="rotate(337.5)"><circle cx="0" cy="234.20299358458982" r="58.550748396147455"/></g><g transform="rotate(0)"><path d="M 0 255.32577801806232 L 0 331.92351142348105"/></g><g transform="rotate(22.5)"><path d="M 0 255.32577801806232 L 0 331.92351142348105"/></g><g transform="rotate(45)"><path d="M 0 255.32577801806232 L 0 331.92351142348105"/></g><g transform="rotate(67.5)"><path d="M 0 255.32577801806232 L 0 331.92351142348105"/></g><g transform="rotate(90)"><path d="M 0 255.32577801806232 L 0 331.92351142348105"/></g><g transform="rotate(112.5)"><path d="M 0 255.32577801806232 L 0 331.92351142348105"/></g><g transform="rotate(135)"><path d="M 0 255.32577801806232 L 0 331.92351142348105"/></g><g transform="rotate(157.5)"><path d="M 0 255.32577801806232 L 0 331.92351142348105"/></g><g transform="rotate(180)"><path d="M 0 255.32577801806232 L 0 331.92351142348105"/></g><g transform="rotate(202.5)"><path d="M 0 255.32577801806232 L 0 331.92351142348105"/></g><g transform="rotate(225)"><path d="M 0 255.32577801806232 L 0 331.92351142348105"/></g><g transform="rotate(247.5)"><path d="M 0 255.32577801806232 L 0 331.92351142348105"/></g><g transform="rotate(270)"><path d="M 0 255.32577801806232 L 0 331.92351142348105"/></g><g transform="rotate(292.5)"><path d="M 0 255.32577801806232 L 0 331.92351142348105"/></g><g transform="rotate(315)"><path d="M 0 255.32577801806232 L 0 331.92351142348105"/></g><g transform="rotate(337.5)"><path d="M 0 255.32577801806232 L 0 331.92351142348105"/></g><g transform="rotate(0)"><path d="M 0 302.5189138286644 Q 100.83963794288813 363.02269659439725 0 453.7783707429966 Q -100.83963794288813 363.02269659439725 0 302.5189138286644"/></g><g transform="rotate(22.5)"><path d="M 0 302.5189138286644 Q 100.83963794288813 363.02269659439725 0 453.7783707429966 Q -100.83963794288813 363.02269659439725 0 302.5189138286644"/></g><g transform="rotate(45)"><path d="M 0 302.5189138286644 Q 100.83963794288813 363.02269659439725 0 453.7783707429966 Q -100.83963794288813 363.02269659439725 0 302.5189138286644"/></g><g transform="rotate(67.5)"><path d="M 0 302.5189138286644 Q 100.83963794288813 363.02269659439725 0 453.7783707429966 Q -100.83963794288813 363.02269659439725 0 302.5189138286644"/></g><g transform="rotate(90)"><path d="M 0 302.5189138286644 Q 100.83963794288813 363.02269659439725 0 453.7783707429966 Q -100.83963794288813 363.02269659439725 0 302.5189138286644"/></g><g transform="rotate(112.5)"><path d="M 0 302.5189138286644 Q 100.83963794288813 363.02269659439725 0 453.7783707429966 Q -100.83963794288813 363.02269659439725 0 302.5189138286644"/></g><g transform="rotate(135)"><path d="M 0 302.5189138286644 Q 100.83963794288813 363.02269659439725 0 453.7783707429966 Q -100.83963794288813 363.02269659439725 0 302.5189138286644"/></g><g transform="rotate(157.5)"><path d="M 0 302.5189138286644 Q 100.83963794288813 363.02269659439725 0 453.7783707429966 Q -100.83963794288813 363.02269659439725 0 302.5189138286644"/></g><g transform="rotate(180)"><path d="M 0 302.5189138286644 Q 100.83963794288813 363.02269659439725 0 453.7783707429966 Q -100.83963794288813 363.02269659439725 0 302.5189138286644"/></g><g transform="rotate(202.5)"><path d="M 0 302.5189138286644 Q 100.83963794288813 363.02269659439725 0 453.7783707429966 Q -100.83963794288813 363.02269659439725 0 302.5189138286644"/></g><g transform="rotate(225)"><path d="M 0 302.5189138286644 Q 100.83963794288813 363.02269659439725 0 453.7783707429966 Q -100.83963794288813 363.02269659439725 0 302.5189138286644"/></g><g transform="rotate(247.5)"><path d="M 0 302.5189138286644 Q 100.83963794288813 363.02269659439725 0 453.7783707429966 Q -100.83963794288813 363.02269659439725 0 302.5189138286644"/></g><g transform="rotate(270)"><path d="M 0 302.5189138286644 Q 100.83963794288813 363.02269659439725 0 453.7783707429966 Q -100.83963794288813 363.02269659439725 0 302.5189138286644"/></g><g transform="rotate(292.5)"><path d="M 0 302.5189138286644 Q 100.83963794288813 363.02269659439725 0 453.7783707429966 Q -100.83963794288813 363.02269659439725 0 302.5189138286644"/></g><g transform="rotate(315)"><path d="M 0 302.5189138286644 Q 100.83963794288813 363.02269659439725 0 453.7783707429966 Q -100.83963794288813 363.02269659439725 0 302.5189138286644"/></g><g transform="rotate(337.5)"><path d="M 0 302.5189138286644 Q 100.83963794288813 363.02269659439725 0 453.7783707429966 Q -100.83963794288813 363.02269659439725 0 302.5189138286644"/></g><g transform="rotate(0)"><path d="M 0 324.9467540294346 L 81.23668850735865 389.9361048353215 L 0 454.92545564120843 L -81.23668850735865 389.9361048353215 Z"/></g><g transform="rotate(22.5)"><path d="M 0 324.9467540294346 L 81.23668850735865 389.9361048353215 L 0 454.92545564120843 L -81.23668850735865 389.9361048353215 Z"/></g><g transform="rotate(45)"><path d="M 0 324.9467540294346 L 81.23668850735865 389.9361048353215 L 0 454.92545564120843 L -81.23668850735865 389.9361048353215 Z"/></g><g transform="rotate(67.5)"><path d="M 0 324.9467540294346 L 81.23668850735865 389.9361048353215 L 0 454.92545564120843 L -81.23668850735865 389.9361048353215 Z"/></g><g transform="rotate(90)"><path d="M 0 324.9467540294346 L 81.23668850735865 389.9361048353215 L 0 454.92545564120843 L -81.23668850735865 389.9361048353215 Z"/></g><g transform="rotate(112.5)"><path d="M 0 324.9467540294346 L 81.23668850735865 389.9361048353215 L 0 454.92545564120843 L -81.23668850735865 389.9361048353215 Z"/></g><g transform="rotate(135)"><path d="M 0 324.9467540294346 L 81.23668850735865 389.9361048353215 L 0 454.92545564120843 L -81.23668850735865 389.9361048353215 Z"/></g><g transform="rotate(157.5)"><path d="M 0 324.9467540294346 L 81.23668850735865 389.9361048353215 L 0 454.92545564120843 L -81.23668850735865 389.9361048353215 Z"/></g><g transform="rotate(180)"><path d="M 0 324.9467540294346 L 81.23668850735865 389.9361048353215 L 0 454.92545564120843 L -81.23668850735865 389.9361048353215 Z"/></g><g transform="rotate(202.5)"><path d="M 0 324.9467540294346 L 81.23668850735865 389.9361048353215 L 0 454.92545564120843 L -81.23668850735865 389.9361048353215 Z"/></g><g transform="rotate(225)"><path d="M 0 324.9467540294346 L 81.23668850735865 389.9361048353215 L 0 454.92545564120843 L -81.23668850735865 389.9361048353215 Z"/></g><g transform="rotate(247.5)"><path d="M 0 324.9467540294346 L 81.23668850735865 389.9361048353215 L 0 454.92545564120843 L -81.23668850735865 389.9361048353215 Z"/></g><g transform="rotate(270)"><path d="M 0 324.9467540294346 L 81.23668850735865 389.9361048353215 L 0 454.92545564120843 L -81.23668850735865 389.9361048353215 Z"/></g><g transform="rotate(292.5)"><path d="M 0 324.9467540294346 L 81.23668850735865 389.9361048353215 L 0 454.92545564120843 L -81.23668850735865 389.9361048353215 Z"/></g><g transform="rotate(315)"><path d="M 0 324.9467540294346 L 81.23668850735865 389.9361048353215 L 0 454.92545564120843 L -81.23668850735865 389.9361048353215 Z"/></g><g transform="rotate(337.5)"><path d="M 0 324.9467540294346 L 81.23668850735865 389.9361048353215 L 0 454.92545564120843 L -81.23668850735865 389.9361048353215 Z"/></g></g></svg>