<svg xmlns="http://www.w3.org/2000/svg" viewBox="0 0 800 800" width="800" height="800">
    <rect width="100%" height="100%" fill="white"/>
    <g transform="translate(400, 400)" fill="none" stroke="black" stroke-width="4" stroke-linecap="round" stroke-linejoin="round"><g transform="rotate(0)"><path d="M 0 52.075693220831454 L 0 67.69840118708089"/></g><g transform="rotate(36)"><path d="M 0 52.075693220831454 L 0 67.69840118708089"/></g><g transform="rotate(72)"><path d="M 0 52.075693220831454 L 0 67.69840118708089"/></g><g transform="rotate(108)"><path d="M 0 52.075693220831454 L 0 67.69840118708089"/></g><g transform="rotate(144)"><path d="M 0 52.075693220831454 L 0 67.69840118708089"/></g><g transform="rotate(180)"><path d="M 0 52.075693220831454 L 0 67.69840118708089"/></g><g transform="rotate(216)"><path d="M 0 52.075693220831454 L 0 67.69840118708089"/></g><g transform="rotate(252)"><path d="M 0 52.075693220831454 L 0 67.69840118708089"/></g><g transform="rotate(288)"><path d="M 0 52.075693220831454 L 0 67.69840118708089"/></g><g transform="rotate(324)"><path d="M 0 52.075693220831454 L 0 67.69840118708089"/></g><g transform="rotate(0)"><path d="M 0 131.28114748280495 L 0 170.66549172764644"/></g><g transform="rotate(36)"><path d="M 0 131.28114748280495 L 0 170.66549172764644"/></g><g transform="rotate(72)"><path d="M 0 131.28114748280495 L 0 170.66549172764644"/></g><g transform="rotate(108)"><path d="M 0 131.28114748280495 L 0 170.66549172764644"/></g><g transform="rotate(144)"><path d="M 0 131.28114748280495 L 0 170.66549172764644"/></g><g transform="rotate(180)"><path d="M 0 131.28114748280495 L 0 170.66549172764644"/></g><g transform="rotate(216)"><path d="M 0 131.28114748280495 L 0 170.66549172764644"/></g><g transform="rotate(252)"><path d="M 0 131.28114748280495 L 0 170.66549172764644"/></g><g transform="rotate(288)"><path d="M 0 131.28114748280495 L 0 170.66549172764644"/></g><g transform="rotate(324)"><path d="M 0 131.28114748280495 L 0 170.66549172764644"/></g><g transform="rotate(0)"><path d="M 0 202.50915669370443 L 0 263.26190370181575"/></g><g transform="rotate(36)"><path d="M 0 202.50915669370443 L 0 263.26190370181575"/></g><g transform="rotate(72)"><path d="M 0 202.50915669370443 L 0 263.26190370181575"/></g><g transform="rotate(108)"><path d="M 0 202.50915669370443 L 0 263.26190370181575"/></g><g transform="rotate(144)"><path d="M 0 202.50915669370443 L 0 263.26190370181575"/></g><g transform="rotate(180)"><path d="M 0 202.50915669370443 L 0 263.26190370181575"/></g><g transform="rotate(216)"><path d="M 0 202.50915669370443 L 0 263.26190370181575"/></g><g transform="rotate(252)"><path d="M 0 202.50915669370443 L 0 263.26190370181575"/></g><g transform="rotate(288)"><path d="M 0 202.50915669370443 L 0 263.26190370181575"/></g><g transform="rotate(324)"><path d="M 0 202.50915669370443 L 0 263.26190370181575"/></g><g transform="rotate(0)"><path d="M 0 298.53654687758535 L 74.63413671939634 358.2438562531024 L 0 417.9511656286195 L -74.63413671939634 358.2438562531024 Z"/></g><g transform="rotate(36)"><path d="M 0 298.53654687758535 L 74.63413671939634 358.2438562531024 L 0 417.9511656286195 L -74.63413671939634 358.2438562531024 Z"/></g><g transform="rotate(72)"><path d="M 0 298.53654687758535 L 74.63413671939634 358.2438562531024 L 0 417.9511656286195 L -74.63413671939634 358.2438562531024 Z"/></g><g transform="rotate(108)"><path d="M 0 298.53654687758535 L 74.63413671939634 358.2438562531024 L 0 417.9511656286195 L -74.63413671939634 358.2438562531024 Z"/></g><g transform="rotate(144)"><path d="M 0 298.53654687758535 L 74.63413671939634 358.2438562531024 L 0 417.9511656286195 L -74.63413671939634 358.2438562531024 Z"/></g><g transform="rotate(180)"><path d="M 0 298.53654687758535 L 74.63413671939634 358.2438562531024 L 0 417.9511656286195 L -74.63413671939634 358.2438562531024 Z"/></g><g transform="rotate(216)"><path d="M 0 298.53654687758535 L 74.63413671939634 358.2438562531024 L 0 417.9511656286195 L -74.63413671939634 358.2438562531024 Z"/></g><g transform="rotate(252)"><path d="M 0 298.53654687758535 L 74.63413671939634 358.2438562531024 L 0 417.9511656286195 L -74.63413671939634 358.2438562531024 Z"/></g><g transform="rotate(288)"><path d="M 0 298.53654687758535 L 74.63413671939634 358.2438562531024 L 0 417.9511656286195 L -74.63413671939634 358.2438562531024 Z"/></g><g transform="rotate(324)"><path d="M 0 298.53654687758535 L 74.63413671939634 358.2438562531024 L 0 417.9511656286195 L -74.63413671939634 358.2438562531024 Z"/></g></g></svg>