<svg xmlns="http://www.w3.org/2000/svg" viewBox="0 0 800 800" width="800" height="800">
    <rect width="100%" height="100%" fill="white"/>
    <g transform="translate(400, 400)" fill="none" stroke="black" stroke-width="4" stroke-linecap="round" stroke-linejoin="round"><g transform="rotate(0)"><path d="M 0 59.80799727141857 L 14.951999317854643 71.76959672570229 L 0 83.731196179986 L -14.951999317854643 71.76959672570229 Z"/></g><g transform="rotate(30)"><path d="M 0 59.80799727141857 L 14.951999317854643 71.76959672570229 L 0 83.731196179986 L -14.951999317854643 71.76959672570229 Z"/></g><g transform="rotate(60)"><path d="M 0 59.80799727141857 L 14.951999317854643 71.76959672570229 L 0 83.731196179986 L -14.951999317854643 71.76959672570229 Z"/></g><g transform="rotate(90)"><path d="M 0 59.80799727141857 L 14.951999317854643 71.76959672570229 L 0 83.731196179986 L -14.951999317854643 71.76959672570229 Z"/></g><g transform="rotate(120)"><path d="M 0 59.80799727141857 L 14.951999317854643 71.76959672570229 L 0 83.731196179986 L -14.951999317854643 71.76959672570229 Z"/></g><g transform="rotate(150)"><path d="M 0 59.80799727141857 L 14.951999317854643 71.76959672570229 L 0 83.731196179986 L -14.951999317854643 71.76959672570229 Z"/></g><g transform="rotate(180)"><path d="M 0 59.80799727141857 L 14.951999317854643 71.76959672570229 L 0 83.731196179986 L -14.951999317854643 71.76959672570229 Z"/></g><g transform="rotate(210)"><path d="M 0 59.80799727141857 L 14.951999317854643 71.76959672570229 L 0 83.731196179986 L -14.951999317854643 71.76959672570229 Z"/></g><g transform="rotate(240)"><path d="M 0 59.80799727141857 L 14.951999317854643 71.76959672570229 L 0 83.731196179986 L -14.951999317854643 71.76959672570229 Z"/></g><g transform="rotate(270)"><path d="M 0 59.80799727141857 L 14.951999317854643 71.76959672570229 L 0 83.731196179986 L -14.951999317854643 71.76959672570229 Z"/></g><g transform="rotate(300)"><path d="M 0 59.80799727141857 L 14.951999317854643 71.76959672570229 L 0 83.731196179986 L -14.951999317854643 71.76959672570229 Z"/></g><g transform="rotate(330)"><path d="M 0 59.80799727141857 L 14.951999317854643 71.76959672570229 L 0 83.731196179986 L -14.951999317854643 71.76959672570229 Z"/></g><g transform="rotate(0)"><path d="M 0 104.95296170535897 Q 34.98432056845299 125.94355404643076 0 157.42944255803846 Q -34.98432056845299 125.94355404643076 0 104.95296170535897"/></g><g transform="rotate(30)"><path d="M 0 104.95296170535897 Q 34.98432056845299 125.94355404643076 0 157.42944255803846 Q -34.98432056845299 125.94355404643076 0 104.95296170535897"/></g><g transform="rotate(60)"><path d="M 0 104.95296170535897 Q 34.98432056845299 125.94355404643076 0 157.42944255803846 Q -34.98432056845299 125.94355404643076 0 104.95296170535897"/></g><g transform="rotate(90)"><path d="M 0 104.95296170535897 Q 34.98432056845299 125.94355404643076 0 157.42944255803846 Q -34.98432056845299 125.94355404643076 0 104.95296170535897"/></g><g transform="rotate(120)"><path d="M 0 104.95296170535897 Q 34.98432056845299 125.94355404643076 0 157.42944255803846 Q -34.98432056845299 125.94355404643076 0 104.95296170535897"/></g><g transform="rotate(150)"><path d="M 0 104.95296170535897 Q 34.98432056845299 125.94355404643076 0 157.42944255803846 Q -34.98432056845299 125.94355404643076 0 104.95296170535897"/></g><g transform="rotate(180)"><path d="M 0 104.95296170535897 Q 34.98432056845299 125.94355404643076 0 157.42944255803846 Q -34.98432056845299 125.94355404643076 0 104.95296170535897"/></g><g transform="rotate(210)"><path d="M 0 104.95296170535897 Q 34.98432056845299 125.94355404643076 0 157.42944255803846 Q -34.98432056845299 125.94355404643076 0 104.95296170535897"/></g><g transform="rotate(240)"><path d="M 0 104.95296170535897 Q 34.98432056845299 125.94355404643076 0 157.42944255803846 Q -34.98432056845299 125.94355404643076 0 104.95296170535897"/></g><g transform="rotate(270)"><path d="M 0 104.95296170535897 Q 34.98432056845299 125.94355404643076 0 157.42944255803846 Q -34.98432056845299 125.94355404643076 0 104.95296170535897"/></g><g transform="rotate(300)"><path d="M 0 104.95296170535897 Q 34.98432056845299 125.94355404643076 0 157.42944255803846 Q -34.98432056845299 125.94355404643076 0 104.95296170535897"/></g><g transform="rotate(330)"><path d="M 0 104.95296170535897 Q 34.98432056845299 125.94355404643076 0 157.42944255803846 Q -34.98432056845299 125.94355404643076 0 104.95296170535897"/></g><g transform="rotate(0)"><circle cx="0" cy="147.43289853579233" r="36.85822463394808"/></g><g transform="rotate(30)"><circle cx="0" cy="147.43289853579233" r="36.85822463394808"/></g><g transform="rotate(60)"><circle cx="0" cy="147.43289853579233" r="36.85822463394808"/></g><g transform="rotate(90)"><circle cx="0" cy="147.43289853579233" r="36.85822463394808"/></g><g transform="rotate(120)"><circle cx="0" cy="147.43289853579233" r="36.85822463394808"/></g><g transform="rotate(150)"><circle cx="0" cy="147.43289853579233" r="36.85822463394808"/></g><g transform="rotate(180)"><circle cx="0" cy="147.43289853579233" r="36.85822463394808"/></g><g transform="rotate(210)"><circle cx="0" cy="147.43289853579233" r="36.85822463394808"/></g><g transform="rotate(240)"><circle cx="0" cy="147.43289853579233" r="36.85822463394808"/></g><g transform="rotate(270)"><circle cx="0" cy="147.43289853579233" r="36.85822463394808"/></g><g transform="rotate(300)"><circle cx="0" cy="147.43289853579233" r="36.85822463394808"/></g><g transform="rotate(330)"><circle cx="0" cy="147.43289853579233" r="36.85822463394808"/></g><g transform="rotate(0)"><path d="M 0 192.59774007568402 Q 64.19924669189467 231.1172880908208 0 288.89661011352604 Q -64.19924669189467 231.1172880908208 0 192.59774007568402"/></g><g transform="rotate(30)"><path d="M 0 192.59774007568402 Q 64.19924669189467 231.1172880908208 0 288.89661011352604 Q -64.19924669189467 231.1172880908208 0 192.59774007568402"/></g><g transform="rotate(60)"><path d="M 0 192.59774007568402 Q 64.19924669189467 231.1172880908208 0 288.89661011352604 Q -64.19924669189467 231.1172880908208 0 192.59774007568402"/></g><g transform="rotate(90)"><path d="M 0 192.59774007568402 Q 64.19924669189467 231.1172880908208 0 288.89661011352604 Q -64.19924669189467 231.1172880908208 0 192.59774007568402"/></g><g transform="rotate(120)"><path d="M 0 192.59774007568402 Q 64.19924669189467 231.1172880908208 0 288.89661011352604 Q -64.19924669189467 231.1172880908208 0 192.59774007568402"/></g><g transform="rotate(150)"><path d="M 0 192.59774007568402 Q 64.19924669189467 231.1172880908208 0 288.89661011352604 Q -64.19924669189467 231.1172880908208 0 192.59774007568402"/></g><g transform="rotate(180)"><path d="M 0 192.59774007568402 Q 64.19924669189467 231.1172880908208 0 288.89661011352604 Q -64.19924669189467 231.1172880908208 0 192.59774007568402"/></g><g transform="rotate(210)"><path d="M 0 192.59774007568402 Q 64.19924669189467 231.1172880908208 0 288.89661011352604 Q -64.19924669189467 231.1172880908208 0 192.59774007568402"/></g><g transform="rotate(240)"><path d="M 0 192.59774007568402 Q 64.19924669189467 231.1172880908208 0 288.89661011352604 Q -64.19924669189467 231.1172880908208 0 192.59774007568402"/></g><g transform="rotate(270)"><path d="M 0 192.59774007568402 Q 64.19924669189467 231.1172880908208 0 288.89661011352604 Q -64.19924669189467 231.1172880908208 0 192.59774007568402"/></g><g transform="rotate(300)"><path d="M 0 192.59774007568402 Q 64.19924669189467 231.1172880908208 0 288.89661011352604 Q -64.19924669189467 231.1172880908208 0 192.59774007568402"/></g><g transform="rotate(330)"><path d="M 0 192.59774007568402 Q 64.19924669189467 231.1172880908208 0 288.89661011352604 Q -64.19924669189467 231.1172880908208 0 192.59774007568402"/></g><g transform="rotate(0)"><path d="M -58.34484554428075 233.379382177123 Q 0 280.0552586125476 58.34484554428075 233.379382177123"/></g><g transform="rotate(30)"><path d="M -58.34484554428075 233.379382177123 Q 0 280.0552586125476 58.34484554428075 233.379382177123"/></g><g transform="rotate(60)"><path d="M -58.34484554428075 233.379382177123 Q 0 280.0552586125476 58.34484554428075 233.379382177123"/></g><g transform="rotate(90)"><path d="M -58.34484554428075 233.379382177123 Q 0 280.0552586125476 58.34484554428075 233.379382177123"/></g><g transform="rotate(120)"><path d="M -58.34484554428075 233.379382177123 Q 0 280.0552586125476 58.34484554428075 233.379382177123"/></g><g transform="rotate(150)"><path d="M -58.34484554428075 233.379382177123 Q 0 280.0552586125476 58.34484554428075 233.379382177123"/></g><g transform="rotate(180)"><path d="M -58.34484554428075 233.379382177123 Q 0 280.0552586125476 58.34484554428075 233.379382177123"/></g><g transform="rotate(210)"><path d="M -58.34484554428075 233.379382177123 Q 0 280.0552586125476 58.34484554428075 233.379382177123"/></g><g transform="rotate(240)"><path d="M -58.34484554428075 233.379382177123 Q 0 280.0552586125476 58.34484554428075 233.379382177123"/></g><g transform="rotate(270)"><path d="M -58.34484554428075 233.379382177123 Q 0 280.0552586125476 58.34484554428075 233.379382177123"/></g><g transform="rotate(300)"><path d="M -58.34484554428075 233.379382177123 Q 0 280.0552586125476 58.34484554428075 233.379382177123"/></g><g transform="rotate(330)"><path d="M -58.34484554428075 233.379382177123 Q 0 280.0552586125476 58.34484554428075 233.379382177123"/></g><g transform="rotate(0)"><path d="M 0 281.9668322415756 L 70.4917080603939 338.36019868989075 L 0 394.75356513820583 L -70.4917080603939 338.36019868989075 Z"/></g><g transform="rotate(30)"><path d="M 0 281.9668322415756 L 70.4917080603939 338.36019868989075 L 0 394.75356513820583 L -70.4917080603939 338.36019868989075 Z"/></g><g transform="rotate(60)"><path d="M 0 281.9668322415756 L 70.4917080603939 338.36019868989075 L 0 394.75356513820583 L -70.4917080603939 338.36019868989075 Z"/></g><g transform="rotate(90)"><path d="M 0 281.9668322415756 L 70.4917080603939 338.36019868989075 L 0 394.75356513820583 L -70.4917080603939 338.36019868989075 Z"/></g><g transform="rotate(120)"><path d="M 0 281.9668322415756 L 70.4917080603939 338.36019868989075 L 0 394.75356513820583 L -70.4917080603939 338.36019868989075 Z"/></g><g transform="rotate(150)"><path d="M 0 281.9668322415756 L 70.4917080603939 338.36019868989075 L 0 394.75356513820583 L -70.4917080603939 338.36019868989075 Z"/></g><g transform="rotate(180)"><path d="M 0 281.9668322415756 L 70.4917080603939 338.36019868989075 L 0 394.75356513820583 L -70.4917080603939 338.36019868989075 Z"/></g><g transform="rotate(210)"><path d="M 0 281.9668322415756 L 70.4917080603939 338.36019868989075 L 0 394.75356513820583 L -70.4917080603939 338.36019868989075 Z"/></g><g transform="rotate(240)"><path d="M 0 281.9668322415756 L 70.4917080603939 338.36019868989075 L 0 394.75356513820583 L -70.4917080603939 338.36019868989075 Z"/></g><g transform="rotate(270)"><path d="M 0 281.9668322415756 L 70.4917080603939 338.36019868989075 L 0 394.75356513820583 L -70.4917080603939 338.36019868989075 Z"/></g><g transform="rotate(300)"><path d="M 0 281.9668322415756 L 70.4917080603939 338.36019868989075 L 0 394.75356513820583 L -70.4917080603939 338.36019868989075 Z"/></g><g transform="rotate(330)"><path d="M 0 281.9668322415756 L 70.4917080603939 338.36019868989075 L 0 394.75356513820583 L -70.4917080603939 338.36019868989075 Z"/></g><g transform="rotate(0)"><circle cx="0" cy="315.9921604527959" r="78.99804011319897"/></g><g transform="rotate(30)"><circle cx="0" cy="315.9921604527959" r="78.99804011319897"/></g><g transform="rotate(60)"><circle cx="0" cy="315.9921604527959" r="78.99804011319897"/></g><g transform="rotate(90)"><circle cx="0" cy="315.9921604527959" r="78.99804011319897"/></g><g transform="rotate(120)"><circle cx="0" cy="315.9921604527959" r="78.99804011319897"/></g><g transform="rotate(150)"><circle cx="0" cy="315.9921604527959" r="78.99804011319897"/></g><g transform="rotate(180)"><circle cx="0" cy="315.9921604527959" r="78.99804011319897"/></g><g transform="rotate(210)"><circle cx="0" cy="315.9921604527959" r="78.99804011319897"/></g><g transform="rotate(240)"><circle cx="0" cy="315.9921604527959" r="78.99804011319897"/></g><g transform="rotate(270)"><circle cx="0" cy="315.9921604527959" r="78.99804011319897"/></g><g transform="rotate(300)"><circle cx="0" cy="315.9921604527959" r="78.99804011319897"/></g><g transform="rotate(330)"><circle cx="0" cy="315.9921604527959" r="78.99804011319897"/></g></g></svg>