<svg xmlns="http://www.w3.org/2000/svg" viewBox="0 0 800 800" width="800" height="800">
    <rect width="100%" height="100%" fill="white"/>
    <g transform="translate(400, 400)" fill="none" stroke="black" stroke-width="4" stroke-linecap="round" stroke-linejoin="round"><g transform="rotate(0)"><path d="M 0 46.04420147836208 L 11.51105036959052 55.2530417740345 L 0 64.46188206970692 L -11.51105036959052 55.2530417740345 Z"/></g><g transform="rotate(22.5)"><path d="M 0 46.04420147836208 L 11.51105036959052 55.2530417740345 L 0 64.46188206970692 L -11.51105036959052 55.2530417740345 Z"/></g><g transform="rotate(45)"><path d="M 0 46.04420147836208 L 11.51105036959052 55.2530417740345 L 0 64.46188206970692 L -11.51105036959052 55.2530417740345 Z"/></g><g transform="rotate(67.5)"><path d="M 0 46.04420147836208 L 11.51105036959052 55.2530417740345 L 0 64.46188206970692 L -11.51105036959052 55.2530417740345 Z"/></g><g transform="rotate(90)"><path d="M 0 46.04420147836208 L 11.51105036959052 55.2530417740345 L 0 64.46188206970692 L -11.51105036959052 55.2530417740345 Z"/></g><g transform="rotate(112.5)"><path d="M 0 46.04420147836208 L 11.51105036959052 55.2530417740345 L 0 64.46188206970692 L -11.51105036959052 55.2530417740345 Z"/></g><g transform="rotate(135)"><path d="M 0 46.04420147836208 L 11.51105036959052 55.2530417740345 L 0 64.46188206970692 L -11.51105036959052 55.2530417740345 Z"/></g><g transform="rotate(157.5)"><path d="M 0 46.04420147836208 L 11.51105036959052 55.2530417740345 L 0 64.46188206970692 L -11.51105036959052 55.2530417740345 Z"/></g><g transform="rotate(180)"><path d="M 0 46.04420147836208 L 11.51105036959052 55.2530417740345 L 0 64.46188206970692 L -11.51105036959052 55.2530417740345 Z"/></g><g transform="rotate(202.5)"><path d="M 0 46.04420147836208 L 11.51105036959052 55.2530417740345 L 0 64.46188206970692 L -11.51105036959052 55.2530417740345 Z"/></g><g transform="rotate(225)"><path d="M 0 46.04420147836208 L 11.51105036959052 55.2530417740345 L 0 64.46188206970692 L -11.51105036959052 55.2530417740345 Z"/></g><g transform="rotate(247.5)"><path d="M 0 46.04420147836208 L 11.51105036959052 55.2530417740345 L 0 64.46188206970692 L -11.51105036959052 55.2530417740345 Z"/></g><g transform="rotate(270)"><path d="M 0 46.04420147836208 L 11.51105036959052 55.2530417740345 L 0 64.46188206970692 L -11.51105036959052 55.2530417740345 Z"/></g><g transform="rotate(292.5)"><path d="M 0 46.04420147836208 L 11.51105036959052 55.2530417740345 L 0 64.46188206970692 L -11.51105036959052 55.2530417740345 Z"/></g><g transform="rotate(315)"><path d="M 0 46.04420147836208 L 11.51105036959052 55.2530417740345 L 0 64.46188206970692 L -11.51105036959052 55.2530417740345 Z"/></g><g transform="rotate(337.5)"><path d="M 0 46.04420147836208 L 11.51105036959052 55.2530417740345 L 0 64.46188206970692 L -11.51105036959052 55.2530417740345 Z"/></g><g transform="rotate(0)"><path d="M 0 92.45741889812052 L 23.11435472453013 110.94890267774463 L 0 129.44038645736873 L -23.11435472453013 110.94890267774463 Z"/></g><g transform="rotate(22.5)"><path d="M 0 92.45741889812052 L 23.11435472453013 110.94890267774463 L 0 129.44038645736873 L -23.11435472453013 110.94890267774463 Z"/></g><g transform="rotate(45)"><path d="M 0 92.45741889812052 L 23.11435472453013 110.94890267774463 L 0 129.44038645736873 L -23.11435472453013 110.94890267774463 Z"/></g><g transform="rotate(67.5)"><path d="M 0 92.45741889812052 L 23.11435472453013 110.94890267774463 L 0 129.44038645736873 L -23.11435472453013 110.94890267774463 Z"/></g><g transform="rotate(90)"><path d="M 0 92.45741889812052 L 23.11435472453013 110.94890267774463 L 0 129.44038645736873 L -23.11435472453013 110.94890267774463 Z"/></g><g transform="rotate(112.5)"><path d="M 0 92.45741889812052 L 23.11435472453013 110.94890267774463 L 0 129.44038645736873 L -23.11435472453013 110.94890267774463 Z"/></g><g transform="rotate(135)"><path d="M 0 92.45741889812052 L 23.11435472453013 110.94890267774463 L 0 129.44038645736873 L -23.11435472453013 110.94890267774463 Z"/></g><g transform="rotate(157.5)"><path d="M 0 92.45741889812052 L 23.11435472453013 110.94890267774463 L 0 129.44038645736873 L -23.11435472453013 110.94890267774463 Z"/></g><g transform="rotate(180)"><path d="M 0 92.45741889812052 L 23.11435472453013 110.94890267774463 L 0 129.44038645736873 L -23.11435472453013 110.94890267774463 Z"/></g><g transform="rotate(202.5)"><path d="M 0 92.45741889812052 L 23.11435472453013 110.94890267774463 L 0 129.44038645736873 L -23.11435472453013 110.94890267774463 Z"/></g><g transform="rotate(225)"><path d="M 0 92.45741889812052 L 23.11435472453013 110.94890267774463 L 0 129.44038645736873 L -23.11435472453013 110.94890267774463 Z"/></g><g transform="rotate(247.5)"><path d="M 0 92.45741889812052 L 23.11435472453013 110.94890267774463 L 0 129.44038645736873 L -23.11435472453013 110.94890267774463 Z"/></g><g transform="rotate(270)"><path d="M 0 92.45741889812052 L 23.11435472453013 110.94890267774463 L 0 129.44038645736873 L -23.11435472453013 110.94890267774463 Z"/></g><g transform="rotate(292.5)"><path d="M 0 92.45741889812052 L 23.11435472453013 110.94890267774463 L 0 129.44038645736873 L -23.11435472453013 110.94890267774463 Z"/></g><g transform="rotate(315)"><path d="M 0 92.45741889812052 L 23.11435472453013 110.94890267774463 L 0 129.44038645736873 L -23.11435472453013 110.94890267774463 Z"/></g><g transform="rotate(337.5)"><path d="M 0 92.45741889812052 L 23.11435472453013 110.94890267774463 L 0 129.44038645736873 L -23.11435472453013 110.94890267774463 Z"/></g><g transform="rotate(0)"><path d="M 0 130.77357517555356 L 32.69339379388839 156.92829021066427 L 0 183.08300524577498 L -32.69339379388839 156.92829021066427 Z"/></g><g transform="rotate(22.5)"><path d="M 0 130.77357517555356 L 32.69339379388839 156.92829021066427 L 0 183.08300524577498 L -32.69339379388839 156.92829021066427 Z"/></g><g transform="rotate(45)"><path d="M 0 130.77357517555356 L 32.69339379388839 156.92829021066427 L 0 183.08300524577498 L -32.69339379388839 156.92829021066427 Z"/></g><g transform="rotate(67.5)"><path d="M 0 130.77357517555356 L 32.69339379388839 156.92829021066427 L 0 183.08300524577498 L -32.69339379388839 156.92829021066427 Z"/></g><g transform="rotate(90)"><path d="M 0 130.77357517555356 L 32.69339379388839 156.92829021066427 L 0 183.08300524577498 L -32.69339379388839 156.92829021066427 Z"/></g><g transform="rotate(112.5)"><path d="M 0 130.77357517555356 L 32.69339379388839 156.92829021066427 L 0 183.08300524577498 L -32.69339379388839 156.92829021066427 Z"/></g><g transform="rotate(135)"><path d="M 0 130.77357517555356 L 32.69339379388839 156.92829021066427 L 0 183.08300524577498 L -32.69339379388839 156.92829021066427 Z"/></g><g transform="rotate(157.5)"><path d="M 0 130.77357517555356 L 32.69339379388839 156.92829021066427 L 0 183.08300524577498 L -32.69339379388839 156.92829021066427 Z"/></g><g transform="rotate(180)"><path d="M 0 130.77357517555356 L 32.69339379388839 156.92829021066427 L 0 183.08300524577498 L -32.69339379388839 156.92829021066427 Z"/></g><g transform="rotate(202.5)"><path d="M 0 130.77357517555356 L 32.69339379388839 156.92829021066427 L 0 183.08300524577498 L -32.69339379388839 156.92829021066427 Z"/></g><g transform="rotate(225)"><path d="M 0 130.77357517555356 L 32.69339379388839 156.92829021066427 L 0 183.08300524577498 L -32.69339379388839 156.92829021066427 Z"/></g><g transform="rotate(247.5)"><path d="M 0 130.77357517555356 L 32.69339379388839 156.92829021066427 L 0 183.08300524577498 L -32.69339379388839 156.92829021066427 Z"/></g><g transform="rotate(270)"><path d="M 0 130.77357517555356 L 32.69339379388839 156.92829021066427 L 0 183.08300524577498 L -32.69339379388839 156.92829021066427 Z"/></g><g transform="rotate(292.5)"><path d="M 0 130.77357517555356 L 32.69339379388839 156.92829021066427 L 0 183.08300524577498 L -32.69339379388839 156.92829021066427 Z"/></g><g transform="rotate(315)"><path d="M 0 130.77357517555356 L 32.69339379388839 156.92829021066427 L 0 183.08300524577498 L -32.69339379388839 156.92829021066427 Z"/></g><g transform="rotate(337.5)"><path d="M 0 130.77357517555356 L 32.69339379388839 156.92829021066427 L 0 183.08300524577498 L -32.69339379388839 156.92829021066427 Z"/></g><g transform="rotate(0)"><path d="M 0 168.50706185214221 Q 56.16902061738074 202.20847422257066 0 252.76059277821332 Q -56.16902061738074 202.20847422257066 0 168.50706185214221"/></g><g transform="rotate(22.5)"><path d="M 0 168.50706185214221 Q 56.16902061738074 202.20847422257066 0 252.76059277821332 Q -56.16902061738074 202.20847422257066 0 168.50706185214221"/></g><g transform="rotate(45)"><path d="M 0 168.50706185214221 Q 56.16902061738074 202.20847422257066 0 252.76059277821332 Q -56.16902061738074 202.20847422257066 0 168.50706185214221"/></g><g transform="rotate(67.5)"><path d="M 0 168.50706185214221 Q 56.16902061738074 202.20847422257066 0 252.76059277821332 Q -56.16902061738074 202.20847422257066 0 168.50706185214221"/></g><g transform="rotate(90)"><path d="M 0 168.50706185214221 Q 56.16902061738074 202.20847422257066 0 252.76059277821332 Q -56.16902061738074 202.20847422257066 0 168.50706185214221"/></g><g transform="rotate(112.5)"><path d="M 0 168.50706185214221 Q 56.16902061738074 202.20847422257066 0 252.76059277821332 Q -56.16902061738074 202.20847422257066 0 168.50706185214221"/></g><g transform="rotate(135)"><path d="M 0 168.50706185214221 Q 56.16902061738074 202.20847422257066 0 252.76059277821332 Q -56.16902061738074 202.20847422257066 0 168.50706185214221"/></g><g transform="rotate(157.5)"><path d="M 0 168.50706185214221 Q 56.16902061738074 202.20847422257066 0 252.76059277821332 Q -56.16902061738074 202.20847422257066 0 168.50706185214221"/></g><g transform="rotate(180)"><path d="M 0 168.50706185214221 Q 56.16902061738074 202.20847422257066 0 252.76059277821332 Q -56.16902061738074 202.20847422257066 0 168.50706185214221"/></g><g transform="rotate(202.5)"><path d="M 0 168.50706185214221 Q 56.16902061738074 202.20847422257066 0 252.76059277821332 Q -56.16902061738074 202.20847422257066 0 168.50706185214221"/></g><g transform="rotate(225)"><path d="M 0 168.50706185214221 Q 56.16902061738074 202.20847422257066 0 252.76059277821332 Q -56.16902061738074 202.20847422257066 0 168.50706185214221"/></g><g transform="rotate(247.5)"><path d="M 0 168.50706185214221 Q 56.16902061738074 202.20847422257066 0 252.76059277821332 Q -56.16902061738074 202.20847422257066 0 168.50706185214221"/></g><g transform="rotate(270)"><path d="M 0 168.50706185214221 Q 56.16902061738074 202.20847422257066 0 252.76059277821332 Q -56.16902061738074 202.20847422257066 0 168.50706185214221"/></g><g transform="rotate(292.5)"><path d="M 0 168.50706185214221 Q 56.16902061738074 202.20847422257066 0 252.76059277821332 Q -56.16902061738074 202.20847422257066 0 168.50706185214221"/></g><g transform="rotate(315)"><path d="M 0 168.50706185214221 Q 56.16902061738074 202.20847422257066 0 252.76059277821332 Q -56.16902061738074 202.20847422257066 0 168.50706185214221"/></g><g transform="rotate(337.5)"><path d="M 0 168.50706185214221 Q 56.16902061738074 202.20847422257066 0 252.76059277821332 Q -56.16902061738074 202.20847422257066 0 168.50706185214221"/></g><g transform="rotate(0)"><path d="M 0 201.72713439911604 Q 67.24237813303868 242.07256127893925 0 302.59070159867406 Q -67.24237813303868 242.07256127893925 0 201.72713439911604"/></g><g transform="rotate(22.5)"><path d="M 0 201.72713439911604 Q 67.24237813303868 242.07256127893925 0 302.59070159867406 Q -67.24237813303868 242.07256127893925 0 201.72713439911604"/></g><g transform="rotate(45)"><path d="M 0 201.72713439911604 Q 67.24237813303868 242.07256127893925 0 302.59070159867406 Q -67.24237813303868 242.07256127893925 0 201.72713439911604"/></g><g transform="rotate(67.5)"><path d="M 0 201.72713439911604 Q 67.24237813303868 242.07256127893925 0 302.59070159867406 Q -67.24237813303868 242.07256127893925 0 201.72713439911604"/></g><g transform="rotate(90)"><path d="M 0 201.72713439911604 Q 67.24237813303868 242.07256127893925 0 302.59070159867406 Q -67.24237813303868 242.07256127893925 0 201.72713439911604"/></g><g transform="rotate(112.5)"><path d="M 0 201.72713439911604 Q 67.24237813303868 242.07256127893925 0 302.59070159867406 Q -67.24237813303868 242.07256127893925 0 201.72713439911604"/></g><g transform="rotate(135)"><path d="M 0 201.72713439911604 Q 67.24237813303868 242.07256127893925 0 302.59070159867406 Q -67.24237813303868 242.07256127893925 0 201.72713439911604"/></g><g transform="rotate(157.5)"><path d="M 0 201.72713439911604 Q 67.24237813303868 242.07256127893925 0 302.59070159867406 Q -67.24237813303868 242.07256127893925 0 201.72713439911604"/></g><g transform="rotate(180)"><path d="M 0 201.72713439911604 Q 67.24237813303868 242.07256127893925 0 302.59070159867406 Q -67.24237813303868 242.07256127893925 0 201.72713439911604"/></g><g transform="rotate(202.5)"><path d="M 0 201.72713439911604 Q 67.24237813303868 242.07256127893925 0 302.59070159867406 Q -67.24237813303868 242.07256127893925 0 201.72713439911604"/></g><g transform="rotate(225)"><path d="M 0 201.72713439911604 Q 67.24237813303868 242.07256127893925 0 302.59070159867406 Q -67.24237813303868 242.07256127893925 0 201.72713439911604"/></g><g transform="rotate(247.5)"><path d="M 0 201.72713439911604 Q 67.24237813303868 242.07256127893925 0 302.59070159867406 Q -67.24237813303868 242.07256127893925 0 201.72713439911604"/></g><g transform="rotate(270)"><path d="M 0 201.72713439911604 Q 67.24237813303868 242.07256127893925 0 302.59070159867406 Q -67.24237813303868 242.07256127893925 0 201.72713439911604"/></g><g transform="rotate(292.5)"><path d="M 0 201.72713439911604 Q 67.24237813303868 242.07256127893925 0 302.59070159867406 Q -67.24237813303868 242.07256127893925 0 201.72713439911604"/></g><g transform="rotate(315)"><path d="M 0 201.72713439911604 Q 67.24237813303868 242.07256127893925 0 302.59070159867406 Q -67.24237813303868 242.07256127893925 0 201.72713439911604"/></g><g transform="rotate(337.5)"><path d="M 0 201.72713439911604 Q 67.24237813303868 242.07256127893925 0 302.59070159867406 Q -67.24237813303868 242.07256127893925 0 201.72713439911604"/></g><g transform="rotate(0)"><path d="M 0 243.93032585270703 L 60.98258146317676 292.71639102324843 L 0 341.50245619378984 L -60.98258146317676 292.71639102324843 Z"/></g><g transform="rotate(22.5)"><path d="M 0 243.93032585270703 L 60.98258146317676 292.71639102324843 L 0 341.50245619378984 L -60.98258146317676 292.71639102324843 Z"/></g><g transform="rotate(45)"><path d="M 0 243.93032585270703 L 60.98258146317676 292.71639102324843 L 0 341.50245619378984 L -60.98258146317676 292.71639102324843 Z"/></g><g transform="rotate(67.5)"><path d="M 0 243.93032585270703 L 60.98258146317676 292.71639102324843 L 0 341.50245619378984 L -60.98258146317676 292.71639102324843 Z"/></g><g transform="rotate(90)"><path d="M 0 243.93032585270703 L 60.98258146317676 292.71639102324843 L 0 341.50245619378984 L -60.98258146317676 292.71639102324843 Z"/></g><g transform="rotate(112.5)"><path d="M 0 243.93032585270703 L 60.98258146317676 292.71639102324843 L 0 341.50245619378984 L -60.98258146317676 292.71639102324843 Z"/></g><g transform="rotate(135)"><path d="M 0 243.93032585270703 L 60.98258146317676 292.71639102324843 L 0 341.50245619378984 L -60.98258146317676 292.71639102324843 Z"/></g><g transform="rotate(157.5)"><path d="M 0 243.93032585270703 L 60.98258146317676 292.71639102324843 L 0 341.50245619378984 L -60.98258146317676 292.71639102324843 Z"/></g><g transform="rotate(180)"><path d="M 0 243.93032585270703 L 60.98258146317676 292.71639102324843 L 0 341.50245619378984 L -60.98258146317676 292.71639102324843 Z"/></g><g transform="rotate(202.5)"><path d="M 0 243.93032585270703 L 60.98258146317676 292.71639102324843 L 0 341.50245619378984 L -60.98258146317676 292.71639102324843 Z"/></g><g transform="rotate(225)"><path d="M 0 243.93032585270703 L 60.98258146317676 292.71639102324843 L 0 341.50245619378984 L -60.98258146317676 292.71639102324843 Z"/></g><g transform="rotate(247.5)"><path d="M 0 243.93032585270703 L 60.98258146317676 292.71639102324843 L 0 341.50245619378984 L -60.98258146317676 292.71639102324843 Z"/></g><g transform="rotate(270)"><path d="M 0 243.93032585270703 L 60.98258146317676 292.71639102324843 L 0 341.50245619378984 L -60.98258146317676 292.71639102324843 Z"/></g><g transform="rotate(292.5)"><path d="M 0 243.93032585270703 L 60.98258146317676 292.71639102324843 L 0 341.50245619378984 L -60.98258146317676 292.71639102324843 Z"/></g><g transform="rotate(315)"><path d="M 0 243.93032585270703 L 60.98258146317676 292.71639102324843 L 0 341.50245619378984 L -60.98258146317676 292.71639102324843 Z"/></g><g transform="rotate(337.5)"><path d="M 0 243.93032585270703 L 60.98258146317676 292.71639102324843 L 0 341.50245619378984 L -60.98258146317676 292.71639102324843 Z"/></g><g transform="rotate(0)"><path d="M 0 288.5642886720598 L 0 375.1335752736777"/></g><g transform="rotate(22.5)"><path d="M 0 288.5642886720598 L 0 375.1335752736777"/></g><g transform="rotate(45)"><path d="M 0 288.5642886720598 L 0 375.1335752736777"/></g><g transform="rotate(67.5)"><path d="M 0 288.5642886720598 L 0 375.1335752736777"/></g><g transform="rotate(90)"><path d="M 0 288.5642886720598 L 0 375.1335752736777"/></g><g transform="rotate(112.5)"><path d="M 0 288.5642886720598 L 0 375.1335752736777"/></g><g transform="rotate(135)"><path d="M 0 288.5642886720598 L 0 375.1335752736777"/></g><g transform="rotate(157.5)"><path d="M 0 288.5642886720598 L 0 375.1335752736777"/></g><g transform="rotate(180)"><path d="M 0 288.5642886720598 L 0 375.1335752736777"/></g><g transform="rotate(202.5)"><path d="M 0 288.5642886720598 L 0 375.1335752736777"/></g><g transform="rotate(225)"><path d="M 0 288.5642886720598 L 0 375.1335752736777"/></g><g transform="rotate(247.5)"><path d="M 0 288.5642886720598 L 0 375.1335752736777"/></g><g transform="rotate(270)"><path d="M 0 288.5642886720598 L 0 375.1335752736777"/></g><g transform="rotate(292.5)"><path d="M 0 288.5642886720598 L 0 375.1335752736777"/></g><g transform="rotate(315)"><path d="M 0 288.5642886720598 L 0 375.1335752736777"/></g><g transform="rotate(337.5)"><path d="M 0 288.5642886720598 L 0 375.1335752736777"/></g><g transform="rotate(0)"><path d="M -84.27012655651197 337.0805062260479 Q 0 404.49660747125745 84.27012655651197 337.0805062260479"/></g><g transform="rotate(22.5)"><path d="M -84.27012655651197 337.0805062260479 Q 0 404.49660747125745 84.27012655651197 337.0805062260479"/></g><g transform="rotate(45)"><path d="M -84.27012655651197 337.0805062260479 Q 0 404.49660747125745 84.27012655651197 337.0805062260479"/></g><g transform="rotate(67.5)"><path d="M -84.27012655651197 337.0805062260479 Q 0 404.49660747125745 84.27012655651197 337.0805062260479"/></g><g transform="rotate(90)"><path d="M -84.27012655651197 337.0805062260479 Q 0 404.49660747125745 84.27012655651197 337.0805062260479"/></g><g transform="rotate(112.5)"><path d="M -84.27012655651197 337.0805062260479 Q 0 404.49660747125745 84.27012655651197 337.0805062260479"/></g><g transform="rotate(135)"><path d="M -84.27012655651197 337.0805062260479 Q 0 404.49660747125745 84.27012655651197 337.0805062260479"/></g><g transform="rotate(157.5)"><path d="M -84.27012655651197 337.0805062260479 Q 0 404.49660747125745 84.27012655651197 337.0805062260479"/></g><g transform="rotate(180)"><path d="M -84.27012655651197 337.0805062260479 Q 0 404.49660747125745 84.27012655651197 337.0805062260479"/></g><g transform="rotate(202.5)"><path d="M -84.27012655651197 337.0805062260479 Q 0 404.49660747125745 84.27012655651197 337.0805062260479"/></g><g transform="rotate(225)"><path d="M -84.27012655651197 337.0805062260479 Q 0 404.49660747125745 84.27012655651197 337.0805062260479"/></g><g transform="rotate(247.5)"><path d="M -84.27012655651197 337.0805062260479 Q 0 404.49660747125745 84.27012655651197 337.0805062260479"/></g><g transform="rotate(270)"><path d="M -84.27012655651197 337.0805062260479 Q 0 404.49660747125745 84.27012655651197 337.0805062260479"/></g><g transform="rotate(292.5)"><path d="M -84.27012655651197 337.0805062260479 Q 0 404.49660747125745 84.27012655651197 337.0805062260479"/></g><g transform="rotate(315)"><path d="M -84.27012655651197 337.0805062260479 Q 0 404.49660747125745 84.27012655651197 337.0805062260479"/></g><g transform="rotate(337.5)"><path d="M -84.27012655651197 337.0805062260479 Q 0 404.49660747125745 84.27012655651197 337.0805062260479"/></g></g></svg>