<svg xmlns="http://www.w3.org/2000/svg" viewBox="0 0 800 800" width="800" height="800">
    <rect width="100%" height="100%" fill="white"/>
    <g transform="translate(400, 400)" fill="none" stroke="black" stroke-width="4" stroke-linecap="round" stroke-linejoin="round"><g transform="rotate(0)"><circle cx="0" cy="49.46152355056256" r="12.36538088764064"/></g><g transform="rotate(18)"><circle cx="0" cy="49.46152355056256" r="12.36538088764064"/></g><g transform="rotate(36)"><circle cx="0" cy="49.46152355056256" r="12.36538088764064"/></g><g transform="rotate(54)"><circle cx="0" cy="49.46152355056256" r="12.36538088764064"/></g><g transform="rotate(72)"><circle cx="0" cy="49.46152355056256" r="12.36538088764064"/></g><g transform="rotate(90)"><circle cx="0" cy="49.46152355056256" r="12.36538088764064"/></g><g transform="rotate(108)"><circle cx="0" cy="49.46152355056256" r="12.36538088764064"/></g><g transform="rotate(126)"><circle cx="0" cy="49.46152355056256" r="12.36538088764064"/></g><g transform="rotate(144)"><circle cx="0" cy="49.46152355056256" r="12.36538088764064"/></g><g transform="rotate(162)"><circle cx="0" cy="49.46152355056256" r="12.36538088764064"/></g><g transform="rotate(180)"><circle cx="0" cy="49.46152355056256" r="12.36538088764064"/></g><g transform="rotate(198)"><circle cx="0" cy="49.46152355056256" r="12.36538088764064"/></g><g transform="rotate(216)"><circle cx="0" cy="49.46152355056256" r="12.36538088764064"/></g><g transform="rotate(234)"><circle cx="0" cy="49.46152355056256" r="12.36538088764064"/></g><g transform="rotate(252)"><circle cx="0" cy="49.46152355056256" r="12.36538088764064"/></g><g transform="rotate(270)"><circle cx="0" cy="49.46152355056256" r="12.36538088764064"/></g><g transform="rotate(288)"><circle cx="0" cy="49.46152355056256" r="12.36538088764064"/></g><g transform="rotate(306)"><circle cx="0" cy="49.46152355056256" r="12.36538088764064"/></g><g transform="rotate(324)"><circle cx="0" cy="49.46152355056256" r="12.36538088764064"/></g><g transform="rotate(342)"><circle cx="0" cy="49.46152355056256" r="12.36538088764064"/></g><g transform="rotate(0)"><path d="M 0 124.01454747188836 L 0 161.21891171345487"/></g><g transform="rotate(18)"><path d="M 0 124.01454747188836 L 0 161.21891171345487"/></g><g transform="rotate(36)"><path d="M 0 124.01454747188836 L 0 161.21891171345487"/></g><g transform="rotate(54)"><path d="M 0 124.01454747188836 L 0 161.21891171345487"/></g><g transform="rotate(72)"><path d="M 0 124.01454747188836 L 0 161.21891171345487"/></g><g transform="rotate(90)"><path d="M 0 124.01454747188836 L 0 161.21891171345487"/></g><g transform="rotate(108)"><path d="M 0 124.01454747188836 L 0 161.21891171345487"/></g><g transform="rotate(126)"><path d="M 0 124.01454747188836 L 0 161.21891171345487"/></g><g transform="rotate(144)"><path d="M 0 124.01454747188836 L 0 161.21891171345487"/></g><g transform="rotate(162)"><path d="M 0 124.01454747188836 L 0 161.21891171345487"/></g><g transform="rotate(180)"><path d="M 0 124.01454747188836 L 0 161.21891171345487"/></g><g transform="rotate(198)"><path d="M 0 124.01454747188836 L 0 161.21891171345487"/></g><g transform="rotate(216)"><path d="M 0 124.01454747188836 L 0 161.21891171345487"/></g><g transform="rotate(234)"><path d="M 0 124.01454747188836 L 0 161.21891171345487"/></g><g transform="rotate(252)"><path d="M 0 124.01454747188836 L 0 161.21891171345487"/></g><g transform="rotate(270)"><path d="M 0 124.01454747188836 L 0 161.21891171345487"/></g><g transform="rotate(288)"><path d="M 0 124.01454747188836 L 0 161.21891171345487"/></g><g transform="rotate(306)"><path d="M 0 124.01454747188836 L 0 161.21891171345487"/></g><g transform="rotate(324)"><path d="M 0 124.01454747188836 L 0 161.21891171345487"/></g><g transform="rotate(342)"><path d="M 0 124.01454747188836 L 0 161.21891171345487"/></g><g transform="rotate(0)"><circle cx="0" cy="219.90338367875665" r="54.975845919689164"/></g><g transform="rotate(18)"><circle cx="0" cy="219.90338367875665" r="54.975845919689164"/></g><g transform="rotate(36)"><circle cx="0" cy="219.90338367875665" r="54.975845919689164"/></g><g transform="rotate(54)"><circle cx="0" cy="219.90338367875665" r="54.975845919689164"/></g><g transform="rotate(72)"><circle cx="0" cy="219.90338367875665" r="54.975845919689164"/></g><g transform="rotate(90)"><circle cx="0" cy="219.90338367875665" r="54.975845919689164"/></g><g transform="rotate(108)"><circle cx="0" cy="219.90338367875665" r="54.975845919689164"/></g><g transform="rotate(126)"><circle cx="0" cy="219.90338367875665" r="54.975845919689164"/></g><g transform="rotate(144)"><circle cx="0" cy="219.90338367875665" r="54.975845919689164"/></g><g transform="rotate(162)"><circle cx="0" cy="219.90338367875665" r="54.975845919689164"/></g><g transform="rotate(180)"><circle cx="0" cy="219.90338367875665" r="54.975845919689164"/></g><g transform="rotate(198)"><circle cx="0" cy="219.90338367875665" r="54.975845919689164"/></g><g transform="rotate(216)"><circle cx="0" cy="219.90338367875665" r="54.975845919689164"/></g><g transform="rotate(234)"><circle cx="0" cy="219.90338367875665" r="54.975845919689164"/></g><g transform="rotate(252)"><circle cx="0" cy="219.90338367875665" r="54.975845919689164"/></g><g transform="rotate(270)"><circle cx="0" cy="219.90338367875665" r="54.975845919689164"/></g><g transform="rotate(288)"><circle cx="0" cy="219.90338367875665" r="54.975845919689164"/></g><g transform="rotate(306)"><circle cx="0" cy="219.90338367875665" r="54.975845919689164"/></g><g transform="rotate(324)"><circle cx="0" cy="219.90338367875665" r="54.975845919689164"/></g><g transform="rotate(342)"><circle cx="0" cy="219.90338367875665" r="54.975845919689164"/></g><g transform="rotate(0)"><path d="M -73.45159568474628 293.8063827389851 Q 0 352.56765928678215 73.45159568474628 293.8063827389851"/></g><g transform="rotate(18)"><path d="M -73.45159568474628 293.8063827389851 Q 0 352.56765928678215 73.45159568474628 293.8063827389851"/></g><g transform="rotate(36)"><path d="M -73.45159568474628 293.8063827389851 Q 0 352.56765928678215 73.45159568474628 293.8063827389851"/></g><g transform="rotate(54)"><path d="M -73.45159568474628 293.8063827389851 Q 0 352.56765928678215 73.45159568474628 293.8063827389851"/></g><g transform="rotate(72)"><path d="M -73.45159568474628 293.8063827389851 Q 0 352.56765928678215 73.45159568474628 293.8063827389851"/></g><g transform="rotate(90)"><path d="M -73.45159568474628 293.8063827389851 Q 0 352.56765928678215 73.45159568474628 293.8063827389851"/></g><g transform="rotate(108)"><path d="M -73.45159568474628 293.8063827389851 Q 0 352.56765928678215 73.45159568474628 293.8063827389851"/></g><g transform="rotate(126)"><path d="M -73.45159568474628 293.8063827389851 Q 0 352.56765928678215 73.45159568474628 293.8063827389851"/></g><g transform="rotate(144)"><path d="M -73.45159568474628 293.8063827389851 Q 0 352.56765928678215 73.45159568474628 293.8063827389851"/></g><g transform="rotate(162)"><path d="M -73.45159568474628 293.8063827389851 Q 0 352.56765928678215 73.45159568474628 293.8063827389851"/></g><g transform="rotate(180)"><path d="M -73.45159568474628 293.8063827389851 Q 0 352.56765928678215 73.45159568474628 293.8063827389851"/></g><g transform="rotate(198)"><path d="M -73.45159568474628 293.8063827389851 Q 0 352.56765928678215 73.45159568474628 293.8063827389851"/></g><g transform="rotate(216)"><path d="M -73.45159568474628 293.8063827389851 Q 0 352.56765928678215 73.45159568474628 293.8063827389851"/></g><g transform="rotate(234)"><path d="M -73.45159568474628 293.8063827389851 Q 0 352.56765928678215 73.45159568474628 293.8063827389851"/></g><g transform="rotate(252)"><path d="M -73.45159568474628 293.8063827389851 Q 0 352.56765928678215 73.45159568474628 293.8063827389851"/></g><g transform="rotate(270)"><path d="M -73.45159568474628 293.8063827389851 Q 0 352.56765928678215 73.45159568474628 293.8063827389851"/></g><g transform="rotate(288)"><path d="M -73.45159568474628 293.8063827389851 Q 0 352.56765928678215 73.45159568474628 293.8063827389851"/></g><g transform="rotate(306)"><path d="M -73.45159568474628 293.8063827389851 Q 0 352.56765928678215 73.45159568474628 293.8063827389851"/></g><g transform="rotate(324)"><path d="M -73.45159568474628 293.8063827389851 Q 0 352.56765928678215 73.45159568474628 293.8063827389851"/></g><g transform="rotate(342)"><path d="M -73.45159568474628 293.8063827389851 Q 0 352.56765928678215 73.45159568474628 293.8063827389851"/></g></g></svg>