<svg xmlns="http://www.w3.org/2000/svg" viewBox="0 0 800 800" width="800" height="800">
    <rect width="100%" height="100%" fill="white"/>
    <g transform="translate(400, 400)" fill="none" stroke="black" stroke-width="4" stroke-linecap="round" stroke-linejoin="round"><g transform="rotate(0)"><path d="M 0 45.83948901388794 Q 15.27982967129598 55.00738681666553 0 68.75923352083191 Q -15.27982967129598 55.00738681666553 0 45.83948901388794"/></g><g transform="rotate(60)"><path d="M 0 45.83948901388794 Q 15.27982967129598 55.00738681666553 0 68.75923352083191 Q -15.27982967129598 55.00738681666553 0 45.83948901388794"/></g><g transform="rotate(120)"><path d="M 0 45.83948901388794 Q 15.27982967129598 55.00738681666553 0 68.75923352083191 Q -15.27982967129598 55.00738681666553 0 45.83948901388794"/></g><g transform="rotate(180)"><path d="M 0 45.83948901388794 Q 15.27982967129598 55.00738681666553 0 68.75923352083191 Q -15.27982967129598 55.00738681666553 0 45.83948901388794"/></g><g transform="rotate(240)"><path d="M 0 45.83948901388794 Q 15.27982967129598 55.00738681666553 0 68.75923352083191 Q -15.27982967129598 55.00738681666553 0 45.83948901388794"/></g><g transform="rotate(300)"><path d="M 0 45.83948901388794 Q 15.27982967129598 55.00738681666553 0 68.75923352083191 Q -15.27982967129598 55.00738681666553 0 45.83948901388794"/></g><g transform="rotate(0)"><path d="M 0 93.61796013131324 L 23.40449003282831 112.34155215757589 L 0 131.06514418383853 L -23.40449003282831 112.34155215757589 Z"/></g><g transform="rotate(60)"><path d="M 0 93.61796013131324 L 23.40449003282831 112.34155215757589 L 0 131.06514418383853 L -23.40449003282831 112.34155215757589 Z"/></g><g transform="rotate(120)"><path d="M 0 93.61796013131324 L 23.40449003282831 112.34155215757589 L 0 131.06514418383853 L -23.40449003282831 112.34155215757589 Z"/></g><g transform="rotate(180)"><path d="M 0 93.61796013131324 L 23.40449003282831 112.34155215757589 L 0 131.06514418383853 L -23.40449003282831 112.34155215757589 Z"/></g><g transform="rotate(240)"><path d="M 0 93.61796013131324 L 23.40449003282831 112.34155215757589 L 0 131.06514418383853 L -23.40449003282831 112.34155215757589 Z"/></g><g transform="rotate(300)"><path d="M 0 93.61796013131324 L 23.40449003282831 112.34155215757589 L 0 131.06514418383853 L -23.40449003282831 112.34155215757589 Z"/></g><g transform="rotate(0)"><path d="M 0 118.85101973648287 L 0 154.50632565742774"/></g><g transform="rotate(60)"><path d="M 0 118.85101973648287 L 0 154.50632565742774"/></g><g transform="rotate(120)"><path d="M 0 118.85101973648287 L 0 154.50632565742774"/></g><g transform="rotate(180)"><path d="M 0 118.85101973648287 L 0 154.50632565742774"/></g><g transform="rotate(240)"><path d="M 0 118.85101973648287 L 0 154.50632565742774"/></g><g transform="rotate(300)"><path d="M 0 118.85101973648287 L 0 154.50632565742774"/></g><g transform="rotate(0)"><path d="M -38.037758656234175 152.1510346249367 Q 0 182.58124154992404 38.037758656234175 152.1510346249367"/></g><g transform="rotate(60)"><path d="M -38.037758656234175 152.1510346249367 Q 0 182.58124154992404 38.037758656234175 152.1510346249367"/></g><g transform="rotate(120)"><path d="M -38.037758656234175 152.1510346249367 Q 0 182.58124154992404 38.037758656234175 152.1510346249367"/></g><g transform="rotate(180)"><path d="M -38.037758656234175 152.1510346249367 Q 0 182.58124154992404 38.037758656234175 152.1510346249367"/></g><g transform="rotate(240)"><path d="M -38.037758656234175 152.1510346249367 Q 0 182.58124154992404 38.037758656234175 152.1510346249367"/></g><g transform="rotate(300)"><path d="M -38.037758656234175 152.1510346249367 Q 0 182.58124154992404 38.037758656234175 152.1510346249367"/></g><g transform="rotate(0)"><path d="M 0 195.40826179759785 L 0 254.03074033687722"/></g><g transform="rotate(60)"><path d="M 0 195.40826179759785 L 0 254.03074033687722"/></g><g transform="rotate(120)"><path d="M 0 195.40826179759785 L 0 254.03074033687722"/></g><g transform="rotate(180)"><path d="M 0 195.40826179759785 L 0 254.03074033687722"/></g><g transform="rotate(240)"><path d="M 0 195.40826179759785 L 0 254.03074033687722"/></g><g transform="rotate(300)"><path d="M 0 195.40826179759785 L 0 254.03074033687722"/></g><g transform="rotate(0)"><path d="M -57.71163003816683 230.84652015266732 Q 0 277.0158241832008 57.71163003816683 230.84652015266732"/></g><g transform="rotate(60)"><path d="M -57.71163003816683 230.84652015266732 Q 0 277.0158241832008 57.71163003816683 230.84652015266732"/></g><g transform="rotate(120)"><path d="M -57.71163003816683 230.84652015266732 Q 0 277.0158241832008 57.71163003816683 230.84652015266732"/></g><g transform="rotate(180)"><path d="M -57.71163003816683 230.84652015266732 Q 0 277.0158241832008 57.71163003816683 230.84652015266732"/></g><g transform="rotate(240)"><path d="M -57.71163003816683 230.84652015266732 Q 0 277.0158241832008 57.71163003816683 230.84652015266732"/></g><g transform="rotate(300)"><path d="M -57.71163003816683 230.84652015266732 Q 0 277.0158241832008 57.71163003816683 230.84652015266732"/></g><g transform="rotate(0)"><path d="M 0 270.6113939157998 L 67.65284847894995 324.73367269895977 L 0 378.8559514821197 L -67.65284847894995 324.73367269895977 Z"/></g><g transform="rotate(60)"><path d="M 0 270.6113939157998 L 67.65284847894995 324.73367269895977 L 0 378.8559514821197 L -67.65284847894995 324.73367269895977 Z"/></g><g transform="rotate(120)"><path d="M 0 270.6113939157998 L 67.65284847894995 324.73367269895977 L 0 378.8559514821197 L -67.65284847894995 324.73367269895977 Z"/></g><g transform="rotate(180)"><path d="M 0 270.6113939157998 L 67.65284847894995 324.73367269895977 L 0 378.8559514821197 L -67.65284847894995 324.73367269895977 Z"/></g><g transform="rotate(240)"><path d="M 0 270.6113939157998 L 67.65284847894995 324.73367269895977 L 0 378.8559514821197 L -67.65284847894995 324.73367269895977 Z"/></g><g transform="rotate(300)"><path d="M 0 270.6113939157998 L 67.65284847894995 324.73367269895977 L 0 378.8559514821197 L -67.65284847894995 324.73367269895977 Z"/></g><g transform="rotate(0)"><circle cx="0" cy="298.5437998398104" r="74.6359499599526"/></g><g transform="rotate(60)"><circle cx="0" cy="298.5437998398104" r="74.6359499599526"/></g><g transform="rotate(120)"><circle cx="0" cy="298.5437998398104" r="74.6359499599526"/></g><g transform="rotate(180)"><circle cx="0" cy="298.5437998398104" r="74.6359499599526"/></g><g transform="rotate(240)"><circle cx="0" cy="298.5437998398104" r="74.6359499599526"/></g><g transform="rotate(300)"><circle cx="0" cy="298.5437998398104" r="74.6359499599526"/></g><g transform="rotate(0)"><path d="M 0 340.96753145516334 L 0 443.2577908917124"/></g><g transform="rotate(60)"><path d="M 0 340.96753145516334 L 0 443.2577908917124"/></g><g transform="rotate(120)"><path d="M 0 340.96753145516334 L 0 443.2577908917124"/></g><g transform="rotate(180)"><path d="M 0 340.96753145516334 L 0 443.2577908917124"/></g><g transform="rotate(240)"><path d="M 0 340.96753145516334 L 0 443.2577908917124"/></g><g transform="rotate(300)"><path d="M 0 340.96753145516334 L 0 443.2577908917124"/></g></g></svg>