<svg xmlns="http://www.w3.org/2000/svg" viewBox="0 0 800 800" width="800" height="800">
    <rect width="100%" height="100%" fill="white"/>
    <g transform="translate(400, 400)" fill="none" stroke="black" stroke-width="4" stroke-linecap="round" stroke-linejoin="round"><g transform="rotate(0)"><path d="M 0 43.72925177682191 L 0 56.848027309868485"/></g><g transform="rotate(18)"><path d="M 0 43.72925177682191 L 0 56.848027309868485"/></g><g transform="rotate(36)"><path d="M 0 43.72925177682191 L 0 56.848027309868485"/></g><g transform="rotate(54)"><path d="M 0 43.72925177682191 L 0 56.848027309868485"/></g><g transform="rotate(72)"><path d="M 0 43.72925177682191 L 0 56.848027309868485"/></g><g transform="rotate(90)"><path d="M 0 43.72925177682191 L 0 56.848027309868485"/></g><g transform="rotate(108)"><path d="M 0 43.72925177682191 L 0 56.848027309868485"/></g><g transform="rotate(126)"><path d="M 0 43.72925177682191 L 0 56.848027309868485"/></g><g transform="rotate(144)"><path d="M 0 43.72925177682191 L 0 56.848027309868485"/></g><g transform="rotate(162)"><path d="M 0 43.72925177682191 L 0 56.848027309868485"/></g><g transform="rotate(180)"><path d="M 0 43.72925177682191 L 0 56.848027309868485"/></g><g transform="rotate(198)"><path d="M 0 43.72925177682191 L 0 56.848027309868485"/></g><g transform="rotate(216)"><path d="M 0 43.72925177682191 L 0 56.848027309868485"/></g><g transform="rotate(234)"><path d="M 0 43.72925177682191 L 0 56.848027309868485"/></g><g transform="rotate(252)"><path d="M 0 43.72925177682191 L 0 56.848027309868485"/></g><g transform="rotate(270)"><path d="M 0 43.72925177682191 L 0 56.848027309868485"/></g><g transform="rotate(288)"><path d="M 0 43.72925177682191 L 0 56.848027309868485"/></g><g transform="rotate(306)"><path d="M 0 43.72925177682191 L 0 56.848027309868485"/></g><g transform="rotate(324)"><path d="M 0 43.72925177682191 L 0 56.848027309868485"/></g><g transform="rotate(342)"><path d="M 0 43.72925177682191 L 0 56.848027309868485"/></g><g transform="rotate(0)"><circle cx="0" cy="120.13857600744814" r="30.034644001862034"/></g><g transform="rotate(18)"><circle cx="0" cy="120.13857600744814" r="30.034644001862034"/></g><g transform="rotate(36)"><circle cx="0" cy="120.13857600744814" r="30.034644001862034"/></g><g transform="rotate(54)"><circle cx="0" cy="120.13857600744814" r="30.034644001862034"/></g><g transform="rotate(72)"><circle cx="0" cy="120.13857600744814" r="30.034644001862034"/></g><g transform="rotate(90)"><circle cx="0" cy="120.13857600744814" r="30.034644001862034"/></g><g transform="rotate(108)"><circle cx="0" cy="120.13857600744814" r="30.034644001862034"/></g><g transform="rotate(126)"><circle cx="0" cy="120.13857600744814" r="30.034644001862034"/></g><g transform="rotate(144)"><circle cx="0" cy="120.13857600744814" r="30.034644001862034"/></g><g transform="rotate(162)"><circle cx="0" cy="120.13857600744814" r="30.034644001862034"/></g><g transform="rotate(180)"><circle cx="0" cy="120.13857600744814" r="30.034644001862034"/></g><g transform="rotate(198)"><circle cx="0" cy="120.13857600744814" r="30.034644001862034"/></g><g transform="rotate(216)"><circle cx="0" cy="120.13857600744814" r="30.034644001862034"/></g><g transform="rotate(234)"><circle cx="0" cy="120.13857600744814" r="30.034644001862034"/></g><g transform="rotate(252)"><circle cx="0" cy="120.13857600744814" r="30.034644001862034"/></g><g transform="rotate(270)"><circle cx="0" cy="120.13857600744814" r="30.034644001862034"/></g><g transform="rotate(288)"><circle cx="0" cy="120.13857600744814" r="30.034644001862034"/></g><g transform="rotate(306)"><circle cx="0" cy="120.13857600744814" r="30.034644001862034"/></g><g transform="rotate(324)"><circle cx="0" cy="120.13857600744814" r="30.034644001862034"/></g><g transform="rotate(342)"><circle cx="0" cy="120.13857600744814" r="30.034644001862034"/></g><g transform="rotate(0)"><path d="M 0 219.91298662964255 L 54.97824665741064 263.89558395557106 L 0 307.87818128149956 L -54.97824665741064 263.89558395557106 Z"/></g><g transform="rotate(18)"><path d="M 0 219.91298662964255 L 54.97824665741064 263.89558395557106 L 0 307.87818128149956 L -54.97824665741064 263.89558395557106 Z"/></g><g transform="rotate(36)"><path d="M 0 219.91298662964255 L 54.97824665741064 263.89558395557106 L 0 307.87818128149956 L -54.97824665741064 263.89558395557106 Z"/></g><g transform="rotate(54)"><path d="M 0 219.91298662964255 L 54.97824665741064 263.89558395557106 L 0 307.87818128149956 L -54.97824665741064 263.89558395557106 Z"/></g><g transform="rotate(72)"><path d="M 0 219.91298662964255 L 54.97824665741064 263.89558395557106 L 0 307.87818128149956 L -54.97824665741064 263.89558395557106 Z"/></g><g transform="rotate(90)"><path d="M 0 219.91298662964255 L 54.97824665741064 263.89558395557106 L 0 307.87818128149956 L -54.97824665741064 263.89558395557106 Z"/></g><g transform="rotate(108)"><path d="M 0 219.91298662964255 L 54.97824665741064 263.89558395557106 L 0 307.87818128149956 L -54.97824665741064 263.89558395557106 Z"/></g><g transform="rotate(126)"><path d="M 0 219.91298662964255 L 54.97824665741064 263.89558395557106 L 0 307.87818128149956 L -54.97824665741064 263.89558395557106 Z"/></g><g transform="rotate(144)"><path d="M 0 219.91298662964255 L 54.97824665741064 263.89558395557106 L 0 307.87818128149956 L -54.97824665741064 263.89558395557106 Z"/></g><g transform="rotate(162)"><path d="M 0 219.91298662964255 L 54.97824665741064 263.89558395557106 L 0 307.87818128149956 L -54.97824665741064 263.89558395557106 Z"/></g><g transform="rotate(180)"><path d="M 0 219.91298662964255 L 54.97824665741064 263.89558395557106 L 0 307.87818128149956 L -54.97824665741064 263.89558395557106 Z"/></g><g transform="rotate(198)"><path d="M 0 219.91298662964255 L 54.97824665741064 263.89558395557106 L 0 307.87818128149956 L -54.97824665741064 263.89558395557106 Z"/></g><g transform="rotate(216)"><path d="M 0 219.91298662964255 L 54.97824665741064 263.89558395557106 L 0 307.87818128149956 L -54.97824665741064 263.89558395557106 Z"/></g><g transform="rotate(234)"><path d="M 0 219.91298662964255 L 54.97824665741064 263.89558395557106 L 0 307.87818128149956 L -54.97824665741064 263.89558395557106 Z"/></g><g transform="rotate(252)"><path d="M 0 219.91298662964255 L 54.97824665741064 263.89558395557106 L 0 307.87818128149956 L -54.97824665741064 263.89558395557106 Z"/></g><g transform="rotate(270)"><path d="M 0 219.91298662964255 L 54.97824665741064 263.89558395557106 L 0 307.87818128149956 L -54.97824665741064 263.89558395557106 Z"/></g><g transform="rotate(288)"><path d="M 0 219.91298662964255 L 54.97824665741064 263.89558395557106 L 0 307.87818128149956 L -54.97824665741064 263.89558395557106 Z"/></g><g transform="rotate(306)"><path d="M 0 219.91298662964255 L 54.97824665741064 263.89558395557106 L 0 307.87818128149956 L -54.97824665741064 263.89558395557106 Z"/></g><g transform="rotate(324)"><path d="M 0 219.91298662964255 L 54.97824665741064 263.89558395557106 L 0 307.87818128149956 L -54.97824665741064 263.89558395557106 Z"/></g><g transform="rotate(342)"><path d="M 0 219.91298662964255 L 54.97824665741064 263.89558395557106 L 0 307.87818128149956 L -54.97824665741064 263.89558395557106 Z"/></g><g transform="rotate(0)"><path d="M 0 292.5501291407272 L 73.1375322851818 351.06015496887267 L 0 409.5701807970181 L -73.1375322851818 351.06015496887267 Z"/></g><g transform="rotate(18)"><path d="M 0 292.5501291407272 L 73.1375322851818 351.06015496887267 L 0 409.5701807970181 L -73.1375322851818 351.06015496887267 Z"/></g><g transform="rotate(36)"><path d="M 0 292.5501291407272 L 73.1375322851818 351.06015496887267 L 0 409.5701807970181 L -73.1375322851818 351.06015496887267 Z"/></g><g transform="rotate(54)"><path d="M 0 292.5501291407272 L 73.1375322851818 351.06015496887267 L 0 409.5701807970181 L -73.1375322851818 351.06015496887267 Z"/></g><g transform="rotate(72)"><path d="M 0 292.5501291407272 L 73.1375322851818 351.06015496887267 L 0 409.5701807970181 L -73.1375322851818 351.06015496887267 Z"/></g><g transform="rotate(90)"><path d="M 0 292.5501291407272 L 73.1375322851818 351.06015496887267 L 0 409.5701807970181 L -73.1375322851818 351.06015496887267 Z"/></g><g transform="rotate(108)"><path d="M 0 292.5501291407272 L 73.1375322851818 351.06015496887267 L 0 409.5701807970181 L -73.1375322851818 351.06015496887267 Z"/></g><g transform="rotate(126)"><path d="M 0 292.5501291407272 L 73.1375322851818 351.06015496887267 L 0 409.5701807970181 L -73.1375322851818 351.06015496887267 Z"/></g><g transform="rotate(144)"><path d="M 0 292.5501291407272 L 73.1375322851818 351.06015496887267 L 0 409.5701807970181 L -73.1375322851818 351.06015496887267 Z"/></g><g transform="rotate(162)"><path d="M 0 292.5501291407272 L 73.1375322851818 351.06015496887267 L 0 409.5701807970181 L -73.1375322851818 351.06015496887267 Z"/></g><g transform="rotate(180)"><path d="M 0 292.5501291407272 L 73.1375322851818 351.06015496887267 L 0 409.5701807970181 L -73.1375322851818 351.06015496887267 Z"/></g><g transform="rotate(198)"><path d="M 0 292.5501291407272 L 73.1375322851818 351.06015496887267 L 0 409.5701807970181 L -73.1375322851818 351.06015496887267 Z"/></g><g transform="rotate(216)"><path d="M 0 292.5501291407272 L 73.1375322851818 351.06015496887267 L 0 409.5701807970181 L -73.1375322851818 351.06015496887267 Z"/></g><g transform="rotate(234)"><path d="M 0 292.5501291407272 L 73.1375322851818 351.06015496887267 L 0 409.5701807970181 L -73.1375322851818 351.06015496887267 Z"/></g><g transform="rotate(252)"><path d="M 0 292.5501291407272 L 73.1375322851818 351.06015496887267 L 0 409.5701807970181 L -73.1375322851818 351.06015496887267 Z"/></g><g transform="rotate(270)"><path d="M 0 292.5501291407272 L 73.1375322851818 351.06015496887267 L 0 409.5701807970181 L -73.1375322851818 351.06015496887267 Z"/></g><g transform="rotate(288)"><path d="M 0 292.5501291407272 L 73.1375322851818 351.06015496887267 L 0 409.5701807970181 L -73.1375322851818 351.06015496887267 Z"/></g><g transform="rotate(306)"><path d="M 0 292.5501291407272 L 73.1375322851818 351.06015496887267 L 0 409.5701807970181 L -73.1375322851818 351.06015496887267 Z"/></g><g transform="rotate(324)"><path d="M 0 292.5501291407272 L 73.1375322851818 351.06015496887267 L 0 409.5701807970181 L -73.1375322851818 351.06015496887267 Z"/></g><g transform="rotate(342)"><path d="M 0 292.5501291407272 L 73.1375322851818 351.06015496887267 L 0 409.5701807970181 L -73.1375322851818 351.06015496887267 Z"/></g></g></svg>