<svg xmlns="http://www.w3.org/2000/svg" viewBox="0 0 800 800" width="800" height="800">
    <rect width="100%" height="100%" fill="white"/>
    <g transform="translate(400, 400)" fill="none" stroke="black" stroke-width="4" stroke-linecap="round" stroke-linejoin="round"><g transform="rotate(0)"><path d="M -14.877194325672463 59.50877730268985 Q 0 71.41053276322782 14.877194325672463 59.50877730268985"/></g><g transform="rotate(18)"><path d="M -14.877194325672463 59.50877730268985 Q 0 71.41053276322782 14.877194325672463 59.50877730268985"/></g><g transform="rotate(36)"><path d="M -14.877194325672463 59.50877730268985 Q 0 71.41053276322782 14.877194325672463 59.50877730268985"/></g><g transform="rotate(54)"><path d="M -14.877194325672463 59.50877730268985 Q 0 71.41053276322782 14.877194325672463 59.50877730268985"/></g><g transform="rotate(72)"><path d="M -14.877194325672463 59.50877730268985 Q 0 71.41053276322782 14.877194325672463 59.50877730268985"/></g><g transform="rotate(90)"><path d="M -14.877194325672463 59.50877730268985 Q 0 71.41053276322782 14.877194325672463 59.50877730268985"/></g><g transform="rotate(108)"><path d="M -14.877194325672463 59.50877730268985 Q 0 71.41053276322782 14.877194325672463 59.50877730268985"/></g><g transform="rotate(126)"><path d="M -14.877194325672463 59.50877730268985 Q 0 71.41053276322782 14.877194325672463 59.50877730268985"/></g><g transform="rotate(144)"><path d="M -14.877194325672463 59.50877730268985 Q 0 71.41053276322782 14.877194325672463 59.50877730268985"/></g><g transform="rotate(162)"><path d="M -14.877194325672463 59.50877730268985 Q 0 71.41053276322782 14.877194325672463 59.50877730268985"/></g><g transform="rotate(180)"><path d="M -14.877194325672463 59.50877730268985 Q 0 71.41053276322782 14.877194325672463 59.50877730268985"/></g><g transform="rotate(198)"><path d="M -14.877194325672463 59.50877730268985 Q 0 71.41053276322782 14.877194325672463 59.50877730268985"/></g><g transform="rotate(216)"><path d="M -14.877194325672463 59.50877730268985 Q 0 71.41053276322782 14.877194325672463 59.50877730268985"/></g><g transform="rotate(234)"><path d="M -14.877194325672463 59.50877730268985 Q 0 71.41053276322782 14.877194325672463 59.50877730268985"/></g><g transform="rotate(252)"><path d="M -14.877194325672463 59.50877730268985 Q 0 71.41053276322782 14.877194325672463 59.50877730268985"/></g><g transform="rotate(270)"><path d="M -14.877194325672463 59.50877730268985 Q 0 71.41053276322782 14.877194325672463 59.50877730268985"/></g><g transform="rotate(288)"><path d="M -14.877194325672463 59.50877730268985 Q 0 71.41053276322782 14.877194325672463 59.50877730268985"/></g><g transform="rotate(306)"><path d="M -14.877194325672463 59.50877730268985 Q 0 71.41053276322782 14.877194325672463 59.50877730268985"/></g><g transform="rotate(324)"><path d="M -14.877194325672463 59.50877730268985 Q 0 71.41053276322782 14.877194325672463 59.50877730268985"/></g><g transform="rotate(342)"><path d="M -14.877194325672463 59.50877730268985 Q 0 71.41053276322782 14.877194325672463 59.50877730268985"/></g><g transform="rotate(0)"><circle cx="0" cy="97.62425220416239" r="24.406063051040597"/></g><g transform="rotate(18)"><circle cx="0" cy="97.62425220416239" r="24.406063051040597"/></g><g transform="rotate(36)"><circle cx="0" cy="97.62425220416239" r="24.406063051040597"/></g><g transform="rotate(54)"><circle cx="0" cy="97.62425220416239" r="24.406063051040597"/></g><g transform="rotate(72)"><circle cx="0" cy="97.62425220416239" r="24.406063051040597"/></g><g transform="rotate(90)"><circle cx="0" cy="97.62425220416239" r="24.406063051040597"/></g><g transform="rotate(108)"><circle cx="0" cy="97.62425220416239" r="24.406063051040597"/></g><g transform="rotate(126)"><circle cx="0" cy="97.62425220416239" r="24.406063051040597"/></g><g transform="rotate(144)"><circle cx="0" cy="97.62425220416239" r="24.406063051040597"/></g><g transform="rotate(162)"><circle cx="0" cy="97.62425220416239" r="24.406063051040597"/></g><g transform="rotate(180)"><circle cx="0" cy="97.62425220416239" r="24.406063051040597"/></g><g transform="rotate(198)"><circle cx="0" cy="97.62425220416239" r="24.406063051040597"/></g><g transform="rotate(216)"><circle cx="0" cy="97.62425220416239" r="24.406063051040597"/></g><g transform="rotate(234)"><circle cx="0" cy="97.62425220416239" r="24.406063051040597"/></g><g transform="rotate(252)"><circle cx="0" cy="97.62425220416239" r="24.406063051040597"/></g><g transform="rotate(270)"><circle cx="0" cy="97.62425220416239" r="24.406063051040597"/></g><g transform="rotate(288)"><circle cx="0" cy="97.62425220416239" r="24.406063051040597"/></g><g transform="rotate(306)"><circle cx="0" cy="97.62425220416239" r="24.406063051040597"/></g><g transform="rotate(324)"><circle cx="0" cy="97.62425220416239" r="24.406063051040597"/></g><g transform="rotate(342)"><circle cx="0" cy="97.62425220416239" r="24.406063051040597"/></g><g transform="rotate(0)"><path d="M -37.731452326212704 150.92580930485082 Q 0 181.11097116582098 37.731452326212704 150.92580930485082"/></g><g transform="rotate(18)"><path d="M -37.731452326212704 150.92580930485082 Q 0 181.11097116582098 37.731452326212704 150.92580930485082"/></g><g transform="rotate(36)"><path d="M -37.731452326212704 150.92580930485082 Q 0 181.11097116582098 37.731452326212704 150.92580930485082"/></g><g transform="rotate(54)"><path d="M -37.731452326212704 150.92580930485082 Q 0 181.11097116582098 37.731452326212704 150.92580930485082"/></g><g transform="rotate(72)"><path d="M -37.731452326212704 150.92580930485082 Q 0 181.11097116582098 37.731452326212704 150.92580930485082"/></g><g transform="rotate(90)"><path d="M -37.731452326212704 150.92580930485082 Q 0 181.11097116582098 37.731452326212704 150.92580930485082"/></g><g transform="rotate(108)"><path d="M -37.731452326212704 150.92580930485082 Q 0 181.11097116582098 37.731452326212704 150.92580930485082"/></g><g transform="rotate(126)"><path d="M -37.731452326212704 150.92580930485082 Q 0 181.11097116582098 37.731452326212704 150.92580930485082"/></g><g transform="rotate(144)"><path d="M -37.731452326212704 150.92580930485082 Q 0 181.11097116582098 37.731452326212704 150.92580930485082"/></g><g transform="rotate(162)"><path d="M -37.731452326212704 150.92580930485082 Q 0 181.11097116582098 37.731452326212704 150.92580930485082"/></g><g transform="rotate(180)"><path d="M -37.731452326212704 150.92580930485082 Q 0 181.11097116582098 37.731452326212704 150.92580930485082"/></g><g transform="rotate(198)"><path d="M -37.731452326212704 150.92580930485082 Q 0 181.11097116582098 37.731452326212704 150.92580930485082"/></g><g transform="rotate(216)"><path d="M -37.731452326212704 150.92580930485082 Q 0 181.11097116582098 37.731452326212704 150.92580930485082"/></g><g transform="rotate(234)"><path d="M -37.731452326212704 150.92580930485082 Q 0 181.11097116582098 37.731452326212704 150.92580930485082"/></g><g transform="rotate(252)"><path d="M -37.731452326212704 150.92580930485082 Q 0 181.11097116582098 37.731452326212704 150.92580930485082"/></g><g transform="rotate(270)"><path d="M -37.731452326212704 150.92580930485082 Q 0 181.11097116582098 37.731452326212704 150.92580930485082"/></g><g transform="rotate(288)"><path d="M -37.731452326212704 150.92580930485082 Q 0 181.11097116582098 37.731452326212704 150.92580930485082"/></g><g transform="rotate(306)"><path d="M -37.731452326212704 150.92580930485082 Q 0 181.11097116582098 37.731452326212704 150.92580930485082"/></g><g transform="rotate(324)"><path d="M -37.731452326212704 150.92580930485082 Q 0 181.11097116582098 37.731452326212704 150.92580930485082"/></g><g transform="rotate(342)"><path d="M -37.731452326212704 150.92580930485082 Q 0 181.11097116582098 37.731452326212704 150.92580930485082"/></g><g transform="rotate(0)"><path d="M 0 206.68165150564164 Q 68.89388383521388 248.01798180676997 0 310.02247725846246 Q -68.89388383521388 248.01798180676997 0 206.68165150564164"/></g><g transform="rotate(18)"><path d="M 0 206.68165150564164 Q 68.89388383521388 248.01798180676997 0 310.02247725846246 Q -68.89388383521388 248.01798180676997 0 206.68165150564164"/></g><g transform="rotate(36)"><path d="M 0 206.68165150564164 Q 68.89388383521388 248.01798180676997 0 310.02247725846246 Q -68.89388383521388 248.01798180676997 0 206.68165150564164"/></g><g transform="rotate(54)"><path d="M 0 206.68165150564164 Q 68.89388383521388 248.01798180676997 0 310.02247725846246 Q -68.89388383521388 248.01798180676997 0 206.68165150564164"/></g><g transform="rotate(72)"><path d="M 0 206.68165150564164 Q 68.89388383521388 248.01798180676997 0 310.02247725846246 Q -68.89388383521388 248.01798180676997 0 206.68165150564164"/></g><g transform="rotate(90)"><path d="M 0 206.68165150564164 Q 68.89388383521388 248.01798180676997 0 310.02247725846246 Q -68.89388383521388 248.01798180676997 0 206.68165150564164"/></g><g transform="rotate(108)"><path d="M 0 206.68165150564164 Q 68.89388383521388 248.01798180676997 0 310.02247725846246 Q -68.89388383521388 248.01798180676997 0 206.68165150564164"/></g><g transform="rotate(126)"><path d="M 0 206.68165150564164 Q 68.89388383521388 248.01798180676997 0 310.02247725846246 Q -68.89388383521388 248.01798180676997 0 206.68165150564164"/></g><g transform="rotate(144)"><path d="M 0 206.68165150564164 Q 68.89388383521388 248.01798180676997 0 310.02247725846246 Q -68.89388383521388 248.01798180676997 0 206.68165150564164"/></g><g transform="rotate(162)"><path d="M 0 206.68165150564164 Q 68.89388383521388 248.01798180676997 0 310.02247725846246 Q -68.89388383521388 248.01798180676997 0 206.68165150564164"/></g><g transform="rotate(180)"><path d="M 0 206.68165150564164 Q 68.89388383521388 248.01798180676997 0 310.02247725846246 Q -68.89388383521388 248.01798180676997 0 206.68165150564164"/></g><g transform="rotate(198)"><path d="M 0 206.68165150564164 Q 68.89388383521388 248.01798180676997 0 310.02247725846246 Q -68.89388383521388 248.01798180676997 0 206.68165150564164"/></g><g transform="rotate(216)"><path d="M 0 206.68165150564164 Q 68.89388383521388 248.01798180676997 0 310.02247725846246 Q -68.89388383521388 248.01798180676997 0 206.68165150564164"/></g><g transform="rotate(234)"><path d="M 0 206.68165150564164 Q 68.89388383521388 248.01798180676997 0 310.02247725846246 Q -68.89388383521388 248.01798180676997 0 206.68165150564164"/></g><g transform="rotate(252)"><path d="M 0 206.68165150564164 Q 68.89388383521388 248.01798180676997 0 310.02247725846246 Q -68.89388383521388 248.01798180676997 0 206.68165150564164"/></g><g transform="rotate(270)"><path d="M 0 206.68165150564164 Q 68.89388383521388 248.01798180676997 0 310.02247725846246 Q -68.89388383521388 248.01798180676997 0 206.68165150564164"/></g><g transform="rotate(288)"><path d="M 0 206.68165150564164 Q 68.89388383521388 248.01798180676997 0 310.02247725846246 Q -68.89388383521388 248.01798180676997 0 206.68165150564164"/></g><g transform="rotate(306)"><path d="M 0 206.68165150564164 Q 68.89388383521388 248.01798180676997 0 310.02247725846246 Q -68.89388383521388 248.01798180676997 0 206.68165150564164"/></g><g transform="rotate(324)"><path d="M 0 206.68165150564164 Q 68.89388383521388 248.01798180676997 0 310.02247725846246 Q -68.89388383521388 248.01798180676997 0 206.68165150564164"/></g><g transform="rotate(342)"><path d="M 0 206.68165150564164 Q 68.89388383521388 248.01798180676997 0 310.02247725846246 Q -68.89388383521388 248.01798180676997 0 206.68165150564164"/></g><g transform="rotate(0)"><path d="M 0 264.87029073604697 L 0 344.33137795686105"/></g><g transform="rotate(18)"><path d="M 0 264.87029073604697 L 0 344.33137795686105"/></g><g transform="rotate(36)"><path d="M 0 264.87029073604697 L 0 344.33137795686105"/></g><g transform="rotate(54)"><path d="M 0 264.87029073604697 L 0 344.33137795686105"/></g><g transform="rotate(72)"><path d="M 0 264.87029073604697 L 0 344.33137795686105"/></g><g transform="rotate(90)"><path d="M 0 264.87029073604697 L 0 344.33137795686105"/></g><g transform="rotate(108)"><path d="M 0 264.87029073604697 L 0 344.33137795686105"/></g><g transform="rotate(126)"><path d="M 0 264.87029073604697 L 0 344.33137795686105"/></g><g transform="rotate(144)"><path d="M 0 264.87029073604697 L 0 344.33137795686105"/></g><g transform="rotate(162)"><path d="M 0 264.87029073604697 L 0 344.33137795686105"/></g><g transform="rotate(180)"><path d="M 0 264.87029073604697 L 0 344.33137795686105"/></g><g transform="rotate(198)"><path d="M 0 264.87029073604697 L 0 344.33137795686105"/></g><g transform="rotate(216)"><path d="M 0 264.87029073604697 L 0 344.33137795686105"/></g><g transform="rotate(234)"><path d="M 0 264.87029073604697 L 0 344.33137795686105"/></g><g transform="rotate(252)"><path d="M 0 264.87029073604697 L 0 344.33137795686105"/></g><g transform="rotate(270)"><path d="M 0 264.87029073604697 L 0 344.33137795686105"/></g><g transform="rotate(288)"><path d="M 0 264.87029073604697 L 0 344.33137795686105"/></g><g transform="rotate(306)"><path d="M 0 264.87029073604697 L 0 344.33137795686105"/></g><g transform="rotate(324)"><path d="M 0 264.87029073604697 L 0 344.33137795686105"/></g><g transform="rotate(342)"><path d="M 0 264.87029073604697 L 0 344.33137795686105"/></g><g transform="rotate(0)"><path d="M 0 324.21070695078623 L 0 421.4739190360221"/></g><g transform="rotate(18)"><path d="M 0 324.21070695078623 L 0 421.4739190360221"/></g><g transform="rotate(36)"><path d="M 0 324.21070695078623 L 0 421.4739190360221"/></g><g transform="rotate(54)"><path d="M 0 324.21070695078623 L 0 421.4739190360221"/></g><g transform="rotate(72)"><path d="M 0 324.21070695078623 L 0 421.4739190360221"/></g><g transform="rotate(90)"><path d="M 0 324.21070695078623 L 0 421.4739190360221"/></g><g transform="rotate(108)"><path d="M 0 324.21070695078623 L 0 421.4739190360221"/></g><g transform="rotate(126)"><path d="M 0 324.21070695078623 L 0 421.4739190360221"/></g><g transform="rotate(144)"><path d="M 0 324.21070695078623 L 0 421.4739190360221"/></g><g transform="rotate(162)"><path d="M 0 324.21070695078623 L 0 421.4739190360221"/></g><g transform="rotate(180)"><path d="M 0 324.21070695078623 L 0 421.4739190360221"/></g><g transform="rotate(198)"><path d="M 0 324.21070695078623 L 0 421.4739190360221"/></g><g transform="rotate(216)"><path d="M 0 324.21070695078623 L 0 421.4739190360221"/></g><g transform="rotate(234)"><path d="M 0 324.21070695078623 L 0 421.4739190360221"/></g><g transform="rotate(252)"><path d="M 0 324.21070695078623 L 0 421.4739190360221"/></g><g transform="rotate(270)"><path d="M 0 324.21070695078623 L 0 421.4739190360221"/></g><g transform="rotate(288)"><path d="M 0 324.21070695078623 L 0 421.4739190360221"/></g><g transform="rotate(306)"><path d="M 0 324.21070695078623 L 0 421.4739190360221"/></g><g transform="rotate(324)"><path d="M 0 324.21070695078623 L 0 421.4739190360221"/></g><g transform="rotate(342)"><path d="M 0 324.21070695078623 L 0 421.4739190360221"/></g></g></svg>