<svg xmlns="http://www.w3.org/2000/svg" viewBox="0 0 800 800" width="800" height="800">
    <rect width="100%" height="100%" fill="white"/>
    <g transform="translate(400, 400)" fill="none" stroke="black" stroke-width="4" stroke-linecap="round" stroke-linejoin="round"><g transform="rotate(0)"><path d="M 0 43.43003180809319 L 0 56.45904135052115"/></g><g transform="rotate(30)"><path d="M 0 43.43003180809319 L 0 56.45904135052115"/></g><g transform="rotate(60)"><path d="M 0 43.43003180809319 L 0 56.45904135052115"/></g><g transform="rotate(90)"><path d="M 0 43.43003180809319 L 0 56.45904135052115"/></g><g transform="rotate(120)"><path d="M 0 43.43003180809319 L 0 56.45904135052115"/></g><g transform="rotate(150)"><path d="M 0 43.43003180809319 L 0 56.45904135052115"/></g><g transform="rotate(180)"><path d="M 0 43.43003180809319 L 0 56.45904135052115"/></g><g transform="rotate(210)"><path d="M 0 43.43003180809319 L 0 56.45904135052115"/></g><g transform="rotate(240)"><path d="M 0 43.43003180809319 L 0 56.45904135052115"/></g><g transform="rotate(270)"><path d="M 0 43.43003180809319 L 0 56.45904135052115"/></g><g transform="rotate(300)"><path d="M 0 43.43003180809319 L 0 56.45904135052115"/></g><g transform="rotate(330)"><path d="M 0 43.43003180809319 L 0 56.45904135052115"/></g><g transform="rotate(0)"><path d="M -21.297704721800983 85.19081888720393 Q 0 102.22898266464472 21.297704721800983 85.19081888720393"/></g><g transform="rotate(30)"><path d="M -21.297704721800983 85.19081888720393 Q 0 102.22898266464472 21.297704721800983 85.19081888720393"/></g><g transform="rotate(60)"><path d="M -21.297704721800983 85.19081888720393 Q 0 102.22898266464472 21.297704721800983 85.19081888720393"/></g><g transform="rotate(90)"><path d="M -21.297704721800983 85.19081888720393 Q 0 102.22898266464472 21.297704721800983 85.19081888720393"/></g><g transform="rotate(120)"><path d="M -21.297704721800983 85.19081888720393 Q 0 102.22898266464472 21.297704721800983 85.19081888720393"/></g><g transform="rotate(150)"><path d="M -21.297704721800983 85.19081888720393 Q 0 102.22898266464472 21.297704721800983 85.19081888720393"/></g><g transform="rotate(180)"><path d="M -21.297704721800983 85.19081888720393 Q 0 102.22898266464472 21.297704721800983 85.19081888720393"/></g><g transform="rotate(210)"><path d="M -21.297704721800983 85.19081888720393 Q 0 102.22898266464472 21.297704721800983 85.19081888720393"/></g><g transform="rotate(240)"><path d="M -21.297704721800983 85.19081888720393 Q 0 102.22898266464472 21.297704721800983 85.19081888720393"/></g><g transform="rotate(270)"><path d="M -21.297704721800983 85.19081888720393 Q 0 102.22898266464472 21.297704721800983 85.19081888720393"/></g><g transform="rotate(300)"><path d="M -21.297704721800983 85.19081888720393 Q 0 102.22898266464472 21.297704721800983 85.19081888720393"/></g><g transform="rotate(330)"><path d="M -21.297704721800983 85.19081888720393 Q 0 102.22898266464472 21.297704721800983 85.19081888720393"/></g><g transform="rotate(0)"><path d="M -32.04195054015145 128.1678021606058 Q 0 153.80136259272695 32.04195054015145 128.1678021606058"/></g><g transform="rotate(30)"><path d="M -32.04195054015145 128.1678021606058 Q 0 153.80136259272695 32.04195054015145 128.1678021606058"/></g><g transform="rotate(60)"><path d="M -32.04195054015145 128.1678021606058 Q 0 153.80136259272695 32.04195054015145 128.1678021606058"/></g><g transform="rotate(90)"><path d="M -32.04195054015145 128.1678021606058 Q 0 153.80136259272695 32.04195054015145 128.1678021606058"/></g><g transform="rotate(120)"><path d="M -32.04195054015145 128.1678021606058 Q 0 153.80136259272695 32.04195054015145 128.1678021606058"/></g><g transform="rotate(150)"><path d="M -32.04195054015145 128.1678021606058 Q 0 153.80136259272695 32.04195054015145 128.1678021606058"/></g><g transform="rotate(180)"><path d="M -32.04195054015145 128.1678021606058 Q 0 153.80136259272695 32.04195054015145 128.1678021606058"/></g><g transform="rotate(210)"><path d="M -32.04195054015145 128.1678021606058 Q 0 153.80136259272695 32.04195054015145 128.1678021606058"/></g><g transform="rotate(240)"><path d="M -32.04195054015145 128.1678021606058 Q 0 153.80136259272695 32.04195054015145 128.1678021606058"/></g><g transform="rotate(270)"><path d="M -32.04195054015145 128.1678021606058 Q 0 153.80136259272695 32.04195054015145 128.1678021606058"/></g><g transform="rotate(300)"><path d="M -32.04195054015145 128.1678021606058 Q 0 153.80136259272695 32.04195054015145 128.1678021606058"/></g><g transform="rotate(330)"><path d="M -32.04195054015145 128.1678021606058 Q 0 153.80136259272695 32.04195054015145 128.1678021606058"/></g><g transform="rotate(0)"><circle cx="0" cy="163.77689771354198" r="40.944224428385496"/></g><g transform="rotate(30)"><circle cx="0" cy="163.77689771354198" r="40.944224428385496"/></g><g transform="rotate(60)"><circle cx="0" cy="163.77689771354198" r="40.944224428385496"/></g><g transform="rotate(90)"><circle cx="0" cy="163.77689771354198" r="40.944224428385496"/></g><g transform="rotate(120)"><circle cx="0" cy="163.77689771354198" r="40.944224428385496"/></g><g transform="rotate(150)"><circle cx="0" cy="163.77689771354198" r="40.944224428385496"/></g><g transform="rotate(180)"><circle cx="0" cy="163.77689771354198" r="40.944224428385496"/></g><g transform="rotate(210)"><circle cx="0" cy="163.77689771354198" r="40.944224428385496"/></g><g transform="rotate(240)"><circle cx="0" cy="163.77689771354198" r="40.944224428385496"/></g><g transform="rotate(270)"><circle cx="0" cy="163.77689771354198" r="40.944224428385496"/></g><g transform="rotate(300)"><circle cx="0" cy="163.77689771354198" r="40.944224428385496"/></g><g transform="rotate(330)"><circle cx="0" cy="163.77689771354198" r="40.944224428385496"/></g><g transform="rotate(0)"><path d="M 0 213.65106360055506 Q 71.21702120018502 256.3812763206661 0 320.4765954008326 Q -71.21702120018502 256.3812763206661 0 213.65106360055506"/></g><g transform="rotate(30)"><path d="M 0 213.65106360055506 Q 71.21702120018502 256.3812763206661 0 320.4765954008326 Q -71.21702120018502 256.3812763206661 0 213.65106360055506"/></g><g transform="rotate(60)"><path d="M 0 213.65106360055506 Q 71.21702120018502 256.3812763206661 0 320.4765954008326 Q -71.21702120018502 256.3812763206661 0 213.65106360055506"/></g><g transform="rotate(90)"><path d="M 0 213.65106360055506 Q 71.21702120018502 256.3812763206661 0 320.4765954008326 Q -71.21702120018502 256.3812763206661 0 213.65106360055506"/></g><g transform="rotate(120)"><path d="M 0 213.65106360055506 Q 71.21702120018502 256.3812763206661 0 320.4765954008326 Q -71.21702120018502 256.3812763206661 0 213.65106360055506"/></g><g transform="rotate(150)"><path d="M 0 213.65106360055506 Q 71.21702120018502 256.3812763206661 0 320.4765954008326 Q -71.21702120018502 256.3812763206661 0 213.65106360055506"/></g><g transform="rotate(180)"><path d="M 0 213.65106360055506 Q 71.21702120018502 256.3812763206661 0 320.4765954008326 Q -71.21702120018502 256.3812763206661 0 213.65106360055506"/></g><g transform="rotate(210)"><path d="M 0 213.65106360055506 Q 71.21702120018502 256.3812763206661 0 320.4765954008326 Q -71.21702120018502 256.3812763206661 0 213.65106360055506"/></g><g transform="rotate(240)"><path d="M 0 213.65106360055506 Q 71.21702120018502 256.3812763206661 0 320.4765954008326 Q -71.21702120018502 256.3812763206661 0 213.65106360055506"/></g><g transform="rotate(270)"><path d="M 0 213.65106360055506 Q 71.21702120018502 256.3812763206661 0 320.4765954008326 Q -71.21702120018502 256.3812763206661 0 213.65106360055506"/></g><g transform="rotate(300)"><path d="M 0 213.65106360055506 Q 71.21702120018502 256.3812763206661 0 320.4765954008326 Q -71.21702120018502 256.3812763206661 0 213.65106360055506"/></g><g transform="rotate(330)"><path d="M 0 213.65106360055506 Q 71.21702120018502 256.3812763206661 0 320.4765954008326 Q -71.21702120018502 256.3812763206661 0 213.65106360055506"/></g><g transform="rotate(0)"><path d="M 0 245.37581162527204 L 0 318.98855511285365"/></g><g transform="rotate(30)"><path d="M 0 245.37581162527204 L 0 318.98855511285365"/></g><g transform="rotate(60)"><path d="M 0 245.37581162527204 L 0 318.98855511285365"/></g><g transform="rotate(90)"><path d="M 0 245.37581162527204 L 0 318.98855511285365"/></g><g transform="rotate(120)"><path d="M 0 245.37581162527204 L 0 318.98855511285365"/></g><g transform="rotate(150)"><path d="M 0 245.37581162527204 L 0 318.98855511285365"/></g><g transform="rotate(180)"><path d="M 0 245.37581162527204 L 0 318.98855511285365"/></g><g transform="rotate(210)"><path d="M 0 245.37581162527204 L 0 318.98855511285365"/></g><g transform="rotate(240)"><path d="M 0 245.37581162527204 L 0 318.98855511285365"/></g><g transform="rotate(270)"><path d="M 0 245.37581162527204 L 0 318.98855511285365"/></g><g transform="rotate(300)"><path d="M 0 245.37581162527204 L 0 318.98855511285365"/></g><g transform="rotate(330)"><path d="M 0 245.37581162527204 L 0 318.98855511285365"/></g><g transform="rotate(0)"><path d="M -73.64103390602395 294.5641356240958 Q 0 353.47696274891496 73.64103390602395 294.5641356240958"/></g><g transform="rotate(30)"><path d="M -73.64103390602395 294.5641356240958 Q 0 353.47696274891496 73.64103390602395 294.5641356240958"/></g><g transform="rotate(60)"><path d="M -73.64103390602395 294.5641356240958 Q 0 353.47696274891496 73.64103390602395 294.5641356240958"/></g><g transform="rotate(90)"><path d="M -73.64103390602395 294.5641356240958 Q 0 353.47696274891496 73.64103390602395 294.5641356240958"/></g><g transform="rotate(120)"><path d="M -73.64103390602395 294.5641356240958 Q 0 353.47696274891496 73.64103390602395 294.5641356240958"/></g><g transform="rotate(150)"><path d="M -73.64103390602395 294.5641356240958 Q 0 353.47696274891496 73.64103390602395 294.5641356240958"/></g><g transform="rotate(180)"><path d="M -73.64103390602395 294.5641356240958 Q 0 353.47696274891496 73.64103390602395 294.5641356240958"/></g><g transform="rotate(210)"><path d="M -73.64103390602395 294.5641356240958 Q 0 353.47696274891496 73.64103390602395 294.5641356240958"/></g><g transform="rotate(240)"><path d="M -73.64103390602395 294.5641356240958 Q 0 353.47696274891496 73.64103390602395 294.5641356240958"/></g><g transform="rotate(270)"><path d="M -73.64103390602395 294.5641356240958 Q 0 353.47696274891496 73.64103390602395 294.5641356240958"/></g><g transform="rotate(300)"><path d="M -73.64103390602395 294.5641356240958 Q 0 353.47696274891496 73.64103390602395 294.5641356240958"/></g><g transform="rotate(330)"><path d="M -73.64103390602395 294.5641356240958 Q 0 353.47696274891496 73.64103390602395 294.5641356240958"/></g><g transform="rotate(0)"><path d="M -81.0575822275132 324.2303289100528 Q 0 389.07639469206333 81.0575822275132 324.2303289100528"/></g><g transform="rotate(30)"><path d="M -81.0575822275132 324.2303289100528 Q 0 389.07639469206333 81.0575822275132 324.2303289100528"/></g><g transform="rotate(60)"><path d="M -81.0575822275132 324.2303289100528 Q 0 389.07639469206333 81.0575822275132 324.2303289100528"/></g><g transform="rotate(90)"><path d="M -81.0575822275132 324.2303289100528 Q 0 389.07639469206333 81.0575822275132 324.2303289100528"/></g><g transform="rotate(120)"><path d="M -81.0575822275132 324.2303289100528 Q 0 389.07639469206333 81.0575822275132 324.2303289100528"/></g><g transform="rotate(150)"><path d="M -81.0575822275132 324.2303289100528 Q 0 389.07639469206333 81.0575822275132 324.2303289100528"/></g><g transform="rotate(180)"><path d="M -81.0575822275132 324.2303289100528 Q 0 389.07639469206333 81.0575822275132 324.2303289100528"/></g><g transform="rotate(210)"><path d="M -81.0575822275132 324.2303289100528 Q 0 389.07639469206333 81.0575822275132 324.2303289100528"/></g><g transform="rotate(240)"><path d="M -81.0575822275132 324.2303289100528 Q 0 389.07639469206333 81.0575822275132 324.2303289100528"/></g><g transform="rotate(270)"><path d="M -81.0575822275132 324.2303289100528 Q 0 389.07639469206333 81.0575822275132 324.2303289100528"/></g><g transform="rotate(300)"><path d="M -81.0575822275132 324.2303289100528 Q 0 389.07639469206333 81.0575822275132 324.2303289100528"/></g><g transform="rotate(330)"><path d="M -81.0575822275132 324.2303289100528 Q 0 389.07639469206333 81.0575822275132 324.2303289100528"/></g></g></svg>