<svg xmlns="http://www.w3.org/2000/svg" viewBox="0 0 800 800" width="800" height="800">
    <rect width="100%" height="100%" fill="white"/>
    <g transform="translate(400, 400)" fill="none" stroke="black" stroke-width="4" stroke-linecap="round" stroke-linejoin="round"><g transform="rotate(0)"><path d="M 0 40.311929704621434 L 0 52.405508616007864"/></g><g transform="rotate(20)"><path d="M 0 40.311929704621434 L 0 52.405508616007864"/></g><g transform="rotate(40)"><path d="M 0 40.311929704621434 L 0 52.405508616007864"/></g><g transform="rotate(60)"><path d="M 0 40.311929704621434 L 0 52.405508616007864"/></g><g transform="rotate(80)"><path d="M 0 40.311929704621434 L 0 52.405508616007864"/></g><g transform="rotate(100)"><path d="M 0 40.311929704621434 L 0 52.405508616007864"/></g><g transform="rotate(120)"><path d="M 0 40.311929704621434 L 0 52.405508616007864"/></g><g transform="rotate(140)"><path d="M 0 40.311929704621434 L 0 52.405508616007864"/></g><g transform="rotate(160)"><path d="M 0 40.311929704621434 L 0 52.405508616007864"/></g><g transform="rotate(180)"><path d="M 0 40.311929704621434 L 0 52.405508616007864"/></g><g transform="rotate(200)"><path d="M 0 40.311929704621434 L 0 52.405508616007864"/></g><g transform="rotate(220)"><path d="M 0 40.311929704621434 L 0 52.405508616007864"/></g><g transform="rotate(240)"><path d="M 0 40.311929704621434 L 0 52.405508616007864"/></g><g transform="rotate(260)"><path d="M 0 40.311929704621434 L 0 52.405508616007864"/></g><g transform="rotate(280)"><path d="M 0 40.311929704621434 L 0 52.405508616007864"/></g><g transform="rotate(300)"><path d="M 0 40.311929704621434 L 0 52.405508616007864"/></g><g transform="rotate(320)"><path d="M 0 40.311929704621434 L 0 52.405508616007864"/></g><g transform="rotate(340)"><path d="M 0 40.311929704621434 L 0 52.405508616007864"/></g><g transform="rotate(0)"><path d="M 0 88.5814474336803 L 0 115.15588166378438"/></g><g transform="rotate(20)"><path d="M 0 88.5814474336803 L 0 115.15588166378438"/></g><g transform="rotate(40)"><path d="M 0 88.5814474336803 L 0 115.15588166378438"/></g><g transform="rotate(60)"><path d="M 0 88.5814474336803 L 0 115.15588166378438"/></g><g transform="rotate(80)"><path d="M 0 88.5814474336803 L 0 115.15588166378438"/></g><g transform="rotate(100)"><path d="M 0 88.5814474336803 L 0 115.15588166378438"/></g><g transform="rotate(120)"><path d="M 0 88.5814474336803 L 0 115.15588166378438"/></g><g transform="rotate(140)"><path d="M 0 88.5814474336803 L 0 115.15588166378438"/></g><g transform="rotate(160)"><path d="M 0 88.5814474336803 L 0 115.15588166378438"/></g><g transform="rotate(180)"><path d="M 0 88.5814474336803 L 0 115.15588166378438"/></g><g transform="rotate(200)"><path d="M 0 88.5814474336803 L 0 115.15588166378438"/></g><g transform="rotate(220)"><path d="M 0 88.5814474336803 L 0 115.15588166378438"/></g><g transform="rotate(240)"><path d="M 0 88.5814474336803 L 0 115.15588166378438"/></g><g transform="rotate(260)"><path d="M 0 88.5814474336803 L 0 115.15588166378438"/></g><g transform="rotate(280)"><path d="M 0 88.5814474336803 L 0 115.15588166378438"/></g><g transform="rotate(300)"><path d="M 0 88.5814474336803 L 0 115.15588166378438"/></g><g transform="rotate(320)"><path d="M 0 88.5814474336803 L 0 115.15588166378438"/></g><g transform="rotate(340)"><path d="M 0 88.5814474336803 L 0 115.15588166378438"/></g><g transform="rotate(0)"><path d="M -32.69579453160986 130.78317812643945 Q 0 156.93981375172734 32.69579453160986 130.78317812643945"/></g><g transform="rotate(20)"><path d="M -32.69579453160986 130.78317812643945 Q 0 156.93981375172734 32.69579453160986 130.78317812643945"/></g><g transform="rotate(40)"><path d="M -32.69579453160986 130.78317812643945 Q 0 156.93981375172734 32.69579453160986 130.78317812643945"/></g><g transform="rotate(60)"><path d="M -32.69579453160986 130.78317812643945 Q 0 156.93981375172734 32.69579453160986 130.78317812643945"/></g><g transform="rotate(80)"><path d="M -32.69579453160986 130.78317812643945 Q 0 156.93981375172734 32.69579453160986 130.78317812643945"/></g><g transform="rotate(100)"><path d="M -32.69579453160986 130.78317812643945 Q 0 156.93981375172734 32.69579453160986 130.78317812643945"/></g><g transform="rotate(120)"><path d="M -32.69579453160986 130.78317812643945 Q 0 156.93981375172734 32.69579453160986 130.78317812643945"/></g><g transform="rotate(140)"><path d="M -32.69579453160986 130.78317812643945 Q 0 156.93981375172734 32.69579453160986 130.78317812643945"/></g><g transform="rotate(160)"><path d="M -32.69579453160986 130.78317812643945 Q 0 156.93981375172734 32.69579453160986 130.78317812643945"/></g><g transform="rotate(180)"><path d="M -32.69579453160986 130.78317812643945 Q 0 156.93981375172734 32.69579453160986 130.78317812643945"/></g><g transform="rotate(200)"><path d="M -32.69579453160986 130.78317812643945 Q 0 156.93981375172734 32.69579453160986 130.78317812643945"/></g><g transform="rotate(220)"><path d="M -32.69579453160986 130.78317812643945 Q 0 156.93981375172734 32.69579453160986 130.78317812643945"/></g><g transform="rotate(240)"><path d="M -32.69579453160986 130.78317812643945 Q 0 156.93981375172734 32.69579453160986 130.78317812643945"/></g><g transform="rotate(260)"><path d="M -32.69579453160986 130.78317812643945 Q 0 156.93981375172734 32.69579453160986 130.78317812643945"/></g><g transform="rotate(280)"><path d="M -32.69579453160986 130.78317812643945 Q 0 156.93981375172734 32.69579453160986 130.78317812643945"/></g><g transform="rotate(300)"><path d="M -32.69579453160986 130.78317812643945 Q 0 156.93981375172734 32.69579453160986 130.78317812643945"/></g><g transform="rotate(320)"><path d="M -32.69579453160986 130.78317812643945 Q 0 156.93981375172734 32.69579453160986 130.78317812643945"/></g><g transform="rotate(340)"><path d="M -32.69579453160986 130.78317812643945 Q 0 156.93981375172734 32.69579453160986 130.78317812643945"/></g><g transform="rotate(0)"><path d="M 0 167.25080825388432 L 0 217.4260507300496"/></g><g transform="rotate(20)"><path d="M 0 167.25080825388432 L 0 217.4260507300496"/></g><g transform="rotate(40)"><path d="M 0 167.25080825388432 L 0 217.4260507300496"/></g><g transform="rotate(60)"><path d="M 0 167.25080825388432 L 0 217.4260507300496"/></g><g transform="rotate(80)"><path d="M 0 167.25080825388432 L 0 217.4260507300496"/></g><g transform="rotate(100)"><path d="M 0 167.25080825388432 L 0 217.4260507300496"/></g><g transform="rotate(120)"><path d="M 0 167.25080825388432 L 0 217.4260507300496"/></g><g transform="rotate(140)"><path d="M 0 167.25080825388432 L 0 217.4260507300496"/></g><g transform="rotate(160)"><path d="M 0 167.25080825388432 L 0 217.4260507300496"/></g><g transform="rotate(180)"><path d="M 0 167.25080825388432 L 0 217.4260507300496"/></g><g transform="rotate(200)"><path d="M 0 167.25080825388432 L 0 217.4260507300496"/></g><g transform="rotate(220)"><path d="M 0 167.25080825388432 L 0 217.4260507300496"/></g><g transform="rotate(240)"><path d="M 0 167.25080825388432 L 0 217.4260507300496"/></g><g transform="rotate(260)"><path d="M 0 167.25080825388432 L 0 217.4260507300496"/></g><g transform="rotate(280)"><path d="M 0 167.25080825388432 L 0 217.4260507300496"/></g><g transform="rotate(300)"><path d="M 0 167.25080825388432 L 0 217.4260507300496"/></g><g transform="rotate(320)"><path d="M 0 167.25080825388432 L 0 217.4260507300496"/></g><g transform="rotate(340)"><path d="M 0 167.25080825388432 L 0 217.4260507300496"/></g><g transform="rotate(0)"><path d="M 0 218.04861606098711 L 0 283.46320087928325"/></g><g transform="rotate(20)"><path d="M 0 218.04861606098711 L 0 283.46320087928325"/></g><g transform="rotate(40)"><path d="M 0 218.04861606098711 L 0 283.46320087928325"/></g><g transform="rotate(60)"><path d="M 0 218.04861606098711 L 0 283.46320087928325"/></g><g transform="rotate(80)"><path d="M 0 218.04861606098711 L 0 283.46320087928325"/></g><g transform="rotate(100)"><path d="M 0 218.04861606098711 L 0 283.46320087928325"/></g><g transform="rotate(120)"><path d="M 0 218.04861606098711 L 0 283.46320087928325"/></g><g transform="rotate(140)"><path d="M 0 218.04861606098711 L 0 283.46320087928325"/></g><g transform="rotate(160)"><path d="M 0 218.04861606098711 L 0 283.46320087928325"/></g><g transform="rotate(180)"><path d="M 0 218.04861606098711 L 0 283.46320087928325"/></g><g transform="rotate(200)"><path d="M 0 218.04861606098711 L 0 283.46320087928325"/></g><g transform="rotate(220)"><path d="M 0 218.04861606098711 L 0 283.46320087928325"/></g><g transform="rotate(240)"><path d="M 0 218.04861606098711 L 0 283.46320087928325"/></g><g transform="rotate(260)"><path d="M 0 218.04861606098711 L 0 283.46320087928325"/></g><g transform="rotate(280)"><path d="M 0 218.04861606098711 L 0 283.46320087928325"/></g><g transform="rotate(300)"><path d="M 0 218.04861606098711 L 0 283.46320087928325"/></g><g transform="rotate(320)"><path d="M 0 218.04861606098711 L 0 283.46320087928325"/></g><g transform="rotate(340)"><path d="M 0 218.04861606098711 L 0 283.46320087928325"/></g><g transform="rotate(0)"><path d="M 0 240.10835053399205 L 0 312.14085569418967"/></g><g transform="rotate(20)"><path d="M 0 240.10835053399205 L 0 312.14085569418967"/></g><g transform="rotate(40)"><path d="M 0 240.10835053399205 L 0 312.14085569418967"/></g><g transform="rotate(60)"><path d="M 0 240.10835053399205 L 0 312.14085569418967"/></g><g transform="rotate(80)"><path d="M 0 240.10835053399205 L 0 312.14085569418967"/></g><g transform="rotate(100)"><path d="M 0 240.10835053399205 L 0 312.14085569418967"/></g><g transform="rotate(120)"><path d="M 0 240.10835053399205 L 0 312.14085569418967"/></g><g transform="rotate(140)"><path d="M 0 240.10835053399205 L 0 312.14085569418967"/></g><g transform="rotate(160)"><path d="M 0 240.10835053399205 L 0 312.14085569418967"/></g><g transform="rotate(180)"><path d="M 0 240.10835053399205 L 0 312.14085569418967"/></g><g transform="rotate(200)"><path d="M 0 240.10835053399205 L 0 312.14085569418967"/></g><g transform="rotate(220)"><path d="M 0 240.10835053399205 L 0 312.14085569418967"/></g><g transform="rotate(240)"><path d="M 0 240.10835053399205 L 0 312.14085569418967"/></g><g transform="rotate(260)"><path d="M 0 240.10835053399205 L 0 312.14085569418967"/></g><g transform="rotate(280)"><path d="M 0 240.10835053399205 L 0 312.14085569418967"/></g><g transform="rotate(300)"><path d="M 0 240.10835053399205 L 0 312.14085569418967"/></g><g transform="rotate(320)"><path d="M 0 240.10835053399205 L 0 312.14085569418967"/></g><g transform="rotate(340)"><path d="M 0 240.10835053399205 L 0 312.14085569418967"/></g><g transform="rotate(0)"><circle cx="0" cy="291.1352143716067" r="72.78380359290168"/></g><g transform="rotate(20)"><circle cx="0" cy="291.1352143716067" r="72.78380359290168"/></g><g transform="rotate(40)"><circle cx="0" cy="291.1352143716067" r="72.78380359290168"/></g><g transform="rotate(60)"><circle cx="0" cy="291.1352143716067" r="72.78380359290168"/></g><g transform="rotate(80)"><circle cx="0" cy="291.1352143716067" r="72.78380359290168"/></g><g transform="rotate(100)"><circle cx="0" cy="291.1352143716067" r="72.78380359290168"/></g><g transform="rotate(120)"><circle cx="0" cy="291.1352143716067" r="72.78380359290168"/></g><g transform="rotate(140)"><circle cx="0" cy="291.1352143716067" r="72.78380359290168"/></g><g transform="rotate(160)"><circle cx="0" cy="291.1352143716067" r="72.78380359290168"/></g><g transform="rotate(180)"><circle cx="0" cy="291.1352143716067" r="72.78380359290168"/></g><g transform="rotate(200)"><circle cx="0" cy="291.1352143716067" r="72.78380359290168"/></g><g transform="rotate(220)"><circle cx="0" cy="291.1352143716067" r="72.78380359290168"/></g><g transform="rotate(240)"><circle cx="0" cy="291.1352143716067" r="72.78380359290168"/></g><g transform="rotate(260)"><circle cx="0" cy="291.1352143716067" r="72.78380359290168"/></g><g transform="rotate(280)"><circle cx="0" cy="291.1352143716067" r="72.78380359290168"/></g><g transform="rotate(300)"><circle cx="0" cy="291.1352143716067" r="72.78380359290168"/></g><g transform="rotate(320)"><circle cx="0" cy="291.1352143716067" r="72.78380359290168"/></g><g transform="rotate(340)"><circle cx="0" cy="291.1352143716067" r="72.78380359290168"/></g><g transform="rotate(0)"><path d="M 0 323.4299236163497 L 0 420.4589007012546"/></g><g transform="rotate(20)"><path d="M 0 323.4299236163497 L 0 420.4589007012546"/></g><g transform="rotate(40)"><path d="M 0 323.4299236163497 L 0 420.4589007012546"/></g><g transform="rotate(60)"><path d="M 0 323.4299236163497 L 0 420.4589007012546"/></g><g transform="rotate(80)"><path d="M 0 323.4299236163497 L 0 420.4589007012546"/></g><g transform="rotate(100)"><path d="M 0 323.4299236163497 L 0 420.4589007012546"/></g><g transform="rotate(120)"><path d="M 0 323.4299236163497 L 0 420.4589007012546"/></g><g transform="rotate(140)"><path d="M 0 323.4299236163497 L 0 420.4589007012546"/></g><g transform="rotate(160)"><path d="M 0 323.4299236163497 L 0 420.4589007012546"/></g><g transform="rotate(180)"><path d="M 0 323.4299236163497 L 0 420.4589007012546"/></g><g transform="rotate(200)"><path d="M 0 323.4299236163497 L 0 420.4589007012546"/></g><g transform="rotate(220)"><path d="M 0 323.4299236163497 L 0 420.4589007012546"/></g><g transform="rotate(240)"><path d="M 0 323.4299236163497 L 0 420.4589007012546"/></g><g transform="rotate(260)"><path d="M 0 323.4299236163497 L 0 420.4589007012546"/></g><g transform="rotate(280)"><path d="M 0 323.4299236163497 L 0 420.4589007012546"/></g><g transform="rotate(300)"><path d="M 0 323.4299236163497 L 0 420.4589007012546"/></g><g transform="rotate(320)"><path d="M 0 323.4299236163497 L 0 420.4589007012546"/></g><g transform="rotate(340)"><path d="M 0 323.4299236163497 L 0 420.4589007012546"/></g></g></svg>