<svg xmlns="http://www.w3.org/2000/svg" viewBox="0 0 800 800" width="800" height="800">
    <rect width="100%" height="100%" fill="white"/>
    <g transform="translate(400, 400)" fill="none" stroke="black" stroke-width="4" stroke-linecap="round" stroke-linejoin="round"><g transform="rotate(0)"><path d="M 0 47.94972625095397 Q 15.983242083651325 57.53967150114477 0 71.92458937643096 Q -15.983242083651325 57.53967150114477 0 47.94972625095397"/></g><g transform="rotate(60)"><path d="M 0 47.94972625095397 Q 15.983242083651325 57.53967150114477 0 71.92458937643096 Q -15.983242083651325 57.53967150114477 0 47.94972625095397"/></g><g transform="rotate(120)"><path d="M 0 47.94972625095397 Q 15.983242083651325 57.53967150114477 0 71.92458937643096 Q -15.983242083651325 57.53967150114477 0 47.94972625095397"/></g><g transform="rotate(180)"><path d="M 0 47.94972625095397 Q 15.983242083651325 57.53967150114477 0 71.92458937643096 Q -15.983242083651325 57.53967150114477 0 47.94972625095397"/></g><g transform="rotate(240)"><path d="M 0 47.94972625095397 Q 15.983242083651325 57.53967150114477 0 71.92458937643096 Q -15.983242083651325 57.53967150114477 0 47.94972625095397"/></g><g transform="rotate(300)"><path d="M 0 47.94972625095397 Q 15.983242083651325 57.53967150114477 0 71.92458937643096 Q -15.983242083651325 57.53967150114477 0 47.94972625095397"/></g><g transform="rotate(0)"><path d="M 0 95.98623314406723 L 23.996558286016807 115.18347977288067 L 0 134.38072640169412 L -23.996558286016807 115.18347977288067 Z"/></g><g transform="rotate(60)"><path d="M 0 95.98623314406723 L 23.996558286016807 115.18347977288067 L 0 134.38072640169412 L -23.996558286016807 115.18347977288067 Z"/></g><g transform="rotate(120)"><path d="M 0 95.98623314406723 L 23.996558286016807 115.18347977288067 L 0 134.38072640169412 L -23.996558286016807 115.18347977288067 Z"/></g><g transform="rotate(180)"><path d="M 0 95.98623314406723 L 23.996558286016807 115.18347977288067 L 0 134.38072640169412 L -23.996558286016807 115.18347977288067 Z"/></g><g transform="rotate(240)"><path d="M 0 95.98623314406723 L 23.996558286016807 115.18347977288067 L 0 134.38072640169412 L -23.996558286016807 115.18347977288067 Z"/></g><g transform="rotate(300)"><path d="M 0 95.98623314406723 L 23.996558286016807 115.18347977288067 L 0 134.38072640169412 L -23.996558286016807 115.18347977288067 Z"/></g><g transform="rotate(0)"><path d="M 0 135.56683062110096 Q 45.188943540366985 162.68019674532115 0 203.35024593165144 Q -45.188943540366985 162.68019674532115 0 135.56683062110096"/></g><g transform="rotate(60)"><path d="M 0 135.56683062110096 Q 45.188943540366985 162.68019674532115 0 203.35024593165144 Q -45.188943540366985 162.68019674532115 0 135.56683062110096"/></g><g transform="rotate(120)"><path d="M 0 135.56683062110096 Q 45.188943540366985 162.68019674532115 0 203.35024593165144 Q -45.188943540366985 162.68019674532115 0 135.56683062110096"/></g><g transform="rotate(180)"><path d="M 0 135.56683062110096 Q 45.188943540366985 162.68019674532115 0 203.35024593165144 Q -45.188943540366985 162.68019674532115 0 135.56683062110096"/></g><g transform="rotate(240)"><path d="M 0 135.56683062110096 Q 45.188943540366985 162.68019674532115 0 203.35024593165144 Q -45.188943540366985 162.68019674532115 0 135.56683062110096"/></g><g transform="rotate(300)"><path d="M 0 135.56683062110096 Q 45.188943540366985 162.68019674532115 0 203.35024593165144 Q -45.188943540366985 162.68019674532115 0 135.56683062110096"/></g><g transform="rotate(0)"><path d="M 0 178.4186067758128 L 0 231.94418880855665"/></g><g transform="rotate(60)"><path d="M 0 178.4186067758128 L 0 231.94418880855665"/></g><g transform="rotate(120)"><path d="M 0 178.4186067758128 L 0 231.94418880855665"/></g><g transform="rotate(180)"><path d="M 0 178.4186067758128 L 0 231.94418880855665"/></g><g transform="rotate(240)"><path d="M 0 178.4186067758128 L 0 231.94418880855665"/></g><g transform="rotate(300)"><path d="M 0 178.4186067758128 L 0 231.94418880855665"/></g><g transform="rotate(0)"><path d="M 0 213.73573363292962 L 0 277.8564537228085"/></g><g transform="rotate(60)"><path d="M 0 213.73573363292962 L 0 277.8564537228085"/></g><g transform="rotate(120)"><path d="M 0 213.73573363292962 L 0 277.8564537228085"/></g><g transform="rotate(180)"><path d="M 0 213.73573363292962 L 0 277.8564537228085"/></g><g transform="rotate(240)"><path d="M 0 213.73573363292962 L 0 277.8564537228085"/></g><g transform="rotate(300)"><path d="M 0 213.73573363292962 L 0 277.8564537228085"/></g><g transform="rotate(0)"><path d="M 0 244.91030973847955 L 0 318.3834026600234"/></g><g transform="rotate(60)"><path d="M 0 244.91030973847955 L 0 318.3834026600234"/></g><g transform="rotate(120)"><path d="M 0 244.91030973847955 L 0 318.3834026600234"/></g><g transform="rotate(180)"><path d="M 0 244.91030973847955 L 0 318.3834026600234"/></g><g transform="rotate(240)"><path d="M 0 244.91030973847955 L 0 318.3834026600234"/></g><g transform="rotate(300)"><path d="M 0 244.91030973847955 L 0 318.3834026600234"/></g><g transform="rotate(0)"><path d="M -70.46236135647632 281.8494454259053 Q 0 338.21933451108634 70.46236135647632 281.8494454259053"/></g><g transform="rotate(60)"><path d="M -70.46236135647632 281.8494454259053 Q 0 338.21933451108634 70.46236135647632 281.8494454259053"/></g><g transform="rotate(120)"><path d="M -70.46236135647632 281.8494454259053 Q 0 338.21933451108634 70.46236135647632 281.8494454259053"/></g><g transform="rotate(180)"><path d="M -70.46236135647632 281.8494454259053 Q 0 338.21933451108634 70.46236135647632 281.8494454259053"/></g><g transform="rotate(240)"><path d="M -70.46236135647632 281.8494454259053 Q 0 338.21933451108634 70.46236135647632 281.8494454259053"/></g><g transform="rotate(300)"><path d="M -70.46236135647632 281.8494454259053 Q 0 338.21933451108634 70.46236135647632 281.8494454259053"/></g><g transform="rotate(0)"><path d="M -83.63871507230215 334.5548602892086 Q 0 401.4658323470503 83.63871507230215 334.5548602892086"/></g><g transform="rotate(60)"><path d="M -83.63871507230215 334.5548602892086 Q 0 401.4658323470503 83.63871507230215 334.5548602892086"/></g><g transform="rotate(120)"><path d="M -83.63871507230215 334.5548602892086 Q 0 401.4658323470503 83.63871507230215 334.5548602892086"/></g><g transform="rotate(180)"><path d="M -83.63871507230215 334.5548602892086 Q 0 401.4658323470503 83.63871507230215 334.5548602892086"/></g><g transform="rotate(240)"><path d="M -83.63871507230215 334.5548602892086 Q 0 401.4658323470503 83.63871507230215 334.5548602892086"/></g><g transform="rotate(300)"><path d="M -83.63871507230215 334.5548602892086 Q 0 401.4658323470503 83.63871507230215 334.5548602892086"/></g></g></svg>