<svg xmlns="http://www.w3.org/2000/svg" viewBox="0 0 800 800" width="800" height="800">
    <rect width="100%" height="100%" fill="white"/>
    <g transform="translate(400, 400)" fill="none" stroke="black" stroke-width="4" stroke-linecap="round" stroke-linejoin="round"><g transform="rotate(0)"><circle cx="0" cy="50.05996348802" r="12.514990872005"/></g><g transform="rotate(45)"><circle cx="0" cy="50.05996348802" r="12.514990872005"/></g><g transform="rotate(90)"><circle cx="0" cy="50.05996348802" r="12.514990872005"/></g><g transform="rotate(135)"><circle cx="0" cy="50.05996348802" r="12.514990872005"/></g><g transform="rotate(180)"><circle cx="0" cy="50.05996348802" r="12.514990872005"/></g><g transform="rotate(225)"><circle cx="0" cy="50.05996348802" r="12.514990872005"/></g><g transform="rotate(270)"><circle cx="0" cy="50.05996348802" r="12.514990872005"/></g><g transform="rotate(315)"><circle cx="0" cy="50.05996348802" r="12.514990872005"/></g><g transform="rotate(0)"><path d="M 0 99.6243474266625 L 24.906086856665624 119.54921691199499 L 0 139.47408639732748 L -24.906086856665624 119.54921691199499 Z"/></g><g transform="rotate(45)"><path d="M 0 99.6243474266625 L 24.906086856665624 119.54921691199499 L 0 139.47408639732748 L -24.906086856665624 119.54921691199499 Z"/></g><g transform="rotate(90)"><path d="M 0 99.6243474266625 L 24.906086856665624 119.54921691199499 L 0 139.47408639732748 L -24.906086856665624 119.54921691199499 Z"/></g><g transform="rotate(135)"><path d="M 0 99.6243474266625 L 24.906086856665624 119.54921691199499 L 0 139.47408639732748 L -24.906086856665624 119.54921691199499 Z"/></g><g transform="rotate(180)"><path d="M 0 99.6243474266625 L 24.906086856665624 119.54921691199499 L 0 139.47408639732748 L -24.906086856665624 119.54921691199499 Z"/></g><g transform="rotate(225)"><path d="M 0 99.6243474266625 L 24.906086856665624 119.54921691199499 L 0 139.47408639732748 L -24.906086856665624 119.54921691199499 Z"/></g><g transform="rotate(270)"><path d="M 0 99.6243474266625 L 24.906086856665624 119.54921691199499 L 0 139.47408639732748 L -24.906086856665624 119.54921691199499 Z"/></g><g transform="rotate(315)"><path d="M 0 99.6243474266625 L 24.906086856665624 119.54921691199499 L 0 139.47408639732748 L -24.906086856665624 119.54921691199499 Z"/></g><g transform="rotate(0)"><path d="M 0 134.82232404540161 L 33.705581011350404 161.78678885448193 L 0 188.75125366356224 L -33.705581011350404 161.78678885448193 Z"/></g><g transform="rotate(45)"><path d="M 0 134.82232404540161 L 33.705581011350404 161.78678885448193 L 0 188.75125366356224 L -33.705581011350404 161.78678885448193 Z"/></g><g transform="rotate(90)"><path d="M 0 134.82232404540161 L 33.705581011350404 161.78678885448193 L 0 188.75125366356224 L -33.705581011350404 161.78678885448193 Z"/></g><g transform="rotate(135)"><path d="M 0 134.82232404540161 L 33.705581011350404 161.78678885448193 L 0 188.75125366356224 L -33.705581011350404 161.78678885448193 Z"/></g><g transform="rotate(180)"><path d="M 0 134.82232404540161 L 33.705581011350404 161.78678885448193 L 0 188.75125366356224 L -33.705581011350404 161.78678885448193 Z"/></g><g transform="rotate(225)"><path d="M 0 134.82232404540161 L 33.705581011350404 161.78678885448193 L 0 188.75125366356224 L -33.705581011350404 161.78678885448193 Z"/></g><g transform="rotate(270)"><path d="M 0 134.82232404540161 L 33.705581011350404 161.78678885448193 L 0 188.75125366356224 L -33.705581011350404 161.78678885448193 Z"/></g><g transform="rotate(315)"><path d="M 0 134.82232404540161 L 33.705581011350404 161.78678885448193 L 0 188.75125366356224 L -33.705581011350404 161.78678885448193 Z"/></g><g transform="rotate(0)"><path d="M 0 188.49570273621273 Q 62.831900912070914 226.19484328345527 0 282.7435541043191 Q -62.831900912070914 226.19484328345527 0 188.49570273621273"/></g><g transform="rotate(45)"><path d="M 0 188.49570273621273 Q 62.831900912070914 226.19484328345527 0 282.7435541043191 Q -62.831900912070914 226.19484328345527 0 188.49570273621273"/></g><g transform="rotate(90)"><path d="M 0 188.49570273621273 Q 62.831900912070914 226.19484328345527 0 282.7435541043191 Q -62.831900912070914 226.19484328345527 0 188.49570273621273"/></g><g transform="rotate(135)"><path d="M 0 188.49570273621273 Q 62.831900912070914 226.19484328345527 0 282.7435541043191 Q -62.831900912070914 226.19484328345527 0 188.49570273621273"/></g><g transform="rotate(180)"><path d="M 0 188.49570273621273 Q 62.831900912070914 226.19484328345527 0 282.7435541043191 Q -62.831900912070914 226.19484328345527 0 188.49570273621273"/></g><g transform="rotate(225)"><path d="M 0 188.49570273621273 Q 62.831900912070914 226.19484328345527 0 282.7435541043191 Q -62.831900912070914 226.19484328345527 0 188.49570273621273"/></g><g transform="rotate(270)"><path d="M 0 188.49570273621273 Q 62.831900912070914 226.19484328345527 0 282.7435541043191 Q -62.831900912070914 226.19484328345527 0 188.49570273621273"/></g><g transform="rotate(315)"><path d="M 0 188.49570273621273 Q 62.831900912070914 226.19484328345527 0 282.7435541043191 Q -62.831900912070914 226.19484328345527 0 188.49570273621273"/></g><g transform="rotate(0)"><path d="M 0 237.1425705476265 L 0 308.28534171191444"/></g><g transform="rotate(45)"><path d="M 0 237.1425705476265 L 0 308.28534171191444"/></g><g transform="rotate(90)"><path d="M 0 237.1425705476265 L 0 308.28534171191444"/></g><g transform="rotate(135)"><path d="M 0 237.1425705476265 L 0 308.28534171191444"/></g><g transform="rotate(180)"><path d="M 0 237.1425705476265 L 0 308.28534171191444"/></g><g transform="rotate(225)"><path d="M 0 237.1425705476265 L 0 308.28534171191444"/></g><g transform="rotate(270)"><path d="M 0 237.1425705476265 L 0 308.28534171191444"/></g><g transform="rotate(315)"><path d="M 0 237.1425705476265 L 0 308.28534171191444"/></g><g transform="rotate(0)"><path d="M 0 285.3233056734981 Q 95.1077685578327 342.38796680819775 0 427.98495851024717 Q -95.1077685578327 342.38796680819775 0 285.3233056734981"/></g><g transform="rotate(45)"><path d="M 0 285.3233056734981 Q 95.1077685578327 342.38796680819775 0 427.98495851024717 Q -95.1077685578327 342.38796680819775 0 285.3233056734981"/></g><g transform="rotate(90)"><path d="M 0 285.3233056734981 Q 95.1077685578327 342.38796680819775 0 427.98495851024717 Q -95.1077685578327 342.38796680819775 0 285.3233056734981"/></g><g transform="rotate(135)"><path d="M 0 285.3233056734981 Q 95.1077685578327 342.38796680819775 0 427.98495851024717 Q -95.1077685578327 342.38796680819775 0 285.3233056734981"/></g><g transform="rotate(180)"><path d="M 0 285.3233056734981 Q 95.1077685578327 342.38796680819775 0 427.98495851024717 Q -95.1077685578327 342.38796680819775 0 285.3233056734981"/></g><g transform="rotate(225)"><path d="M 0 285.3233056734981 Q 95.1077685578327 342.38796680819775 0 427.98495851024717 Q -95.1077685578327 342.38796680819775 0 285.3233056734981"/></g><g transform="rotate(270)"><path d="M 0 285.3233056734981 Q 95.1077685578327 342.38796680819775 0 427.98495851024717 Q -95.1077685578327 342.38796680819775 0 285.3233056734981"/></g><g transform="rotate(315)"><path d="M 0 285.3233056734981 Q 95.1077685578327 342.38796680819775 0 427.98495851024717 Q -95.1077685578327 342.38796680819775 0 285.3233056734981"/></g><g transform="rotate(0)"><path d="M 0 320.70654455505843 L 0 416.91850792157595"/></g><g transform="rotate(45)"><path d="M 0 320.70654455505843 L 0 416.91850792157595"/></g><g transform="rotate(90)"><path d="M 0 320.70654455505843 L 0 416.91850792157595"/></g><g transform="rotate(135)"><path d="M 0 320.70654455505843 L 0 416.91850792157595"/></g><g transform="rotate(180)"><path d="M 0 320.70654455505843 L 0 416.91850792157595"/></g><g transform="rotate(225)"><path d="M 0 320.70654455505843 L 0 416.91850792157595"/></g><g transform="rotate(270)"><path d="M 0 320.70654455505843 L 0 416.91850792157595"/></g><g transform="rotate(315)"><path d="M 0 320.70654455505843 L 0 416.91850792157595"/></g></g></svg>