<svg xmlns="http://www.w3.org/2000/svg" viewBox="0 0 800 800" width="800" height="800">
    <rect width="100%" height="100%" fill="white"/>
    <g transform="translate(400, 400)" fill="none" stroke="black" stroke-width="4" stroke-linecap="round" stroke-linejoin="round"><g transform="rotate(0)"><path d="M -11.786643462255597 47.14657384902239 Q 0 56.575888618826866 11.786643462255597 47.14657384902239"/></g><g transform="rotate(45)"><path d="M -11.786643462255597 47.14657384902239 Q 0 56.575888618826866 11.786643462255597 47.14657384902239"/></g><g transform="rotate(90)"><path d="M -11.786643462255597 47.14657384902239 Q 0 56.575888618826866 11.786643462255597 47.14657384902239"/></g><g transform="rotate(135)"><path d="M -11.786643462255597 47.14657384902239 Q 0 56.575888618826866 11.786643462255597 47.14657384902239"/></g><g transform="rotate(180)"><path d="M -11.786643462255597 47.14657384902239 Q 0 56.575888618826866 11.786643462255597 47.14657384902239"/></g><g transform="rotate(225)"><path d="M -11.786643462255597 47.14657384902239 Q 0 56.575888618826866 11.786643462255597 47.14657384902239"/></g><g transform="rotate(270)"><path d="M -11.786643462255597 47.14657384902239 Q 0 56.575888618826866 11.786643462255597 47.14657384902239"/></g><g transform="rotate(315)"><path d="M -11.786643462255597 47.14657384902239 Q 0 56.575888618826866 11.786643462255597 47.14657384902239"/></g><g transform="rotate(0)"><path d="M 0 105.02903791454932 L 0 136.5377492889141"/></g><g transform="rotate(45)"><path d="M 0 105.02903791454932 L 0 136.5377492889141"/></g><g transform="rotate(90)"><path d="M 0 105.02903791454932 L 0 136.5377492889141"/></g><g transform="rotate(135)"><path d="M 0 105.02903791454932 L 0 136.5377492889141"/></g><g transform="rotate(180)"><path d="M 0 105.02903791454932 L 0 136.5377492889141"/></g><g transform="rotate(225)"><path d="M 0 105.02903791454932 L 0 136.5377492889141"/></g><g transform="rotate(270)"><path d="M 0 105.02903791454932 L 0 136.5377492889141"/></g><g transform="rotate(315)"><path d="M 0 105.02903791454932 L 0 136.5377492889141"/></g><g transform="rotate(0)"><path d="M 0 155.70946179951233 Q 51.90315393317078 186.8513541594148 0 233.5641926992685 Q -51.90315393317078 186.8513541594148 0 155.70946179951233"/></g><g transform="rotate(45)"><path d="M 0 155.70946179951233 Q 51.90315393317078 186.8513541594148 0 233.5641926992685 Q -51.90315393317078 186.8513541594148 0 155.70946179951233"/></g><g transform="rotate(90)"><path d="M 0 155.70946179951233 Q 51.90315393317078 186.8513541594148 0 233.5641926992685 Q -51.90315393317078 186.8513541594148 0 155.70946179951233"/></g><g transform="rotate(135)"><path d="M 0 155.70946179951233 Q 51.90315393317078 186.8513541594148 0 233.5641926992685 Q -51.90315393317078 186.8513541594148 0 155.70946179951233"/></g><g transform="rotate(180)"><path d="M 0 155.70946179951233 Q 51.90315393317078 186.8513541594148 0 233.5641926992685 Q -51.90315393317078 186.8513541594148 0 155.70946179951233"/></g><g transform="rotate(225)"><path d="M 0 155.70946179951233 Q 51.90315393317078 186.8513541594148 0 233.5641926992685 Q -51.90315393317078 186.8513541594148 0 155.70946179951233"/></g><g transform="rotate(270)"><path d="M 0 155.70946179951233 Q 51.90315393317078 186.8513541594148 0 233.5641926992685 Q -51.90315393317078 186.8513541594148 0 155.70946179951233"/></g><g transform="rotate(315)"><path d="M 0 155.70946179951233 Q 51.90315393317078 186.8513541594148 0 233.5641926992685 Q -51.90315393317078 186.8513541594148 0 155.70946179951233"/></g><g transform="rotate(0)"><path d="M 0 217.84945002757013 Q 72.61648334252338 261.41934003308415 0 326.7741750413552 Q -72.61648334252338 261.41934003308415 0 217.84945002757013"/></g><g transform="rotate(45)"><path d="M 0 217.84945002757013 Q 72.61648334252338 261.41934003308415 0 326.7741750413552 Q -72.61648334252338 261.41934003308415 0 217.84945002757013"/></g><g transform="rotate(90)"><path d="M 0 217.84945002757013 Q 72.61648334252338 261.41934003308415 0 326.7741750413552 Q -72.61648334252338 261.41934003308415 0 217.84945002757013"/></g><g transform="rotate(135)"><path d="M 0 217.84945002757013 Q 72.61648334252338 261.41934003308415 0 326.7741750413552 Q -72.61648334252338 261.41934003308415 0 217.84945002757013"/></g><g transform="rotate(180)"><path d="M 0 217.84945002757013 Q 72.61648334252338 261.41934003308415 0 326.7741750413552 Q -72.61648334252338 261.41934003308415 0 217.84945002757013"/></g><g transform="rotate(225)"><path d="M 0 217.84945002757013 Q 72.61648334252338 261.41934003308415 0 326.7741750413552 Q -72.61648334252338 261.41934003308415 0 217.84945002757013"/></g><g transform="rotate(270)"><path d="M 0 217.84945002757013 Q 72.61648334252338 261.41934003308415 0 326.7741750413552 Q -72.61648334252338 261.41934003308415 0 217.84945002757013"/></g><g transform="rotate(315)"><path d="M 0 217.84945002757013 Q 72.61648334252338 261.41934003308415 0 326.7741750413552 Q -72.61648334252338 261.41934003308415 0 217.84945002757013"/></g><g transform="rotate(0)"><path d="M 0 260.5574083079895 L 0 338.7246308003863"/></g><g transform="rotate(45)"><path d="M 0 260.5574083079895 L 0 338.7246308003863"/></g><g transform="rotate(90)"><path d="M 0 260.5574083079895 L 0 338.7246308003863"/></g><g transform="rotate(135)"><path d="M 0 260.5574083079895 L 0 338.7246308003863"/></g><g transform="rotate(180)"><path d="M 0 260.5574083079895 L 0 338.7246308003863"/></g><g transform="rotate(225)"><path d="M 0 260.5574083079895 L 0 338.7246308003863"/></g><g transform="rotate(270)"><path d="M 0 260.5574083079895 L 0 338.7246308003863"/></g><g transform="rotate(315)"><path d="M 0 260.5574083079895 L 0 338.7246308003863"/></g><g transform="rotate(0)"><path d="M 0 309.01266615527373 L 0 401.71646600185585"/></g><g transform="rotate(45)"><path d="M 0 309.01266615527373 L 0 401.71646600185585"/></g><g transform="rotate(90)"><path d="M 0 309.01266615527373 L 0 401.71646600185585"/></g><g transform="rotate(135)"><path d="M 0 309.01266615527373 L 0 401.71646600185585"/></g><g transform="rotate(180)"><path d="M 0 309.01266615527373 L 0 401.71646600185585"/></g><g transform="rotate(225)"><path d="M 0 309.01266615527373 L 0 401.71646600185585"/></g><g transform="rotate(270)"><path d="M 0 309.01266615527373 L 0 401.71646600185585"/></g><g transform="rotate(315)"><path d="M 0 309.01266615527373 L 0 401.71646600185585"/></g></g></svg>