<svg xmlns="http://www.w3.org/2000/svg" viewBox="0 0 800 800" width="800" height="800">
    <rect width="100%" height="100%" fill="white"/>
    <g transform="translate(400, 400)" fill="none" stroke="black" stroke-width="4" stroke-linecap="round" stroke-linejoin="round"><g transform="rotate(0)"><path d="M -14.802389333490282 59.20955733396113 Q 0 71.05146880075336 14.802389333490282 59.20955733396113"/></g><g transform="rotate(36)"><path d="M -14.802389333490282 59.20955733396113 Q 0 71.05146880075336 14.802389333490282 59.20955733396113"/></g><g transform="rotate(72)"><path d="M -14.802389333490282 59.20955733396113 Q 0 71.05146880075336 14.802389333490282 59.20955733396113"/></g><g transform="rotate(108)"><path d="M -14.802389333490282 59.20955733396113 Q 0 71.05146880075336 14.802389333490282 59.20955733396113"/></g><g transform="rotate(144)"><path d="M -14.802389333490282 59.20955733396113 Q 0 71.05146880075336 14.802389333490282 59.20955733396113"/></g><g transform="rotate(180)"><path d="M -14.802389333490282 59.20955733396113 Q 0 71.05146880075336 14.802389333490282 59.20955733396113"/></g><g transform="rotate(216)"><path d="M -14.802389333490282 59.20955733396113 Q 0 71.05146880075336 14.802389333490282 59.20955733396113"/></g><g transform="rotate(252)"><path d="M -14.802389333490282 59.20955733396113 Q 0 71.05146880075336 14.802389333490282 59.20955733396113"/></g><g transform="rotate(288)"><path d="M -14.802389333490282 59.20955733396113 Q 0 71.05146880075336 14.802389333490282 59.20955733396113"/></g><g transform="rotate(324)"><path d="M -14.802389333490282 59.20955733396113 Q 0 71.05146880075336 14.802389333490282 59.20955733396113"/></g><g transform="rotate(0)"><path d="M 0 129.34316175058484 L 32.33579043764621 155.2117941007018 L 0 181.08042645081878 L -32.33579043764621 155.2117941007018 Z"/></g><g transform="rotate(36)"><path d="M 0 129.34316175058484 L 32.33579043764621 155.2117941007018 L 0 181.08042645081878 L -32.33579043764621 155.2117941007018 Z"/></g><g transform="rotate(72)"><path d="M 0 129.34316175058484 L 32.33579043764621 155.2117941007018 L 0 181.08042645081878 L -32.33579043764621 155.2117941007018 Z"/></g><g transform="rotate(108)"><path d="M 0 129.34316175058484 L 32.33579043764621 155.2117941007018 L 0 181.08042645081878 L -32.33579043764621 155.2117941007018 Z"/></g><g transform="rotate(144)"><path d="M 0 129.34316175058484 L 32.33579043764621 155.2117941007018 L 0 181.08042645081878 L -32.33579043764621 155.2117941007018 Z"/></g><g transform="rotate(180)"><path d="M 0 129.34316175058484 L 32.33579043764621 155.2117941007018 L 0 181.08042645081878 L -32.33579043764621 155.2117941007018 Z"/></g><g transform="rotate(216)"><path d="M 0 129.34316175058484 L 32.33579043764621 155.2117941007018 L 0 181.08042645081878 L -32.33579043764621 155.2117941007018 Z"/></g><g transform="rotate(252)"><path d="M 0 129.34316175058484 L 32.33579043764621 155.2117941007018 L 0 181.08042645081878 L -32.33579043764621 155.2117941007018 Z"/></g><g transform="rotate(288)"><path d="M 0 129.34316175058484 L 32.33579043764621 155.2117941007018 L 0 181.08042645081878 L -32.33579043764621 155.2117941007018 Z"/></g><g transform="rotate(324)"><path d="M 0 129.34316175058484 L 32.33579043764621 155.2117941007018 L 0 181.08042645081878 L -32.33579043764621 155.2117941007018 Z"/></g><g transform="rotate(0)"><path d="M 0 212.51395816914737 Q 70.83798605638246 255.01674980297685 0 318.77093725372106 Q -70.83798605638246 255.01674980297685 0 212.51395816914737"/></g><g transform="rotate(36)"><path d="M 0 212.51395816914737 Q 70.83798605638246 255.01674980297685 0 318.77093725372106 Q -70.83798605638246 255.01674980297685 0 212.51395816914737"/></g><g transform="rotate(72)"><path d="M 0 212.51395816914737 Q 70.83798605638246 255.01674980297685 0 318.77093725372106 Q -70.83798605638246 255.01674980297685 0 212.51395816914737"/></g><g transform="rotate(108)"><path d="M 0 212.51395816914737 Q 70.83798605638246 255.01674980297685 0 318.77093725372106 Q -70.83798605638246 255.01674980297685 0 212.51395816914737"/></g><g transform="rotate(144)"><path d="M 0 212.51395816914737 Q 70.83798605638246 255.01674980297685 0 318.77093725372106 Q -70.83798605638246 255.01674980297685 0 212.51395816914737"/></g><g transform="rotate(180)"><path d="M 0 212.51395816914737 Q 70.83798605638246 255.01674980297685 0 318.77093725372106 Q -70.83798605638246 255.01674980297685 0 212.51395816914737"/></g><g transform="rotate(216)"><path d="M 0 212.51395816914737 Q 70.83798605638246 255.01674980297685 0 318.77093725372106 Q -70.83798605638246 255.01674980297685 0 212.51395816914737"/></g><g transform="rotate(252)"><path d="M 0 212.51395816914737 Q 70.83798605638246 255.01674980297685 0 318.77093725372106 Q -70.83798605638246 255.01674980297685 0 212.51395816914737"/></g><g transform="rotate(288)"><path d="M 0 212.51395816914737 Q 70.83798605638246 255.01674980297685 0 318.77093725372106 Q -70.83798605638246 255.01674980297685 0 212.51395816914737"/></g><g transform="rotate(324)"><path d="M 0 212.51395816914737 Q 70.83798605638246 255.01674980297685 0 318.77093725372106 Q -70.83798605638246 255.01674980297685 0 212.51395816914737"/></g><g transform="rotate(0)"><path d="M 0 297.9084200784564 L 0 387.2809461019933"/></g><g transform="rotate(36)"><path d="M 0 297.9084200784564 L 0 387.2809461019933"/></g><g transform="rotate(72)"><path d="M 0 297.9084200784564 L 0 387.2809461019933"/></g><g transform="rotate(108)"><path d="M 0 297.9084200784564 L 0 387.2809461019933"/></g><g transform="rotate(144)"><path d="M 0 297.9084200784564 L 0 387.2809461019933"/></g><g transform="rotate(180)"><path d="M 0 297.9084200784564 L 0 387.2809461019933"/></g><g transform="rotate(216)"><path d="M 0 297.9084200784564 L 0 387.2809461019933"/></g><g transform="rotate(252)"><path d="M 0 297.9084200784564 L 0 387.2809461019933"/></g><g transform="rotate(288)"><path d="M 0 297.9084200784564 L 0 387.2809461019933"/></g><g transform="rotate(324)"><path d="M 0 297.9084200784564 L 0 387.2809461019933"/></g></g></svg>