<svg xmlns="http://www.w3.org/2000/svg" viewBox="0 0 800 800" width="800" height="800">
    <rect width="100%" height="100%" fill="white"/>
    <g transform="translate(400, 400)" fill="none" stroke="black" stroke-width="4" stroke-linecap="round" stroke-linejoin="round"><g transform="rotate(0)"><path d="M 0 57.90247249882668 L 0 75.27321424847469"/></g><g transform="rotate(45)"><path d="M 0 57.90247249882668 L 0 75.27321424847469"/></g><g transform="rotate(90)"><path d="M 0 57.90247249882668 L 0 75.27321424847469"/></g><g transform="rotate(135)"><path d="M 0 57.90247249882668 L 0 75.27321424847469"/></g><g transform="rotate(180)"><path d="M 0 57.90247249882668 L 0 75.27321424847469"/></g><g transform="rotate(225)"><path d="M 0 57.90247249882668 L 0 75.27321424847469"/></g><g transform="rotate(270)"><path d="M 0 57.90247249882668 L 0 75.27321424847469"/></g><g transform="rotate(315)"><path d="M 0 57.90247249882668 L 0 75.27321424847469"/></g><g transform="rotate(0)"><path d="M 0 101.42414745941227 Q 33.808049153137425 121.70897695129472 0 152.1362211891184 Q -33.808049153137425 121.70897695129472 0 101.42414745941227"/></g><g transform="rotate(45)"><path d="M 0 101.42414745941227 Q 33.808049153137425 121.70897695129472 0 152.1362211891184 Q -33.808049153137425 121.70897695129472 0 101.42414745941227"/></g><g transform="rotate(90)"><path d="M 0 101.42414745941227 Q 33.808049153137425 121.70897695129472 0 152.1362211891184 Q -33.808049153137425 121.70897695129472 0 101.42414745941227"/></g><g transform="rotate(135)"><path d="M 0 101.42414745941227 Q 33.808049153137425 121.70897695129472 0 152.1362211891184 Q -33.808049153137425 121.70897695129472 0 101.42414745941227"/></g><g transform="rotate(180)"><path d="M 0 101.42414745941227 Q 33.808049153137425 121.70897695129472 0 152.1362211891184 Q -33.808049153137425 121.70897695129472 0 101.42414745941227"/></g><g transform="rotate(225)"><path d="M 0 101.42414745941227 Q 33.808049153137425 121.70897695129472 0 152.1362211891184 Q -33.808049153137425 121.70897695129472 0 101.42414745941227"/></g><g transform="rotate(270)"><path d="M 0 101.42414745941227 Q 33.808049153137425 121.70897695129472 0 152.1362211891184 Q -33.808049153137425 121.70897695129472 0 101.42414745941227"/></g><g transform="rotate(315)"><path d="M 0 101.42414745941227 Q 33.808049153137425 121.70897695129472 0 152.1362211891184 Q -33.808049153137425 121.70897695129472 0 101.42414745941227"/></g><g transform="rotate(0)"><path d="M -35.65991077256123 142.63964309024493 Q 0 171.1675717082939 35.65991077256123 142.63964309024493"/></g><g transform="rotate(45)"><path d="M -35.65991077256123 142.63964309024493 Q 0 171.1675717082939 35.65991077256123 142.63964309024493"/></g><g transform="rotate(90)"><path d="M -35.65991077256123 142.63964309024493 Q 0 171.1675717082939 35.65991077256123 142.63964309024493"/></g><g transform="rotate(135)"><path d="M -35.65991077256123 142.63964309024493 Q 0 171.1675717082939 35.65991077256123 142.63964309024493"/></g><g transform="rotate(180)"><path d="M -35.65991077256123 142.63964309024493 Q 0 171.1675717082939 35.65991077256123 142.63964309024493"/></g><g transform="rotate(225)"><path d="M -35.65991077256123 142.63964309024493 Q 0 171.1675717082939 35.65991077256123 142.63964309024493"/></g><g transform="rotate(270)"><path d="M -35.65991077256123 142.63964309024493 Q 0 171.1675717082939 35.65991077256123 142.63964309024493"/></g><g transform="rotate(315)"><path d="M -35.65991077256123 142.63964309024493 Q 0 171.1675717082939 35.65991077256123 142.63964309024493"/></g><g transform="rotate(0)"><path d="M 0 182.68619515201343 L 45.671548788003356 219.2234341824161 L 0 255.76067321281877 L -45.671548788003356 219.2234341824161 Z"/></g><g transform="rotate(45)"><path d="M 0 182.68619515201343 L 45.671548788003356 219.2234341824161 L 0 255.76067321281877 L -45.671548788003356 219.2234341824161 Z"/></g><g transform="rotate(90)"><path d="M 0 182.68619515201343 L 45.671548788003356 219.2234341824161 L 0 255.76067321281877 L -45.671548788003356 219.2234341824161 Z"/></g><g transform="rotate(135)"><path d="M 0 182.68619515201343 L 45.671548788003356 219.2234341824161 L 0 255.76067321281877 L -45.671548788003356 219.2234341824161 Z"/></g><g transform="rotate(180)"><path d="M 0 182.68619515201343 L 45.671548788003356 219.2234341824161 L 0 255.76067321281877 L -45.671548788003356 219.2234341824161 Z"/></g><g transform="rotate(225)"><path d="M 0 182.68619515201343 L 45.671548788003356 219.2234341824161 L 0 255.76067321281877 L -45.671548788003356 219.2234341824161 Z"/></g><g transform="rotate(270)"><path d="M 0 182.68619515201343 L 45.671548788003356 219.2234341824161 L 0 255.76067321281877 L -45.671548788003356 219.2234341824161 Z"/></g><g transform="rotate(315)"><path d="M 0 182.68619515201343 L 45.671548788003356 219.2234341824161 L 0 255.76067321281877 L -45.671548788003356 219.2234341824161 Z"/></g><g transform="rotate(0)"><path d="M 0 241.37078294330942 Q 80.4569276477698 289.6449395319713 0 362.0561744149641 Q -80.4569276477698 289.6449395319713 0 241.37078294330942"/></g><g transform="rotate(45)"><path d="M 0 241.37078294330942 Q 80.4569276477698 289.6449395319713 0 362.0561744149641 Q -80.4569276477698 289.6449395319713 0 241.37078294330942"/></g><g transform="rotate(90)"><path d="M 0 241.37078294330942 Q 80.4569276477698 289.6449395319713 0 362.0561744149641 Q -80.4569276477698 289.6449395319713 0 241.37078294330942"/></g><g transform="rotate(135)"><path d="M 0 241.37078294330942 Q 80.4569276477698 289.6449395319713 0 362.0561744149641 Q -80.4569276477698 289.6449395319713 0 241.37078294330942"/></g><g transform="rotate(180)"><path d="M 0 241.37078294330942 Q 80.4569276477698 289.6449395319713 0 362.0561744149641 Q -80.4569276477698 289.6449395319713 0 241.37078294330942"/></g><g transform="rotate(225)"><path d="M 0 241.37078294330942 Q 80.4569276477698 289.6449395319713 0 362.0561744149641 Q -80.4569276477698 289.6449395319713 0 241.37078294330942"/></g><g transform="rotate(270)"><path d="M 0 241.37078294330942 Q 80.4569276477698 289.6449395319713 0 362.0561744149641 Q -80.4569276477698 289.6449395319713 0 241.37078294330942"/></g><g transform="rotate(315)"><path d="M 0 241.37078294330942 Q 80.4569276477698 289.6449395319713 0 362.0561744149641 Q -80.4569276477698 289.6449395319713 0 241.37078294330942"/></g><g transform="rotate(0)"><path d="M 0 280.9868483558031 Q 93.66228278526769 337.1842180269637 0 421.48027253370464 Q -93.66228278526769 337.1842180269637 0 280.9868483558031"/></g><g transform="rotate(45)"><path d="M 0 280.9868483558031 Q 93.66228278526769 337.1842180269637 0 421.48027253370464 Q -93.66228278526769 337.1842180269637 0 280.9868483558031"/></g><g transform="rotate(90)"><path d="M 0 280.9868483558031 Q 93.66228278526769 337.1842180269637 0 421.48027253370464 Q -93.66228278526769 337.1842180269637 0 280.9868483558031"/></g><g transform="rotate(135)"><path d="M 0 280.9868483558031 Q 93.66228278526769 337.1842180269637 0 421.48027253370464 Q -93.66228278526769 337.1842180269637 0 280.9868483558031"/></g><g transform="rotate(180)"><path d="M 0 280.9868483558031 Q 93.66228278526769 337.1842180269637 0 421.48027253370464 Q -93.66228278526769 337.1842180269637 0 280.9868483558031"/></g><g transform="rotate(225)"><path d="M 0 280.9868483558031 Q 93.66228278526769 337.1842180269637 0 421.48027253370464 Q -93.66228278526769 337.1842180269637 0 280.9868483558031"/></g><g transform="rotate(270)"><path d="M 0 280.9868483558031 Q 93.66228278526769 337.1842180269637 0 421.48027253370464 Q -93.66228278526769 337.1842180269637 0 280.9868483558031"/></g><g transform="rotate(315)"><path d="M 0 280.9868483558031 Q 93.66228278526769 337.1842180269637 0 421.48027253370464 Q -93.66228278526769 337.1842180269637 0 280.9868483558031"/></g><g transform="rotate(0)"><path d="M 0 322.70700369895036 L 80.67675092473759 387.2484044387404 L 0 451.78980517853046 L -80.67675092473759 387.2484044387404 Z"/></g><g transform="rotate(45)"><path d="M 0 322.70700369895036 L 80.67675092473759 387.2484044387404 L 0 451.78980517853046 L -80.67675092473759 387.2484044387404 Z"/></g><g transform="rotate(90)"><path d="M 0 322.70700369895036 L 80.67675092473759 387.2484044387404 L 0 451.78980517853046 L -80.67675092473759 387.2484044387404 Z"/></g><g transform="rotate(135)"><path d="M 0 322.70700369895036 L 80.67675092473759 387.2484044387404 L 0 451.78980517853046 L -80.67675092473759 387.2484044387404 Z"/></g><g transform="rotate(180)"><path d="M 0 322.70700369895036 L 80.67675092473759 387.2484044387404 L 0 451.78980517853046 L -80.67675092473759 387.2484044387404 Z"/></g><g transform="rotate(225)"><path d="M 0 322.70700369895036 L 80.67675092473759 387.2484044387404 L 0 451.78980517853046 L -80.67675092473759 387.2484044387404 Z"/></g><g transform="rotate(270)"><path d="M 0 322.70700369895036 L 80.67675092473759 387.2484044387404 L 0 451.78980517853046 L -80.67675092473759 387.2484044387404 Z"/></g><g transform="rotate(315)"><path d="M 0 322.70700369895036 L 80.67675092473759 387.2484044387404 L 0 451.78980517853046 L -80.67675092473759 387.2484044387404 Z"/></g></g></svg>