<svg xmlns="http://www.w3.org/2000/svg" viewBox="0 0 800 800" width="800" height="800">
    <rect width="100%" height="100%" fill="white"/>
    <g transform="translate(400, 400)" fill="none" stroke="black" stroke-width="4" stroke-linecap="round" stroke-linejoin="round"><g transform="rotate(0)"><path d="M 0 43.13081183936447 L 0 56.07005539117381"/></g><g transform="rotate(20)"><path d="M 0 43.13081183936447 L 0 56.07005539117381"/></g><g transform="rotate(40)"><path d="M 0 43.13081183936447 L 0 56.07005539117381"/></g><g transform="rotate(60)"><path d="M 0 43.13081183936447 L 0 56.07005539117381"/></g><g transform="rotate(80)"><path d="M 0 43.13081183936447 L 0 56.07005539117381"/></g><g transform="rotate(100)"><path d="M 0 43.13081183936447 L 0 56.07005539117381"/></g><g transform="rotate(120)"><path d="M 0 43.13081183936447 L 0 56.07005539117381"/></g><g transform="rotate(140)"><path d="M 0 43.13081183936447 L 0 56.07005539117381"/></g><g transform="rotate(160)"><path d="M 0 43.13081183936447 L 0 56.07005539117381"/></g><g transform="rotate(180)"><path d="M 0 43.13081183936447 L 0 56.07005539117381"/></g><g transform="rotate(200)"><path d="M 0 43.13081183936447 L 0 56.07005539117381"/></g><g transform="rotate(220)"><path d="M 0 43.13081183936447 L 0 56.07005539117381"/></g><g transform="rotate(240)"><path d="M 0 43.13081183936447 L 0 56.07005539117381"/></g><g transform="rotate(260)"><path d="M 0 43.13081183936447 L 0 56.07005539117381"/></g><g transform="rotate(280)"><path d="M 0 43.13081183936447 L 0 56.07005539117381"/></g><g transform="rotate(300)"><path d="M 0 43.13081183936447 L 0 56.07005539117381"/></g><g transform="rotate(320)"><path d="M 0 43.13081183936447 L 0 56.07005539117381"/></g><g transform="rotate(340)"><path d="M 0 43.13081183936447 L 0 56.07005539117381"/></g><g transform="rotate(0)"><path d="M 0 95.95734748124545 L 0 124.74455172561909"/></g><g transform="rotate(20)"><path d="M 0 95.95734748124545 L 0 124.74455172561909"/></g><g transform="rotate(40)"><path d="M 0 95.95734748124545 L 0 124.74455172561909"/></g><g transform="rotate(60)"><path d="M 0 95.95734748124545 L 0 124.74455172561909"/></g><g transform="rotate(80)"><path d="M 0 95.95734748124545 L 0 124.74455172561909"/></g><g transform="rotate(100)"><path d="M 0 95.95734748124545 L 0 124.74455172561909"/></g><g transform="rotate(120)"><path d="M 0 95.95734748124545 L 0 124.74455172561909"/></g><g transform="rotate(140)"><path d="M 0 95.95734748124545 L 0 124.74455172561909"/></g><g transform="rotate(160)"><path d="M 0 95.95734748124545 L 0 124.74455172561909"/></g><g transform="rotate(180)"><path d="M 0 95.95734748124545 L 0 124.74455172561909"/></g><g transform="rotate(200)"><path d="M 0 95.95734748124545 L 0 124.74455172561909"/></g><g transform="rotate(220)"><path d="M 0 95.95734748124545 L 0 124.74455172561909"/></g><g transform="rotate(240)"><path d="M 0 95.95734748124545 L 0 124.74455172561909"/></g><g transform="rotate(260)"><path d="M 0 95.95734748124545 L 0 124.74455172561909"/></g><g transform="rotate(280)"><path d="M 0 95.95734748124545 L 0 124.74455172561909"/></g><g transform="rotate(300)"><path d="M 0 95.95734748124545 L 0 124.74455172561909"/></g><g transform="rotate(320)"><path d="M 0 95.95734748124545 L 0 124.74455172561909"/></g><g transform="rotate(340)"><path d="M 0 95.95734748124545 L 0 124.74455172561909"/></g><g transform="rotate(0)"><path d="M 0 147.85118912014048 Q 49.283729706713494 177.42142694416856 0 221.7767836802107 Q -49.283729706713494 177.42142694416856 0 147.85118912014048"/></g><g transform="rotate(20)"><path d="M 0 147.85118912014048 Q 49.283729706713494 177.42142694416856 0 221.7767836802107 Q -49.283729706713494 177.42142694416856 0 147.85118912014048"/></g><g transform="rotate(40)"><path d="M 0 147.85118912014048 Q 49.283729706713494 177.42142694416856 0 221.7767836802107 Q -49.283729706713494 177.42142694416856 0 147.85118912014048"/></g><g transform="rotate(60)"><path d="M 0 147.85118912014048 Q 49.283729706713494 177.42142694416856 0 221.7767836802107 Q -49.283729706713494 177.42142694416856 0 147.85118912014048"/></g><g transform="rotate(80)"><path d="M 0 147.85118912014048 Q 49.283729706713494 177.42142694416856 0 221.7767836802107 Q -49.283729706713494 177.42142694416856 0 147.85118912014048"/></g><g transform="rotate(100)"><path d="M 0 147.85118912014048 Q 49.283729706713494 177.42142694416856 0 221.7767836802107 Q -49.283729706713494 177.42142694416856 0 147.85118912014048"/></g><g transform="rotate(120)"><path d="M 0 147.85118912014048 Q 49.283729706713494 177.42142694416856 0 221.7767836802107 Q -49.283729706713494 177.42142694416856 0 147.85118912014048"/></g><g transform="rotate(140)"><path d="M 0 147.85118912014048 Q 49.283729706713494 177.42142694416856 0 221.7767836802107 Q -49.283729706713494 177.42142694416856 0 147.85118912014048"/></g><g transform="rotate(160)"><path d="M 0 147.85118912014048 Q 49.283729706713494 177.42142694416856 0 221.7767836802107 Q -49.283729706713494 177.42142694416856 0 147.85118912014048"/></g><g transform="rotate(180)"><path d="M 0 147.85118912014048 Q 49.283729706713494 177.42142694416856 0 221.7767836802107 Q -49.283729706713494 177.42142694416856 0 147.85118912014048"/></g><g transform="rotate(200)"><path d="M 0 147.85118912014048 Q 49.283729706713494 177.42142694416856 0 221.7767836802107 Q -49.283729706713494 177.42142694416856 0 147.85118912014048"/></g><g transform="rotate(220)"><path d="M 0 147.85118912014048 Q 49.283729706713494 177.42142694416856 0 221.7767836802107 Q -49.283729706713494 177.42142694416856 0 147.85118912014048"/></g><g transform="rotate(240)"><path d="M 0 147.85118912014048 Q 49.283729706713494 177.42142694416856 0 221.7767836802107 Q -49.283729706713494 177.42142694416856 0 147.85118912014048"/></g><g transform="rotate(260)"><path d="M 0 147.85118912014048 Q 49.283729706713494 177.42142694416856 0 221.7767836802107 Q -49.283729706713494 177.42142694416856 0 147.85118912014048"/></g><g transform="rotate(280)"><path d="M 0 147.85118912014048 Q 49.283729706713494 177.42142694416856 0 221.7767836802107 Q -49.283729706713494 177.42142694416856 0 147.85118912014048"/></g><g transform="rotate(300)"><path d="M 0 147.85118912014048 Q 49.283729706713494 177.42142694416856 0 221.7767836802107 Q -49.283729706713494 177.42142694416856 0 147.85118912014048"/></g><g transform="rotate(320)"><path d="M 0 147.85118912014048 Q 49.283729706713494 177.42142694416856 0 221.7767836802107 Q -49.283729706713494 177.42142694416856 0 147.85118912014048"/></g><g transform="rotate(340)"><path d="M 0 147.85118912014048 Q 49.283729706713494 177.42142694416856 0 221.7767836802107 Q -49.283729706713494 177.42142694416856 0 147.85118912014048"/></g><g transform="rotate(0)"><path d="M 0 192.1465234292139 Q 64.0488411430713 230.57582811505665 0 288.21978514382084 Q -64.0488411430713 230.57582811505665 0 192.1465234292139"/></g><g transform="rotate(20)"><path d="M 0 192.1465234292139 Q 64.0488411430713 230.57582811505665 0 288.21978514382084 Q -64.0488411430713 230.57582811505665 0 192.1465234292139"/></g><g transform="rotate(40)"><path d="M 0 192.1465234292139 Q 64.0488411430713 230.57582811505665 0 288.21978514382084 Q -64.0488411430713 230.57582811505665 0 192.1465234292139"/></g><g transform="rotate(60)"><path d="M 0 192.1465234292139 Q 64.0488411430713 230.57582811505665 0 288.21978514382084 Q -64.0488411430713 230.57582811505665 0 192.1465234292139"/></g><g transform="rotate(80)"><path d="M 0 192.1465234292139 Q 64.0488411430713 230.57582811505665 0 288.21978514382084 Q -64.0488411430713 230.57582811505665 0 192.1465234292139"/></g><g transform="rotate(100)"><path d="M 0 192.1465234292139 Q 64.0488411430713 230.57582811505665 0 288.21978514382084 Q -64.0488411430713 230.57582811505665 0 192.1465234292139"/></g><g transform="rotate(120)"><path d="M 0 192.1465234292139 Q 64.0488411430713 230.57582811505665 0 288.21978514382084 Q -64.0488411430713 230.57582811505665 0 192.1465234292139"/></g><g transform="rotate(140)"><path d="M 0 192.1465234292139 Q 64.0488411430713 230.57582811505665 0 288.21978514382084 Q -64.0488411430713 230.57582811505665 0 192.1465234292139"/></g><g transform="rotate(160)"><path d="M 0 192.1465234292139 Q 64.0488411430713 230.57582811505665 0 288.21978514382084 Q -64.0488411430713 230.57582811505665 0 192.1465234292139"/></g><g transform="rotate(180)"><path d="M 0 192.1465234292139 Q 64.0488411430713 230.57582811505665 0 288.21978514382084 Q -64.0488411430713 230.57582811505665 0 192.1465234292139"/></g><g transform="rotate(200)"><path d="M 0 192.1465234292139 Q 64.0488411430713 230.57582811505665 0 288.21978514382084 Q -64.0488411430713 230.57582811505665 0 192.1465234292139"/></g><g transform="rotate(220)"><path d="M 0 192.1465234292139 Q 64.0488411430713 230.57582811505665 0 288.21978514382084 Q -64.0488411430713 230.57582811505665 0 192.1465234292139"/></g><g transform="rotate(240)"><path d="M 0 192.1465234292139 Q 64.0488411430713 230.57582811505665 0 288.21978514382084 Q -64.0488411430713 230.57582811505665 0 192.1465234292139"/></g><g transform="rotate(260)"><path d="M 0 192.1465234292139 Q 64.0488411430713 230.57582811505665 0 288.21978514382084 Q -64.0488411430713 230.57582811505665 0 192.1465234292139"/></g><g transform="rotate(280)"><path d="M 0 192.1465234292139 Q 64.0488411430713 230.57582811505665 0 288.21978514382084 Q -64.0488411430713 230.57582811505665 0 192.1465234292139"/></g><g transform="rotate(300)"><path d="M 0 192.1465234292139 Q 64.0488411430713 230.57582811505665 0 288.21978514382084 Q -64.0488411430713 230.57582811505665 0 192.1465234292139"/></g><g transform="rotate(320)"><path d="M 0 192.1465234292139 Q 64.0488411430713 230.57582811505665 0 288.21978514382084 Q -64.0488411430713 230.57582811505665 0 192.1465234292139"/></g><g transform="rotate(340)"><path d="M 0 192.1465234292139 Q 64.0488411430713 230.57582811505665 0 288.21978514382084 Q -64.0488411430713 230.57582811505665 0 192.1465234292139"/></g><g transform="rotate(0)"><circle cx="0" cy="237.52292454043138" r="59.380731135107844"/></g><g transform="rotate(20)"><circle cx="0" cy="237.52292454043138" r="59.380731135107844"/></g><g transform="rotate(40)"><circle cx="0" cy="237.52292454043138" r="59.380731135107844"/></g><g transform="rotate(60)"><circle cx="0" cy="237.52292454043138" r="59.380731135107844"/></g><g transform="rotate(80)"><circle cx="0" cy="237.52292454043138" r="59.380731135107844"/></g><g transform="rotate(100)"><circle cx="0" cy="237.52292454043138" r="59.380731135107844"/></g><g transform="rotate(120)"><circle cx="0" cy="237.52292454043138" r="59.380731135107844"/></g><g transform="rotate(140)"><circle cx="0" cy="237.52292454043138" r="59.380731135107844"/></g><g transform="rotate(160)"><circle cx="0" cy="237.52292454043138" r="59.380731135107844"/></g><g transform="rotate(180)"><circle cx="0" cy="237.52292454043138" r="59.380731135107844"/></g><g transform="rotate(200)"><circle cx="0" cy="237.52292454043138" r="59.380731135107844"/></g><g transform="rotate(220)"><circle cx="0" cy="237.52292454043138" r="59.380731135107844"/></g><g transform="rotate(240)"><circle cx="0" cy="237.52292454043138" r="59.380731135107844"/></g><g transform="rotate(260)"><circle cx="0" cy="237.52292454043138" r="59.380731135107844"/></g><g transform="rotate(280)"><circle cx="0" cy="237.52292454043138" r="59.380731135107844"/></g><g transform="rotate(300)"><circle cx="0" cy="237.52292454043138" r="59.380731135107844"/></g><g transform="rotate(320)"><circle cx="0" cy="237.52292454043138" r="59.380731135107844"/></g><g transform="rotate(340)"><circle cx="0" cy="237.52292454043138" r="59.380731135107844"/></g><g transform="rotate(0)"><circle cx="0" cy="278.0958768106731" r="69.52396920266827"/></g><g transform="rotate(20)"><circle cx="0" cy="278.0958768106731" r="69.52396920266827"/></g><g transform="rotate(40)"><circle cx="0" cy="278.0958768106731" r="69.52396920266827"/></g><g transform="rotate(60)"><circle cx="0" cy="278.0958768106731" r="69.52396920266827"/></g><g transform="rotate(80)"><circle cx="0" cy="278.0958768106731" r="69.52396920266827"/></g><g transform="rotate(100)"><circle cx="0" cy="278.0958768106731" r="69.52396920266827"/></g><g transform="rotate(120)"><circle cx="0" cy="278.0958768106731" r="69.52396920266827"/></g><g transform="rotate(140)"><circle cx="0" cy="278.0958768106731" r="69.52396920266827"/></g><g transform="rotate(160)"><circle cx="0" cy="278.0958768106731" r="69.52396920266827"/></g><g transform="rotate(180)"><circle cx="0" cy="278.0958768106731" r="69.52396920266827"/></g><g transform="rotate(200)"><circle cx="0" cy="278.0958768106731" r="69.52396920266827"/></g><g transform="rotate(220)"><circle cx="0" cy="278.0958768106731" r="69.52396920266827"/></g><g transform="rotate(240)"><circle cx="0" cy="278.0958768106731" r="69.52396920266827"/></g><g transform="rotate(260)"><circle cx="0" cy="278.0958768106731" r="69.52396920266827"/></g><g transform="rotate(280)"><circle cx="0" cy="278.0958768106731" r="69.52396920266827"/></g><g transform="rotate(300)"><circle cx="0" cy="278.0958768106731" r="69.52396920266827"/></g><g transform="rotate(320)"><circle cx="0" cy="278.0958768106731" r="69.52396920266827"/></g><g transform="rotate(340)"><circle cx="0" cy="278.0958768106731" r="69.52396920266827"/></g><g transform="rotate(0)"><path d="M 0 330.7073097948783 Q 110.23576993162611 396.84877175385395 0 496.0609646923175 Q -110.23576993162611 396.84877175385395 0 330.7073097948783"/></g><g transform="rotate(20)"><path d="M 0 330.7073097948783 Q 110.23576993162611 396.84877175385395 0 496.0609646923175 Q -110.23576993162611 396.84877175385395 0 330.7073097948783"/></g><g transform="rotate(40)"><path d="M 0 330.7073097948783 Q 110.23576993162611 396.84877175385395 0 496.0609646923175 Q -110.23576993162611 396.84877175385395 0 330.7073097948783"/></g><g transform="rotate(60)"><path d="M 0 330.7073097948783 Q 110.23576993162611 396.84877175385395 0 496.0609646923175 Q -110.23576993162611 396.84877175385395 0 330.7073097948783"/></g><g transform="rotate(80)"><path d="M 0 330.7073097948783 Q 110.23576993162611 396.84877175385395 0 496.0609646923175 Q -110.23576993162611 396.84877175385395 0 330.7073097948783"/></g><g transform="rotate(100)"><path d="M 0 330.7073097948783 Q 110.23576993162611 396.84877175385395 0 496.0609646923175 Q -110.23576993162611 396.84877175385395 0 330.7073097948783"/></g><g transform="rotate(120)"><path d="M 0 330.7073097948783 Q 110.23576993162611 396.84877175385395 0 496.0609646923175 Q -110.23576993162611 396.84877175385395 0 330.7073097948783"/></g><g transform="rotate(140)"><path d="M 0 330.7073097948783 Q 110.23576993162611 396.84877175385395 0 496.0609646923175 Q -110.23576993162611 396.84877175385395 0 330.7073097948783"/></g><g transform="rotate(160)"><path d="M 0 330.7073097948783 Q 110.23576993162611 396.84877175385395 0 496.0609646923175 Q -110.23576993162611 396.84877175385395 0 330.7073097948783"/></g><g transform="rotate(180)"><path d="M 0 330.7073097948783 Q 110.23576993162611 396.84877175385395 0 496.0609646923175 Q -110.23576993162611 396.84877175385395 0 330.7073097948783"/></g><g transform="rotate(200)"><path d="M 0 330.7073097948783 Q 110.23576993162611 396.84877175385395 0 496.0609646923175 Q -110.23576993162611 396.84877175385395 0 330.7073097948783"/></g><g transform="rotate(220)"><path d="M 0 330.7073097948783 Q 110.23576993162611 396.84877175385395 0 496.0609646923175 Q -110.23576993162611 396.84877175385395 0 330.7073097948783"/></g><g transform="rotate(240)"><path d="M 0 330.7073097948783 Q 110.23576993162611 396.84877175385395 0 496.0609646923175 Q -110.23576993162611 396.84877175385395 0 330.7073097948783"/></g><g transform="rotate(260)"><path d="M 0 330.7073097948783 Q 110.23576993162611 396.84877175385395 0 496.0609646923175 Q -110.23576993162611 396.84877175385395 0 330.7073097948783"/></g><g transform="rotate(280)"><path d="M 0 330.7073097948783 Q 110.23576993162611 396.84877175385395 0 496.0609646923175 Q -110.23576993162611 396.84877175385395 0 330.7073097948783"/></g><g transform="rotate(300)"><path d="M 0 330.7073097948783 Q 110.23576993162611 396.84877175385395 0 496.0609646923175 Q -110.23576993162611 396.84877175385395 0 330.7073097948783"/></g><g transform="rotate(320)"><path d="M 0 330.7073097948783 Q 110.23576993162611 396.84877175385395 0 496.0609646923175 Q -110.23576993162611 396.84877175385395 0 330.7073097948783"/></g><g transform="rotate(340)"><path d="M 0 330.7073097948783 Q 110.23576993162611 396.84877175385395 0 496.0609646923175 Q -110.23576993162611 396.84877175385395 0 330.7073097948783"/></g></g></svg>