<svg xmlns="http://www.w3.org/2000/svg" viewBox="0 0 800 800" width="800" height="800">
    <rect width="100%" height="100%" fill="white"/>
    <g transform="translate(400, 400)" fill="none" stroke="black" stroke-width="4" stroke-linecap="round" stroke-linejoin="round"><g transform="rotate(0)"><circle cx="0" cy="52.87884562276304" r="13.21971140569076"/></g><g transform="rotate(45)"><circle cx="0" cy="52.87884562276304" r="13.21971140569076"/></g><g transform="rotate(90)"><circle cx="0" cy="52.87884562276304" r="13.21971140569076"/></g><g transform="rotate(135)"><circle cx="0" cy="52.87884562276304" r="13.21971140569076"/></g><g transform="rotate(180)"><circle cx="0" cy="52.87884562276304" r="13.21971140569076"/></g><g transform="rotate(225)"><circle cx="0" cy="52.87884562276304" r="13.21971140569076"/></g><g transform="rotate(270)"><circle cx="0" cy="52.87884562276304" r="13.21971140569076"/></g><g transform="rotate(315)"><circle cx="0" cy="52.87884562276304" r="13.21971140569076"/></g><g transform="rotate(0)"><path d="M 0 108.90500937898955 L 27.226252344747387 130.68601125478745 L 0 152.46701313058534 L -27.226252344747387 130.68601125478745 Z"/></g><g transform="rotate(45)"><path d="M 0 108.90500937898955 L 27.226252344747387 130.68601125478745 L 0 152.46701313058534 L -27.226252344747387 130.68601125478745 Z"/></g><g transform="rotate(90)"><path d="M 0 108.90500937898955 L 27.226252344747387 130.68601125478745 L 0 152.46701313058534 L -27.226252344747387 130.68601125478745 Z"/></g><g transform="rotate(135)"><path d="M 0 108.90500937898955 L 27.226252344747387 130.68601125478745 L 0 152.46701313058534 L -27.226252344747387 130.68601125478745 Z"/></g><g transform="rotate(180)"><path d="M 0 108.90500937898955 L 27.226252344747387 130.68601125478745 L 0 152.46701313058534 L -27.226252344747387 130.68601125478745 Z"/></g><g transform="rotate(225)"><path d="M 0 108.90500937898955 L 27.226252344747387 130.68601125478745 L 0 152.46701313058534 L -27.226252344747387 130.68601125478745 Z"/></g><g transform="rotate(270)"><path d="M 0 108.90500937898955 L 27.226252344747387 130.68601125478745 L 0 152.46701313058534 L -27.226252344747387 130.68601125478745 Z"/></g><g transform="rotate(315)"><path d="M 0 108.90500937898955 L 27.226252344747387 130.68601125478745 L 0 152.46701313058534 L -27.226252344747387 130.68601125478745 Z"/></g><g transform="rotate(0)"><path d="M 0 155.69985884862643 L 0 202.40981650321436"/></g><g transform="rotate(45)"><path d="M 0 155.69985884862643 L 0 202.40981650321436"/></g><g transform="rotate(90)"><path d="M 0 155.69985884862643 L 0 202.40981650321436"/></g><g transform="rotate(135)"><path d="M 0 155.69985884862643 L 0 202.40981650321436"/></g><g transform="rotate(180)"><path d="M 0 155.69985884862643 L 0 202.40981650321436"/></g><g transform="rotate(225)"><path d="M 0 155.69985884862643 L 0 202.40981650321436"/></g><g transform="rotate(270)"><path d="M 0 155.69985884862643 L 0 202.40981650321436"/></g><g transform="rotate(315)"><path d="M 0 155.69985884862643 L 0 202.40981650321436"/></g><g transform="rotate(0)"><circle cx="0" cy="219.10570362582803" r="54.77642590645701"/></g><g transform="rotate(45)"><circle cx="0" cy="219.10570362582803" r="54.77642590645701"/></g><g transform="rotate(90)"><circle cx="0" cy="219.10570362582803" r="54.77642590645701"/></g><g transform="rotate(135)"><circle cx="0" cy="219.10570362582803" r="54.77642590645701"/></g><g transform="rotate(180)"><circle cx="0" cy="219.10570362582803" r="54.77642590645701"/></g><g transform="rotate(225)"><circle cx="0" cy="219.10570362582803" r="54.77642590645701"/></g><g transform="rotate(270)"><circle cx="0" cy="219.10570362582803" r="54.77642590645701"/></g><g transform="rotate(315)"><circle cx="0" cy="219.10570362582803" r="54.77642590645701"/></g><g transform="rotate(0)"><path d="M 0 264.2359266461184 Q 88.0786422153728 317.0831119753421 0 396.3538899691776 Q -88.0786422153728 317.0831119753421 0 264.2359266461184"/></g><g transform="rotate(45)"><path d="M 0 264.2359266461184 Q 88.0786422153728 317.0831119753421 0 396.3538899691776 Q -88.0786422153728 317.0831119753421 0 264.2359266461184"/></g><g transform="rotate(90)"><path d="M 0 264.2359266461184 Q 88.0786422153728 317.0831119753421 0 396.3538899691776 Q -88.0786422153728 317.0831119753421 0 264.2359266461184"/></g><g transform="rotate(135)"><path d="M 0 264.2359266461184 Q 88.0786422153728 317.0831119753421 0 396.3538899691776 Q -88.0786422153728 317.0831119753421 0 264.2359266461184"/></g><g transform="rotate(180)"><path d="M 0 264.2359266461184 Q 88.0786422153728 317.0831119753421 0 396.3538899691776 Q -88.0786422153728 317.0831119753421 0 264.2359266461184"/></g><g transform="rotate(225)"><path d="M 0 264.2359266461184 Q 88.0786422153728 317.0831119753421 0 396.3538899691776 Q -88.0786422153728 317.0831119753421 0 264.2359266461184"/></g><g transform="rotate(270)"><path d="M 0 264.2359266461184 Q 88.0786422153728 317.0831119753421 0 396.3538899691776 Q -88.0786422153728 317.0831119753421 0 264.2359266461184"/></g><g transform="rotate(315)"><path d="M 0 264.2359266461184 Q 88.0786422153728 317.0831119753421 0 396.3538899691776 Q -88.0786422153728 317.0831119753421 0 264.2359266461184"/></g><g transform="rotate(0)"><path d="M -78.20866036849718 312.8346414739887 Q 0 375.40156976878643 78.20866036849718 312.8346414739887"/></g><g transform="rotate(45)"><path d="M -78.20866036849718 312.8346414739887 Q 0 375.40156976878643 78.20866036849718 312.8346414739887"/></g><g transform="rotate(90)"><path d="M -78.20866036849718 312.8346414739887 Q 0 375.40156976878643 78.20866036849718 312.8346414739887"/></g><g transform="rotate(135)"><path d="M -78.20866036849718 312.8346414739887 Q 0 375.40156976878643 78.20866036849718 312.8346414739887"/></g><g transform="rotate(180)"><path d="M -78.20866036849718 312.8346414739887 Q 0 375.40156976878643 78.20866036849718 312.8346414739887"/></g><g transform="rotate(225)"><path d="M -78.20866036849718 312.8346414739887 Q 0 375.40156976878643 78.20866036849718 312.8346414739887"/></g><g transform="rotate(270)"><path d="M -78.20866036849718 312.8346414739887 Q 0 375.40156976878643 78.20866036849718 312.8346414739887"/></g><g transform="rotate(315)"><path d="M -78.20866036849718 312.8346414739887 Q 0 375.40156976878643 78.20866036849718 312.8346414739887"/></g></g></svg>