<svg xmlns="http://www.w3.org/2000/svg" viewBox="0 0 800 800" width="800" height="800">
    <rect width="100%" height="100%" fill="white"/>
    <g transform="translate(400, 400)" fill="none" stroke="black" stroke-width="4" stroke-linecap="round" stroke-linejoin="round"><g transform="rotate(0)"><circle cx="0" cy="54.98908285982907" r="13.747270714957267"/></g><g transform="rotate(45)"><circle cx="0" cy="54.98908285982907" r="13.747270714957267"/></g><g transform="rotate(90)"><circle cx="0" cy="54.98908285982907" r="13.747270714957267"/></g><g transform="rotate(135)"><circle cx="0" cy="54.98908285982907" r="13.747270714957267"/></g><g transform="rotate(180)"><circle cx="0" cy="54.98908285982907" r="13.747270714957267"/></g><g transform="rotate(225)"><circle cx="0" cy="54.98908285982907" r="13.747270714957267"/></g><g transform="rotate(270)"><circle cx="0" cy="54.98908285982907" r="13.747270714957267"/></g><g transform="rotate(315)"><circle cx="0" cy="54.98908285982907" r="13.747270714957267"/></g><g transform="rotate(0)"><path d="M 0 106.82883794729909 L 26.707209486824773 128.1946055367589 L 0 149.5603731262187 L -26.707209486824773 128.1946055367589 Z"/></g><g transform="rotate(45)"><path d="M 0 106.82883794729909 L 26.707209486824773 128.1946055367589 L 0 149.5603731262187 L -26.707209486824773 128.1946055367589 Z"/></g><g transform="rotate(90)"><path d="M 0 106.82883794729909 L 26.707209486824773 128.1946055367589 L 0 149.5603731262187 L -26.707209486824773 128.1946055367589 Z"/></g><g transform="rotate(135)"><path d="M 0 106.82883794729909 L 26.707209486824773 128.1946055367589 L 0 149.5603731262187 L -26.707209486824773 128.1946055367589 Z"/></g><g transform="rotate(180)"><path d="M 0 106.82883794729909 L 26.707209486824773 128.1946055367589 L 0 149.5603731262187 L -26.707209486824773 128.1946055367589 Z"/></g><g transform="rotate(225)"><path d="M 0 106.82883794729909 L 26.707209486824773 128.1946055367589 L 0 149.5603731262187 L -26.707209486824773 128.1946055367589 Z"/></g><g transform="rotate(270)"><path d="M 0 106.82883794729909 L 26.707209486824773 128.1946055367589 L 0 149.5603731262187 L -26.707209486824773 128.1946055367589 Z"/></g><g transform="rotate(315)"><path d="M 0 106.82883794729909 L 26.707209486824773 128.1946055367589 L 0 149.5603731262187 L -26.707209486824773 128.1946055367589 Z"/></g><g transform="rotate(0)"><circle cx="0" cy="163.52678084435564" r="40.88169521108891"/></g><g transform="rotate(45)"><circle cx="0" cy="163.52678084435564" r="40.88169521108891"/></g><g transform="rotate(90)"><circle cx="0" cy="163.52678084435564" r="40.88169521108891"/></g><g transform="rotate(135)"><circle cx="0" cy="163.52678084435564" r="40.88169521108891"/></g><g transform="rotate(180)"><circle cx="0" cy="163.52678084435564" r="40.88169521108891"/></g><g transform="rotate(225)"><circle cx="0" cy="163.52678084435564" r="40.88169521108891"/></g><g transform="rotate(270)"><circle cx="0" cy="163.52678084435564" r="40.88169521108891"/></g><g transform="rotate(315)"><circle cx="0" cy="163.52678084435564" r="40.88169521108891"/></g><g transform="rotate(0)"><path d="M 0 212.03994244337082 L 53.009985610842705 254.44793093204498 L 0 296.85591942071915 L -53.009985610842705 254.44793093204498 Z"/></g><g transform="rotate(45)"><path d="M 0 212.03994244337082 L 53.009985610842705 254.44793093204498 L 0 296.85591942071915 L -53.009985610842705 254.44793093204498 Z"/></g><g transform="rotate(90)"><path d="M 0 212.03994244337082 L 53.009985610842705 254.44793093204498 L 0 296.85591942071915 L -53.009985610842705 254.44793093204498 Z"/></g><g transform="rotate(135)"><path d="M 0 212.03994244337082 L 53.009985610842705 254.44793093204498 L 0 296.85591942071915 L -53.009985610842705 254.44793093204498 Z"/></g><g transform="rotate(180)"><path d="M 0 212.03994244337082 L 53.009985610842705 254.44793093204498 L 0 296.85591942071915 L -53.009985610842705 254.44793093204498 Z"/></g><g transform="rotate(225)"><path d="M 0 212.03994244337082 L 53.009985610842705 254.44793093204498 L 0 296.85591942071915 L -53.009985610842705 254.44793093204498 Z"/></g><g transform="rotate(270)"><path d="M 0 212.03994244337082 L 53.009985610842705 254.44793093204498 L 0 296.85591942071915 L -53.009985610842705 254.44793093204498 Z"/></g><g transform="rotate(315)"><path d="M 0 212.03994244337082 L 53.009985610842705 254.44793093204498 L 0 296.85591942071915 L -53.009985610842705 254.44793093204498 Z"/></g><g transform="rotate(0)"><path d="M 0 264.7856207036724 Q 88.2618735678908 317.7427448444069 0 397.1784310555086 Q -88.2618735678908 317.7427448444069 0 264.7856207036724"/></g><g transform="rotate(45)"><path d="M 0 264.7856207036724 Q 88.2618735678908 317.7427448444069 0 397.1784310555086 Q -88.2618735678908 317.7427448444069 0 264.7856207036724"/></g><g transform="rotate(90)"><path d="M 0 264.7856207036724 Q 88.2618735678908 317.7427448444069 0 397.1784310555086 Q -88.2618735678908 317.7427448444069 0 264.7856207036724"/></g><g transform="rotate(135)"><path d="M 0 264.7856207036724 Q 88.2618735678908 317.7427448444069 0 397.1784310555086 Q -88.2618735678908 317.7427448444069 0 264.7856207036724"/></g><g transform="rotate(180)"><path d="M 0 264.7856207036724 Q 88.2618735678908 317.7427448444069 0 397.1784310555086 Q -88.2618735678908 317.7427448444069 0 264.7856207036724"/></g><g transform="rotate(225)"><path d="M 0 264.7856207036724 Q 88.2618735678908 317.7427448444069 0 397.1784310555086 Q -88.2618735678908 317.7427448444069 0 264.7856207036724"/></g><g transform="rotate(270)"><path d="M 0 264.7856207036724 Q 88.2618735678908 317.7427448444069 0 397.1784310555086 Q -88.2618735678908 317.7427448444069 0 264.7856207036724"/></g><g transform="rotate(315)"><path d="M 0 264.7856207036724 Q 88.2618735678908 317.7427448444069 0 397.1784310555086 Q -88.2618735678908 317.7427448444069 0 264.7856207036724"/></g><g transform="rotate(0)"><path d="M 0 324.6762088375787 L 0 422.0790714888523"/></g><g transform="rotate(45)"><path d="M 0 324.6762088375787 L 0 422.0790714888523"/></g><g transform="rotate(90)"><path d="M 0 324.6762088375787 L 0 422.0790714888523"/></g><g transform="rotate(135)"><path d="M 0 324.6762088375787 L 0 422.0790714888523"/></g><g transform="rotate(180)"><path d="M 0 324.6762088375787 L 0 422.0790714888523"/></g><g transform="rotate(225)"><path d="M 0 324.6762088375787 L 0 422.0790714888523"/></g><g transform="rotate(270)"><path d="M 0 324.6762088375787 L 0 422.0790714888523"/></g><g transform="rotate(315)"><path d="M 0 324.6762088375787 L 0 422.0790714888523"/></g></g></svg>