<svg xmlns="http://www.w3.org/2000/svg" viewBox="0 0 800 800" width="800" height="800">
    <rect width="100%" height="100%" fill="white"/>
    <g transform="translate(400, 400)" fill="none" stroke="black" stroke-width="4" stroke-linecap="round" stroke-linejoin="round"><g transform="rotate(0)"><path d="M 0 42.92609937489033 L 10.731524843722582 51.51131924986839 L 0 60.09653912484645 L -10.731524843722582 51.51131924986839 Z"/></g><g transform="rotate(60)"><path d="M 0 42.92609937489033 L 10.731524843722582 51.51131924986839 L 0 60.09653912484645 L -10.731524843722582 51.51131924986839 Z"/></g><g transform="rotate(120)"><path d="M 0 42.92609937489033 L 10.731524843722582 51.51131924986839 L 0 60.09653912484645 L -10.731524843722582 51.51131924986839 Z"/></g><g transform="rotate(180)"><path d="M 0 42.92609937489033 L 10.731524843722582 51.51131924986839 L 0 60.09653912484645 L -10.731524843722582 51.51131924986839 Z"/></g><g transform="rotate(240)"><path d="M 0 42.92609937489033 L 10.731524843722582 51.51131924986839 L 0 60.09653912484645 L -10.731524843722582 51.51131924986839 Z"/></g><g transform="rotate(300)"><path d="M 0 42.92609937489033 L 10.731524843722582 51.51131924986839 L 0 60.09653912484645 L -10.731524843722582 51.51131924986839 Z"/></g><g transform="rotate(0)"><path d="M -23.96201186114922 95.84804744459689 Q 0 115.01765693351626 23.96201186114922 95.84804744459689"/></g><g transform="rotate(60)"><path d="M -23.96201186114922 95.84804744459689 Q 0 115.01765693351626 23.96201186114922 95.84804744459689"/></g><g transform="rotate(120)"><path d="M -23.96201186114922 95.84804744459689 Q 0 115.01765693351626 23.96201186114922 95.84804744459689"/></g><g transform="rotate(180)"><path d="M -23.96201186114922 95.84804744459689 Q 0 115.01765693351626 23.96201186114922 95.84804744459689"/></g><g transform="rotate(240)"><path d="M -23.96201186114922 95.84804744459689 Q 0 115.01765693351626 23.96201186114922 95.84804744459689"/></g><g transform="rotate(300)"><path d="M -23.96201186114922 95.84804744459689 Q 0 115.01765693351626 23.96201186114922 95.84804744459689"/></g><g transform="rotate(0)"><path d="M 0 133.38895114138722 L 33.347237785346806 160.06674136966467 L 0 186.7445315979421 L -33.347237785346806 160.06674136966467 Z"/></g><g transform="rotate(60)"><path d="M 0 133.38895114138722 L 33.347237785346806 160.06674136966467 L 0 186.7445315979421 L -33.347237785346806 160.06674136966467 Z"/></g><g transform="rotate(120)"><path d="M 0 133.38895114138722 L 33.347237785346806 160.06674136966467 L 0 186.7445315979421 L -33.347237785346806 160.06674136966467 Z"/></g><g transform="rotate(180)"><path d="M 0 133.38895114138722 L 33.347237785346806 160.06674136966467 L 0 186.7445315979421 L -33.347237785346806 160.06674136966467 Z"/></g><g transform="rotate(240)"><path d="M 0 133.38895114138722 L 33.347237785346806 160.06674136966467 L 0 186.7445315979421 L -33.347237785346806 160.06674136966467 Z"/></g><g transform="rotate(300)"><path d="M 0 133.38895114138722 L 33.347237785346806 160.06674136966467 L 0 186.7445315979421 L -33.347237785346806 160.06674136966467 Z"/></g><g transform="rotate(0)"><path d="M -42.995243098121136 171.98097239248455 Q 0 206.37716687098145 42.995243098121136 171.98097239248455"/></g><g transform="rotate(60)"><path d="M -42.995243098121136 171.98097239248455 Q 0 206.37716687098145 42.995243098121136 171.98097239248455"/></g><g transform="rotate(120)"><path d="M -42.995243098121136 171.98097239248455 Q 0 206.37716687098145 42.995243098121136 171.98097239248455"/></g><g transform="rotate(180)"><path d="M -42.995243098121136 171.98097239248455 Q 0 206.37716687098145 42.995243098121136 171.98097239248455"/></g><g transform="rotate(240)"><path d="M -42.995243098121136 171.98097239248455 Q 0 206.37716687098145 42.995243098121136 171.98097239248455"/></g><g transform="rotate(300)"><path d="M -42.995243098121136 171.98097239248455 Q 0 206.37716687098145 42.995243098121136 171.98097239248455"/></g><g transform="rotate(0)"><path d="M 0 206.1246868595481 L 0 267.9620929174125"/></g><g transform="rotate(60)"><path d="M 0 206.1246868595481 L 0 267.9620929174125"/></g><g transform="rotate(120)"><path d="M 0 206.1246868595481 L 0 267.9620929174125"/></g><g transform="rotate(180)"><path d="M 0 206.1246868595481 L 0 267.9620929174125"/></g><g transform="rotate(240)"><path d="M 0 206.1246868595481 L 0 267.9620929174125"/></g><g transform="rotate(300)"><path d="M 0 206.1246868595481 L 0 267.9620929174125"/></g><g transform="rotate(0)"><path d="M 0 258.66286476142704 L 64.66571619035676 310.39543771371245 L 0 362.12801066599786 L -64.66571619035676 310.39543771371245 Z"/></g><g transform="rotate(60)"><path d="M 0 258.66286476142704 L 64.66571619035676 310.39543771371245 L 0 362.12801066599786 L -64.66571619035676 310.39543771371245 Z"/></g><g transform="rotate(120)"><path d="M 0 258.66286476142704 L 64.66571619035676 310.39543771371245 L 0 362.12801066599786 L -64.66571619035676 310.39543771371245 Z"/></g><g transform="rotate(180)"><path d="M 0 258.66286476142704 L 64.66571619035676 310.39543771371245 L 0 362.12801066599786 L -64.66571619035676 310.39543771371245 Z"/></g><g transform="rotate(240)"><path d="M 0 258.66286476142704 L 64.66571619035676 310.39543771371245 L 0 362.12801066599786 L -64.66571619035676 310.39543771371245 Z"/></g><g transform="rotate(300)"><path d="M 0 258.66286476142704 L 64.66571619035676 310.39543771371245 L 0 362.12801066599786 L -64.66571619035676 310.39543771371245 Z"/></g><g transform="rotate(0)"><path d="M -71.28384185489267 285.1353674195707 Q 0 342.1624409034848 71.28384185489267 285.1353674195707"/></g><g transform="rotate(60)"><path d="M -71.28384185489267 285.1353674195707 Q 0 342.1624409034848 71.28384185489267 285.1353674195707"/></g><g transform="rotate(120)"><path d="M -71.28384185489267 285.1353674195707 Q 0 342.1624409034848 71.28384185489267 285.1353674195707"/></g><g transform="rotate(180)"><path d="M -71.28384185489267 285.1353674195707 Q 0 342.1624409034848 71.28384185489267 285.1353674195707"/></g><g transform="rotate(240)"><path d="M -71.28384185489267 285.1353674195707 Q 0 342.1624409034848 71.28384185489267 285.1353674195707"/></g><g transform="rotate(300)"><path d="M -71.28384185489267 285.1353674195707 Q 0 342.1624409034848 71.28384185489267 285.1353674195707"/></g><g transform="rotate(0)"><path d="M 0 336.2801009323448 L 0 437.16413121204823"/></g><g transform="rotate(60)"><path d="M 0 336.2801009323448 L 0 437.16413121204823"/></g><g transform="rotate(120)"><path d="M 0 336.2801009323448 L 0 437.16413121204823"/></g><g transform="rotate(180)"><path d="M 0 336.2801009323448 L 0 437.16413121204823"/></g><g transform="rotate(240)"><path d="M 0 336.2801009323448 L 0 437.16413121204823"/></g><g transform="rotate(300)"><path d="M 0 336.2801009323448 L 0 437.16413121204823"/></g></g></svg>