<svg xmlns="http://www.w3.org/2000/svg" viewBox="0 0 800 800" width="800" height="800">
    <rect width="100%" height="100%" fill="white"/>
    <g transform="translate(400, 400)" fill="none" stroke="black" stroke-width="4" stroke-linecap="round" stroke-linejoin="round"><g transform="rotate(0)"><path d="M 0 48.752878652885556 L 12.188219663221389 58.50345438346267 L 0 68.25403011403978 L -12.188219663221389 58.50345438346267 Z"/></g><g transform="rotate(18)"><path d="M 0 48.752878652885556 L 12.188219663221389 58.50345438346267 L 0 68.25403011403978 L -12.188219663221389 58.50345438346267 Z"/></g><g transform="rotate(36)"><path d="M 0 48.752878652885556 L 12.188219663221389 58.50345438346267 L 0 68.25403011403978 L -12.188219663221389 58.50345438346267 Z"/></g><g transform="rotate(54)"><path d="M 0 48.752878652885556 L 12.188219663221389 58.50345438346267 L 0 68.25403011403978 L -12.188219663221389 58.50345438346267 Z"/></g><g transform="rotate(72)"><path d="M 0 48.752878652885556 L 12.188219663221389 58.50345438346267 L 0 68.25403011403978 L -12.188219663221389 58.50345438346267 Z"/></g><g transform="rotate(90)"><path d="M 0 48.752878652885556 L 12.188219663221389 58.50345438346267 L 0 68.25403011403978 L -12.188219663221389 58.50345438346267 Z"/></g><g transform="rotate(108)"><path d="M 0 48.752878652885556 L 12.188219663221389 58.50345438346267 L 0 68.25403011403978 L -12.188219663221389 58.50345438346267 Z"/></g><g transform="rotate(126)"><path d="M 0 48.752878652885556 L 12.188219663221389 58.50345438346267 L 0 68.25403011403978 L -12.188219663221389 58.50345438346267 Z"/></g><g transform="rotate(144)"><path d="M 0 48.752878652885556 L 12.188219663221389 58.50345438346267 L 0 68.25403011403978 L -12.188219663221389 58.50345438346267 Z"/></g><g transform="rotate(162)"><path d="M 0 48.752878652885556 L 12.188219663221389 58.50345438346267 L 0 68.25403011403978 L -12.188219663221389 58.50345438346267 Z"/></g><g transform="rotate(180)"><path d="M 0 48.752878652885556 L 12.188219663221389 58.50345438346267 L 0 68.25403011403978 L -12.188219663221389 58.50345438346267 Z"/></g><g transform="rotate(198)"><path d="M 0 48.752878652885556 L 12.188219663221389 58.50345438346267 L 0 68.25403011403978 L -12.188219663221389 58.50345438346267 Z"/></g><g transform="rotate(216)"><path d="M 0 48.752878652885556 L 12.188219663221389 58.50345438346267 L 0 68.25403011403978 L -12.188219663221389 58.50345438346267 Z"/></g><g transform="rotate(234)"><path d="M 0 48.752878652885556 L 12.188219663221389 58.50345438346267 L 0 68.25403011403978 L -12.188219663221389 58.50345438346267 Z"/></g><g transform="rotate(252)"><path d="M 0 48.752878652885556 L 12.188219663221389 58.50345438346267 L 0 68.25403011403978 L -12.188219663221389 58.50345438346267 Z"/></g><g transform="rotate(270)"><path d="M 0 48.752878652885556 L 12.188219663221389 58.50345438346267 L 0 68.25403011403978 L -12.188219663221389 58.50345438346267 Z"/></g><g transform="rotate(288)"><path d="M 0 48.752878652885556 L 12.188219663221389 58.50345438346267 L 0 68.25403011403978 L -12.188219663221389 58.50345438346267 Z"/></g><g transform="rotate(306)"><path d="M 0 48.752878652885556 L 12.188219663221389 58.50345438346267 L 0 68.25403011403978 L -12.188219663221389 58.50345438346267 Z"/></g><g transform="rotate(324)"><path d="M 0 48.752878652885556 L 12.188219663221389 58.50345438346267 L 0 68.25403011403978 L -12.188219663221389 58.50345438346267 Z"/></g><g transform="rotate(342)"><path d="M 0 48.752878652885556 L 12.188219663221389 58.50345438346267 L 0 68.25403011403978 L -12.188219663221389 58.50345438346267 Z"/></g><g transform="rotate(0)"><path d="M 0 120.27676170691848 Q 40.09225390230616 144.33211404830217 0 180.41514256037772 Q -40.09225390230616 144.33211404830217 0 120.27676170691848"/></g><g transform="rotate(18)"><path d="M 0 120.27676170691848 Q 40.09225390230616 144.33211404830217 0 180.41514256037772 Q -40.09225390230616 144.33211404830217 0 120.27676170691848"/></g><g transform="rotate(36)"><path d="M 0 120.27676170691848 Q 40.09225390230616 144.33211404830217 0 180.41514256037772 Q -40.09225390230616 144.33211404830217 0 120.27676170691848"/></g><g transform="rotate(54)"><path d="M 0 120.27676170691848 Q 40.09225390230616 144.33211404830217 0 180.41514256037772 Q -40.09225390230616 144.33211404830217 0 120.27676170691848"/></g><g transform="rotate(72)"><path d="M 0 120.27676170691848 Q 40.09225390230616 144.33211404830217 0 180.41514256037772 Q -40.09225390230616 144.33211404830217 0 120.27676170691848"/></g><g transform="rotate(90)"><path d="M 0 120.27676170691848 Q 40.09225390230616 144.33211404830217 0 180.41514256037772 Q -40.09225390230616 144.33211404830217 0 120.27676170691848"/></g><g transform="rotate(108)"><path d="M 0 120.27676170691848 Q 40.09225390230616 144.33211404830217 0 180.41514256037772 Q -40.09225390230616 144.33211404830217 0 120.27676170691848"/></g><g transform="rotate(126)"><path d="M 0 120.27676170691848 Q 40.09225390230616 144.33211404830217 0 180.41514256037772 Q -40.09225390230616 144.33211404830217 0 120.27676170691848"/></g><g transform="rotate(144)"><path d="M 0 120.27676170691848 Q 40.09225390230616 144.33211404830217 0 180.41514256037772 Q -40.09225390230616 144.33211404830217 0 120.27676170691848"/></g><g transform="rotate(162)"><path d="M 0 120.27676170691848 Q 40.09225390230616 144.33211404830217 0 180.41514256037772 Q -40.09225390230616 144.33211404830217 0 120.27676170691848"/></g><g transform="rotate(180)"><path d="M 0 120.27676170691848 Q 40.09225390230616 144.33211404830217 0 180.41514256037772 Q -40.09225390230616 144.33211404830217 0 120.27676170691848"/></g><g transform="rotate(198)"><path d="M 0 120.27676170691848 Q 40.09225390230616 144.33211404830217 0 180.41514256037772 Q -40.09225390230616 144.33211404830217 0 120.27676170691848"/></g><g transform="rotate(216)"><path d="M 0 120.27676170691848 Q 40.09225390230616 144.33211404830217 0 180.41514256037772 Q -40.09225390230616 144.33211404830217 0 120.27676170691848"/></g><g transform="rotate(234)"><path d="M 0 120.27676170691848 Q 40.09225390230616 144.33211404830217 0 180.41514256037772 Q -40.09225390230616 144.33211404830217 0 120.27676170691848"/></g><g transform="rotate(252)"><path d="M 0 120.27676170691848 Q 40.09225390230616 144.33211404830217 0 180.41514256037772 Q -40.09225390230616 144.33211404830217 0 120.27676170691848"/></g><g transform="rotate(270)"><path d="M 0 120.27676170691848 Q 40.09225390230616 144.33211404830217 0 180.41514256037772 Q -40.09225390230616 144.33211404830217 0 120.27676170691848"/></g><g transform="rotate(288)"><path d="M 0 120.27676170691848 Q 40.09225390230616 144.33211404830217 0 180.41514256037772 Q -40.09225390230616 144.33211404830217 0 120.27676170691848"/></g><g transform="rotate(306)"><path d="M 0 120.27676170691848 Q 40.09225390230616 144.33211404830217 0 180.41514256037772 Q -40.09225390230616 144.33211404830217 0 120.27676170691848"/></g><g transform="rotate(324)"><path d="M 0 120.27676170691848 Q 40.09225390230616 144.33211404830217 0 180.41514256037772 Q -40.09225390230616 144.33211404830217 0 120.27676170691848"/></g><g transform="rotate(342)"><path d="M 0 120.27676170691848 Q 40.09225390230616 144.33211404830217 0 180.41514256037772 Q -40.09225390230616 144.33211404830217 0 120.27676170691848"/></g><g transform="rotate(0)"><path d="M 0 202.09086610935628 Q 67.3636220364521 242.50903933122754 0 303.1362991640344 Q -67.3636220364521 242.50903933122754 0 202.09086610935628"/></g><g transform="rotate(18)"><path d="M 0 202.09086610935628 Q 67.3636220364521 242.50903933122754 0 303.1362991640344 Q -67.3636220364521 242.50903933122754 0 202.09086610935628"/></g><g transform="rotate(36)"><path d="M 0 202.09086610935628 Q 67.3636220364521 242.50903933122754 0 303.1362991640344 Q -67.3636220364521 242.50903933122754 0 202.09086610935628"/></g><g transform="rotate(54)"><path d="M 0 202.09086610935628 Q 67.3636220364521 242.50903933122754 0 303.1362991640344 Q -67.3636220364521 242.50903933122754 0 202.09086610935628"/></g><g transform="rotate(72)"><path d="M 0 202.09086610935628 Q 67.3636220364521 242.50903933122754 0 303.1362991640344 Q -67.3636220364521 242.50903933122754 0 202.09086610935628"/></g><g transform="rotate(90)"><path d="M 0 202.09086610935628 Q 67.3636220364521 242.50903933122754 0 303.1362991640344 Q -67.3636220364521 242.50903933122754 0 202.09086610935628"/></g><g transform="rotate(108)"><path d="M 0 202.09086610935628 Q 67.3636220364521 242.50903933122754 0 303.1362991640344 Q -67.3636220364521 242.50903933122754 0 202.09086610935628"/></g><g transform="rotate(126)"><path d="M 0 202.09086610935628 Q 67.3636220364521 242.50903933122754 0 303.1362991640344 Q -67.3636220364521 242.50903933122754 0 202.09086610935628"/></g><g transform="rotate(144)"><path d="M 0 202.09086610935628 Q 67.3636220364521 242.50903933122754 0 303.1362991640344 Q -67.3636220364521 242.50903933122754 0 202.09086610935628"/></g><g transform="rotate(162)"><path d="M 0 202.09086610935628 Q 67.3636220364521 242.50903933122754 0 303.1362991640344 Q -67.3636220364521 242.50903933122754 0 202.09086610935628"/></g><g transform="rotate(180)"><path d="M 0 202.09086610935628 Q 67.3636220364521 242.50903933122754 0 303.1362991640344 Q -67.3636220364521 242.50903933122754 0 202.09086610935628"/></g><g transform="rotate(198)"><path d="M 0 202.09086610935628 Q 67.3636220364521 242.50903933122754 0 303.1362991640344 Q -67.3636220364521 242.50903933122754 0 202.09086610935628"/></g><g transform="rotate(216)"><path d="M 0 202.09086610935628 Q 67.3636220364521 242.50903933122754 0 303.1362991640344 Q -67.3636220364521 242.50903933122754 0 202.09086610935628"/></g><g transform="rotate(234)"><path d="M 0 202.09086610935628 Q 67.3636220364521 242.50903933122754 0 303.1362991640344 Q -67.3636220364521 242.50903933122754 0 202.09086610935628"/></g><g transform="rotate(252)"><path d="M 0 202.09086610935628 Q 67.3636220364521 242.50903933122754 0 303.1362991640344 Q -67.3636220364521 242.50903933122754 0 202.09086610935628"/></g><g transform="rotate(270)"><path d="M 0 202.09086610935628 Q 67.3636220364521 242.50903933122754 0 303.1362991640344 Q -67.3636220364521 242.50903933122754 0 202.09086610935628"/></g><g transform="rotate(288)"><path d="M 0 202.09086610935628 Q 67.3636220364521 242.50903933122754 0 303.1362991640344 Q -67.3636220364521 242.50903933122754 0 202.09086610935628"/></g><g transform="rotate(306)"><path d="M 0 202.09086610935628 Q 67.3636220364521 242.50903933122754 0 303.1362991640344 Q -67.3636220364521 242.50903933122754 0 202.09086610935628"/></g><g transform="rotate(324)"><path d="M 0 202.09086610935628 Q 67.3636220364521 242.50903933122754 0 303.1362991640344 Q -67.3636220364521 242.50903933122754 0 202.09086610935628"/></g><g transform="rotate(342)"><path d="M 0 202.09086610935628 Q 67.3636220364521 242.50903933122754 0 303.1362991640344 Q -67.3636220364521 242.50903933122754 0 202.09086610935628"/></g><g transform="rotate(0)"><path d="M 0 298.9877635240555 L 74.74694088101387 358.7853162288666 L 0 418.5828689336777 L -74.74694088101387 358.7853162288666 Z"/></g><g transform="rotate(18)"><path d="M 0 298.9877635240555 L 74.74694088101387 358.7853162288666 L 0 418.5828689336777 L -74.74694088101387 358.7853162288666 Z"/></g><g transform="rotate(36)"><path d="M 0 298.9877635240555 L 74.74694088101387 358.7853162288666 L 0 418.5828689336777 L -74.74694088101387 358.7853162288666 Z"/></g><g transform="rotate(54)"><path d="M 0 298.9877635240555 L 74.74694088101387 358.7853162288666 L 0 418.5828689336777 L -74.74694088101387 358.7853162288666 Z"/></g><g transform="rotate(72)"><path d="M 0 298.9877635240555 L 74.74694088101387 358.7853162288666 L 0 418.5828689336777 L -74.74694088101387 358.7853162288666 Z"/></g><g transform="rotate(90)"><path d="M 0 298.9877635240555 L 74.74694088101387 358.7853162288666 L 0 418.5828689336777 L -74.74694088101387 358.7853162288666 Z"/></g><g transform="rotate(108)"><path d="M 0 298.9877635240555 L 74.74694088101387 358.7853162288666 L 0 418.5828689336777 L -74.74694088101387 358.7853162288666 Z"/></g><g transform="rotate(126)"><path d="M 0 298.9877635240555 L 74.74694088101387 358.7853162288666 L 0 418.5828689336777 L -74.74694088101387 358.7853162288666 Z"/></g><g transform="rotate(144)"><path d="M 0 298.9877635240555 L 74.74694088101387 358.7853162288666 L 0 418.5828689336777 L -74.74694088101387 358.7853162288666 Z"/></g><g transform="rotate(162)"><path d="M 0 298.9877635240555 L 74.74694088101387 358.7853162288666 L 0 418.5828689336777 L -74.74694088101387 358.7853162288666 Z"/></g><g transform="rotate(180)"><path d="M 0 298.9877635240555 L 74.74694088101387 358.7853162288666 L 0 418.5828689336777 L -74.74694088101387 358.7853162288666 Z"/></g><g transform="rotate(198)"><path d="M 0 298.9877635240555 L 74.74694088101387 358.7853162288666 L 0 418.5828689336777 L -74.74694088101387 358.7853162288666 Z"/></g><g transform="rotate(216)"><path d="M 0 298.9877635240555 L 74.74694088101387 358.7853162288666 L 0 418.5828689336777 L -74.74694088101387 358.7853162288666 Z"/></g><g transform="rotate(234)"><path d="M 0 298.9877635240555 L 74.74694088101387 358.7853162288666 L 0 418.5828689336777 L -74.74694088101387 358.7853162288666 Z"/></g><g transform="rotate(252)"><path d="M 0 298.9877635240555 L 74.74694088101387 358.7853162288666 L 0 418.5828689336777 L -74.74694088101387 358.7853162288666 Z"/></g><g transform="rotate(270)"><path d="M 0 298.9877635240555 L 74.74694088101387 358.7853162288666 L 0 418.5828689336777 L -74.74694088101387 358.7853162288666 Z"/></g><g transform="rotate(288)"><path d="M 0 298.9877635240555 L 74.74694088101387 358.7853162288666 L 0 418.5828689336777 L -74.74694088101387 358.7853162288666 Z"/></g><g transform="rotate(306)"><path d="M 0 298.9877635240555 L 74.74694088101387 358.7853162288666 L 0 418.5828689336777 L -74.74694088101387 358.7853162288666 Z"/></g><g transform="rotate(324)"><path d="M 0 298.9877635240555 L 74.74694088101387 358.7853162288666 L 0 418.5828689336777 L -74.74694088101387 358.7853162288666 Z"/></g><g transform="rotate(342)"><path d="M 0 298.9877635240555 L 74.74694088101387 358.7853162288666 L 0 418.5828689336777 L -74.74694088101387 358.7853162288666 Z"/></g></g></svg>