<svg xmlns="http://www.w3.org/2000/svg" viewBox="0 0 800 800" width="800" height="800">
    <rect width="100%" height="100%" fill="white"/>
    <g transform="translate(400, 400)" fill="none" stroke="black" stroke-width="4" stroke-linecap="round" stroke-linejoin="round"><g transform="rotate(0)"><path d="M 0 42.122946972958744 Q 14.04098232431958 50.54753636755049 0 63.184420459438115 Q -14.04098232431958 50.54753636755049 0 42.122946972958744"/></g><g transform="rotate(45)"><path d="M 0 42.122946972958744 Q 14.04098232431958 50.54753636755049 0 63.184420459438115 Q -14.04098232431958 50.54753636755049 0 42.122946972958744"/></g><g transform="rotate(90)"><path d="M 0 42.122946972958744 Q 14.04098232431958 50.54753636755049 0 63.184420459438115 Q -14.04098232431958 50.54753636755049 0 42.122946972958744"/></g><g transform="rotate(135)"><path d="M 0 42.122946972958744 Q 14.04098232431958 50.54753636755049 0 63.184420459438115 Q -14.04098232431958 50.54753636755049 0 42.122946972958744"/></g><g transform="rotate(180)"><path d="M 0 42.122946972958744 Q 14.04098232431958 50.54753636755049 0 63.184420459438115 Q -14.04098232431958 50.54753636755049 0 42.122946972958744"/></g><g transform="rotate(225)"><path d="M 0 42.122946972958744 Q 14.04098232431958 50.54753636755049 0 63.184420459438115 Q -14.04098232431958 50.54753636755049 0 42.122946972958744"/></g><g transform="rotate(270)"><path d="M 0 42.122946972958744 Q 14.04098232431958 50.54753636755049 0 63.184420459438115 Q -14.04098232431958 50.54753636755049 0 42.122946972958744"/></g><g transform="rotate(315)"><path d="M 0 42.122946972958744 Q 14.04098232431958 50.54753636755049 0 63.184420459438115 Q -14.04098232431958 50.54753636755049 0 42.122946972958744"/></g><g transform="rotate(0)"><path d="M 0 115.55751888174564 Q 38.51917296058188 138.66902265809475 0 173.33627832261845 Q -38.51917296058188 138.66902265809475 0 115.55751888174564"/></g><g transform="rotate(45)"><path d="M 0 115.55751888174564 Q 38.51917296058188 138.66902265809475 0 173.33627832261845 Q -38.51917296058188 138.66902265809475 0 115.55751888174564"/></g><g transform="rotate(90)"><path d="M 0 115.55751888174564 Q 38.51917296058188 138.66902265809475 0 173.33627832261845 Q -38.51917296058188 138.66902265809475 0 115.55751888174564"/></g><g transform="rotate(135)"><path d="M 0 115.55751888174564 Q 38.51917296058188 138.66902265809475 0 173.33627832261845 Q -38.51917296058188 138.66902265809475 0 115.55751888174564"/></g><g transform="rotate(180)"><path d="M 0 115.55751888174564 Q 38.51917296058188 138.66902265809475 0 173.33627832261845 Q -38.51917296058188 138.66902265809475 0 115.55751888174564"/></g><g transform="rotate(225)"><path d="M 0 115.55751888174564 Q 38.51917296058188 138.66902265809475 0 173.33627832261845 Q -38.51917296058188 138.66902265809475 0 115.55751888174564"/></g><g transform="rotate(270)"><path d="M 0 115.55751888174564 Q 38.51917296058188 138.66902265809475 0 173.33627832261845 Q -38.51917296058188 138.66902265809475 0 115.55751888174564"/></g><g transform="rotate(315)"><path d="M 0 115.55751888174564 Q 38.51917296058188 138.66902265809475 0 173.33627832261845 Q -38.51917296058188 138.66902265809475 0 115.55751888174564"/></g><g transform="rotate(0)"><path d="M 0 174.8649156531319 L 43.716228913282976 209.83789878375828 L 0 244.81088191438465 L -43.716228913282976 209.83789878375828 Z"/></g><g transform="rotate(45)"><path d="M 0 174.8649156531319 L 43.716228913282976 209.83789878375828 L 0 244.81088191438465 L -43.716228913282976 209.83789878375828 Z"/></g><g transform="rotate(90)"><path d="M 0 174.8649156531319 L 43.716228913282976 209.83789878375828 L 0 244.81088191438465 L -43.716228913282976 209.83789878375828 Z"/></g><g transform="rotate(135)"><path d="M 0 174.8649156531319 L 43.716228913282976 209.83789878375828 L 0 244.81088191438465 L -43.716228913282976 209.83789878375828 Z"/></g><g transform="rotate(180)"><path d="M 0 174.8649156531319 L 43.716228913282976 209.83789878375828 L 0 244.81088191438465 L -43.716228913282976 209.83789878375828 Z"/></g><g transform="rotate(225)"><path d="M 0 174.8649156531319 L 43.716228913282976 209.83789878375828 L 0 244.81088191438465 L -43.716228913282976 209.83789878375828 Z"/></g><g transform="rotate(270)"><path d="M 0 174.8649156531319 L 43.716228913282976 209.83789878375828 L 0 244.81088191438465 L -43.716228913282976 209.83789878375828 Z"/></g><g transform="rotate(315)"><path d="M 0 174.8649156531319 L 43.716228913282976 209.83789878375828 L 0 244.81088191438465 L -43.716228913282976 209.83789878375828 Z"/></g><g transform="rotate(0)"><path d="M 0 243.41181564424187 L 0 316.43536033751445"/></g><g transform="rotate(45)"><path d="M 0 243.41181564424187 L 0 316.43536033751445"/></g><g transform="rotate(90)"><path d="M 0 243.41181564424187 L 0 316.43536033751445"/></g><g transform="rotate(135)"><path d="M 0 243.41181564424187 L 0 316.43536033751445"/></g><g transform="rotate(180)"><path d="M 0 243.41181564424187 L 0 316.43536033751445"/></g><g transform="rotate(225)"><path d="M 0 243.41181564424187 L 0 316.43536033751445"/></g><g transform="rotate(270)"><path d="M 0 243.41181564424187 L 0 316.43536033751445"/></g><g transform="rotate(315)"><path d="M 0 243.41181564424187 L 0 316.43536033751445"/></g><g transform="rotate(0)"><path d="M 0 315.6130282012746 Q 105.2043427337582 378.7356338415295 0 473.41954230191186 Q -105.2043427337582 378.7356338415295 0 315.6130282012746"/></g><g transform="rotate(45)"><path d="M 0 315.6130282012746 Q 105.2043427337582 378.7356338415295 0 473.41954230191186 Q -105.2043427337582 378.7356338415295 0 315.6130282012746"/></g><g transform="rotate(90)"><path d="M 0 315.6130282012746 Q 105.2043427337582 378.7356338415295 0 473.41954230191186 Q -105.2043427337582 378.7356338415295 0 315.6130282012746"/></g><g transform="rotate(135)"><path d="M 0 315.6130282012746 Q 105.2043427337582 378.7356338415295 0 473.41954230191186 Q -105.2043427337582 378.7356338415295 0 315.6130282012746"/></g><g transform="rotate(180)"><path d="M 0 315.6130282012746 Q 105.2043427337582 378.7356338415295 0 473.41954230191186 Q -105.2043427337582 378.7356338415295 0 315.6130282012746"/></g><g transform="rotate(225)"><path d="M 0 315.6130282012746 Q 105.2043427337582 378.7356338415295 0 473.41954230191186 Q -105.2043427337582 378.7356338415295 0 315.6130282012746"/></g><g transform="rotate(270)"><path d="M 0 315.6130282012746 Q 105.2043427337582 378.7356338415295 0 473.41954230191186 Q -105.2043427337582 378.7356338415295 0 315.6130282012746"/></g><g transform="rotate(315)"><path d="M 0 315.6130282012746 Q 105.2043427337582 378.7356338415295 0 473.41954230191186 Q -105.2043427337582 378.7356338415295 0 315.6130282012746"/></g></g></svg>