<svg xmlns="http://www.w3.org/2000/svg" viewBox="0 0 800 800" width="800" height="800">
    <rect width="100%" height="100%" fill="white"/>
    <g transform="translate(400, 400)" fill="none" stroke="black" stroke-width="4" stroke-linecap="round" stroke-linejoin="round"><g transform="rotate(0)"><path d="M 0 51.36704832315445 Q 17.122349441051483 61.64045798778534 0 77.05057248473167 Q -17.122349441051483 61.64045798778534 0 51.36704832315445"/></g><g transform="rotate(36)"><path d="M 0 51.36704832315445 Q 17.122349441051483 61.64045798778534 0 77.05057248473167 Q -17.122349441051483 61.64045798778534 0 51.36704832315445"/></g><g transform="rotate(72)"><path d="M 0 51.36704832315445 Q 17.122349441051483 61.64045798778534 0 77.05057248473167 Q -17.122349441051483 61.64045798778534 0 51.36704832315445"/></g><g transform="rotate(108)"><path d="M 0 51.36704832315445 Q 17.122349441051483 61.64045798778534 0 77.05057248473167 Q -17.122349441051483 61.64045798778534 0 51.36704832315445"/></g><g transform="rotate(144)"><path d="M 0 51.36704832315445 Q 17.122349441051483 61.64045798778534 0 77.05057248473167 Q -17.122349441051483 61.64045798778534 0 51.36704832315445"/></g><g transform="rotate(180)"><path d="M 0 51.36704832315445 Q 17.122349441051483 61.64045798778534 0 77.05057248473167 Q -17.122349441051483 61.64045798778534 0 51.36704832315445"/></g><g transform="rotate(216)"><path d="M 0 51.36704832315445 Q 17.122349441051483 61.64045798778534 0 77.05057248473167 Q -17.122349441051483 61.64045798778534 0 51.36704832315445"/></g><g transform="rotate(252)"><path d="M 0 51.36704832315445 Q 17.122349441051483 61.64045798778534 0 77.05057248473167 Q -17.122349441051483 61.64045798778534 0 51.36704832315445"/></g><g transform="rotate(288)"><path d="M 0 51.36704832315445 Q 17.122349441051483 61.64045798778534 0 77.05057248473167 Q -17.122349441051483 61.64045798778534 0 51.36704832315445"/></g><g transform="rotate(324)"><path d="M 0 51.36704832315445 Q 17.122349441051483 61.64045798778534 0 77.05057248473167 Q -17.122349441051483 61.64045798778534 0 51.36704832315445"/></g><g transform="rotate(0)"><path d="M 0 127.54336171783507 L 0 165.8063702331856"/></g><g transform="rotate(36)"><path d="M 0 127.54336171783507 L 0 165.8063702331856"/></g><g transform="rotate(72)"><path d="M 0 127.54336171783507 L 0 165.8063702331856"/></g><g transform="rotate(108)"><path d="M 0 127.54336171783507 L 0 165.8063702331856"/></g><g transform="rotate(144)"><path d="M 0 127.54336171783507 L 0 165.8063702331856"/></g><g transform="rotate(180)"><path d="M 0 127.54336171783507 L 0 165.8063702331856"/></g><g transform="rotate(216)"><path d="M 0 127.54336171783507 L 0 165.8063702331856"/></g><g transform="rotate(252)"><path d="M 0 127.54336171783507 L 0 165.8063702331856"/></g><g transform="rotate(288)"><path d="M 0 127.54336171783507 L 0 165.8063702331856"/></g><g transform="rotate(324)"><path d="M 0 127.54336171783507 L 0 165.8063702331856"/></g><g transform="rotate(0)"><path d="M 0 204.69663912430406 L 0 266.1056308615953"/></g><g transform="rotate(36)"><path d="M 0 204.69663912430406 L 0 266.1056308615953"/></g><g transform="rotate(72)"><path d="M 0 204.69663912430406 L 0 266.1056308615953"/></g><g transform="rotate(108)"><path d="M 0 204.69663912430406 L 0 266.1056308615953"/></g><g transform="rotate(144)"><path d="M 0 204.69663912430406 L 0 266.1056308615953"/></g><g transform="rotate(180)"><path d="M 0 204.69663912430406 L 0 266.1056308615953"/></g><g transform="rotate(216)"><path d="M 0 204.69663912430406 L 0 266.1056308615953"/></g><g transform="rotate(252)"><path d="M 0 204.69663912430406 L 0 266.1056308615953"/></g><g transform="rotate(288)"><path d="M 0 204.69663912430406 L 0 266.1056308615953"/></g><g transform="rotate(324)"><path d="M 0 204.69663912430406 L 0 266.1056308615953"/></g><g transform="rotate(0)"><path d="M 0 283.7179276626557 L 70.92948191566393 340.46151319518685 L 0 397.205098727718 L -70.92948191566393 340.46151319518685 Z"/></g><g transform="rotate(36)"><path d="M 0 283.7179276626557 L 70.92948191566393 340.46151319518685 L 0 397.205098727718 L -70.92948191566393 340.46151319518685 Z"/></g><g transform="rotate(72)"><path d="M 0 283.7179276626557 L 70.92948191566393 340.46151319518685 L 0 397.205098727718 L -70.92948191566393 340.46151319518685 Z"/></g><g transform="rotate(108)"><path d="M 0 283.7179276626557 L 70.92948191566393 340.46151319518685 L 0 397.205098727718 L -70.92948191566393 340.46151319518685 Z"/></g><g transform="rotate(144)"><path d="M 0 283.7179276626557 L 70.92948191566393 340.46151319518685 L 0 397.205098727718 L -70.92948191566393 340.46151319518685 Z"/></g><g transform="rotate(180)"><path d="M 0 283.7179276626557 L 70.92948191566393 340.46151319518685 L 0 397.205098727718 L -70.92948191566393 340.46151319518685 Z"/></g><g transform="rotate(216)"><path d="M 0 283.7179276626557 L 70.92948191566393 340.46151319518685 L 0 397.205098727718 L -70.92948191566393 340.46151319518685 Z"/></g><g transform="rotate(252)"><path d="M 0 283.7179276626557 L 70.92948191566393 340.46151319518685 L 0 397.205098727718 L -70.92948191566393 340.46151319518685 Z"/></g><g transform="rotate(288)"><path d="M 0 283.7179276626557 L 70.92948191566393 340.46151319518685 L 0 397.205098727718 L -70.92948191566393 340.46151319518685 Z"/></g><g transform="rotate(324)"><path d="M 0 283.7179276626557 L 70.92948191566393 340.46151319518685 L 0 397.205098727718 L -70.92948191566393 340.46151319518685 Z"/></g></g></svg>