<svg xmlns="http://www.w3.org/2000/svg" viewBox="0 0 800 800" width="800" height="800">
    <rect width="100%" height="100%" fill="white"/>
    <g transform="translate(400, 400)" fill="none" stroke="black" stroke-width="4" stroke-linecap="round" stroke-linejoin="round"><g transform="rotate(0)"><path d="M 0 51.06782835442573 Q 17.022609451475244 61.281394025310874 0 76.60174253163859 Q -17.022609451475244 61.281394025310874 0 51.06782835442573"/></g><g transform="rotate(22.5)"><path d="M 0 51.06782835442573 Q 17.022609451475244 61.281394025310874 0 76.60174253163859 Q -17.022609451475244 61.281394025310874 0 51.06782835442573"/></g><g transform="rotate(45)"><path d="M 0 51.06782835442573 Q 17.022609451475244 61.281394025310874 0 76.60174253163859 Q -17.022609451475244 61.281394025310874 0 51.06782835442573"/></g><g transform="rotate(67.5)"><path d="M 0 51.06782835442573 Q 17.022609451475244 61.281394025310874 0 76.60174253163859 Q -17.022609451475244 61.281394025310874 0 51.06782835442573"/></g><g transform="rotate(90)"><path d="M 0 51.06782835442573 Q 17.022609451475244 61.281394025310874 0 76.60174253163859 Q -17.022609451475244 61.281394025310874 0 51.06782835442573"/></g><g transform="rotate(112.5)"><path d="M 0 51.06782835442573 Q 17.022609451475244 61.281394025310874 0 76.60174253163859 Q -17.022609451475244 61.281394025310874 0 51.06782835442573"/></g><g transform="rotate(135)"><path d="M 0 51.06782835442573 Q 17.022609451475244 61.281394025310874 0 76.60174253163859 Q -17.022609451475244 61.281394025310874 0 51.06782835442573"/></g><g transform="rotate(157.5)"><path d="M 0 51.06782835442573 Q 17.022609451475244 61.281394025310874 0 76.60174253163859 Q -17.022609451475244 61.281394025310874 0 51.06782835442573"/></g><g transform="rotate(180)"><path d="M 0 51.06782835442573 Q 17.022609451475244 61.281394025310874 0 76.60174253163859 Q -17.022609451475244 61.281394025310874 0 51.06782835442573"/></g><g transform="rotate(202.5)"><path d="M 0 51.06782835442573 Q 17.022609451475244 61.281394025310874 0 76.60174253163859 Q -17.022609451475244 61.281394025310874 0 51.06782835442573"/></g><g transform="rotate(225)"><path d="M 0 51.06782835442573 Q 17.022609451475244 61.281394025310874 0 76.60174253163859 Q -17.022609451475244 61.281394025310874 0 51.06782835442573"/></g><g transform="rotate(247.5)"><path d="M 0 51.06782835442573 Q 17.022609451475244 61.281394025310874 0 76.60174253163859 Q -17.022609451475244 61.281394025310874 0 51.06782835442573"/></g><g transform="rotate(270)"><path d="M 0 51.06782835442573 Q 17.022609451475244 61.281394025310874 0 76.60174253163859 Q -17.022609451475244 61.281394025310874 0 51.06782835442573"/></g><g transform="rotate(292.5)"><path d="M 0 51.06782835442573 Q 17.022609451475244 61.281394025310874 0 76.60174253163859 Q -17.022609451475244 61.281394025310874 0 51.06782835442573"/></g><g transform="rotate(315)"><path d="M 0 51.06782835442573 Q 17.022609451475244 61.281394025310874 0 76.60174253163859 Q -17.022609451475244 61.281394025310874 0 51.06782835442573"/></g><g transform="rotate(337.5)"><path d="M 0 51.06782835442573 Q 17.022609451475244 61.281394025310874 0 76.60174253163859 Q -17.022609451475244 61.281394025310874 0 51.06782835442573"/></g><g transform="rotate(0)"><path d="M 0 88.15116015314642 Q 29.383720051048808 105.78139218377571 0 132.22674022971964 Q -29.383720051048808 105.78139218377571 0 88.15116015314642"/></g><g transform="rotate(22.5)"><path d="M 0 88.15116015314642 Q 29.383720051048808 105.78139218377571 0 132.22674022971964 Q -29.383720051048808 105.78139218377571 0 88.15116015314642"/></g><g transform="rotate(45)"><path d="M 0 88.15116015314642 Q 29.383720051048808 105.78139218377571 0 132.22674022971964 Q -29.383720051048808 105.78139218377571 0 88.15116015314642"/></g><g transform="rotate(67.5)"><path d="M 0 88.15116015314642 Q 29.383720051048808 105.78139218377571 0 132.22674022971964 Q -29.383720051048808 105.78139218377571 0 88.15116015314642"/></g><g transform="rotate(90)"><path d="M 0 88.15116015314642 Q 29.383720051048808 105.78139218377571 0 132.22674022971964 Q -29.383720051048808 105.78139218377571 0 88.15116015314642"/></g><g transform="rotate(112.5)"><path d="M 0 88.15116015314642 Q 29.383720051048808 105.78139218377571 0 132.22674022971964 Q -29.383720051048808 105.78139218377571 0 88.15116015314642"/></g><g transform="rotate(135)"><path d="M 0 88.15116015314642 Q 29.383720051048808 105.78139218377571 0 132.22674022971964 Q -29.383720051048808 105.78139218377571 0 88.15116015314642"/></g><g transform="rotate(157.5)"><path d="M 0 88.15116015314642 Q 29.383720051048808 105.78139218377571 0 132.22674022971964 Q -29.383720051048808 105.78139218377571 0 88.15116015314642"/></g><g transform="rotate(180)"><path d="M 0 88.15116015314642 Q 29.383720051048808 105.78139218377571 0 132.22674022971964 Q -29.383720051048808 105.78139218377571 0 88.15116015314642"/></g><g transform="rotate(202.5)"><path d="M 0 88.15116015314642 Q 29.383720051048808 105.78139218377571 0 132.22674022971964 Q -29.383720051048808 105.78139218377571 0 88.15116015314642"/></g><g transform="rotate(225)"><path d="M 0 88.15116015314642 Q 29.383720051048808 105.78139218377571 0 132.22674022971964 Q -29.383720051048808 105.78139218377571 0 88.15116015314642"/></g><g transform="rotate(247.5)"><path d="M 0 88.15116015314642 Q 29.383720051048808 105.78139218377571 0 132.22674022971964 Q -29.383720051048808 105.78139218377571 0 88.15116015314642"/></g><g transform="rotate(270)"><path d="M 0 88.15116015314642 Q 29.383720051048808 105.78139218377571 0 132.22674022971964 Q -29.383720051048808 105.78139218377571 0 88.15116015314642"/></g><g transform="rotate(292.5)"><path d="M 0 88.15116015314642 Q 29.383720051048808 105.78139218377571 0 132.22674022971964 Q -29.383720051048808 105.78139218377571 0 88.15116015314642"/></g><g transform="rotate(315)"><path d="M 0 88.15116015314642 Q 29.383720051048808 105.78139218377571 0 132.22674022971964 Q -29.383720051048808 105.78139218377571 0 88.15116015314642"/></g><g transform="rotate(337.5)"><path d="M 0 88.15116015314642 Q 29.383720051048808 105.78139218377571 0 132.22674022971964 Q -29.383720051048808 105.78139218377571 0 88.15116015314642"/></g><g transform="rotate(0)"><circle cx="0" cy="124.06256576637841" r="31.015641441594603"/></g><g transform="rotate(22.5)"><circle cx="0" cy="124.06256576637841" r="31.015641441594603"/></g><g transform="rotate(45)"><circle cx="0" cy="124.06256576637841" r="31.015641441594603"/></g><g transform="rotate(67.5)"><circle cx="0" cy="124.06256576637841" r="31.015641441594603"/></g><g transform="rotate(90)"><circle cx="0" cy="124.06256576637841" r="31.015641441594603"/></g><g transform="rotate(112.5)"><circle cx="0" cy="124.06256576637841" r="31.015641441594603"/></g><g transform="rotate(135)"><circle cx="0" cy="124.06256576637841" r="31.015641441594603"/></g><g transform="rotate(157.5)"><circle cx="0" cy="124.06256576637841" r="31.015641441594603"/></g><g transform="rotate(180)"><circle cx="0" cy="124.06256576637841" r="31.015641441594603"/></g><g transform="rotate(202.5)"><circle cx="0" cy="124.06256576637841" r="31.015641441594603"/></g><g transform="rotate(225)"><circle cx="0" cy="124.06256576637841" r="31.015641441594603"/></g><g transform="rotate(247.5)"><circle cx="0" cy="124.06256576637841" r="31.015641441594603"/></g><g transform="rotate(270)"><circle cx="0" cy="124.06256576637841" r="31.015641441594603"/></g><g transform="rotate(292.5)"><circle cx="0" cy="124.06256576637841" r="31.015641441594603"/></g><g transform="rotate(315)"><circle cx="0" cy="124.06256576637841" r="31.015641441594603"/></g><g transform="rotate(337.5)"><circle cx="0" cy="124.06256576637841" r="31.015641441594603"/></g><g transform="rotate(0)"><circle cx="0" cy="161.61136290213716" r="40.40284072553429"/></g><g transform="rotate(22.5)"><circle cx="0" cy="161.61136290213716" r="40.40284072553429"/></g><g transform="rotate(45)"><circle cx="0" cy="161.61136290213716" r="40.40284072553429"/></g><g transform="rotate(67.5)"><circle cx="0" cy="161.61136290213716" r="40.40284072553429"/></g><g transform="rotate(90)"><circle cx="0" cy="161.61136290213716" r="40.40284072553429"/></g><g transform="rotate(112.5)"><circle cx="0" cy="161.61136290213716" r="40.40284072553429"/></g><g transform="rotate(135)"><circle cx="0" cy="161.61136290213716" r="40.40284072553429"/></g><g transform="rotate(157.5)"><circle cx="0" cy="161.61136290213716" r="40.40284072553429"/></g><g transform="rotate(180)"><circle cx="0" cy="161.61136290213716" r="40.40284072553429"/></g><g transform="rotate(202.5)"><circle cx="0" cy="161.61136290213716" r="40.40284072553429"/></g><g transform="rotate(225)"><circle cx="0" cy="161.61136290213716" r="40.40284072553429"/></g><g transform="rotate(247.5)"><circle cx="0" cy="161.61136290213716" r="40.40284072553429"/></g><g transform="rotate(270)"><circle cx="0" cy="161.61136290213716" r="40.40284072553429"/></g><g transform="rotate(292.5)"><circle cx="0" cy="161.61136290213716" r="40.40284072553429"/></g><g transform="rotate(315)"><circle cx="0" cy="161.61136290213716" r="40.40284072553429"/></g><g transform="rotate(337.5)"><circle cx="0" cy="161.61136290213716" r="40.40284072553429"/></g><g transform="rotate(0)"><path d="M 0 191.5604033947198 Q 63.85346779823993 229.87248407366374 0 287.3406050920797 Q -63.85346779823993 229.87248407366374 0 191.5604033947198"/></g><g transform="rotate(22.5)"><path d="M 0 191.5604033947198 Q 63.85346779823993 229.87248407366374 0 287.3406050920797 Q -63.85346779823993 229.87248407366374 0 191.5604033947198"/></g><g transform="rotate(45)"><path d="M 0 191.5604033947198 Q 63.85346779823993 229.87248407366374 0 287.3406050920797 Q -63.85346779823993 229.87248407366374 0 191.5604033947198"/></g><g transform="rotate(67.5)"><path d="M 0 191.5604033947198 Q 63.85346779823993 229.87248407366374 0 287.3406050920797 Q -63.85346779823993 229.87248407366374 0 191.5604033947198"/></g><g transform="rotate(90)"><path d="M 0 191.5604033947198 Q 63.85346779823993 229.87248407366374 0 287.3406050920797 Q -63.85346779823993 229.87248407366374 0 191.5604033947198"/></g><g transform="rotate(112.5)"><path d="M 0 191.5604033947198 Q 63.85346779823993 229.87248407366374 0 287.3406050920797 Q -63.85346779823993 229.87248407366374 0 191.5604033947198"/></g><g transform="rotate(135)"><path d="M 0 191.5604033947198 Q 63.85346779823993 229.87248407366374 0 287.3406050920797 Q -63.85346779823993 229.87248407366374 0 191.5604033947198"/></g><g transform="rotate(157.5)"><path d="M 0 191.5604033947198 Q 63.85346779823993 229.87248407366374 0 287.3406050920797 Q -63.85346779823993 229.87248407366374 0 191.5604033947198"/></g><g transform="rotate(180)"><path d="M 0 191.5604033947198 Q 63.85346779823993 229.87248407366374 0 287.3406050920797 Q -63.85346779823993 229.87248407366374 0 191.5604033947198"/></g><g transform="rotate(202.5)"><path d="M 0 191.5604033947198 Q 63.85346779823993 229.87248407366374 0 287.3406050920797 Q -63.85346779823993 229.87248407366374 0 191.5604033947198"/></g><g transform="rotate(225)"><path d="M 0 191.5604033947198 Q 63.85346779823993 229.87248407366374 0 287.3406050920797 Q -63.85346779823993 229.87248407366374 0 191.5604033947198"/></g><g transform="rotate(247.5)"><path d="M 0 191.5604033947198 Q 63.85346779823993 229.87248407366374 0 287.3406050920797 Q -63.85346779823993 229.87248407366374 0 191.5604033947198"/></g><g transform="rotate(270)"><path d="M 0 191.5604033947198 Q 63.85346779823993 229.87248407366374 0 287.3406050920797 Q -63.85346779823993 229.87248407366374 0 191.5604033947198"/></g><g transform="rotate(292.5)"><path d="M 0 191.5604033947198 Q 63.85346779823993 229.87248407366374 0 287.3406050920797 Q -63.85346779823993 229.87248407366374 0 191.5604033947198"/></g><g transform="rotate(315)"><path d="M 0 191.5604033947198 Q 63.85346779823993 229.87248407366374 0 287.3406050920797 Q -63.85346779823993 229.87248407366374 0 191.5604033947198"/></g><g transform="rotate(337.5)"><path d="M 0 191.5604033947198 Q 63.85346779823993 229.87248407366374 0 287.3406050920797 Q -63.85346779823993 229.87248407366374 0 191.5604033947198"/></g><g transform="rotate(0)"><path d="M 0 227.9555486075373 L 0 296.3422131897985"/></g><g transform="rotate(22.5)"><path d="M 0 227.9555486075373 L 0 296.3422131897985"/></g><g transform="rotate(45)"><path d="M 0 227.9555486075373 L 0 296.3422131897985"/></g><g transform="rotate(67.5)"><path d="M 0 227.9555486075373 L 0 296.3422131897985"/></g><g transform="rotate(90)"><path d="M 0 227.9555486075373 L 0 296.3422131897985"/></g><g transform="rotate(112.5)"><path d="M 0 227.9555486075373 L 0 296.3422131897985"/></g><g transform="rotate(135)"><path d="M 0 227.9555486075373 L 0 296.3422131897985"/></g><g transform="rotate(157.5)"><path d="M 0 227.9555486075373 L 0 296.3422131897985"/></g><g transform="rotate(180)"><path d="M 0 227.9555486075373 L 0 296.3422131897985"/></g><g transform="rotate(202.5)"><path d="M 0 227.9555486075373 L 0 296.3422131897985"/></g><g transform="rotate(225)"><path d="M 0 227.9555486075373 L 0 296.3422131897985"/></g><g transform="rotate(247.5)"><path d="M 0 227.9555486075373 L 0 296.3422131897985"/></g><g transform="rotate(270)"><path d="M 0 227.9555486075373 L 0 296.3422131897985"/></g><g transform="rotate(292.5)"><path d="M 0 227.9555486075373 L 0 296.3422131897985"/></g><g transform="rotate(315)"><path d="M 0 227.9555486075373 L 0 296.3422131897985"/></g><g transform="rotate(337.5)"><path d="M 0 227.9555486075373 L 0 296.3422131897985"/></g><g transform="rotate(0)"><path d="M 0 258.61170001172775 L 0 336.19521001524606"/></g><g transform="rotate(22.5)"><path d="M 0 258.61170001172775 L 0 336.19521001524606"/></g><g transform="rotate(45)"><path d="M 0 258.61170001172775 L 0 336.19521001524606"/></g><g transform="rotate(67.5)"><path d="M 0 258.61170001172775 L 0 336.19521001524606"/></g><g transform="rotate(90)"><path d="M 0 258.61170001172775 L 0 336.19521001524606"/></g><g transform="rotate(112.5)"><path d="M 0 258.61170001172775 L 0 336.19521001524606"/></g><g transform="rotate(135)"><path d="M 0 258.61170001172775 L 0 336.19521001524606"/></g><g transform="rotate(157.5)"><path d="M 0 258.61170001172775 L 0 336.19521001524606"/></g><g transform="rotate(180)"><path d="M 0 258.61170001172775 L 0 336.19521001524606"/></g><g transform="rotate(202.5)"><path d="M 0 258.61170001172775 L 0 336.19521001524606"/></g><g transform="rotate(225)"><path d="M 0 258.61170001172775 L 0 336.19521001524606"/></g><g transform="rotate(247.5)"><path d="M 0 258.61170001172775 L 0 336.19521001524606"/></g><g transform="rotate(270)"><path d="M 0 258.61170001172775 L 0 336.19521001524606"/></g><g transform="rotate(292.5)"><path d="M 0 258.61170001172775 L 0 336.19521001524606"/></g><g transform="rotate(315)"><path d="M 0 258.61170001172775 L 0 336.19521001524606"/></g><g transform="rotate(337.5)"><path d="M 0 258.61170001172775 L 0 336.19521001524606"/></g><g transform="rotate(0)"><path d="M 0 304.2441544718006 L 76.06103861795015 365.0929853661607 L 0 425.9418162605208 L -76.06103861795015 365.0929853661607 Z"/></g><g transform="rotate(22.5)"><path d="M 0 304.2441544718006 L 76.06103861795015 365.0929853661607 L 0 425.9418162605208 L -76.06103861795015 365.0929853661607 Z"/></g><g transform="rotate(45)"><path d="M 0 304.2441544718006 L 76.06103861795015 365.0929853661607 L 0 425.9418162605208 L -76.06103861795015 365.0929853661607 Z"/></g><g transform="rotate(67.5)"><path d="M 0 304.2441544718006 L 76.06103861795015 365.0929853661607 L 0 425.9418162605208 L -76.06103861795015 365.0929853661607 Z"/></g><g transform="rotate(90)"><path d="M 0 304.2441544718006 L 76.06103861795015 365.0929853661607 L 0 425.9418162605208 L -76.06103861795015 365.0929853661607 Z"/></g><g transform="rotate(112.5)"><path d="M 0 304.2441544718006 L 76.06103861795015 365.0929853661607 L 0 425.9418162605208 L -76.06103861795015 365.0929853661607 Z"/></g><g transform="rotate(135)"><path d="M 0 304.2441544718006 L 76.06103861795015 365.0929853661607 L 0 425.9418162605208 L -76.06103861795015 365.0929853661607 Z"/></g><g transform="rotate(157.5)"><path d="M 0 304.2441544718006 L 76.06103861795015 365.0929853661607 L 0 425.9418162605208 L -76.06103861795015 365.0929853661607 Z"/></g><g transform="rotate(180)"><path d="M 0 304.2441544718006 L 76.06103861795015 365.0929853661607 L 0 425.9418162605208 L -76.06103861795015 365.0929853661607 Z"/></g><g transform="rotate(202.5)"><path d="M 0 304.2441544718006 L 76.06103861795015 365.0929853661607 L 0 425.9418162605208 L -76.06103861795015 365.0929853661607 Z"/></g><g transform="rotate(225)"><path d="M 0 304.2441544718006 L 76.06103861795015 365.0929853661607 L 0 425.9418162605208 L -76.06103861795015 365.0929853661607 Z"/></g><g transform="rotate(247.5)"><path d="M 0 304.2441544718006 L 76.06103861795015 365.0929853661607 L 0 425.9418162605208 L -76.06103861795015 365.0929853661607 Z"/></g><g transform="rotate(270)"><path d="M 0 304.2441544718006 L 76.06103861795015 365.0929853661607 L 0 425.9418162605208 L -76.06103861795015 365.0929853661607 Z"/></g><g transform="rotate(292.5)"><path d="M 0 304.2441544718006 L 76.06103861795015 365.0929853661607 L 0 425.9418162605208 L -76.06103861795015 365.0929853661607 Z"/></g><g transform="rotate(315)"><path d="M 0 304.2441544718006 L 76.06103861795015 365.0929853661607 L 0 425.9418162605208 L -76.06103861795015 365.0929853661607 Z"/></g><g transform="rotate(337.5)"><path d="M 0 304.2441544718006 L 76.06103861795015 365.0929853661607 L 0 425.9418162605208 L -76.06103861795015 365.0929853661607 Z"/></g><g transform="rotate(0)"><path d="M 0 333.3473350195628 L 83.3368337548907 400.01680202347535 L 0 466.68626902738794 L -83.3368337548907 400.01680202347535 Z"/></g><g transform="rotate(22.5)"><path d="M 0 333.3473350195628 L 83.3368337548907 400.01680202347535 L 0 466.68626902738794 L -83.3368337548907 400.01680202347535 Z"/></g><g transform="rotate(45)"><path d="M 0 333.3473350195628 L 83.3368337548907 400.01680202347535 L 0 466.68626902738794 L -83.3368337548907 400.01680202347535 Z"/></g><g transform="rotate(67.5)"><path d="M 0 333.3473350195628 L 83.3368337548907 400.01680202347535 L 0 466.68626902738794 L -83.3368337548907 400.01680202347535 Z"/></g><g transform="rotate(90)"><path d="M 0 333.3473350195628 L 83.3368337548907 400.01680202347535 L 0 466.68626902738794 L -83.3368337548907 400.01680202347535 Z"/></g><g transform="rotate(112.5)"><path d="M 0 333.3473350195628 L 83.3368337548907 400.01680202347535 L 0 466.68626902738794 L -83.3368337548907 400.01680202347535 Z"/></g><g transform="rotate(135)"><path d="M 0 333.3473350195628 L 83.3368337548907 400.01680202347535 L 0 466.68626902738794 L -83.3368337548907 400.01680202347535 Z"/></g><g transform="rotate(157.5)"><path d="M 0 333.3473350195628 L 83.3368337548907 400.01680202347535 L 0 466.68626902738794 L -83.3368337548907 400.01680202347535 Z"/></g><g transform="rotate(180)"><path d="M 0 333.3473350195628 L 83.3368337548907 400.01680202347535 L 0 466.68626902738794 L -83.3368337548907 400.01680202347535 Z"/></g><g transform="rotate(202.5)"><path d="M 0 333.3473350195628 L 83.3368337548907 400.01680202347535 L 0 466.68626902738794 L -83.3368337548907 400.01680202347535 Z"/></g><g transform="rotate(225)"><path d="M 0 333.3473350195628 L 83.3368337548907 400.01680202347535 L 0 466.68626902738794 L -83.3368337548907 400.01680202347535 Z"/></g><g transform="rotate(247.5)"><path d="M 0 333.3473350195628 L 83.3368337548907 400.01680202347535 L 0 466.68626902738794 L -83.3368337548907 400.01680202347535 Z"/></g><g transform="rotate(270)"><path d="M 0 333.3473350195628 L 83.3368337548907 400.01680202347535 L 0 466.68626902738794 L -83.3368337548907 400.01680202347535 Z"/></g><g transform="rotate(292.5)"><path d="M 0 333.3473350195628 L 83.3368337548907 400.01680202347535 L 0 466.68626902738794 L -83.3368337548907 400.01680202347535 Z"/></g><g transform="rotate(315)"><path d="M 0 333.3473350195628 L 83.3368337548907 400.01680202347535 L 0 466.68626902738794 L -83.3368337548907 400.01680202347535 Z"/></g><g transform="rotate(337.5)"><path d="M 0 333.3473350195628 L 83.3368337548907 400.01680202347535 L 0 466.68626902738794 L -83.3368337548907 400.01680202347535 Z"/></g></g></svg>