<svg xmlns="http://www.w3.org/2000/svg" viewBox="0 0 800 800" width="800" height="800">
    <rect width="100%" height="100%" fill="white"/>
    <g transform="translate(400, 400)" fill="none" stroke="black" stroke-width="4" stroke-linecap="round" stroke-linejoin="round"><g transform="rotate(0)"><path d="M 0 43.22531934361905 L 10.806329835904762 51.87038321234286 L 0 60.51544708106666 L -10.806329835904762 51.87038321234286 Z"/></g><g transform="rotate(22.5)"><path d="M 0 43.22531934361905 L 10.806329835904762 51.87038321234286 L 0 60.51544708106666 L -10.806329835904762 51.87038321234286 Z"/></g><g transform="rotate(45)"><path d="M 0 43.22531934361905 L 10.806329835904762 51.87038321234286 L 0 60.51544708106666 L -10.806329835904762 51.87038321234286 Z"/></g><g transform="rotate(67.5)"><path d="M 0 43.22531934361905 L 10.806329835904762 51.87038321234286 L 0 60.51544708106666 L -10.806329835904762 51.87038321234286 Z"/></g><g transform="rotate(90)"><path d="M 0 43.22531934361905 L 10.806329835904762 51.87038321234286 L 0 60.51544708106666 L -10.806329835904762 51.87038321234286 Z"/></g><g transform="rotate(112.5)"><path d="M 0 43.22531934361905 L 10.806329835904762 51.87038321234286 L 0 60.51544708106666 L -10.806329835904762 51.87038321234286 Z"/></g><g transform="rotate(135)"><path d="M 0 43.22531934361905 L 10.806329835904762 51.87038321234286 L 0 60.51544708106666 L -10.806329835904762 51.87038321234286 Z"/></g><g transform="rotate(157.5)"><path d="M 0 43.22531934361905 L 10.806329835904762 51.87038321234286 L 0 60.51544708106666 L -10.806329835904762 51.87038321234286 Z"/></g><g transform="rotate(180)"><path d="M 0 43.22531934361905 L 10.806329835904762 51.87038321234286 L 0 60.51544708106666 L -10.806329835904762 51.87038321234286 Z"/></g><g transform="rotate(202.5)"><path d="M 0 43.22531934361905 L 10.806329835904762 51.87038321234286 L 0 60.51544708106666 L -10.806329835904762 51.87038321234286 Z"/></g><g transform="rotate(225)"><path d="M 0 43.22531934361905 L 10.806329835904762 51.87038321234286 L 0 60.51544708106666 L -10.806329835904762 51.87038321234286 Z"/></g><g transform="rotate(247.5)"><path d="M 0 43.22531934361905 L 10.806329835904762 51.87038321234286 L 0 60.51544708106666 L -10.806329835904762 51.87038321234286 Z"/></g><g transform="rotate(270)"><path d="M 0 43.22531934361905 L 10.806329835904762 51.87038321234286 L 0 60.51544708106666 L -10.806329835904762 51.87038321234286 Z"/></g><g transform="rotate(292.5)"><path d="M 0 43.22531934361905 L 10.806329835904762 51.87038321234286 L 0 60.51544708106666 L -10.806329835904762 51.87038321234286 Z"/></g><g transform="rotate(315)"><path d="M 0 43.22531934361905 L 10.806329835904762 51.87038321234286 L 0 60.51544708106666 L -10.806329835904762 51.87038321234286 Z"/></g><g transform="rotate(337.5)"><path d="M 0 43.22531934361905 L 10.806329835904762 51.87038321234286 L 0 60.51544708106666 L -10.806329835904762 51.87038321234286 Z"/></g><g transform="rotate(0)"><path d="M 0 86.35136012039665 L 21.587840030099162 103.62163214447598 L 0 120.8919041685553 L -21.587840030099162 103.62163214447598 Z"/></g><g transform="rotate(22.5)"><path d="M 0 86.35136012039665 L 21.587840030099162 103.62163214447598 L 0 120.8919041685553 L -21.587840030099162 103.62163214447598 Z"/></g><g transform="rotate(45)"><path d="M 0 86.35136012039665 L 21.587840030099162 103.62163214447598 L 0 120.8919041685553 L -21.587840030099162 103.62163214447598 Z"/></g><g transform="rotate(67.5)"><path d="M 0 86.35136012039665 L 21.587840030099162 103.62163214447598 L 0 120.8919041685553 L -21.587840030099162 103.62163214447598 Z"/></g><g transform="rotate(90)"><path d="M 0 86.35136012039665 L 21.587840030099162 103.62163214447598 L 0 120.8919041685553 L -21.587840030099162 103.62163214447598 Z"/></g><g transform="rotate(112.5)"><path d="M 0 86.35136012039665 L 21.587840030099162 103.62163214447598 L 0 120.8919041685553 L -21.587840030099162 103.62163214447598 Z"/></g><g transform="rotate(135)"><path d="M 0 86.35136012039665 L 21.587840030099162 103.62163214447598 L 0 120.8919041685553 L -21.587840030099162 103.62163214447598 Z"/></g><g transform="rotate(157.5)"><path d="M 0 86.35136012039665 L 21.587840030099162 103.62163214447598 L 0 120.8919041685553 L -21.587840030099162 103.62163214447598 Z"/></g><g transform="rotate(180)"><path d="M 0 86.35136012039665 L 21.587840030099162 103.62163214447598 L 0 120.8919041685553 L -21.587840030099162 103.62163214447598 Z"/></g><g transform="rotate(202.5)"><path d="M 0 86.35136012039665 L 21.587840030099162 103.62163214447598 L 0 120.8919041685553 L -21.587840030099162 103.62163214447598 Z"/></g><g transform="rotate(225)"><path d="M 0 86.35136012039665 L 21.587840030099162 103.62163214447598 L 0 120.8919041685553 L -21.587840030099162 103.62163214447598 Z"/></g><g transform="rotate(247.5)"><path d="M 0 86.35136012039665 L 21.587840030099162 103.62163214447598 L 0 120.8919041685553 L -21.587840030099162 103.62163214447598 Z"/></g><g transform="rotate(270)"><path d="M 0 86.35136012039665 L 21.587840030099162 103.62163214447598 L 0 120.8919041685553 L -21.587840030099162 103.62163214447598 Z"/></g><g transform="rotate(292.5)"><path d="M 0 86.35136012039665 L 21.587840030099162 103.62163214447598 L 0 120.8919041685553 L -21.587840030099162 103.62163214447598 Z"/></g><g transform="rotate(315)"><path d="M 0 86.35136012039665 L 21.587840030099162 103.62163214447598 L 0 120.8919041685553 L -21.587840030099162 103.62163214447598 Z"/></g><g transform="rotate(337.5)"><path d="M 0 86.35136012039665 L 21.587840030099162 103.62163214447598 L 0 120.8919041685553 L -21.587840030099162 103.62163214447598 Z"/></g><g transform="rotate(0)"><path d="M 0 116.2452467215351 Q 38.74841557384503 139.49429606584212 0 174.36787008230266 Q -38.74841557384503 139.49429606584212 0 116.2452467215351"/></g><g transform="rotate(22.5)"><path d="M 0 116.2452467215351 Q 38.74841557384503 139.49429606584212 0 174.36787008230266 Q -38.74841557384503 139.49429606584212 0 116.2452467215351"/></g><g transform="rotate(45)"><path d="M 0 116.2452467215351 Q 38.74841557384503 139.49429606584212 0 174.36787008230266 Q -38.74841557384503 139.49429606584212 0 116.2452467215351"/></g><g transform="rotate(67.5)"><path d="M 0 116.2452467215351 Q 38.74841557384503 139.49429606584212 0 174.36787008230266 Q -38.74841557384503 139.49429606584212 0 116.2452467215351"/></g><g transform="rotate(90)"><path d="M 0 116.2452467215351 Q 38.74841557384503 139.49429606584212 0 174.36787008230266 Q -38.74841557384503 139.49429606584212 0 116.2452467215351"/></g><g transform="rotate(112.5)"><path d="M 0 116.2452467215351 Q 38.74841557384503 139.49429606584212 0 174.36787008230266 Q -38.74841557384503 139.49429606584212 0 116.2452467215351"/></g><g transform="rotate(135)"><path d="M 0 116.2452467215351 Q 38.74841557384503 139.49429606584212 0 174.36787008230266 Q -38.74841557384503 139.49429606584212 0 116.2452467215351"/></g><g transform="rotate(157.5)"><path d="M 0 116.2452467215351 Q 38.74841557384503 139.49429606584212 0 174.36787008230266 Q -38.74841557384503 139.49429606584212 0 116.2452467215351"/></g><g transform="rotate(180)"><path d="M 0 116.2452467215351 Q 38.74841557384503 139.49429606584212 0 174.36787008230266 Q -38.74841557384503 139.49429606584212 0 116.2452467215351"/></g><g transform="rotate(202.5)"><path d="M 0 116.2452467215351 Q 38.74841557384503 139.49429606584212 0 174.36787008230266 Q -38.74841557384503 139.49429606584212 0 116.2452467215351"/></g><g transform="rotate(225)"><path d="M 0 116.2452467215351 Q 38.74841557384503 139.49429606584212 0 174.36787008230266 Q -38.74841557384503 139.49429606584212 0 116.2452467215351"/></g><g transform="rotate(247.5)"><path d="M 0 116.2452467215351 Q 38.74841557384503 139.49429606584212 0 174.36787008230266 Q -38.74841557384503 139.49429606584212 0 116.2452467215351"/></g><g transform="rotate(270)"><path d="M 0 116.2452467215351 Q 38.74841557384503 139.49429606584212 0 174.36787008230266 Q -38.74841557384503 139.49429606584212 0 116.2452467215351"/></g><g transform="rotate(292.5)"><path d="M 0 116.2452467215351 Q 38.74841557384503 139.49429606584212 0 174.36787008230266 Q -38.74841557384503 139.49429606584212 0 116.2452467215351"/></g><g transform="rotate(315)"><path d="M 0 116.2452467215351 Q 38.74841557384503 139.49429606584212 0 174.36787008230266 Q -38.74841557384503 139.49429606584212 0 116.2452467215351"/></g><g transform="rotate(337.5)"><path d="M 0 116.2452467215351 Q 38.74841557384503 139.49429606584212 0 174.36787008230266 Q -38.74841557384503 139.49429606584212 0 116.2452467215351"/></g><g transform="rotate(0)"><path d="M -36.85521762158412 147.42087048633647 Q 0 176.90504458360377 36.85521762158412 147.42087048633647"/></g><g transform="rotate(22.5)"><path d="M -36.85521762158412 147.42087048633647 Q 0 176.90504458360377 36.85521762158412 147.42087048633647"/></g><g transform="rotate(45)"><path d="M -36.85521762158412 147.42087048633647 Q 0 176.90504458360377 36.85521762158412 147.42087048633647"/></g><g transform="rotate(67.5)"><path d="M -36.85521762158412 147.42087048633647 Q 0 176.90504458360377 36.85521762158412 147.42087048633647"/></g><g transform="rotate(90)"><path d="M -36.85521762158412 147.42087048633647 Q 0 176.90504458360377 36.85521762158412 147.42087048633647"/></g><g transform="rotate(112.5)"><path d="M -36.85521762158412 147.42087048633647 Q 0 176.90504458360377 36.85521762158412 147.42087048633647"/></g><g transform="rotate(135)"><path d="M -36.85521762158412 147.42087048633647 Q 0 176.90504458360377 36.85521762158412 147.42087048633647"/></g><g transform="rotate(157.5)"><path d="M -36.85521762158412 147.42087048633647 Q 0 176.90504458360377 36.85521762158412 147.42087048633647"/></g><g transform="rotate(180)"><path d="M -36.85521762158412 147.42087048633647 Q 0 176.90504458360377 36.85521762158412 147.42087048633647"/></g><g transform="rotate(202.5)"><path d="M -36.85521762158412 147.42087048633647 Q 0 176.90504458360377 36.85521762158412 147.42087048633647"/></g><g transform="rotate(225)"><path d="M -36.85521762158412 147.42087048633647 Q 0 176.90504458360377 36.85521762158412 147.42087048633647"/></g><g transform="rotate(247.5)"><path d="M -36.85521762158412 147.42087048633647 Q 0 176.90504458360377 36.85521762158412 147.42087048633647"/></g><g transform="rotate(270)"><path d="M -36.85521762158412 147.42087048633647 Q 0 176.90504458360377 36.85521762158412 147.42087048633647"/></g><g transform="rotate(292.5)"><path d="M -36.85521762158412 147.42087048633647 Q 0 176.90504458360377 36.85521762158412 147.42087048633647"/></g><g transform="rotate(315)"><path d="M -36.85521762158412 147.42087048633647 Q 0 176.90504458360377 36.85521762158412 147.42087048633647"/></g><g transform="rotate(337.5)"><path d="M -36.85521762158412 147.42087048633647 Q 0 176.90504458360377 36.85521762158412 147.42087048633647"/></g><g transform="rotate(0)"><path d="M -46.83304774975922 187.33219099903687 Q 0 224.79862919884422 46.83304774975922 187.33219099903687"/></g><g transform="rotate(22.5)"><path d="M -46.83304774975922 187.33219099903687 Q 0 224.79862919884422 46.83304774975922 187.33219099903687"/></g><g transform="rotate(45)"><path d="M -46.83304774975922 187.33219099903687 Q 0 224.79862919884422 46.83304774975922 187.33219099903687"/></g><g transform="rotate(67.5)"><path d="M -46.83304774975922 187.33219099903687 Q 0 224.79862919884422 46.83304774975922 187.33219099903687"/></g><g transform="rotate(90)"><path d="M -46.83304774975922 187.33219099903687 Q 0 224.79862919884422 46.83304774975922 187.33219099903687"/></g><g transform="rotate(112.5)"><path d="M -46.83304774975922 187.33219099903687 Q 0 224.79862919884422 46.83304774975922 187.33219099903687"/></g><g transform="rotate(135)"><path d="M -46.83304774975922 187.33219099903687 Q 0 224.79862919884422 46.83304774975922 187.33219099903687"/></g><g transform="rotate(157.5)"><path d="M -46.83304774975922 187.33219099903687 Q 0 224.79862919884422 46.83304774975922 187.33219099903687"/></g><g transform="rotate(180)"><path d="M -46.83304774975922 187.33219099903687 Q 0 224.79862919884422 46.83304774975922 187.33219099903687"/></g><g transform="rotate(202.5)"><path d="M -46.83304774975922 187.33219099903687 Q 0 224.79862919884422 46.83304774975922 187.33219099903687"/></g><g transform="rotate(225)"><path d="M -46.83304774975922 187.33219099903687 Q 0 224.79862919884422 46.83304774975922 187.33219099903687"/></g><g transform="rotate(247.5)"><path d="M -46.83304774975922 187.33219099903687 Q 0 224.79862919884422 46.83304774975922 187.33219099903687"/></g><g transform="rotate(270)"><path d="M -46.83304774975922 187.33219099903687 Q 0 224.79862919884422 46.83304774975922 187.33219099903687"/></g><g transform="rotate(292.5)"><path d="M -46.83304774975922 187.33219099903687 Q 0 224.79862919884422 46.83304774975922 187.33219099903687"/></g><g transform="rotate(315)"><path d="M -46.83304774975922 187.33219099903687 Q 0 224.79862919884422 46.83304774975922 187.33219099903687"/></g><g transform="rotate(337.5)"><path d="M -46.83304774975922 187.33219099903687 Q 0 224.79862919884422 46.83304774975922 187.33219099903687"/></g><g transform="rotate(0)"><path d="M 0 232.29200592523233 Q 77.4306686417441 278.7504071102788 0 348.43800888784847 Q -77.4306686417441 278.7504071102788 0 232.29200592523233"/></g><g transform="rotate(22.5)"><path d="M 0 232.29200592523233 Q 77.4306686417441 278.7504071102788 0 348.43800888784847 Q -77.4306686417441 278.7504071102788 0 232.29200592523233"/></g><g transform="rotate(45)"><path d="M 0 232.29200592523233 Q 77.4306686417441 278.7504071102788 0 348.43800888784847 Q -77.4306686417441 278.7504071102788 0 232.29200592523233"/></g><g transform="rotate(67.5)"><path d="M 0 232.29200592523233 Q 77.4306686417441 278.7504071102788 0 348.43800888784847 Q -77.4306686417441 278.7504071102788 0 232.29200592523233"/></g><g transform="rotate(90)"><path d="M 0 232.29200592523233 Q 77.4306686417441 278.7504071102788 0 348.43800888784847 Q -77.4306686417441 278.7504071102788 0 232.29200592523233"/></g><g transform="rotate(112.5)"><path d="M 0 232.29200592523233 Q 77.4306686417441 278.7504071102788 0 348.43800888784847 Q -77.4306686417441 278.7504071102788 0 232.29200592523233"/></g><g transform="rotate(135)"><path d="M 0 232.29200592523233 Q 77.4306686417441 278.7504071102788 0 348.43800888784847 Q -77.4306686417441 278.7504071102788 0 232.29200592523233"/></g><g transform="rotate(157.5)"><path d="M 0 232.29200592523233 Q 77.4306686417441 278.7504071102788 0 348.43800888784847 Q -77.4306686417441 278.7504071102788 0 232.29200592523233"/></g><g transform="rotate(180)"><path d="M 0 232.29200592523233 Q 77.4306686417441 278.7504071102788 0 348.43800888784847 Q -77.4306686417441 278.7504071102788 0 232.29200592523233"/></g><g transform="rotate(202.5)"><path d="M 0 232.29200592523233 Q 77.4306686417441 278.7504071102788 0 348.43800888784847 Q -77.4306686417441 278.7504071102788 0 232.29200592523233"/></g><g transform="rotate(225)"><path d="M 0 232.29200592523233 Q 77.4306686417441 278.7504071102788 0 348.43800888784847 Q -77.4306686417441 278.7504071102788 0 232.29200592523233"/></g><g transform="rotate(247.5)"><path d="M 0 232.29200592523233 Q 77.4306686417441 278.7504071102788 0 348.43800888784847 Q -77.4306686417441 278.7504071102788 0 232.29200592523233"/></g><g transform="rotate(270)"><path d="M 0 232.29200592523233 Q 77.4306686417441 278.7504071102788 0 348.43800888784847 Q -77.4306686417441 278.7504071102788 0 232.29200592523233"/></g><g transform="rotate(292.5)"><path d="M 0 232.29200592523233 Q 77.4306686417441 278.7504071102788 0 348.43800888784847 Q -77.4306686417441 278.7504071102788 0 232.29200592523233"/></g><g transform="rotate(315)"><path d="M 0 232.29200592523233 Q 77.4306686417441 278.7504071102788 0 348.43800888784847 Q -77.4306686417441 278.7504071102788 0 232.29200592523233"/></g><g transform="rotate(337.5)"><path d="M 0 232.29200592523233 Q 77.4306686417441 278.7504071102788 0 348.43800888784847 Q -77.4306686417441 278.7504071102788 0 232.29200592523233"/></g><g transform="rotate(0)"><path d="M 0 256.6112408678358 Q 85.5370802892786 307.933489041403 0 384.9168613017537 Q -85.5370802892786 307.933489041403 0 256.6112408678358"/></g><g transform="rotate(22.5)"><path d="M 0 256.6112408678358 Q 85.5370802892786 307.933489041403 0 384.9168613017537 Q -85.5370802892786 307.933489041403 0 256.6112408678358"/></g><g transform="rotate(45)"><path d="M 0 256.6112408678358 Q 85.5370802892786 307.933489041403 0 384.9168613017537 Q -85.5370802892786 307.933489041403 0 256.6112408678358"/></g><g transform="rotate(67.5)"><path d="M 0 256.6112408678358 Q 85.5370802892786 307.933489041403 0 384.9168613017537 Q -85.5370802892786 307.933489041403 0 256.6112408678358"/></g><g transform="rotate(90)"><path d="M 0 256.6112408678358 Q 85.5370802892786 307.933489041403 0 384.9168613017537 Q -85.5370802892786 307.933489041403 0 256.6112408678358"/></g><g transform="rotate(112.5)"><path d="M 0 256.6112408678358 Q 85.5370802892786 307.933489041403 0 384.9168613017537 Q -85.5370802892786 307.933489041403 0 256.6112408678358"/></g><g transform="rotate(135)"><path d="M 0 256.6112408678358 Q 85.5370802892786 307.933489041403 0 384.9168613017537 Q -85.5370802892786 307.933489041403 0 256.6112408678358"/></g><g transform="rotate(157.5)"><path d="M 0 256.6112408678358 Q 85.5370802892786 307.933489041403 0 384.9168613017537 Q -85.5370802892786 307.933489041403 0 256.6112408678358"/></g><g transform="rotate(180)"><path d="M 0 256.6112408678358 Q 85.5370802892786 307.933489041403 0 384.9168613017537 Q -85.5370802892786 307.933489041403 0 256.6112408678358"/></g><g transform="rotate(202.5)"><path d="M 0 256.6112408678358 Q 85.5370802892786 307.933489041403 0 384.9168613017537 Q -85.5370802892786 307.933489041403 0 256.6112408678358"/></g><g transform="rotate(225)"><path d="M 0 256.6112408678358 Q 85.5370802892786 307.933489041403 0 384.9168613017537 Q -85.5370802892786 307.933489041403 0 256.6112408678358"/></g><g transform="rotate(247.5)"><path d="M 0 256.6112408678358 Q 85.5370802892786 307.933489041403 0 384.9168613017537 Q -85.5370802892786 307.933489041403 0 256.6112408678358"/></g><g transform="rotate(270)"><path d="M 0 256.6112408678358 Q 85.5370802892786 307.933489041403 0 384.9168613017537 Q -85.5370802892786 307.933489041403 0 256.6112408678358"/></g><g transform="rotate(292.5)"><path d="M 0 256.6112408678358 Q 85.5370802892786 307.933489041403 0 384.9168613017537 Q -85.5370802892786 307.933489041403 0 256.6112408678358"/></g><g transform="rotate(315)"><path d="M 0 256.6112408678358 Q 85.5370802892786 307.933489041403 0 384.9168613017537 Q -85.5370802892786 307.933489041403 0 256.6112408678358"/></g><g transform="rotate(337.5)"><path d="M 0 256.6112408678358 Q 85.5370802892786 307.933489041403 0 384.9168613017537 Q -85.5370802892786 307.933489041403 0 256.6112408678358"/></g><g transform="rotate(0)"><path d="M 0 305.6936225238153 Q 101.89787417460509 366.83234702857834 0 458.54043378572294 Q -101.89787417460509 366.83234702857834 0 305.6936225238153"/></g><g transform="rotate(22.5)"><path d="M 0 305.6936225238153 Q 101.89787417460509 366.83234702857834 0 458.54043378572294 Q -101.89787417460509 366.83234702857834 0 305.6936225238153"/></g><g transform="rotate(45)"><path d="M 0 305.6936225238153 Q 101.89787417460509 366.83234702857834 0 458.54043378572294 Q -101.89787417460509 366.83234702857834 0 305.6936225238153"/></g><g transform="rotate(67.5)"><path d="M 0 305.6936225238153 Q 101.89787417460509 366.83234702857834 0 458.54043378572294 Q -101.89787417460509 366.83234702857834 0 305.6936225238153"/></g><g transform="rotate(90)"><path d="M 0 305.6936225238153 Q 101.89787417460509 366.83234702857834 0 458.54043378572294 Q -101.89787417460509 366.83234702857834 0 305.6936225238153"/></g><g transform="rotate(112.5)"><path d="M 0 305.6936225238153 Q 101.89787417460509 366.83234702857834 0 458.54043378572294 Q -101.89787417460509 366.83234702857834 0 305.6936225238153"/></g><g transform="rotate(135)"><path d="M 0 305.6936225238153 Q 101.89787417460509 366.83234702857834 0 458.54043378572294 Q -101.89787417460509 366.83234702857834 0 305.6936225238153"/></g><g transform="rotate(157.5)"><path d="M 0 305.6936225238153 Q 101.89787417460509 366.83234702857834 0 458.54043378572294 Q -101.89787417460509 366.83234702857834 0 305.6936225238153"/></g><g transform="rotate(180)"><path d="M 0 305.6936225238153 Q 101.89787417460509 366.83234702857834 0 458.54043378572294 Q -101.89787417460509 366.83234702857834 0 305.6936225238153"/></g><g transform="rotate(202.5)"><path d="M 0 305.6936225238153 Q 101.89787417460509 366.83234702857834 0 458.54043378572294 Q -101.89787417460509 366.83234702857834 0 305.6936225238153"/></g><g transform="rotate(225)"><path d="M 0 305.6936225238153 Q 101.89787417460509 366.83234702857834 0 458.54043378572294 Q -101.89787417460509 366.83234702857834 0 305.6936225238153"/></g><g transform="rotate(247.5)"><path d="M 0 305.6936225238153 Q 101.89787417460509 366.83234702857834 0 458.54043378572294 Q -101.89787417460509 366.83234702857834 0 305.6936225238153"/></g><g transform="rotate(270)"><path d="M 0 305.6936225238153 Q 101.89787417460509 366.83234702857834 0 458.54043378572294 Q -101.89787417460509 366.83234702857834 0 305.6936225238153"/></g><g transform="rotate(292.5)"><path d="M 0 305.6936225238153 Q 101.89787417460509 366.83234702857834 0 458.54043378572294 Q -101.89787417460509 366.83234702857834 0 305.6936225238153"/></g><g transform="rotate(315)"><path d="M 0 305.6936225238153 Q 101.89787417460509 366.83234702857834 0 458.54043378572294 Q -101.89787417460509 366.83234702857834 0 305.6936225238153"/></g><g transform="rotate(337.5)"><path d="M 0 305.6936225238153 Q 101.89787417460509 366.83234702857834 0 458.54043378572294 Q -101.89787417460509 366.83234702857834 0 305.6936225238153"/></g><g transform="rotate(0)"><path d="M 0 334.7776296729636 L 83.6944074182409 401.7331556075563 L 0 468.688681542149 L -83.6944074182409 401.7331556075563 Z"/></g><g transform="rotate(22.5)"><path d="M 0 334.7776296729636 L 83.6944074182409 401.7331556075563 L 0 468.688681542149 L -83.6944074182409 401.7331556075563 Z"/></g><g transform="rotate(45)"><path d="M 0 334.7776296729636 L 83.6944074182409 401.7331556075563 L 0 468.688681542149 L -83.6944074182409 401.7331556075563 Z"/></g><g transform="rotate(67.5)"><path d="M 0 334.7776296729636 L 83.6944074182409 401.7331556075563 L 0 468.688681542149 L -83.6944074182409 401.7331556075563 Z"/></g><g transform="rotate(90)"><path d="M 0 334.7776296729636 L 83.6944074182409 401.7331556075563 L 0 468.688681542149 L -83.6944074182409 401.7331556075563 Z"/></g><g transform="rotate(112.5)"><path d="M 0 334.7776296729636 L 83.6944074182409 401.7331556075563 L 0 468.688681542149 L -83.6944074182409 401.7331556075563 Z"/></g><g transform="rotate(135)"><path d="M 0 334.7776296729636 L 83.6944074182409 401.7331556075563 L 0 468.688681542149 L -83.6944074182409 401.7331556075563 Z"/></g><g transform="rotate(157.5)"><path d="M 0 334.7776296729636 L 83.6944074182409 401.7331556075563 L 0 468.688681542149 L -83.6944074182409 401.7331556075563 Z"/></g><g transform="rotate(180)"><path d="M 0 334.7776296729636 L 83.6944074182409 401.7331556075563 L 0 468.688681542149 L -83.6944074182409 401.7331556075563 Z"/></g><g transform="rotate(202.5)"><path d="M 0 334.7776296729636 L 83.6944074182409 401.7331556075563 L 0 468.688681542149 L -83.6944074182409 401.7331556075563 Z"/></g><g transform="rotate(225)"><path d="M 0 334.7776296729636 L 83.6944074182409 401.7331556075563 L 0 468.688681542149 L -83.6944074182409 401.7331556075563 Z"/></g><g transform="rotate(247.5)"><path d="M 0 334.7776296729636 L 83.6944074182409 401.7331556075563 L 0 468.688681542149 L -83.6944074182409 401.7331556075563 Z"/></g><g transform="rotate(270)"><path d="M 0 334.7776296729636 L 83.6944074182409 401.7331556075563 L 0 468.688681542149 L -83.6944074182409 401.7331556075563 Z"/></g><g transform="rotate(292.5)"><path d="M 0 334.7776296729636 L 83.6944074182409 401.7331556075563 L 0 468.688681542149 L -83.6944074182409 401.7331556075563 Z"/></g><g transform="rotate(315)"><path d="M 0 334.7776296729636 L 83.6944074182409 401.7331556075563 L 0 468.688681542149 L -83.6944074182409 401.7331556075563 Z"/></g><g transform="rotate(337.5)"><path d="M 0 334.7776296729636 L 83.6944074182409 401.7331556075563 L 0 468.688681542149 L -83.6944074182409 401.7331556075563 Z"/></g></g></svg>