<svg xmlns="http://www.w3.org/2000/svg" viewBox="0 0 800 800" width="800" height="800">
    <rect width="100%" height="100%" fill="white"/>
    <g transform="translate(400, 400)" fill="none" stroke="black" stroke-width="4" stroke-linecap="round" stroke-linejoin="round"><g transform="rotate(0)"><path d="M -13.345694513991475 53.3827780559659 Q 0 64.05933366715908 13.345694513991475 53.3827780559659"/></g><g transform="rotate(30)"><path d="M -13.345694513991475 53.3827780559659 Q 0 64.05933366715908 13.345694513991475 53.3827780559659"/></g><g transform="rotate(60)"><path d="M -13.345694513991475 53.3827780559659 Q 0 64.05933366715908 13.345694513991475 53.3827780559659"/></g><g transform="rotate(90)"><path d="M -13.345694513991475 53.3827780559659 Q 0 64.05933366715908 13.345694513991475 53.3827780559659"/></g><g transform="rotate(120)"><path d="M -13.345694513991475 53.3827780559659 Q 0 64.05933366715908 13.345694513991475 53.3827780559659"/></g><g transform="rotate(150)"><path d="M -13.345694513991475 53.3827780559659 Q 0 64.05933366715908 13.345694513991475 53.3827780559659"/></g><g transform="rotate(180)"><path d="M -13.345694513991475 53.3827780559659 Q 0 64.05933366715908 13.345694513991475 53.3827780559659"/></g><g transform="rotate(210)"><path d="M -13.345694513991475 53.3827780559659 Q 0 64.05933366715908 13.345694513991475 53.3827780559659"/></g><g transform="rotate(240)"><path d="M -13.345694513991475 53.3827780559659 Q 0 64.05933366715908 13.345694513991475 53.3827780559659"/></g><g transform="rotate(270)"><path d="M -13.345694513991475 53.3827780559659 Q 0 64.05933366715908 13.345694513991475 53.3827780559659"/></g><g transform="rotate(300)"><path d="M -13.345694513991475 53.3827780559659 Q 0 64.05933366715908 13.345694513991475 53.3827780559659"/></g><g transform="rotate(330)"><path d="M -13.345694513991475 53.3827780559659 Q 0 64.05933366715908 13.345694513991475 53.3827780559659"/></g><g transform="rotate(0)"><circle cx="0" cy="90.62873320254897" r="22.657183300637243"/></g><g transform="rotate(30)"><circle cx="0" cy="90.62873320254897" r="22.657183300637243"/></g><g transform="rotate(60)"><circle cx="0" cy="90.62873320254897" r="22.657183300637243"/></g><g transform="rotate(90)"><circle cx="0" cy="90.62873320254897" r="22.657183300637243"/></g><g transform="rotate(120)"><circle cx="0" cy="90.62873320254897" r="22.657183300637243"/></g><g transform="rotate(150)"><circle cx="0" cy="90.62873320254897" r="22.657183300637243"/></g><g transform="rotate(180)"><circle cx="0" cy="90.62873320254897" r="22.657183300637243"/></g><g transform="rotate(210)"><circle cx="0" cy="90.62873320254897" r="22.657183300637243"/></g><g transform="rotate(240)"><circle cx="0" cy="90.62873320254897" r="22.657183300637243"/></g><g transform="rotate(270)"><circle cx="0" cy="90.62873320254897" r="22.657183300637243"/></g><g transform="rotate(300)"><circle cx="0" cy="90.62873320254897" r="22.657183300637243"/></g><g transform="rotate(330)"><circle cx="0" cy="90.62873320254897" r="22.657183300637243"/></g><g transform="rotate(0)"><circle cx="0" cy="135.24061462974976" r="33.81015365743744"/></g><g transform="rotate(30)"><circle cx="0" cy="135.24061462974976" r="33.81015365743744"/></g><g transform="rotate(60)"><circle cx="0" cy="135.24061462974976" r="33.81015365743744"/></g><g transform="rotate(90)"><circle cx="0" cy="135.24061462974976" r="33.81015365743744"/></g><g transform="rotate(120)"><circle cx="0" cy="135.24061462974976" r="33.81015365743744"/></g><g transform="rotate(150)"><circle cx="0" cy="135.24061462974976" r="33.81015365743744"/></g><g transform="rotate(180)"><circle cx="0" cy="135.24061462974976" r="33.81015365743744"/></g><g transform="rotate(210)"><circle cx="0" cy="135.24061462974976" r="33.81015365743744"/></g><g transform="rotate(240)"><circle cx="0" cy="135.24061462974976" r="33.81015365743744"/></g><g transform="rotate(270)"><circle cx="0" cy="135.24061462974976" r="33.81015365743744"/></g><g transform="rotate(300)"><circle cx="0" cy="135.24061462974976" r="33.81015365743744"/></g><g transform="rotate(330)"><circle cx="0" cy="135.24061462974976" r="33.81015365743744"/></g><g transform="rotate(0)"><path d="M 0 188.0444860897426 L 0 244.45783191666538"/></g><g transform="rotate(30)"><path d="M 0 188.0444860897426 L 0 244.45783191666538"/></g><g transform="rotate(60)"><path d="M 0 188.0444860897426 L 0 244.45783191666538"/></g><g transform="rotate(90)"><path d="M 0 188.0444860897426 L 0 244.45783191666538"/></g><g transform="rotate(120)"><path d="M 0 188.0444860897426 L 0 244.45783191666538"/></g><g transform="rotate(150)"><path d="M 0 188.0444860897426 L 0 244.45783191666538"/></g><g transform="rotate(180)"><path d="M 0 188.0444860897426 L 0 244.45783191666538"/></g><g transform="rotate(210)"><path d="M 0 188.0444860897426 L 0 244.45783191666538"/></g><g transform="rotate(240)"><path d="M 0 188.0444860897426 L 0 244.45783191666538"/></g><g transform="rotate(270)"><path d="M 0 188.0444860897426 L 0 244.45783191666538"/></g><g transform="rotate(300)"><path d="M 0 188.0444860897426 L 0 244.45783191666538"/></g><g transform="rotate(330)"><path d="M 0 188.0444860897426 L 0 244.45783191666538"/></g><g transform="rotate(0)"><circle cx="0" cy="241.28611291093486" r="60.321528227733715"/></g><g transform="rotate(30)"><circle cx="0" cy="241.28611291093486" r="60.321528227733715"/></g><g transform="rotate(60)"><circle cx="0" cy="241.28611291093486" r="60.321528227733715"/></g><g transform="rotate(90)"><circle cx="0" cy="241.28611291093486" r="60.321528227733715"/></g><g transform="rotate(120)"><circle cx="0" cy="241.28611291093486" r="60.321528227733715"/></g><g transform="rotate(150)"><circle cx="0" cy="241.28611291093486" r="60.321528227733715"/></g><g transform="rotate(180)"><circle cx="0" cy="241.28611291093486" r="60.321528227733715"/></g><g transform="rotate(210)"><circle cx="0" cy="241.28611291093486" r="60.321528227733715"/></g><g transform="rotate(240)"><circle cx="0" cy="241.28611291093486" r="60.321528227733715"/></g><g transform="rotate(270)"><circle cx="0" cy="241.28611291093486" r="60.321528227733715"/></g><g transform="rotate(300)"><circle cx="0" cy="241.28611291093486" r="60.321528227733715"/></g><g transform="rotate(330)"><circle cx="0" cy="241.28611291093486" r="60.321528227733715"/></g><g transform="rotate(0)"><path d="M 0 281.45235024259557 Q 93.81745008086519 337.7428202911147 0 422.17852536389336 Q -93.81745008086519 337.7428202911147 0 281.45235024259557"/></g><g transform="rotate(30)"><path d="M 0 281.45235024259557 Q 93.81745008086519 337.7428202911147 0 422.17852536389336 Q -93.81745008086519 337.7428202911147 0 281.45235024259557"/></g><g transform="rotate(60)"><path d="M 0 281.45235024259557 Q 93.81745008086519 337.7428202911147 0 422.17852536389336 Q -93.81745008086519 337.7428202911147 0 281.45235024259557"/></g><g transform="rotate(90)"><path d="M 0 281.45235024259557 Q 93.81745008086519 337.7428202911147 0 422.17852536389336 Q -93.81745008086519 337.7428202911147 0 281.45235024259557"/></g><g transform="rotate(120)"><path d="M 0 281.45235024259557 Q 93.81745008086519 337.7428202911147 0 422.17852536389336 Q -93.81745008086519 337.7428202911147 0 281.45235024259557"/></g><g transform="rotate(150)"><path d="M 0 281.45235024259557 Q 93.81745008086519 337.7428202911147 0 422.17852536389336 Q -93.81745008086519 337.7428202911147 0 281.45235024259557"/></g><g transform="rotate(180)"><path d="M 0 281.45235024259557 Q 93.81745008086519 337.7428202911147 0 422.17852536389336 Q -93.81745008086519 337.7428202911147 0 281.45235024259557"/></g><g transform="rotate(210)"><path d="M 0 281.45235024259557 Q 93.81745008086519 337.7428202911147 0 422.17852536389336 Q -93.81745008086519 337.7428202911147 0 281.45235024259557"/></g><g transform="rotate(240)"><path d="M 0 281.45235024259557 Q 93.81745008086519 337.7428202911147 0 422.17852536389336 Q -93.81745008086519 337.7428202911147 0 281.45235024259557"/></g><g transform="rotate(270)"><path d="M 0 281.45235024259557 Q 93.81745008086519 337.7428202911147 0 422.17852536389336 Q -93.81745008086519 337.7428202911147 0 281.45235024259557"/></g><g transform="rotate(300)"><path d="M 0 281.45235024259557 Q 93.81745008086519 337.7428202911147 0 422.17852536389336 Q -93.81745008086519 337.7428202911147 0 281.45235024259557"/></g><g transform="rotate(330)"><path d="M 0 281.45235024259557 Q 93.81745008086519 337.7428202911147 0 422.17852536389336 Q -93.81745008086519 337.7428202911147 0 281.45235024259557"/></g><g transform="rotate(0)"><path d="M 0 315.42169389714087 L 78.85542347428522 378.506032676569 L 0 441.5903714559972 L -78.85542347428522 378.506032676569 Z"/></g><g transform="rotate(30)"><path d="M 0 315.42169389714087 L 78.85542347428522 378.506032676569 L 0 441.5903714559972 L -78.85542347428522 378.506032676569 Z"/></g><g transform="rotate(60)"><path d="M 0 315.42169389714087 L 78.85542347428522 378.506032676569 L 0 441.5903714559972 L -78.85542347428522 378.506032676569 Z"/></g><g transform="rotate(90)"><path d="M 0 315.42169389714087 L 78.85542347428522 378.506032676569 L 0 441.5903714559972 L -78.85542347428522 378.506032676569 Z"/></g><g transform="rotate(120)"><path d="M 0 315.42169389714087 L 78.85542347428522 378.506032676569 L 0 441.5903714559972 L -78.85542347428522 378.506032676569 Z"/></g><g transform="rotate(150)"><path d="M 0 315.42169389714087 L 78.85542347428522 378.506032676569 L 0 441.5903714559972 L -78.85542347428522 378.506032676569 Z"/></g><g transform="rotate(180)"><path d="M 0 315.42169389714087 L 78.85542347428522 378.506032676569 L 0 441.5903714559972 L -78.85542347428522 378.506032676569 Z"/></g><g transform="rotate(210)"><path d="M 0 315.42169389714087 L 78.85542347428522 378.506032676569 L 0 441.5903714559972 L -78.85542347428522 378.506032676569 Z"/></g><g transform="rotate(240)"><path d="M 0 315.42169389714087 L 78.85542347428522 378.506032676569 L 0 441.5903714559972 L -78.85542347428522 378.506032676569 Z"/></g><g transform="rotate(270)"><path d="M 0 315.42169389714087 L 78.85542347428522 378.506032676569 L 0 441.5903714559972 L -78.85542347428522 378.506032676569 Z"/></g><g transform="rotate(300)"><path d="M 0 315.42169389714087 L 78.85542347428522 378.506032676569 L 0 441.5903714559972 L -78.85542347428522 378.506032676569 Z"/></g><g transform="rotate(330)"><path d="M 0 315.42169389714087 L 78.85542347428522 378.506032676569 L 0 441.5903714559972 L -78.85542347428522 378.506032676569 Z"/></g></g></svg>