<svg xmlns="http://www.w3.org/2000/svg" viewBox="0 0 800 800" width="800" height="800">
    <rect width="100%" height="100%" fill="white"/>
    <g transform="translate(400, 400)" fill="none" stroke="black" stroke-width="4" stroke-linecap="round" stroke-linejoin="round"><g transform="rotate(0)"><path d="M 0 42.422166941687465 Q 14.140722313895822 50.90660033002496 0 63.6332504125312 Q -14.140722313895822 50.90660033002496 0 42.422166941687465"/></g><g transform="rotate(20)"><path d="M 0 42.422166941687465 Q 14.140722313895822 50.90660033002496 0 63.6332504125312 Q -14.140722313895822 50.90660033002496 0 42.422166941687465"/></g><g transform="rotate(40)"><path d="M 0 42.422166941687465 Q 14.140722313895822 50.90660033002496 0 63.6332504125312 Q -14.140722313895822 50.90660033002496 0 42.422166941687465"/></g><g transform="rotate(60)"><path d="M 0 42.422166941687465 Q 14.140722313895822 50.90660033002496 0 63.6332504125312 Q -14.140722313895822 50.90660033002496 0 42.422166941687465"/></g><g transform="rotate(80)"><path d="M 0 42.422166941687465 Q 14.140722313895822 50.90660033002496 0 63.6332504125312 Q -14.140722313895822 50.90660033002496 0 42.422166941687465"/></g><g transform="rotate(100)"><path d="M 0 42.422166941687465 Q 14.140722313895822 50.90660033002496 0 63.6332504125312 Q -14.140722313895822 50.90660033002496 0 42.422166941687465"/></g><g transform="rotate(120)"><path d="M 0 42.422166941687465 Q 14.140722313895822 50.90660033002496 0 63.6332504125312 Q -14.140722313895822 50.90660033002496 0 42.422166941687465"/></g><g transform="rotate(140)"><path d="M 0 42.422166941687465 Q 14.140722313895822 50.90660033002496 0 63.6332504125312 Q -14.140722313895822 50.90660033002496 0 42.422166941687465"/></g><g transform="rotate(160)"><path d="M 0 42.422166941687465 Q 14.140722313895822 50.90660033002496 0 63.6332504125312 Q -14.140722313895822 50.90660033002496 0 42.422166941687465"/></g><g transform="rotate(180)"><path d="M 0 42.422166941687465 Q 14.140722313895822 50.90660033002496 0 63.6332504125312 Q -14.140722313895822 50.90660033002496 0 42.422166941687465"/></g><g transform="rotate(200)"><path d="M 0 42.422166941687465 Q 14.140722313895822 50.90660033002496 0 63.6332504125312 Q -14.140722313895822 50.90660033002496 0 42.422166941687465"/></g><g transform="rotate(220)"><path d="M 0 42.422166941687465 Q 14.140722313895822 50.90660033002496 0 63.6332504125312 Q -14.140722313895822 50.90660033002496 0 42.422166941687465"/></g><g transform="rotate(240)"><path d="M 0 42.422166941687465 Q 14.140722313895822 50.90660033002496 0 63.6332504125312 Q -14.140722313895822 50.90660033002496 0 42.422166941687465"/></g><g transform="rotate(260)"><path d="M 0 42.422166941687465 Q 14.140722313895822 50.90660033002496 0 63.6332504125312 Q -14.140722313895822 50.90660033002496 0 42.422166941687465"/></g><g transform="rotate(280)"><path d="M 0 42.422166941687465 Q 14.140722313895822 50.90660033002496 0 63.6332504125312 Q -14.140722313895822 50.90660033002496 0 42.422166941687465"/></g><g transform="rotate(300)"><path d="M 0 42.422166941687465 Q 14.140722313895822 50.90660033002496 0 63.6332504125312 Q -14.140722313895822 50.90660033002496 0 42.422166941687465"/></g><g transform="rotate(320)"><path d="M 0 42.422166941687465 Q 14.140722313895822 50.90660033002496 0 63.6332504125312 Q -14.140722313895822 50.90660033002496 0 42.422166941687465"/></g><g transform="rotate(340)"><path d="M 0 42.422166941687465 Q 14.140722313895822 50.90660033002496 0 63.6332504125312 Q -14.140722313895822 50.90660033002496 0 42.422166941687465"/></g><g transform="rotate(0)"><path d="M 0 92.21956171627556 L 0 119.88543023115824"/></g><g transform="rotate(20)"><path d="M 0 92.21956171627556 L 0 119.88543023115824"/></g><g transform="rotate(40)"><path d="M 0 92.21956171627556 L 0 119.88543023115824"/></g><g transform="rotate(60)"><path d="M 0 92.21956171627556 L 0 119.88543023115824"/></g><g transform="rotate(80)"><path d="M 0 92.21956171627556 L 0 119.88543023115824"/></g><g transform="rotate(100)"><path d="M 0 92.21956171627556 L 0 119.88543023115824"/></g><g transform="rotate(120)"><path d="M 0 92.21956171627556 L 0 119.88543023115824"/></g><g transform="rotate(140)"><path d="M 0 92.21956171627556 L 0 119.88543023115824"/></g><g transform="rotate(160)"><path d="M 0 92.21956171627556 L 0 119.88543023115824"/></g><g transform="rotate(180)"><path d="M 0 92.21956171627556 L 0 119.88543023115824"/></g><g transform="rotate(200)"><path d="M 0 92.21956171627556 L 0 119.88543023115824"/></g><g transform="rotate(220)"><path d="M 0 92.21956171627556 L 0 119.88543023115824"/></g><g transform="rotate(240)"><path d="M 0 92.21956171627556 L 0 119.88543023115824"/></g><g transform="rotate(260)"><path d="M 0 92.21956171627556 L 0 119.88543023115824"/></g><g transform="rotate(280)"><path d="M 0 92.21956171627556 L 0 119.88543023115824"/></g><g transform="rotate(300)"><path d="M 0 92.21956171627556 L 0 119.88543023115824"/></g><g transform="rotate(320)"><path d="M 0 92.21956171627556 L 0 119.88543023115824"/></g><g transform="rotate(340)"><path d="M 0 92.21956171627556 L 0 119.88543023115824"/></g><g transform="rotate(0)"><path d="M 0 150.0386715507401 Q 50.012890516913366 180.04640586088811 0 225.05800732611016 Q -50.012890516913366 180.04640586088811 0 150.0386715507401"/></g><g transform="rotate(20)"><path d="M 0 150.0386715507401 Q 50.012890516913366 180.04640586088811 0 225.05800732611016 Q -50.012890516913366 180.04640586088811 0 150.0386715507401"/></g><g transform="rotate(40)"><path d="M 0 150.0386715507401 Q 50.012890516913366 180.04640586088811 0 225.05800732611016 Q -50.012890516913366 180.04640586088811 0 150.0386715507401"/></g><g transform="rotate(60)"><path d="M 0 150.0386715507401 Q 50.012890516913366 180.04640586088811 0 225.05800732611016 Q -50.012890516913366 180.04640586088811 0 150.0386715507401"/></g><g transform="rotate(80)"><path d="M 0 150.0386715507401 Q 50.012890516913366 180.04640586088811 0 225.05800732611016 Q -50.012890516913366 180.04640586088811 0 150.0386715507401"/></g><g transform="rotate(100)"><path d="M 0 150.0386715507401 Q 50.012890516913366 180.04640586088811 0 225.05800732611016 Q -50.012890516913366 180.04640586088811 0 150.0386715507401"/></g><g transform="rotate(120)"><path d="M 0 150.0386715507401 Q 50.012890516913366 180.04640586088811 0 225.05800732611016 Q -50.012890516913366 180.04640586088811 0 150.0386715507401"/></g><g transform="rotate(140)"><path d="M 0 150.0386715507401 Q 50.012890516913366 180.04640586088811 0 225.05800732611016 Q -50.012890516913366 180.04640586088811 0 150.0386715507401"/></g><g transform="rotate(160)"><path d="M 0 150.0386715507401 Q 50.012890516913366 180.04640586088811 0 225.05800732611016 Q -50.012890516913366 180.04640586088811 0 150.0386715507401"/></g><g transform="rotate(180)"><path d="M 0 150.0386715507401 Q 50.012890516913366 180.04640586088811 0 225.05800732611016 Q -50.012890516913366 180.04640586088811 0 150.0386715507401"/></g><g transform="rotate(200)"><path d="M 0 150.0386715507401 Q 50.012890516913366 180.04640586088811 0 225.05800732611016 Q -50.012890516913366 180.04640586088811 0 150.0386715507401"/></g><g transform="rotate(220)"><path d="M 0 150.0386715507401 Q 50.012890516913366 180.04640586088811 0 225.05800732611016 Q -50.012890516913366 180.04640586088811 0 150.0386715507401"/></g><g transform="rotate(240)"><path d="M 0 150.0386715507401 Q 50.012890516913366 180.04640586088811 0 225.05800732611016 Q -50.012890516913366 180.04640586088811 0 150.0386715507401"/></g><g transform="rotate(260)"><path d="M 0 150.0386715507401 Q 50.012890516913366 180.04640586088811 0 225.05800732611016 Q -50.012890516913366 180.04640586088811 0 150.0386715507401"/></g><g transform="rotate(280)"><path d="M 0 150.0386715507401 Q 50.012890516913366 180.04640586088811 0 225.05800732611016 Q -50.012890516913366 180.04640586088811 0 150.0386715507401"/></g><g transform="rotate(300)"><path d="M 0 150.0386715507401 Q 50.012890516913366 180.04640586088811 0 225.05800732611016 Q -50.012890516913366 180.04640586088811 0 150.0386715507401"/></g><g transform="rotate(320)"><path d="M 0 150.0386715507401 Q 50.012890516913366 180.04640586088811 0 225.05800732611016 Q -50.012890516913366 180.04640586088811 0 150.0386715507401"/></g><g transform="rotate(340)"><path d="M 0 150.0386715507401 Q 50.012890516913366 180.04640586088811 0 225.05800732611016 Q -50.012890516913366 180.04640586088811 0 150.0386715507401"/></g><g transform="rotate(0)"><path d="M 0 177.32790421428425 Q 59.10930140476142 212.79348505714108 0 265.9918563214264 Q -59.10930140476142 212.79348505714108 0 177.32790421428425"/></g><g transform="rotate(20)"><path d="M 0 177.32790421428425 Q 59.10930140476142 212.79348505714108 0 265.9918563214264 Q -59.10930140476142 212.79348505714108 0 177.32790421428425"/></g><g transform="rotate(40)"><path d="M 0 177.32790421428425 Q 59.10930140476142 212.79348505714108 0 265.9918563214264 Q -59.10930140476142 212.79348505714108 0 177.32790421428425"/></g><g transform="rotate(60)"><path d="M 0 177.32790421428425 Q 59.10930140476142 212.79348505714108 0 265.9918563214264 Q -59.10930140476142 212.79348505714108 0 177.32790421428425"/></g><g transform="rotate(80)"><path d="M 0 177.32790421428425 Q 59.10930140476142 212.79348505714108 0 265.9918563214264 Q -59.10930140476142 212.79348505714108 0 177.32790421428425"/></g><g transform="rotate(100)"><path d="M 0 177.32790421428425 Q 59.10930140476142 212.79348505714108 0 265.9918563214264 Q -59.10930140476142 212.79348505714108 0 177.32790421428425"/></g><g transform="rotate(120)"><path d="M 0 177.32790421428425 Q 59.10930140476142 212.79348505714108 0 265.9918563214264 Q -59.10930140476142 212.79348505714108 0 177.32790421428425"/></g><g transform="rotate(140)"><path d="M 0 177.32790421428425 Q 59.10930140476142 212.79348505714108 0 265.9918563214264 Q -59.10930140476142 212.79348505714108 0 177.32790421428425"/></g><g transform="rotate(160)"><path d="M 0 177.32790421428425 Q 59.10930140476142 212.79348505714108 0 265.9918563214264 Q -59.10930140476142 212.79348505714108 0 177.32790421428425"/></g><g transform="rotate(180)"><path d="M 0 177.32790421428425 Q 59.10930140476142 212.79348505714108 0 265.9918563214264 Q -59.10930140476142 212.79348505714108 0 177.32790421428425"/></g><g transform="rotate(200)"><path d="M 0 177.32790421428425 Q 59.10930140476142 212.79348505714108 0 265.9918563214264 Q -59.10930140476142 212.79348505714108 0 177.32790421428425"/></g><g transform="rotate(220)"><path d="M 0 177.32790421428425 Q 59.10930140476142 212.79348505714108 0 265.9918563214264 Q -59.10930140476142 212.79348505714108 0 177.32790421428425"/></g><g transform="rotate(240)"><path d="M 0 177.32790421428425 Q 59.10930140476142 212.79348505714108 0 265.9918563214264 Q -59.10930140476142 212.79348505714108 0 177.32790421428425"/></g><g transform="rotate(260)"><path d="M 0 177.32790421428425 Q 59.10930140476142 212.79348505714108 0 265.9918563214264 Q -59.10930140476142 212.79348505714108 0 177.32790421428425"/></g><g transform="rotate(280)"><path d="M 0 177.32790421428425 Q 59.10930140476142 212.79348505714108 0 265.9918563214264 Q -59.10930140476142 212.79348505714108 0 177.32790421428425"/></g><g transform="rotate(300)"><path d="M 0 177.32790421428425 Q 59.10930140476142 212.79348505714108 0 265.9918563214264 Q -59.10930140476142 212.79348505714108 0 177.32790421428425"/></g><g transform="rotate(320)"><path d="M 0 177.32790421428425 Q 59.10930140476142 212.79348505714108 0 265.9918563214264 Q -59.10930140476142 212.79348505714108 0 177.32790421428425"/></g><g transform="rotate(340)"><path d="M 0 177.32790421428425 Q 59.10930140476142 212.79348505714108 0 265.9918563214264 Q -59.10930140476142 212.79348505714108 0 177.32790421428425"/></g><g transform="rotate(0)"><path d="M 0 241.45545297568398 L 0 313.8920888683892"/></g><g transform="rotate(20)"><path d="M 0 241.45545297568398 L 0 313.8920888683892"/></g><g transform="rotate(40)"><path d="M 0 241.45545297568398 L 0 313.8920888683892"/></g><g transform="rotate(60)"><path d="M 0 241.45545297568398 L 0 313.8920888683892"/></g><g transform="rotate(80)"><path d="M 0 241.45545297568398 L 0 313.8920888683892"/></g><g transform="rotate(100)"><path d="M 0 241.45545297568398 L 0 313.8920888683892"/></g><g transform="rotate(120)"><path d="M 0 241.45545297568398 L 0 313.8920888683892"/></g><g transform="rotate(140)"><path d="M 0 241.45545297568398 L 0 313.8920888683892"/></g><g transform="rotate(160)"><path d="M 0 241.45545297568398 L 0 313.8920888683892"/></g><g transform="rotate(180)"><path d="M 0 241.45545297568398 L 0 313.8920888683892"/></g><g transform="rotate(200)"><path d="M 0 241.45545297568398 L 0 313.8920888683892"/></g><g transform="rotate(220)"><path d="M 0 241.45545297568398 L 0 313.8920888683892"/></g><g transform="rotate(240)"><path d="M 0 241.45545297568398 L 0 313.8920888683892"/></g><g transform="rotate(260)"><path d="M 0 241.45545297568398 L 0 313.8920888683892"/></g><g transform="rotate(280)"><path d="M 0 241.45545297568398 L 0 313.8920888683892"/></g><g transform="rotate(300)"><path d="M 0 241.45545297568398 L 0 313.8920888683892"/></g><g transform="rotate(320)"><path d="M 0 241.45545297568398 L 0 313.8920888683892"/></g><g transform="rotate(340)"><path d="M 0 241.45545297568398 L 0 313.8920888683892"/></g><g transform="rotate(0)"><path d="M 0 280.5213464690106 Q 93.5071154896702 336.62561576281274 0 420.7820197035159 Q -93.5071154896702 336.62561576281274 0 280.5213464690106"/></g><g transform="rotate(20)"><path d="M 0 280.5213464690106 Q 93.5071154896702 336.62561576281274 0 420.7820197035159 Q -93.5071154896702 336.62561576281274 0 280.5213464690106"/></g><g transform="rotate(40)"><path d="M 0 280.5213464690106 Q 93.5071154896702 336.62561576281274 0 420.7820197035159 Q -93.5071154896702 336.62561576281274 0 280.5213464690106"/></g><g transform="rotate(60)"><path d="M 0 280.5213464690106 Q 93.5071154896702 336.62561576281274 0 420.7820197035159 Q -93.5071154896702 336.62561576281274 0 280.5213464690106"/></g><g transform="rotate(80)"><path d="M 0 280.5213464690106 Q 93.5071154896702 336.62561576281274 0 420.7820197035159 Q -93.5071154896702 336.62561576281274 0 280.5213464690106"/></g><g transform="rotate(100)"><path d="M 0 280.5213464690106 Q 93.5071154896702 336.62561576281274 0 420.7820197035159 Q -93.5071154896702 336.62561576281274 0 280.5213464690106"/></g><g transform="rotate(120)"><path d="M 0 280.5213464690106 Q 93.5071154896702 336.62561576281274 0 420.7820197035159 Q -93.5071154896702 336.62561576281274 0 280.5213464690106"/></g><g transform="rotate(140)"><path d="M 0 280.5213464690106 Q 93.5071154896702 336.62561576281274 0 420.7820197035159 Q -93.5071154896702 336.62561576281274 0 280.5213464690106"/></g><g transform="rotate(160)"><path d="M 0 280.5213464690106 Q 93.5071154896702 336.62561576281274 0 420.7820197035159 Q -93.5071154896702 336.62561576281274 0 280.5213464690106"/></g><g transform="rotate(180)"><path d="M 0 280.5213464690106 Q 93.5071154896702 336.62561576281274 0 420.7820197035159 Q -93.5071154896702 336.62561576281274 0 280.5213464690106"/></g><g transform="rotate(200)"><path d="M 0 280.5213464690106 Q 93.5071154896702 336.62561576281274 0 420.7820197035159 Q -93.5071154896702 336.62561576281274 0 280.5213464690106"/></g><g transform="rotate(220)"><path d="M 0 280.5213464690106 Q 93.5071154896702 336.62561576281274 0 420.7820197035159 Q -93.5071154896702 336.62561576281274 0 280.5213464690106"/></g><g transform="rotate(240)"><path d="M 0 280.5213464690106 Q 93.5071154896702 336.62561576281274 0 420.7820197035159 Q -93.5071154896702 336.62561576281274 0 280.5213464690106"/></g><g transform="rotate(260)"><path d="M 0 280.5213464690106 Q 93.5071154896702 336.62561576281274 0 420.7820197035159 Q -93.5071154896702 336.62561576281274 0 280.5213464690106"/></g><g transform="rotate(280)"><path d="M 0 280.5213464690106 Q 93.5071154896702 336.62561576281274 0 420.7820197035159 Q -93.5071154896702 336.62561576281274 0 280.5213464690106"/></g><g transform="rotate(300)"><path d="M 0 280.5213464690106 Q 93.5071154896702 336.62561576281274 0 420.7820197035159 Q -93.5071154896702 336.62561576281274 0 280.5213464690106"/></g><g transform="rotate(320)"><path d="M 0 280.5213464690106 Q 93.5071154896702 336.62561576281274 0 420.7820197035159 Q -93.5071154896702 336.62561576281274 0 280.5213464690106"/></g><g transform="rotate(340)"><path d="M 0 280.5213464690106 Q 93.5071154896702 336.62561576281274 0 420.7820197035159 Q -93.5071154896702 336.62561576281274 0 280.5213464690106"/></g><g transform="rotate(0)"><path d="M 0 329.99231350075985 L 82.49807837518996 395.9907762009118 L 0 461.98923890106374 L -82.49807837518996 395.9907762009118 Z"/></g><g transform="rotate(20)"><path d="M 0 329.99231350075985 L 82.49807837518996 395.9907762009118 L 0 461.98923890106374 L -82.49807837518996 395.9907762009118 Z"/></g><g transform="rotate(40)"><path d="M 0 329.99231350075985 L 82.49807837518996 395.9907762009118 L 0 461.98923890106374 L -82.49807837518996 395.9907762009118 Z"/></g><g transform="rotate(60)"><path d="M 0 329.99231350075985 L 82.49807837518996 395.9907762009118 L 0 461.98923890106374 L -82.49807837518996 395.9907762009118 Z"/></g><g transform="rotate(80)"><path d="M 0 329.99231350075985 L 82.49807837518996 395.9907762009118 L 0 461.98923890106374 L -82.49807837518996 395.9907762009118 Z"/></g><g transform="rotate(100)"><path d="M 0 329.99231350075985 L 82.49807837518996 395.9907762009118 L 0 461.98923890106374 L -82.49807837518996 395.9907762009118 Z"/></g><g transform="rotate(120)"><path d="M 0 329.99231350075985 L 82.49807837518996 395.9907762009118 L 0 461.98923890106374 L -82.49807837518996 395.9907762009118 Z"/></g><g transform="rotate(140)"><path d="M 0 329.99231350075985 L 82.49807837518996 395.9907762009118 L 0 461.98923890106374 L -82.49807837518996 395.9907762009118 Z"/></g><g transform="rotate(160)"><path d="M 0 329.99231350075985 L 82.49807837518996 395.9907762009118 L 0 461.98923890106374 L -82.49807837518996 395.9907762009118 Z"/></g><g transform="rotate(180)"><path d="M 0 329.99231350075985 L 82.49807837518996 395.9907762009118 L 0 461.98923890106374 L -82.49807837518996 395.9907762009118 Z"/></g><g transform="rotate(200)"><path d="M 0 329.99231350075985 L 82.49807837518996 395.9907762009118 L 0 461.98923890106374 L -82.49807837518996 395.9907762009118 Z"/></g><g transform="rotate(220)"><path d="M 0 329.99231350075985 L 82.49807837518996 395.9907762009118 L 0 461.98923890106374 L -82.49807837518996 395.9907762009118 Z"/></g><g transform="rotate(240)"><path d="M 0 329.99231350075985 L 82.49807837518996 395.9907762009118 L 0 461.98923890106374 L -82.49807837518996 395.9907762009118 Z"/></g><g transform="rotate(260)"><path d="M 0 329.99231350075985 L 82.49807837518996 395.9907762009118 L 0 461.98923890106374 L -82.49807837518996 395.9907762009118 Z"/></g><g transform="rotate(280)"><path d="M 0 329.99231350075985 L 82.49807837518996 395.9907762009118 L 0 461.98923890106374 L -82.49807837518996 395.9907762009118 Z"/></g><g transform="rotate(300)"><path d="M 0 329.99231350075985 L 82.49807837518996 395.9907762009118 L 0 461.98923890106374 L -82.49807837518996 395.9907762009118 Z"/></g><g transform="rotate(320)"><path d="M 0 329.99231350075985 L 82.49807837518996 395.9907762009118 L 0 461.98923890106374 L -82.49807837518996 395.9907762009118 Z"/></g><g transform="rotate(340)"><path d="M 0 329.99231350075985 L 82.49807837518996 395.9907762009118 L 0 461.98923890106374 L -82.49807837518996 395.9907762009118 Z"/></g></g></svg>