<svg xmlns="http://www.w3.org/2000/svg" viewBox="0 0 800 800" width="800" height="800">
    <rect width="100%" height="100%" fill="white"/>
    <g transform="translate(400, 400)" fill="none" stroke="black" stroke-width="4" stroke-linecap="round" stroke-linejoin="round"><g transform="rotate(0)"><path d="M 0 57.60325253009796 L 0 74.88422828912735"/></g><g transform="rotate(25.714285714285715)"><path d="M 0 57.60325253009796 L 0 74.88422828912735"/></g><g transform="rotate(51.42857142857143)"><path d="M 0 57.60325253009796 L 0 74.88422828912735"/></g><g transform="rotate(77.14285714285714)"><path d="M 0 57.60325253009796 L 0 74.88422828912735"/></g><g transform="rotate(102.85714285714286)"><path d="M 0 57.60325253009796 L 0 74.88422828912735"/></g><g transform="rotate(128.57142857142858)"><path d="M 0 57.60325253009796 L 0 74.88422828912735"/></g><g transform="rotate(154.28571428571428)"><path d="M 0 57.60325253009796 L 0 74.88422828912735"/></g><g transform="rotate(180)"><path d="M 0 57.60325253009796 L 0 74.88422828912735"/></g><g transform="rotate(205.71428571428572)"><path d="M 0 57.60325253009796 L 0 74.88422828912735"/></g><g transform="rotate(231.42857142857142)"><path d="M 0 57.60325253009796 L 0 74.88422828912735"/></g><g transform="rotate(257.14285714285717)"><path d="M 0 57.60325253009796 L 0 74.88422828912735"/></g><g transform="rotate(282.85714285714283)"><path d="M 0 57.60325253009796 L 0 74.88422828912735"/></g><g transform="rotate(308.57142857142856)"><path d="M 0 57.60325253009796 L 0 74.88422828912735"/></g><g transform="rotate(334.2857142857143)"><path d="M 0 57.60325253009796 L 0 74.88422828912735"/></g><g transform="rotate(0)"><circle cx="0" cy="94.09543795821568" r="23.52385948955392"/></g><g transform="rotate(25.714285714285715)"><circle cx="0" cy="94.09543795821568" r="23.52385948955392"/></g><g transform="rotate(51.42857142857143)"><circle cx="0" cy="94.09543795821568" r="23.52385948955392"/></g><g transform="rotate(77.14285714285714)"><circle cx="0" cy="94.09543795821568" r="23.52385948955392"/></g><g transform="rotate(102.85714285714286)"><circle cx="0" cy="94.09543795821568" r="23.52385948955392"/></g><g transform="rotate(128.57142857142858)"><circle cx="0" cy="94.09543795821568" r="23.52385948955392"/></g><g transform="rotate(154.28571428571428)"><circle cx="0" cy="94.09543795821568" r="23.52385948955392"/></g><g transform="rotate(180)"><circle cx="0" cy="94.09543795821568" r="23.52385948955392"/></g><g transform="rotate(205.71428571428572)"><circle cx="0" cy="94.09543795821568" r="23.52385948955392"/></g><g transform="rotate(231.42857142857142)"><circle cx="0" cy="94.09543795821568" r="23.52385948955392"/></g><g transform="rotate(257.14285714285717)"><circle cx="0" cy="94.09543795821568" r="23.52385948955392"/></g><g transform="rotate(282.85714285714283)"><circle cx="0" cy="94.09543795821568" r="23.52385948955392"/></g><g transform="rotate(308.57142857142856)"><circle cx="0" cy="94.09543795821568" r="23.52385948955392"/></g><g transform="rotate(334.2857142857143)"><circle cx="0" cy="94.09543795821568" r="23.52385948955392"/></g><g transform="rotate(0)"><path d="M 0 166.1325538593034 Q 55.37751795310114 199.3590646311641 0 249.19883078895512 Q -55.37751795310114 199.3590646311641 0 166.1325538593034"/></g><g transform="rotate(25.714285714285715)"><path d="M 0 166.1325538593034 Q 55.37751795310114 199.3590646311641 0 249.19883078895512 Q -55.37751795310114 199.3590646311641 0 166.1325538593034"/></g><g transform="rotate(51.42857142857143)"><path d="M 0 166.1325538593034 Q 55.37751795310114 199.3590646311641 0 249.19883078895512 Q -55.37751795310114 199.3590646311641 0 166.1325538593034"/></g><g transform="rotate(77.14285714285714)"><path d="M 0 166.1325538593034 Q 55.37751795310114 199.3590646311641 0 249.19883078895512 Q -55.37751795310114 199.3590646311641 0 166.1325538593034"/></g><g transform="rotate(102.85714285714286)"><path d="M 0 166.1325538593034 Q 55.37751795310114 199.3590646311641 0 249.19883078895512 Q -55.37751795310114 199.3590646311641 0 166.1325538593034"/></g><g transform="rotate(128.57142857142858)"><path d="M 0 166.1325538593034 Q 55.37751795310114 199.3590646311641 0 249.19883078895512 Q -55.37751795310114 199.3590646311641 0 166.1325538593034"/></g><g transform="rotate(154.28571428571428)"><path d="M 0 166.1325538593034 Q 55.37751795310114 199.3590646311641 0 249.19883078895512 Q -55.37751795310114 199.3590646311641 0 166.1325538593034"/></g><g transform="rotate(180)"><path d="M 0 166.1325538593034 Q 55.37751795310114 199.3590646311641 0 249.19883078895512 Q -55.37751795310114 199.3590646311641 0 166.1325538593034"/></g><g transform="rotate(205.71428571428572)"><path d="M 0 166.1325538593034 Q 55.37751795310114 199.3590646311641 0 249.19883078895512 Q -55.37751795310114 199.3590646311641 0 166.1325538593034"/></g><g transform="rotate(231.42857142857142)"><path d="M 0 166.1325538593034 Q 55.37751795310114 199.3590646311641 0 249.19883078895512 Q -55.37751795310114 199.3590646311641 0 166.1325538593034"/></g><g transform="rotate(257.14285714285717)"><path d="M 0 166.1325538593034 Q 55.37751795310114 199.3590646311641 0 249.19883078895512 Q -55.37751795310114 199.3590646311641 0 166.1325538593034"/></g><g transform="rotate(282.85714285714283)"><path d="M 0 166.1325538593034 Q 55.37751795310114 199.3590646311641 0 249.19883078895512 Q -55.37751795310114 199.3590646311641 0 166.1325538593034"/></g><g transform="rotate(308.57142857142856)"><path d="M 0 166.1325538593034 Q 55.37751795310114 199.3590646311641 0 249.19883078895512 Q -55.37751795310114 199.3590646311641 0 166.1325538593034"/></g><g transform="rotate(334.2857142857143)"><path d="M 0 166.1325538593034 Q 55.37751795310114 199.3590646311641 0 249.19883078895512 Q -55.37751795310114 199.3590646311641 0 166.1325538593034"/></g><g transform="rotate(0)"><circle cx="0" cy="216.77010658197105" r="54.19252664549276"/></g><g transform="rotate(25.714285714285715)"><circle cx="0" cy="216.77010658197105" r="54.19252664549276"/></g><g transform="rotate(51.42857142857143)"><circle cx="0" cy="216.77010658197105" r="54.19252664549276"/></g><g transform="rotate(77.14285714285714)"><circle cx="0" cy="216.77010658197105" r="54.19252664549276"/></g><g transform="rotate(102.85714285714286)"><circle cx="0" cy="216.77010658197105" r="54.19252664549276"/></g><g transform="rotate(128.57142857142858)"><circle cx="0" cy="216.77010658197105" r="54.19252664549276"/></g><g transform="rotate(154.28571428571428)"><circle cx="0" cy="216.77010658197105" r="54.19252664549276"/></g><g transform="rotate(180)"><circle cx="0" cy="216.77010658197105" r="54.19252664549276"/></g><g transform="rotate(205.71428571428572)"><circle cx="0" cy="216.77010658197105" r="54.19252664549276"/></g><g transform="rotate(231.42857142857142)"><circle cx="0" cy="216.77010658197105" r="54.19252664549276"/></g><g transform="rotate(257.14285714285717)"><circle cx="0" cy="216.77010658197105" r="54.19252664549276"/></g><g transform="rotate(282.85714285714283)"><circle cx="0" cy="216.77010658197105" r="54.19252664549276"/></g><g transform="rotate(308.57142857142856)"><circle cx="0" cy="216.77010658197105" r="54.19252664549276"/></g><g transform="rotate(334.2857142857143)"><circle cx="0" cy="216.77010658197105" r="54.19252664549276"/></g><g transform="rotate(0)"><circle cx="0" cy="272.8616915022334" r="68.21542287555835"/></g><g transform="rotate(25.714285714285715)"><circle cx="0" cy="272.8616915022334" r="68.21542287555835"/></g><g transform="rotate(51.42857142857143)"><circle cx="0" cy="272.8616915022334" r="68.21542287555835"/></g><g transform="rotate(77.14285714285714)"><circle cx="0" cy="272.8616915022334" r="68.21542287555835"/></g><g transform="rotate(102.85714285714286)"><circle cx="0" cy="272.8616915022334" r="68.21542287555835"/></g><g transform="rotate(128.57142857142858)"><circle cx="0" cy="272.8616915022334" r="68.21542287555835"/></g><g transform="rotate(154.28571428571428)"><circle cx="0" cy="272.8616915022334" r="68.21542287555835"/></g><g transform="rotate(180)"><circle cx="0" cy="272.8616915022334" r="68.21542287555835"/></g><g transform="rotate(205.71428571428572)"><circle cx="0" cy="272.8616915022334" r="68.21542287555835"/></g><g transform="rotate(231.42857142857142)"><circle cx="0" cy="272.8616915022334" r="68.21542287555835"/></g><g transform="rotate(257.14285714285717)"><circle cx="0" cy="272.8616915022334" r="68.21542287555835"/></g><g transform="rotate(282.85714285714283)"><circle cx="0" cy="272.8616915022334" r="68.21542287555835"/></g><g transform="rotate(308.57142857142856)"><circle cx="0" cy="272.8616915022334" r="68.21542287555835"/></g><g transform="rotate(334.2857142857143)"><circle cx="0" cy="272.8616915022334" r="68.21542287555835"/></g><g transform="rotate(0)"><path d="M 0 323.2307230650137 L 80.80768076625343 387.8768676780164 L 0 452.52301229101914 L -80.80768076625343 387.8768676780164 Z"/></g><g transform="rotate(25.714285714285715)"><path d="M 0 323.2307230650137 L 80.80768076625343 387.8768676780164 L 0 452.52301229101914 L -80.80768076625343 387.8768676780164 Z"/></g><g transform="rotate(51.42857142857143)"><path d="M 0 323.2307230650137 L 80.80768076625343 387.8768676780164 L 0 452.52301229101914 L -80.80768076625343 387.8768676780164 Z"/></g><g transform="rotate(77.14285714285714)"><path d="M 0 323.2307230650137 L 80.80768076625343 387.8768676780164 L 0 452.52301229101914 L -80.80768076625343 387.8768676780164 Z"/></g><g transform="rotate(102.85714285714286)"><path d="M 0 323.2307230650137 L 80.80768076625343 387.8768676780164 L 0 452.52301229101914 L -80.80768076625343 387.8768676780164 Z"/></g><g transform="rotate(128.57142857142858)"><path d="M 0 323.2307230650137 L 80.80768076625343 387.8768676780164 L 0 452.52301229101914 L -80.80768076625343 387.8768676780164 Z"/></g><g transform="rotate(154.28571428571428)"><path d="M 0 323.2307230650137 L 80.80768076625343 387.8768676780164 L 0 452.52301229101914 L -80.80768076625343 387.8768676780164 Z"/></g><g transform="rotate(180)"><path d="M 0 323.2307230650137 L 80.80768076625343 387.8768676780164 L 0 452.52301229101914 L -80.80768076625343 387.8768676780164 Z"/></g><g transform="rotate(205.71428571428572)"><path d="M 0 323.2307230650137 L 80.80768076625343 387.8768676780164 L 0 452.52301229101914 L -80.80768076625343 387.8768676780164 Z"/></g><g transform="rotate(231.42857142857142)"><path d="M 0 323.2307230650137 L 80.80768076625343 387.8768676780164 L 0 452.52301229101914 L -80.80768076625343 387.8768676780164 Z"/></g><g transform="rotate(257.14285714285717)"><path d="M 0 323.2307230650137 L 80.80768076625343 387.8768676780164 L 0 452.52301229101914 L -80.80768076625343 387.8768676780164 Z"/></g><g transform="rotate(282.85714285714283)"><path d="M 0 323.2307230650137 L 80.80768076625343 387.8768676780164 L 0 452.52301229101914 L -80.80768076625343 387.8768676780164 Z"/></g><g transform="rotate(308.57142857142856)"><path d="M 0 323.2307230650137 L 80.80768076625343 387.8768676780164 L 0 452.52301229101914 L -80.80768076625343 387.8768676780164 Z"/></g><g transform="rotate(334.2857142857143)"><path d="M 0 323.2307230650137 L 80.80768076625343 387.8768676780164 L 0 452.52301229101914 L -80.80768076625343 387.8768676780164 Z"/></g></g></svg>