<svg xmlns="http://www.w3.org/2000/svg" viewBox="0 0 800 800" width="800" height="800">
    <rect width="100%" height="100%" fill="white"/>
    <g transform="translate(400, 400)" fill="none" stroke="black" stroke-width="4" stroke-linecap="round" stroke-linejoin="round"><g transform="rotate(0)"><path d="M 0 45.2410490764305 Q 15.0803496921435 54.2892588917166 0 67.86157361464575 Q -15.0803496921435 54.2892588917166 0 45.2410490764305"/></g><g transform="rotate(20)"><path d="M 0 45.2410490764305 Q 15.0803496921435 54.2892588917166 0 67.86157361464575 Q -15.0803496921435 54.2892588917166 0 45.2410490764305"/></g><g transform="rotate(40)"><path d="M 0 45.2410490764305 Q 15.0803496921435 54.2892588917166 0 67.86157361464575 Q -15.0803496921435 54.2892588917166 0 45.2410490764305"/></g><g transform="rotate(60)"><path d="M 0 45.2410490764305 Q 15.0803496921435 54.2892588917166 0 67.86157361464575 Q -15.0803496921435 54.2892588917166 0 45.2410490764305"/></g><g transform="rotate(80)"><path d="M 0 45.2410490764305 Q 15.0803496921435 54.2892588917166 0 67.86157361464575 Q -15.0803496921435 54.2892588917166 0 45.2410490764305"/></g><g transform="rotate(100)"><path d="M 0 45.2410490764305 Q 15.0803496921435 54.2892588917166 0 67.86157361464575 Q -15.0803496921435 54.2892588917166 0 45.2410490764305"/></g><g transform="rotate(120)"><path d="M 0 45.2410490764305 Q 15.0803496921435 54.2892588917166 0 67.86157361464575 Q -15.0803496921435 54.2892588917166 0 45.2410490764305"/></g><g transform="rotate(140)"><path d="M 0 45.2410490764305 Q 15.0803496921435 54.2892588917166 0 67.86157361464575 Q -15.0803496921435 54.2892588917166 0 45.2410490764305"/></g><g transform="rotate(160)"><path d="M 0 45.2410490764305 Q 15.0803496921435 54.2892588917166 0 67.86157361464575 Q -15.0803496921435 54.2892588917166 0 45.2410490764305"/></g><g transform="rotate(180)"><path d="M 0 45.2410490764305 Q 15.0803496921435 54.2892588917166 0 67.86157361464575 Q -15.0803496921435 54.2892588917166 0 45.2410490764305"/></g><g transform="rotate(200)"><path d="M 0 45.2410490764305 Q 15.0803496921435 54.2892588917166 0 67.86157361464575 Q -15.0803496921435 54.2892588917166 0 45.2410490764305"/></g><g transform="rotate(220)"><path d="M 0 45.2410490764305 Q 15.0803496921435 54.2892588917166 0 67.86157361464575 Q -15.0803496921435 54.2892588917166 0 45.2410490764305"/></g><g transform="rotate(240)"><path d="M 0 45.2410490764305 Q 15.0803496921435 54.2892588917166 0 67.86157361464575 Q -15.0803496921435 54.2892588917166 0 45.2410490764305"/></g><g transform="rotate(260)"><path d="M 0 45.2410490764305 Q 15.0803496921435 54.2892588917166 0 67.86157361464575 Q -15.0803496921435 54.2892588917166 0 45.2410490764305"/></g><g transform="rotate(280)"><path d="M 0 45.2410490764305 Q 15.0803496921435 54.2892588917166 0 67.86157361464575 Q -15.0803496921435 54.2892588917166 0 45.2410490764305"/></g><g transform="rotate(300)"><path d="M 0 45.2410490764305 Q 15.0803496921435 54.2892588917166 0 67.86157361464575 Q -15.0803496921435 54.2892588917166 0 45.2410490764305"/></g><g transform="rotate(320)"><path d="M 0 45.2410490764305 Q 15.0803496921435 54.2892588917166 0 67.86157361464575 Q -15.0803496921435 54.2892588917166 0 45.2410490764305"/></g><g transform="rotate(340)"><path d="M 0 45.2410490764305 Q 15.0803496921435 54.2892588917166 0 67.86157361464575 Q -15.0803496921435 54.2892588917166 0 45.2410490764305"/></g><g transform="rotate(0)"><path d="M 0 101.50022366860262 L 0 131.9502907691834"/></g><g transform="rotate(20)"><path d="M 0 101.50022366860262 L 0 131.9502907691834"/></g><g transform="rotate(40)"><path d="M 0 101.50022366860262 L 0 131.9502907691834"/></g><g transform="rotate(60)"><path d="M 0 101.50022366860262 L 0 131.9502907691834"/></g><g transform="rotate(80)"><path d="M 0 101.50022366860262 L 0 131.9502907691834"/></g><g transform="rotate(100)"><path d="M 0 101.50022366860262 L 0 131.9502907691834"/></g><g transform="rotate(120)"><path d="M 0 101.50022366860262 L 0 131.9502907691834"/></g><g transform="rotate(140)"><path d="M 0 101.50022366860262 L 0 131.9502907691834"/></g><g transform="rotate(160)"><path d="M 0 101.50022366860262 L 0 131.9502907691834"/></g><g transform="rotate(180)"><path d="M 0 101.50022366860262 L 0 131.9502907691834"/></g><g transform="rotate(200)"><path d="M 0 101.50022366860262 L 0 131.9502907691834"/></g><g transform="rotate(220)"><path d="M 0 101.50022366860262 L 0 131.9502907691834"/></g><g transform="rotate(240)"><path d="M 0 101.50022366860262 L 0 131.9502907691834"/></g><g transform="rotate(260)"><path d="M 0 101.50022366860262 L 0 131.9502907691834"/></g><g transform="rotate(280)"><path d="M 0 101.50022366860262 L 0 131.9502907691834"/></g><g transform="rotate(300)"><path d="M 0 101.50022366860262 L 0 131.9502907691834"/></g><g transform="rotate(320)"><path d="M 0 101.50022366860262 L 0 131.9502907691834"/></g><g transform="rotate(340)"><path d="M 0 101.50022366860262 L 0 131.9502907691834"/></g><g transform="rotate(0)"><path d="M 0 150.91620635396492 L 37.72905158849123 181.09944762475791 L 0 211.28268889555088 L -37.72905158849123 181.09944762475791 Z"/></g><g transform="rotate(20)"><path d="M 0 150.91620635396492 L 37.72905158849123 181.09944762475791 L 0 211.28268889555088 L -37.72905158849123 181.09944762475791 Z"/></g><g transform="rotate(40)"><path d="M 0 150.91620635396492 L 37.72905158849123 181.09944762475791 L 0 211.28268889555088 L -37.72905158849123 181.09944762475791 Z"/></g><g transform="rotate(60)"><path d="M 0 150.91620635396492 L 37.72905158849123 181.09944762475791 L 0 211.28268889555088 L -37.72905158849123 181.09944762475791 Z"/></g><g transform="rotate(80)"><path d="M 0 150.91620635396492 L 37.72905158849123 181.09944762475791 L 0 211.28268889555088 L -37.72905158849123 181.09944762475791 Z"/></g><g transform="rotate(100)"><path d="M 0 150.91620635396492 L 37.72905158849123 181.09944762475791 L 0 211.28268889555088 L -37.72905158849123 181.09944762475791 Z"/></g><g transform="rotate(120)"><path d="M 0 150.91620635396492 L 37.72905158849123 181.09944762475791 L 0 211.28268889555088 L -37.72905158849123 181.09944762475791 Z"/></g><g transform="rotate(140)"><path d="M 0 150.91620635396492 L 37.72905158849123 181.09944762475791 L 0 211.28268889555088 L -37.72905158849123 181.09944762475791 Z"/></g><g transform="rotate(160)"><path d="M 0 150.91620635396492 L 37.72905158849123 181.09944762475791 L 0 211.28268889555088 L -37.72905158849123 181.09944762475791 Z"/></g><g transform="rotate(180)"><path d="M 0 150.91620635396492 L 37.72905158849123 181.09944762475791 L 0 211.28268889555088 L -37.72905158849123 181.09944762475791 Z"/></g><g transform="rotate(200)"><path d="M 0 150.91620635396492 L 37.72905158849123 181.09944762475791 L 0 211.28268889555088 L -37.72905158849123 181.09944762475791 Z"/></g><g transform="rotate(220)"><path d="M 0 150.91620635396492 L 37.72905158849123 181.09944762475791 L 0 211.28268889555088 L -37.72905158849123 181.09944762475791 Z"/></g><g transform="rotate(240)"><path d="M 0 150.91620635396492 L 37.72905158849123 181.09944762475791 L 0 211.28268889555088 L -37.72905158849123 181.09944762475791 Z"/></g><g transform="rotate(260)"><path d="M 0 150.91620635396492 L 37.72905158849123 181.09944762475791 L 0 211.28268889555088 L -37.72905158849123 181.09944762475791 Z"/></g><g transform="rotate(280)"><path d="M 0 150.91620635396492 L 37.72905158849123 181.09944762475791 L 0 211.28268889555088 L -37.72905158849123 181.09944762475791 Z"/></g><g transform="rotate(300)"><path d="M 0 150.91620635396492 L 37.72905158849123 181.09944762475791 L 0 211.28268889555088 L -37.72905158849123 181.09944762475791 Z"/></g><g transform="rotate(320)"><path d="M 0 150.91620635396492 L 37.72905158849123 181.09944762475791 L 0 211.28268889555088 L -37.72905158849123 181.09944762475791 Z"/></g><g transform="rotate(340)"><path d="M 0 150.91620635396492 L 37.72905158849123 181.09944762475791 L 0 211.28268889555088 L -37.72905158849123 181.09944762475791 Z"/></g><g transform="rotate(0)"><circle cx="0" cy="207.93790510389954" r="51.984476275974885"/></g><g transform="rotate(20)"><circle cx="0" cy="207.93790510389954" r="51.984476275974885"/></g><g transform="rotate(40)"><circle cx="0" cy="207.93790510389954" r="51.984476275974885"/></g><g transform="rotate(60)"><circle cx="0" cy="207.93790510389954" r="51.984476275974885"/></g><g transform="rotate(80)"><circle cx="0" cy="207.93790510389954" r="51.984476275974885"/></g><g transform="rotate(100)"><circle cx="0" cy="207.93790510389954" r="51.984476275974885"/></g><g transform="rotate(120)"><circle cx="0" cy="207.93790510389954" r="51.984476275974885"/></g><g transform="rotate(140)"><circle cx="0" cy="207.93790510389954" r="51.984476275974885"/></g><g transform="rotate(160)"><circle cx="0" cy="207.93790510389954" r="51.984476275974885"/></g><g transform="rotate(180)"><circle cx="0" cy="207.93790510389954" r="51.984476275974885"/></g><g transform="rotate(200)"><circle cx="0" cy="207.93790510389954" r="51.984476275974885"/></g><g transform="rotate(220)"><circle cx="0" cy="207.93790510389954" r="51.984476275974885"/></g><g transform="rotate(240)"><circle cx="0" cy="207.93790510389954" r="51.984476275974885"/></g><g transform="rotate(260)"><circle cx="0" cy="207.93790510389954" r="51.984476275974885"/></g><g transform="rotate(280)"><circle cx="0" cy="207.93790510389954" r="51.984476275974885"/></g><g transform="rotate(300)"><circle cx="0" cy="207.93790510389954" r="51.984476275974885"/></g><g transform="rotate(320)"><circle cx="0" cy="207.93790510389954" r="51.984476275974885"/></g><g transform="rotate(340)"><circle cx="0" cy="207.93790510389954" r="51.984476275974885"/></g><g transform="rotate(0)"><circle cx="0" cy="268.5488090741759" r="67.13720226854397"/></g><g transform="rotate(20)"><circle cx="0" cy="268.5488090741759" r="67.13720226854397"/></g><g transform="rotate(40)"><circle cx="0" cy="268.5488090741759" r="67.13720226854397"/></g><g transform="rotate(60)"><circle cx="0" cy="268.5488090741759" r="67.13720226854397"/></g><g transform="rotate(80)"><circle cx="0" cy="268.5488090741759" r="67.13720226854397"/></g><g transform="rotate(100)"><circle cx="0" cy="268.5488090741759" r="67.13720226854397"/></g><g transform="rotate(120)"><circle cx="0" cy="268.5488090741759" r="67.13720226854397"/></g><g transform="rotate(140)"><circle cx="0" cy="268.5488090741759" r="67.13720226854397"/></g><g transform="rotate(160)"><circle cx="0" cy="268.5488090741759" r="67.13720226854397"/></g><g transform="rotate(180)"><circle cx="0" cy="268.5488090741759" r="67.13720226854397"/></g><g transform="rotate(200)"><circle cx="0" cy="268.5488090741759" r="67.13720226854397"/></g><g transform="rotate(220)"><circle cx="0" cy="268.5488090741759" r="67.13720226854397"/></g><g transform="rotate(240)"><circle cx="0" cy="268.5488090741759" r="67.13720226854397"/></g><g transform="rotate(260)"><circle cx="0" cy="268.5488090741759" r="67.13720226854397"/></g><g transform="rotate(280)"><circle cx="0" cy="268.5488090741759" r="67.13720226854397"/></g><g transform="rotate(300)"><circle cx="0" cy="268.5488090741759" r="67.13720226854397"/></g><g transform="rotate(320)"><circle cx="0" cy="268.5488090741759" r="67.13720226854397"/></g><g transform="rotate(340)"><circle cx="0" cy="268.5488090741759" r="67.13720226854397"/></g><g transform="rotate(0)"><path d="M 0 308.0326822695012 L 77.0081705673753 369.6392187234014 L 0 431.24575517730165 L -77.0081705673753 369.6392187234014 Z"/></g><g transform="rotate(20)"><path d="M 0 308.0326822695012 L 77.0081705673753 369.6392187234014 L 0 431.24575517730165 L -77.0081705673753 369.6392187234014 Z"/></g><g transform="rotate(40)"><path d="M 0 308.0326822695012 L 77.0081705673753 369.6392187234014 L 0 431.24575517730165 L -77.0081705673753 369.6392187234014 Z"/></g><g transform="rotate(60)"><path d="M 0 308.0326822695012 L 77.0081705673753 369.6392187234014 L 0 431.24575517730165 L -77.0081705673753 369.6392187234014 Z"/></g><g transform="rotate(80)"><path d="M 0 308.0326822695012 L 77.0081705673753 369.6392187234014 L 0 431.24575517730165 L -77.0081705673753 369.6392187234014 Z"/></g><g transform="rotate(100)"><path d="M 0 308.0326822695012 L 77.0081705673753 369.6392187234014 L 0 431.24575517730165 L -77.0081705673753 369.6392187234014 Z"/></g><g transform="rotate(120)"><path d="M 0 308.0326822695012 L 77.0081705673753 369.6392187234014 L 0 431.24575517730165 L -77.0081705673753 369.6392187234014 Z"/></g><g transform="rotate(140)"><path d="M 0 308.0326822695012 L 77.0081705673753 369.6392187234014 L 0 431.24575517730165 L -77.0081705673753 369.6392187234014 Z"/></g><g transform="rotate(160)"><path d="M 0 308.0326822695012 L 77.0081705673753 369.6392187234014 L 0 431.24575517730165 L -77.0081705673753 369.6392187234014 Z"/></g><g transform="rotate(180)"><path d="M 0 308.0326822695012 L 77.0081705673753 369.6392187234014 L 0 431.24575517730165 L -77.0081705673753 369.6392187234014 Z"/></g><g transform="rotate(200)"><path d="M 0 308.0326822695012 L 77.0081705673753 369.6392187234014 L 0 431.24575517730165 L -77.0081705673753 369.6392187234014 Z"/></g><g transform="rotate(220)"><path d="M 0 308.0326822695012 L 77.0081705673753 369.6392187234014 L 0 431.24575517730165 L -77.0081705673753 369.6392187234014 Z"/></g><g transform="rotate(240)"><path d="M 0 308.0326822695012 L 77.0081705673753 369.6392187234014 L 0 431.24575517730165 L -77.0081705673753 369.6392187234014 Z"/></g><g transform="rotate(260)"><path d="M 0 308.0326822695012 L 77.0081705673753 369.6392187234014 L 0 431.24575517730165 L -77.0081705673753 369.6392187234014 Z"/></g><g transform="rotate(280)"><path d="M 0 308.0326822695012 L 77.0081705673753 369.6392187234014 L 0 431.24575517730165 L -77.0081705673753 369.6392187234014 Z"/></g><g transform="rotate(300)"><path d="M 0 308.0326822695012 L 77.0081705673753 369.6392187234014 L 0 431.24575517730165 L -77.0081705673753 369.6392187234014 Z"/></g><g transform="rotate(320)"><path d="M 0 308.0326822695012 L 77.0081705673753 369.6392187234014 L 0 431.24575517730165 L -77.0081705673753 369.6392187234014 Z"/></g><g transform="rotate(340)"><path d="M 0 308.0326822695012 L 77.0081705673753 369.6392187234014 L 0 431.24575517730165 L -77.0081705673753 369.6392187234014 Z"/></g></g></svg>