<svg xmlns="http://www.w3.org/2000/svg" viewBox="0 0 800 800" width="800" height="800">
    <rect width="100%" height="100%" fill="white"/>
    <g transform="translate(400, 400)" fill="none" stroke="black" stroke-width="4" stroke-linecap="round" stroke-linejoin="round"><g transform="rotate(0)"><path d="M 0 52.17020072508603 L 13.042550181271508 62.60424087010324 L 0 73.03828101512045 L -13.042550181271508 62.60424087010324 Z"/></g><g transform="rotate(45)"><path d="M 0 52.17020072508603 L 13.042550181271508 62.60424087010324 L 0 73.03828101512045 L -13.042550181271508 62.60424087010324 Z"/></g><g transform="rotate(90)"><path d="M 0 52.17020072508603 L 13.042550181271508 62.60424087010324 L 0 73.03828101512045 L -13.042550181271508 62.60424087010324 Z"/></g><g transform="rotate(135)"><path d="M 0 52.17020072508603 L 13.042550181271508 62.60424087010324 L 0 73.03828101512045 L -13.042550181271508 62.60424087010324 Z"/></g><g transform="rotate(180)"><path d="M 0 52.17020072508603 L 13.042550181271508 62.60424087010324 L 0 73.03828101512045 L -13.042550181271508 62.60424087010324 Z"/></g><g transform="rotate(225)"><path d="M 0 52.17020072508603 L 13.042550181271508 62.60424087010324 L 0 73.03828101512045 L -13.042550181271508 62.60424087010324 Z"/></g><g transform="rotate(270)"><path d="M 0 52.17020072508603 L 13.042550181271508 62.60424087010324 L 0 73.03828101512045 L -13.042550181271508 62.60424087010324 Z"/></g><g transform="rotate(315)"><path d="M 0 52.17020072508603 L 13.042550181271508 62.60424087010324 L 0 73.03828101512045 L -13.042550181271508 62.60424087010324 Z"/></g><g transform="rotate(0)"><path d="M 0 97.54817599497204 L 24.38704399874301 117.05781119396644 L 0 136.56744639296085 L -24.38704399874301 117.05781119396644 Z"/></g><g transform="rotate(45)"><path d="M 0 97.54817599497204 L 24.38704399874301 117.05781119396644 L 0 136.56744639296085 L -24.38704399874301 117.05781119396644 Z"/></g><g transform="rotate(90)"><path d="M 0 97.54817599497204 L 24.38704399874301 117.05781119396644 L 0 136.56744639296085 L -24.38704399874301 117.05781119396644 Z"/></g><g transform="rotate(135)"><path d="M 0 97.54817599497204 L 24.38704399874301 117.05781119396644 L 0 136.56744639296085 L -24.38704399874301 117.05781119396644 Z"/></g><g transform="rotate(180)"><path d="M 0 97.54817599497204 L 24.38704399874301 117.05781119396644 L 0 136.56744639296085 L -24.38704399874301 117.05781119396644 Z"/></g><g transform="rotate(225)"><path d="M 0 97.54817599497204 L 24.38704399874301 117.05781119396644 L 0 136.56744639296085 L -24.38704399874301 117.05781119396644 Z"/></g><g transform="rotate(270)"><path d="M 0 97.54817599497204 L 24.38704399874301 117.05781119396644 L 0 136.56744639296085 L -24.38704399874301 117.05781119396644 Z"/></g><g transform="rotate(315)"><path d="M 0 97.54817599497204 L 24.38704399874301 117.05781119396644 L 0 136.56744639296085 L -24.38704399874301 117.05781119396644 Z"/></g><g transform="rotate(0)"><path d="M 0 142.64924604113082 L 0 185.44401985347008"/></g><g transform="rotate(45)"><path d="M 0 142.64924604113082 L 0 185.44401985347008"/></g><g transform="rotate(90)"><path d="M 0 142.64924604113082 L 0 185.44401985347008"/></g><g transform="rotate(135)"><path d="M 0 142.64924604113082 L 0 185.44401985347008"/></g><g transform="rotate(180)"><path d="M 0 142.64924604113082 L 0 185.44401985347008"/></g><g transform="rotate(225)"><path d="M 0 142.64924604113082 L 0 185.44401985347008"/></g><g transform="rotate(270)"><path d="M 0 142.64924604113082 L 0 185.44401985347008"/></g><g transform="rotate(315)"><path d="M 0 142.64924604113082 L 0 185.44401985347008"/></g><g transform="rotate(0)"><path d="M 0 181.42994155375553 Q 60.476647184585175 217.71592986450662 0 272.1449123306333 Q -60.476647184585175 217.71592986450662 0 181.42994155375553"/></g><g transform="rotate(45)"><path d="M 0 181.42994155375553 Q 60.476647184585175 217.71592986450662 0 272.1449123306333 Q -60.476647184585175 217.71592986450662 0 181.42994155375553"/></g><g transform="rotate(90)"><path d="M 0 181.42994155375553 Q 60.476647184585175 217.71592986450662 0 272.1449123306333 Q -60.476647184585175 217.71592986450662 0 181.42994155375553"/></g><g transform="rotate(135)"><path d="M 0 181.42994155375553 Q 60.476647184585175 217.71592986450662 0 272.1449123306333 Q -60.476647184585175 217.71592986450662 0 181.42994155375553"/></g><g transform="rotate(180)"><path d="M 0 181.42994155375553 Q 60.476647184585175 217.71592986450662 0 272.1449123306333 Q -60.476647184585175 217.71592986450662 0 181.42994155375553"/></g><g transform="rotate(225)"><path d="M 0 181.42994155375553 Q 60.476647184585175 217.71592986450662 0 272.1449123306333 Q -60.476647184585175 217.71592986450662 0 181.42994155375553"/></g><g transform="rotate(270)"><path d="M 0 181.42994155375553 Q 60.476647184585175 217.71592986450662 0 272.1449123306333 Q -60.476647184585175 217.71592986450662 0 181.42994155375553"/></g><g transform="rotate(315)"><path d="M 0 181.42994155375553 Q 60.476647184585175 217.71592986450662 0 272.1449123306333 Q -60.476647184585175 217.71592986450662 0 181.42994155375553"/></g><g transform="rotate(0)"><path d="M -59.423066151295124 237.6922646051805 Q 0 285.2307175262166 59.423066151295124 237.6922646051805"/></g><g transform="rotate(45)"><path d="M -59.423066151295124 237.6922646051805 Q 0 285.2307175262166 59.423066151295124 237.6922646051805"/></g><g transform="rotate(90)"><path d="M -59.423066151295124 237.6922646051805 Q 0 285.2307175262166 59.423066151295124 237.6922646051805"/></g><g transform="rotate(135)"><path d="M -59.423066151295124 237.6922646051805 Q 0 285.2307175262166 59.423066151295124 237.6922646051805"/></g><g transform="rotate(180)"><path d="M -59.423066151295124 237.6922646051805 Q 0 285.2307175262166 59.423066151295124 237.6922646051805"/></g><g transform="rotate(225)"><path d="M -59.423066151295124 237.6922646051805 Q 0 285.2307175262166 59.423066151295124 237.6922646051805"/></g><g transform="rotate(270)"><path d="M -59.423066151295124 237.6922646051805 Q 0 285.2307175262166 59.423066151295124 237.6922646051805"/></g><g transform="rotate(315)"><path d="M -59.423066151295124 237.6922646051805 Q 0 285.2307175262166 59.423066151295124 237.6922646051805"/></g><g transform="rotate(0)"><circle cx="0" cy="277.1648730370881" r="69.29121825927203"/></g><g transform="rotate(45)"><circle cx="0" cy="277.1648730370881" r="69.29121825927203"/></g><g transform="rotate(90)"><circle cx="0" cy="277.1648730370881" r="69.29121825927203"/></g><g transform="rotate(135)"><circle cx="0" cy="277.1648730370881" r="69.29121825927203"/></g><g transform="rotate(180)"><circle cx="0" cy="277.1648730370881" r="69.29121825927203"/></g><g transform="rotate(225)"><circle cx="0" cy="277.1648730370881" r="69.29121825927203"/></g><g transform="rotate(270)"><circle cx="0" cy="277.1648730370881" r="69.29121825927203"/></g><g transform="rotate(315)"><circle cx="0" cy="277.1648730370881" r="69.29121825927203"/></g><g transform="rotate(0)"><path d="M 0 325.2779293984973 Q 108.42597646616576 390.3335152781967 0 487.91689409774597 Q -108.42597646616576 390.3335152781967 0 325.2779293984973"/></g><g transform="rotate(45)"><path d="M 0 325.2779293984973 Q 108.42597646616576 390.3335152781967 0 487.91689409774597 Q -108.42597646616576 390.3335152781967 0 325.2779293984973"/></g><g transform="rotate(90)"><path d="M 0 325.2779293984973 Q 108.42597646616576 390.3335152781967 0 487.91689409774597 Q -108.42597646616576 390.3335152781967 0 325.2779293984973"/></g><g transform="rotate(135)"><path d="M 0 325.2779293984973 Q 108.42597646616576 390.3335152781967 0 487.91689409774597 Q -108.42597646616576 390.3335152781967 0 325.2779293984973"/></g><g transform="rotate(180)"><path d="M 0 325.2779293984973 Q 108.42597646616576 390.3335152781967 0 487.91689409774597 Q -108.42597646616576 390.3335152781967 0 325.2779293984973"/></g><g transform="rotate(225)"><path d="M 0 325.2779293984973 Q 108.42597646616576 390.3335152781967 0 487.91689409774597 Q -108.42597646616576 390.3335152781967 0 325.2779293984973"/></g><g transform="rotate(270)"><path d="M 0 325.2779293984973 Q 108.42597646616576 390.3335152781967 0 487.91689409774597 Q -108.42597646616576 390.3335152781967 0 325.2779293984973"/></g><g transform="rotate(315)"><path d="M 0 325.2779293984973 Q 108.42597646616576 390.3335152781967 0 487.91689409774597 Q -108.42597646616576 390.3335152781967 0 325.2779293984973"/></g></g></svg>