<svg xmlns="http://www.w3.org/2000/svg" viewBox="0 0 800 800" width="800" height="800">
    <rect width="100%" height="100%" fill="white"/>
    <g transform="translate(400, 400)" fill="none" stroke="black" stroke-width="4" stroke-linecap="round" stroke-linejoin="round"><g transform="rotate(0)"><path d="M 0 51.57176078762859 L 12.892940196907148 61.88611294515431 L 0 72.20046510268003 L -12.892940196907148 61.88611294515431 Z"/></g><g transform="rotate(18)"><path d="M 0 51.57176078762859 L 12.892940196907148 61.88611294515431 L 0 72.20046510268003 L -12.892940196907148 61.88611294515431 Z"/></g><g transform="rotate(36)"><path d="M 0 51.57176078762859 L 12.892940196907148 61.88611294515431 L 0 72.20046510268003 L -12.892940196907148 61.88611294515431 Z"/></g><g transform="rotate(54)"><path d="M 0 51.57176078762859 L 12.892940196907148 61.88611294515431 L 0 72.20046510268003 L -12.892940196907148 61.88611294515431 Z"/></g><g transform="rotate(72)"><path d="M 0 51.57176078762859 L 12.892940196907148 61.88611294515431 L 0 72.20046510268003 L -12.892940196907148 61.88611294515431 Z"/></g><g transform="rotate(90)"><path d="M 0 51.57176078762859 L 12.892940196907148 61.88611294515431 L 0 72.20046510268003 L -12.892940196907148 61.88611294515431 Z"/></g><g transform="rotate(108)"><path d="M 0 51.57176078762859 L 12.892940196907148 61.88611294515431 L 0 72.20046510268003 L -12.892940196907148 61.88611294515431 Z"/></g><g transform="rotate(126)"><path d="M 0 51.57176078762859 L 12.892940196907148 61.88611294515431 L 0 72.20046510268003 L -12.892940196907148 61.88611294515431 Z"/></g><g transform="rotate(144)"><path d="M 0 51.57176078762859 L 12.892940196907148 61.88611294515431 L 0 72.20046510268003 L -12.892940196907148 61.88611294515431 Z"/></g><g transform="rotate(162)"><path d="M 0 51.57176078762859 L 12.892940196907148 61.88611294515431 L 0 72.20046510268003 L -12.892940196907148 61.88611294515431 Z"/></g><g transform="rotate(180)"><path d="M 0 51.57176078762859 L 12.892940196907148 61.88611294515431 L 0 72.20046510268003 L -12.892940196907148 61.88611294515431 Z"/></g><g transform="rotate(198)"><path d="M 0 51.57176078762859 L 12.892940196907148 61.88611294515431 L 0 72.20046510268003 L -12.892940196907148 61.88611294515431 Z"/></g><g transform="rotate(216)"><path d="M 0 51.57176078762859 L 12.892940196907148 61.88611294515431 L 0 72.20046510268003 L -12.892940196907148 61.88611294515431 Z"/></g><g transform="rotate(234)"><path d="M 0 51.57176078762859 L 12.892940196907148 61.88611294515431 L 0 72.20046510268003 L -12.892940196907148 61.88611294515431 Z"/></g><g transform="rotate(252)"><path d="M 0 51.57176078762859 L 12.892940196907148 61.88611294515431 L 0 72.20046510268003 L -12.892940196907148 61.88611294515431 Z"/></g><g transform="rotate(270)"><path d="M 0 51.57176078762859 L 12.892940196907148 61.88611294515431 L 0 72.20046510268003 L -12.892940196907148 61.88611294515431 Z"/></g><g transform="rotate(288)"><path d="M 0 51.57176078762859 L 12.892940196907148 61.88611294515431 L 0 72.20046510268003 L -12.892940196907148 61.88611294515431 Z"/></g><g transform="rotate(306)"><path d="M 0 51.57176078762859 L 12.892940196907148 61.88611294515431 L 0 72.20046510268003 L -12.892940196907148 61.88611294515431 Z"/></g><g transform="rotate(324)"><path d="M 0 51.57176078762859 L 12.892940196907148 61.88611294515431 L 0 72.20046510268003 L -12.892940196907148 61.88611294515431 Z"/></g><g transform="rotate(342)"><path d="M 0 51.57176078762859 L 12.892940196907148 61.88611294515431 L 0 72.20046510268003 L -12.892940196907148 61.88611294515431 Z"/></g><g transform="rotate(0)"><path d="M 0 121.93837604019791 Q 40.64612534673264 146.3260512482375 0 182.90756406029686 Q -40.64612534673264 146.3260512482375 0 121.93837604019791"/></g><g transform="rotate(18)"><path d="M 0 121.93837604019791 Q 40.64612534673264 146.3260512482375 0 182.90756406029686 Q -40.64612534673264 146.3260512482375 0 121.93837604019791"/></g><g transform="rotate(36)"><path d="M 0 121.93837604019791 Q 40.64612534673264 146.3260512482375 0 182.90756406029686 Q -40.64612534673264 146.3260512482375 0 121.93837604019791"/></g><g transform="rotate(54)"><path d="M 0 121.93837604019791 Q 40.64612534673264 146.3260512482375 0 182.90756406029686 Q -40.64612534673264 146.3260512482375 0 121.93837604019791"/></g><g transform="rotate(72)"><path d="M 0 121.93837604019791 Q 40.64612534673264 146.3260512482375 0 182.90756406029686 Q -40.64612534673264 146.3260512482375 0 121.93837604019791"/></g><g transform="rotate(90)"><path d="M 0 121.93837604019791 Q 40.64612534673264 146.3260512482375 0 182.90756406029686 Q -40.64612534673264 146.3260512482375 0 121.93837604019791"/></g><g transform="rotate(108)"><path d="M 0 121.93837604019791 Q 40.64612534673264 146.3260512482375 0 182.90756406029686 Q -40.64612534673264 146.3260512482375 0 121.93837604019791"/></g><g transform="rotate(126)"><path d="M 0 121.93837604019791 Q 40.64612534673264 146.3260512482375 0 182.90756406029686 Q -40.64612534673264 146.3260512482375 0 121.93837604019791"/></g><g transform="rotate(144)"><path d="M 0 121.93837604019791 Q 40.64612534673264 146.3260512482375 0 182.90756406029686 Q -40.64612534673264 146.3260512482375 0 121.93837604019791"/></g><g transform="rotate(162)"><path d="M 0 121.93837604019791 Q 40.64612534673264 146.3260512482375 0 182.90756406029686 Q -40.64612534673264 146.3260512482375 0 121.93837604019791"/></g><g transform="rotate(180)"><path d="M 0 121.93837604019791 Q 40.64612534673264 146.3260512482375 0 182.90756406029686 Q -40.64612534673264 146.3260512482375 0 121.93837604019791"/></g><g transform="rotate(198)"><path d="M 0 121.93837604019791 Q 40.64612534673264 146.3260512482375 0 182.90756406029686 Q -40.64612534673264 146.3260512482375 0 121.93837604019791"/></g><g transform="rotate(216)"><path d="M 0 121.93837604019791 Q 40.64612534673264 146.3260512482375 0 182.90756406029686 Q -40.64612534673264 146.3260512482375 0 121.93837604019791"/></g><g transform="rotate(234)"><path d="M 0 121.93837604019791 Q 40.64612534673264 146.3260512482375 0 182.90756406029686 Q -40.64612534673264 146.3260512482375 0 121.93837604019791"/></g><g transform="rotate(252)"><path d="M 0 121.93837604019791 Q 40.64612534673264 146.3260512482375 0 182.90756406029686 Q -40.64612534673264 146.3260512482375 0 121.93837604019791"/></g><g transform="rotate(270)"><path d="M 0 121.93837604019791 Q 40.64612534673264 146.3260512482375 0 182.90756406029686 Q -40.64612534673264 146.3260512482375 0 121.93837604019791"/></g><g transform="rotate(288)"><path d="M 0 121.93837604019791 Q 40.64612534673264 146.3260512482375 0 182.90756406029686 Q -40.64612534673264 146.3260512482375 0 121.93837604019791"/></g><g transform="rotate(306)"><path d="M 0 121.93837604019791 Q 40.64612534673264 146.3260512482375 0 182.90756406029686 Q -40.64612534673264 146.3260512482375 0 121.93837604019791"/></g><g transform="rotate(324)"><path d="M 0 121.93837604019791 Q 40.64612534673264 146.3260512482375 0 182.90756406029686 Q -40.64612534673264 146.3260512482375 0 121.93837604019791"/></g><g transform="rotate(342)"><path d="M 0 121.93837604019791 Q 40.64612534673264 146.3260512482375 0 182.90756406029686 Q -40.64612534673264 146.3260512482375 0 121.93837604019791"/></g><g transform="rotate(0)"><path d="M 0 207.73030567448586 L 51.932576418621466 249.27636680938303 L 0 290.8224279442802 L -51.932576418621466 249.27636680938303 Z"/></g><g transform="rotate(18)"><path d="M 0 207.73030567448586 L 51.932576418621466 249.27636680938303 L 0 290.8224279442802 L -51.932576418621466 249.27636680938303 Z"/></g><g transform="rotate(36)"><path d="M 0 207.73030567448586 L 51.932576418621466 249.27636680938303 L 0 290.8224279442802 L -51.932576418621466 249.27636680938303 Z"/></g><g transform="rotate(54)"><path d="M 0 207.73030567448586 L 51.932576418621466 249.27636680938303 L 0 290.8224279442802 L -51.932576418621466 249.27636680938303 Z"/></g><g transform="rotate(72)"><path d="M 0 207.73030567448586 L 51.932576418621466 249.27636680938303 L 0 290.8224279442802 L -51.932576418621466 249.27636680938303 Z"/></g><g transform="rotate(90)"><path d="M 0 207.73030567448586 L 51.932576418621466 249.27636680938303 L 0 290.8224279442802 L -51.932576418621466 249.27636680938303 Z"/></g><g transform="rotate(108)"><path d="M 0 207.73030567448586 L 51.932576418621466 249.27636680938303 L 0 290.8224279442802 L -51.932576418621466 249.27636680938303 Z"/></g><g transform="rotate(126)"><path d="M 0 207.73030567448586 L 51.932576418621466 249.27636680938303 L 0 290.8224279442802 L -51.932576418621466 249.27636680938303 Z"/></g><g transform="rotate(144)"><path d="M 0 207.73030567448586 L 51.932576418621466 249.27636680938303 L 0 290.8224279442802 L -51.932576418621466 249.27636680938303 Z"/></g><g transform="rotate(162)"><path d="M 0 207.73030567448586 L 51.932576418621466 249.27636680938303 L 0 290.8224279442802 L -51.932576418621466 249.27636680938303 Z"/></g><g transform="rotate(180)"><path d="M 0 207.73030567448586 L 51.932576418621466 249.27636680938303 L 0 290.8224279442802 L -51.932576418621466 249.27636680938303 Z"/></g><g transform="rotate(198)"><path d="M 0 207.73030567448586 L 51.932576418621466 249.27636680938303 L 0 290.8224279442802 L -51.932576418621466 249.27636680938303 Z"/></g><g transform="rotate(216)"><path d="M 0 207.73030567448586 L 51.932576418621466 249.27636680938303 L 0 290.8224279442802 L -51.932576418621466 249.27636680938303 Z"/></g><g transform="rotate(234)"><path d="M 0 207.73030567448586 L 51.932576418621466 249.27636680938303 L 0 290.8224279442802 L -51.932576418621466 249.27636680938303 Z"/></g><g transform="rotate(252)"><path d="M 0 207.73030567448586 L 51.932576418621466 249.27636680938303 L 0 290.8224279442802 L -51.932576418621466 249.27636680938303 Z"/></g><g transform="rotate(270)"><path d="M 0 207.73030567448586 L 51.932576418621466 249.27636680938303 L 0 290.8224279442802 L -51.932576418621466 249.27636680938303 Z"/></g><g transform="rotate(288)"><path d="M 0 207.73030567448586 L 51.932576418621466 249.27636680938303 L 0 290.8224279442802 L -51.932576418621466 249.27636680938303 Z"/></g><g transform="rotate(306)"><path d="M 0 207.73030567448586 L 51.932576418621466 249.27636680938303 L 0 290.8224279442802 L -51.932576418621466 249.27636680938303 Z"/></g><g transform="rotate(324)"><path d="M 0 207.73030567448586 L 51.932576418621466 249.27636680938303 L 0 290.8224279442802 L -51.932576418621466 249.27636680938303 Z"/></g><g transform="rotate(342)"><path d="M 0 207.73030567448586 L 51.932576418621466 249.27636680938303 L 0 290.8224279442802 L -51.932576418621466 249.27636680938303 Z"/></g><g transform="rotate(0)"><path d="M 0 286.7406215565279 L 0 372.7628080234863"/></g><g transform="rotate(18)"><path d="M 0 286.7406215565279 L 0 372.7628080234863"/></g><g transform="rotate(36)"><path d="M 0 286.7406215565279 L 0 372.7628080234863"/></g><g transform="rotate(54)"><path d="M 0 286.7406215565279 L 0 372.7628080234863"/></g><g transform="rotate(72)"><path d="M 0 286.7406215565279 L 0 372.7628080234863"/></g><g transform="rotate(90)"><path d="M 0 286.7406215565279 L 0 372.7628080234863"/></g><g transform="rotate(108)"><path d="M 0 286.7406215565279 L 0 372.7628080234863"/></g><g transform="rotate(126)"><path d="M 0 286.7406215565279 L 0 372.7628080234863"/></g><g transform="rotate(144)"><path d="M 0 286.7406215565279 L 0 372.7628080234863"/></g><g transform="rotate(162)"><path d="M 0 286.7406215565279 L 0 372.7628080234863"/></g><g transform="rotate(180)"><path d="M 0 286.7406215565279 L 0 372.7628080234863"/></g><g transform="rotate(198)"><path d="M 0 286.7406215565279 L 0 372.7628080234863"/></g><g transform="rotate(216)"><path d="M 0 286.7406215565279 L 0 372.7628080234863"/></g><g transform="rotate(234)"><path d="M 0 286.7406215565279 L 0 372.7628080234863"/></g><g transform="rotate(252)"><path d="M 0 286.7406215565279 L 0 372.7628080234863"/></g><g transform="rotate(270)"><path d="M 0 286.7406215565279 L 0 372.7628080234863"/></g><g transform="rotate(288)"><path d="M 0 286.7406215565279 L 0 372.7628080234863"/></g><g transform="rotate(306)"><path d="M 0 286.7406215565279 L 0 372.7628080234863"/></g><g transform="rotate(324)"><path d="M 0 286.7406215565279 L 0 372.7628080234863"/></g><g transform="rotate(342)"><path d="M 0 286.7406215565279 L 0 372.7628080234863"/></g></g></svg>