<svg xmlns="http://www.w3.org/2000/svg" viewBox="0 0 800 800" width="800" height="800">
    <rect width="100%" height="100%" fill="white"/>
    <g transform="translate(400, 400)" fill="none" stroke="black" stroke-width="4" stroke-linecap="round" stroke-linejoin="round"><g transform="rotate(0)"><path d="M 0 54.68986289110035 L 13.672465722775087 65.62783546932042 L 0 76.56580804754049 L -13.672465722775087 65.62783546932042 Z"/></g><g transform="rotate(25.714285714285715)"><path d="M 0 54.68986289110035 L 13.672465722775087 65.62783546932042 L 0 76.56580804754049 L -13.672465722775087 65.62783546932042 Z"/></g><g transform="rotate(51.42857142857143)"><path d="M 0 54.68986289110035 L 13.672465722775087 65.62783546932042 L 0 76.56580804754049 L -13.672465722775087 65.62783546932042 Z"/></g><g transform="rotate(77.14285714285714)"><path d="M 0 54.68986289110035 L 13.672465722775087 65.62783546932042 L 0 76.56580804754049 L -13.672465722775087 65.62783546932042 Z"/></g><g transform="rotate(102.85714285714286)"><path d="M 0 54.68986289110035 L 13.672465722775087 65.62783546932042 L 0 76.56580804754049 L -13.672465722775087 65.62783546932042 Z"/></g><g transform="rotate(128.57142857142858)"><path d="M 0 54.68986289110035 L 13.672465722775087 65.62783546932042 L 0 76.56580804754049 L -13.672465722775087 65.62783546932042 Z"/></g><g transform="rotate(154.28571428571428)"><path d="M 0 54.68986289110035 L 13.672465722775087 65.62783546932042 L 0 76.56580804754049 L -13.672465722775087 65.62783546932042 Z"/></g><g transform="rotate(180)"><path d="M 0 54.68986289110035 L 13.672465722775087 65.62783546932042 L 0 76.56580804754049 L -13.672465722775087 65.62783546932042 Z"/></g><g transform="rotate(205.71428571428572)"><path d="M 0 54.68986289110035 L 13.672465722775087 65.62783546932042 L 0 76.56580804754049 L -13.672465722775087 65.62783546932042 Z"/></g><g transform="rotate(231.42857142857142)"><path d="M 0 54.68986289110035 L 13.672465722775087 65.62783546932042 L 0 76.56580804754049 L -13.672465722775087 65.62783546932042 Z"/></g><g transform="rotate(257.14285714285717)"><path d="M 0 54.68986289110035 L 13.672465722775087 65.62783546932042 L 0 76.56580804754049 L -13.672465722775087 65.62783546932042 Z"/></g><g transform="rotate(282.85714285714283)"><path d="M 0 54.68986289110035 L 13.672465722775087 65.62783546932042 L 0 76.56580804754049 L -13.672465722775087 65.62783546932042 Z"/></g><g transform="rotate(308.57142857142856)"><path d="M 0 54.68986289110035 L 13.672465722775087 65.62783546932042 L 0 76.56580804754049 L -13.672465722775087 65.62783546932042 Z"/></g><g transform="rotate(334.2857142857143)"><path d="M 0 54.68986289110035 L 13.672465722775087 65.62783546932042 L 0 76.56580804754049 L -13.672465722775087 65.62783546932042 Z"/></g><g transform="rotate(0)"><path d="M -34.636936873430386 138.54774749372154 Q 0 166.25729699246585 34.636936873430386 138.54774749372154"/></g><g transform="rotate(25.714285714285715)"><path d="M -34.636936873430386 138.54774749372154 Q 0 166.25729699246585 34.636936873430386 138.54774749372154"/></g><g transform="rotate(51.42857142857143)"><path d="M -34.636936873430386 138.54774749372154 Q 0 166.25729699246585 34.636936873430386 138.54774749372154"/></g><g transform="rotate(77.14285714285714)"><path d="M -34.636936873430386 138.54774749372154 Q 0 166.25729699246585 34.636936873430386 138.54774749372154"/></g><g transform="rotate(102.85714285714286)"><path d="M -34.636936873430386 138.54774749372154 Q 0 166.25729699246585 34.636936873430386 138.54774749372154"/></g><g transform="rotate(128.57142857142858)"><path d="M -34.636936873430386 138.54774749372154 Q 0 166.25729699246585 34.636936873430386 138.54774749372154"/></g><g transform="rotate(154.28571428571428)"><path d="M -34.636936873430386 138.54774749372154 Q 0 166.25729699246585 34.636936873430386 138.54774749372154"/></g><g transform="rotate(180)"><path d="M -34.636936873430386 138.54774749372154 Q 0 166.25729699246585 34.636936873430386 138.54774749372154"/></g><g transform="rotate(205.71428571428572)"><path d="M -34.636936873430386 138.54774749372154 Q 0 166.25729699246585 34.636936873430386 138.54774749372154"/></g><g transform="rotate(231.42857142857142)"><path d="M -34.636936873430386 138.54774749372154 Q 0 166.25729699246585 34.636936873430386 138.54774749372154"/></g><g transform="rotate(257.14285714285717)"><path d="M -34.636936873430386 138.54774749372154 Q 0 166.25729699246585 34.636936873430386 138.54774749372154"/></g><g transform="rotate(282.85714285714283)"><path d="M -34.636936873430386 138.54774749372154 Q 0 166.25729699246585 34.636936873430386 138.54774749372154"/></g><g transform="rotate(308.57142857142856)"><path d="M -34.636936873430386 138.54774749372154 Q 0 166.25729699246585 34.636936873430386 138.54774749372154"/></g><g transform="rotate(334.2857142857143)"><path d="M -34.636936873430386 138.54774749372154 Q 0 166.25729699246585 34.636936873430386 138.54774749372154"/></g><g transform="rotate(0)"><path d="M -51.27873242716305 205.1149297086522 Q 0 246.13791565038264 51.27873242716305 205.1149297086522"/></g><g transform="rotate(25.714285714285715)"><path d="M -51.27873242716305 205.1149297086522 Q 0 246.13791565038264 51.27873242716305 205.1149297086522"/></g><g transform="rotate(51.42857142857143)"><path d="M -51.27873242716305 205.1149297086522 Q 0 246.13791565038264 51.27873242716305 205.1149297086522"/></g><g transform="rotate(77.14285714285714)"><path d="M -51.27873242716305 205.1149297086522 Q 0 246.13791565038264 51.27873242716305 205.1149297086522"/></g><g transform="rotate(102.85714285714286)"><path d="M -51.27873242716305 205.1149297086522 Q 0 246.13791565038264 51.27873242716305 205.1149297086522"/></g><g transform="rotate(128.57142857142858)"><path d="M -51.27873242716305 205.1149297086522 Q 0 246.13791565038264 51.27873242716305 205.1149297086522"/></g><g transform="rotate(154.28571428571428)"><path d="M -51.27873242716305 205.1149297086522 Q 0 246.13791565038264 51.27873242716305 205.1149297086522"/></g><g transform="rotate(180)"><path d="M -51.27873242716305 205.1149297086522 Q 0 246.13791565038264 51.27873242716305 205.1149297086522"/></g><g transform="rotate(205.71428571428572)"><path d="M -51.27873242716305 205.1149297086522 Q 0 246.13791565038264 51.27873242716305 205.1149297086522"/></g><g transform="rotate(231.42857142857142)"><path d="M -51.27873242716305 205.1149297086522 Q 0 246.13791565038264 51.27873242716305 205.1149297086522"/></g><g transform="rotate(257.14285714285717)"><path d="M -51.27873242716305 205.1149297086522 Q 0 246.13791565038264 51.27873242716305 205.1149297086522"/></g><g transform="rotate(282.85714285714283)"><path d="M -51.27873242716305 205.1149297086522 Q 0 246.13791565038264 51.27873242716305 205.1149297086522"/></g><g transform="rotate(308.57142857142856)"><path d="M -51.27873242716305 205.1149297086522 Q 0 246.13791565038264 51.27873242716305 205.1149297086522"/></g><g transform="rotate(334.2857142857143)"><path d="M -51.27873242716305 205.1149297086522 Q 0 246.13791565038264 51.27873242716305 205.1149297086522"/></g><g transform="rotate(0)"><circle cx="0" cy="283.2667110161856" r="70.8166777540464"/></g><g transform="rotate(25.714285714285715)"><circle cx="0" cy="283.2667110161856" r="70.8166777540464"/></g><g transform="rotate(51.42857142857143)"><circle cx="0" cy="283.2667110161856" r="70.8166777540464"/></g><g transform="rotate(77.14285714285714)"><circle cx="0" cy="283.2667110161856" r="70.8166777540464"/></g><g transform="rotate(102.85714285714286)"><circle cx="0" cy="283.2667110161856" r="70.8166777540464"/></g><g transform="rotate(128.57142857142858)"><circle cx="0" cy="283.2667110161856" r="70.8166777540464"/></g><g transform="rotate(154.28571428571428)"><circle cx="0" cy="283.2667110161856" r="70.8166777540464"/></g><g transform="rotate(180)"><circle cx="0" cy="283.2667110161856" r="70.8166777540464"/></g><g transform="rotate(205.71428571428572)"><circle cx="0" cy="283.2667110161856" r="70.8166777540464"/></g><g transform="rotate(231.42857142857142)"><circle cx="0" cy="283.2667110161856" r="70.8166777540464"/></g><g transform="rotate(257.14285714285717)"><circle cx="0" cy="283.2667110161856" r="70.8166777540464"/></g><g transform="rotate(282.85714285714283)"><circle cx="0" cy="283.2667110161856" r="70.8166777540464"/></g><g transform="rotate(308.57142857142856)"><circle cx="0" cy="283.2667110161856" r="70.8166777540464"/></g><g transform="rotate(334.2857142857143)"><circle cx="0" cy="283.2667110161856" r="70.8166777540464"/></g></g></svg>