<svg xmlns="http://www.w3.org/2000/svg" viewBox="0 0 800 800" width="800" height="800">
    <rect width="100%" height="100%" fill="white"/>
    <g transform="translate(400, 400)" fill="none" stroke="black" stroke-width="4" stroke-linecap="round" stroke-linejoin="round"><g transform="rotate(0)"><circle cx="0" cy="58.406404932029545" r="14.601601233007386"/></g><g transform="rotate(30)"><circle cx="0" cy="58.406404932029545" r="14.601601233007386"/></g><g transform="rotate(60)"><circle cx="0" cy="58.406404932029545" r="14.601601233007386"/></g><g transform="rotate(90)"><circle cx="0" cy="58.406404932029545" r="14.601601233007386"/></g><g transform="rotate(120)"><circle cx="0" cy="58.406404932029545" r="14.601601233007386"/></g><g transform="rotate(150)"><circle cx="0" cy="58.406404932029545" r="14.601601233007386"/></g><g transform="rotate(180)"><circle cx="0" cy="58.406404932029545" r="14.601601233007386"/></g><g transform="rotate(210)"><circle cx="0" cy="58.406404932029545" r="14.601601233007386"/></g><g transform="rotate(240)"><circle cx="0" cy="58.406404932029545" r="14.601601233007386"/></g><g transform="rotate(270)"><circle cx="0" cy="58.406404932029545" r="14.601601233007386"/></g><g transform="rotate(300)"><circle cx="0" cy="58.406404932029545" r="14.601601233007386"/></g><g transform="rotate(330)"><circle cx="0" cy="58.406404932029545" r="14.601601233007386"/></g><g transform="rotate(0)"><path d="M 0 85.05263318773359 L 0 110.56842314405367"/></g><g transform="rotate(30)"><path d="M 0 85.05263318773359 L 0 110.56842314405367"/></g><g transform="rotate(60)"><path d="M 0 85.05263318773359 L 0 110.56842314405367"/></g><g transform="rotate(90)"><path d="M 0 85.05263318773359 L 0 110.56842314405367"/></g><g transform="rotate(120)"><path d="M 0 85.05263318773359 L 0 110.56842314405367"/></g><g transform="rotate(150)"><path d="M 0 85.05263318773359 L 0 110.56842314405367"/></g><g transform="rotate(180)"><path d="M 0 85.05263318773359 L 0 110.56842314405367"/></g><g transform="rotate(210)"><path d="M 0 85.05263318773359 L 0 110.56842314405367"/></g><g transform="rotate(240)"><path d="M 0 85.05263318773359 L 0 110.56842314405367"/></g><g transform="rotate(270)"><path d="M 0 85.05263318773359 L 0 110.56842314405367"/></g><g transform="rotate(300)"><path d="M 0 85.05263318773359 L 0 110.56842314405367"/></g><g transform="rotate(330)"><path d="M 0 85.05263318773359 L 0 110.56842314405367"/></g><g transform="rotate(0)"><path d="M 0 125.98992268089205 Q 41.99664089363068 151.18790721707046 0 188.98488402133808 Q -41.99664089363068 151.18790721707046 0 125.98992268089205"/></g><g transform="rotate(30)"><path d="M 0 125.98992268089205 Q 41.99664089363068 151.18790721707046 0 188.98488402133808 Q -41.99664089363068 151.18790721707046 0 125.98992268089205"/></g><g transform="rotate(60)"><path d="M 0 125.98992268089205 Q 41.99664089363068 151.18790721707046 0 188.98488402133808 Q -41.99664089363068 151.18790721707046 0 125.98992268089205"/></g><g transform="rotate(90)"><path d="M 0 125.98992268089205 Q 41.99664089363068 151.18790721707046 0 188.98488402133808 Q -41.99664089363068 151.18790721707046 0 125.98992268089205"/></g><g transform="rotate(120)"><path d="M 0 125.98992268089205 Q 41.99664089363068 151.18790721707046 0 188.98488402133808 Q -41.99664089363068 151.18790721707046 0 125.98992268089205"/></g><g transform="rotate(150)"><path d="M 0 125.98992268089205 Q 41.99664089363068 151.18790721707046 0 188.98488402133808 Q -41.99664089363068 151.18790721707046 0 125.98992268089205"/></g><g transform="rotate(180)"><path d="M 0 125.98992268089205 Q 41.99664089363068 151.18790721707046 0 188.98488402133808 Q -41.99664089363068 151.18790721707046 0 125.98992268089205"/></g><g transform="rotate(210)"><path d="M 0 125.98992268089205 Q 41.99664089363068 151.18790721707046 0 188.98488402133808 Q -41.99664089363068 151.18790721707046 0 125.98992268089205"/></g><g transform="rotate(240)"><path d="M 0 125.98992268089205 Q 41.99664089363068 151.18790721707046 0 188.98488402133808 Q -41.99664089363068 151.18790721707046 0 125.98992268089205"/></g><g transform="rotate(270)"><path d="M 0 125.98992268089205 Q 41.99664089363068 151.18790721707046 0 188.98488402133808 Q -41.99664089363068 151.18790721707046 0 125.98992268089205"/></g><g transform="rotate(300)"><path d="M 0 125.98992268089205 Q 41.99664089363068 151.18790721707046 0 188.98488402133808 Q -41.99664089363068 151.18790721707046 0 125.98992268089205"/></g><g transform="rotate(330)"><path d="M 0 125.98992268089205 Q 41.99664089363068 151.18790721707046 0 188.98488402133808 Q -41.99664089363068 151.18790721707046 0 125.98992268089205"/></g><g transform="rotate(0)"><path d="M 0 177.33926333021373 Q 59.113087776737906 212.80711599625647 0 266.0088949953206 Q -59.113087776737906 212.80711599625647 0 177.33926333021373"/></g><g transform="rotate(30)"><path d="M 0 177.33926333021373 Q 59.113087776737906 212.80711599625647 0 266.0088949953206 Q -59.113087776737906 212.80711599625647 0 177.33926333021373"/></g><g transform="rotate(60)"><path d="M 0 177.33926333021373 Q 59.113087776737906 212.80711599625647 0 266.0088949953206 Q -59.113087776737906 212.80711599625647 0 177.33926333021373"/></g><g transform="rotate(90)"><path d="M 0 177.33926333021373 Q 59.113087776737906 212.80711599625647 0 266.0088949953206 Q -59.113087776737906 212.80711599625647 0 177.33926333021373"/></g><g transform="rotate(120)"><path d="M 0 177.33926333021373 Q 59.113087776737906 212.80711599625647 0 266.0088949953206 Q -59.113087776737906 212.80711599625647 0 177.33926333021373"/></g><g transform="rotate(150)"><path d="M 0 177.33926333021373 Q 59.113087776737906 212.80711599625647 0 266.0088949953206 Q -59.113087776737906 212.80711599625647 0 177.33926333021373"/></g><g transform="rotate(180)"><path d="M 0 177.33926333021373 Q 59.113087776737906 212.80711599625647 0 266.0088949953206 Q -59.113087776737906 212.80711599625647 0 177.33926333021373"/></g><g transform="rotate(210)"><path d="M 0 177.33926333021373 Q 59.113087776737906 212.80711599625647 0 266.0088949953206 Q -59.113087776737906 212.80711599625647 0 177.33926333021373"/></g><g transform="rotate(240)"><path d="M 0 177.33926333021373 Q 59.113087776737906 212.80711599625647 0 266.0088949953206 Q -59.113087776737906 212.80711599625647 0 177.33926333021373"/></g><g transform="rotate(270)"><path d="M 0 177.33926333021373 Q 59.113087776737906 212.80711599625647 0 266.0088949953206 Q -59.113087776737906 212.80711599625647 0 177.33926333021373"/></g><g transform="rotate(300)"><path d="M 0 177.33926333021373 Q 59.113087776737906 212.80711599625647 0 266.0088949953206 Q -59.113087776737906 212.80711599625647 0 177.33926333021373"/></g><g transform="rotate(330)"><path d="M 0 177.33926333021373 Q 59.113087776737906 212.80711599625647 0 266.0088949953206 Q -59.113087776737906 212.80711599625647 0 177.33926333021373"/></g><g transform="rotate(0)"><path d="M 0 206.04001682717353 Q 68.68000560905784 247.24802019260824 0 309.0600252407603 Q -68.68000560905784 247.24802019260824 0 206.04001682717353"/></g><g transform="rotate(30)"><path d="M 0 206.04001682717353 Q 68.68000560905784 247.24802019260824 0 309.0600252407603 Q -68.68000560905784 247.24802019260824 0 206.04001682717353"/></g><g transform="rotate(60)"><path d="M 0 206.04001682717353 Q 68.68000560905784 247.24802019260824 0 309.0600252407603 Q -68.68000560905784 247.24802019260824 0 206.04001682717353"/></g><g transform="rotate(90)"><path d="M 0 206.04001682717353 Q 68.68000560905784 247.24802019260824 0 309.0600252407603 Q -68.68000560905784 247.24802019260824 0 206.04001682717353"/></g><g transform="rotate(120)"><path d="M 0 206.04001682717353 Q 68.68000560905784 247.24802019260824 0 309.0600252407603 Q -68.68000560905784 247.24802019260824 0 206.04001682717353"/></g><g transform="rotate(150)"><path d="M 0 206.04001682717353 Q 68.68000560905784 247.24802019260824 0 309.0600252407603 Q -68.68000560905784 247.24802019260824 0 206.04001682717353"/></g><g transform="rotate(180)"><path d="M 0 206.04001682717353 Q 68.68000560905784 247.24802019260824 0 309.0600252407603 Q -68.68000560905784 247.24802019260824 0 206.04001682717353"/></g><g transform="rotate(210)"><path d="M 0 206.04001682717353 Q 68.68000560905784 247.24802019260824 0 309.0600252407603 Q -68.68000560905784 247.24802019260824 0 206.04001682717353"/></g><g transform="rotate(240)"><path d="M 0 206.04001682717353 Q 68.68000560905784 247.24802019260824 0 309.0600252407603 Q -68.68000560905784 247.24802019260824 0 206.04001682717353"/></g><g transform="rotate(270)"><path d="M 0 206.04001682717353 Q 68.68000560905784 247.24802019260824 0 309.0600252407603 Q -68.68000560905784 247.24802019260824 0 206.04001682717353"/></g><g transform="rotate(300)"><path d="M 0 206.04001682717353 Q 68.68000560905784 247.24802019260824 0 309.0600252407603 Q -68.68000560905784 247.24802019260824 0 206.04001682717353"/></g><g transform="rotate(330)"><path d="M 0 206.04001682717353 Q 68.68000560905784 247.24802019260824 0 309.0600252407603 Q -68.68000560905784 247.24802019260824 0 206.04001682717353"/></g><g transform="rotate(0)"><path d="M 0 259.1283666482195 L 64.78209166205488 310.95403997786343 L 0 362.77971330750734 L -64.78209166205488 310.95403997786343 Z"/></g><g transform="rotate(30)"><path d="M 0 259.1283666482195 L 64.78209166205488 310.95403997786343 L 0 362.77971330750734 L -64.78209166205488 310.95403997786343 Z"/></g><g transform="rotate(60)"><path d="M 0 259.1283666482195 L 64.78209166205488 310.95403997786343 L 0 362.77971330750734 L -64.78209166205488 310.95403997786343 Z"/></g><g transform="rotate(90)"><path d="M 0 259.1283666482195 L 64.78209166205488 310.95403997786343 L 0 362.77971330750734 L -64.78209166205488 310.95403997786343 Z"/></g><g transform="rotate(120)"><path d="M 0 259.1283666482195 L 64.78209166205488 310.95403997786343 L 0 362.77971330750734 L -64.78209166205488 310.95403997786343 Z"/></g><g transform="rotate(150)"><path d="M 0 259.1283666482195 L 64.78209166205488 310.95403997786343 L 0 362.77971330750734 L -64.78209166205488 310.95403997786343 Z"/></g><g transform="rotate(180)"><path d="M 0 259.1283666482195 L 64.78209166205488 310.95403997786343 L 0 362.77971330750734 L -64.78209166205488 310.95403997786343 Z"/></g><g transform="rotate(210)"><path d="M 0 259.1283666482195 L 64.78209166205488 310.95403997786343 L 0 362.77971330750734 L -64.78209166205488 310.95403997786343 Z"/></g><g transform="rotate(240)"><path d="M 0 259.1283666482195 L 64.78209166205488 310.95403997786343 L 0 362.77971330750734 L -64.78209166205488 310.95403997786343 Z"/></g><g transform="rotate(270)"><path d="M 0 259.1283666482195 L 64.78209166205488 310.95403997786343 L 0 362.77971330750734 L -64.78209166205488 310.95403997786343 Z"/></g><g transform="rotate(300)"><path d="M 0 259.1283666482195 L 64.78209166205488 310.95403997786343 L 0 362.77971330750734 L -64.78209166205488 310.95403997786343 Z"/></g><g transform="rotate(330)"><path d="M 0 259.1283666482195 L 64.78209166205488 310.95403997786343 L 0 362.77971330750734 L -64.78209166205488 310.95403997786343 Z"/></g><g transform="rotate(0)"><path d="M 0 297.8500576177612 L 74.4625144044403 357.42006914131343 L 0 416.9900806648657 L -74.4625144044403 357.42006914131343 Z"/></g><g transform="rotate(30)"><path d="M 0 297.8500576177612 L 74.4625144044403 357.42006914131343 L 0 416.9900806648657 L -74.4625144044403 357.42006914131343 Z"/></g><g transform="rotate(60)"><path d="M 0 297.8500576177612 L 74.4625144044403 357.42006914131343 L 0 416.9900806648657 L -74.4625144044403 357.42006914131343 Z"/></g><g transform="rotate(90)"><path d="M 0 297.8500576177612 L 74.4625144044403 357.42006914131343 L 0 416.9900806648657 L -74.4625144044403 357.42006914131343 Z"/></g><g transform="rotate(120)"><path d="M 0 297.8500576177612 L 74.4625144044403 357.42006914131343 L 0 416.9900806648657 L -74.4625144044403 357.42006914131343 Z"/></g><g transform="rotate(150)"><path d="M 0 297.8500576177612 L 74.4625144044403 357.42006914131343 L 0 416.9900806648657 L -74.4625144044403 357.42006914131343 Z"/></g><g transform="rotate(180)"><path d="M 0 297.8500576177612 L 74.4625144044403 357.42006914131343 L 0 416.9900806648657 L -74.4625144044403 357.42006914131343 Z"/></g><g transform="rotate(210)"><path d="M 0 297.8500576177612 L 74.4625144044403 357.42006914131343 L 0 416.9900806648657 L -74.4625144044403 357.42006914131343 Z"/></g><g transform="rotate(240)"><path d="M 0 297.8500576177612 L 74.4625144044403 357.42006914131343 L 0 416.9900806648657 L -74.4625144044403 357.42006914131343 Z"/></g><g transform="rotate(270)"><path d="M 0 297.8500576177612 L 74.4625144044403 357.42006914131343 L 0 416.9900806648657 L -74.4625144044403 357.42006914131343 Z"/></g><g transform="rotate(300)"><path d="M 0 297.8500576177612 L 74.4625144044403 357.42006914131343 L 0 416.9900806648657 L -74.4625144044403 357.42006914131343 Z"/></g><g transform="rotate(330)"><path d="M 0 297.8500576177612 L 74.4625144044403 357.42006914131343 L 0 416.9900806648657 L -74.4625144044403 357.42006914131343 Z"/></g><g transform="rotate(0)"><path d="M 0 325.955569553189 L 0 423.7422404191457"/></g><g transform="rotate(30)"><path d="M 0 325.955569553189 L 0 423.7422404191457"/></g><g transform="rotate(60)"><path d="M 0 325.955569553189 L 0 423.7422404191457"/></g><g transform="rotate(90)"><path d="M 0 325.955569553189 L 0 423.7422404191457"/></g><g transform="rotate(120)"><path d="M 0 325.955569553189 L 0 423.7422404191457"/></g><g transform="rotate(150)"><path d="M 0 325.955569553189 L 0 423.7422404191457"/></g><g transform="rotate(180)"><path d="M 0 325.955569553189 L 0 423.7422404191457"/></g><g transform="rotate(210)"><path d="M 0 325.955569553189 L 0 423.7422404191457"/></g><g transform="rotate(240)"><path d="M 0 325.955569553189 L 0 423.7422404191457"/></g><g transform="rotate(270)"><path d="M 0 325.955569553189 L 0 423.7422404191457"/></g><g transform="rotate(300)"><path d="M 0 325.955569553189 L 0 423.7422404191457"/></g><g transform="rotate(330)"><path d="M 0 325.955569553189 L 0 423.7422404191457"/></g></g></svg>