<svg xmlns="http://www.w3.org/2000/svg" viewBox="0 0 800 800" width="800" height="800">
    <rect width="100%" height="100%" fill="white"/>
    <g transform="translate(400, 400)" fill="none" stroke="black" stroke-width="4" stroke-linecap="round" stroke-linejoin="round"><g transform="rotate(0)"><path d="M 0 45.74498150963336 L 11.43624537740834 54.893977811560035 L 0 64.04297411348671 L -11.43624537740834 54.893977811560035 Z"/></g><g transform="rotate(60)"><path d="M 0 45.74498150963336 L 11.43624537740834 54.893977811560035 L 0 64.04297411348671 L -11.43624537740834 54.893977811560035 Z"/></g><g transform="rotate(120)"><path d="M 0 45.74498150963336 L 11.43624537740834 54.893977811560035 L 0 64.04297411348671 L -11.43624537740834 54.893977811560035 Z"/></g><g transform="rotate(180)"><path d="M 0 45.74498150963336 L 11.43624537740834 54.893977811560035 L 0 64.04297411348671 L -11.43624537740834 54.893977811560035 Z"/></g><g transform="rotate(240)"><path d="M 0 45.74498150963336 L 11.43624537740834 54.893977811560035 L 0 64.04297411348671 L -11.43624537740834 54.893977811560035 Z"/></g><g transform="rotate(300)"><path d="M 0 45.74498150963336 L 11.43624537740834 54.893977811560035 L 0 64.04297411348671 L -11.43624537740834 54.893977811560035 Z"/></g><g transform="rotate(0)"><path d="M -25.80598687304051 103.22394749216204 Q 0 123.86873699059444 25.80598687304051 103.22394749216204"/></g><g transform="rotate(60)"><path d="M -25.80598687304051 103.22394749216204 Q 0 123.86873699059444 25.80598687304051 103.22394749216204"/></g><g transform="rotate(120)"><path d="M -25.80598687304051 103.22394749216204 Q 0 123.86873699059444 25.80598687304051 103.22394749216204"/></g><g transform="rotate(180)"><path d="M -25.80598687304051 103.22394749216204 Q 0 123.86873699059444 25.80598687304051 103.22394749216204"/></g><g transform="rotate(240)"><path d="M -25.80598687304051 103.22394749216204 Q 0 123.86873699059444 25.80598687304051 103.22394749216204"/></g><g transform="rotate(300)"><path d="M -25.80598687304051 103.22394749216204 Q 0 123.86873699059444 25.80598687304051 103.22394749216204"/></g><g transform="rotate(0)"><path d="M 0 150.45696213508825 L 0 195.59405077561473"/></g><g transform="rotate(60)"><path d="M 0 150.45696213508825 L 0 195.59405077561473"/></g><g transform="rotate(120)"><path d="M 0 150.45696213508825 L 0 195.59405077561473"/></g><g transform="rotate(180)"><path d="M 0 150.45696213508825 L 0 195.59405077561473"/></g><g transform="rotate(240)"><path d="M 0 150.45696213508825 L 0 195.59405077561473"/></g><g transform="rotate(300)"><path d="M 0 150.45696213508825 L 0 195.59405077561473"/></g><g transform="rotate(0)"><path d="M 0 196.87668756781412 L 0 255.93969383815835"/></g><g transform="rotate(60)"><path d="M 0 196.87668756781412 L 0 255.93969383815835"/></g><g transform="rotate(120)"><path d="M 0 196.87668756781412 L 0 255.93969383815835"/></g><g transform="rotate(180)"><path d="M 0 196.87668756781412 L 0 255.93969383815835"/></g><g transform="rotate(240)"><path d="M 0 196.87668756781412 L 0 255.93969383815835"/></g><g transform="rotate(300)"><path d="M 0 196.87668756781412 L 0 255.93969383815835"/></g><g transform="rotate(0)"><circle cx="0" cy="225.59899533899235" r="56.39974883474809"/></g><g transform="rotate(60)"><circle cx="0" cy="225.59899533899235" r="56.39974883474809"/></g><g transform="rotate(120)"><circle cx="0" cy="225.59899533899235" r="56.39974883474809"/></g><g transform="rotate(180)"><circle cx="0" cy="225.59899533899235" r="56.39974883474809"/></g><g transform="rotate(240)"><circle cx="0" cy="225.59899533899235" r="56.39974883474809"/></g><g transform="rotate(300)"><circle cx="0" cy="225.59899533899235" r="56.39974883474809"/></g><g transform="rotate(0)"><path d="M 0 276.65039103810807 L 0 359.6455083495405"/></g><g transform="rotate(60)"><path d="M 0 276.65039103810807 L 0 359.6455083495405"/></g><g transform="rotate(120)"><path d="M 0 276.65039103810807 L 0 359.6455083495405"/></g><g transform="rotate(180)"><path d="M 0 276.65039103810807 L 0 359.6455083495405"/></g><g transform="rotate(240)"><path d="M 0 276.65039103810807 L 0 359.6455083495405"/></g><g transform="rotate(300)"><path d="M 0 276.65039103810807 L 0 359.6455083495405"/></g><g transform="rotate(0)"><circle cx="0" cy="324.7074628428423" r="81.17686571071057"/></g><g transform="rotate(60)"><circle cx="0" cy="324.7074628428423" r="81.17686571071057"/></g><g transform="rotate(120)"><circle cx="0" cy="324.7074628428423" r="81.17686571071057"/></g><g transform="rotate(180)"><circle cx="0" cy="324.7074628428423" r="81.17686571071057"/></g><g transform="rotate(240)"><circle cx="0" cy="324.7074628428423" r="81.17686571071057"/></g><g transform="rotate(300)"><circle cx="0" cy="324.7074628428423" r="81.17686571071057"/></g></g></svg>