<svg xmlns="http://www.w3.org/2000/svg" viewBox="0 0 800 800" width="800" height="800">
    <rect width="100%" height="100%" fill="white"/>
    <g transform="translate(400, 400)" fill="none" stroke="black" stroke-width="4" stroke-linecap="round" stroke-linejoin="round"><g transform="rotate(0)"><path d="M -11.963804686674848 47.85521874669939 Q 0 57.42626249603927 11.963804686674848 47.85521874669939"/></g><g transform="rotate(45)"><path d="M -11.963804686674848 47.85521874669939 Q 0 57.42626249603927 11.963804686674848 47.85521874669939"/></g><g transform="rotate(90)"><path d="M -11.963804686674848 47.85521874669939 Q 0 57.42626249603927 11.963804686674848 47.85521874669939"/></g><g transform="rotate(135)"><path d="M -11.963804686674848 47.85521874669939 Q 0 57.42626249603927 11.963804686674848 47.85521874669939"/></g><g transform="rotate(180)"><path d="M -11.963804686674848 47.85521874669939 Q 0 57.42626249603927 11.963804686674848 47.85521874669939"/></g><g transform="rotate(225)"><path d="M -11.963804686674848 47.85521874669939 Q 0 57.42626249603927 11.963804686674848 47.85521874669939"/></g><g transform="rotate(270)"><path d="M -11.963804686674848 47.85521874669939 Q 0 57.42626249603927 11.963804686674848 47.85521874669939"/></g><g transform="rotate(315)"><path d="M -11.963804686674848 47.85521874669939 Q 0 57.42626249603927 11.963804686674848 47.85521874669939"/></g><g transform="rotate(0)"><path d="M -27.1917059198798 108.7668236795192 Q 0 130.52018841542304 27.1917059198798 108.7668236795192"/></g><g transform="rotate(45)"><path d="M -27.1917059198798 108.7668236795192 Q 0 130.52018841542304 27.1917059198798 108.7668236795192"/></g><g transform="rotate(90)"><path d="M -27.1917059198798 108.7668236795192 Q 0 130.52018841542304 27.1917059198798 108.7668236795192"/></g><g transform="rotate(135)"><path d="M -27.1917059198798 108.7668236795192 Q 0 130.52018841542304 27.1917059198798 108.7668236795192"/></g><g transform="rotate(180)"><path d="M -27.1917059198798 108.7668236795192 Q 0 130.52018841542304 27.1917059198798 108.7668236795192"/></g><g transform="rotate(225)"><path d="M -27.1917059198798 108.7668236795192 Q 0 130.52018841542304 27.1917059198798 108.7668236795192"/></g><g transform="rotate(270)"><path d="M -27.1917059198798 108.7668236795192 Q 0 130.52018841542304 27.1917059198798 108.7668236795192"/></g><g transform="rotate(315)"><path d="M -27.1917059198798 108.7668236795192 Q 0 130.52018841542304 27.1917059198798 108.7668236795192"/></g><g transform="rotate(0)"><circle cx="0" cy="153.5219793689127" r="38.380494842228174"/></g><g transform="rotate(45)"><circle cx="0" cy="153.5219793689127" r="38.380494842228174"/></g><g transform="rotate(90)"><circle cx="0" cy="153.5219793689127" r="38.380494842228174"/></g><g transform="rotate(135)"><circle cx="0" cy="153.5219793689127" r="38.380494842228174"/></g><g transform="rotate(180)"><circle cx="0" cy="153.5219793689127" r="38.380494842228174"/></g><g transform="rotate(225)"><circle cx="0" cy="153.5219793689127" r="38.380494842228174"/></g><g transform="rotate(270)"><circle cx="0" cy="153.5219793689127" r="38.380494842228174"/></g><g transform="rotate(315)"><circle cx="0" cy="153.5219793689127" r="38.380494842228174"/></g><g transform="rotate(0)"><path d="M 0 212.66806924249977 Q 70.88935641416658 255.20168309099972 0 319.00210386374965 Q -70.88935641416658 255.20168309099972 0 212.66806924249977"/></g><g transform="rotate(45)"><path d="M 0 212.66806924249977 Q 70.88935641416658 255.20168309099972 0 319.00210386374965 Q -70.88935641416658 255.20168309099972 0 212.66806924249977"/></g><g transform="rotate(90)"><path d="M 0 212.66806924249977 Q 70.88935641416658 255.20168309099972 0 319.00210386374965 Q -70.88935641416658 255.20168309099972 0 212.66806924249977"/></g><g transform="rotate(135)"><path d="M 0 212.66806924249977 Q 70.88935641416658 255.20168309099972 0 319.00210386374965 Q -70.88935641416658 255.20168309099972 0 212.66806924249977"/></g><g transform="rotate(180)"><path d="M 0 212.66806924249977 Q 70.88935641416658 255.20168309099972 0 319.00210386374965 Q -70.88935641416658 255.20168309099972 0 212.66806924249977"/></g><g transform="rotate(225)"><path d="M 0 212.66806924249977 Q 70.88935641416658 255.20168309099972 0 319.00210386374965 Q -70.88935641416658 255.20168309099972 0 212.66806924249977"/></g><g transform="rotate(270)"><path d="M 0 212.66806924249977 Q 70.88935641416658 255.20168309099972 0 319.00210386374965 Q -70.88935641416658 255.20168309099972 0 212.66806924249977"/></g><g transform="rotate(315)"><path d="M 0 212.66806924249977 Q 70.88935641416658 255.20168309099972 0 319.00210386374965 Q -70.88935641416658 255.20168309099972 0 212.66806924249977"/></g><g transform="rotate(0)"><circle cx="0" cy="256.62487987273687" r="64.15621996818422"/></g><g transform="rotate(45)"><circle cx="0" cy="256.62487987273687" r="64.15621996818422"/></g><g transform="rotate(90)"><circle cx="0" cy="256.62487987273687" r="64.15621996818422"/></g><g transform="rotate(135)"><circle cx="0" cy="256.62487987273687" r="64.15621996818422"/></g><g transform="rotate(180)"><circle cx="0" cy="256.62487987273687" r="64.15621996818422"/></g><g transform="rotate(225)"><circle cx="0" cy="256.62487987273687" r="64.15621996818422"/></g><g transform="rotate(270)"><circle cx="0" cy="256.62487987273687" r="64.15621996818422"/></g><g transform="rotate(315)"><circle cx="0" cy="256.62487987273687" r="64.15621996818422"/></g><g transform="rotate(0)"><circle cx="0" cy="326.5871964969362" r="81.64679912423405"/></g><g transform="rotate(45)"><circle cx="0" cy="326.5871964969362" r="81.64679912423405"/></g><g transform="rotate(90)"><circle cx="0" cy="326.5871964969362" r="81.64679912423405"/></g><g transform="rotate(135)"><circle cx="0" cy="326.5871964969362" r="81.64679912423405"/></g><g transform="rotate(180)"><circle cx="0" cy="326.5871964969362" r="81.64679912423405"/></g><g transform="rotate(225)"><circle cx="0" cy="326.5871964969362" r="81.64679912423405"/></g><g transform="rotate(270)"><circle cx="0" cy="326.5871964969362" r="81.64679912423405"/></g><g transform="rotate(315)"><circle cx="0" cy="326.5871964969362" r="81.64679912423405"/></g></g></svg>