<svg xmlns="http://www.w3.org/2000/svg" viewBox="0 0 800 800" width="800" height="800">
    <rect width="100%" height="100%" fill="white"/>
    <g transform="translate(400, 400)" fill="none" stroke="black" stroke-width="4" stroke-linecap="round" stroke-linejoin="round"><g transform="rotate(0)"><path d="M 0 49.16230358183384 L 12.29057589545846 58.99476429820061 L 0 68.82722501456738 L -12.29057589545846 58.99476429820061 Z"/></g><g transform="rotate(36)"><path d="M 0 49.16230358183384 L 12.29057589545846 58.99476429820061 L 0 68.82722501456738 L -12.29057589545846 58.99476429820061 Z"/></g><g transform="rotate(72)"><path d="M 0 49.16230358183384 L 12.29057589545846 58.99476429820061 L 0 68.82722501456738 L -12.29057589545846 58.99476429820061 Z"/></g><g transform="rotate(108)"><path d="M 0 49.16230358183384 L 12.29057589545846 58.99476429820061 L 0 68.82722501456738 L -12.29057589545846 58.99476429820061 Z"/></g><g transform="rotate(144)"><path d="M 0 49.16230358183384 L 12.29057589545846 58.99476429820061 L 0 68.82722501456738 L -12.29057589545846 58.99476429820061 Z"/></g><g transform="rotate(180)"><path d="M 0 49.16230358183384 L 12.29057589545846 58.99476429820061 L 0 68.82722501456738 L -12.29057589545846 58.99476429820061 Z"/></g><g transform="rotate(216)"><path d="M 0 49.16230358183384 L 12.29057589545846 58.99476429820061 L 0 68.82722501456738 L -12.29057589545846 58.99476429820061 Z"/></g><g transform="rotate(252)"><path d="M 0 49.16230358183384 L 12.29057589545846 58.99476429820061 L 0 68.82722501456738 L -12.29057589545846 58.99476429820061 Z"/></g><g transform="rotate(288)"><path d="M 0 49.16230358183384 L 12.29057589545846 58.99476429820061 L 0 68.82722501456738 L -12.29057589545846 58.99476429820061 Z"/></g><g transform="rotate(324)"><path d="M 0 49.16230358183384 L 12.29057589545846 58.99476429820061 L 0 68.82722501456738 L -12.29057589545846 58.99476429820061 Z"/></g><g transform="rotate(0)"><path d="M 0 84.62234590719972 Q 28.20744863573324 101.54681508863966 0 126.93351886079958 Q -28.20744863573324 101.54681508863966 0 84.62234590719972"/></g><g transform="rotate(36)"><path d="M 0 84.62234590719972 Q 28.20744863573324 101.54681508863966 0 126.93351886079958 Q -28.20744863573324 101.54681508863966 0 84.62234590719972"/></g><g transform="rotate(72)"><path d="M 0 84.62234590719972 Q 28.20744863573324 101.54681508863966 0 126.93351886079958 Q -28.20744863573324 101.54681508863966 0 84.62234590719972"/></g><g transform="rotate(108)"><path d="M 0 84.62234590719972 Q 28.20744863573324 101.54681508863966 0 126.93351886079958 Q -28.20744863573324 101.54681508863966 0 84.62234590719972"/></g><g transform="rotate(144)"><path d="M 0 84.62234590719972 Q 28.20744863573324 101.54681508863966 0 126.93351886079958 Q -28.20744863573324 101.54681508863966 0 84.62234590719972"/></g><g transform="rotate(180)"><path d="M 0 84.62234590719972 Q 28.20744863573324 101.54681508863966 0 126.93351886079958 Q -28.20744863573324 101.54681508863966 0 84.62234590719972"/></g><g transform="rotate(216)"><path d="M 0 84.62234590719972 Q 28.20744863573324 101.54681508863966 0 126.93351886079958 Q -28.20744863573324 101.54681508863966 0 84.62234590719972"/></g><g transform="rotate(252)"><path d="M 0 84.62234590719972 Q 28.20744863573324 101.54681508863966 0 126.93351886079958 Q -28.20744863573324 101.54681508863966 0 84.62234590719972"/></g><g transform="rotate(288)"><path d="M 0 84.62234590719972 Q 28.20744863573324 101.54681508863966 0 126.93351886079958 Q -28.20744863573324 101.54681508863966 0 84.62234590719972"/></g><g transform="rotate(324)"><path d="M 0 84.62234590719972 Q 28.20744863573324 101.54681508863966 0 126.93351886079958 Q -28.20744863573324 101.54681508863966 0 84.62234590719972"/></g><g transform="rotate(0)"><path d="M 0 119.26931032083101 L 29.817327580207753 143.12317238499722 L 0 166.9770344491634 L -29.817327580207753 143.12317238499722 Z"/></g><g transform="rotate(36)"><path d="M 0 119.26931032083101 L 29.817327580207753 143.12317238499722 L 0 166.9770344491634 L -29.817327580207753 143.12317238499722 Z"/></g><g transform="rotate(72)"><path d="M 0 119.26931032083101 L 29.817327580207753 143.12317238499722 L 0 166.9770344491634 L -29.817327580207753 143.12317238499722 Z"/></g><g transform="rotate(108)"><path d="M 0 119.26931032083101 L 29.817327580207753 143.12317238499722 L 0 166.9770344491634 L -29.817327580207753 143.12317238499722 Z"/></g><g transform="rotate(144)"><path d="M 0 119.26931032083101 L 29.817327580207753 143.12317238499722 L 0 166.9770344491634 L -29.817327580207753 143.12317238499722 Z"/></g><g transform="rotate(180)"><path d="M 0 119.26931032083101 L 29.817327580207753 143.12317238499722 L 0 166.9770344491634 L -29.817327580207753 143.12317238499722 Z"/></g><g transform="rotate(216)"><path d="M 0 119.26931032083101 L 29.817327580207753 143.12317238499722 L 0 166.9770344491634 L -29.817327580207753 143.12317238499722 Z"/></g><g transform="rotate(252)"><path d="M 0 119.26931032083101 L 29.817327580207753 143.12317238499722 L 0 166.9770344491634 L -29.817327580207753 143.12317238499722 Z"/></g><g transform="rotate(288)"><path d="M 0 119.26931032083101 L 29.817327580207753 143.12317238499722 L 0 166.9770344491634 L -29.817327580207753 143.12317238499722 Z"/></g><g transform="rotate(324)"><path d="M 0 119.26931032083101 L 29.817327580207753 143.12317238499722 L 0 166.9770344491634 L -29.817327580207753 143.12317238499722 Z"/></g><g transform="rotate(0)"><path d="M 0 151.69981797846657 L 37.92495449461664 182.0397815741599 L 0 212.37974516985318 L -37.92495449461664 182.0397815741599 Z"/></g><g transform="rotate(36)"><path d="M 0 151.69981797846657 L 37.92495449461664 182.0397815741599 L 0 212.37974516985318 L -37.92495449461664 182.0397815741599 Z"/></g><g transform="rotate(72)"><path d="M 0 151.69981797846657 L 37.92495449461664 182.0397815741599 L 0 212.37974516985318 L -37.92495449461664 182.0397815741599 Z"/></g><g transform="rotate(108)"><path d="M 0 151.69981797846657 L 37.92495449461664 182.0397815741599 L 0 212.37974516985318 L -37.92495449461664 182.0397815741599 Z"/></g><g transform="rotate(144)"><path d="M 0 151.69981797846657 L 37.92495449461664 182.0397815741599 L 0 212.37974516985318 L -37.92495449461664 182.0397815741599 Z"/></g><g transform="rotate(180)"><path d="M 0 151.69981797846657 L 37.92495449461664 182.0397815741599 L 0 212.37974516985318 L -37.92495449461664 182.0397815741599 Z"/></g><g transform="rotate(216)"><path d="M 0 151.69981797846657 L 37.92495449461664 182.0397815741599 L 0 212.37974516985318 L -37.92495449461664 182.0397815741599 Z"/></g><g transform="rotate(252)"><path d="M 0 151.69981797846657 L 37.92495449461664 182.0397815741599 L 0 212.37974516985318 L -37.92495449461664 182.0397815741599 Z"/></g><g transform="rotate(288)"><path d="M 0 151.69981797846657 L 37.92495449461664 182.0397815741599 L 0 212.37974516985318 L -37.92495449461664 182.0397815741599 Z"/></g><g transform="rotate(324)"><path d="M 0 151.69981797846657 L 37.92495449461664 182.0397815741599 L 0 212.37974516985318 L -37.92495449461664 182.0397815741599 Z"/></g><g transform="rotate(0)"><circle cx="0" cy="199.55180416090622" r="49.887951040226554"/></g><g transform="rotate(36)"><circle cx="0" cy="199.55180416090622" r="49.887951040226554"/></g><g transform="rotate(72)"><circle cx="0" cy="199.55180416090622" r="49.887951040226554"/></g><g transform="rotate(108)"><circle cx="0" cy="199.55180416090622" r="49.887951040226554"/></g><g transform="rotate(144)"><circle cx="0" cy="199.55180416090622" r="49.887951040226554"/></g><g transform="rotate(180)"><circle cx="0" cy="199.55180416090622" r="49.887951040226554"/></g><g transform="rotate(216)"><circle cx="0" cy="199.55180416090622" r="49.887951040226554"/></g><g transform="rotate(252)"><circle cx="0" cy="199.55180416090622" r="49.887951040226554"/></g><g transform="rotate(288)"><circle cx="0" cy="199.55180416090622" r="49.887951040226554"/></g><g transform="rotate(324)"><circle cx="0" cy="199.55180416090622" r="49.887951040226554"/></g><g transform="rotate(0)"><path d="M 0 226.97556472176478 L 56.743891180441196 272.37067766611773 L 0 317.7657906104707 L -56.743891180441196 272.37067766611773 Z"/></g><g transform="rotate(36)"><path d="M 0 226.97556472176478 L 56.743891180441196 272.37067766611773 L 0 317.7657906104707 L -56.743891180441196 272.37067766611773 Z"/></g><g transform="rotate(72)"><path d="M 0 226.97556472176478 L 56.743891180441196 272.37067766611773 L 0 317.7657906104707 L -56.743891180441196 272.37067766611773 Z"/></g><g transform="rotate(108)"><path d="M 0 226.97556472176478 L 56.743891180441196 272.37067766611773 L 0 317.7657906104707 L -56.743891180441196 272.37067766611773 Z"/></g><g transform="rotate(144)"><path d="M 0 226.97556472176478 L 56.743891180441196 272.37067766611773 L 0 317.7657906104707 L -56.743891180441196 272.37067766611773 Z"/></g><g transform="rotate(180)"><path d="M 0 226.97556472176478 L 56.743891180441196 272.37067766611773 L 0 317.7657906104707 L -56.743891180441196 272.37067766611773 Z"/></g><g transform="rotate(216)"><path d="M 0 226.97556472176478 L 56.743891180441196 272.37067766611773 L 0 317.7657906104707 L -56.743891180441196 272.37067766611773 Z"/></g><g transform="rotate(252)"><path d="M 0 226.97556472176478 L 56.743891180441196 272.37067766611773 L 0 317.7657906104707 L -56.743891180441196 272.37067766611773 Z"/></g><g transform="rotate(288)"><path d="M 0 226.97556472176478 L 56.743891180441196 272.37067766611773 L 0 317.7657906104707 L -56.743891180441196 272.37067766611773 Z"/></g><g transform="rotate(324)"><path d="M 0 226.97556472176478 L 56.743891180441196 272.37067766611773 L 0 317.7657906104707 L -56.743891180441196 272.37067766611773 Z"/></g><g transform="rotate(0)"><path d="M 0 265.32654325788224 Q 88.44218108596074 318.3918519094587 0 397.98981488682335 Q -88.44218108596074 318.3918519094587 0 265.32654325788224"/></g><g transform="rotate(36)"><path d="M 0 265.32654325788224 Q 88.44218108596074 318.3918519094587 0 397.98981488682335 Q -88.44218108596074 318.3918519094587 0 265.32654325788224"/></g><g transform="rotate(72)"><path d="M 0 265.32654325788224 Q 88.44218108596074 318.3918519094587 0 397.98981488682335 Q -88.44218108596074 318.3918519094587 0 265.32654325788224"/></g><g transform="rotate(108)"><path d="M 0 265.32654325788224 Q 88.44218108596074 318.3918519094587 0 397.98981488682335 Q -88.44218108596074 318.3918519094587 0 265.32654325788224"/></g><g transform="rotate(144)"><path d="M 0 265.32654325788224 Q 88.44218108596074 318.3918519094587 0 397.98981488682335 Q -88.44218108596074 318.3918519094587 0 265.32654325788224"/></g><g transform="rotate(180)"><path d="M 0 265.32654325788224 Q 88.44218108596074 318.3918519094587 0 397.98981488682335 Q -88.44218108596074 318.3918519094587 0 265.32654325788224"/></g><g transform="rotate(216)"><path d="M 0 265.32654325788224 Q 88.44218108596074 318.3918519094587 0 397.98981488682335 Q -88.44218108596074 318.3918519094587 0 265.32654325788224"/></g><g transform="rotate(252)"><path d="M 0 265.32654325788224 Q 88.44218108596074 318.3918519094587 0 397.98981488682335 Q -88.44218108596074 318.3918519094587 0 265.32654325788224"/></g><g transform="rotate(288)"><path d="M 0 265.32654325788224 Q 88.44218108596074 318.3918519094587 0 397.98981488682335 Q -88.44218108596074 318.3918519094587 0 265.32654325788224"/></g><g transform="rotate(324)"><path d="M 0 265.32654325788224 Q 88.44218108596074 318.3918519094587 0 397.98981488682335 Q -88.44218108596074 318.3918519094587 0 265.32654325788224"/></g><g transform="rotate(0)"><path d="M 0 306.76980040863987 L 76.69245010215997 368.12376049036783 L 0 429.4777205720958 L -76.69245010215997 368.12376049036783 Z"/></g><g transform="rotate(36)"><path d="M 0 306.76980040863987 L 76.69245010215997 368.12376049036783 L 0 429.4777205720958 L -76.69245010215997 368.12376049036783 Z"/></g><g transform="rotate(72)"><path d="M 0 306.76980040863987 L 76.69245010215997 368.12376049036783 L 0 429.4777205720958 L -76.69245010215997 368.12376049036783 Z"/></g><g transform="rotate(108)"><path d="M 0 306.76980040863987 L 76.69245010215997 368.12376049036783 L 0 429.4777205720958 L -76.69245010215997 368.12376049036783 Z"/></g><g transform="rotate(144)"><path d="M 0 306.76980040863987 L 76.69245010215997 368.12376049036783 L 0 429.4777205720958 L -76.69245010215997 368.12376049036783 Z"/></g><g transform="rotate(180)"><path d="M 0 306.76980040863987 L 76.69245010215997 368.12376049036783 L 0 429.4777205720958 L -76.69245010215997 368.12376049036783 Z"/></g><g transform="rotate(216)"><path d="M 0 306.76980040863987 L 76.69245010215997 368.12376049036783 L 0 429.4777205720958 L -76.69245010215997 368.12376049036783 Z"/></g><g transform="rotate(252)"><path d="M 0 306.76980040863987 L 76.69245010215997 368.12376049036783 L 0 429.4777205720958 L -76.69245010215997 368.12376049036783 Z"/></g><g transform="rotate(288)"><path d="M 0 306.76980040863987 L 76.69245010215997 368.12376049036783 L 0 429.4777205720958 L -76.69245010215997 368.12376049036783 Z"/></g><g transform="rotate(324)"><path d="M 0 306.76980040863987 L 76.69245010215997 368.12376049036783 L 0 429.4777205720958 L -76.69245010215997 368.12376049036783 Z"/></g><g transform="rotate(0)"><path d="M 0 335.8962629404333 Q 111.96542098014443 403.07551552851993 0 503.84439441064995 Q -111.96542098014443 403.07551552851993 0 335.8962629404333"/></g><g transform="rotate(36)"><path d="M 0 335.8962629404333 Q 111.96542098014443 403.07551552851993 0 503.84439441064995 Q -111.96542098014443 403.07551552851993 0 335.8962629404333"/></g><g transform="rotate(72)"><path d="M 0 335.8962629404333 Q 111.96542098014443 403.07551552851993 0 503.84439441064995 Q -111.96542098014443 403.07551552851993 0 335.8962629404333"/></g><g transform="rotate(108)"><path d="M 0 335.8962629404333 Q 111.96542098014443 403.07551552851993 0 503.84439441064995 Q -111.96542098014443 403.07551552851993 0 335.8962629404333"/></g><g transform="rotate(144)"><path d="M 0 335.8962629404333 Q 111.96542098014443 403.07551552851993 0 503.84439441064995 Q -111.96542098014443 403.07551552851993 0 335.8962629404333"/></g><g transform="rotate(180)"><path d="M 0 335.8962629404333 Q 111.96542098014443 403.07551552851993 0 503.84439441064995 Q -111.96542098014443 403.07551552851993 0 335.8962629404333"/></g><g transform="rotate(216)"><path d="M 0 335.8962629404333 Q 111.96542098014443 403.07551552851993 0 503.84439441064995 Q -111.96542098014443 403.07551552851993 0 335.8962629404333"/></g><g transform="rotate(252)"><path d="M 0 335.8962629404333 Q 111.96542098014443 403.07551552851993 0 503.84439441064995 Q -111.96542098014443 403.07551552851993 0 335.8962629404333"/></g><g transform="rotate(288)"><path d="M 0 335.8962629404333 Q 111.96542098014443 403.07551552851993 0 503.84439441064995 Q -111.96542098014443 403.07551552851993 0 335.8962629404333"/></g><g transform="rotate(324)"><path d="M 0 335.8962629404333 Q 111.96542098014443 403.07551552851993 0 503.84439441064995 Q -111.96542098014443 403.07551552851993 0 335.8962629404333"/></g></g></svg>