<svg xmlns="http://www.w3.org/2000/svg" viewBox="0 0 800 800" width="800" height="800">
    <rect width="100%" height="100%" fill="white"/>
    <g transform="translate(400, 400)" fill="none" stroke="black" stroke-width="4" stroke-linecap="round" stroke-linejoin="round"><g transform="rotate(0)"><path d="M 0 41.82372700423002 Q 13.941242334743341 50.18847240507603 0 62.735590506345034 Q -13.941242334743341 50.18847240507603 0 41.82372700423002"/></g><g transform="rotate(22.5)"><path d="M 0 41.82372700423002 Q 13.941242334743341 50.18847240507603 0 62.735590506345034 Q -13.941242334743341 50.18847240507603 0 41.82372700423002"/></g><g transform="rotate(45)"><path d="M 0 41.82372700423002 Q 13.941242334743341 50.18847240507603 0 62.735590506345034 Q -13.941242334743341 50.18847240507603 0 41.82372700423002"/></g><g transform="rotate(67.5)"><path d="M 0 41.82372700423002 Q 13.941242334743341 50.18847240507603 0 62.735590506345034 Q -13.941242334743341 50.18847240507603 0 41.82372700423002"/></g><g transform="rotate(90)"><path d="M 0 41.82372700423002 Q 13.941242334743341 50.18847240507603 0 62.735590506345034 Q -13.941242334743341 50.18847240507603 0 41.82372700423002"/></g><g transform="rotate(112.5)"><path d="M 0 41.82372700423002 Q 13.941242334743341 50.18847240507603 0 62.735590506345034 Q -13.941242334743341 50.18847240507603 0 41.82372700423002"/></g><g transform="rotate(135)"><path d="M 0 41.82372700423002 Q 13.941242334743341 50.18847240507603 0 62.735590506345034 Q -13.941242334743341 50.18847240507603 0 41.82372700423002"/></g><g transform="rotate(157.5)"><path d="M 0 41.82372700423002 Q 13.941242334743341 50.18847240507603 0 62.735590506345034 Q -13.941242334743341 50.18847240507603 0 41.82372700423002"/></g><g transform="rotate(180)"><path d="M 0 41.82372700423002 Q 13.941242334743341 50.18847240507603 0 62.735590506345034 Q -13.941242334743341 50.18847240507603 0 41.82372700423002"/></g><g transform="rotate(202.5)"><path d="M 0 41.82372700423002 Q 13.941242334743341 50.18847240507603 0 62.735590506345034 Q -13.941242334743341 50.18847240507603 0 41.82372700423002"/></g><g transform="rotate(225)"><path d="M 0 41.82372700423002 Q 13.941242334743341 50.18847240507603 0 62.735590506345034 Q -13.941242334743341 50.18847240507603 0 41.82372700423002"/></g><g transform="rotate(247.5)"><path d="M 0 41.82372700423002 Q 13.941242334743341 50.18847240507603 0 62.735590506345034 Q -13.941242334743341 50.18847240507603 0 41.82372700423002"/></g><g transform="rotate(270)"><path d="M 0 41.82372700423002 Q 13.941242334743341 50.18847240507603 0 62.735590506345034 Q -13.941242334743341 50.18847240507603 0 41.82372700423002"/></g><g transform="rotate(292.5)"><path d="M 0 41.82372700423002 Q 13.941242334743341 50.18847240507603 0 62.735590506345034 Q -13.941242334743341 50.18847240507603 0 41.82372700423002"/></g><g transform="rotate(315)"><path d="M 0 41.82372700423002 Q 13.941242334743341 50.18847240507603 0 62.735590506345034 Q -13.941242334743341 50.18847240507603 0 41.82372700423002"/></g><g transform="rotate(337.5)"><path d="M 0 41.82372700423002 Q 13.941242334743341 50.18847240507603 0 62.735590506345034 Q -13.941242334743341 50.18847240507603 0 41.82372700423002"/></g><g transform="rotate(0)"><path d="M 0 136.60976176150143 L 34.15244044037536 163.93171411380172 L 0 191.253666466102 L -34.15244044037536 163.93171411380172 Z"/></g><g transform="rotate(22.5)"><path d="M 0 136.60976176150143 L 34.15244044037536 163.93171411380172 L 0 191.253666466102 L -34.15244044037536 163.93171411380172 Z"/></g><g transform="rotate(45)"><path d="M 0 136.60976176150143 L 34.15244044037536 163.93171411380172 L 0 191.253666466102 L -34.15244044037536 163.93171411380172 Z"/></g><g transform="rotate(67.5)"><path d="M 0 136.60976176150143 L 34.15244044037536 163.93171411380172 L 0 191.253666466102 L -34.15244044037536 163.93171411380172 Z"/></g><g transform="rotate(90)"><path d="M 0 136.60976176150143 L 34.15244044037536 163.93171411380172 L 0 191.253666466102 L -34.15244044037536 163.93171411380172 Z"/></g><g transform="rotate(112.5)"><path d="M 0 136.60976176150143 L 34.15244044037536 163.93171411380172 L 0 191.253666466102 L -34.15244044037536 163.93171411380172 Z"/></g><g transform="rotate(135)"><path d="M 0 136.60976176150143 L 34.15244044037536 163.93171411380172 L 0 191.253666466102 L -34.15244044037536 163.93171411380172 Z"/></g><g transform="rotate(157.5)"><path d="M 0 136.60976176150143 L 34.15244044037536 163.93171411380172 L 0 191.253666466102 L -34.15244044037536 163.93171411380172 Z"/></g><g transform="rotate(180)"><path d="M 0 136.60976176150143 L 34.15244044037536 163.93171411380172 L 0 191.253666466102 L -34.15244044037536 163.93171411380172 Z"/></g><g transform="rotate(202.5)"><path d="M 0 136.60976176150143 L 34.15244044037536 163.93171411380172 L 0 191.253666466102 L -34.15244044037536 163.93171411380172 Z"/></g><g transform="rotate(225)"><path d="M 0 136.60976176150143 L 34.15244044037536 163.93171411380172 L 0 191.253666466102 L -34.15244044037536 163.93171411380172 Z"/></g><g transform="rotate(247.5)"><path d="M 0 136.60976176150143 L 34.15244044037536 163.93171411380172 L 0 191.253666466102 L -34.15244044037536 163.93171411380172 Z"/></g><g transform="rotate(270)"><path d="M 0 136.60976176150143 L 34.15244044037536 163.93171411380172 L 0 191.253666466102 L -34.15244044037536 163.93171411380172 Z"/></g><g transform="rotate(292.5)"><path d="M 0 136.60976176150143 L 34.15244044037536 163.93171411380172 L 0 191.253666466102 L -34.15244044037536 163.93171411380172 Z"/></g><g transform="rotate(315)"><path d="M 0 136.60976176150143 L 34.15244044037536 163.93171411380172 L 0 191.253666466102 L -34.15244044037536 163.93171411380172 Z"/></g><g transform="rotate(337.5)"><path d="M 0 136.60976176150143 L 34.15244044037536 163.93171411380172 L 0 191.253666466102 L -34.15244044037536 163.93171411380172 Z"/></g><g transform="rotate(0)"><path d="M -53.779932796023786 215.11973118409514 Q 0 258.1436774209142 53.779932796023786 215.11973118409514"/></g><g transform="rotate(22.5)"><path d="M -53.779932796023786 215.11973118409514 Q 0 258.1436774209142 53.779932796023786 215.11973118409514"/></g><g transform="rotate(45)"><path d="M -53.779932796023786 215.11973118409514 Q 0 258.1436774209142 53.779932796023786 215.11973118409514"/></g><g transform="rotate(67.5)"><path d="M -53.779932796023786 215.11973118409514 Q 0 258.1436774209142 53.779932796023786 215.11973118409514"/></g><g transform="rotate(90)"><path d="M -53.779932796023786 215.11973118409514 Q 0 258.1436774209142 53.779932796023786 215.11973118409514"/></g><g transform="rotate(112.5)"><path d="M -53.779932796023786 215.11973118409514 Q 0 258.1436774209142 53.779932796023786 215.11973118409514"/></g><g transform="rotate(135)"><path d="M -53.779932796023786 215.11973118409514 Q 0 258.1436774209142 53.779932796023786 215.11973118409514"/></g><g transform="rotate(157.5)"><path d="M -53.779932796023786 215.11973118409514 Q 0 258.1436774209142 53.779932796023786 215.11973118409514"/></g><g transform="rotate(180)"><path d="M -53.779932796023786 215.11973118409514 Q 0 258.1436774209142 53.779932796023786 215.11973118409514"/></g><g transform="rotate(202.5)"><path d="M -53.779932796023786 215.11973118409514 Q 0 258.1436774209142 53.779932796023786 215.11973118409514"/></g><g transform="rotate(225)"><path d="M -53.779932796023786 215.11973118409514 Q 0 258.1436774209142 53.779932796023786 215.11973118409514"/></g><g transform="rotate(247.5)"><path d="M -53.779932796023786 215.11973118409514 Q 0 258.1436774209142 53.779932796023786 215.11973118409514"/></g><g transform="rotate(270)"><path d="M -53.779932796023786 215.11973118409514 Q 0 258.1436774209142 53.779932796023786 215.11973118409514"/></g><g transform="rotate(292.5)"><path d="M -53.779932796023786 215.11973118409514 Q 0 258.1436774209142 53.779932796023786 215.11973118409514"/></g><g transform="rotate(315)"><path d="M -53.779932796023786 215.11973118409514 Q 0 258.1436774209142 53.779932796023786 215.11973118409514"/></g><g transform="rotate(337.5)"><path d="M -53.779932796023786 215.11973118409514 Q 0 258.1436774209142 53.779932796023786 215.11973118409514"/></g><g transform="rotate(0)"><path d="M -70.65964605426416 282.63858421705663 Q 0 339.16630106046796 70.65964605426416 282.63858421705663"/></g><g transform="rotate(22.5)"><path d="M -70.65964605426416 282.63858421705663 Q 0 339.16630106046796 70.65964605426416 282.63858421705663"/></g><g transform="rotate(45)"><path d="M -70.65964605426416 282.63858421705663 Q 0 339.16630106046796 70.65964605426416 282.63858421705663"/></g><g transform="rotate(67.5)"><path d="M -70.65964605426416 282.63858421705663 Q 0 339.16630106046796 70.65964605426416 282.63858421705663"/></g><g transform="rotate(90)"><path d="M -70.65964605426416 282.63858421705663 Q 0 339.16630106046796 70.65964605426416 282.63858421705663"/></g><g transform="rotate(112.5)"><path d="M -70.65964605426416 282.63858421705663 Q 0 339.16630106046796 70.65964605426416 282.63858421705663"/></g><g transform="rotate(135)"><path d="M -70.65964605426416 282.63858421705663 Q 0 339.16630106046796 70.65964605426416 282.63858421705663"/></g><g transform="rotate(157.5)"><path d="M -70.65964605426416 282.63858421705663 Q 0 339.16630106046796 70.65964605426416 282.63858421705663"/></g><g transform="rotate(180)"><path d="M -70.65964605426416 282.63858421705663 Q 0 339.16630106046796 70.65964605426416 282.63858421705663"/></g><g transform="rotate(202.5)"><path d="M -70.65964605426416 282.63858421705663 Q 0 339.16630106046796 70.65964605426416 282.63858421705663"/></g><g transform="rotate(225)"><path d="M -70.65964605426416 282.63858421705663 Q 0 339.16630106046796 70.65964605426416 282.63858421705663"/></g><g transform="rotate(247.5)"><path d="M -70.65964605426416 282.63858421705663 Q 0 339.16630106046796 70.65964605426416 282.63858421705663"/></g><g transform="rotate(270)"><path d="M -70.65964605426416 282.63858421705663 Q 0 339.16630106046796 70.65964605426416 282.63858421705663"/></g><g transform="rotate(292.5)"><path d="M -70.65964605426416 282.63858421705663 Q 0 339.16630106046796 70.65964605426416 282.63858421705663"/></g><g transform="rotate(315)"><path d="M -70.65964605426416 282.63858421705663 Q 0 339.16630106046796 70.65964605426416 282.63858421705663"/></g><g transform="rotate(337.5)"><path d="M -70.65964605426416 282.63858421705663 Q 0 339.16630106046796 70.65964605426416 282.63858421705663"/></g></g></svg>