<svg xmlns="http://www.w3.org/2000/svg" viewBox="0 0 800 800" width="800" height="800">
    <rect width="100%" height="100%" fill="white"/>
    <g transform="translate(400, 400)" fill="none" stroke="black" stroke-width="4" stroke-linecap="round" stroke-linejoin="round"><g transform="rotate(0)"><path d="M -12.566168988123536 50.264675952494144 Q 0 60.31761114299297 12.566168988123536 50.264675952494144"/></g><g transform="rotate(20)"><path d="M -12.566168988123536 50.264675952494144 Q 0 60.31761114299297 12.566168988123536 50.264675952494144"/></g><g transform="rotate(40)"><path d="M -12.566168988123536 50.264675952494144 Q 0 60.31761114299297 12.566168988123536 50.264675952494144"/></g><g transform="rotate(60)"><path d="M -12.566168988123536 50.264675952494144 Q 0 60.31761114299297 12.566168988123536 50.264675952494144"/></g><g transform="rotate(80)"><path d="M -12.566168988123536 50.264675952494144 Q 0 60.31761114299297 12.566168988123536 50.264675952494144"/></g><g transform="rotate(100)"><path d="M -12.566168988123536 50.264675952494144 Q 0 60.31761114299297 12.566168988123536 50.264675952494144"/></g><g transform="rotate(120)"><path d="M -12.566168988123536 50.264675952494144 Q 0 60.31761114299297 12.566168988123536 50.264675952494144"/></g><g transform="rotate(140)"><path d="M -12.566168988123536 50.264675952494144 Q 0 60.31761114299297 12.566168988123536 50.264675952494144"/></g><g transform="rotate(160)"><path d="M -12.566168988123536 50.264675952494144 Q 0 60.31761114299297 12.566168988123536 50.264675952494144"/></g><g transform="rotate(180)"><path d="M -12.566168988123536 50.264675952494144 Q 0 60.31761114299297 12.566168988123536 50.264675952494144"/></g><g transform="rotate(200)"><path d="M -12.566168988123536 50.264675952494144 Q 0 60.31761114299297 12.566168988123536 50.264675952494144"/></g><g transform="rotate(220)"><path d="M -12.566168988123536 50.264675952494144 Q 0 60.31761114299297 12.566168988123536 50.264675952494144"/></g><g transform="rotate(240)"><path d="M -12.566168988123536 50.264675952494144 Q 0 60.31761114299297 12.566168988123536 50.264675952494144"/></g><g transform="rotate(260)"><path d="M -12.566168988123536 50.264675952494144 Q 0 60.31761114299297 12.566168988123536 50.264675952494144"/></g><g transform="rotate(280)"><path d="M -12.566168988123536 50.264675952494144 Q 0 60.31761114299297 12.566168988123536 50.264675952494144"/></g><g transform="rotate(300)"><path d="M -12.566168988123536 50.264675952494144 Q 0 60.31761114299297 12.566168988123536 50.264675952494144"/></g><g transform="rotate(320)"><path d="M -12.566168988123536 50.264675952494144 Q 0 60.31761114299297 12.566168988123536 50.264675952494144"/></g><g transform="rotate(340)"><path d="M -12.566168988123536 50.264675952494144 Q 0 60.31761114299297 12.566168988123536 50.264675952494144"/></g><g transform="rotate(0)"><path d="M 0 94.01936174902534 L 23.504840437256334 112.8232340988304 L 0 131.62710644863546 L -23.504840437256334 112.8232340988304 Z"/></g><g transform="rotate(20)"><path d="M 0 94.01936174902534 L 23.504840437256334 112.8232340988304 L 0 131.62710644863546 L -23.504840437256334 112.8232340988304 Z"/></g><g transform="rotate(40)"><path d="M 0 94.01936174902534 L 23.504840437256334 112.8232340988304 L 0 131.62710644863546 L -23.504840437256334 112.8232340988304 Z"/></g><g transform="rotate(60)"><path d="M 0 94.01936174902534 L 23.504840437256334 112.8232340988304 L 0 131.62710644863546 L -23.504840437256334 112.8232340988304 Z"/></g><g transform="rotate(80)"><path d="M 0 94.01936174902534 L 23.504840437256334 112.8232340988304 L 0 131.62710644863546 L -23.504840437256334 112.8232340988304 Z"/></g><g transform="rotate(100)"><path d="M 0 94.01936174902534 L 23.504840437256334 112.8232340988304 L 0 131.62710644863546 L -23.504840437256334 112.8232340988304 Z"/></g><g transform="rotate(120)"><path d="M 0 94.01936174902534 L 23.504840437256334 112.8232340988304 L 0 131.62710644863546 L -23.504840437256334 112.8232340988304 Z"/></g><g transform="rotate(140)"><path d="M 0 94.01936174902534 L 23.504840437256334 112.8232340988304 L 0 131.62710644863546 L -23.504840437256334 112.8232340988304 Z"/></g><g transform="rotate(160)"><path d="M 0 94.01936174902534 L 23.504840437256334 112.8232340988304 L 0 131.62710644863546 L -23.504840437256334 112.8232340988304 Z"/></g><g transform="rotate(180)"><path d="M 0 94.01936174902534 L 23.504840437256334 112.8232340988304 L 0 131.62710644863546 L -23.504840437256334 112.8232340988304 Z"/></g><g transform="rotate(200)"><path d="M 0 94.01936174902534 L 23.504840437256334 112.8232340988304 L 0 131.62710644863546 L -23.504840437256334 112.8232340988304 Z"/></g><g transform="rotate(220)"><path d="M 0 94.01936174902534 L 23.504840437256334 112.8232340988304 L 0 131.62710644863546 L -23.504840437256334 112.8232340988304 Z"/></g><g transform="rotate(240)"><path d="M 0 94.01936174902534 L 23.504840437256334 112.8232340988304 L 0 131.62710644863546 L -23.504840437256334 112.8232340988304 Z"/></g><g transform="rotate(260)"><path d="M 0 94.01936174902534 L 23.504840437256334 112.8232340988304 L 0 131.62710644863546 L -23.504840437256334 112.8232340988304 Z"/></g><g transform="rotate(280)"><path d="M 0 94.01936174902534 L 23.504840437256334 112.8232340988304 L 0 131.62710644863546 L -23.504840437256334 112.8232340988304 Z"/></g><g transform="rotate(300)"><path d="M 0 94.01936174902534 L 23.504840437256334 112.8232340988304 L 0 131.62710644863546 L -23.504840437256334 112.8232340988304 Z"/></g><g transform="rotate(320)"><path d="M 0 94.01936174902534 L 23.504840437256334 112.8232340988304 L 0 131.62710644863546 L -23.504840437256334 112.8232340988304 Z"/></g><g transform="rotate(340)"><path d="M 0 94.01936174902534 L 23.504840437256334 112.8232340988304 L 0 131.62710644863546 L -23.504840437256334 112.8232340988304 Z"/></g><g transform="rotate(0)"><circle cx="0" cy="137.85599059558342" r="34.463997648895855"/></g><g transform="rotate(20)"><circle cx="0" cy="137.85599059558342" r="34.463997648895855"/></g><g transform="rotate(40)"><circle cx="0" cy="137.85599059558342" r="34.463997648895855"/></g><g transform="rotate(60)"><circle cx="0" cy="137.85599059558342" r="34.463997648895855"/></g><g transform="rotate(80)"><circle cx="0" cy="137.85599059558342" r="34.463997648895855"/></g><g transform="rotate(100)"><circle cx="0" cy="137.85599059558342" r="34.463997648895855"/></g><g transform="rotate(120)"><circle cx="0" cy="137.85599059558342" r="34.463997648895855"/></g><g transform="rotate(140)"><circle cx="0" cy="137.85599059558342" r="34.463997648895855"/></g><g transform="rotate(160)"><circle cx="0" cy="137.85599059558342" r="34.463997648895855"/></g><g transform="rotate(180)"><circle cx="0" cy="137.85599059558342" r="34.463997648895855"/></g><g transform="rotate(200)"><circle cx="0" cy="137.85599059558342" r="34.463997648895855"/></g><g transform="rotate(220)"><circle cx="0" cy="137.85599059558342" r="34.463997648895855"/></g><g transform="rotate(240)"><circle cx="0" cy="137.85599059558342" r="34.463997648895855"/></g><g transform="rotate(260)"><circle cx="0" cy="137.85599059558342" r="34.463997648895855"/></g><g transform="rotate(280)"><circle cx="0" cy="137.85599059558342" r="34.463997648895855"/></g><g transform="rotate(300)"><circle cx="0" cy="137.85599059558342" r="34.463997648895855"/></g><g transform="rotate(320)"><circle cx="0" cy="137.85599059558342" r="34.463997648895855"/></g><g transform="rotate(340)"><circle cx="0" cy="137.85599059558342" r="34.463997648895855"/></g><g transform="rotate(0)"><path d="M 0 191.51839663008494 L 47.879599157521234 229.8220759561019 L 0 268.1257552821189 L -47.879599157521234 229.8220759561019 Z"/></g><g transform="rotate(20)"><path d="M 0 191.51839663008494 L 47.879599157521234 229.8220759561019 L 0 268.1257552821189 L -47.879599157521234 229.8220759561019 Z"/></g><g transform="rotate(40)"><path d="M 0 191.51839663008494 L 47.879599157521234 229.8220759561019 L 0 268.1257552821189 L -47.879599157521234 229.8220759561019 Z"/></g><g transform="rotate(60)"><path d="M 0 191.51839663008494 L 47.879599157521234 229.8220759561019 L 0 268.1257552821189 L -47.879599157521234 229.8220759561019 Z"/></g><g transform="rotate(80)"><path d="M 0 191.51839663008494 L 47.879599157521234 229.8220759561019 L 0 268.1257552821189 L -47.879599157521234 229.8220759561019 Z"/></g><g transform="rotate(100)"><path d="M 0 191.51839663008494 L 47.879599157521234 229.8220759561019 L 0 268.1257552821189 L -47.879599157521234 229.8220759561019 Z"/></g><g transform="rotate(120)"><path d="M 0 191.51839663008494 L 47.879599157521234 229.8220759561019 L 0 268.1257552821189 L -47.879599157521234 229.8220759561019 Z"/></g><g transform="rotate(140)"><path d="M 0 191.51839663008494 L 47.879599157521234 229.8220759561019 L 0 268.1257552821189 L -47.879599157521234 229.8220759561019 Z"/></g><g transform="rotate(160)"><path d="M 0 191.51839663008494 L 47.879599157521234 229.8220759561019 L 0 268.1257552821189 L -47.879599157521234 229.8220759561019 Z"/></g><g transform="rotate(180)"><path d="M 0 191.51839663008494 L 47.879599157521234 229.8220759561019 L 0 268.1257552821189 L -47.879599157521234 229.8220759561019 Z"/></g><g transform="rotate(200)"><path d="M 0 191.51839663008494 L 47.879599157521234 229.8220759561019 L 0 268.1257552821189 L -47.879599157521234 229.8220759561019 Z"/></g><g transform="rotate(220)"><path d="M 0 191.51839663008494 L 47.879599157521234 229.8220759561019 L 0 268.1257552821189 L -47.879599157521234 229.8220759561019 Z"/></g><g transform="rotate(240)"><path d="M 0 191.51839663008494 L 47.879599157521234 229.8220759561019 L 0 268.1257552821189 L -47.879599157521234 229.8220759561019 Z"/></g><g transform="rotate(260)"><path d="M 0 191.51839663008494 L 47.879599157521234 229.8220759561019 L 0 268.1257552821189 L -47.879599157521234 229.8220759561019 Z"/></g><g transform="rotate(280)"><path d="M 0 191.51839663008494 L 47.879599157521234 229.8220759561019 L 0 268.1257552821189 L -47.879599157521234 229.8220759561019 Z"/></g><g transform="rotate(300)"><path d="M 0 191.51839663008494 L 47.879599157521234 229.8220759561019 L 0 268.1257552821189 L -47.879599157521234 229.8220759561019 Z"/></g><g transform="rotate(320)"><path d="M 0 191.51839663008494 L 47.879599157521234 229.8220759561019 L 0 268.1257552821189 L -47.879599157521234 229.8220759561019 Z"/></g><g transform="rotate(340)"><path d="M 0 191.51839663008494 L 47.879599157521234 229.8220759561019 L 0 268.1257552821189 L -47.879599157521234 229.8220759561019 Z"/></g><g transform="rotate(0)"><path d="M 0 225.6836653713669 Q 75.2278884571223 270.8203984456403 0 338.52549805705036 Q -75.2278884571223 270.8203984456403 0 225.6836653713669"/></g><g transform="rotate(20)"><path d="M 0 225.6836653713669 Q 75.2278884571223 270.8203984456403 0 338.52549805705036 Q -75.2278884571223 270.8203984456403 0 225.6836653713669"/></g><g transform="rotate(40)"><path d="M 0 225.6836653713669 Q 75.2278884571223 270.8203984456403 0 338.52549805705036 Q -75.2278884571223 270.8203984456403 0 225.6836653713669"/></g><g transform="rotate(60)"><path d="M 0 225.6836653713669 Q 75.2278884571223 270.8203984456403 0 338.52549805705036 Q -75.2278884571223 270.8203984456403 0 225.6836653713669"/></g><g transform="rotate(80)"><path d="M 0 225.6836653713669 Q 75.2278884571223 270.8203984456403 0 338.52549805705036 Q -75.2278884571223 270.8203984456403 0 225.6836653713669"/></g><g transform="rotate(100)"><path d="M 0 225.6836653713669 Q 75.2278884571223 270.8203984456403 0 338.52549805705036 Q -75.2278884571223 270.8203984456403 0 225.6836653713669"/></g><g transform="rotate(120)"><path d="M 0 225.6836653713669 Q 75.2278884571223 270.8203984456403 0 338.52549805705036 Q -75.2278884571223 270.8203984456403 0 225.6836653713669"/></g><g transform="rotate(140)"><path d="M 0 225.6836653713669 Q 75.2278884571223 270.8203984456403 0 338.52549805705036 Q -75.2278884571223 270.8203984456403 0 225.6836653713669"/></g><g transform="rotate(160)"><path d="M 0 225.6836653713669 Q 75.2278884571223 270.8203984456403 0 338.52549805705036 Q -75.2278884571223 270.8203984456403 0 225.6836653713669"/></g><g transform="rotate(180)"><path d="M 0 225.6836653713669 Q 75.2278884571223 270.8203984456403 0 338.52549805705036 Q -75.2278884571223 270.8203984456403 0 225.6836653713669"/></g><g transform="rotate(200)"><path d="M 0 225.6836653713669 Q 75.2278884571223 270.8203984456403 0 338.52549805705036 Q -75.2278884571223 270.8203984456403 0 225.6836653713669"/></g><g transform="rotate(220)"><path d="M 0 225.6836653713669 Q 75.2278884571223 270.8203984456403 0 338.52549805705036 Q -75.2278884571223 270.8203984456403 0 225.6836653713669"/></g><g transform="rotate(240)"><path d="M 0 225.6836653713669 Q 75.2278884571223 270.8203984456403 0 338.52549805705036 Q -75.2278884571223 270.8203984456403 0 225.6836653713669"/></g><g transform="rotate(260)"><path d="M 0 225.6836653713669 Q 75.2278884571223 270.8203984456403 0 338.52549805705036 Q -75.2278884571223 270.8203984456403 0 225.6836653713669"/></g><g transform="rotate(280)"><path d="M 0 225.6836653713669 Q 75.2278884571223 270.8203984456403 0 338.52549805705036 Q -75.2278884571223 270.8203984456403 0 225.6836653713669"/></g><g transform="rotate(300)"><path d="M 0 225.6836653713669 Q 75.2278884571223 270.8203984456403 0 338.52549805705036 Q -75.2278884571223 270.8203984456403 0 225.6836653713669"/></g><g transform="rotate(320)"><path d="M 0 225.6836653713669 Q 75.2278884571223 270.8203984456403 0 338.52549805705036 Q -75.2278884571223 270.8203984456403 0 225.6836653713669"/></g><g transform="rotate(340)"><path d="M 0 225.6836653713669 Q 75.2278884571223 270.8203984456403 0 338.52549805705036 Q -75.2278884571223 270.8203984456403 0 225.6836653713669"/></g><g transform="rotate(0)"><path d="M 0 276.1848891513156 Q 92.06162971710519 331.4218669815787 0 414.2773337269734 Q -92.06162971710519 331.4218669815787 0 276.1848891513156"/></g><g transform="rotate(20)"><path d="M 0 276.1848891513156 Q 92.06162971710519 331.4218669815787 0 414.2773337269734 Q -92.06162971710519 331.4218669815787 0 276.1848891513156"/></g><g transform="rotate(40)"><path d="M 0 276.1848891513156 Q 92.06162971710519 331.4218669815787 0 414.2773337269734 Q -92.06162971710519 331.4218669815787 0 276.1848891513156"/></g><g transform="rotate(60)"><path d="M 0 276.1848891513156 Q 92.06162971710519 331.4218669815787 0 414.2773337269734 Q -92.06162971710519 331.4218669815787 0 276.1848891513156"/></g><g transform="rotate(80)"><path d="M 0 276.1848891513156 Q 92.06162971710519 331.4218669815787 0 414.2773337269734 Q -92.06162971710519 331.4218669815787 0 276.1848891513156"/></g><g transform="rotate(100)"><path d="M 0 276.1848891513156 Q 92.06162971710519 331.4218669815787 0 414.2773337269734 Q -92.06162971710519 331.4218669815787 0 276.1848891513156"/></g><g transform="rotate(120)"><path d="M 0 276.1848891513156 Q 92.06162971710519 331.4218669815787 0 414.2773337269734 Q -92.06162971710519 331.4218669815787 0 276.1848891513156"/></g><g transform="rotate(140)"><path d="M 0 276.1848891513156 Q 92.06162971710519 331.4218669815787 0 414.2773337269734 Q -92.06162971710519 331.4218669815787 0 276.1848891513156"/></g><g transform="rotate(160)"><path d="M 0 276.1848891513156 Q 92.06162971710519 331.4218669815787 0 414.2773337269734 Q -92.06162971710519 331.4218669815787 0 276.1848891513156"/></g><g transform="rotate(180)"><path d="M 0 276.1848891513156 Q 92.06162971710519 331.4218669815787 0 414.2773337269734 Q -92.06162971710519 331.4218669815787 0 276.1848891513156"/></g><g transform="rotate(200)"><path d="M 0 276.1848891513156 Q 92.06162971710519 331.4218669815787 0 414.2773337269734 Q -92.06162971710519 331.4218669815787 0 276.1848891513156"/></g><g transform="rotate(220)"><path d="M 0 276.1848891513156 Q 92.06162971710519 331.4218669815787 0 414.2773337269734 Q -92.06162971710519 331.4218669815787 0 276.1848891513156"/></g><g transform="rotate(240)"><path d="M 0 276.1848891513156 Q 92.06162971710519 331.4218669815787 0 414.2773337269734 Q -92.06162971710519 331.4218669815787 0 276.1848891513156"/></g><g transform="rotate(260)"><path d="M 0 276.1848891513156 Q 92.06162971710519 331.4218669815787 0 414.2773337269734 Q -92.06162971710519 331.4218669815787 0 276.1848891513156"/></g><g transform="rotate(280)"><path d="M 0 276.1848891513156 Q 92.06162971710519 331.4218669815787 0 414.2773337269734 Q -92.06162971710519 331.4218669815787 0 276.1848891513156"/></g><g transform="rotate(300)"><path d="M 0 276.1848891513156 Q 92.06162971710519 331.4218669815787 0 414.2773337269734 Q -92.06162971710519 331.4218669815787 0 276.1848891513156"/></g><g transform="rotate(320)"><path d="M 0 276.1848891513156 Q 92.06162971710519 331.4218669815787 0 414.2773337269734 Q -92.06162971710519 331.4218669815787 0 276.1848891513156"/></g><g transform="rotate(340)"><path d="M 0 276.1848891513156 Q 92.06162971710519 331.4218669815787 0 414.2773337269734 Q -92.06162971710519 331.4218669815787 0 276.1848891513156"/></g><g transform="rotate(0)"><circle cx="0" cy="331.9927726446518" r="82.99819316116294"/></g><g transform="rotate(20)"><circle cx="0" cy="331.9927726446518" r="82.99819316116294"/></g><g transform="rotate(40)"><circle cx="0" cy="331.9927726446518" r="82.99819316116294"/></g><g transform="rotate(60)"><circle cx="0" cy="331.9927726446518" r="82.99819316116294"/></g><g transform="rotate(80)"><circle cx="0" cy="331.9927726446518" r="82.99819316116294"/></g><g transform="rotate(100)"><circle cx="0" cy="331.9927726446518" r="82.99819316116294"/></g><g transform="rotate(120)"><circle cx="0" cy="331.9927726446518" r="82.99819316116294"/></g><g transform="rotate(140)"><circle cx="0" cy="331.9927726446518" r="82.99819316116294"/></g><g transform="rotate(160)"><circle cx="0" cy="331.9927726446518" r="82.99819316116294"/></g><g transform="rotate(180)"><circle cx="0" cy="331.9927726446518" r="82.99819316116294"/></g><g transform="rotate(200)"><circle cx="0" cy="331.9927726446518" r="82.99819316116294"/></g><g transform="rotate(220)"><circle cx="0" cy="331.9927726446518" r="82.99819316116294"/></g><g transform="rotate(240)"><circle cx="0" cy="331.9927726446518" r="82.99819316116294"/></g><g transform="rotate(260)"><circle cx="0" cy="331.9927726446518" r="82.99819316116294"/></g><g transform="rotate(280)"><circle cx="0" cy="331.9927726446518" r="82.99819316116294"/></g><g transform="rotate(300)"><circle cx="0" cy="331.9927726446518" r="82.99819316116294"/></g><g transform="rotate(320)"><circle cx="0" cy="331.9927726446518" r="82.99819316116294"/></g><g transform="rotate(340)"><circle cx="0" cy="331.9927726446518" r="82.99819316116294"/></g></g></svg>