<svg xmlns="http://www.w3.org/2000/svg" viewBox="0 0 800 800" width="800" height="800">
    <rect width="100%" height="100%" fill="white"/>
    <g transform="translate(400, 400)" fill="none" stroke="black" stroke-width="4" stroke-linecap="round" stroke-linejoin="round"><g transform="rotate(0)"><path d="M -11.109474168624729 44.437896674498916 Q 0 53.3254760093987 11.109474168624729 44.437896674498916"/></g><g transform="rotate(18)"><path d="M -11.109474168624729 44.437896674498916 Q 0 53.3254760093987 11.109474168624729 44.437896674498916"/></g><g transform="rotate(36)"><path d="M -11.109474168624729 44.437896674498916 Q 0 53.3254760093987 11.109474168624729 44.437896674498916"/></g><g transform="rotate(54)"><path d="M -11.109474168624729 44.437896674498916 Q 0 53.3254760093987 11.109474168624729 44.437896674498916"/></g><g transform="rotate(72)"><path d="M -11.109474168624729 44.437896674498916 Q 0 53.3254760093987 11.109474168624729 44.437896674498916"/></g><g transform="rotate(90)"><path d="M -11.109474168624729 44.437896674498916 Q 0 53.3254760093987 11.109474168624729 44.437896674498916"/></g><g transform="rotate(108)"><path d="M -11.109474168624729 44.437896674498916 Q 0 53.3254760093987 11.109474168624729 44.437896674498916"/></g><g transform="rotate(126)"><path d="M -11.109474168624729 44.437896674498916 Q 0 53.3254760093987 11.109474168624729 44.437896674498916"/></g><g transform="rotate(144)"><path d="M -11.109474168624729 44.437896674498916 Q 0 53.3254760093987 11.109474168624729 44.437896674498916"/></g><g transform="rotate(162)"><path d="M -11.109474168624729 44.437896674498916 Q 0 53.3254760093987 11.109474168624729 44.437896674498916"/></g><g transform="rotate(180)"><path d="M -11.109474168624729 44.437896674498916 Q 0 53.3254760093987 11.109474168624729 44.437896674498916"/></g><g transform="rotate(198)"><path d="M -11.109474168624729 44.437896674498916 Q 0 53.3254760093987 11.109474168624729 44.437896674498916"/></g><g transform="rotate(216)"><path d="M -11.109474168624729 44.437896674498916 Q 0 53.3254760093987 11.109474168624729 44.437896674498916"/></g><g transform="rotate(234)"><path d="M -11.109474168624729 44.437896674498916 Q 0 53.3254760093987 11.109474168624729 44.437896674498916"/></g><g transform="rotate(252)"><path d="M -11.109474168624729 44.437896674498916 Q 0 53.3254760093987 11.109474168624729 44.437896674498916"/></g><g transform="rotate(270)"><path d="M -11.109474168624729 44.437896674498916 Q 0 53.3254760093987 11.109474168624729 44.437896674498916"/></g><g transform="rotate(288)"><path d="M -11.109474168624729 44.437896674498916 Q 0 53.3254760093987 11.109474168624729 44.437896674498916"/></g><g transform="rotate(306)"><path d="M -11.109474168624729 44.437896674498916 Q 0 53.3254760093987 11.109474168624729 44.437896674498916"/></g><g transform="rotate(324)"><path d="M -11.109474168624729 44.437896674498916 Q 0 53.3254760093987 11.109474168624729 44.437896674498916"/></g><g transform="rotate(342)"><path d="M -11.109474168624729 44.437896674498916 Q 0 53.3254760093987 11.109474168624729 44.437896674498916"/></g><g transform="rotate(0)"><circle cx="0" cy="123.87636177241802" r="30.969090443104506"/></g><g transform="rotate(18)"><circle cx="0" cy="123.87636177241802" r="30.969090443104506"/></g><g transform="rotate(36)"><circle cx="0" cy="123.87636177241802" r="30.969090443104506"/></g><g transform="rotate(54)"><circle cx="0" cy="123.87636177241802" r="30.969090443104506"/></g><g transform="rotate(72)"><circle cx="0" cy="123.87636177241802" r="30.969090443104506"/></g><g transform="rotate(90)"><circle cx="0" cy="123.87636177241802" r="30.969090443104506"/></g><g transform="rotate(108)"><circle cx="0" cy="123.87636177241802" r="30.969090443104506"/></g><g transform="rotate(126)"><circle cx="0" cy="123.87636177241802" r="30.969090443104506"/></g><g transform="rotate(144)"><circle cx="0" cy="123.87636177241802" r="30.969090443104506"/></g><g transform="rotate(162)"><circle cx="0" cy="123.87636177241802" r="30.969090443104506"/></g><g transform="rotate(180)"><circle cx="0" cy="123.87636177241802" r="30.969090443104506"/></g><g transform="rotate(198)"><circle cx="0" cy="123.87636177241802" r="30.969090443104506"/></g><g transform="rotate(216)"><circle cx="0" cy="123.87636177241802" r="30.969090443104506"/></g><g transform="rotate(234)"><circle cx="0" cy="123.87636177241802" r="30.969090443104506"/></g><g transform="rotate(252)"><circle cx="0" cy="123.87636177241802" r="30.969090443104506"/></g><g transform="rotate(270)"><circle cx="0" cy="123.87636177241802" r="30.969090443104506"/></g><g transform="rotate(288)"><circle cx="0" cy="123.87636177241802" r="30.969090443104506"/></g><g transform="rotate(306)"><circle cx="0" cy="123.87636177241802" r="30.969090443104506"/></g><g transform="rotate(324)"><circle cx="0" cy="123.87636177241802" r="30.969090443104506"/></g><g transform="rotate(342)"><circle cx="0" cy="123.87636177241802" r="30.969090443104506"/></g><g transform="rotate(0)"><path d="M 0 217.72550419904292 L 54.43137604976073 261.2706050388515 L 0 304.8157058786601 L -54.43137604976073 261.2706050388515 Z"/></g><g transform="rotate(18)"><path d="M 0 217.72550419904292 L 54.43137604976073 261.2706050388515 L 0 304.8157058786601 L -54.43137604976073 261.2706050388515 Z"/></g><g transform="rotate(36)"><path d="M 0 217.72550419904292 L 54.43137604976073 261.2706050388515 L 0 304.8157058786601 L -54.43137604976073 261.2706050388515 Z"/></g><g transform="rotate(54)"><path d="M 0 217.72550419904292 L 54.43137604976073 261.2706050388515 L 0 304.8157058786601 L -54.43137604976073 261.2706050388515 Z"/></g><g transform="rotate(72)"><path d="M 0 217.72550419904292 L 54.43137604976073 261.2706050388515 L 0 304.8157058786601 L -54.43137604976073 261.2706050388515 Z"/></g><g transform="rotate(90)"><path d="M 0 217.72550419904292 L 54.43137604976073 261.2706050388515 L 0 304.8157058786601 L -54.43137604976073 261.2706050388515 Z"/></g><g transform="rotate(108)"><path d="M 0 217.72550419904292 L 54.43137604976073 261.2706050388515 L 0 304.8157058786601 L -54.43137604976073 261.2706050388515 Z"/></g><g transform="rotate(126)"><path d="M 0 217.72550419904292 L 54.43137604976073 261.2706050388515 L 0 304.8157058786601 L -54.43137604976073 261.2706050388515 Z"/></g><g transform="rotate(144)"><path d="M 0 217.72550419904292 L 54.43137604976073 261.2706050388515 L 0 304.8157058786601 L -54.43137604976073 261.2706050388515 Z"/></g><g transform="rotate(162)"><path d="M 0 217.72550419904292 L 54.43137604976073 261.2706050388515 L 0 304.8157058786601 L -54.43137604976073 261.2706050388515 Z"/></g><g transform="rotate(180)"><path d="M 0 217.72550419904292 L 54.43137604976073 261.2706050388515 L 0 304.8157058786601 L -54.43137604976073 261.2706050388515 Z"/></g><g transform="rotate(198)"><path d="M 0 217.72550419904292 L 54.43137604976073 261.2706050388515 L 0 304.8157058786601 L -54.43137604976073 261.2706050388515 Z"/></g><g transform="rotate(216)"><path d="M 0 217.72550419904292 L 54.43137604976073 261.2706050388515 L 0 304.8157058786601 L -54.43137604976073 261.2706050388515 Z"/></g><g transform="rotate(234)"><path d="M 0 217.72550419904292 L 54.43137604976073 261.2706050388515 L 0 304.8157058786601 L -54.43137604976073 261.2706050388515 Z"/></g><g transform="rotate(252)"><path d="M 0 217.72550419904292 L 54.43137604976073 261.2706050388515 L 0 304.8157058786601 L -54.43137604976073 261.2706050388515 Z"/></g><g transform="rotate(270)"><path d="M 0 217.72550419904292 L 54.43137604976073 261.2706050388515 L 0 304.8157058786601 L -54.43137604976073 261.2706050388515 Z"/></g><g transform="rotate(288)"><path d="M 0 217.72550419904292 L 54.43137604976073 261.2706050388515 L 0 304.8157058786601 L -54.43137604976073 261.2706050388515 Z"/></g><g transform="rotate(306)"><path d="M 0 217.72550419904292 L 54.43137604976073 261.2706050388515 L 0 304.8157058786601 L -54.43137604976073 261.2706050388515 Z"/></g><g transform="rotate(324)"><path d="M 0 217.72550419904292 L 54.43137604976073 261.2706050388515 L 0 304.8157058786601 L -54.43137604976073 261.2706050388515 Z"/></g><g transform="rotate(342)"><path d="M 0 217.72550419904292 L 54.43137604976073 261.2706050388515 L 0 304.8157058786601 L -54.43137604976073 261.2706050388515 Z"/></g><g transform="rotate(0)"><path d="M 0 287.36874835565686 L 71.84218708891422 344.84249802678823 L 0 402.3162476979196 L -71.84218708891422 344.84249802678823 Z"/></g><g transform="rotate(18)"><path d="M 0 287.36874835565686 L 71.84218708891422 344.84249802678823 L 0 402.3162476979196 L -71.84218708891422 344.84249802678823 Z"/></g><g transform="rotate(36)"><path d="M 0 287.36874835565686 L 71.84218708891422 344.84249802678823 L 0 402.3162476979196 L -71.84218708891422 344.84249802678823 Z"/></g><g transform="rotate(54)"><path d="M 0 287.36874835565686 L 71.84218708891422 344.84249802678823 L 0 402.3162476979196 L -71.84218708891422 344.84249802678823 Z"/></g><g transform="rotate(72)"><path d="M 0 287.36874835565686 L 71.84218708891422 344.84249802678823 L 0 402.3162476979196 L -71.84218708891422 344.84249802678823 Z"/></g><g transform="rotate(90)"><path d="M 0 287.36874835565686 L 71.84218708891422 344.84249802678823 L 0 402.3162476979196 L -71.84218708891422 344.84249802678823 Z"/></g><g transform="rotate(108)"><path d="M 0 287.36874835565686 L 71.84218708891422 344.84249802678823 L 0 402.3162476979196 L -71.84218708891422 344.84249802678823 Z"/></g><g transform="rotate(126)"><path d="M 0 287.36874835565686 L 71.84218708891422 344.84249802678823 L 0 402.3162476979196 L -71.84218708891422 344.84249802678823 Z"/></g><g transform="rotate(144)"><path d="M 0 287.36874835565686 L 71.84218708891422 344.84249802678823 L 0 402.3162476979196 L -71.84218708891422 344.84249802678823 Z"/></g><g transform="rotate(162)"><path d="M 0 287.36874835565686 L 71.84218708891422 344.84249802678823 L 0 402.3162476979196 L -71.84218708891422 344.84249802678823 Z"/></g><g transform="rotate(180)"><path d="M 0 287.36874835565686 L 71.84218708891422 344.84249802678823 L 0 402.3162476979196 L -71.84218708891422 344.84249802678823 Z"/></g><g transform="rotate(198)"><path d="M 0 287.36874835565686 L 71.84218708891422 344.84249802678823 L 0 402.3162476979196 L -71.84218708891422 344.84249802678823 Z"/></g><g transform="rotate(216)"><path d="M 0 287.36874835565686 L 71.84218708891422 344.84249802678823 L 0 402.3162476979196 L -71.84218708891422 344.84249802678823 Z"/></g><g transform="rotate(234)"><path d="M 0 287.36874835565686 L 71.84218708891422 344.84249802678823 L 0 402.3162476979196 L -71.84218708891422 344.84249802678823 Z"/></g><g transform="rotate(252)"><path d="M 0 287.36874835565686 L 71.84218708891422 344.84249802678823 L 0 402.3162476979196 L -71.84218708891422 344.84249802678823 Z"/></g><g transform="rotate(270)"><path d="M 0 287.36874835565686 L 71.84218708891422 344.84249802678823 L 0 402.3162476979196 L -71.84218708891422 344.84249802678823 Z"/></g><g transform="rotate(288)"><path d="M 0 287.36874835565686 L 71.84218708891422 344.84249802678823 L 0 402.3162476979196 L -71.84218708891422 344.84249802678823 Z"/></g><g transform="rotate(306)"><path d="M 0 287.36874835565686 L 71.84218708891422 344.84249802678823 L 0 402.3162476979196 L -71.84218708891422 344.84249802678823 Z"/></g><g transform="rotate(324)"><path d="M 0 287.36874835565686 L 71.84218708891422 344.84249802678823 L 0 402.3162476979196 L -71.84218708891422 344.84249802678823 Z"/></g><g transform="rotate(342)"><path d="M 0 287.36874835565686 L 71.84218708891422 344.84249802678823 L 0 402.3162476979196 L -71.84218708891422 344.84249802678823 Z"/></g></g></svg>