<?xml version="1.0" encoding="UTF-8" ?>
<!DOCTYPE svg PUBLIC "-//W3C//DTD SVG 1.1//EN" "http://www.w3.org/Graphics/SVG/1.1/DTD/svg11.dtd">
<svg width="1245pt" height="1424pt" viewBox="0 0 1245 1424" version="1.1" xmlns="http://www.w3.org/2000/svg">
<g id="#010101fb">
<path fill="#010101" opacity="1.00" d=" M 581.79 0.00 L 701.24 0.00 C 714.57 2.88 728.15 4.27 741.58 6.62 C 762.51 10.33 783.39 14.74 803.59 21.46 C 820.91 27.05 837.75 34.07 854.24 41.77 C 872.80 50.42 891.56 58.68 909.58 68.45 C 924.28 76.08 938.20 85.09 952.41 93.58 C 966.40 102.55 980.72 111.03 994.24 120.72 C 1005.98 129.15 1016.75 138.83 1027.69 148.27 C 1044.47 162.82 1061.31 177.30 1078.12 191.82 C 1083.64 196.63 1088.40 202.26 1094.10 206.88 C 1103.51 214.41 1112.43 222.78 1119.15 232.86 C 1130.94 248.41 1140.45 265.50 1151.33 281.67 C 1160.87 295.72 1168.67 310.94 1174.03 327.06 C 1183.06 354.32 1187.35 382.79 1191.88 411.06 C 1196.22 439.59 1199.78 468.53 1197.35 497.41 C 1193.74 535.12 1176.81 569.55 1166.60 605.61 C 1163.60 615.62 1162.64 626.45 1165.32 636.64 C 1168.71 648.93 1175.46 659.97 1182.62 670.40 C 1194.92 687.80 1209.32 703.87 1219.07 722.96 C 1228.14 740.50 1231.45 760.42 1232.01 779.98 C 1231.80 799.91 1227.90 820.31 1217.56 837.58 C 1208.67 852.00 1196.96 864.39 1187.23 878.21 C 1182.25 885.36 1177.17 892.50 1173.46 900.42 C 1171.39 904.75 1169.28 909.55 1170.39 914.46 C 1172.22 923.52 1179.25 930.15 1185.62 936.32 C 1197.30 946.98 1209.35 957.34 1219.64 969.40 C 1230.32 981.90 1236.56 997.51 1240.68 1013.26 C 1246.28 1034.82 1245.68 1058.32 1237.03 1079.00 C 1232.28 1090.96 1224.77 1101.65 1216.01 1111.01 C 1209.57 1118.24 1202.19 1124.64 1196.41 1132.45 C 1193.24 1136.64 1191.28 1142.42 1193.53 1147.50 C 1195.74 1152.31 1199.58 1156.09 1202.73 1160.29 C 1211.03 1171.12 1221.24 1181.02 1225.73 1194.23 C 1230.22 1206.37 1228.68 1219.54 1227.06 1232.07 C 1224.58 1248.03 1220.46 1264.10 1212.17 1278.09 C 1205.58 1288.95 1194.61 1296.65 1189.43 1308.43 C 1187.92 1312.02 1186.06 1315.72 1186.12 1319.71 C 1189.00 1324.97 1193.86 1328.79 1197.51 1333.51 C 1219.60 1358.49 1229.39 1391.63 1234.25 1424.00 L 1223.11 1424.00 C 1219.95 1407.97 1216.59 1391.86 1210.27 1376.71 C 1202.95 1358.31 1191.22 1341.76 1176.58 1328.48 C 1173.77 1325.54 1171.84 1321.90 1169.08 1318.93 C 1162.14 1311.30 1153.56 1305.41 1144.69 1300.27 C 1132.62 1292.73 1120.41 1285.34 1107.34 1279.66 C 1087.72 1270.92 1068.01 1262.39 1048.43 1253.55 C 1026.49 1244.58 1004.64 1235.27 982.09 1227.88 C 977.89 1226.60 973.38 1226.48 969.32 1224.74 C 958.67 1220.03 947.87 1215.54 936.66 1212.36 C 928.76 1210.32 921.34 1206.88 913.58 1204.43 C 905.19 1201.70 896.05 1201.86 887.99 1198.05 C 879.01 1193.76 868.83 1193.21 859.75 1189.21 C 844.73 1182.78 832.17 1171.31 823.42 1157.60 C 814.93 1144.86 809.35 1130.32 806.81 1115.25 C 804.75 1103.25 802.17 1091.24 802.26 1079.01 C 802.50 1067.65 801.25 1056.24 802.89 1044.93 C 786.30 1055.91 768.62 1065.12 750.74 1073.80 C 735.10 1080.98 719.83 1089.20 703.32 1094.26 C 691.25 1097.51 678.95 1099.89 666.57 1101.55 C 652.33 1103.45 637.96 1106.35 623.56 1104.49 C 611.47 1102.78 599.00 1102.17 587.62 1097.35 C 578.06 1093.46 568.08 1090.68 558.72 1086.31 C 550.44 1082.49 542.04 1078.93 533.64 1075.37 C 522.94 1070.84 513.45 1064.01 503.02 1058.93 C 493.05 1054.15 484.29 1047.36 474.87 1041.65 C 474.78 1049.75 475.50 1057.85 475.31 1065.96 C 475.05 1072.63 474.96 1079.31 475.05 1085.99 C 475.23 1095.45 473.48 1104.79 472.12 1114.11 C 469.61 1132.39 460.22 1150.26 444.84 1160.87 C 430.54 1171.44 413.82 1178.45 396.62 1182.71 C 386.63 1186.47 376.14 1188.58 365.71 1190.68 C 351.77 1193.14 338.21 1197.28 324.42 1200.44 C 316.33 1202.30 308.25 1204.22 300.18 1206.15 C 289.09 1208.80 277.83 1210.71 266.90 1213.95 C 249.49 1219.36 231.08 1220.72 213.86 1226.85 C 204.95 1229.91 195.86 1232.35 186.77 1234.75 C 174.55 1237.94 163.31 1243.80 151.76 1248.76 C 141.08 1253.64 130.03 1257.84 119.95 1263.93 C 112.94 1268.12 106.50 1273.16 99.90 1277.95 C 87.37 1287.22 74.78 1296.62 64.16 1308.12 C 52.70 1319.89 44.32 1334.22 36.79 1348.72 C 31.60 1359.29 27.04 1370.17 23.49 1381.41 C 18.25 1395.31 14.93 1409.82 10.58 1424.00 L 0.00 1424.00 L 0.00 1423.27 C 3.18 1413.47 5.76 1403.50 8.67 1393.63 C 15.40 1372.49 22.81 1351.35 34.24 1332.22 C 37.33 1326.82 41.42 1322.11 45.21 1317.22 C 49.00 1312.38 52.05 1306.86 56.82 1302.87 C 61.01 1299.37 65.43 1296.16 69.59 1292.64 C 74.38 1288.44 80.32 1285.27 83.53 1279.57 C 86.11 1274.85 90.80 1272.07 95.02 1269.04 C 102.81 1263.39 110.49 1257.51 118.97 1252.92 C 126.11 1248.97 133.67 1245.89 141.11 1242.57 C 136.85 1236.35 132.48 1230.18 127.33 1224.66 C 116.85 1213.11 110.67 1197.21 112.59 1181.55 C 114.28 1166.50 122.55 1153.08 124.07 1138.02 C 125.27 1125.49 119.63 1113.79 114.04 1102.97 C 106.59 1089.53 97.72 1076.91 87.94 1065.07 C 80.29 1054.98 71.29 1045.68 66.04 1033.99 C 58.54 1018.53 56.70 1000.91 57.99 983.95 C 59.27 966.53 64.98 949.36 75.00 935.00 C 83.80 921.98 94.55 909.88 99.88 894.86 C 102.26 888.18 102.66 880.88 101.10 873.97 C 97.69 856.39 92.28 839.21 85.23 822.75 C 77.21 804.27 67.11 786.81 58.27 768.72 C 52.83 757.78 48.21 746.49 43.70 735.14 C 43.21 736.06 42.73 736.99 42.25 737.93 C 40.80 732.77 39.44 727.59 38.67 722.29 C 37.48 714.13 34.67 706.30 33.88 698.08 C 32.03 681.43 29.36 664.87 25.49 648.56 C 22.95 638.38 22.11 627.90 21.40 617.46 C 18.86 587.11 20.24 556.44 25.48 526.44 C 29.01 506.73 33.06 487.11 37.69 467.62 C 41.15 451.56 45.64 435.71 51.35 420.30 C 56.07 408.54 61.36 397.03 66.54 385.47 C 73.81 368.76 82.57 352.77 90.23 336.24 C 97.63 319.69 104.32 302.65 114.56 287.59 C 124.59 271.91 138.67 259.34 148.73 243.71 C 154.03 235.15 160.15 227.16 165.96 218.96 C 176.37 205.77 189.54 195.16 201.85 183.83 C 209.26 177.51 217.27 171.93 225.05 166.06 C 236.42 157.84 248.75 151.08 260.58 143.57 C 271.91 136.20 282.90 128.25 294.85 121.89 C 313.35 111.98 331.07 100.71 349.37 90.46 C 369.31 79.56 388.94 68.00 409.78 58.86 C 424.71 52.12 439.27 44.50 454.58 38.63 C 472.92 31.47 491.10 23.85 509.90 17.98 C 525.51 13.33 541.19 8.95 556.99 5.01 C 565.17 2.93 573.60 2.04 581.79 0.00 M 585.93 10.70 C 575.24 11.74 564.63 13.55 554.26 16.33 C 530.08 22.65 505.89 29.26 482.69 38.67 C 467.55 44.82 452.10 50.28 437.38 57.40 C 424.46 63.54 411.44 69.46 398.50 75.54 C 370.97 89.99 343.86 105.25 317.21 121.26 C 314.80 122.84 313.82 125.80 311.55 127.50 C 308.45 129.29 305.00 130.32 301.74 131.75 C 290.06 136.17 280.00 143.76 269.81 150.81 C 254.30 162.07 237.57 171.59 222.54 183.52 C 210.95 193.25 199.85 203.53 188.53 213.56 C 181.70 219.38 175.51 225.88 169.31 232.34 C 164.19 238.27 159.55 244.59 154.80 250.81 C 143.69 266.24 129.83 279.57 119.83 295.81 C 108.24 314.25 101.57 335.18 91.48 354.40 C 80.62 375.70 70.92 397.56 61.55 419.56 C 52.22 442.80 47.23 467.42 41.81 491.77 C 37.67 512.39 33.24 533.00 31.22 553.96 C 27.42 600.43 32.09 647.34 42.24 692.77 C 47.17 714.42 53.34 735.94 63.04 755.97 C 71.23 774.08 81.29 791.27 89.80 809.23 C 98.99 828.49 106.12 848.79 110.28 869.74 C 111.90 876.42 112.72 883.43 111.29 890.23 C 108.97 903.51 101.35 914.96 93.87 925.88 C 87.18 934.98 80.11 943.99 75.50 954.39 C 68.25 970.61 66.33 988.90 68.49 1006.44 C 70.02 1021.05 76.32 1035.01 85.77 1046.21 C 102.73 1067.18 120.16 1088.49 130.21 1113.82 C 134.11 1123.79 135.41 1134.84 133.27 1145.37 C 130.74 1157.18 125.30 1168.14 123.01 1180.01 C 120.70 1191.51 124.25 1203.60 130.94 1213.05 C 134.18 1218.04 138.88 1221.83 142.31 1226.68 C 145.06 1230.43 147.84 1234.22 149.61 1238.56 C 156.28 1235.56 162.95 1232.53 169.70 1229.72 C 180.27 1225.36 191.53 1223.12 202.48 1219.95 C 198.01 1214.54 200.64 1207.27 199.91 1200.94 C 198.75 1187.33 197.89 1173.71 197.27 1160.08 C 196.90 1146.76 194.27 1133.23 187.49 1121.61 C 174.32 1095.12 155.35 1071.95 142.98 1045.02 C 135.43 1027.53 133.98 1007.85 136.23 989.09 C 138.57 973.23 144.58 958.13 151.93 943.96 C 159.01 930.68 161.47 914.53 156.97 900.01 C 154.30 890.25 150.92 880.67 146.49 871.56 C 138.53 856.00 129.44 841.03 121.50 825.46 C 114.31 809.92 106.48 794.66 100.34 778.66 C 94.47 764.14 88.44 749.69 83.01 735.00 C 76.79 717.82 68.83 701.01 66.32 682.74 C 63.42 666.17 62.09 649.24 63.56 632.45 C 64.87 615.99 65.52 599.45 68.09 583.12 C 71.66 562.19 77.17 541.66 83.40 521.39 C 89.59 502.09 95.67 482.68 104.27 464.29 C 108.58 453.95 114.18 444.23 119.37 434.32 C 134.75 408.46 151.13 383.19 168.78 358.81 C 177.82 346.97 188.65 336.68 198.40 325.45 C 204.91 317.28 211.20 308.93 217.80 300.82 C 230.58 286.59 245.33 274.34 258.58 260.57 C 267.00 251.66 275.19 242.48 284.46 234.43 C 295.63 225.52 307.53 217.58 318.89 208.92 C 325.58 203.89 332.10 198.62 339.15 194.11 C 348.84 187.65 359.33 182.51 369.03 176.07 C 380.21 168.60 391.45 161.03 403.96 155.94 C 428.76 145.62 453.16 134.23 478.65 125.69 C 488.46 122.30 498.24 118.73 508.38 116.45 C 515.51 114.95 522.75 114.06 529.98 113.26 C 543.98 111.81 557.86 108.73 572.00 108.96 C 587.68 109.27 603.90 107.79 618.99 113.04 C 623.57 114.50 628.33 112.70 632.91 112.08 C 633.20 102.02 633.57 91.96 634.11 81.90 C 634.72 71.83 637.29 61.93 637.03 51.80 C 629.99 51.24 623.07 49.85 616.06 49.14 C 599.36 48.35 582.60 49.00 565.98 50.80 C 553.15 52.17 540.61 55.34 528.02 58.04 C 516.60 60.52 505.31 63.55 494.23 67.26 C 474.68 73.93 454.92 80.22 436.32 89.32 C 419.83 97.22 403.40 105.29 387.66 114.63 C 367.72 126.28 347.38 137.28 328.19 150.16 C 312.37 160.67 296.24 170.72 280.87 181.88 C 264.56 194.11 247.84 205.80 230.52 216.56 C 228.16 218.16 225.33 218.70 222.53 218.30 C 222.84 214.99 224.60 212.15 227.35 210.33 C 240.27 200.87 253.70 192.11 266.55 182.54 C 286.05 167.71 306.87 154.77 327.30 141.29 C 338.64 133.74 350.48 126.98 362.29 120.19 C 378.43 110.97 394.37 101.34 410.98 92.96 C 426.40 85.54 441.59 77.56 457.71 71.72 C 480.85 63.46 504.03 54.97 528.19 50.18 C 546.53 45.95 565.13 42.34 584.01 41.96 C 595.54 41.76 607.12 41.16 618.62 42.43 C 625.07 43.44 631.47 44.77 637.90 45.91 C 638.13 38.21 637.73 30.48 638.64 22.82 C 639.13 18.75 638.22 14.51 639.47 10.56 C 640.09 7.97 643.98 7.35 645.18 9.77 C 647.74 15.22 647.00 21.41 646.37 27.19 C 645.87 34.47 646.15 41.78 645.87 49.08 C 653.00 46.04 660.32 43.22 668.07 42.30 C 686.53 40.29 704.96 43.50 723.37 44.61 C 741.14 45.54 759.20 45.13 776.62 49.35 C 797.61 54.28 817.58 62.55 837.56 70.46 C 855.91 77.64 873.85 85.98 890.62 96.36 C 897.08 100.61 903.55 104.85 910.22 108.76 C 913.08 110.53 916.14 112.14 918.39 114.70 C 919.57 115.74 919.01 117.34 918.71 118.62 C 915.70 119.71 912.57 118.66 909.95 117.13 C 903.78 113.64 897.50 110.34 891.58 106.44 C 874.06 95.04 855.12 85.98 835.69 78.34 C 816.29 70.61 796.89 62.63 776.62 57.40 C 765.32 54.52 753.63 53.63 742.02 53.07 C 718.26 53.16 694.75 47.81 670.96 48.99 C 662.06 49.36 653.53 52.15 645.22 55.12 C 644.71 65.47 642.23 75.62 641.97 85.99 C 641.73 93.95 641.31 101.90 641.02 109.86 C 656.11 106.31 671.46 103.63 686.99 103.03 C 695.99 102.83 704.98 101.93 714.00 101.99 C 730.04 101.71 746.04 103.23 762.05 104.07 C 814.67 108.19 867.00 119.15 916.02 138.96 C 931.51 145.31 945.47 154.64 959.69 163.35 C 975.85 173.08 991.29 184.05 1005.63 196.33 C 1012.08 202.56 1018.95 208.35 1025.25 214.74 C 1034.41 223.94 1043.84 232.90 1052.22 242.84 C 1067.48 261.09 1082.03 279.95 1095.53 299.54 C 1107.00 315.87 1114.95 334.33 1122.14 352.85 C 1129.65 372.61 1137.84 392.18 1143.38 412.62 C 1149.18 433.90 1151.13 456.04 1150.91 478.03 C 1149.88 490.47 1150.09 502.99 1148.38 515.38 C 1147.15 524.26 1146.25 533.18 1145.18 542.09 C 1143.92 553.84 1140.27 565.17 1138.71 576.87 C 1136.83 590.35 1138.12 604.12 1141.77 617.20 C 1146.19 633.20 1152.39 648.65 1159.20 663.77 C 1162.56 671.20 1167.98 677.57 1170.63 685.35 C 1174.90 697.71 1177.82 710.48 1180.92 723.17 C 1182.54 729.50 1183.86 735.91 1184.55 742.42 C 1186.43 757.64 1188.01 773.04 1186.42 788.36 C 1185.19 801.32 1186.03 814.84 1181.19 827.17 C 1174.59 843.11 1166.12 858.23 1156.58 872.60 C 1150.37 882.51 1142.45 891.18 1135.67 900.69 C 1126.93 912.71 1120.50 926.41 1116.84 940.81 C 1112.22 959.16 1113.48 978.61 1118.23 996.80 C 1121.95 1010.86 1129.31 1023.52 1135.37 1036.65 C 1142.34 1050.95 1146.86 1066.23 1151.69 1081.34 C 1154.65 1090.98 1156.46 1100.97 1157.18 1111.03 C 1158.61 1125.66 1158.88 1140.43 1157.81 1155.10 C 1156.65 1168.66 1152.30 1181.62 1148.71 1194.67 C 1143.95 1212.66 1137.84 1230.31 1130.47 1247.40 C 1126.30 1255.58 1120.94 1263.09 1116.14 1270.90 C 1131.22 1277.90 1145.19 1286.95 1159.33 1295.63 C 1166.08 1299.90 1172.01 1305.30 1177.62 1310.96 C 1179.29 1306.38 1180.97 1301.74 1183.63 1297.62 C 1188.42 1290.27 1194.84 1284.21 1200.28 1277.38 C 1205.29 1271.09 1208.34 1263.58 1211.00 1256.07 C 1214.41 1245.95 1216.49 1235.42 1217.71 1224.82 C 1218.44 1215.35 1219.34 1205.38 1215.65 1196.37 C 1211.25 1185.02 1202.22 1176.53 1195.01 1167.01 C 1190.53 1161.04 1184.87 1155.56 1182.84 1148.17 C 1180.67 1140.75 1183.55 1132.89 1187.81 1126.79 C 1196.93 1114.39 1209.33 1104.82 1218.13 1092.16 C 1230.21 1075.01 1235.85 1053.43 1233.61 1032.56 C 1231.86 1016.07 1226.91 999.77 1218.53 985.42 C 1212.04 974.60 1202.61 966.03 1193.59 957.38 C 1183.16 947.51 1170.88 939.00 1163.81 926.17 C 1159.40 918.65 1158.39 909.05 1161.95 901.00 C 1168.48 885.31 1178.92 871.68 1189.36 858.42 C 1198.22 846.76 1208.40 835.72 1213.92 821.94 C 1222.15 801.91 1223.38 779.45 1219.76 758.24 C 1218.01 746.71 1214.33 735.46 1208.80 725.19 C 1199.83 708.75 1187.65 694.41 1176.69 679.30 C 1167.83 666.76 1159.41 653.42 1155.57 638.40 C 1152.37 626.59 1154.07 614.09 1157.52 602.55 C 1167.83 566.74 1184.93 532.59 1188.43 495.06 C 1190.54 467.60 1187.29 440.10 1183.18 412.97 C 1179.67 391.23 1176.64 369.34 1170.92 348.03 C 1166.65 329.74 1159.93 311.90 1150.16 295.82 C 1140.17 280.09 1130.23 264.35 1120.44 248.50 C 1114.58 240.77 1109.84 231.91 1102.08 225.84 C 1094.74 219.92 1088.30 212.95 1080.88 207.13 C 1075.76 203.08 1069.56 200.66 1064.59 196.39 C 1059.64 192.20 1054.31 188.37 1050.18 183.31 C 1051.54 183.46 1052.92 183.62 1054.30 183.79 C 1046.81 177.23 1039.06 170.98 1031.52 164.49 C 1018.51 153.49 1005.82 142.10 992.30 131.74 C 977.49 120.92 961.69 111.58 946.21 101.78 C 932.77 93.86 919.68 85.33 905.82 78.16 C 886.44 67.76 866.30 58.89 846.35 49.65 C 827.76 41.12 808.69 33.59 789.01 27.97 C 764.76 20.98 739.82 16.72 714.87 13.15 C 693.43 9.66 671.76 7.23 650.01 7.08 C 628.59 6.67 607.19 8.27 585.93 10.70 M 689.07 113.81 C 672.85 114.27 656.74 116.93 641.05 121.02 C 641.18 145.60 638.50 170.22 641.01 194.76 C 650.19 191.21 659.93 189.50 669.54 187.54 C 680.23 185.30 691.20 185.98 702.03 186.19 C 724.51 187.11 747.03 187.71 769.37 190.58 C 782.69 191.80 795.90 194.03 808.93 197.02 C 826.93 201.06 843.81 208.68 860.41 216.54 C 881.48 226.44 903.53 234.00 924.97 243.05 C 939.28 248.52 952.77 255.94 965.44 264.52 C 980.40 274.70 996.13 284.13 1008.86 297.16 C 1012.13 300.05 1015.52 303.44 1015.22 308.19 C 1010.80 308.32 1007.08 305.91 1003.96 303.04 C 989.36 290.29 973.05 279.75 956.93 269.08 C 945.74 261.70 933.80 255.49 921.29 250.71 C 900.36 241.88 878.86 234.42 858.28 224.75 C 841.25 216.62 823.97 208.55 805.42 204.55 C 792.10 201.46 778.56 199.42 764.96 198.03 C 749.08 195.73 733.03 195.21 717.05 194.07 C 701.12 194.14 685.06 191.36 669.25 194.32 C 659.77 195.97 650.22 197.34 641.00 200.14 C 641.07 205.07 641.44 209.99 641.76 214.92 C 642.47 232.34 641.70 249.78 641.65 267.20 C 646.82 265.75 651.97 264.21 657.27 263.24 C 682.63 257.69 708.52 262.78 733.92 265.29 C 756.72 267.78 779.29 272.05 801.56 277.47 C 816.90 280.99 832.27 284.60 847.10 289.96 C 866.06 296.95 884.89 304.38 903.34 312.67 C 919.77 320.51 936.32 328.36 951.38 338.69 C 962.87 346.78 974.50 354.71 985.46 363.52 C 1003.56 376.39 1017.50 394.08 1029.47 412.58 C 1040.72 429.75 1052.59 446.57 1062.38 464.65 C 1068.99 475.65 1074.39 487.30 1080.22 498.72 C 1089.12 516.45 1093.48 535.91 1099.25 554.77 C 1105.04 573.63 1110.02 592.74 1113.92 612.08 C 1118.58 636.13 1121.46 660.52 1122.94 684.96 C 1123.10 697.64 1123.02 710.33 1122.97 723.01 C 1122.07 741.69 1119.90 761.05 1110.76 777.72 C 1105.79 786.72 1098.53 794.10 1091.28 801.27 C 1077.34 815.03 1061.97 827.26 1048.25 841.24 C 1035.05 854.21 1023.85 869.39 1016.38 886.37 C 1012.05 895.27 1009.58 905.10 1009.64 915.02 C 1009.36 932.75 1016.38 949.67 1025.50 964.56 C 1036.85 982.67 1049.79 999.92 1058.50 1019.54 C 1061.66 1026.93 1063.94 1034.68 1065.47 1042.56 C 1070.88 1065.56 1071.50 1089.52 1068.83 1112.94 C 1067.61 1123.23 1063.89 1133.26 1057.51 1141.48 C 1051.51 1149.72 1043.30 1156.01 1037.11 1164.09 C 1033.42 1168.92 1030.81 1174.81 1030.86 1180.99 C 1030.56 1189.51 1035.68 1196.92 1040.65 1203.39 C 1048.40 1213.60 1059.62 1221.48 1063.99 1233.98 C 1065.90 1238.27 1064.64 1242.99 1063.57 1247.32 C 1070.90 1251.26 1078.69 1254.27 1086.27 1257.71 C 1093.72 1260.79 1100.94 1264.43 1108.55 1267.12 C 1113.13 1258.61 1119.29 1250.97 1122.92 1241.96 C 1129.16 1225.95 1134.71 1209.65 1139.01 1193.00 C 1142.16 1180.88 1146.29 1168.95 1147.59 1156.44 C 1148.64 1145.66 1148.67 1134.81 1148.07 1124.01 C 1147.24 1111.35 1146.32 1098.57 1142.61 1086.37 C 1139.57 1076.56 1136.46 1066.76 1132.94 1057.11 C 1127.74 1042.88 1120.24 1029.67 1114.08 1015.88 C 1105.21 995.91 1102.42 973.63 1104.25 951.96 C 1105.91 938.94 1109.80 926.24 1115.51 914.44 C 1122.24 899.72 1132.89 887.41 1142.66 874.68 C 1152.79 860.29 1161.91 845.14 1169.15 829.08 C 1171.89 823.43 1173.86 817.37 1174.41 811.09 C 1175.60 797.10 1176.60 783.07 1176.42 769.02 C 1176.10 758.76 1174.85 748.56 1173.49 738.40 C 1171.80 728.27 1168.98 718.38 1166.55 708.42 C 1163.74 698.44 1161.72 687.93 1155.85 679.17 C 1149.91 670.13 1146.21 659.91 1141.92 650.05 C 1134.27 630.52 1127.28 610.18 1127.04 588.99 C 1127.31 577.86 1129.64 566.91 1132.04 556.08 C 1135.09 542.83 1135.72 529.21 1137.65 515.79 C 1139.22 505.95 1139.01 495.96 1139.89 486.05 C 1140.00 472.43 1140.52 458.73 1138.70 445.18 C 1136.55 424.46 1130.49 404.37 1123.01 384.99 C 1116.03 366.85 1109.57 348.46 1101.13 330.92 C 1094.76 316.44 1085.37 303.61 1076.18 290.83 C 1068.83 280.89 1061.34 271.05 1053.53 261.47 C 1037.49 240.69 1018.26 222.71 999.01 204.98 C 986.60 194.15 973.12 184.58 959.20 175.81 C 943.23 166.28 927.92 155.40 910.55 148.46 C 868.79 131.91 824.66 121.43 780.00 116.78 C 764.76 114.67 749.37 114.35 734.06 113.13 C 719.07 112.99 704.03 112.59 689.07 113.81 M 543.04 120.01 C 529.87 122.10 516.38 122.62 503.55 126.52 C 491.98 129.98 480.66 134.24 469.29 138.29 C 454.67 143.63 440.51 150.13 426.15 156.12 C 414.46 161.34 402.35 165.75 391.34 172.37 C 381.87 178.13 372.99 184.82 363.32 190.26 C 352.42 196.49 341.56 202.89 331.72 210.72 C 319.16 220.59 305.98 229.62 293.28 239.29 C 281.18 248.79 271.76 261.10 260.76 271.76 C 249.11 283.77 236.02 294.35 225.03 307.00 C 220.70 312.36 216.48 317.81 212.24 323.24 C 200.36 339.52 184.54 352.49 173.11 369.13 C 167.19 377.86 160.96 386.37 155.22 395.22 C 143.79 413.25 131.73 430.96 122.03 450.01 C 111.82 468.91 104.10 489.02 97.48 509.42 C 90.87 529.77 84.60 550.27 80.32 571.26 C 75.43 591.84 75.11 613.07 73.31 634.05 C 72.34 649.70 73.33 665.46 76.14 680.88 C 78.11 695.24 83.81 708.66 88.89 722.12 C 92.98 732.69 96.82 743.37 101.18 753.84 C 107.68 769.30 113.37 785.11 120.84 800.15 C 125.81 810.20 130.07 820.61 135.70 830.33 C 140.96 839.76 146.23 849.18 151.44 858.64 C 159.97 873.86 166.30 890.40 169.49 907.57 C 171.28 921.86 167.90 936.61 161.20 949.28 C 152.81 965.60 146.05 983.40 145.98 1001.99 C 145.62 1017.98 148.43 1034.39 156.54 1048.36 C 166.49 1067.57 179.25 1085.10 190.18 1103.73 C 196.27 1115.46 203.60 1126.94 205.80 1140.21 C 208.34 1150.61 208.07 1161.34 208.76 1171.95 C 209.12 1187.06 211.96 1202.16 209.97 1217.27 C 216.37 1215.51 222.73 1213.57 229.25 1212.23 C 240.63 1209.64 252.33 1208.34 263.45 1204.65 C 266.27 1197.93 271.09 1192.19 273.19 1185.15 C 274.30 1181.38 275.10 1177.47 276.99 1173.99 C 280.04 1168.15 279.39 1161.35 279.50 1155.00 C 279.64 1149.36 278.96 1143.61 276.45 1138.49 C 270.17 1125.33 261.59 1113.10 250.42 1103.63 C 238.81 1093.30 225.93 1083.86 217.41 1070.60 C 209.02 1057.74 206.95 1042.04 206.04 1027.03 C 205.55 1005.84 209.67 984.51 218.10 965.05 C 223.91 951.53 233.94 940.40 240.12 927.09 C 246.53 913.77 245.10 898.07 240.49 884.43 C 234.90 868.29 227.42 852.86 219.12 837.95 C 210.12 822.72 201.66 807.13 191.16 792.85 C 181.94 780.43 172.58 767.93 166.48 753.61 C 153.36 721.79 148.00 687.26 146.99 653.01 C 146.68 631.32 145.90 609.56 148.15 587.94 C 149.55 572.17 152.22 556.51 156.13 541.18 C 162.87 515.55 174.65 491.42 189.48 469.54 C 195.13 460.54 201.49 452.00 206.79 442.79 C 212.13 433.12 218.10 423.74 225.68 415.64 C 238.55 400.14 254.43 387.61 270.10 375.10 C 280.06 367.77 290.24 360.52 301.74 355.77 C 314.81 350.30 327.24 343.36 340.54 338.45 C 391.44 320.47 444.82 310.97 498.10 303.30 C 518.42 300.70 538.71 297.93 558.97 294.96 C 569.59 292.99 580.17 290.87 590.74 288.67 C 602.10 286.19 611.95 279.78 621.68 273.72 C 625.50 271.21 629.11 268.01 633.84 267.41 C 633.98 246.07 634.41 224.72 633.51 203.40 C 613.43 193.87 590.73 194.02 569.01 193.16 C 556.74 193.25 544.58 195.16 532.60 197.66 C 521.51 199.58 510.58 202.37 499.92 205.97 C 482.33 211.87 464.89 218.25 447.36 224.34 C 421.35 233.59 395.12 242.65 370.60 255.48 C 359.21 261.37 347.87 267.68 338.22 276.22 C 332.61 280.91 327.41 286.05 321.91 290.85 C 311.52 300.12 300.60 308.86 291.05 319.03 C 281.78 328.45 273.98 339.34 263.64 347.68 C 261.81 349.22 258.71 349.76 257.03 347.71 C 255.80 344.37 258.62 341.86 260.72 339.73 C 267.00 333.64 272.35 326.69 277.96 319.99 C 289.17 307.20 302.25 296.24 315.09 285.14 C 323.02 278.05 330.69 270.63 339.19 264.22 C 353.74 253.64 370.11 245.94 386.37 238.38 C 409.69 228.36 433.75 220.21 457.60 211.60 C 475.28 205.49 492.66 198.38 510.82 193.81 C 519.03 191.63 527.43 190.38 535.76 188.78 C 549.32 186.11 563.22 184.63 577.03 185.75 C 588.96 185.97 600.91 187.02 612.62 189.34 C 619.84 190.70 626.48 193.89 633.03 197.09 C 632.91 188.72 631.81 180.38 631.98 172.00 C 631.54 155.56 633.56 139.15 632.83 122.72 C 630.57 123.62 628.38 124.73 626.02 125.31 C 622.15 123.54 619.21 120.05 614.95 119.05 C 602.22 115.82 588.98 117.38 576.00 116.99 C 564.92 116.54 553.95 118.32 543.04 120.01 M 641.25 275.39 C 639.64 301.64 637.95 328.67 626.96 352.98 C 649.73 353.74 672.28 350.00 694.98 349.09 C 711.44 349.09 727.57 344.88 744.02 344.84 C 757.05 344.60 770.09 344.52 783.10 345.22 C 797.82 346.66 812.48 348.87 826.92 352.02 C 842.61 355.27 857.67 360.80 872.63 366.40 C 892.89 373.42 911.59 384.02 930.94 393.10 C 942.36 398.48 952.51 406.04 962.90 413.09 C 968.75 416.81 971.72 423.28 974.79 429.22 C 978.60 436.74 981.51 444.74 986.13 451.84 C 990.17 458.18 992.55 465.36 995.97 472.03 C 999.31 478.58 1000.87 485.83 1001.68 493.09 C 1002.78 504.04 1004.51 514.94 1004.86 525.96 C 1005.09 536.69 1005.13 547.42 1005.08 558.16 C 1008.87 555.97 1012.51 553.53 1016.28 551.29 C 1024.25 546.40 1033.78 545.56 1042.76 543.78 C 1050.43 542.75 1058.18 541.09 1065.95 541.90 C 1070.15 542.44 1074.67 545.56 1074.54 550.22 C 1074.60 559.35 1070.70 567.84 1068.63 576.60 C 1064.71 591.12 1062.77 606.08 1061.83 621.07 C 1060.58 631.34 1061.02 641.69 1061.05 652.01 C 1061.74 667.06 1059.82 682.20 1055.71 696.68 C 1053.38 704.33 1050.63 712.15 1045.25 718.24 C 1036.35 727.97 1028.65 739.24 1017.39 746.47 C 1008.99 750.90 1001.36 756.61 992.91 760.93 C 990.76 762.27 987.85 763.42 987.38 766.23 C 986.08 771.79 985.54 777.51 984.03 783.04 C 981.87 791.74 977.49 799.62 973.73 807.70 C 969.06 817.25 964.64 826.92 960.97 836.90 C 954.83 854.15 946.84 870.63 939.37 887.32 C 935.50 896.69 935.06 907.49 928.88 915.84 C 920.51 929.49 917.97 947.34 924.81 962.16 C 932.14 977.90 944.54 990.77 951.07 1006.94 C 956.76 1022.06 960.82 1038.93 955.83 1054.83 C 948.87 1078.94 927.56 1094.92 917.55 1117.44 C 914.09 1125.71 911.82 1134.84 913.21 1143.82 C 914.78 1150.94 921.24 1155.16 926.47 1159.54 C 933.16 1164.81 940.31 1170.22 943.87 1178.24 C 947.40 1185.61 946.37 1194.00 945.95 1201.89 C 962.83 1209.24 980.41 1214.85 997.66 1221.28 C 1016.58 1227.73 1034.92 1235.72 1053.50 1243.07 C 1053.71 1240.76 1053.99 1238.32 1052.87 1236.20 C 1049.06 1227.82 1041.67 1221.98 1035.83 1215.10 C 1029.72 1208.23 1024.23 1200.59 1021.14 1191.86 C 1018.05 1182.21 1019.49 1171.35 1024.51 1162.60 C 1032.10 1149.21 1046.44 1141.07 1053.16 1127.06 C 1057.69 1118.05 1057.94 1107.80 1058.78 1097.97 C 1059.64 1082.06 1058.71 1066.05 1055.58 1050.43 C 1053.52 1039.92 1051.00 1029.38 1046.16 1019.76 C 1041.76 1011.36 1037.28 1002.98 1031.89 995.17 C 1022.23 979.92 1011.10 965.34 1004.72 948.29 C 997.83 930.76 995.68 910.92 1001.70 892.82 C 1009.43 869.93 1023.58 849.58 1040.73 832.72 C 1054.17 819.13 1069.24 807.26 1082.86 793.85 C 1089.79 786.75 1097.36 779.94 1101.87 770.94 C 1109.74 755.57 1111.34 737.97 1111.99 721.00 C 1111.80 704.31 1112.65 687.59 1110.98 670.96 C 1108.91 648.74 1106.12 626.54 1101.21 604.76 C 1096.64 582.96 1089.85 561.72 1083.70 540.34 C 1080.98 530.94 1078.31 521.49 1074.56 512.44 C 1071.10 503.84 1066.55 495.74 1062.54 487.40 C 1058.84 479.61 1054.36 472.24 1050.19 464.70 C 1043.17 451.74 1034.65 439.70 1026.68 427.33 C 1015.53 409.92 1003.78 392.56 988.13 378.83 C 975.03 368.11 961.33 358.16 947.41 348.55 C 939.06 342.63 930.20 337.48 921.08 332.84 C 901.48 322.37 880.93 313.85 860.26 305.78 C 841.52 297.98 822.02 292.16 802.23 287.77 C 778.36 281.72 754.12 277.10 729.64 274.39 C 710.81 272.45 692.02 268.70 673.02 269.88 C 662.22 270.17 651.68 272.82 641.25 275.39 M 606.11 291.21 C 597.15 295.77 587.14 297.34 577.42 299.41 C 557.09 304.11 536.34 306.54 515.74 309.67 C 467.61 316.29 419.52 324.30 372.78 337.78 C 357.91 342.56 342.68 346.59 328.66 353.67 C 318.14 358.98 307.17 363.33 296.66 368.66 C 281.03 377.45 267.36 389.21 253.71 400.73 C 243.92 408.92 235.38 418.46 227.28 428.30 C 219.91 437.31 215.18 448.06 208.65 457.63 C 197.02 475.04 185.13 492.45 176.79 511.74 C 174.15 518.45 171.08 525.00 168.97 531.92 C 157.60 567.69 155.47 605.70 156.97 642.99 C 156.99 672.38 160.44 701.92 169.02 730.09 C 171.63 737.41 173.61 744.99 177.13 751.95 C 185.50 770.23 199.52 785.01 210.06 801.98 C 225.68 827.87 241.59 854.00 251.07 882.91 C 255.56 896.71 256.92 912.05 252.01 925.94 C 246.49 942.17 233.99 954.71 227.41 970.43 C 220.05 987.92 216.25 1006.99 216.96 1025.99 C 217.30 1040.65 219.52 1056.29 228.76 1068.22 C 238.09 1080.53 251.06 1089.27 262.10 1099.89 C 267.70 1105.01 272.05 1111.27 277.01 1116.97 C 281.66 1122.23 283.95 1128.97 286.68 1135.32 C 291.08 1146.26 294.10 1158.61 290.19 1170.17 C 287.70 1181.50 281.25 1191.19 275.88 1201.26 C 287.36 1199.40 298.65 1196.54 309.99 1193.99 C 319.83 1191.44 329.96 1190.36 339.80 1187.79 C 351.51 1185.49 362.90 1181.88 374.62 1179.62 C 377.15 1178.97 379.86 1178.54 382.09 1177.10 C 384.70 1173.90 385.69 1169.39 384.50 1165.42 C 381.98 1156.70 376.40 1149.27 370.22 1142.78 C 365.90 1138.20 362.00 1132.54 361.90 1126.02 C 361.57 1119.67 364.29 1113.74 367.13 1108.24 C 373.71 1094.94 383.64 1083.26 387.76 1068.80 C 390.26 1059.80 387.85 1050.26 383.92 1042.05 C 378.26 1030.74 369.99 1020.79 360.25 1012.76 C 350.97 1004.79 340.52 997.39 334.61 986.37 C 329.82 976.91 327.45 966.41 326.28 955.93 C 324.82 938.87 327.44 921.02 336.14 906.07 C 338.59 901.71 342.42 898.36 345.07 894.14 C 346.70 891.68 346.12 888.50 344.93 886.00 C 338.57 873.01 331.39 860.38 326.19 846.86 C 318.64 828.57 311.53 810.12 304.24 791.73 C 301.44 784.75 299.72 777.40 297.03 770.38 C 293.46 770.11 289.91 769.22 287.08 766.94 C 280.95 762.28 274.04 758.76 268.00 753.98 C 259.92 747.81 252.90 740.40 246.32 732.68 C 242.16 727.36 237.90 721.97 235.30 715.68 C 231.03 705.56 229.83 694.47 225.70 684.29 C 220.92 672.43 218.41 659.84 215.53 647.42 C 212.34 633.26 212.87 618.56 209.51 604.44 C 207.48 595.35 205.71 586.21 203.90 577.09 C 201.65 565.59 197.33 554.54 191.52 544.38 C 190.35 541.97 188.48 539.29 189.47 536.51 C 190.43 533.86 193.66 533.59 196.04 533.24 C 208.36 532.14 220.91 534.09 232.46 538.47 C 242.67 542.34 251.00 549.72 258.42 557.53 C 264.06 563.33 266.63 571.25 271.73 577.46 C 271.99 569.62 271.73 561.79 271.93 553.96 C 272.27 549.37 268.98 545.13 270.52 540.55 C 273.29 529.56 271.34 518.15 272.09 506.97 C 272.50 502.49 274.86 498.55 276.41 494.42 C 278.46 489.48 280.20 484.40 282.66 479.65 C 284.63 476.38 287.90 474.15 289.77 470.80 C 297.74 458.08 309.88 448.71 318.46 436.45 C 326.49 426.57 334.79 416.85 344.11 408.15 C 352.08 400.21 361.69 394.27 370.78 387.75 C 379.46 381.69 387.78 374.99 397.29 370.25 C 411.99 362.91 427.50 357.37 442.99 351.98 C 452.57 348.59 462.78 348.07 472.83 347.66 C 481.29 346.79 489.80 347.19 498.27 346.57 C 509.20 345.83 520.19 346.51 531.05 347.88 C 549.27 350.52 567.57 353.17 586.02 353.18 C 597.58 353.73 609.15 353.20 620.70 352.83 C 629.40 329.91 632.77 305.32 633.17 280.91 C 633.59 278.62 631.93 277.12 630.37 275.77 C 622.59 281.36 614.68 286.89 606.11 291.21 M 740.55 354.74 C 728.00 355.59 715.61 357.86 703.08 358.82 C 691.38 359.26 679.68 359.86 668.04 361.18 C 656.75 362.49 645.37 363.13 634.00 363.00 C 608.36 363.19 582.60 364.67 557.06 361.67 C 545.87 360.61 534.80 358.62 523.63 357.38 C 512.82 356.38 501.96 356.92 491.13 357.21 C 479.26 358.00 467.32 357.77 455.53 359.53 C 447.34 360.91 439.68 364.24 431.90 366.98 C 416.76 372.71 401.35 378.53 388.20 388.19 C 380.06 394.08 371.83 399.84 363.62 405.62 C 349.31 415.79 337.85 429.28 326.87 442.83 C 320.03 452.83 310.35 460.49 303.63 470.59 C 297.18 479.85 294.25 490.95 288.58 500.65 C 284.88 508.13 281.36 516.47 283.08 524.98 C 283.31 546.33 282.73 567.70 283.13 589.05 C 284.15 617.55 287.31 645.92 290.53 674.24 C 296.29 715.04 301.40 756.54 317.05 794.99 C 324.50 814.13 331.78 833.35 339.72 852.30 C 343.91 861.31 348.41 870.16 352.83 879.06 C 360.66 894.31 367.33 910.17 376.07 924.94 C 381.90 934.30 389.22 942.62 395.09 951.96 C 401.22 961.59 407.99 970.81 415.84 979.11 C 424.52 988.43 432.62 998.46 443.02 1005.97 C 452.94 1013.41 462.82 1020.91 473.01 1027.98 C 475.66 1029.83 478.88 1030.66 481.53 1032.51 C 493.58 1044.72 510.18 1050.50 524.43 1059.56 C 532.71 1064.84 542.03 1068.07 550.96 1072.06 C 559.80 1075.94 568.49 1080.27 577.72 1083.22 C 587.33 1086.26 596.41 1091.19 606.54 1092.44 C 615.35 1093.52 624.12 1095.20 633.03 1095.24 C 643.48 1095.42 653.80 1093.52 664.14 1092.18 C 676.53 1090.51 688.83 1088.17 700.90 1084.90 C 717.83 1079.47 733.51 1070.97 749.62 1063.59 C 766.66 1055.02 783.79 1046.42 799.41 1035.41 C 802.56 1033.26 804.26 1029.29 808.07 1028.12 C 812.73 1026.51 816.50 1023.29 820.42 1020.45 C 825.75 1016.44 831.71 1013.21 836.44 1008.44 C 839.79 1004.98 844.50 1003.31 847.76 999.75 C 854.47 992.82 861.06 985.72 868.61 979.68 C 874.49 974.91 880.21 969.87 884.89 963.89 C 890.86 956.12 897.04 948.48 901.99 940.00 C 908.28 930.74 912.54 920.35 917.22 910.24 C 920.69 902.00 925.14 894.23 929.14 886.24 C 934.08 876.02 938.64 865.62 943.27 855.26 C 949.76 840.81 954.38 825.59 961.39 811.37 C 966.55 799.70 973.63 788.67 975.93 775.94 C 977.89 765.26 979.89 754.59 981.94 743.93 C 986.21 719.96 991.74 696.16 993.70 671.85 C 994.62 659.23 996.37 646.66 996.06 633.99 C 996.51 609.83 993.31 585.82 992.66 561.69 C 991.80 550.50 992.40 539.26 991.26 528.09 C 990.55 512.87 989.35 497.52 985.16 482.81 C 981.52 468.73 976.18 455.12 969.84 442.04 C 964.98 432.14 957.80 423.65 950.61 415.39 C 938.88 405.94 924.81 400.13 911.34 393.65 C 902.74 389.59 894.36 385.07 885.56 381.44 C 875.62 377.07 865.26 373.77 855.10 369.97 C 835.40 362.73 814.68 358.75 793.90 356.20 C 776.24 353.59 758.32 354.16 740.55 354.74 M 200.82 542.04 C 205.44 551.66 209.79 561.50 212.01 571.98 C 215.10 587.61 219.28 603.04 221.28 618.87 C 222.78 629.19 223.49 639.68 226.27 649.78 C 229.21 660.80 233.32 671.46 236.72 682.34 C 238.03 686.38 237.81 690.66 238.36 694.83 C 239.01 699.64 241.54 703.89 243.96 708.01 C 246.23 711.81 247.75 716.02 250.41 719.59 C 255.95 727.24 262.43 734.20 269.53 740.42 C 276.88 746.80 285.27 751.76 293.42 757.01 C 291.79 748.47 289.49 740.07 288.40 731.42 C 285.94 720.63 284.69 709.63 282.79 698.74 C 278.92 698.85 274.55 700.52 271.17 697.84 C 263.41 692.67 258.78 684.12 255.22 675.76 C 247.35 657.60 238.96 639.44 234.98 619.94 C 233.04 611.10 232.68 602.02 230.86 593.17 C 229.72 587.37 225.99 582.66 223.60 577.38 C 222.65 575.02 222.12 570.99 225.30 570.18 C 230.15 569.19 234.76 571.82 238.85 574.10 C 244.54 577.56 250.68 580.18 256.41 583.54 C 263.13 587.48 267.14 594.37 271.90 600.28 C 271.77 596.44 272.81 592.21 271.30 588.63 C 266.86 583.99 262.62 579.12 259.56 573.43 C 256.11 566.87 251.20 561.25 245.44 556.62 C 233.67 545.35 216.69 541.53 200.82 542.04 M 1027.22 557.27 C 1019.10 559.80 1013.16 566.55 1005.04 569.03 C 1003.57 569.65 1001.11 570.10 1001.28 572.19 C 1001.50 578.20 1002.08 584.22 1002.76 590.21 C 1008.63 585.63 1013.79 580.16 1020.07 576.10 C 1024.83 573.10 1029.79 568.95 1035.84 570.27 C 1036.95 576.69 1030.32 580.40 1029.29 586.30 C 1026.98 596.71 1031.51 606.85 1033.06 617.02 C 1035.23 629.10 1033.42 641.44 1031.42 653.41 C 1028.77 666.12 1026.18 679.21 1019.51 690.53 C 1014.87 698.07 1007.10 702.73 999.15 706.12 C 998.68 710.49 998.26 714.91 997.10 719.18 C 993.84 729.64 992.21 740.54 990.88 751.40 C 998.21 750.13 1003.44 744.47 1009.19 740.27 C 1014.82 735.91 1021.56 732.71 1025.71 726.70 C 1037.84 710.30 1046.37 691.24 1050.46 671.27 C 1052.14 654.84 1049.70 638.25 1051.64 621.82 C 1052.54 607.04 1054.33 592.29 1057.91 577.90 C 1059.82 569.08 1063.54 560.69 1064.39 551.65 C 1051.85 552.07 1039.35 554.11 1027.22 557.27 M 234.91 580.88 C 239.88 590.93 240.20 602.24 241.89 613.11 C 244.60 630.94 251.99 647.53 259.19 663.92 C 262.79 671.45 265.51 679.58 271.03 686.01 C 273.82 689.52 277.91 691.58 281.97 693.27 C 280.96 684.62 279.36 676.05 278.53 667.39 C 277.67 661.78 277.67 656.03 276.31 650.53 C 271.51 641.96 263.00 636.49 255.83 630.10 C 253.95 628.69 254.36 626.20 254.19 624.16 C 255.99 624.33 258.03 624.12 259.54 625.36 C 264.98 629.40 269.83 634.18 275.08 638.46 C 275.02 632.66 274.21 626.91 273.78 621.14 C 273.45 617.59 273.16 613.85 271.16 610.79 C 267.87 605.55 263.97 600.72 260.02 595.98 C 253.68 588.12 243.44 585.56 234.91 580.88 M 1004.55 596.54 C 1002.55 597.79 1003.45 600.44 1003.42 602.40 C 1004.87 616.26 1005.28 630.19 1004.97 644.13 C 1007.57 640.42 1010.04 636.41 1013.83 633.79 C 1015.47 632.57 1017.52 633.71 1019.33 633.85 C 1019.60 639.77 1013.95 642.73 1011.46 647.40 C 1009.27 651.05 1008.54 655.95 1004.32 657.97 C 1002.83 663.88 1002.99 670.02 1002.31 676.04 C 1001.79 682.81 1000.69 689.52 1000.05 696.29 C 1004.77 694.35 1009.07 691.26 1011.91 686.97 C 1016.47 680.03 1018.92 671.98 1020.99 664.00 C 1024.68 649.46 1027.14 634.37 1025.65 619.35 C 1024.71 612.11 1022.45 605.14 1021.31 597.95 C 1020.51 592.97 1021.20 587.93 1021.96 583.00 C 1015.98 587.29 1010.33 592.00 1004.55 596.54 M 338.68 918.65 C 331.85 937.87 332.89 959.54 340.66 978.32 C 341.99 981.45 343.67 984.46 345.83 987.10 C 354.87 997.83 367.15 1005.11 376.70 1015.33 C 384.12 1023.96 391.18 1033.21 395.02 1044.06 C 399.13 1055.07 399.49 1067.77 394.57 1078.59 C 389.56 1091.47 380.62 1102.26 374.73 1114.70 C 372.60 1118.95 370.70 1123.90 372.28 1128.67 C 373.72 1132.54 376.83 1135.43 379.46 1138.52 C 385.25 1144.75 390.13 1151.94 393.08 1159.96 C 394.74 1163.86 391.86 1167.85 392.72 1171.90 C 405.90 1166.93 419.75 1162.74 431.10 1154.09 C 437.04 1148.28 442.53 1141.80 446.24 1134.31 C 451.62 1124.19 454.27 1112.95 458.34 1102.30 C 461.16 1094.50 461.00 1086.11 460.89 1077.95 C 462.15 1067.69 463.26 1056.96 460.08 1046.93 C 458.57 1041.33 457.33 1035.66 455.92 1030.05 C 455.37 1028.20 454.92 1026.01 453.07 1025.04 C 445.15 1020.52 438.04 1014.77 430.97 1009.07 C 421.31 1000.74 413.19 990.84 404.56 981.49 C 393.63 969.70 386.14 955.33 376.27 942.73 C 365.74 929.47 358.59 914.01 351.36 898.82 C 345.75 904.41 341.28 911.14 338.68 918.65 M 889.91 972.95 C 884.11 979.86 876.88 985.30 870.08 991.14 C 863.98 996.34 858.70 1002.39 853.07 1008.07 C 848.43 1012.84 842.49 1016.12 838.07 1021.12 C 835.08 1024.57 830.94 1026.63 826.80 1028.34 C 822.38 1030.54 818.41 1033.56 814.66 1036.73 C 813.37 1037.50 813.68 1039.05 813.68 1040.32 C 813.77 1043.08 813.90 1045.86 813.59 1048.63 C 812.40 1057.70 813.32 1066.86 813.06 1075.98 C 812.62 1088.95 815.57 1101.68 817.64 1114.41 C 820.23 1129.57 826.38 1144.06 835.56 1156.41 C 845.00 1169.84 859.30 1180.00 875.41 1183.58 C 885.71 1185.83 895.54 1189.78 905.82 1192.17 C 915.88 1194.77 926.20 1196.13 936.47 1197.55 C 937.64 1190.96 937.04 1183.66 932.71 1178.29 C 926.00 1169.94 916.08 1164.96 909.24 1156.74 C 904.94 1151.53 902.59 1144.74 902.94 1137.97 C 903.62 1121.92 910.70 1106.88 920.21 1094.19 C 929.82 1080.58 942.12 1068.09 946.64 1051.61 C 949.67 1040.33 948.41 1028.29 944.67 1017.35 C 939.36 997.72 923.62 983.33 916.32 964.61 C 913.28 957.13 912.36 948.97 912.79 940.96 C 906.20 952.33 898.32 962.87 889.91 972.95 Z" />
<path fill="#010101" opacity="1.00" d=" M 1049.37 182.35 C 1049.86 182.86 1049.86 182.86 1049.37 182.35 Z" />
<path fill="#010101" opacity="1.00" d=" M 347.91 568.91 C 363.39 563.64 380.21 562.47 396.27 565.62 C 411.23 566.95 425.28 572.41 439.66 576.33 C 460.62 582.29 481.81 587.73 502.05 595.90 C 510.11 599.14 517.44 603.84 525.01 608.02 C 529.90 610.69 533.96 614.69 539.10 616.93 C 545.29 619.62 551.37 623.03 555.86 628.17 C 558.39 631.08 559.62 635.38 558.12 639.06 C 556.95 642.30 553.94 644.25 551.36 646.30 C 557.40 656.41 562.30 667.23 565.39 678.62 C 567.72 686.77 570.56 694.85 571.70 703.28 C 572.18 705.26 570.71 706.86 569.83 708.47 C 567.82 706.59 566.10 704.37 565.23 701.74 C 561.61 692.04 559.11 681.96 555.72 672.19 C 552.65 663.50 548.12 655.44 543.79 647.33 C 534.35 646.24 525.81 641.73 517.28 637.84 C 502.68 629.93 488.79 620.33 472.83 615.23 C 453.33 608.65 434.83 599.22 414.77 594.29 C 396.18 588.95 377.71 580.63 357.94 582.03 C 346.40 582.93 335.00 585.95 323.37 585.70 C 321.60 584.33 320.40 581.79 321.63 579.68 C 323.45 575.58 328.20 574.19 332.22 573.31 C 337.59 572.39 342.77 570.70 347.91 568.91 M 374.67 573.33 C 389.10 575.83 402.87 580.86 416.81 585.15 C 437.89 590.23 457.22 600.34 477.67 607.29 C 485.38 609.74 492.49 613.63 499.60 617.43 C 509.03 622.51 517.61 629.09 527.33 633.66 C 532.17 635.92 536.95 638.58 542.26 639.56 C 545.12 640.04 548.53 639.82 550.58 637.50 C 551.46 635.77 551.04 633.63 549.62 632.34 C 545.10 627.58 539.29 624.30 533.33 621.70 C 520.05 615.04 507.75 606.31 493.62 601.42 C 472.99 593.57 451.38 588.88 430.20 582.82 C 420.14 580.09 410.28 576.41 399.87 575.19 C 391.51 574.20 383.11 571.96 374.67 573.33 Z" />
<path fill="#010101" opacity="1.00" d=" M 890.94 574.09 C 899.95 574.02 908.93 572.43 917.95 573.30 C 930.70 574.20 943.65 576.29 955.41 581.52 C 958.62 583.23 963.36 584.84 963.49 589.17 C 963.66 592.12 960.74 594.18 957.97 593.63 C 943.66 592.59 929.33 591.22 914.97 591.98 C 898.01 593.29 881.11 595.35 864.38 598.44 C 852.68 600.80 840.94 603.34 829.88 607.93 C 812.41 615.12 794.86 622.23 778.19 631.16 C 763.06 639.18 747.50 646.34 731.58 652.62 C 725.58 655.10 719.68 657.95 713.27 659.21 C 710.73 659.86 707.90 660.05 705.83 661.83 C 702.21 664.73 700.12 668.98 698.03 673.01 C 694.44 680.12 690.31 686.98 687.43 694.42 C 684.77 701.22 682.20 708.07 678.79 714.54 C 677.47 713.96 676.13 713.45 674.89 712.75 C 674.93 707.48 677.09 702.56 678.52 697.58 C 681.57 687.44 687.03 678.31 691.86 668.96 C 693.91 664.92 696.52 661.18 699.57 657.83 C 696.99 654.08 696.41 649.14 699.39 645.42 C 705.81 637.15 716.15 633.51 724.23 627.21 C 729.42 622.97 735.73 620.60 741.71 617.73 C 753.89 611.46 766.86 606.95 779.36 601.36 C 789.82 596.60 801.05 593.97 811.73 589.81 C 837.44 581.62 864.10 576.62 890.94 574.09 M 861.02 587.05 C 842.07 590.89 823.07 594.97 805.00 601.99 C 790.02 606.06 776.08 612.98 761.70 618.70 C 750.30 623.12 739.74 629.52 728.10 633.34 C 722.72 635.01 718.51 638.91 713.81 641.84 C 709.99 644.57 705.29 647.08 703.81 651.87 C 706.29 653.84 709.75 653.01 712.60 652.48 C 720.73 650.20 728.15 646.03 736.01 643.01 C 750.70 637.23 764.72 629.96 778.61 622.52 C 793.88 614.15 810.09 607.74 826.12 601.05 C 837.85 596.09 850.32 593.34 862.73 590.73 C 879.66 587.46 896.81 585.33 913.99 583.95 C 920.40 583.47 926.83 583.99 933.25 583.69 C 925.36 581.55 917.12 581.90 909.03 581.89 C 892.89 582.03 876.91 584.52 861.02 587.05 Z" />
<path fill="#010101" opacity="1.00" d=" M 406.65 610.63 C 407.19 607.23 412.92 607.15 413.21 610.70 C 414.26 617.49 413.53 624.54 415.88 631.14 C 434.28 626.70 453.62 627.01 472.09 630.87 C 480.60 632.50 488.43 636.33 496.40 639.57 C 505.26 643.17 512.84 649.12 520.96 654.05 C 526.44 657.38 532.24 660.51 536.45 665.48 C 540.60 670.15 542.22 676.36 545.38 681.66 C 549.23 688.02 549.85 695.93 548.17 703.07 C 547.49 706.01 544.81 707.80 543.07 710.09 C 540.66 712.75 539.46 716.29 536.89 718.82 C 525.26 728.88 513.06 738.77 498.71 744.71 C 491.82 747.34 484.87 749.99 477.61 751.40 C 464.62 752.94 451.52 755.55 438.41 753.59 C 429.79 752.57 420.72 750.10 412.25 753.16 C 405.17 756.28 403.24 764.34 399.82 770.53 C 398.20 769.69 395.16 769.47 395.81 766.95 C 396.34 758.44 402.29 751.47 409.21 747.04 C 407.08 746.77 404.69 745.35 402.69 746.70 C 397.64 749.83 393.84 754.59 390.38 759.34 C 388.82 761.41 387.31 763.68 384.97 764.93 C 383.40 764.36 381.36 763.11 382.12 761.16 C 383.57 752.87 390.58 747.54 396.35 742.16 C 394.27 740.79 392.28 739.20 389.93 738.33 C 382.39 739.42 378.75 747.44 371.70 749.47 C 370.75 741.53 378.42 737.03 384.09 733.28 C 382.36 731.79 380.64 730.30 378.93 728.82 C 375.24 730.64 371.62 732.76 368.81 735.81 C 366.07 738.53 364.26 742.00 361.55 744.73 C 359.14 746.34 355.70 744.01 357.01 741.16 C 360.10 733.74 366.75 728.50 373.25 724.13 C 372.68 722.99 372.11 721.85 371.55 720.73 C 363.51 722.56 358.82 729.91 353.88 735.83 C 353.04 735.92 351.37 736.11 350.53 736.20 C 349.51 731.10 352.71 726.53 355.88 722.89 C 359.13 719.17 363.73 717.10 368.23 715.31 C 367.26 713.63 366.27 710.30 363.71 711.72 C 355.77 715.01 349.69 721.79 345.62 729.23 C 344.03 728.89 342.18 728.99 340.96 727.74 C 340.33 723.71 342.64 720.01 345.13 717.07 C 349.98 711.61 355.83 706.87 362.80 704.46 C 361.65 702.54 360.53 700.59 359.02 698.95 C 355.34 700.74 351.99 703.23 349.24 706.27 C 346.45 709.37 345.16 713.49 342.53 716.71 C 340.45 717.97 337.17 716.74 337.82 713.96 C 339.04 708.14 343.01 703.40 346.94 699.12 C 342.76 698.08 338.21 697.12 335.19 693.80 C 331.61 690.13 328.97 683.98 332.66 679.48 C 332.01 675.00 331.41 670.01 334.00 665.99 C 334.97 664.49 337.71 663.04 338.84 665.12 C 341.05 667.90 341.53 671.59 343.35 674.60 C 344.43 676.04 346.18 676.75 347.65 677.74 C 350.17 671.85 355.06 667.65 359.97 663.78 C 354.64 657.43 349.28 650.46 348.03 642.02 C 347.81 638.96 347.29 635.04 350.21 633.03 C 352.96 632.96 353.69 636.28 354.75 638.24 C 357.48 645.36 360.89 652.44 366.60 657.69 C 370.81 653.74 375.34 650.15 380.01 646.76 C 376.46 640.22 373.71 632.46 376.03 625.04 C 376.44 622.32 380.71 621.72 381.65 624.34 C 383.88 630.25 382.52 637.99 388.04 642.33 C 391.93 641.07 395.31 638.69 398.99 636.97 C 401.69 635.59 404.68 634.72 407.09 632.85 C 406.34 625.50 404.79 617.93 406.65 610.63 M 423.45 639.89 C 427.37 643.85 431.23 648.23 436.45 650.48 C 443.15 652.70 450.28 652.86 457.22 653.78 C 475.84 656.51 494.73 660.83 510.72 671.22 C 522.30 677.68 531.48 687.34 541.07 696.30 C 540.73 689.05 535.97 683.29 533.00 676.98 C 530.52 671.72 525.93 667.89 520.95 665.09 C 515.03 661.74 509.30 658.07 503.60 654.36 C 496.63 649.78 488.68 647.10 481.02 643.95 C 472.13 640.28 462.48 639.07 452.97 638.19 C 443.12 637.81 433.10 637.53 423.45 639.89 M 396.68 649.65 C 400.57 652.34 404.47 655.10 408.74 657.18 C 410.76 658.31 413.12 657.67 415.26 657.28 C 419.25 656.42 423.21 655.47 427.20 654.65 C 422.34 650.61 417.81 646.11 412.62 642.50 C 406.78 643.29 401.67 646.72 396.68 649.65 M 375.30 663.37 C 380.02 664.92 385.04 665.65 390.00 665.13 C 394.00 664.72 397.51 662.58 400.98 660.73 C 396.77 658.86 393.05 656.09 388.87 654.18 C 383.40 655.24 379.26 659.69 375.30 663.37 M 428.89 665.67 C 424.55 666.45 419.24 666.36 416.52 670.47 C 410.28 676.77 405.57 685.56 407.36 694.67 C 408.55 702.94 414.83 708.92 420.33 714.66 C 424.35 718.64 427.99 723.27 433.16 725.84 C 441.33 729.71 450.83 730.95 459.62 728.59 C 466.01 727.34 471.35 723.38 476.12 719.16 C 481.17 714.86 483.81 708.37 485.01 701.99 C 486.45 690.55 480.39 680.14 478.54 669.14 C 471.17 667.39 463.76 665.75 456.26 664.64 C 447.15 663.16 437.96 664.79 428.89 665.67 M 357.94 678.92 C 364.88 678.85 371.82 676.82 377.23 672.35 C 374.21 671.43 371.18 670.60 368.14 669.81 C 364.60 672.69 361.05 675.57 357.94 678.92 M 386.62 679.61 C 384.45 680.79 381.53 682.11 381.38 684.96 C 381.44 690.82 382.95 696.78 386.34 701.63 C 389.95 706.89 393.86 712.02 398.50 716.42 C 404.54 721.37 411.90 724.38 419.15 727.11 C 412.27 718.86 403.04 711.85 399.85 701.16 C 396.85 691.26 399.23 680.70 404.11 671.84 C 398.12 674.07 392.36 676.83 386.62 679.61 M 490.04 672.83 C 492.16 681.13 495.27 689.33 495.37 698.00 C 495.60 705.49 492.81 712.71 489.16 719.12 C 486.18 724.49 480.70 727.62 476.66 732.05 C 484.02 730.80 490.92 727.78 497.68 724.71 C 504.74 721.53 510.19 715.89 516.47 711.51 C 521.46 708.03 525.27 703.19 528.54 698.11 C 517.20 687.69 504.51 678.37 490.04 672.83 M 334.19 681.33 C 334.67 681.84 334.67 681.84 334.19 681.33 M 334.74 682.84 C 336.09 686.03 337.31 689.65 340.40 691.59 C 344.41 694.10 349.40 694.31 353.99 693.95 C 356.30 693.80 357.62 691.60 359.24 690.23 C 354.68 689.73 350.06 689.46 345.61 688.28 C 341.65 687.22 338.25 684.86 334.74 682.84 M 367.70 695.19 C 369.84 702.51 373.51 709.23 377.40 715.75 C 380.02 719.68 383.53 722.96 387.38 725.69 C 392.21 729.18 396.54 733.46 401.94 736.12 C 412.73 741.10 424.16 744.96 436.07 745.92 C 450.25 748.78 464.63 746.04 478.80 744.56 C 485.75 743.03 492.65 740.93 499.16 738.04 C 505.91 733.61 512.08 728.32 518.83 723.87 C 523.96 720.79 528.38 716.68 531.83 711.78 C 533.39 709.27 537.26 706.50 534.49 703.51 C 531.43 707.74 528.79 712.39 524.67 715.71 C 520.62 718.98 516.49 722.15 512.56 725.58 C 504.98 732.13 495.52 735.93 486.17 739.21 C 477.13 742.40 467.46 742.59 458.00 743.01 C 450.05 743.40 442.12 742.38 434.39 740.60 C 424.39 738.78 415.67 733.30 406.23 729.86 C 401.23 728.30 397.57 724.55 393.69 721.28 C 383.79 714.07 378.23 702.81 372.43 692.38 C 370.85 693.32 369.27 694.25 367.70 695.19 Z" />
<path fill="#010101" opacity="1.00" d=" M 869.13 629.70 C 871.10 630.12 873.85 630.07 874.56 632.46 C 876.23 638.15 874.42 644.13 873.64 649.84 C 878.74 652.47 883.74 655.30 888.82 657.97 C 891.58 649.94 892.55 641.49 893.13 633.07 C 894.43 632.64 895.75 632.22 897.07 631.81 C 902.10 641.41 897.99 652.37 895.03 661.94 C 897.00 663.85 898.93 665.79 900.84 667.78 C 903.82 664.67 906.85 661.33 907.97 657.05 C 909.49 651.47 910.18 645.69 912.08 640.21 C 913.46 640.06 914.84 639.93 916.24 639.80 C 918.09 647.89 916.76 656.63 913.01 664.00 C 910.88 668.44 906.50 671.11 903.81 675.11 C 903.82 677.56 904.40 679.95 904.88 682.34 C 910.37 681.75 915.53 679.56 920.98 678.76 C 923.04 678.28 925.69 679.67 925.16 682.09 C 925.34 684.83 922.95 686.70 920.64 687.59 C 914.73 689.92 908.37 691.29 902.00 691.15 C 899.13 691.07 896.25 691.27 893.49 692.04 C 896.44 694.48 900.15 695.90 904.00 695.96 C 910.29 696.19 916.56 694.70 922.39 692.42 C 926.30 690.96 929.42 688.12 933.01 686.09 C 934.42 686.46 935.41 688.20 934.55 689.53 C 931.96 694.71 926.12 696.66 921.14 698.77 C 922.03 700.65 924.76 703.51 921.78 704.88 C 918.89 704.97 916.08 704.13 913.25 703.70 C 908.24 702.76 903.11 702.98 898.05 703.02 C 896.92 705.03 895.80 707.04 894.74 709.09 C 899.31 709.82 904.07 709.80 908.46 711.46 C 911.52 712.58 914.48 713.97 917.46 715.31 C 916.91 716.55 916.42 717.83 915.77 719.03 C 907.91 717.54 900.26 714.92 892.26 714.10 C 890.54 716.59 888.82 719.07 887.06 721.53 C 893.75 721.59 901.39 721.52 906.53 726.54 C 908.13 727.70 907.35 729.71 907.22 731.33 C 899.66 729.14 891.99 726.43 884.00 727.16 C 881.48 727.18 879.68 729.16 877.80 730.55 C 882.12 731.00 886.96 730.50 890.64 733.28 C 893.54 735.44 896.34 738.81 895.91 742.67 C 894.92 744.47 892.26 744.39 891.03 742.92 C 888.68 740.98 886.83 738.11 883.69 737.43 C 880.70 736.79 877.65 736.50 874.61 736.34 C 871.12 736.01 869.34 739.77 866.99 741.72 C 873.77 742.26 880.98 744.12 885.73 749.32 C 885.69 750.73 885.42 752.12 885.24 753.53 C 879.32 752.39 874.41 748.49 868.46 747.46 C 865.38 746.92 862.06 745.71 859.01 747.00 C 847.89 751.31 836.71 755.78 824.91 757.89 C 818.29 759.04 811.79 761.23 805.00 761.09 C 795.93 761.49 786.98 759.70 778.15 757.89 C 769.62 756.18 762.33 751.22 754.84 747.09 C 744.10 740.09 735.47 730.28 727.96 720.00 C 723.45 713.11 718.92 705.60 718.64 697.14 C 718.23 693.84 719.56 690.71 720.67 687.69 C 722.51 682.83 724.65 678.01 727.96 673.96 C 734.01 666.22 742.61 661.20 750.23 655.21 C 757.49 649.45 766.06 645.62 774.85 642.85 C 783.31 640.18 792.07 638.05 800.99 637.96 C 806.69 637.89 812.36 636.99 818.08 637.27 C 834.35 637.95 850.95 639.60 866.03 646.21 C 867.12 640.71 867.71 635.13 869.13 629.70 M 785.62 649.68 C 775.34 652.37 764.99 655.93 756.47 662.49 C 752.16 665.84 747.67 668.96 743.35 672.30 C 736.98 677.00 732.72 683.79 727.85 689.89 C 728.11 690.49 728.61 691.69 728.87 692.29 C 737.07 686.40 743.05 677.86 751.91 672.85 C 759.05 668.54 765.92 663.49 773.98 661.00 C 785.30 657.47 796.98 654.18 808.97 654.81 C 822.96 654.77 836.55 658.41 850.25 660.76 C 855.20 661.79 859.24 658.08 862.15 654.57 C 856.54 652.30 850.79 650.25 844.79 649.36 C 836.89 648.26 829.00 646.75 820.99 646.96 C 809.18 647.12 797.14 646.55 785.62 649.68 M 863.91 664.17 C 868.25 665.85 872.25 668.50 876.78 669.65 C 879.15 668.93 881.16 667.37 882.98 665.73 C 882.82 665.45 882.51 664.89 882.35 664.62 C 878.52 662.00 874.27 659.95 869.98 658.24 C 867.49 659.65 865.86 662.14 863.91 664.17 M 787.57 667.54 C 783.91 668.48 781.70 671.81 779.66 674.72 C 776.34 679.44 774.94 685.26 774.84 690.98 C 774.56 698.51 778.53 705.33 782.50 711.44 C 786.35 716.81 790.10 722.63 795.91 726.09 C 800.38 728.76 805.63 730.67 810.91 729.82 C 817.14 728.84 823.56 727.45 828.82 723.80 C 834.23 720.04 839.89 716.00 842.84 709.91 C 845.70 704.11 849.10 697.85 847.77 691.16 C 846.86 683.28 840.67 677.10 840.59 669.04 C 823.29 665.25 804.89 662.39 787.57 667.54 M 883.82 673.88 C 887.00 675.54 891.32 677.32 894.00 673.78 C 893.77 671.52 891.53 670.36 890.14 668.84 C 888.02 670.50 885.90 672.17 883.82 673.88 M 851.90 671.22 C 855.38 678.02 858.69 685.20 859.04 692.96 C 859.59 701.47 855.46 709.31 851.62 716.62 C 848.70 722.16 843.78 726.13 839.06 730.07 C 846.90 728.28 853.30 723.22 859.82 718.81 C 863.95 716.03 867.45 712.42 870.46 708.47 C 874.95 702.62 879.84 697.08 884.25 691.16 C 883.45 690.11 882.68 689.08 881.90 688.06 C 875.00 678.29 863.13 673.78 851.90 671.22 M 755.44 682.49 C 749.23 686.40 744.11 691.73 738.88 696.81 C 744.68 705.33 749.85 714.48 757.42 721.62 C 766.62 729.41 778.14 734.98 790.38 735.13 C 780.15 726.83 772.18 715.67 767.59 703.33 C 763.84 693.70 766.09 683.07 769.76 673.78 C 764.89 676.53 760.16 679.51 755.44 682.49 M 896.18 680.28 C 895.66 681.90 896.21 682.45 897.85 681.93 C 898.35 680.29 897.79 679.74 896.18 680.28 M 890.35 697.01 C 883.83 705.54 878.14 714.84 870.43 722.36 C 861.73 729.41 852.62 736.67 841.59 739.57 C 828.96 744.31 815.34 745.00 802.00 745.19 C 794.33 745.06 786.40 745.80 779.07 743.06 C 771.96 741.12 765.11 738.23 759.09 733.95 C 753.68 730.41 750.14 724.87 745.52 720.47 C 742.86 717.83 739.60 715.65 737.87 712.23 C 735.68 707.91 733.18 703.77 730.47 699.77 C 729.45 701.08 727.67 702.46 728.85 704.27 C 733.07 713.68 738.88 722.47 746.26 729.71 C 750.52 734.14 754.91 738.61 760.38 741.55 C 766.37 744.66 771.87 748.91 778.51 750.62 C 791.11 753.95 804.57 755.66 817.39 752.46 C 825.30 750.97 833.30 749.68 840.91 746.96 C 847.61 744.54 854.74 742.83 860.66 738.69 C 865.23 735.67 868.69 731.36 872.75 727.75 C 877.80 723.16 883.34 718.83 886.76 712.79 C 889.38 708.16 892.60 703.89 895.22 699.25 C 893.59 698.49 891.97 697.75 890.35 697.01 Z" />
<path fill="#010101" opacity="1.00" d=" M 446.43 668.54 C 452.79 667.00 460.11 667.43 465.60 671.30 C 470.20 674.89 472.63 680.58 473.81 686.15 C 475.41 693.74 470.82 701.67 464.05 705.05 C 458.64 707.45 452.42 708.61 446.57 707.43 C 439.70 706.03 435.14 700.10 431.46 694.60 C 428.43 689.92 426.35 683.15 430.35 678.40 C 434.55 673.60 440.53 670.69 446.43 668.54 M 443.36 678.38 C 440.27 679.88 435.54 682.73 437.09 686.78 C 438.44 690.41 441.06 693.46 443.87 696.08 C 447.47 699.39 452.92 698.44 457.20 697.19 C 461.24 696.12 464.72 691.88 463.47 687.59 C 462.56 683.84 460.71 679.36 456.46 678.59 C 452.17 677.78 447.65 677.51 443.36 678.38 Z" />
<path fill="#010101" opacity="1.00" d=" M 815.55 668.70 C 818.67 667.56 821.93 669.09 824.90 670.05 C 830.43 671.96 835.33 676.13 837.21 681.80 C 839.62 689.42 837.69 698.33 832.02 704.06 C 821.54 714.65 801.53 713.26 792.86 701.04 C 789.24 696.08 788.00 689.48 789.54 683.55 C 790.41 680.19 793.22 677.82 796.07 676.12 C 802.11 672.55 809.17 671.47 815.55 668.70 M 797.83 685.10 C 798.00 688.69 797.94 692.68 800.41 695.60 C 804.73 701.15 812.82 702.18 819.21 700.19 C 825.31 698.39 829.54 691.03 826.97 684.99 C 825.38 681.44 821.33 680.17 817.93 679.03 C 810.66 676.23 803.75 681.49 797.83 685.10 Z" />
<path fill="#010101" opacity="1.00" d=" M 695.28 848.11 C 697.86 847.80 699.37 850.43 700.85 852.11 C 705.14 858.25 710.63 863.79 713.03 871.04 C 719.80 888.75 708.91 911.88 689.91 915.97 C 682.87 917.89 676.07 920.70 668.92 922.21 C 666.56 922.86 662.57 922.06 662.94 918.92 C 662.54 915.67 666.20 914.54 668.57 913.53 C 675.69 911.17 682.95 909.26 690.14 907.11 C 698.34 904.92 704.36 897.57 706.55 889.58 C 709.11 881.32 706.92 872.05 701.77 865.24 C 698.84 860.84 695.04 856.86 693.21 851.83 C 692.37 850.11 694.11 849.00 695.28 848.11 Z" />
<path fill="#010101" opacity="1.00" d=" M 572.72 856.66 C 575.11 855.44 577.45 857.02 579.54 858.09 C 575.40 862.81 569.46 865.55 565.56 870.53 C 560.51 876.44 557.35 884.69 559.59 892.43 C 561.38 897.57 566.25 900.59 570.62 903.34 C 576.72 907.02 582.27 911.98 589.36 913.69 C 593.70 915.00 598.28 914.61 602.70 915.39 C 606.02 917.27 604.19 922.33 600.81 922.88 C 591.94 924.44 582.84 921.35 575.41 916.59 C 570.64 913.35 565.78 910.23 561.01 906.99 C 555.68 903.33 551.72 897.52 551.02 891.02 C 549.31 876.43 559.26 861.85 572.72 856.66 Z" />
<path fill="#010101" opacity="1.00" d=" M 657.85 893.91 C 662.48 888.11 668.10 881.63 676.09 881.23 C 681.80 882.12 688.51 884.17 691.09 889.90 C 693.01 893.48 691.11 897.79 688.24 900.25 C 683.78 904.15 678.63 907.71 672.63 908.56 C 667.31 909.36 661.50 910.03 656.66 907.14 C 650.38 909.39 645.06 913.72 638.67 915.64 C 631.81 917.04 624.50 916.66 617.94 914.12 C 615.05 912.85 611.93 913.81 608.96 914.12 C 602.61 914.97 596.27 913.45 590.16 911.86 C 584.46 910.37 578.82 907.63 575.08 902.96 C 572.92 900.35 571.96 896.55 573.30 893.36 C 574.77 890.53 577.47 888.35 580.58 887.60 C 589.31 885.42 599.04 888.26 605.37 894.63 C 610.13 899.22 614.59 904.44 620.73 907.22 C 627.34 910.17 635.25 908.97 641.29 905.21 C 646.92 901.62 653.78 899.53 657.85 893.91 M 672.53 891.53 C 668.73 893.85 666.11 897.60 663.66 901.22 C 668.55 901.54 673.89 901.96 678.26 899.27 C 680.70 897.76 683.38 896.27 684.97 893.81 C 685.33 892.07 683.76 890.62 683.13 889.11 C 679.60 889.91 675.85 889.99 672.53 891.53 M 581.30 894.29 C 577.98 896.00 580.75 899.69 582.97 901.02 C 590.06 905.69 598.91 906.83 607.23 907.04 C 604.50 904.02 601.78 900.96 598.61 898.38 C 593.82 894.53 587.30 893.06 581.30 894.29 Z" />
<path fill="#010101" opacity="1.00" d=" M 501.85 974.99 C 502.83 972.36 506.23 972.44 508.28 973.68 C 514.55 977.22 520.85 980.87 527.65 983.28 C 538.86 986.26 550.75 986.39 562.10 984.16 C 567.67 983.21 571.57 978.68 576.73 976.76 C 583.93 974.11 591.84 973.17 599.41 974.65 C 605.61 975.81 612.19 976.71 617.42 980.53 C 621.30 983.15 625.51 986.88 630.58 985.56 C 641.57 983.05 651.27 975.02 663.03 976.06 C 670.99 977.23 678.25 980.98 685.99 983.03 C 697.95 986.29 710.23 990.25 722.79 988.68 C 734.68 986.85 746.90 985.78 758.10 981.05 C 760.68 980.00 763.10 978.44 765.89 977.99 C 767.26 978.23 769.19 979.01 768.85 980.76 C 763.18 986.04 756.78 990.88 749.30 993.28 C 743.45 995.24 737.28 995.81 731.26 997.03 C 728.83 1006.12 724.06 1014.71 717.04 1021.05 C 708.93 1028.65 701.73 1037.73 691.46 1042.55 C 685.87 1045.35 680.50 1048.75 674.44 1050.48 C 652.48 1056.22 629.07 1058.56 606.79 1053.21 C 600.85 1051.99 595.08 1050.05 589.61 1047.42 C 582.10 1043.81 574.15 1040.75 567.74 1035.26 C 561.68 1030.01 555.43 1024.80 550.76 1018.21 C 546.88 1013.07 542.91 1007.74 541.54 1001.30 C 534.18 998.92 527.30 995.28 519.82 993.24 C 512.93 991.36 507.21 986.62 502.88 981.08 C 501.62 979.36 500.51 976.98 501.85 974.99 M 582.74 983.77 C 576.60 985.23 572.39 990.60 566.33 992.23 C 563.75 992.92 561.09 993.24 558.48 993.79 C 564.26 994.93 570.15 994.20 575.98 994.07 C 592.07 993.78 608.16 994.15 624.24 994.19 C 618.47 991.74 613.81 987.28 607.97 985.04 C 599.81 982.85 591.01 980.95 582.74 983.77 M 652.83 985.77 C 646.06 988.41 639.44 991.43 632.61 993.92 C 636.15 993.96 639.70 993.85 643.22 993.49 C 657.20 992.15 671.23 991.35 685.26 990.69 C 678.75 988.35 672.12 986.35 665.44 984.60 C 661.24 983.43 656.84 984.31 652.83 985.77 M 687.94 999.12 C 678.66 1000.05 669.32 1000.01 660.04 1000.93 C 648.37 1001.81 636.71 1003.24 625.00 1003.07 C 600.15 1002.91 575.30 1003.01 550.46 1003.10 C 556.57 1014.33 566.00 1023.29 576.18 1030.84 C 582.84 1035.23 590.32 1038.17 597.57 1041.43 C 616.90 1048.41 638.17 1048.39 658.11 1044.15 C 664.95 1042.65 672.09 1041.74 678.33 1038.34 C 684.09 1035.17 690.36 1032.71 695.34 1028.31 C 699.41 1024.72 703.29 1020.93 707.13 1017.10 C 712.94 1011.85 717.99 1005.62 720.42 998.07 C 709.60 998.62 698.77 999.07 687.94 999.12 Z" />
<path fill="#010101" opacity="1.00" d=" M 334.09 1175.29 C 337.43 1175.41 332.54 1178.24 334.09 1175.29 Z" />
<path fill="#010101" opacity="1.00" d=" M 228.24 1187.08 C 231.22 1185.54 228.36 1190.41 228.24 1187.08 Z" />
</g>
</svg>
