<svg xmlns="http://www.w3.org/2000/svg" viewBox="0 0 800 800" width="800" height="800">
    <rect width="100%" height="100%" fill="white"/>
    <g fill="none" stroke="black" stroke-width="4" stroke-linecap="round" stroke-linejoin="round"><rect x="137.50000000000003" y="137.50000000000003" width="58.333333333333336" height="58.333333333333336"/><rect x="108.33333333333334" y="108.33333333333334" width="116.66666666666667" height="116.66666666666667"/><rect x="79.16666666666669" y="79.16666666666669" width="175" height="175"/><rect x="380.5555555555556" y="147.22222222222223" width="38.88888888888889" height="38.88888888888889"/><rect x="361.11111111111114" y="127.7777777777778" width="77.77777777777779" height="77.77777777777779"/><rect x="341.66666666666674" y="108.33333333333334" width="116.66666666666667" height="116.66666666666667"/><rect x="322.2222222222223" y="88.8888888888889" width="155.55555555555557" height="155.55555555555557"/><rect x="302.7777777777778" y="69.44444444444446" width="194.44444444444446" height="194.44444444444446"/><rect x="594.4444444444445" y="127.7777777777778" width="77.77777777777779" height="77.77777777777779"/><rect x="555.5555555555555" y="88.8888888888889" width="155.55555555555557" height="155.55555555555557"/><rect x="127.7777777777778" y="361.11111111111114" width="77.77777777777779" height="77.77777777777779"/><rect x="88.8888888888889" y="322.2222222222223" width="155.55555555555557" height="155.55555555555557"/><rect x="361.11111111111114" y="361.11111111111114" width="77.77777777777779" height="77.77777777777779"/><rect x="322.2222222222223" y="322.2222222222223" width="155.55555555555557" height="155.55555555555557"/><rect x="594.4444444444445" y="361.11111111111114" width="77.77777777777779" height="77.77777777777779"/><rect x="555.5555555555555" y="322.2222222222223" width="155.55555555555557" height="155.55555555555557"/><rect x="127.7777777777778" y="594.4444444444445" width="77.77777777777779" height="77.77777777777779"/><rect x="88.8888888888889" y="555.5555555555555" width="155.55555555555557" height="155.55555555555557"/><rect x="361.11111111111114" y="594.4444444444445" width="77.77777777777779" height="77.77777777777779"/><rect x="322.2222222222223" y="555.5555555555555" width="155.55555555555557" height="155.55555555555557"/><rect x="594.4444444444445" y="594.4444444444445" width="77.77777777777779" height="77.77777777777779"/><rect x="555.5555555555555" y="555.5555555555555" width="155.55555555555557" height="155.55555555555557"/></g></svg>