<svg xmlns="http://www.w3.org/2000/svg" viewBox="0 0 800 800" width="800" height="800">
    <rect width="100%" height="100%" fill="white"/>
    <g fill="none" stroke="black" stroke-width="4" stroke-linecap="round" stroke-linejoin="round"><path d="M 100 66.66666666666666 L 112.5 87.5 L 133.33333333333334 100 L 112.5 112.5 L 100 133.33333333333334 L 87.5 112.5 L 66.66666666666666 100 L 87.5 87.5 Z"/><rect x="50" y="50" width="100" height="100"/><path d="M 200 66.66666666666666 L 212.5 87.5 L 233.33333333333334 100 L 212.5 112.5 L 200 133.33333333333334 L 187.5 112.5 L 166.66666666666666 100 L 187.5 87.5 Z"/><rect x="150" y="50" width="100" height="100"/><path d="M 300 66.66666666666666 L 312.5 87.5 L 333.3333333333333 100 L 312.5 112.5 L 300 133.33333333333334 L 287.5 112.5 L 266.6666666666667 100 L 287.5 87.5 Z"/><rect x="250" y="50" width="100" height="100"/><path d="M 400 66.66666666666666 L 412.5 87.5 L 433.3333333333333 100 L 412.5 112.5 L 400 133.33333333333334 L 387.5 112.5 L 366.6666666666667 100 L 387.5 87.5 Z"/><rect x="350" y="50" width="100" height="100"/><path d="M 500 66.66666666666666 L 512.5 87.5 L 533.3333333333334 100 L 512.5 112.5 L 500 133.33333333333334 L 487.5 112.5 L 466.6666666666667 100 L 487.5 87.5 Z"/><rect x="450" y="50" width="100" height="100"/><path d="M 600 66.66666666666666 L 612.5 87.5 L 633.3333333333334 100 L 612.5 112.5 L 600 133.33333333333334 L 587.5 112.5 L 566.6666666666666 100 L 587.5 87.5 Z"/><rect x="550" y="50" width="100" height="100"/><path d="M 700 66.66666666666666 L 712.5 87.5 L 733.3333333333334 100 L 712.5 112.5 L 700 133.33333333333334 L 687.5 112.5 L 666.6666666666666 100 L 687.5 87.5 Z"/><rect x="650" y="50" width="100" height="100"/><path d="M 100 166.66666666666666 L 112.5 187.5 L 133.33333333333334 200 L 112.5 212.5 L 100 233.33333333333334 L 87.5 212.5 L 66.66666666666666 200 L 87.5 187.5 Z"/><rect x="50" y="150" width="100" height="100"/><path d="M 200 166.66666666666666 L 212.5 187.5 L 233.33333333333334 200 L 212.5 212.5 L 200 233.33333333333334 L 187.5 212.5 L 166.66666666666666 200 L 187.5 187.5 Z"/><rect x="150" y="150" width="100" height="100"/><path d="M 300 166.66666666666666 L 312.5 187.5 L 333.3333333333333 200 L 312.5 212.5 L 300 233.33333333333334 L 287.5 212.5 L 266.6666666666667 200 L 287.5 187.5 Z"/><rect x="250" y="150" width="100" height="100"/><path d="M 400 166.66666666666666 L 412.5 187.5 L 433.3333333333333 200 L 412.5 212.5 L 400 233.33333333333334 L 387.5 212.5 L 366.6666666666667 200 L 387.5 187.5 Z"/><rect x="350" y="150" width="100" height="100"/><path d="M 500 166.66666666666666 L 512.5 187.5 L 533.3333333333334 200 L 512.5 212.5 L 500 233.33333333333334 L 487.5 212.5 L 466.6666666666667 200 L 487.5 187.5 Z"/><rect x="450" y="150" width="100" height="100"/><path d="M 600 166.66666666666666 L 612.5 187.5 L 633.3333333333334 200 L 612.5 212.5 L 600 233.33333333333334 L 587.5 212.5 L 566.6666666666666 200 L 587.5 187.5 Z"/><rect x="550" y="150" width="100" height="100"/><path d="M 700 166.66666666666666 L 712.5 187.5 L 733.3333333333334 200 L 712.5 212.5 L 700 233.33333333333334 L 687.5 212.5 L 666.6666666666666 200 L 687.5 187.5 Z"/><rect x="650" y="150" width="100" height="100"/><path d="M 100 266.6666666666667 L 112.5 287.5 L 133.33333333333334 300 L 112.5 312.5 L 100 333.3333333333333 L 87.5 312.5 L 66.66666666666666 300 L 87.5 287.5 Z"/><rect x="50" y="250" width="100" height="100"/><path d="M 200 266.6666666666667 L 212.5 287.5 L 233.33333333333334 300 L 212.5 312.5 L 200 333.3333333333333 L 187.5 312.5 L 166.66666666666666 300 L 187.5 287.5 Z"/><rect x="150" y="250" width="100" height="100"/><path d="M 300 266.6666666666667 L 312.5 287.5 L 333.3333333333333 300 L 312.5 312.5 L 300 333.3333333333333 L 287.5 312.5 L 266.6666666666667 300 L 287.5 287.5 Z"/><rect x="250" y="250" width="100" height="100"/><path d="M 400 266.6666666666667 L 412.5 287.5 L 433.3333333333333 300 L 412.5 312.5 L 400 333.3333333333333 L 387.5 312.5 L 366.6666666666667 300 L 387.5 287.5 Z"/><rect x="350" y="250" width="100" height="100"/><path d="M 500 266.6666666666667 L 512.5 287.5 L 533.3333333333334 300 L 512.5 312.5 L 500 333.3333333333333 L 487.5 312.5 L 466.6666666666667 300 L 487.5 287.5 Z"/><rect x="450" y="250" width="100" height="100"/><path d="M 600 266.6666666666667 L 612.5 287.5 L 633.3333333333334 300 L 612.5 312.5 L 600 333.3333333333333 L 587.5 312.5 L 566.6666666666666 300 L 587.5 287.5 Z"/><rect x="550" y="250" width="100" height="100"/><path d="M 700 266.6666666666667 L 712.5 287.5 L 733.3333333333334 300 L 712.5 312.5 L 700 333.3333333333333 L 687.5 312.5 L 666.6666666666666 300 L 687.5 287.5 Z"/><rect x="650" y="250" width="100" height="100"/><path d="M 100 366.6666666666667 L 112.5 387.5 L 133.33333333333334 400 L 112.5 412.5 L 100 433.3333333333333 L 87.5 412.5 L 66.66666666666666 400 L 87.5 387.5 Z"/><rect x="50" y="350" width="100" height="100"/><path d="M 200 366.6666666666667 L 212.5 387.5 L 233.33333333333334 400 L 212.5 412.5 L 200 433.3333333333333 L 187.5 412.5 L 166.66666666666666 400 L 187.5 387.5 Z"/><rect x="150" y="350" width="100" height="100"/><path d="M 300 366.6666666666667 L 312.5 387.5 L 333.3333333333333 400 L 312.5 412.5 L 300 433.3333333333333 L 287.5 412.5 L 266.6666666666667 400 L 287.5 387.5 Z"/><rect x="250" y="350" width="100" height="100"/><path d="M 400 366.6666666666667 L 412.5 387.5 L 433.3333333333333 400 L 412.5 412.5 L 400 433.3333333333333 L 387.5 412.5 L 366.6666666666667 400 L 387.5 387.5 Z"/><rect x="350" y="350" width="100" height="100"/><path d="M 500 366.6666666666667 L 512.5 387.5 L 533.3333333333334 400 L 512.5 412.5 L 500 433.3333333333333 L 487.5 412.5 L 466.6666666666667 400 L 487.5 387.5 Z"/><rect x="450" y="350" width="100" height="100"/><path d="M 600 366.6666666666667 L 612.5 387.5 L 633.3333333333334 400 L 612.5 412.5 L 600 433.3333333333333 L 587.5 412.5 L 566.6666666666666 400 L 587.5 387.5 Z"/><rect x="550" y="350" width="100" height="100"/><path d="M 700 366.6666666666667 L 712.5 387.5 L 733.3333333333334 400 L 712.5 412.5 L 700 433.3333333333333 L 687.5 412.5 L 666.6666666666666 400 L 687.5 387.5 Z"/><rect x="650" y="350" width="100" height="100"/><path d="M 100 466.6666666666667 L 112.5 487.5 L 133.33333333333334 500 L 112.5 512.5 L 100 533.3333333333334 L 87.5 512.5 L 66.66666666666666 500 L 87.5 487.5 Z"/><rect x="50" y="450" width="100" height="100"/><path d="M 200 466.6666666666667 L 212.5 487.5 L 233.33333333333334 500 L 212.5 512.5 L 200 533.3333333333334 L 187.5 512.5 L 166.66666666666666 500 L 187.5 487.5 Z"/><rect x="150" y="450" width="100" height="100"/><path d="M 300 466.6666666666667 L 312.5 487.5 L 333.3333333333333 500 L 312.5 512.5 L 300 533.3333333333334 L 287.5 512.5 L 266.6666666666667 500 L 287.5 487.5 Z"/><rect x="250" y="450" width="100" height="100"/><path d="M 400 466.6666666666667 L 412.5 487.5 L 433.3333333333333 500 L 412.5 512.5 L 400 533.3333333333334 L 387.5 512.5 L 366.6666666666667 500 L 387.5 487.5 Z"/><rect x="350" y="450" width="100" height="100"/><path d="M 500 466.6666666666667 L 512.5 487.5 L 533.3333333333334 500 L 512.5 512.5 L 500 533.3333333333334 L 487.5 512.5 L 466.6666666666667 500 L 487.5 487.5 Z"/><rect x="450" y="450" width="100" height="100"/><path d="M 600 466.6666666666667 L 612.5 487.5 L 633.3333333333334 500 L 612.5 512.5 L 600 533.3333333333334 L 587.5 512.5 L 566.6666666666666 500 L 587.5 487.5 Z"/><rect x="550" y="450" width="100" height="100"/><path d="M 700 466.6666666666667 L 712.5 487.5 L 733.3333333333334 500 L 712.5 512.5 L 700 533.3333333333334 L 687.5 512.5 L 666.6666666666666 500 L 687.5 487.5 Z"/><rect x="650" y="450" width="100" height="100"/><path d="M 100 566.6666666666666 L 112.5 587.5 L 133.33333333333334 600 L 112.5 612.5 L 100 633.3333333333334 L 87.5 612.5 L 66.66666666666666 600 L 87.5 587.5 Z"/><rect x="50" y="550" width="100" height="100"/><path d="M 200 566.6666666666666 L 212.5 587.5 L 233.33333333333334 600 L 212.5 612.5 L 200 633.3333333333334 L 187.5 612.5 L 166.66666666666666 600 L 187.5 587.5 Z"/><rect x="150" y="550" width="100" height="100"/><path d="M 300 566.6666666666666 L 312.5 587.5 L 333.3333333333333 600 L 312.5 612.5 L 300 633.3333333333334 L 287.5 612.5 L 266.6666666666667 600 L 287.5 587.5 Z"/><rect x="250" y="550" width="100" height="100"/><path d="M 400 566.6666666666666 L 412.5 587.5 L 433.3333333333333 600 L 412.5 612.5 L 400 633.3333333333334 L 387.5 612.5 L 366.6666666666667 600 L 387.5 587.5 Z"/><rect x="350" y="550" width="100" height="100"/><path d="M 500 566.6666666666666 L 512.5 587.5 L 533.3333333333334 600 L 512.5 612.5 L 500 633.3333333333334 L 487.5 612.5 L 466.6666666666667 600 L 487.5 587.5 Z"/><rect x="450" y="550" width="100" height="100"/><path d="M 600 566.6666666666666 L 612.5 587.5 L 633.3333333333334 600 L 612.5 612.5 L 600 633.3333333333334 L 587.5 612.5 L 566.6666666666666 600 L 587.5 587.5 Z"/><rect x="550" y="550" width="100" height="100"/><path d="M 700 566.6666666666666 L 712.5 587.5 L 733.3333333333334 600 L 712.5 612.5 L 700 633.3333333333334 L 687.5 612.5 L 666.6666666666666 600 L 687.5 587.5 Z"/><rect x="650" y="550" width="100" height="100"/><path d="M 100 666.6666666666666 L 112.5 687.5 L 133.33333333333334 700 L 112.5 712.5 L 100 733.3333333333334 L 87.5 712.5 L 66.66666666666666 700 L 87.5 687.5 Z"/><rect x="50" y="650" width="100" height="100"/><path d="M 200 666.6666666666666 L 212.5 687.5 L 233.33333333333334 700 L 212.5 712.5 L 200 733.3333333333334 L 187.5 712.5 L 166.66666666666666 700 L 187.5 687.5 Z"/><rect x="150" y="650" width="100" height="100"/><path d="M 300 666.6666666666666 L 312.5 687.5 L 333.3333333333333 700 L 312.5 712.5 L 300 733.3333333333334 L 287.5 712.5 L 266.6666666666667 700 L 287.5 687.5 Z"/><rect x="250" y="650" width="100" height="100"/><path d="M 400 666.6666666666666 L 412.5 687.5 L 433.3333333333333 700 L 412.5 712.5 L 400 733.3333333333334 L 387.5 712.5 L 366.6666666666667 700 L 387.5 687.5 Z"/><rect x="350" y="650" width="100" height="100"/><path d="M 500 666.6666666666666 L 512.5 687.5 L 533.3333333333334 700 L 512.5 712.5 L 500 733.3333333333334 L 487.5 712.5 L 466.6666666666667 700 L 487.5 687.5 Z"/><rect x="450" y="650" width="100" height="100"/><path d="M 600 666.6666666666666 L 612.5 687.5 L 633.3333333333334 700 L 612.5 712.5 L 600 733.3333333333334 L 587.5 712.5 L 566.6666666666666 700 L 587.5 687.5 Z"/><rect x="550" y="650" width="100" height="100"/><path d="M 700 666.6666666666666 L 712.5 687.5 L 733.3333333333334 700 L 712.5 712.5 L 700 733.3333333333334 L 687.5 712.5 L 666.6666666666666 700 L 687.5 687.5 Z"/><rect x="650" y="650" width="100" height="100"/></g></svg>