<svg xmlns="http://www.w3.org/2000/svg" viewBox="0 0 800 800" width="800" height="800">
    <rect width="100%" height="100%" fill="white"/>
    <g fill="none" stroke="black" stroke-width="4" stroke-linecap="round" stroke-linejoin="round"><path d="M 137.5 79.16666666666666 L 159.375 115.625 L 195.83333333333334 137.5 L 159.375 159.375 L 137.5 195.83333333333334 L 115.625 159.375 L 79.16666666666666 137.5 L 115.625 115.625 Z"/><rect x="50" y="50" width="175" height="175"/><path d="M 312.5 79.16666666666666 L 334.375 115.625 L 370.8333333333333 137.5 L 334.375 159.375 L 312.5 195.83333333333334 L 290.625 159.375 L 254.16666666666666 137.5 L 290.625 115.625 Z"/><rect x="225" y="50" width="175" height="175"/><path d="M 487.5 79.16666666666666 L 509.375 115.625 L 545.8333333333334 137.5 L 509.375 159.375 L 487.5 195.83333333333334 L 465.625 159.375 L 429.1666666666667 137.5 L 465.625 115.625 Z"/><rect x="400" y="50" width="175" height="175"/><path d="M 662.5 79.16666666666666 L 684.375 115.625 L 720.8333333333334 137.5 L 684.375 159.375 L 662.5 195.83333333333334 L 640.625 159.375 L 604.1666666666666 137.5 L 640.625 115.625 Z"/><rect x="575" y="50" width="175" height="175"/><path d="M 137.5 254.16666666666666 L 159.375 290.625 L 195.83333333333334 312.5 L 159.375 334.375 L 137.5 370.8333333333333 L 115.625 334.375 L 79.16666666666666 312.5 L 115.625 290.625 Z"/><rect x="50" y="225" width="175" height="175"/><path d="M 312.5 254.16666666666666 L 334.375 290.625 L 370.8333333333333 312.5 L 334.375 334.375 L 312.5 370.8333333333333 L 290.625 334.375 L 254.16666666666666 312.5 L 290.625 290.625 Z"/><rect x="225" y="225" width="175" height="175"/><path d="M 487.5 254.16666666666666 L 509.375 290.625 L 545.8333333333334 312.5 L 509.375 334.375 L 487.5 370.8333333333333 L 465.625 334.375 L 429.1666666666667 312.5 L 465.625 290.625 Z"/><rect x="400" y="225" width="175" height="175"/><path d="M 662.5 254.16666666666666 L 684.375 290.625 L 720.8333333333334 312.5 L 684.375 334.375 L 662.5 370.8333333333333 L 640.625 334.375 L 604.1666666666666 312.5 L 640.625 290.625 Z"/><rect x="575" y="225" width="175" height="175"/><path d="M 137.5 429.1666666666667 L 159.375 465.625 L 195.83333333333334 487.5 L 159.375 509.375 L 137.5 545.8333333333334 L 115.625 509.375 L 79.16666666666666 487.5 L 115.625 465.625 Z"/><rect x="50" y="400" width="175" height="175"/><path d="M 312.5 429.1666666666667 L 334.375 465.625 L 370.8333333333333 487.5 L 334.375 509.375 L 312.5 545.8333333333334 L 290.625 509.375 L 254.16666666666666 487.5 L 290.625 465.625 Z"/><rect x="225" y="400" width="175" height="175"/><path d="M 487.5 429.1666666666667 L 509.375 465.625 L 545.8333333333334 487.5 L 509.375 509.375 L 487.5 545.8333333333334 L 465.625 509.375 L 429.1666666666667 487.5 L 465.625 465.625 Z"/><rect x="400" y="400" width="175" height="175"/><path d="M 662.5 429.1666666666667 L 684.375 465.625 L 720.8333333333334 487.5 L 684.375 509.375 L 662.5 545.8333333333334 L 640.625 509.375 L 604.1666666666666 487.5 L 640.625 465.625 Z"/><rect x="575" y="400" width="175" height="175"/><path d="M 137.5 604.1666666666666 L 159.375 640.625 L 195.83333333333334 662.5 L 159.375 684.375 L 137.5 720.8333333333334 L 115.625 684.375 L 79.16666666666666 662.5 L 115.625 640.625 Z"/><rect x="50" y="575" width="175" height="175"/><path d="M 312.5 604.1666666666666 L 334.375 640.625 L 370.8333333333333 662.5 L 334.375 684.375 L 312.5 720.8333333333334 L 290.625 684.375 L 254.16666666666666 662.5 L 290.625 640.625 Z"/><rect x="225" y="575" width="175" height="175"/><path d="M 487.5 604.1666666666666 L 509.375 640.625 L 545.8333333333334 662.5 L 509.375 684.375 L 487.5 720.8333333333334 L 465.625 684.375 L 429.1666666666667 662.5 L 465.625 640.625 Z"/><rect x="400" y="575" width="175" height="175"/><path d="M 662.5 604.1666666666666 L 684.375 640.625 L 720.8333333333334 662.5 L 684.375 684.375 L 662.5 720.8333333333334 L 640.625 684.375 L 604.1666666666666 662.5 L 640.625 640.625 Z"/><rect x="575" y="575" width="175" height="175"/></g></svg>