<svg xmlns="http://www.w3.org/2000/svg" viewBox="0 0 800 800" width="800" height="800">
    <rect width="100%" height="100%" fill="white"/>
    <g fill="none" stroke="black" stroke-width="4" stroke-linecap="round" stroke-linejoin="round"><path d="M 108.33333333333334 69.44444444444446 L 122.91666666666667 93.75000000000001 L 147.22222222222223 108.33333333333334 L 122.91666666666667 122.91666666666667 L 108.33333333333334 147.22222222222223 L 93.75000000000001 122.91666666666667 L 69.44444444444446 108.33333333333334 L 93.75000000000001 93.75000000000001 Z"/><rect x="50.00000000000001" y="50.00000000000001" width="116.66666666666667" height="116.66666666666667"/><path d="M 225.00000000000003 69.44444444444446 L 239.58333333333337 93.75000000000001 L 263.8888888888889 108.33333333333334 L 239.58333333333337 122.91666666666667 L 225.00000000000003 147.22222222222223 L 210.41666666666669 122.91666666666667 L 186.11111111111114 108.33333333333334 L 210.41666666666669 93.75000000000001 Z"/><rect x="166.66666666666669" y="50.00000000000001" width="116.66666666666667" height="116.66666666666667"/><path d="M 341.6666666666667 69.44444444444446 L 356.25 93.75000000000001 L 380.5555555555556 108.33333333333334 L 356.25 122.91666666666667 L 341.6666666666667 147.22222222222223 L 327.08333333333337 122.91666666666667 L 302.77777777777777 108.33333333333334 L 327.08333333333337 93.75000000000001 Z"/><rect x="283.33333333333337" y="50.00000000000001" width="116.66666666666667" height="116.66666666666667"/><path d="M 458.3333333333333 69.44444444444446 L 472.91666666666663 93.75000000000001 L 497.22222222222223 108.33333333333334 L 472.91666666666663 122.91666666666667 L 458.3333333333333 147.22222222222223 L 443.75 122.91666666666667 L 419.4444444444444 108.33333333333334 L 443.75 93.75000000000001 Z"/><rect x="400" y="50.00000000000001" width="116.66666666666667" height="116.66666666666667"/><path d="M 575.0000000000001 69.44444444444446 L 589.5833333333335 93.75000000000001 L 613.888888888889 108.33333333333334 L 589.5833333333335 122.91666666666667 L 575.0000000000001 147.22222222222223 L 560.4166666666667 122.91666666666667 L 536.1111111111112 108.33333333333334 L 560.4166666666667 93.75000000000001 Z"/><rect x="516.6666666666667" y="50.00000000000001" width="116.66666666666667" height="116.66666666666667"/><path d="M 691.6666666666667 69.44444444444446 L 706.2500000000001 93.75000000000001 L 730.5555555555557 108.33333333333334 L 706.2500000000001 122.91666666666667 L 691.6666666666667 147.22222222222223 L 677.0833333333334 122.91666666666667 L 652.7777777777778 108.33333333333334 L 677.0833333333334 93.75000000000001 Z"/><rect x="633.3333333333334" y="50.00000000000001" width="116.66666666666667" height="116.66666666666667"/><path d="M 108.33333333333334 186.11111111111114 L 122.91666666666667 210.41666666666669 L 147.22222222222223 225.00000000000003 L 122.91666666666667 239.58333333333337 L 108.33333333333334 263.8888888888889 L 93.75000000000001 239.58333333333337 L 69.44444444444446 225.00000000000003 L 93.75000000000001 210.41666666666669 Z"/><rect x="50.00000000000001" y="166.66666666666669" width="116.66666666666667" height="116.66666666666667"/><path d="M 225.00000000000003 186.11111111111114 L 239.58333333333337 210.41666666666669 L 263.8888888888889 225.00000000000003 L 239.58333333333337 239.58333333333337 L 225.00000000000003 263.8888888888889 L 210.41666666666669 239.58333333333337 L 186.11111111111114 225.00000000000003 L 210.41666666666669 210.41666666666669 Z"/><rect x="166.66666666666669" y="166.66666666666669" width="116.66666666666667" height="116.66666666666667"/><path d="M 341.6666666666667 186.11111111111114 L 356.25 210.41666666666669 L 380.5555555555556 225.00000000000003 L 356.25 239.58333333333337 L 341.6666666666667 263.8888888888889 L 327.08333333333337 239.58333333333337 L 302.77777777777777 225.00000000000003 L 327.08333333333337 210.41666666666669 Z"/><rect x="283.33333333333337" y="166.66666666666669" width="116.66666666666667" height="116.66666666666667"/><path d="M 458.3333333333333 186.11111111111114 L 472.91666666666663 210.41666666666669 L 497.22222222222223 225.00000000000003 L 472.91666666666663 239.58333333333337 L 458.3333333333333 263.8888888888889 L 443.75 239.58333333333337 L 419.4444444444444 225.00000000000003 L 443.75 210.41666666666669 Z"/><rect x="400" y="166.66666666666669" width="116.66666666666667" height="116.66666666666667"/><path d="M 575.0000000000001 186.11111111111114 L 589.5833333333335 210.41666666666669 L 613.888888888889 225.00000000000003 L 589.5833333333335 239.58333333333337 L 575.0000000000001 263.8888888888889 L 560.4166666666667 239.58333333333337 L 536.1111111111112 225.00000000000003 L 560.4166666666667 210.41666666666669 Z"/><rect x="516.6666666666667" y="166.66666666666669" width="116.66666666666667" height="116.66666666666667"/><path d="M 691.6666666666667 186.11111111111114 L 706.2500000000001 210.41666666666669 L 730.5555555555557 225.00000000000003 L 706.2500000000001 239.58333333333337 L 691.6666666666667 263.8888888888889 L 677.0833333333334 239.58333333333337 L 652.7777777777778 225.00000000000003 L 677.0833333333334 210.41666666666669 Z"/><rect x="633.3333333333334" y="166.66666666666669" width="116.66666666666667" height="116.66666666666667"/><path d="M 108.33333333333334 302.77777777777777 L 122.91666666666667 327.08333333333337 L 147.22222222222223 341.6666666666667 L 122.91666666666667 356.25 L 108.33333333333334 380.5555555555556 L 93.75000000000001 356.25 L 69.44444444444446 341.6666666666667 L 93.75000000000001 327.08333333333337 Z"/><rect x="50.00000000000001" y="283.33333333333337" width="116.66666666666667" height="116.66666666666667"/><path d="M 225.00000000000003 302.77777777777777 L 239.58333333333337 327.08333333333337 L 263.8888888888889 341.6666666666667 L 239.58333333333337 356.25 L 225.00000000000003 380.5555555555556 L 210.41666666666669 356.25 L 186.11111111111114 341.6666666666667 L 210.41666666666669 327.08333333333337 Z"/><rect x="166.66666666666669" y="283.33333333333337" width="116.66666666666667" height="116.66666666666667"/><path d="M 341.6666666666667 302.77777777777777 L 356.25 327.08333333333337 L 380.5555555555556 341.6666666666667 L 356.25 356.25 L 341.6666666666667 380.5555555555556 L 327.08333333333337 356.25 L 302.77777777777777 341.6666666666667 L 327.08333333333337 327.08333333333337 Z"/><rect x="283.33333333333337" y="283.33333333333337" width="116.66666666666667" height="116.66666666666667"/><path d="M 458.3333333333333 302.77777777777777 L 472.91666666666663 327.08333333333337 L 497.22222222222223 341.6666666666667 L 472.91666666666663 356.25 L 458.3333333333333 380.5555555555556 L 443.75 356.25 L 419.4444444444444 341.6666666666667 L 443.75 327.08333333333337 Z"/><rect x="400" y="283.33333333333337" width="116.66666666666667" height="116.66666666666667"/><path d="M 575.0000000000001 302.77777777777777 L 589.5833333333335 327.08333333333337 L 613.888888888889 341.6666666666667 L 589.5833333333335 356.25 L 575.0000000000001 380.5555555555556 L 560.4166666666667 356.25 L 536.1111111111112 341.6666666666667 L 560.4166666666667 327.08333333333337 Z"/><rect x="516.6666666666667" y="283.33333333333337" width="116.66666666666667" height="116.66666666666667"/><path d="M 691.6666666666667 302.77777777777777 L 706.2500000000001 327.08333333333337 L 730.5555555555557 341.6666666666667 L 706.2500000000001 356.25 L 691.6666666666667 380.5555555555556 L 677.0833333333334 356.25 L 652.7777777777778 341.6666666666667 L 677.0833333333334 327.08333333333337 Z"/><rect x="633.3333333333334" y="283.33333333333337" width="116.66666666666667" height="116.66666666666667"/><path d="M 108.33333333333334 419.4444444444444 L 122.91666666666667 443.75 L 147.22222222222223 458.3333333333333 L 122.91666666666667 472.91666666666663 L 108.33333333333334 497.22222222222223 L 93.75000000000001 472.91666666666663 L 69.44444444444446 458.3333333333333 L 93.75000000000001 443.75 Z"/><rect x="50.00000000000001" y="400" width="116.66666666666667" height="116.66666666666667"/><path d="M 225.00000000000003 419.4444444444444 L 239.58333333333337 443.75 L 263.8888888888889 458.3333333333333 L 239.58333333333337 472.91666666666663 L 225.00000000000003 497.22222222222223 L 210.41666666666669 472.91666666666663 L 186.11111111111114 458.3333333333333 L 210.41666666666669 443.75 Z"/><rect x="166.66666666666669" y="400" width="116.66666666666667" height="116.66666666666667"/><path d="M 341.6666666666667 419.4444444444444 L 356.25 443.75 L 380.5555555555556 458.3333333333333 L 356.25 472.91666666666663 L 341.6666666666667 497.22222222222223 L 327.08333333333337 472.91666666666663 L 302.77777777777777 458.3333333333333 L 327.08333333333337 443.75 Z"/><rect x="283.33333333333337" y="400" width="116.66666666666667" height="116.66666666666667"/><path d="M 458.3333333333333 419.4444444444444 L 472.91666666666663 443.75 L 497.22222222222223 458.3333333333333 L 472.91666666666663 472.91666666666663 L 458.3333333333333 497.22222222222223 L 443.75 472.91666666666663 L 419.4444444444444 458.3333333333333 L 443.75 443.75 Z"/><rect x="400" y="400" width="116.66666666666667" height="116.66666666666667"/><path d="M 575.0000000000001 419.4444444444444 L 589.5833333333335 443.75 L 613.888888888889 458.3333333333333 L 589.5833333333335 472.91666666666663 L 575.0000000000001 497.22222222222223 L 560.4166666666667 472.91666666666663 L 536.1111111111112 458.3333333333333 L 560.4166666666667 443.75 Z"/><rect x="516.6666666666667" y="400" width="116.66666666666667" height="116.66666666666667"/><path d="M 691.6666666666667 419.4444444444444 L 706.2500000000001 443.75 L 730.5555555555557 458.3333333333333 L 706.2500000000001 472.91666666666663 L 691.6666666666667 497.22222222222223 L 677.0833333333334 472.91666666666663 L 652.7777777777778 458.3333333333333 L 677.0833333333334 443.75 Z"/><rect x="633.3333333333334" y="400" width="116.66666666666667" height="116.66666666666667"/><path d="M 108.33333333333334 536.1111111111112 L 122.91666666666667 560.4166666666667 L 147.22222222222223 575.0000000000001 L 122.91666666666667 589.5833333333335 L 108.33333333333334 613.888888888889 L 93.75000000000001 589.5833333333335 L 69.44444444444446 575.0000000000001 L 93.75000000000001 560.4166666666667 Z"/><rect x="50.00000000000001" y="516.6666666666667" width="116.66666666666667" height="116.66666666666667"/><path d="M 225.00000000000003 536.1111111111112 L 239.58333333333337 560.4166666666667 L 263.8888888888889 575.0000000000001 L 239.58333333333337 589.5833333333335 L 225.00000000000003 613.888888888889 L 210.41666666666669 589.5833333333335 L 186.11111111111114 575.0000000000001 L 210.41666666666669 560.4166666666667 Z"/><rect x="166.66666666666669" y="516.6666666666667" width="116.66666666666667" height="116.66666666666667"/><path d="M 341.6666666666667 536.1111111111112 L 356.25 560.4166666666667 L 380.5555555555556 575.0000000000001 L 356.25 589.5833333333335 L 341.6666666666667 613.888888888889 L 327.08333333333337 589.5833333333335 L 302.77777777777777 575.0000000000001 L 327.08333333333337 560.4166666666667 Z"/><rect x="283.33333333333337" y="516.6666666666667" width="116.66666666666667" height="116.66666666666667"/><path d="M 458.3333333333333 536.1111111111112 L 472.91666666666663 560.4166666666667 L 497.22222222222223 575.0000000000001 L 472.91666666666663 589.5833333333335 L 458.3333333333333 613.888888888889 L 443.75 589.5833333333335 L 419.4444444444444 575.0000000000001 L 443.75 560.4166666666667 Z"/><rect x="400" y="516.6666666666667" width="116.66666666666667" height="116.66666666666667"/><path d="M 575.0000000000001 536.1111111111112 L 589.5833333333335 560.4166666666667 L 613.888888888889 575.0000000000001 L 589.5833333333335 589.5833333333335 L 575.0000000000001 613.888888888889 L 560.4166666666667 589.5833333333335 L 536.1111111111112 575.0000000000001 L 560.4166666666667 560.4166666666667 Z"/><rect x="516.6666666666667" y="516.6666666666667" width="116.66666666666667" height="116.66666666666667"/><path d="M 691.6666666666667 536.1111111111112 L 706.2500000000001 560.4166666666667 L 730.5555555555557 575.0000000000001 L 706.2500000000001 589.5833333333335 L 691.6666666666667 613.888888888889 L 677.0833333333334 589.5833333333335 L 652.7777777777778 575.0000000000001 L 677.0833333333334 560.4166666666667 Z"/><rect x="633.3333333333334" y="516.6666666666667" width="116.66666666666667" height="116.66666666666667"/><path d="M 108.33333333333334 652.7777777777778 L 122.91666666666667 677.0833333333334 L 147.22222222222223 691.6666666666667 L 122.91666666666667 706.2500000000001 L 108.33333333333334 730.5555555555557 L 93.75000000000001 706.2500000000001 L 69.44444444444446 691.6666666666667 L 93.75000000000001 677.0833333333334 Z"/><rect x="50.00000000000001" y="633.3333333333334" width="116.66666666666667" height="116.66666666666667"/><path d="M 225.00000000000003 652.7777777777778 L 239.58333333333337 677.0833333333334 L 263.8888888888889 691.6666666666667 L 239.58333333333337 706.2500000000001 L 225.00000000000003 730.5555555555557 L 210.41666666666669 706.2500000000001 L 186.11111111111114 691.6666666666667 L 210.41666666666669 677.0833333333334 Z"/><rect x="166.66666666666669" y="633.3333333333334" width="116.66666666666667" height="116.66666666666667"/><path d="M 341.6666666666667 652.7777777777778 L 356.25 677.0833333333334 L 380.5555555555556 691.6666666666667 L 356.25 706.2500000000001 L 341.6666666666667 730.5555555555557 L 327.08333333333337 706.2500000000001 L 302.77777777777777 691.6666666666667 L 327.08333333333337 677.0833333333334 Z"/><rect x="283.33333333333337" y="633.3333333333334" width="116.66666666666667" height="116.66666666666667"/><path d="M 458.3333333333333 652.7777777777778 L 472.91666666666663 677.0833333333334 L 497.22222222222223 691.6666666666667 L 472.91666666666663 706.2500000000001 L 458.3333333333333 730.5555555555557 L 443.75 706.2500000000001 L 419.4444444444444 691.6666666666667 L 443.75 677.0833333333334 Z"/><rect x="400" y="633.3333333333334" width="116.66666666666667" height="116.66666666666667"/><path d="M 575.0000000000001 652.7777777777778 L 589.5833333333335 677.0833333333334 L 613.888888888889 691.6666666666667 L 589.5833333333335 706.2500000000001 L 575.0000000000001 730.5555555555557 L 560.4166666666667 706.2500000000001 L 536.1111111111112 691.6666666666667 L 560.4166666666667 677.0833333333334 Z"/><rect x="516.6666666666667" y="633.3333333333334" width="116.66666666666667" height="116.66666666666667"/><path d="M 691.6666666666667 652.7777777777778 L 706.2500000000001 677.0833333333334 L 730.5555555555557 691.6666666666667 L 706.2500000000001 706.2500000000001 L 691.6666666666667 730.5555555555557 L 677.0833333333334 706.2500000000001 L 652.7777777777778 691.6666666666667 L 677.0833333333334 677.0833333333334 Z"/><rect x="633.3333333333334" y="633.3333333333334" width="116.66666666666667" height="116.66666666666667"/></g></svg>