<svg xmlns="http://www.w3.org/2000/svg" viewBox="0 0 800 800" width="800" height="800">
    <rect width="100%" height="100%" fill="white"/>
    <g fill="none" stroke="black" stroke-width="4" stroke-linecap="round" stroke-linejoin="round"><rect x="93.75000000000001" y="93.75000000000001" width="29.166666666666668" height="29.166666666666668"/><rect x="79.16666666666667" y="79.16666666666667" width="58.333333333333336" height="58.333333333333336"/><rect x="64.58333333333334" y="64.58333333333334" width="87.5" height="87.5"/><rect x="205.55555555555557" y="88.8888888888889" width="38.88888888888889" height="38.88888888888889"/><rect x="186.11111111111114" y="69.44444444444446" width="77.77777777777779" height="77.77777777777779"/><rect x="331.94444444444446" y="98.61111111111111" width="19.444444444444446" height="19.444444444444446"/><rect x="322.22222222222223" y="88.8888888888889" width="38.88888888888889" height="38.88888888888889"/><rect x="312.5" y="79.16666666666667" width="58.333333333333336" height="58.333333333333336"/><rect x="302.77777777777777" y="69.44444444444446" width="77.77777777777779" height="77.77777777777779"/><rect x="293.05555555555554" y="59.72222222222223" width="97.22222222222223" height="97.22222222222223"/><rect x="438.88888888888886" y="88.8888888888889" width="38.88888888888889" height="38.88888888888889"/><rect x="419.4444444444444" y="69.44444444444446" width="77.77777777777779" height="77.77777777777779"/><rect x="560.4166666666667" y="93.75000000000001" width="29.166666666666668" height="29.166666666666668"/><rect x="545.8333333333335" y="79.16666666666667" width="58.333333333333336" height="58.333333333333336"/><rect x="531.2500000000001" y="64.58333333333334" width="87.5" height="87.5"/><rect x="677.0833333333334" y="93.75000000000001" width="29.166666666666668" height="29.166666666666668"/><rect x="662.5000000000001" y="79.16666666666667" width="58.333333333333336" height="58.333333333333336"/><rect x="647.9166666666667" y="64.58333333333334" width="87.5" height="87.5"/><rect x="98.61111111111111" y="215.2777777777778" width="19.444444444444446" height="19.444444444444446"/><rect x="88.8888888888889" y="205.55555555555557" width="38.88888888888889" height="38.88888888888889"/><rect x="79.16666666666667" y="195.83333333333337" width="58.333333333333336" height="58.333333333333336"/><rect x="69.44444444444446" y="186.11111111111114" width="77.77777777777779" height="77.77777777777779"/><rect x="59.72222222222223" y="176.3888888888889" width="97.22222222222223" height="97.22222222222223"/><rect x="205.55555555555557" y="205.55555555555557" width="38.88888888888889" height="38.88888888888889"/><rect x="186.11111111111114" y="186.11111111111114" width="77.77777777777779" height="77.77777777777779"/><rect x="330" y="213.33333333333337" width="23.333333333333336" height="23.333333333333336"/><rect x="318.33333333333337" y="201.66666666666669" width="46.66666666666667" height="46.66666666666667"/><rect x="306.6666666666667" y="190.00000000000003" width="70" height="70"/><rect x="295" y="178.33333333333337" width="93.33333333333334" height="93.33333333333334"/><rect x="446.66666666666663" y="213.33333333333337" width="23.333333333333336" height="23.333333333333336"/><rect x="435" y="201.66666666666669" width="46.66666666666667" height="46.66666666666667"/><rect x="423.3333333333333" y="190.00000000000003" width="70" height="70"/><rect x="411.66666666666663" y="178.33333333333337" width="93.33333333333334" height="93.33333333333334"/><rect x="565.2777777777779" y="215.2777777777778" width="19.444444444444446" height="19.444444444444446"/><rect x="555.5555555555557" y="205.55555555555557" width="38.88888888888889" height="38.88888888888889"/><rect x="545.8333333333335" y="195.83333333333337" width="58.333333333333336" height="58.333333333333336"/><rect x="536.1111111111112" y="186.11111111111114" width="77.77777777777779" height="77.77777777777779"/><rect x="526.388888888889" y="176.3888888888889" width="97.22222222222223" height="97.22222222222223"/><rect x="672.2222222222223" y="205.55555555555557" width="38.88888888888889" height="38.88888888888889"/><rect x="652.7777777777778" y="186.11111111111114" width="77.77777777777779" height="77.77777777777779"/><rect x="96.66666666666667" y="330" width="23.333333333333336" height="23.333333333333336"/><rect x="85" y="318.33333333333337" width="46.66666666666667" height="46.66666666666667"/><rect x="73.33333333333334" y="306.6666666666667" width="70" height="70"/><rect x="61.66666666666667" y="295" width="93.33333333333334" height="93.33333333333334"/><rect x="213.33333333333337" y="330" width="23.333333333333336" height="23.333333333333336"/><rect x="201.66666666666669" y="318.33333333333337" width="46.66666666666667" height="46.66666666666667"/><rect x="190.00000000000003" y="306.6666666666667" width="70" height="70"/><rect x="178.33333333333337" y="295" width="93.33333333333334" height="93.33333333333334"/><rect x="322.22222222222223" y="322.22222222222223" width="38.88888888888889" height="38.88888888888889"/><rect x="302.77777777777777" y="302.77777777777777" width="77.77777777777779" height="77.77777777777779"/><rect x="443.75" y="327.08333333333337" width="29.166666666666668" height="29.166666666666668"/><rect x="429.16666666666663" y="312.5" width="58.333333333333336" height="58.333333333333336"/><rect x="414.5833333333333" y="297.9166666666667" width="87.5" height="87.5"/><rect x="560.4166666666667" y="327.08333333333337" width="29.166666666666668" height="29.166666666666668"/><rect x="545.8333333333335" y="312.5" width="58.333333333333336" height="58.333333333333336"/><rect x="531.2500000000001" y="297.9166666666667" width="87.5" height="87.5"/><rect x="677.0833333333334" y="327.08333333333337" width="29.166666666666668" height="29.166666666666668"/><rect x="662.5000000000001" y="312.5" width="58.333333333333336" height="58.333333333333336"/><rect x="647.9166666666667" y="297.9166666666667" width="87.5" height="87.5"/><rect x="98.61111111111111" y="448.6111111111111" width="19.444444444444446" height="19.444444444444446"/><rect x="88.8888888888889" y="438.88888888888886" width="38.88888888888889" height="38.88888888888889"/><rect x="79.16666666666667" y="429.16666666666663" width="58.333333333333336" height="58.333333333333336"/><rect x="69.44444444444446" y="419.4444444444444" width="77.77777777777779" height="77.77777777777779"/><rect x="59.72222222222223" y="409.7222222222222" width="97.22222222222223" height="97.22222222222223"/><rect x="213.33333333333337" y="446.66666666666663" width="23.333333333333336" height="23.333333333333336"/><rect x="201.66666666666669" y="435" width="46.66666666666667" height="46.66666666666667"/><rect x="190.00000000000003" y="423.3333333333333" width="70" height="70"/><rect x="178.33333333333337" y="411.66666666666663" width="93.33333333333334" height="93.33333333333334"/><rect x="327.08333333333337" y="443.75" width="29.166666666666668" height="29.166666666666668"/><rect x="312.5" y="429.16666666666663" width="58.333333333333336" height="58.333333333333336"/><rect x="297.9166666666667" y="414.5833333333333" width="87.5" height="87.5"/><rect x="448.6111111111111" y="448.6111111111111" width="19.444444444444446" height="19.444444444444446"/><rect x="438.88888888888886" y="438.88888888888886" width="38.88888888888889" height="38.88888888888889"/><rect x="429.16666666666663" y="429.16666666666663" width="58.333333333333336" height="58.333333333333336"/><rect x="419.4444444444444" y="419.4444444444444" width="77.77777777777779" height="77.77777777777779"/><rect x="409.7222222222222" y="409.7222222222222" width="97.22222222222223" height="97.22222222222223"/><rect x="563.3333333333335" y="446.66666666666663" width="23.333333333333336" height="23.333333333333336"/><rect x="551.6666666666667" y="435" width="46.66666666666667" height="46.66666666666667"/><rect x="540.0000000000001" y="423.3333333333333" width="70" height="70"/><rect x="528.3333333333335" y="411.66666666666663" width="93.33333333333334" height="93.33333333333334"/><rect x="672.2222222222223" y="438.88888888888886" width="38.88888888888889" height="38.88888888888889"/><rect x="652.7777777777778" y="419.4444444444444" width="77.77777777777779" height="77.77777777777779"/><rect x="96.66666666666667" y="563.3333333333335" width="23.333333333333336" height="23.333333333333336"/><rect x="85" y="551.6666666666667" width="46.66666666666667" height="46.66666666666667"/><rect x="73.33333333333334" y="540.0000000000001" width="70" height="70"/><rect x="61.66666666666667" y="528.3333333333335" width="93.33333333333334" height="93.33333333333334"/><rect x="215.2777777777778" y="565.2777777777779" width="19.444444444444446" height="19.444444444444446"/><rect x="205.55555555555557" y="555.5555555555557" width="38.88888888888889" height="38.88888888888889"/><rect x="195.83333333333337" y="545.8333333333335" width="58.333333333333336" height="58.333333333333336"/><rect x="186.11111111111114" y="536.1111111111112" width="77.77777777777779" height="77.77777777777779"/><rect x="176.3888888888889" y="526.388888888889" width="97.22222222222223" height="97.22222222222223"/><rect x="322.22222222222223" y="555.5555555555557" width="38.88888888888889" height="38.88888888888889"/><rect x="302.77777777777777" y="536.1111111111112" width="77.77777777777779" height="77.77777777777779"/><rect x="438.88888888888886" y="555.5555555555557" width="38.88888888888889" height="38.88888888888889"/><rect x="419.4444444444444" y="536.1111111111112" width="77.77777777777779" height="77.77777777777779"/><rect x="555.5555555555557" y="555.5555555555557" width="38.88888888888889" height="38.88888888888889"/><rect x="536.1111111111112" y="536.1111111111112" width="77.77777777777779" height="77.77777777777779"/><rect x="677.0833333333334" y="560.4166666666667" width="29.166666666666668" height="29.166666666666668"/><rect x="662.5000000000001" y="545.8333333333335" width="58.333333333333336" height="58.333333333333336"/><rect x="647.9166666666667" y="531.2500000000001" width="87.5" height="87.5"/><rect x="96.66666666666667" y="680.0000000000001" width="23.333333333333336" height="23.333333333333336"/><rect x="85" y="668.3333333333334" width="46.66666666666667" height="46.66666666666667"/><rect x="73.33333333333334" y="656.6666666666667" width="70" height="70"/><rect x="61.66666666666667" y="645.0000000000001" width="93.33333333333334" height="93.33333333333334"/><rect x="205.55555555555557" y="672.2222222222223" width="38.88888888888889" height="38.88888888888889"/><rect x="186.11111111111114" y="652.7777777777778" width="77.77777777777779" height="77.77777777777779"/><rect x="330" y="680.0000000000001" width="23.333333333333336" height="23.333333333333336"/><rect x="318.33333333333337" y="668.3333333333334" width="46.66666666666667" height="46.66666666666667"/><rect x="306.6666666666667" y="656.6666666666667" width="70" height="70"/><rect x="295" y="645.0000000000001" width="93.33333333333334" height="93.33333333333334"/><rect x="446.66666666666663" y="680.0000000000001" width="23.333333333333336" height="23.333333333333336"/><rect x="435" y="668.3333333333334" width="46.66666666666667" height="46.66666666666667"/><rect x="423.3333333333333" y="656.6666666666667" width="70" height="70"/><rect x="411.66666666666663" y="645.0000000000001" width="93.33333333333334" height="93.33333333333334"/><rect x="563.3333333333335" y="680.0000000000001" width="23.333333333333336" height="23.333333333333336"/><rect x="551.6666666666667" y="668.3333333333334" width="46.66666666666667" height="46.66666666666667"/><rect x="540.0000000000001" y="656.6666666666667" width="70" height="70"/><rect x="528.3333333333335" y="645.0000000000001" width="93.33333333333334" height="93.33333333333334"/><rect x="672.2222222222223" y="672.2222222222223" width="38.88888888888889" height="38.88888888888889"/><rect x="652.7777777777778" y="652.7777777777778" width="77.77777777777779" height="77.77777777777779"/></g></svg>