<svg xmlns="http://www.w3.org/2000/svg" viewBox="0 0 800 800" width="800" height="800">
    <rect width="100%" height="100%" fill="white"/>
    <g fill="none" stroke="black" stroke-width="4" stroke-linecap="round" stroke-linejoin="round"><circle cx="108.33333333333334" cy="108.33333333333334" r="19.444444444444446"/><circle cx="108.33333333333334" cy="108.33333333333334" r="38.88888888888889"/><circle cx="225.00000000000003" cy="108.33333333333334" r="11.666666666666668"/><circle cx="225.00000000000003" cy="108.33333333333334" r="23.333333333333336"/><circle cx="225.00000000000003" cy="108.33333333333334" r="35"/><circle cx="225.00000000000003" cy="108.33333333333334" r="46.66666666666667"/><circle cx="341.6666666666667" cy="108.33333333333334" r="19.444444444444446"/><circle cx="341.6666666666667" cy="108.33333333333334" r="38.88888888888889"/><circle cx="458.3333333333333" cy="108.33333333333334" r="19.444444444444446"/><circle cx="458.3333333333333" cy="108.33333333333334" r="38.88888888888889"/><circle cx="575.0000000000001" cy="108.33333333333334" r="11.666666666666668"/><circle cx="575.0000000000001" cy="108.33333333333334" r="23.333333333333336"/><circle cx="575.0000000000001" cy="108.33333333333334" r="35"/><circle cx="575.0000000000001" cy="108.33333333333334" r="46.66666666666667"/><circle cx="691.6666666666667" cy="108.33333333333334" r="14.583333333333334"/><circle cx="691.6666666666667" cy="108.33333333333334" r="29.166666666666668"/><circle cx="691.6666666666667" cy="108.33333333333334" r="43.75"/><circle cx="108.33333333333334" cy="225.00000000000003" r="19.444444444444446"/><circle cx="108.33333333333334" cy="225.00000000000003" r="38.88888888888889"/><circle cx="225.00000000000003" cy="225.00000000000003" r="14.583333333333334"/><circle cx="225.00000000000003" cy="225.00000000000003" r="29.166666666666668"/><circle cx="225.00000000000003" cy="225.00000000000003" r="43.75"/><circle cx="341.6666666666667" cy="225.00000000000003" r="14.583333333333334"/><circle cx="341.6666666666667" cy="225.00000000000003" r="29.166666666666668"/><circle cx="341.6666666666667" cy="225.00000000000003" r="43.75"/><circle cx="458.3333333333333" cy="225.00000000000003" r="14.583333333333334"/><circle cx="458.3333333333333" cy="225.00000000000003" r="29.166666666666668"/><circle cx="458.3333333333333" cy="225.00000000000003" r="43.75"/><circle cx="575.0000000000001" cy="225.00000000000003" r="14.583333333333334"/><circle cx="575.0000000000001" cy="225.00000000000003" r="29.166666666666668"/><circle cx="575.0000000000001" cy="225.00000000000003" r="43.75"/><circle cx="691.6666666666667" cy="225.00000000000003" r="9.722222222222223"/><circle cx="691.6666666666667" cy="225.00000000000003" r="19.444444444444446"/><circle cx="691.6666666666667" cy="225.00000000000003" r="29.166666666666668"/><circle cx="691.6666666666667" cy="225.00000000000003" r="38.88888888888889"/><circle cx="691.6666666666667" cy="225.00000000000003" r="48.611111111111114"/><circle cx="108.33333333333334" cy="341.6666666666667" r="14.583333333333334"/><circle cx="108.33333333333334" cy="341.6666666666667" r="29.166666666666668"/><circle cx="108.33333333333334" cy="341.6666666666667" r="43.75"/><circle cx="225.00000000000003" cy="341.6666666666667" r="9.722222222222223"/><circle cx="225.00000000000003" cy="341.6666666666667" r="19.444444444444446"/><circle cx="225.00000000000003" cy="341.6666666666667" r="29.166666666666668"/><circle cx="225.00000000000003" cy="341.6666666666667" r="38.88888888888889"/><circle cx="225.00000000000003" cy="341.6666666666667" r="48.611111111111114"/><circle cx="341.6666666666667" cy="341.6666666666667" r="9.722222222222223"/><circle cx="341.6666666666667" cy="341.6666666666667" r="19.444444444444446"/><circle cx="341.6666666666667" cy="341.6666666666667" r="29.166666666666668"/><circle cx="341.6666666666667" cy="341.6666666666667" r="38.88888888888889"/><circle cx="341.6666666666667" cy="341.6666666666667" r="48.611111111111114"/><circle cx="458.3333333333333" cy="341.6666666666667" r="19.444444444444446"/><circle cx="458.3333333333333" cy="341.6666666666667" r="38.88888888888889"/><circle cx="575.0000000000001" cy="341.6666666666667" r="19.444444444444446"/><circle cx="575.0000000000001" cy="341.6666666666667" r="38.88888888888889"/><circle cx="691.6666666666667" cy="341.6666666666667" r="9.722222222222223"/><circle cx="691.6666666666667" cy="341.6666666666667" r="19.444444444444446"/><circle cx="691.6666666666667" cy="341.6666666666667" r="29.166666666666668"/><circle cx="691.6666666666667" cy="341.6666666666667" r="38.88888888888889"/><circle cx="691.6666666666667" cy="341.6666666666667" r="48.611111111111114"/><circle cx="108.33333333333334" cy="458.3333333333333" r="11.666666666666668"/><circle cx="108.33333333333334" cy="458.3333333333333" r="23.333333333333336"/><circle cx="108.33333333333334" cy="458.3333333333333" r="35"/><circle cx="108.33333333333334" cy="458.3333333333333" r="46.66666666666667"/><circle cx="225.00000000000003" cy="458.3333333333333" r="19.444444444444446"/><circle cx="225.00000000000003" cy="458.3333333333333" r="38.88888888888889"/><circle cx="341.6666666666667" cy="458.3333333333333" r="14.583333333333334"/><circle cx="341.6666666666667" cy="458.3333333333333" r="29.166666666666668"/><circle cx="341.6666666666667" cy="458.3333333333333" r="43.75"/><circle cx="458.3333333333333" cy="458.3333333333333" r="14.583333333333334"/><circle cx="458.3333333333333" cy="458.3333333333333" r="29.166666666666668"/><circle cx="458.3333333333333" cy="458.3333333333333" r="43.75"/><circle cx="575.0000000000001" cy="458.3333333333333" r="9.722222222222223"/><circle cx="575.0000000000001" cy="458.3333333333333" r="19.444444444444446"/><circle cx="575.0000000000001" cy="458.3333333333333" r="29.166666666666668"/><circle cx="575.0000000000001" cy="458.3333333333333" r="38.88888888888889"/><circle cx="575.0000000000001" cy="458.3333333333333" r="48.611111111111114"/><circle cx="691.6666666666667" cy="458.3333333333333" r="11.666666666666668"/><circle cx="691.6666666666667" cy="458.3333333333333" r="23.333333333333336"/><circle cx="691.6666666666667" cy="458.3333333333333" r="35"/><circle cx="691.6666666666667" cy="458.3333333333333" r="46.66666666666667"/><circle cx="108.33333333333334" cy="575.0000000000001" r="11.666666666666668"/><circle cx="108.33333333333334" cy="575.0000000000001" r="23.333333333333336"/><circle cx="108.33333333333334" cy="575.0000000000001" r="35"/><circle cx="108.33333333333334" cy="575.0000000000001" r="46.66666666666667"/><circle cx="225.00000000000003" cy="575.0000000000001" r="11.666666666666668"/><circle cx="225.00000000000003" cy="575.0000000000001" r="23.333333333333336"/><circle cx="225.00000000000003" cy="575.0000000000001" r="35"/><circle cx="225.00000000000003" cy="575.0000000000001" r="46.66666666666667"/><circle cx="341.6666666666667" cy="575.0000000000001" r="11.666666666666668"/><circle cx="341.6666666666667" cy="575.0000000000001" r="23.333333333333336"/><circle cx="341.6666666666667" cy="575.0000000000001" r="35"/><circle cx="341.6666666666667" cy="575.0000000000001" r="46.66666666666667"/><circle cx="458.3333333333333" cy="575.0000000000001" r="11.666666666666668"/><circle cx="458.3333333333333" cy="575.0000000000001" r="23.333333333333336"/><circle cx="458.3333333333333" cy="575.0000000000001" r="35"/><circle cx="458.3333333333333" cy="575.0000000000001" r="46.66666666666667"/><circle cx="575.0000000000001" cy="575.0000000000001" r="11.666666666666668"/><circle cx="575.0000000000001" cy="575.0000000000001" r="23.333333333333336"/><circle cx="575.0000000000001" cy="575.0000000000001" r="35"/><circle cx="575.0000000000001" cy="575.0000000000001" r="46.66666666666667"/><circle cx="691.6666666666667" cy="575.0000000000001" r="14.583333333333334"/><circle cx="691.6666666666667" cy="575.0000000000001" r="29.166666666666668"/><circle cx="691.6666666666667" cy="575.0000000000001" r="43.75"/><circle cx="108.33333333333334" cy="691.6666666666667" r="14.583333333333334"/><circle cx="108.33333333333334" cy="691.6666666666667" r="29.166666666666668"/><circle cx="108.33333333333334" cy="691.6666666666667" r="43.75"/><circle cx="225.00000000000003" cy="691.6666666666667" r="9.722222222222223"/><circle cx="225.00000000000003" cy="691.6666666666667" r="19.444444444444446"/><circle cx="225.00000000000003" cy="691.6666666666667" r="29.166666666666668"/><circle cx="225.00000000000003" cy="691.6666666666667" r="38.88888888888889"/><circle cx="225.00000000000003" cy="691.6666666666667" r="48.611111111111114"/><circle cx="341.6666666666667" cy="691.6666666666667" r="11.666666666666668"/><circle cx="341.6666666666667" cy="691.6666666666667" r="23.333333333333336"/><circle cx="341.6666666666667" cy="691.6666666666667" r="35"/><circle cx="341.6666666666667" cy="691.6666666666667" r="46.66666666666667"/><circle cx="458.3333333333333" cy="691.6666666666667" r="11.666666666666668"/><circle cx="458.3333333333333" cy="691.6666666666667" r="23.333333333333336"/><circle cx="458.3333333333333" cy="691.6666666666667" r="35"/><circle cx="458.3333333333333" cy="691.6666666666667" r="46.66666666666667"/><circle cx="575.0000000000001" cy="691.6666666666667" r="9.722222222222223"/><circle cx="575.0000000000001" cy="691.6666666666667" r="19.444444444444446"/><circle cx="575.0000000000001" cy="691.6666666666667" r="29.166666666666668"/><circle cx="575.0000000000001" cy="691.6666666666667" r="38.88888888888889"/><circle cx="575.0000000000001" cy="691.6666666666667" r="48.611111111111114"/><circle cx="691.6666666666667" cy="691.6666666666667" r="9.722222222222223"/><circle cx="691.6666666666667" cy="691.6666666666667" r="19.444444444444446"/><circle cx="691.6666666666667" cy="691.6666666666667" r="29.166666666666668"/><circle cx="691.6666666666667" cy="691.6666666666667" r="38.88888888888889"/><circle cx="691.6666666666667" cy="691.6666666666667" r="48.611111111111114"/></g></svg>