<svg xmlns="http://www.w3.org/2000/svg" viewBox="0 0 800 800" width="800" height="800">
    <rect width="100%" height="100%" fill="white"/>
    <g fill="none" stroke="black" stroke-width="4" stroke-linecap="round" stroke-linejoin="round"><path d="M 120 73.33333333333334 L 137.5 102.5 L 166.66666666666666 120 L 137.5 137.5 L 120 166.66666666666666 L 102.5 137.5 L 73.33333333333334 120 L 102.5 102.5 Z"/><rect x="50" y="50" width="140" height="140"/><path d="M 260 73.33333333333334 L 277.5 102.5 L 306.6666666666667 120 L 277.5 137.5 L 260 166.66666666666666 L 242.5 137.5 L 213.33333333333334 120 L 242.5 102.5 Z"/><rect x="190" y="50" width="140" height="140"/><path d="M 400 73.33333333333334 L 417.5 102.5 L 446.6666666666667 120 L 417.5 137.5 L 400 166.66666666666666 L 382.5 137.5 L 353.3333333333333 120 L 382.5 102.5 Z"/><rect x="330" y="50" width="140" height="140"/><path d="M 540 73.33333333333334 L 557.5 102.5 L 586.6666666666666 120 L 557.5 137.5 L 540 166.66666666666666 L 522.5 137.5 L 493.3333333333333 120 L 522.5 102.5 Z"/><rect x="470" y="50" width="140" height="140"/><path d="M 680 73.33333333333334 L 697.5 102.5 L 726.6666666666666 120 L 697.5 137.5 L 680 166.66666666666666 L 662.5 137.5 L 633.3333333333334 120 L 662.5 102.5 Z"/><rect x="610" y="50" width="140" height="140"/><path d="M 120 213.33333333333334 L 137.5 242.5 L 166.66666666666666 260 L 137.5 277.5 L 120 306.6666666666667 L 102.5 277.5 L 73.33333333333334 260 L 102.5 242.5 Z"/><rect x="50" y="190" width="140" height="140"/><path d="M 260 213.33333333333334 L 277.5 242.5 L 306.6666666666667 260 L 277.5 277.5 L 260 306.6666666666667 L 242.5 277.5 L 213.33333333333334 260 L 242.5 242.5 Z"/><rect x="190" y="190" width="140" height="140"/><path d="M 400 213.33333333333334 L 417.5 242.5 L 446.6666666666667 260 L 417.5 277.5 L 400 306.6666666666667 L 382.5 277.5 L 353.3333333333333 260 L 382.5 242.5 Z"/><rect x="330" y="190" width="140" height="140"/><path d="M 540 213.33333333333334 L 557.5 242.5 L 586.6666666666666 260 L 557.5 277.5 L 540 306.6666666666667 L 522.5 277.5 L 493.3333333333333 260 L 522.5 242.5 Z"/><rect x="470" y="190" width="140" height="140"/><path d="M 680 213.33333333333334 L 697.5 242.5 L 726.6666666666666 260 L 697.5 277.5 L 680 306.6666666666667 L 662.5 277.5 L 633.3333333333334 260 L 662.5 242.5 Z"/><rect x="610" y="190" width="140" height="140"/><path d="M 120 353.3333333333333 L 137.5 382.5 L 166.66666666666666 400 L 137.5 417.5 L 120 446.6666666666667 L 102.5 417.5 L 73.33333333333334 400 L 102.5 382.5 Z"/><rect x="50" y="330" width="140" height="140"/><path d="M 260 353.3333333333333 L 277.5 382.5 L 306.6666666666667 400 L 277.5 417.5 L 260 446.6666666666667 L 242.5 417.5 L 213.33333333333334 400 L 242.5 382.5 Z"/><rect x="190" y="330" width="140" height="140"/><path d="M 400 353.3333333333333 L 417.5 382.5 L 446.6666666666667 400 L 417.5 417.5 L 400 446.6666666666667 L 382.5 417.5 L 353.3333333333333 400 L 382.5 382.5 Z"/><rect x="330" y="330" width="140" height="140"/><path d="M 540 353.3333333333333 L 557.5 382.5 L 586.6666666666666 400 L 557.5 417.5 L 540 446.6666666666667 L 522.5 417.5 L 493.3333333333333 400 L 522.5 382.5 Z"/><rect x="470" y="330" width="140" height="140"/><path d="M 680 353.3333333333333 L 697.5 382.5 L 726.6666666666666 400 L 697.5 417.5 L 680 446.6666666666667 L 662.5 417.5 L 633.3333333333334 400 L 662.5 382.5 Z"/><rect x="610" y="330" width="140" height="140"/><path d="M 120 493.3333333333333 L 137.5 522.5 L 166.66666666666666 540 L 137.5 557.5 L 120 586.6666666666666 L 102.5 557.5 L 73.33333333333334 540 L 102.5 522.5 Z"/><rect x="50" y="470" width="140" height="140"/><path d="M 260 493.3333333333333 L 277.5 522.5 L 306.6666666666667 540 L 277.5 557.5 L 260 586.6666666666666 L 242.5 557.5 L 213.33333333333334 540 L 242.5 522.5 Z"/><rect x="190" y="470" width="140" height="140"/><path d="M 400 493.3333333333333 L 417.5 522.5 L 446.6666666666667 540 L 417.5 557.5 L 400 586.6666666666666 L 382.5 557.5 L 353.3333333333333 540 L 382.5 522.5 Z"/><rect x="330" y="470" width="140" height="140"/><path d="M 540 493.3333333333333 L 557.5 522.5 L 586.6666666666666 540 L 557.5 557.5 L 540 586.6666666666666 L 522.5 557.5 L 493.3333333333333 540 L 522.5 522.5 Z"/><rect x="470" y="470" width="140" height="140"/><path d="M 680 493.3333333333333 L 697.5 522.5 L 726.6666666666666 540 L 697.5 557.5 L 680 586.6666666666666 L 662.5 557.5 L 633.3333333333334 540 L 662.5 522.5 Z"/><rect x="610" y="470" width="140" height="140"/><path d="M 120 633.3333333333334 L 137.5 662.5 L 166.66666666666666 680 L 137.5 697.5 L 120 726.6666666666666 L 102.5 697.5 L 73.33333333333334 680 L 102.5 662.5 Z"/><rect x="50" y="610" width="140" height="140"/><path d="M 260 633.3333333333334 L 277.5 662.5 L 306.6666666666667 680 L 277.5 697.5 L 260 726.6666666666666 L 242.5 697.5 L 213.33333333333334 680 L 242.5 662.5 Z"/><rect x="190" y="610" width="140" height="140"/><path d="M 400 633.3333333333334 L 417.5 662.5 L 446.6666666666667 680 L 417.5 697.5 L 400 726.6666666666666 L 382.5 697.5 L 353.3333333333333 680 L 382.5 662.5 Z"/><rect x="330" y="610" width="140" height="140"/><path d="M 540 633.3333333333334 L 557.5 662.5 L 586.6666666666666 680 L 557.5 697.5 L 540 726.6666666666666 L 522.5 697.5 L 493.3333333333333 680 L 522.5 662.5 Z"/><rect x="470" y="610" width="140" height="140"/><path d="M 680 633.3333333333334 L 697.5 662.5 L 726.6666666666666 680 L 697.5 697.5 L 680 726.6666666666666 L 662.5 697.5 L 633.3333333333334 680 L 662.5 662.5 Z"/><rect x="610" y="610" width="140" height="140"/></g></svg>