<svg xmlns="http://www.w3.org/2000/svg" viewBox="0 0 800 800" width="800" height="800">
    <rect width="100%" height="100%" fill="white"/>
    <g fill="none" stroke="black" stroke-width="4" stroke-linecap="round" stroke-linejoin="round"><rect x="83.33333333333333" y="83.33333333333333" width="33.333333333333336" height="33.333333333333336"/><rect x="66.66666666666666" y="66.66666666666666" width="66.66666666666667" height="66.66666666666667"/><rect x="191.66666666666666" y="91.66666666666667" width="16.666666666666668" height="16.666666666666668"/><rect x="183.33333333333334" y="83.33333333333333" width="33.333333333333336" height="33.333333333333336"/><rect x="175" y="75" width="50" height="50"/><rect x="166.66666666666666" y="66.66666666666666" width="66.66666666666667" height="66.66666666666667"/><rect x="158.33333333333334" y="58.333333333333336" width="83.33333333333333" height="83.33333333333333"/><rect x="283.3333333333333" y="83.33333333333333" width="33.333333333333336" height="33.333333333333336"/><rect x="266.6666666666667" y="66.66666666666666" width="66.66666666666667" height="66.66666666666667"/><rect x="391.6666666666667" y="91.66666666666667" width="16.666666666666668" height="16.666666666666668"/><rect x="383.3333333333333" y="83.33333333333333" width="33.333333333333336" height="33.333333333333336"/><rect x="375" y="75" width="50" height="50"/><rect x="366.6666666666667" y="66.66666666666666" width="66.66666666666667" height="66.66666666666667"/><rect x="358.3333333333333" y="58.333333333333336" width="83.33333333333333" height="83.33333333333333"/><rect x="487.5" y="87.5" width="25" height="25"/><rect x="475" y="75" width="50" height="50"/><rect x="462.5" y="62.5" width="75" height="75"/><rect x="583.3333333333334" y="83.33333333333333" width="33.333333333333336" height="33.333333333333336"/><rect x="566.6666666666666" y="66.66666666666666" width="66.66666666666667" height="66.66666666666667"/><rect x="690" y="90" width="20" height="20"/><rect x="680" y="80" width="40" height="40"/><rect x="670" y="70" width="60" height="60"/><rect x="660" y="60" width="80" height="80"/><rect x="87.5" y="187.5" width="25" height="25"/><rect x="75" y="175" width="50" height="50"/><rect x="62.5" y="162.5" width="75" height="75"/><rect x="183.33333333333334" y="183.33333333333334" width="33.333333333333336" height="33.333333333333336"/><rect x="166.66666666666666" y="166.66666666666666" width="66.66666666666667" height="66.66666666666667"/><rect x="283.3333333333333" y="183.33333333333334" width="33.333333333333336" height="33.333333333333336"/><rect x="266.6666666666667" y="166.66666666666666" width="66.66666666666667" height="66.66666666666667"/><rect x="383.3333333333333" y="183.33333333333334" width="33.333333333333336" height="33.333333333333336"/><rect x="366.6666666666667" y="166.66666666666666" width="66.66666666666667" height="66.66666666666667"/><rect x="487.5" y="187.5" width="25" height="25"/><rect x="475" y="175" width="50" height="50"/><rect x="462.5" y="162.5" width="75" height="75"/><rect x="591.6666666666666" y="191.66666666666666" width="16.666666666666668" height="16.666666666666668"/><rect x="583.3333333333334" y="183.33333333333334" width="33.333333333333336" height="33.333333333333336"/><rect x="575" y="175" width="50" height="50"/><rect x="566.6666666666666" y="166.66666666666666" width="66.66666666666667" height="66.66666666666667"/><rect x="558.3333333333334" y="158.33333333333334" width="83.33333333333333" height="83.33333333333333"/><rect x="690" y="190" width="20" height="20"/><rect x="680" y="180" width="40" height="40"/><rect x="670" y="170" width="60" height="60"/><rect x="660" y="160" width="80" height="80"/><rect x="91.66666666666667" y="291.6666666666667" width="16.666666666666668" height="16.666666666666668"/><rect x="83.33333333333333" y="283.3333333333333" width="33.333333333333336" height="33.333333333333336"/><rect x="75" y="275" width="50" height="50"/><rect x="66.66666666666666" y="266.6666666666667" width="66.66666666666667" height="66.66666666666667"/><rect x="58.333333333333336" y="258.3333333333333" width="83.33333333333333" height="83.33333333333333"/><rect x="187.5" y="287.5" width="25" height="25"/><rect x="175" y="275" width="50" height="50"/><rect x="162.5" y="262.5" width="75" height="75"/><rect x="287.5" y="287.5" width="25" height="25"/><rect x="275" y="275" width="50" height="50"/><rect x="262.5" y="262.5" width="75" height="75"/><rect x="390" y="290" width="20" height="20"/><rect x="380" y="280" width="40" height="40"/><rect x="370" y="270" width="60" height="60"/><rect x="360" y="260" width="80" height="80"/><rect x="483.3333333333333" y="283.3333333333333" width="33.333333333333336" height="33.333333333333336"/><rect x="466.6666666666667" y="266.6666666666667" width="66.66666666666667" height="66.66666666666667"/><rect x="590" y="290" width="20" height="20"/><rect x="580" y="280" width="40" height="40"/><rect x="570" y="270" width="60" height="60"/><rect x="560" y="260" width="80" height="80"/><rect x="691.6666666666666" y="291.6666666666667" width="16.666666666666668" height="16.666666666666668"/><rect x="683.3333333333334" y="283.3333333333333" width="33.333333333333336" height="33.333333333333336"/><rect x="675" y="275" width="50" height="50"/><rect x="666.6666666666666" y="266.6666666666667" width="66.66666666666667" height="66.66666666666667"/><rect x="658.3333333333334" y="258.3333333333333" width="83.33333333333333" height="83.33333333333333"/><rect x="83.33333333333333" y="383.3333333333333" width="33.333333333333336" height="33.333333333333336"/><rect x="66.66666666666666" y="366.6666666666667" width="66.66666666666667" height="66.66666666666667"/><rect x="187.5" y="387.5" width="25" height="25"/><rect x="175" y="375" width="50" height="50"/><rect x="162.5" y="362.5" width="75" height="75"/><rect x="290" y="390" width="20" height="20"/><rect x="280" y="380" width="40" height="40"/><rect x="270" y="370" width="60" height="60"/><rect x="260" y="360" width="80" height="80"/><rect x="387.5" y="387.5" width="25" height="25"/><rect x="375" y="375" width="50" height="50"/><rect x="362.5" y="362.5" width="75" height="75"/><rect x="483.3333333333333" y="383.3333333333333" width="33.333333333333336" height="33.333333333333336"/><rect x="466.6666666666667" y="366.6666666666667" width="66.66666666666667" height="66.66666666666667"/><rect x="587.5" y="387.5" width="25" height="25"/><rect x="575" y="375" width="50" height="50"/><rect x="562.5" y="362.5" width="75" height="75"/><rect x="690" y="390" width="20" height="20"/><rect x="680" y="380" width="40" height="40"/><rect x="670" y="370" width="60" height="60"/><rect x="660" y="360" width="80" height="80"/><rect x="90" y="490" width="20" height="20"/><rect x="80" y="480" width="40" height="40"/><rect x="70" y="470" width="60" height="60"/><rect x="60" y="460" width="80" height="80"/><rect x="183.33333333333334" y="483.3333333333333" width="33.333333333333336" height="33.333333333333336"/><rect x="166.66666666666666" y="466.6666666666667" width="66.66666666666667" height="66.66666666666667"/><rect x="287.5" y="487.5" width="25" height="25"/><rect x="275" y="475" width="50" height="50"/><rect x="262.5" y="462.5" width="75" height="75"/><rect x="383.3333333333333" y="483.3333333333333" width="33.333333333333336" height="33.333333333333336"/><rect x="366.6666666666667" y="466.6666666666667" width="66.66666666666667" height="66.66666666666667"/><rect x="491.6666666666667" y="491.6666666666667" width="16.666666666666668" height="16.666666666666668"/><rect x="483.3333333333333" y="483.3333333333333" width="33.333333333333336" height="33.333333333333336"/><rect x="475" y="475" width="50" height="50"/><rect x="466.6666666666667" y="466.6666666666667" width="66.66666666666667" height="66.66666666666667"/><rect x="458.3333333333333" y="458.3333333333333" width="83.33333333333333" height="83.33333333333333"/><rect x="583.3333333333334" y="483.3333333333333" width="33.333333333333336" height="33.333333333333336"/><rect x="566.6666666666666" y="466.6666666666667" width="66.66666666666667" height="66.66666666666667"/><rect x="683.3333333333334" y="483.3333333333333" width="33.333333333333336" height="33.333333333333336"/><rect x="666.6666666666666" y="466.6666666666667" width="66.66666666666667" height="66.66666666666667"/><rect x="83.33333333333333" y="583.3333333333334" width="33.333333333333336" height="33.333333333333336"/><rect x="66.66666666666666" y="566.6666666666666" width="66.66666666666667" height="66.66666666666667"/><rect x="187.5" y="587.5" width="25" height="25"/><rect x="175" y="575" width="50" height="50"/><rect x="162.5" y="562.5" width="75" height="75"/><rect x="287.5" y="587.5" width="25" height="25"/><rect x="275" y="575" width="50" height="50"/><rect x="262.5" y="562.5" width="75" height="75"/><rect x="383.3333333333333" y="583.3333333333334" width="33.333333333333336" height="33.333333333333336"/><rect x="366.6666666666667" y="566.6666666666666" width="66.66666666666667" height="66.66666666666667"/><rect x="490" y="590" width="20" height="20"/><rect x="480" y="580" width="40" height="40"/><rect x="470" y="570" width="60" height="60"/><rect x="460" y="560" width="80" height="80"/><rect x="583.3333333333334" y="583.3333333333334" width="33.333333333333336" height="33.333333333333336"/><rect x="566.6666666666666" y="566.6666666666666" width="66.66666666666667" height="66.66666666666667"/><rect x="683.3333333333334" y="583.3333333333334" width="33.333333333333336" height="33.333333333333336"/><rect x="666.6666666666666" y="566.6666666666666" width="66.66666666666667" height="66.66666666666667"/><rect x="87.5" y="687.5" width="25" height="25"/><rect x="75" y="675" width="50" height="50"/><rect x="62.5" y="662.5" width="75" height="75"/><rect x="187.5" y="687.5" width="25" height="25"/><rect x="175" y="675" width="50" height="50"/><rect x="162.5" y="662.5" width="75" height="75"/><rect x="287.5" y="687.5" width="25" height="25"/><rect x="275" y="675" width="50" height="50"/><rect x="262.5" y="662.5" width="75" height="75"/><rect x="387.5" y="687.5" width="25" height="25"/><rect x="375" y="675" width="50" height="50"/><rect x="362.5" y="662.5" width="75" height="75"/><rect x="491.6666666666667" y="691.6666666666666" width="16.666666666666668" height="16.666666666666668"/><rect x="483.3333333333333" y="683.3333333333334" width="33.333333333333336" height="33.333333333333336"/><rect x="475" y="675" width="50" height="50"/><rect x="466.6666666666667" y="666.6666666666666" width="66.66666666666667" height="66.66666666666667"/><rect x="458.3333333333333" y="658.3333333333334" width="83.33333333333333" height="83.33333333333333"/><rect x="591.6666666666666" y="691.6666666666666" width="16.666666666666668" height="16.666666666666668"/><rect x="583.3333333333334" y="683.3333333333334" width="33.333333333333336" height="33.333333333333336"/><rect x="575" y="675" width="50" height="50"/><rect x="566.6666666666666" y="666.6666666666666" width="66.66666666666667" height="66.66666666666667"/><rect x="558.3333333333334" y="658.3333333333334" width="83.33333333333333" height="83.33333333333333"/><rect x="683.3333333333334" y="683.3333333333334" width="33.333333333333336" height="33.333333333333336"/><rect x="666.6666666666666" y="666.6666666666666" width="66.66666666666667" height="66.66666666666667"/></g></svg>