<svg xmlns="http://www.w3.org/2000/svg" viewBox="0 0 800 800" width="800" height="800">
    <rect width="100%" height="100%" fill="white"/>
    <g transform="translate(400, 400)" fill="none" stroke="black" stroke-width="4" stroke-linecap="round" stroke-linejoin="round"><g transform="rotate(0)"><path d="M 0 57.39854006562382 L 14.349635016405955 68.87824807874858 L 0 80.35795609187335 L -14.349635016405955 68.87824807874858 Z"/></g><g transform="rotate(20)"><path d="M 0 57.39854006562382 L 14.349635016405955 68.87824807874858 L 0 80.35795609187335 L -14.349635016405955 68.87824807874858 Z"/></g><g transform="rotate(40)"><path d="M 0 57.39854006562382 L 14.349635016405955 68.87824807874858 L 0 80.35795609187335 L -14.349635016405955 68.87824807874858 Z"/></g><g transform="rotate(60)"><path d="M 0 57.39854006562382 L 14.349635016405955 68.87824807874858 L 0 80.35795609187335 L -14.349635016405955 68.87824807874858 Z"/></g><g transform="rotate(80)"><path d="M 0 57.39854006562382 L 14.349635016405955 68.87824807874858 L 0 80.35795609187335 L -14.349635016405955 68.87824807874858 Z"/></g><g transform="rotate(100)"><path d="M 0 57.39854006562382 L 14.349635016405955 68.87824807874858 L 0 80.35795609187335 L -14.349635016405955 68.87824807874858 Z"/></g><g transform="rotate(120)"><path d="M 0 57.39854006562382 L 14.349635016405955 68.87824807874858 L 0 80.35795609187335 L -14.349635016405955 68.87824807874858 Z"/></g><g transform="rotate(140)"><path d="M 0 57.39854006562382 L 14.349635016405955 68.87824807874858 L 0 80.35795609187335 L -14.349635016405955 68.87824807874858 Z"/></g><g transform="rotate(160)"><path d="M 0 57.39854006562382 L 14.349635016405955 68.87824807874858 L 0 80.35795609187335 L -14.349635016405955 68.87824807874858 Z"/></g><g transform="rotate(180)"><path d="M 0 57.39854006562382 L 14.349635016405955 68.87824807874858 L 0 80.35795609187335 L -14.349635016405955 68.87824807874858 Z"/></g><g transform="rotate(200)"><path d="M 0 57.39854006562382 L 14.349635016405955 68.87824807874858 L 0 80.35795609187335 L -14.349635016405955 68.87824807874858 Z"/></g><g transform="rotate(220)"><path d="M 0 57.39854006562382 L 14.349635016405955 68.87824807874858 L 0 80.35795609187335 L -14.349635016405955 68.87824807874858 Z"/></g><g transform="rotate(240)"><path d="M 0 57.39854006562382 L 14.349635016405955 68.87824807874858 L 0 80.35795609187335 L -14.349635016405955 68.87824807874858 Z"/></g><g transform="rotate(260)"><path d="M 0 57.39854006562382 L 14.349635016405955 68.87824807874858 L 0 80.35795609187335 L -14.349635016405955 68.87824807874858 Z"/></g><g transform="rotate(280)"><path d="M 0 57.39854006562382 L 14.349635016405955 68.87824807874858 L 0 80.35795609187335 L -14.349635016405955 68.87824807874858 Z"/></g><g transform="rotate(300)"><path d="M 0 57.39854006562382 L 14.349635016405955 68.87824807874858 L 0 80.35795609187335 L -14.349635016405955 68.87824807874858 Z"/></g><g transform="rotate(320)"><path d="M 0 57.39854006562382 L 14.349635016405955 68.87824807874858 L 0 80.35795609187335 L -14.349635016405955 68.87824807874858 Z"/></g><g transform="rotate(340)"><path d="M 0 57.39854006562382 L 14.349635016405955 68.87824807874858 L 0 80.35795609187335 L -14.349635016405955 68.87824807874858 Z"/></g><g transform="rotate(0)"><circle cx="0" cy="99.70042363585284" r="24.92510590896321"/></g><g transform="rotate(20)"><circle cx="0" cy="99.70042363585284" r="24.92510590896321"/></g><g transform="rotate(40)"><circle cx="0" cy="99.70042363585284" r="24.92510590896321"/></g><g transform="rotate(60)"><circle cx="0" cy="99.70042363585284" r="24.92510590896321"/></g><g transform="rotate(80)"><circle cx="0" cy="99.70042363585284" r="24.92510590896321"/></g><g transform="rotate(100)"><circle cx="0" cy="99.70042363585284" r="24.92510590896321"/></g><g transform="rotate(120)"><circle cx="0" cy="99.70042363585284" r="24.92510590896321"/></g><g transform="rotate(140)"><circle cx="0" cy="99.70042363585284" r="24.92510590896321"/></g><g transform="rotate(160)"><circle cx="0" cy="99.70042363585284" r="24.92510590896321"/></g><g transform="rotate(180)"><circle cx="0" cy="99.70042363585284" r="24.92510590896321"/></g><g transform="rotate(200)"><circle cx="0" cy="99.70042363585284" r="24.92510590896321"/></g><g transform="rotate(220)"><circle cx="0" cy="99.70042363585284" r="24.92510590896321"/></g><g transform="rotate(240)"><circle cx="0" cy="99.70042363585284" r="24.92510590896321"/></g><g transform="rotate(260)"><circle cx="0" cy="99.70042363585284" r="24.92510590896321"/></g><g transform="rotate(280)"><circle cx="0" cy="99.70042363585284" r="24.92510590896321"/></g><g transform="rotate(300)"><circle cx="0" cy="99.70042363585284" r="24.92510590896321"/></g><g transform="rotate(320)"><circle cx="0" cy="99.70042363585284" r="24.92510590896321"/></g><g transform="rotate(340)"><circle cx="0" cy="99.70042363585284" r="24.92510590896321"/></g><g transform="rotate(0)"><circle cx="0" cy="163.0988873091216" r="40.7747218272804"/></g><g transform="rotate(20)"><circle cx="0" cy="163.0988873091216" r="40.7747218272804"/></g><g transform="rotate(40)"><circle cx="0" cy="163.0988873091216" r="40.7747218272804"/></g><g transform="rotate(60)"><circle cx="0" cy="163.0988873091216" r="40.7747218272804"/></g><g transform="rotate(80)"><circle cx="0" cy="163.0988873091216" r="40.7747218272804"/></g><g transform="rotate(100)"><circle cx="0" cy="163.0988873091216" r="40.7747218272804"/></g><g transform="rotate(120)"><circle cx="0" cy="163.0988873091216" r="40.7747218272804"/></g><g transform="rotate(140)"><circle cx="0" cy="163.0988873091216" r="40.7747218272804"/></g><g transform="rotate(160)"><circle cx="0" cy="163.0988873091216" r="40.7747218272804"/></g><g transform="rotate(180)"><circle cx="0" cy="163.0988873091216" r="40.7747218272804"/></g><g transform="rotate(200)"><circle cx="0" cy="163.0988873091216" r="40.7747218272804"/></g><g transform="rotate(220)"><circle cx="0" cy="163.0988873091216" r="40.7747218272804"/></g><g transform="rotate(240)"><circle cx="0" cy="163.0988873091216" r="40.7747218272804"/></g><g transform="rotate(260)"><circle cx="0" cy="163.0988873091216" r="40.7747218272804"/></g><g transform="rotate(280)"><circle cx="0" cy="163.0988873091216" r="40.7747218272804"/></g><g transform="rotate(300)"><circle cx="0" cy="163.0988873091216" r="40.7747218272804"/></g><g transform="rotate(320)"><circle cx="0" cy="163.0988873091216" r="40.7747218272804"/></g><g transform="rotate(340)"><circle cx="0" cy="163.0988873091216" r="40.7747218272804"/></g><g transform="rotate(0)"><path d="M 0 213.74741268809885 L 0 277.8716364945285"/></g><g transform="rotate(20)"><path d="M 0 213.74741268809885 L 0 277.8716364945285"/></g><g transform="rotate(40)"><path d="M 0 213.74741268809885 L 0 277.8716364945285"/></g><g transform="rotate(60)"><path d="M 0 213.74741268809885 L 0 277.8716364945285"/></g><g transform="rotate(80)"><path d="M 0 213.74741268809885 L 0 277.8716364945285"/></g><g transform="rotate(100)"><path d="M 0 213.74741268809885 L 0 277.8716364945285"/></g><g transform="rotate(120)"><path d="M 0 213.74741268809885 L 0 277.8716364945285"/></g><g transform="rotate(140)"><path d="M 0 213.74741268809885 L 0 277.8716364945285"/></g><g transform="rotate(160)"><path d="M 0 213.74741268809885 L 0 277.8716364945285"/></g><g transform="rotate(180)"><path d="M 0 213.74741268809885 L 0 277.8716364945285"/></g><g transform="rotate(200)"><path d="M 0 213.74741268809885 L 0 277.8716364945285"/></g><g transform="rotate(220)"><path d="M 0 213.74741268809885 L 0 277.8716364945285"/></g><g transform="rotate(240)"><path d="M 0 213.74741268809885 L 0 277.8716364945285"/></g><g transform="rotate(260)"><path d="M 0 213.74741268809885 L 0 277.8716364945285"/></g><g transform="rotate(280)"><path d="M 0 213.74741268809885 L 0 277.8716364945285"/></g><g transform="rotate(300)"><path d="M 0 213.74741268809885 L 0 277.8716364945285"/></g><g transform="rotate(320)"><path d="M 0 213.74741268809885 L 0 277.8716364945285"/></g><g transform="rotate(340)"><path d="M 0 213.74741268809885 L 0 277.8716364945285"/></g><g transform="rotate(0)"><path d="M 0 264.32059667849296 L 0 343.61677568204084"/></g><g transform="rotate(20)"><path d="M 0 264.32059667849296 L 0 343.61677568204084"/></g><g transform="rotate(40)"><path d="M 0 264.32059667849296 L 0 343.61677568204084"/></g><g transform="rotate(60)"><path d="M 0 264.32059667849296 L 0 343.61677568204084"/></g><g transform="rotate(80)"><path d="M 0 264.32059667849296 L 0 343.61677568204084"/></g><g transform="rotate(100)"><path d="M 0 264.32059667849296 L 0 343.61677568204084"/></g><g transform="rotate(120)"><path d="M 0 264.32059667849296 L 0 343.61677568204084"/></g><g transform="rotate(140)"><path d="M 0 264.32059667849296 L 0 343.61677568204084"/></g><g transform="rotate(160)"><path d="M 0 264.32059667849296 L 0 343.61677568204084"/></g><g transform="rotate(180)"><path d="M 0 264.32059667849296 L 0 343.61677568204084"/></g><g transform="rotate(200)"><path d="M 0 264.32059667849296 L 0 343.61677568204084"/></g><g transform="rotate(220)"><path d="M 0 264.32059667849296 L 0 343.61677568204084"/></g><g transform="rotate(240)"><path d="M 0 264.32059667849296 L 0 343.61677568204084"/></g><g transform="rotate(260)"><path d="M 0 264.32059667849296 L 0 343.61677568204084"/></g><g transform="rotate(280)"><path d="M 0 264.32059667849296 L 0 343.61677568204084"/></g><g transform="rotate(300)"><path d="M 0 264.32059667849296 L 0 343.61677568204084"/></g><g transform="rotate(320)"><path d="M 0 264.32059667849296 L 0 343.61677568204084"/></g><g transform="rotate(340)"><path d="M 0 264.32059667849296 L 0 343.61677568204084"/></g><g transform="rotate(0)"><path d="M -78.09228489679906 312.36913958719623 Q 0 374.84296750463545 78.09228489679906 312.36913958719623"/></g><g transform="rotate(20)"><path d="M -78.09228489679906 312.36913958719623 Q 0 374.84296750463545 78.09228489679906 312.36913958719623"/></g><g transform="rotate(40)"><path d="M -78.09228489679906 312.36913958719623 Q 0 374.84296750463545 78.09228489679906 312.36913958719623"/></g><g transform="rotate(60)"><path d="M -78.09228489679906 312.36913958719623 Q 0 374.84296750463545 78.09228489679906 312.36913958719623"/></g><g transform="rotate(80)"><path d="M -78.09228489679906 312.36913958719623 Q 0 374.84296750463545 78.09228489679906 312.36913958719623"/></g><g transform="rotate(100)"><path d="M -78.09228489679906 312.36913958719623 Q 0 374.84296750463545 78.09228489679906 312.36913958719623"/></g><g transform="rotate(120)"><path d="M -78.09228489679906 312.36913958719623 Q 0 374.84296750463545 78.09228489679906 312.36913958719623"/></g><g transform="rotate(140)"><path d="M -78.09228489679906 312.36913958719623 Q 0 374.84296750463545 78.09228489679906 312.36913958719623"/></g><g transform="rotate(160)"><path d="M -78.09228489679906 312.36913958719623 Q 0 374.84296750463545 78.09228489679906 312.36913958719623"/></g><g transform="rotate(180)"><path d="M -78.09228489679906 312.36913958719623 Q 0 374.84296750463545 78.09228489679906 312.36913958719623"/></g><g transform="rotate(200)"><path d="M -78.09228489679906 312.36913958719623 Q 0 374.84296750463545 78.09228489679906 312.36913958719623"/></g><g transform="rotate(220)"><path d="M -78.09228489679906 312.36913958719623 Q 0 374.84296750463545 78.09228489679906 312.36913958719623"/></g><g transform="rotate(240)"><path d="M -78.09228489679906 312.36913958719623 Q 0 374.84296750463545 78.09228489679906 312.36913958719623"/></g><g transform="rotate(260)"><path d="M -78.09228489679906 312.36913958719623 Q 0 374.84296750463545 78.09228489679906 312.36913958719623"/></g><g transform="rotate(280)"><path d="M -78.09228489679906 312.36913958719623 Q 0 374.84296750463545 78.09228489679906 312.36913958719623"/></g><g transform="rotate(300)"><path d="M -78.09228489679906 312.36913958719623 Q 0 374.84296750463545 78.09228489679906 312.36913958719623"/></g><g transform="rotate(320)"><path d="M -78.09228489679906 312.36913958719623 Q 0 374.84296750463545 78.09228489679906 312.36913958719623"/></g><g transform="rotate(340)"><path d="M -78.09228489679906 312.36913958719623 Q 0 374.84296750463545 78.09228489679906 312.36913958719623"/></g></g></svg>