<svg xmlns="http://www.w3.org/2000/svg" viewBox="0 0 800 800" width="800" height="800">
    <rect width="100%" height="100%" fill="white"/>
    <g transform="translate(400, 400)" fill="none" stroke="black" stroke-width="4" stroke-linecap="round" stroke-linejoin="round"><g transform="rotate(0)"><path d="M 0 54.280437962152064 L 13.570109490538016 65.13652555458248 L 0 75.99261314701289 L -13.570109490538016 65.13652555458248 Z"/></g><g transform="rotate(45)"><path d="M 0 54.280437962152064 L 13.570109490538016 65.13652555458248 L 0 75.99261314701289 L -13.570109490538016 65.13652555458248 Z"/></g><g transform="rotate(90)"><path d="M 0 54.280437962152064 L 13.570109490538016 65.13652555458248 L 0 75.99261314701289 L -13.570109490538016 65.13652555458248 Z"/></g><g transform="rotate(135)"><path d="M 0 54.280437962152064 L 13.570109490538016 65.13652555458248 L 0 75.99261314701289 L -13.570109490538016 65.13652555458248 Z"/></g><g transform="rotate(180)"><path d="M 0 54.280437962152064 L 13.570109490538016 65.13652555458248 L 0 75.99261314701289 L -13.570109490538016 65.13652555458248 Z"/></g><g transform="rotate(225)"><path d="M 0 54.280437962152064 L 13.570109490538016 65.13652555458248 L 0 75.99261314701289 L -13.570109490538016 65.13652555458248 Z"/></g><g transform="rotate(270)"><path d="M 0 54.280437962152064 L 13.570109490538016 65.13652555458248 L 0 75.99261314701289 L -13.570109490538016 65.13652555458248 Z"/></g><g transform="rotate(315)"><path d="M 0 54.280437962152064 L 13.570109490538016 65.13652555458248 L 0 75.99261314701289 L -13.570109490538016 65.13652555458248 Z"/></g><g transform="rotate(0)"><path d="M 0 103.09105218232921 L 25.772763045582302 123.70926261879504 L 0 144.32747305526087 L -25.772763045582302 123.70926261879504 Z"/></g><g transform="rotate(45)"><path d="M 0 103.09105218232921 L 25.772763045582302 123.70926261879504 L 0 144.32747305526087 L -25.772763045582302 123.70926261879504 Z"/></g><g transform="rotate(90)"><path d="M 0 103.09105218232921 L 25.772763045582302 123.70926261879504 L 0 144.32747305526087 L -25.772763045582302 123.70926261879504 Z"/></g><g transform="rotate(135)"><path d="M 0 103.09105218232921 L 25.772763045582302 123.70926261879504 L 0 144.32747305526087 L -25.772763045582302 123.70926261879504 Z"/></g><g transform="rotate(180)"><path d="M 0 103.09105218232921 L 25.772763045582302 123.70926261879504 L 0 144.32747305526087 L -25.772763045582302 123.70926261879504 Z"/></g><g transform="rotate(225)"><path d="M 0 103.09105218232921 L 25.772763045582302 123.70926261879504 L 0 144.32747305526087 L -25.772763045582302 123.70926261879504 Z"/></g><g transform="rotate(270)"><path d="M 0 103.09105218232921 L 25.772763045582302 123.70926261879504 L 0 144.32747305526087 L -25.772763045582302 123.70926261879504 Z"/></g><g transform="rotate(315)"><path d="M 0 103.09105218232921 L 25.772763045582302 123.70926261879504 L 0 144.32747305526087 L -25.772763045582302 123.70926261879504 Z"/></g><g transform="rotate(0)"><circle cx="0" cy="165.71426327495527" r="41.42856581873882"/></g><g transform="rotate(45)"><circle cx="0" cy="165.71426327495527" r="41.42856581873882"/></g><g transform="rotate(90)"><circle cx="0" cy="165.71426327495527" r="41.42856581873882"/></g><g transform="rotate(135)"><circle cx="0" cy="165.71426327495527" r="41.42856581873882"/></g><g transform="rotate(180)"><circle cx="0" cy="165.71426327495527" r="41.42856581873882"/></g><g transform="rotate(225)"><circle cx="0" cy="165.71426327495527" r="41.42856581873882"/></g><g transform="rotate(270)"><circle cx="0" cy="165.71426327495527" r="41.42856581873882"/></g><g transform="rotate(315)"><circle cx="0" cy="165.71426327495527" r="41.42856581873882"/></g><g transform="rotate(0)"><circle cx="0" cy="217.22132322844118" r="54.305330807110295"/></g><g transform="rotate(45)"><circle cx="0" cy="217.22132322844118" r="54.305330807110295"/></g><g transform="rotate(90)"><circle cx="0" cy="217.22132322844118" r="54.305330807110295"/></g><g transform="rotate(135)"><circle cx="0" cy="217.22132322844118" r="54.305330807110295"/></g><g transform="rotate(180)"><circle cx="0" cy="217.22132322844118" r="54.305330807110295"/></g><g transform="rotate(225)"><circle cx="0" cy="217.22132322844118" r="54.305330807110295"/></g><g transform="rotate(270)"><circle cx="0" cy="217.22132322844118" r="54.305330807110295"/></g><g transform="rotate(315)"><circle cx="0" cy="217.22132322844118" r="54.305330807110295"/></g><g transform="rotate(0)"><path d="M -67.17953728473125 268.718149138925 Q 0 322.46177896671 67.17953728473125 268.718149138925"/></g><g transform="rotate(45)"><path d="M -67.17953728473125 268.718149138925 Q 0 322.46177896671 67.17953728473125 268.718149138925"/></g><g transform="rotate(90)"><path d="M -67.17953728473125 268.718149138925 Q 0 322.46177896671 67.17953728473125 268.718149138925"/></g><g transform="rotate(135)"><path d="M -67.17953728473125 268.718149138925 Q 0 322.46177896671 67.17953728473125 268.718149138925"/></g><g transform="rotate(180)"><path d="M -67.17953728473125 268.718149138925 Q 0 322.46177896671 67.17953728473125 268.718149138925"/></g><g transform="rotate(225)"><path d="M -67.17953728473125 268.718149138925 Q 0 322.46177896671 67.17953728473125 268.718149138925"/></g><g transform="rotate(270)"><path d="M -67.17953728473125 268.718149138925 Q 0 322.46177896671 67.17953728473125 268.718149138925"/></g><g transform="rotate(315)"><path d="M -67.17953728473125 268.718149138925 Q 0 322.46177896671 67.17953728473125 268.718149138925"/></g><g transform="rotate(0)"><path d="M -76.77541962397906 307.10167849591625 Q 0 368.5220141950995 76.77541962397906 307.10167849591625"/></g><g transform="rotate(45)"><path d="M -76.77541962397906 307.10167849591625 Q 0 368.5220141950995 76.77541962397906 307.10167849591625"/></g><g transform="rotate(90)"><path d="M -76.77541962397906 307.10167849591625 Q 0 368.5220141950995 76.77541962397906 307.10167849591625"/></g><g transform="rotate(135)"><path d="M -76.77541962397906 307.10167849591625 Q 0 368.5220141950995 76.77541962397906 307.10167849591625"/></g><g transform="rotate(180)"><path d="M -76.77541962397906 307.10167849591625 Q 0 368.5220141950995 76.77541962397906 307.10167849591625"/></g><g transform="rotate(225)"><path d="M -76.77541962397906 307.10167849591625 Q 0 368.5220141950995 76.77541962397906 307.10167849591625"/></g><g transform="rotate(270)"><path d="M -76.77541962397906 307.10167849591625 Q 0 368.5220141950995 76.77541962397906 307.10167849591625"/></g><g transform="rotate(315)"><path d="M -76.77541962397906 307.10167849591625 Q 0 368.5220141950995 76.77541962397906 307.10167849591625"/></g></g></svg>