<svg xmlns="http://www.w3.org/2000/svg" viewBox="0 0 800 800" width="800" height="800">
    <rect width="100%" height="100%" fill="white"/>
    <g transform="translate(400, 400)" fill="none" stroke="black" stroke-width="4" stroke-linecap="round" stroke-linejoin="round"><g transform="rotate(0)"><path d="M -11.25908415298909 45.03633661195636 Q 0 54.04360393434763 11.25908415298909 45.03633661195636"/></g><g transform="rotate(45)"><path d="M -11.25908415298909 45.03633661195636 Q 0 54.04360393434763 11.25908415298909 45.03633661195636"/></g><g transform="rotate(90)"><path d="M -11.25908415298909 45.03633661195636 Q 0 54.04360393434763 11.25908415298909 45.03633661195636"/></g><g transform="rotate(135)"><path d="M -11.25908415298909 45.03633661195636 Q 0 54.04360393434763 11.25908415298909 45.03633661195636"/></g><g transform="rotate(180)"><path d="M -11.25908415298909 45.03633661195636 Q 0 54.04360393434763 11.25908415298909 45.03633661195636"/></g><g transform="rotate(225)"><path d="M -11.25908415298909 45.03633661195636 Q 0 54.04360393434763 11.25908415298909 45.03633661195636"/></g><g transform="rotate(270)"><path d="M -11.25908415298909 45.03633661195636 Q 0 54.04360393434763 11.25908415298909 45.03633661195636"/></g><g transform="rotate(315)"><path d="M -11.25908415298909 45.03633661195636 Q 0 54.04360393434763 11.25908415298909 45.03633661195636"/></g><g transform="rotate(0)"><path d="M 0 99.48616172719215 L 0 129.3320102453498"/></g><g transform="rotate(45)"><path d="M 0 99.48616172719215 L 0 129.3320102453498"/></g><g transform="rotate(90)"><path d="M 0 99.48616172719215 L 0 129.3320102453498"/></g><g transform="rotate(135)"><path d="M 0 99.48616172719215 L 0 129.3320102453498"/></g><g transform="rotate(180)"><path d="M 0 99.48616172719215 L 0 129.3320102453498"/></g><g transform="rotate(225)"><path d="M 0 99.48616172719215 L 0 129.3320102453498"/></g><g transform="rotate(270)"><path d="M 0 99.48616172719215 L 0 129.3320102453498"/></g><g transform="rotate(315)"><path d="M 0 99.48616172719215 L 0 129.3320102453498"/></g><g transform="rotate(0)"><path d="M -33.16111114142197 132.64444456568788 Q 0 159.17333347882544 33.16111114142197 132.64444456568788"/></g><g transform="rotate(45)"><path d="M -33.16111114142197 132.64444456568788 Q 0 159.17333347882544 33.16111114142197 132.64444456568788"/></g><g transform="rotate(90)"><path d="M -33.16111114142197 132.64444456568788 Q 0 159.17333347882544 33.16111114142197 132.64444456568788"/></g><g transform="rotate(135)"><path d="M -33.16111114142197 132.64444456568788 Q 0 159.17333347882544 33.16111114142197 132.64444456568788"/></g><g transform="rotate(180)"><path d="M -33.16111114142197 132.64444456568788 Q 0 159.17333347882544 33.16111114142197 132.64444456568788"/></g><g transform="rotate(225)"><path d="M -33.16111114142197 132.64444456568788 Q 0 159.17333347882544 33.16111114142197 132.64444456568788"/></g><g transform="rotate(270)"><path d="M -33.16111114142197 132.64444456568788 Q 0 159.17333347882544 33.16111114142197 132.64444456568788"/></g><g transform="rotate(315)"><path d="M -33.16111114142197 132.64444456568788 Q 0 159.17333347882544 33.16111114142197 132.64444456568788"/></g><g transform="rotate(0)"><path d="M 0 182.05806835288448 L 0 236.67548885874982"/></g><g transform="rotate(45)"><path d="M 0 182.05806835288448 L 0 236.67548885874982"/></g><g transform="rotate(90)"><path d="M 0 182.05806835288448 L 0 236.67548885874982"/></g><g transform="rotate(135)"><path d="M 0 182.05806835288448 L 0 236.67548885874982"/></g><g transform="rotate(180)"><path d="M 0 182.05806835288448 L 0 236.67548885874982"/></g><g transform="rotate(225)"><path d="M 0 182.05806835288448 L 0 236.67548885874982"/></g><g transform="rotate(270)"><path d="M 0 182.05806835288448 L 0 236.67548885874982"/></g><g transform="rotate(315)"><path d="M 0 182.05806835288448 L 0 236.67548885874982"/></g><g transform="rotate(0)"><path d="M 0 229.53152377424496 L 0 298.39098090651845"/></g><g transform="rotate(45)"><path d="M 0 229.53152377424496 L 0 298.39098090651845"/></g><g transform="rotate(90)"><path d="M 0 229.53152377424496 L 0 298.39098090651845"/></g><g transform="rotate(135)"><path d="M 0 229.53152377424496 L 0 298.39098090651845"/></g><g transform="rotate(180)"><path d="M 0 229.53152377424496 L 0 298.39098090651845"/></g><g transform="rotate(225)"><path d="M 0 229.53152377424496 L 0 298.39098090651845"/></g><g transform="rotate(270)"><path d="M 0 229.53152377424496 L 0 298.39098090651845"/></g><g transform="rotate(315)"><path d="M 0 229.53152377424496 L 0 298.39098090651845"/></g><g transform="rotate(0)"><path d="M -69.7689651741114 279.0758606964456 Q 0 334.89103283573473 69.7689651741114 279.0758606964456"/></g><g transform="rotate(45)"><path d="M -69.7689651741114 279.0758606964456 Q 0 334.89103283573473 69.7689651741114 279.0758606964456"/></g><g transform="rotate(90)"><path d="M -69.7689651741114 279.0758606964456 Q 0 334.89103283573473 69.7689651741114 279.0758606964456"/></g><g transform="rotate(135)"><path d="M -69.7689651741114 279.0758606964456 Q 0 334.89103283573473 69.7689651741114 279.0758606964456"/></g><g transform="rotate(180)"><path d="M -69.7689651741114 279.0758606964456 Q 0 334.89103283573473 69.7689651741114 279.0758606964456"/></g><g transform="rotate(225)"><path d="M -69.7689651741114 279.0758606964456 Q 0 334.89103283573473 69.7689651741114 279.0758606964456"/></g><g transform="rotate(270)"><path d="M -69.7689651741114 279.0758606964456 Q 0 334.89103283573473 69.7689651741114 279.0758606964456"/></g><g transform="rotate(315)"><path d="M -69.7689651741114 279.0758606964456 Q 0 334.89103283573473 69.7689651741114 279.0758606964456"/></g><g transform="rotate(0)"><path d="M 0 323.9924665487238 L 0 421.19020651334097"/></g><g transform="rotate(45)"><path d="M 0 323.9924665487238 L 0 421.19020651334097"/></g><g transform="rotate(90)"><path d="M 0 323.9924665487238 L 0 421.19020651334097"/></g><g transform="rotate(135)"><path d="M 0 323.9924665487238 L 0 421.19020651334097"/></g><g transform="rotate(180)"><path d="M 0 323.9924665487238 L 0 421.19020651334097"/></g><g transform="rotate(225)"><path d="M 0 323.9924665487238 L 0 421.19020651334097"/></g><g transform="rotate(270)"><path d="M 0 323.9924665487238 L 0 421.19020651334097"/></g><g transform="rotate(315)"><path d="M 0 323.9924665487238 L 0 421.19020651334097"/></g></g></svg>