<svg xmlns="http://www.w3.org/2000/svg" viewBox="0 0 800 800" width="800" height="800">
    <rect width="100%" height="100%" fill="white"/>
    <g transform="translate(400, 400)" fill="none" stroke="black" stroke-width="4" stroke-linecap="round" stroke-linejoin="round"><g transform="rotate(0)"><path d="M 0 54.78437039535493 L 0 71.2196815139614"/></g><g transform="rotate(25.714285714285715)"><path d="M 0 54.78437039535493 L 0 71.2196815139614"/></g><g transform="rotate(51.42857142857143)"><path d="M 0 54.78437039535493 L 0 71.2196815139614"/></g><g transform="rotate(77.14285714285714)"><path d="M 0 54.78437039535493 L 0 71.2196815139614"/></g><g transform="rotate(102.85714285714286)"><path d="M 0 54.78437039535493 L 0 71.2196815139614"/></g><g transform="rotate(128.57142857142858)"><path d="M 0 54.78437039535493 L 0 71.2196815139614"/></g><g transform="rotate(154.28571428571428)"><path d="M 0 54.78437039535493 L 0 71.2196815139614"/></g><g transform="rotate(180)"><path d="M 0 54.78437039535493 L 0 71.2196815139614"/></g><g transform="rotate(205.71428571428572)"><path d="M 0 54.78437039535493 L 0 71.2196815139614"/></g><g transform="rotate(231.42857142857142)"><path d="M 0 54.78437039535493 L 0 71.2196815139614"/></g><g transform="rotate(257.14285714285717)"><path d="M 0 54.78437039535493 L 0 71.2196815139614"/></g><g transform="rotate(282.85714285714283)"><path d="M 0 54.78437039535493 L 0 71.2196815139614"/></g><g transform="rotate(308.57142857142856)"><path d="M 0 54.78437039535493 L 0 71.2196815139614"/></g><g transform="rotate(334.2857142857143)"><path d="M 0 54.78437039535493 L 0 71.2196815139614"/></g><g transform="rotate(0)"><path d="M 0 112.43382362493625 L 28.108455906234063 134.9205883499235 L 0 157.40735307491073 L -28.108455906234063 134.9205883499235 Z"/></g><g transform="rotate(25.714285714285715)"><path d="M 0 112.43382362493625 L 28.108455906234063 134.9205883499235 L 0 157.40735307491073 L -28.108455906234063 134.9205883499235 Z"/></g><g transform="rotate(51.42857142857143)"><path d="M 0 112.43382362493625 L 28.108455906234063 134.9205883499235 L 0 157.40735307491073 L -28.108455906234063 134.9205883499235 Z"/></g><g transform="rotate(77.14285714285714)"><path d="M 0 112.43382362493625 L 28.108455906234063 134.9205883499235 L 0 157.40735307491073 L -28.108455906234063 134.9205883499235 Z"/></g><g transform="rotate(102.85714285714286)"><path d="M 0 112.43382362493625 L 28.108455906234063 134.9205883499235 L 0 157.40735307491073 L -28.108455906234063 134.9205883499235 Z"/></g><g transform="rotate(128.57142857142858)"><path d="M 0 112.43382362493625 L 28.108455906234063 134.9205883499235 L 0 157.40735307491073 L -28.108455906234063 134.9205883499235 Z"/></g><g transform="rotate(154.28571428571428)"><path d="M 0 112.43382362493625 L 28.108455906234063 134.9205883499235 L 0 157.40735307491073 L -28.108455906234063 134.9205883499235 Z"/></g><g transform="rotate(180)"><path d="M 0 112.43382362493625 L 28.108455906234063 134.9205883499235 L 0 157.40735307491073 L -28.108455906234063 134.9205883499235 Z"/></g><g transform="rotate(205.71428571428572)"><path d="M 0 112.43382362493625 L 28.108455906234063 134.9205883499235 L 0 157.40735307491073 L -28.108455906234063 134.9205883499235 Z"/></g><g transform="rotate(231.42857142857142)"><path d="M 0 112.43382362493625 L 28.108455906234063 134.9205883499235 L 0 157.40735307491073 L -28.108455906234063 134.9205883499235 Z"/></g><g transform="rotate(257.14285714285717)"><path d="M 0 112.43382362493625 L 28.108455906234063 134.9205883499235 L 0 157.40735307491073 L -28.108455906234063 134.9205883499235 Z"/></g><g transform="rotate(282.85714285714283)"><path d="M 0 112.43382362493625 L 28.108455906234063 134.9205883499235 L 0 157.40735307491073 L -28.108455906234063 134.9205883499235 Z"/></g><g transform="rotate(308.57142857142856)"><path d="M 0 112.43382362493625 L 28.108455906234063 134.9205883499235 L 0 157.40735307491073 L -28.108455906234063 134.9205883499235 Z"/></g><g transform="rotate(334.2857142857143)"><path d="M 0 112.43382362493625 L 28.108455906234063 134.9205883499235 L 0 157.40735307491073 L -28.108455906234063 134.9205883499235 Z"/></g><g transform="rotate(0)"><path d="M -40.12327857354346 160.49311429417384 Q 0 192.5917371530086 40.12327857354346 160.49311429417384"/></g><g transform="rotate(25.714285714285715)"><path d="M -40.12327857354346 160.49311429417384 Q 0 192.5917371530086 40.12327857354346 160.49311429417384"/></g><g transform="rotate(51.42857142857143)"><path d="M -40.12327857354346 160.49311429417384 Q 0 192.5917371530086 40.12327857354346 160.49311429417384"/></g><g transform="rotate(77.14285714285714)"><path d="M -40.12327857354346 160.49311429417384 Q 0 192.5917371530086 40.12327857354346 160.49311429417384"/></g><g transform="rotate(102.85714285714286)"><path d="M -40.12327857354346 160.49311429417384 Q 0 192.5917371530086 40.12327857354346 160.49311429417384"/></g><g transform="rotate(128.57142857142858)"><path d="M -40.12327857354346 160.49311429417384 Q 0 192.5917371530086 40.12327857354346 160.49311429417384"/></g><g transform="rotate(154.28571428571428)"><path d="M -40.12327857354346 160.49311429417384 Q 0 192.5917371530086 40.12327857354346 160.49311429417384"/></g><g transform="rotate(180)"><path d="M -40.12327857354346 160.49311429417384 Q 0 192.5917371530086 40.12327857354346 160.49311429417384"/></g><g transform="rotate(205.71428571428572)"><path d="M -40.12327857354346 160.49311429417384 Q 0 192.5917371530086 40.12327857354346 160.49311429417384"/></g><g transform="rotate(231.42857142857142)"><path d="M -40.12327857354346 160.49311429417384 Q 0 192.5917371530086 40.12327857354346 160.49311429417384"/></g><g transform="rotate(257.14285714285717)"><path d="M -40.12327857354346 160.49311429417384 Q 0 192.5917371530086 40.12327857354346 160.49311429417384"/></g><g transform="rotate(282.85714285714283)"><path d="M -40.12327857354346 160.49311429417384 Q 0 192.5917371530086 40.12327857354346 160.49311429417384"/></g><g transform="rotate(308.57142857142856)"><path d="M -40.12327857354346 160.49311429417384 Q 0 192.5917371530086 40.12327857354346 160.49311429417384"/></g><g transform="rotate(334.2857142857143)"><path d="M -40.12327857354346 160.49311429417384 Q 0 192.5917371530086 40.12327857354346 160.49311429417384"/></g><g transform="rotate(0)"><path d="M 0 209.01724854949862 Q 69.6724161831662 250.82069825939834 0 313.5258728242479 Q -69.6724161831662 250.82069825939834 0 209.01724854949862"/></g><g transform="rotate(25.714285714285715)"><path d="M 0 209.01724854949862 Q 69.6724161831662 250.82069825939834 0 313.5258728242479 Q -69.6724161831662 250.82069825939834 0 209.01724854949862"/></g><g transform="rotate(51.42857142857143)"><path d="M 0 209.01724854949862 Q 69.6724161831662 250.82069825939834 0 313.5258728242479 Q -69.6724161831662 250.82069825939834 0 209.01724854949862"/></g><g transform="rotate(77.14285714285714)"><path d="M 0 209.01724854949862 Q 69.6724161831662 250.82069825939834 0 313.5258728242479 Q -69.6724161831662 250.82069825939834 0 209.01724854949862"/></g><g transform="rotate(102.85714285714286)"><path d="M 0 209.01724854949862 Q 69.6724161831662 250.82069825939834 0 313.5258728242479 Q -69.6724161831662 250.82069825939834 0 209.01724854949862"/></g><g transform="rotate(128.57142857142858)"><path d="M 0 209.01724854949862 Q 69.6724161831662 250.82069825939834 0 313.5258728242479 Q -69.6724161831662 250.82069825939834 0 209.01724854949862"/></g><g transform="rotate(154.28571428571428)"><path d="M 0 209.01724854949862 Q 69.6724161831662 250.82069825939834 0 313.5258728242479 Q -69.6724161831662 250.82069825939834 0 209.01724854949862"/></g><g transform="rotate(180)"><path d="M 0 209.01724854949862 Q 69.6724161831662 250.82069825939834 0 313.5258728242479 Q -69.6724161831662 250.82069825939834 0 209.01724854949862"/></g><g transform="rotate(205.71428571428572)"><path d="M 0 209.01724854949862 Q 69.6724161831662 250.82069825939834 0 313.5258728242479 Q -69.6724161831662 250.82069825939834 0 209.01724854949862"/></g><g transform="rotate(231.42857142857142)"><path d="M 0 209.01724854949862 Q 69.6724161831662 250.82069825939834 0 313.5258728242479 Q -69.6724161831662 250.82069825939834 0 209.01724854949862"/></g><g transform="rotate(257.14285714285717)"><path d="M 0 209.01724854949862 Q 69.6724161831662 250.82069825939834 0 313.5258728242479 Q -69.6724161831662 250.82069825939834 0 209.01724854949862"/></g><g transform="rotate(282.85714285714283)"><path d="M 0 209.01724854949862 Q 69.6724161831662 250.82069825939834 0 313.5258728242479 Q -69.6724161831662 250.82069825939834 0 209.01724854949862"/></g><g transform="rotate(308.57142857142856)"><path d="M 0 209.01724854949862 Q 69.6724161831662 250.82069825939834 0 313.5258728242479 Q -69.6724161831662 250.82069825939834 0 209.01724854949862"/></g><g transform="rotate(334.2857142857143)"><path d="M 0 209.01724854949862 Q 69.6724161831662 250.82069825939834 0 313.5258728242479 Q -69.6724161831662 250.82069825939834 0 209.01724854949862"/></g><g transform="rotate(0)"><path d="M 0 256.244525879932 L 0 333.11788364391157"/></g><g transform="rotate(25.714285714285715)"><path d="M 0 256.244525879932 L 0 333.11788364391157"/></g><g transform="rotate(51.42857142857143)"><path d="M 0 256.244525879932 L 0 333.11788364391157"/></g><g transform="rotate(77.14285714285714)"><path d="M 0 256.244525879932 L 0 333.11788364391157"/></g><g transform="rotate(102.85714285714286)"><path d="M 0 256.244525879932 L 0 333.11788364391157"/></g><g transform="rotate(128.57142857142858)"><path d="M 0 256.244525879932 L 0 333.11788364391157"/></g><g transform="rotate(154.28571428571428)"><path d="M 0 256.244525879932 L 0 333.11788364391157"/></g><g transform="rotate(180)"><path d="M 0 256.244525879932 L 0 333.11788364391157"/></g><g transform="rotate(205.71428571428572)"><path d="M 0 256.244525879932 L 0 333.11788364391157"/></g><g transform="rotate(231.42857142857142)"><path d="M 0 256.244525879932 L 0 333.11788364391157"/></g><g transform="rotate(257.14285714285717)"><path d="M 0 256.244525879932 L 0 333.11788364391157"/></g><g transform="rotate(282.85714285714283)"><path d="M 0 256.244525879932 L 0 333.11788364391157"/></g><g transform="rotate(308.57142857142856)"><path d="M 0 256.244525879932 L 0 333.11788364391157"/></g><g transform="rotate(334.2857142857143)"><path d="M 0 256.244525879932 L 0 333.11788364391157"/></g><g transform="rotate(0)"><path d="M 0 313.81462535976124 Q 104.60487511992041 376.57755043171346 0 470.7219380396418 Q -104.60487511992041 376.57755043171346 0 313.81462535976124"/></g><g transform="rotate(25.714285714285715)"><path d="M 0 313.81462535976124 Q 104.60487511992041 376.57755043171346 0 470.7219380396418 Q -104.60487511992041 376.57755043171346 0 313.81462535976124"/></g><g transform="rotate(51.42857142857143)"><path d="M 0 313.81462535976124 Q 104.60487511992041 376.57755043171346 0 470.7219380396418 Q -104.60487511992041 376.57755043171346 0 313.81462535976124"/></g><g transform="rotate(77.14285714285714)"><path d="M 0 313.81462535976124 Q 104.60487511992041 376.57755043171346 0 470.7219380396418 Q -104.60487511992041 376.57755043171346 0 313.81462535976124"/></g><g transform="rotate(102.85714285714286)"><path d="M 0 313.81462535976124 Q 104.60487511992041 376.57755043171346 0 470.7219380396418 Q -104.60487511992041 376.57755043171346 0 313.81462535976124"/></g><g transform="rotate(128.57142857142858)"><path d="M 0 313.81462535976124 Q 104.60487511992041 376.57755043171346 0 470.7219380396418 Q -104.60487511992041 376.57755043171346 0 313.81462535976124"/></g><g transform="rotate(154.28571428571428)"><path d="M 0 313.81462535976124 Q 104.60487511992041 376.57755043171346 0 470.7219380396418 Q -104.60487511992041 376.57755043171346 0 313.81462535976124"/></g><g transform="rotate(180)"><path d="M 0 313.81462535976124 Q 104.60487511992041 376.57755043171346 0 470.7219380396418 Q -104.60487511992041 376.57755043171346 0 313.81462535976124"/></g><g transform="rotate(205.71428571428572)"><path d="M 0 313.81462535976124 Q 104.60487511992041 376.57755043171346 0 470.7219380396418 Q -104.60487511992041 376.57755043171346 0 313.81462535976124"/></g><g transform="rotate(231.42857142857142)"><path d="M 0 313.81462535976124 Q 104.60487511992041 376.57755043171346 0 470.7219380396418 Q -104.60487511992041 376.57755043171346 0 313.81462535976124"/></g><g transform="rotate(257.14285714285717)"><path d="M 0 313.81462535976124 Q 104.60487511992041 376.57755043171346 0 470.7219380396418 Q -104.60487511992041 376.57755043171346 0 313.81462535976124"/></g><g transform="rotate(282.85714285714283)"><path d="M 0 313.81462535976124 Q 104.60487511992041 376.57755043171346 0 470.7219380396418 Q -104.60487511992041 376.57755043171346 0 313.81462535976124"/></g><g transform="rotate(308.57142857142856)"><path d="M 0 313.81462535976124 Q 104.60487511992041 376.57755043171346 0 470.7219380396418 Q -104.60487511992041 376.57755043171346 0 313.81462535976124"/></g><g transform="rotate(334.2857142857143)"><path d="M 0 313.81462535976124 Q 104.60487511992041 376.57755043171346 0 470.7219380396418 Q -104.60487511992041 376.57755043171346 0 313.81462535976124"/></g></g></svg>