<svg xmlns="http://www.w3.org/2000/svg" viewBox="0 0 800 800" width="800" height="800">
    <rect width="100%" height="100%" fill="white"/>
    <g transform="translate(400, 400)" fill="none" stroke="black" stroke-width="4" stroke-linecap="round" stroke-linejoin="round"><g transform="rotate(0)"><path d="M -12.491363995941356 49.96545598376542 Q 0 59.95854718051851 12.491363995941356 49.96545598376542"/></g><g transform="rotate(45)"><path d="M -12.491363995941356 49.96545598376542 Q 0 59.95854718051851 12.491363995941356 49.96545598376542"/></g><g transform="rotate(90)"><path d="M -12.491363995941356 49.96545598376542 Q 0 59.95854718051851 12.491363995941356 49.96545598376542"/></g><g transform="rotate(135)"><path d="M -12.491363995941356 49.96545598376542 Q 0 59.95854718051851 12.491363995941356 49.96545598376542"/></g><g transform="rotate(180)"><path d="M -12.491363995941356 49.96545598376542 Q 0 59.95854718051851 12.491363995941356 49.96545598376542"/></g><g transform="rotate(225)"><path d="M -12.491363995941356 49.96545598376542 Q 0 59.95854718051851 12.491363995941356 49.96545598376542"/></g><g transform="rotate(270)"><path d="M -12.491363995941356 49.96545598376542 Q 0 59.95854718051851 12.491363995941356 49.96545598376542"/></g><g transform="rotate(315)"><path d="M -12.491363995941356 49.96545598376542 Q 0 59.95854718051851 12.491363995941356 49.96545598376542"/></g><g transform="rotate(0)"><path d="M -29.339329728623852 117.35731891449541 Q 0 140.82878269739447 29.339329728623852 117.35731891449541"/></g><g transform="rotate(45)"><path d="M -29.339329728623852 117.35731891449541 Q 0 140.82878269739447 29.339329728623852 117.35731891449541"/></g><g transform="rotate(90)"><path d="M -29.339329728623852 117.35731891449541 Q 0 140.82878269739447 29.339329728623852 117.35731891449541"/></g><g transform="rotate(135)"><path d="M -29.339329728623852 117.35731891449541 Q 0 140.82878269739447 29.339329728623852 117.35731891449541"/></g><g transform="rotate(180)"><path d="M -29.339329728623852 117.35731891449541 Q 0 140.82878269739447 29.339329728623852 117.35731891449541"/></g><g transform="rotate(225)"><path d="M -29.339329728623852 117.35731891449541 Q 0 140.82878269739447 29.339329728623852 117.35731891449541"/></g><g transform="rotate(270)"><path d="M -29.339329728623852 117.35731891449541 Q 0 140.82878269739447 29.339329728623852 117.35731891449541"/></g><g transform="rotate(315)"><path d="M -29.339329728623852 117.35731891449541 Q 0 140.82878269739447 29.339329728623852 117.35731891449541"/></g><g transform="rotate(0)"><path d="M 0 182.68223469797522 L 45.670558674493805 219.21868163757026 L 0 255.7551285771653 L -45.670558674493805 219.21868163757026 Z"/></g><g transform="rotate(45)"><path d="M 0 182.68223469797522 L 45.670558674493805 219.21868163757026 L 0 255.7551285771653 L -45.670558674493805 219.21868163757026 Z"/></g><g transform="rotate(90)"><path d="M 0 182.68223469797522 L 45.670558674493805 219.21868163757026 L 0 255.7551285771653 L -45.670558674493805 219.21868163757026 Z"/></g><g transform="rotate(135)"><path d="M 0 182.68223469797522 L 45.670558674493805 219.21868163757026 L 0 255.7551285771653 L -45.670558674493805 219.21868163757026 Z"/></g><g transform="rotate(180)"><path d="M 0 182.68223469797522 L 45.670558674493805 219.21868163757026 L 0 255.7551285771653 L -45.670558674493805 219.21868163757026 Z"/></g><g transform="rotate(225)"><path d="M 0 182.68223469797522 L 45.670558674493805 219.21868163757026 L 0 255.7551285771653 L -45.670558674493805 219.21868163757026 Z"/></g><g transform="rotate(270)"><path d="M 0 182.68223469797522 L 45.670558674493805 219.21868163757026 L 0 255.7551285771653 L -45.670558674493805 219.21868163757026 Z"/></g><g transform="rotate(315)"><path d="M 0 182.68223469797522 L 45.670558674493805 219.21868163757026 L 0 255.7551285771653 L -45.670558674493805 219.21868163757026 Z"/></g><g transform="rotate(0)"><circle cx="0" cy="237.60230806004256" r="59.40057701501064"/></g><g transform="rotate(45)"><circle cx="0" cy="237.60230806004256" r="59.40057701501064"/></g><g transform="rotate(90)"><circle cx="0" cy="237.60230806004256" r="59.40057701501064"/></g><g transform="rotate(135)"><circle cx="0" cy="237.60230806004256" r="59.40057701501064"/></g><g transform="rotate(180)"><circle cx="0" cy="237.60230806004256" r="59.40057701501064"/></g><g transform="rotate(225)"><circle cx="0" cy="237.60230806004256" r="59.40057701501064"/></g><g transform="rotate(270)"><circle cx="0" cy="237.60230806004256" r="59.40057701501064"/></g><g transform="rotate(315)"><circle cx="0" cy="237.60230806004256" r="59.40057701501064"/></g><g transform="rotate(0)"><circle cx="0" cy="299.8412405969575" r="74.96031014923938"/></g><g transform="rotate(45)"><circle cx="0" cy="299.8412405969575" r="74.96031014923938"/></g><g transform="rotate(90)"><circle cx="0" cy="299.8412405969575" r="74.96031014923938"/></g><g transform="rotate(135)"><circle cx="0" cy="299.8412405969575" r="74.96031014923938"/></g><g transform="rotate(180)"><circle cx="0" cy="299.8412405969575" r="74.96031014923938"/></g><g transform="rotate(225)"><circle cx="0" cy="299.8412405969575" r="74.96031014923938"/></g><g transform="rotate(270)"><circle cx="0" cy="299.8412405969575" r="74.96031014923938"/></g><g transform="rotate(315)"><circle cx="0" cy="299.8412405969575" r="74.96031014923938"/></g></g></svg>