<svg xmlns="http://www.w3.org/2000/svg" viewBox="0 0 800 800" width="800" height="800">
    <rect width="100%" height="100%" fill="white"/>
    <g transform="translate(400, 400)" fill="none" stroke="black" stroke-width="4" stroke-linecap="round" stroke-linejoin="round"><g transform="rotate(0)"><path d="M 0 53.47728556022048 Q 17.825761853406828 64.17274267226458 0 80.21592834033072 Q -17.825761853406828 64.17274267226458 0 53.47728556022048"/></g><g transform="rotate(36)"><path d="M 0 53.47728556022048 Q 17.825761853406828 64.17274267226458 0 80.21592834033072 Q -17.825761853406828 64.17274267226458 0 53.47728556022048"/></g><g transform="rotate(72)"><path d="M 0 53.47728556022048 Q 17.825761853406828 64.17274267226458 0 80.21592834033072 Q -17.825761853406828 64.17274267226458 0 53.47728556022048"/></g><g transform="rotate(108)"><path d="M 0 53.47728556022048 Q 17.825761853406828 64.17274267226458 0 80.21592834033072 Q -17.825761853406828 64.17274267226458 0 53.47728556022048"/></g><g transform="rotate(144)"><path d="M 0 53.47728556022048 Q 17.825761853406828 64.17274267226458 0 80.21592834033072 Q -17.825761853406828 64.17274267226458 0 53.47728556022048"/></g><g transform="rotate(180)"><path d="M 0 53.47728556022048 Q 17.825761853406828 64.17274267226458 0 80.21592834033072 Q -17.825761853406828 64.17274267226458 0 53.47728556022048"/></g><g transform="rotate(216)"><path d="M 0 53.47728556022048 Q 17.825761853406828 64.17274267226458 0 80.21592834033072 Q -17.825761853406828 64.17274267226458 0 53.47728556022048"/></g><g transform="rotate(252)"><path d="M 0 53.47728556022048 Q 17.825761853406828 64.17274267226458 0 80.21592834033072 Q -17.825761853406828 64.17274267226458 0 53.47728556022048"/></g><g transform="rotate(288)"><path d="M 0 53.47728556022048 Q 17.825761853406828 64.17274267226458 0 80.21592834033072 Q -17.825761853406828 64.17274267226458 0 53.47728556022048"/></g><g transform="rotate(324)"><path d="M 0 53.47728556022048 Q 17.825761853406828 64.17274267226458 0 80.21592834033072 Q -17.825761853406828 64.17274267226458 0 53.47728556022048"/></g><g transform="rotate(0)"><path d="M 0 125.46719028614461 L 0 163.107347371988"/></g><g transform="rotate(36)"><path d="M 0 125.46719028614461 L 0 163.107347371988"/></g><g transform="rotate(72)"><path d="M 0 125.46719028614461 L 0 163.107347371988"/></g><g transform="rotate(108)"><path d="M 0 125.46719028614461 L 0 163.107347371988"/></g><g transform="rotate(144)"><path d="M 0 125.46719028614461 L 0 163.107347371988"/></g><g transform="rotate(180)"><path d="M 0 125.46719028614461 L 0 163.107347371988"/></g><g transform="rotate(216)"><path d="M 0 125.46719028614461 L 0 163.107347371988"/></g><g transform="rotate(252)"><path d="M 0 125.46719028614461 L 0 163.107347371988"/></g><g transform="rotate(288)"><path d="M 0 125.46719028614461 L 0 163.107347371988"/></g><g transform="rotate(324)"><path d="M 0 125.46719028614461 L 0 163.107347371988"/></g><g transform="rotate(0)"><circle cx="0" cy="212.52356112003326" r="53.130890280008316"/></g><g transform="rotate(36)"><circle cx="0" cy="212.52356112003326" r="53.130890280008316"/></g><g transform="rotate(72)"><circle cx="0" cy="212.52356112003326" r="53.130890280008316"/></g><g transform="rotate(108)"><circle cx="0" cy="212.52356112003326" r="53.130890280008316"/></g><g transform="rotate(144)"><circle cx="0" cy="212.52356112003326" r="53.130890280008316"/></g><g transform="rotate(180)"><circle cx="0" cy="212.52356112003326" r="53.130890280008316"/></g><g transform="rotate(216)"><circle cx="0" cy="212.52356112003326" r="53.130890280008316"/></g><g transform="rotate(252)"><circle cx="0" cy="212.52356112003326" r="53.130890280008316"/></g><g transform="rotate(288)"><circle cx="0" cy="212.52356112003326" r="53.130890280008316"/></g><g transform="rotate(324)"><circle cx="0" cy="212.52356112003326" r="53.130890280008316"/></g><g transform="rotate(0)"><path d="M -74.16304162004963 296.6521664801985 Q 0 355.9825997762382 74.16304162004963 296.6521664801985"/></g><g transform="rotate(36)"><path d="M -74.16304162004963 296.6521664801985 Q 0 355.9825997762382 74.16304162004963 296.6521664801985"/></g><g transform="rotate(72)"><path d="M -74.16304162004963 296.6521664801985 Q 0 355.9825997762382 74.16304162004963 296.6521664801985"/></g><g transform="rotate(108)"><path d="M -74.16304162004963 296.6521664801985 Q 0 355.9825997762382 74.16304162004963 296.6521664801985"/></g><g transform="rotate(144)"><path d="M -74.16304162004963 296.6521664801985 Q 0 355.9825997762382 74.16304162004963 296.6521664801985"/></g><g transform="rotate(180)"><path d="M -74.16304162004963 296.6521664801985 Q 0 355.9825997762382 74.16304162004963 296.6521664801985"/></g><g transform="rotate(216)"><path d="M -74.16304162004963 296.6521664801985 Q 0 355.9825997762382 74.16304162004963 296.6521664801985"/></g><g transform="rotate(252)"><path d="M -74.16304162004963 296.6521664801985 Q 0 355.9825997762382 74.16304162004963 296.6521664801985"/></g><g transform="rotate(288)"><path d="M -74.16304162004963 296.6521664801985 Q 0 355.9825997762382 74.16304162004963 296.6521664801985"/></g><g transform="rotate(324)"><path d="M -74.16304162004963 296.6521664801985 Q 0 355.9825997762382 74.16304162004963 296.6521664801985"/></g></g></svg>