<svg xmlns="http://www.w3.org/2000/svg" viewBox="0 0 800 800" width="800" height="800">
    <rect width="100%" height="100%" fill="white"/>
    <g transform="translate(400, 400)" fill="none" stroke="black" stroke-width="4" stroke-linecap="round" stroke-linejoin="round"><g transform="rotate(0)"><path d="M -12.715778972487897 50.86311588995159 Q 0 61.035739067941904 12.715778972487897 50.86311588995159"/></g><g transform="rotate(60)"><path d="M -12.715778972487897 50.86311588995159 Q 0 61.035739067941904 12.715778972487897 50.86311588995159"/></g><g transform="rotate(120)"><path d="M -12.715778972487897 50.86311588995159 Q 0 61.035739067941904 12.715778972487897 50.86311588995159"/></g><g transform="rotate(180)"><path d="M -12.715778972487897 50.86311588995159 Q 0 61.035739067941904 12.715778972487897 50.86311588995159"/></g><g transform="rotate(240)"><path d="M -12.715778972487897 50.86311588995159 Q 0 61.035739067941904 12.715778972487897 50.86311588995159"/></g><g transform="rotate(300)"><path d="M -12.715778972487897 50.86311588995159 Q 0 61.035739067941904 12.715778972487897 50.86311588995159"/></g><g transform="rotate(0)"><path d="M 0 138.20059027522802 Q 46.06686342507601 165.84070833027363 0 207.30088541284204 Q -46.06686342507601 165.84070833027363 0 138.20059027522802"/></g><g transform="rotate(60)"><path d="M 0 138.20059027522802 Q 46.06686342507601 165.84070833027363 0 207.30088541284204 Q -46.06686342507601 165.84070833027363 0 138.20059027522802"/></g><g transform="rotate(120)"><path d="M 0 138.20059027522802 Q 46.06686342507601 165.84070833027363 0 207.30088541284204 Q -46.06686342507601 165.84070833027363 0 138.20059027522802"/></g><g transform="rotate(180)"><path d="M 0 138.20059027522802 Q 46.06686342507601 165.84070833027363 0 207.30088541284204 Q -46.06686342507601 165.84070833027363 0 138.20059027522802"/></g><g transform="rotate(240)"><path d="M 0 138.20059027522802 Q 46.06686342507601 165.84070833027363 0 207.30088541284204 Q -46.06686342507601 165.84070833027363 0 138.20059027522802"/></g><g transform="rotate(300)"><path d="M 0 138.20059027522802 Q 46.06686342507601 165.84070833027363 0 207.30088541284204 Q -46.06686342507601 165.84070833027363 0 138.20059027522802"/></g><g transform="rotate(0)"><path d="M 0 209.9177881050855 L 52.47944702627137 251.9013457261026 L 0 293.8849033471197 L -52.47944702627137 251.9013457261026 Z"/></g><g transform="rotate(60)"><path d="M 0 209.9177881050855 L 52.47944702627137 251.9013457261026 L 0 293.8849033471197 L -52.47944702627137 251.9013457261026 Z"/></g><g transform="rotate(120)"><path d="M 0 209.9177881050855 L 52.47944702627137 251.9013457261026 L 0 293.8849033471197 L -52.47944702627137 251.9013457261026 Z"/></g><g transform="rotate(180)"><path d="M 0 209.9177881050855 L 52.47944702627137 251.9013457261026 L 0 293.8849033471197 L -52.47944702627137 251.9013457261026 Z"/></g><g transform="rotate(240)"><path d="M 0 209.9177881050855 L 52.47944702627137 251.9013457261026 L 0 293.8849033471197 L -52.47944702627137 251.9013457261026 Z"/></g><g transform="rotate(300)"><path d="M 0 209.9177881050855 L 52.47944702627137 251.9013457261026 L 0 293.8849033471197 L -52.47944702627137 251.9013457261026 Z"/></g><g transform="rotate(0)"><path d="M -72.98050058539957 291.9220023415983 Q 0 350.3064028099179 72.98050058539957 291.9220023415983"/></g><g transform="rotate(60)"><path d="M -72.98050058539957 291.9220023415983 Q 0 350.3064028099179 72.98050058539957 291.9220023415983"/></g><g transform="rotate(120)"><path d="M -72.98050058539957 291.9220023415983 Q 0 350.3064028099179 72.98050058539957 291.9220023415983"/></g><g transform="rotate(180)"><path d="M -72.98050058539957 291.9220023415983 Q 0 350.3064028099179 72.98050058539957 291.9220023415983"/></g><g transform="rotate(240)"><path d="M -72.98050058539957 291.9220023415983 Q 0 350.3064028099179 72.98050058539957 291.9220023415983"/></g><g transform="rotate(300)"><path d="M -72.98050058539957 291.9220023415983 Q 0 350.3064028099179 72.98050058539957 291.9220023415983"/></g></g></svg>