<svg xmlns="http://www.w3.org/2000/svg" viewBox="0 0 800 800" width="800" height="800">
    <rect width="100%" height="100%" fill="white"/>
    <g transform="translate(400, 400)" fill="none" stroke="black" stroke-width="4" stroke-linecap="round" stroke-linejoin="round"><g transform="rotate(0)"><path d="M -10.581914859358221 42.327659437432885 Q 0 50.79319132491946 10.581914859358221 42.327659437432885"/></g><g transform="rotate(18)"><path d="M -10.581914859358221 42.327659437432885 Q 0 50.79319132491946 10.581914859358221 42.327659437432885"/></g><g transform="rotate(36)"><path d="M -10.581914859358221 42.327659437432885 Q 0 50.79319132491946 10.581914859358221 42.327659437432885"/></g><g transform="rotate(54)"><path d="M -10.581914859358221 42.327659437432885 Q 0 50.79319132491946 10.581914859358221 42.327659437432885"/></g><g transform="rotate(72)"><path d="M -10.581914859358221 42.327659437432885 Q 0 50.79319132491946 10.581914859358221 42.327659437432885"/></g><g transform="rotate(90)"><path d="M -10.581914859358221 42.327659437432885 Q 0 50.79319132491946 10.581914859358221 42.327659437432885"/></g><g transform="rotate(108)"><path d="M -10.581914859358221 42.327659437432885 Q 0 50.79319132491946 10.581914859358221 42.327659437432885"/></g><g transform="rotate(126)"><path d="M -10.581914859358221 42.327659437432885 Q 0 50.79319132491946 10.581914859358221 42.327659437432885"/></g><g transform="rotate(144)"><path d="M -10.581914859358221 42.327659437432885 Q 0 50.79319132491946 10.581914859358221 42.327659437432885"/></g><g transform="rotate(162)"><path d="M -10.581914859358221 42.327659437432885 Q 0 50.79319132491946 10.581914859358221 42.327659437432885"/></g><g transform="rotate(180)"><path d="M -10.581914859358221 42.327659437432885 Q 0 50.79319132491946 10.581914859358221 42.327659437432885"/></g><g transform="rotate(198)"><path d="M -10.581914859358221 42.327659437432885 Q 0 50.79319132491946 10.581914859358221 42.327659437432885"/></g><g transform="rotate(216)"><path d="M -10.581914859358221 42.327659437432885 Q 0 50.79319132491946 10.581914859358221 42.327659437432885"/></g><g transform="rotate(234)"><path d="M -10.581914859358221 42.327659437432885 Q 0 50.79319132491946 10.581914859358221 42.327659437432885"/></g><g transform="rotate(252)"><path d="M -10.581914859358221 42.327659437432885 Q 0 50.79319132491946 10.581914859358221 42.327659437432885"/></g><g transform="rotate(270)"><path d="M -10.581914859358221 42.327659437432885 Q 0 50.79319132491946 10.581914859358221 42.327659437432885"/></g><g transform="rotate(288)"><path d="M -10.581914859358221 42.327659437432885 Q 0 50.79319132491946 10.581914859358221 42.327659437432885"/></g><g transform="rotate(306)"><path d="M -10.581914859358221 42.327659437432885 Q 0 50.79319132491946 10.581914859358221 42.327659437432885"/></g><g transform="rotate(324)"><path d="M -10.581914859358221 42.327659437432885 Q 0 50.79319132491946 10.581914859358221 42.327659437432885"/></g><g transform="rotate(342)"><path d="M -10.581914859358221 42.327659437432885 Q 0 50.79319132491946 10.581914859358221 42.327659437432885"/></g><g transform="rotate(0)"><circle cx="0" cy="109.95253320410848" r="27.48813330102712"/></g><g transform="rotate(18)"><circle cx="0" cy="109.95253320410848" r="27.48813330102712"/></g><g transform="rotate(36)"><circle cx="0" cy="109.95253320410848" r="27.48813330102712"/></g><g transform="rotate(54)"><circle cx="0" cy="109.95253320410848" r="27.48813330102712"/></g><g transform="rotate(72)"><circle cx="0" cy="109.95253320410848" r="27.48813330102712"/></g><g transform="rotate(90)"><circle cx="0" cy="109.95253320410848" r="27.48813330102712"/></g><g transform="rotate(108)"><circle cx="0" cy="109.95253320410848" r="27.48813330102712"/></g><g transform="rotate(126)"><circle cx="0" cy="109.95253320410848" r="27.48813330102712"/></g><g transform="rotate(144)"><circle cx="0" cy="109.95253320410848" r="27.48813330102712"/></g><g transform="rotate(162)"><circle cx="0" cy="109.95253320410848" r="27.48813330102712"/></g><g transform="rotate(180)"><circle cx="0" cy="109.95253320410848" r="27.48813330102712"/></g><g transform="rotate(198)"><circle cx="0" cy="109.95253320410848" r="27.48813330102712"/></g><g transform="rotate(216)"><circle cx="0" cy="109.95253320410848" r="27.48813330102712"/></g><g transform="rotate(234)"><circle cx="0" cy="109.95253320410848" r="27.48813330102712"/></g><g transform="rotate(252)"><circle cx="0" cy="109.95253320410848" r="27.48813330102712"/></g><g transform="rotate(270)"><circle cx="0" cy="109.95253320410848" r="27.48813330102712"/></g><g transform="rotate(288)"><circle cx="0" cy="109.95253320410848" r="27.48813330102712"/></g><g transform="rotate(306)"><circle cx="0" cy="109.95253320410848" r="27.48813330102712"/></g><g transform="rotate(324)"><circle cx="0" cy="109.95253320410848" r="27.48813330102712"/></g><g transform="rotate(342)"><circle cx="0" cy="109.95253320410848" r="27.48813330102712"/></g><g transform="rotate(0)"><path d="M 0 177.8985822033137 Q 59.29952740110457 213.47829864397644 0 266.84787330497056 Q -59.29952740110457 213.47829864397644 0 177.8985822033137"/></g><g transform="rotate(18)"><path d="M 0 177.8985822033137 Q 59.29952740110457 213.47829864397644 0 266.84787330497056 Q -59.29952740110457 213.47829864397644 0 177.8985822033137"/></g><g transform="rotate(36)"><path d="M 0 177.8985822033137 Q 59.29952740110457 213.47829864397644 0 266.84787330497056 Q -59.29952740110457 213.47829864397644 0 177.8985822033137"/></g><g transform="rotate(54)"><path d="M 0 177.8985822033137 Q 59.29952740110457 213.47829864397644 0 266.84787330497056 Q -59.29952740110457 213.47829864397644 0 177.8985822033137"/></g><g transform="rotate(72)"><path d="M 0 177.8985822033137 Q 59.29952740110457 213.47829864397644 0 266.84787330497056 Q -59.29952740110457 213.47829864397644 0 177.8985822033137"/></g><g transform="rotate(90)"><path d="M 0 177.8985822033137 Q 59.29952740110457 213.47829864397644 0 266.84787330497056 Q -59.29952740110457 213.47829864397644 0 177.8985822033137"/></g><g transform="rotate(108)"><path d="M 0 177.8985822033137 Q 59.29952740110457 213.47829864397644 0 266.84787330497056 Q -59.29952740110457 213.47829864397644 0 177.8985822033137"/></g><g transform="rotate(126)"><path d="M 0 177.8985822033137 Q 59.29952740110457 213.47829864397644 0 266.84787330497056 Q -59.29952740110457 213.47829864397644 0 177.8985822033137"/></g><g transform="rotate(144)"><path d="M 0 177.8985822033137 Q 59.29952740110457 213.47829864397644 0 266.84787330497056 Q -59.29952740110457 213.47829864397644 0 177.8985822033137"/></g><g transform="rotate(162)"><path d="M 0 177.8985822033137 Q 59.29952740110457 213.47829864397644 0 266.84787330497056 Q -59.29952740110457 213.47829864397644 0 177.8985822033137"/></g><g transform="rotate(180)"><path d="M 0 177.8985822033137 Q 59.29952740110457 213.47829864397644 0 266.84787330497056 Q -59.29952740110457 213.47829864397644 0 177.8985822033137"/></g><g transform="rotate(198)"><path d="M 0 177.8985822033137 Q 59.29952740110457 213.47829864397644 0 266.84787330497056 Q -59.29952740110457 213.47829864397644 0 177.8985822033137"/></g><g transform="rotate(216)"><path d="M 0 177.8985822033137 Q 59.29952740110457 213.47829864397644 0 266.84787330497056 Q -59.29952740110457 213.47829864397644 0 177.8985822033137"/></g><g transform="rotate(234)"><path d="M 0 177.8985822033137 Q 59.29952740110457 213.47829864397644 0 266.84787330497056 Q -59.29952740110457 213.47829864397644 0 177.8985822033137"/></g><g transform="rotate(252)"><path d="M 0 177.8985822033137 Q 59.29952740110457 213.47829864397644 0 266.84787330497056 Q -59.29952740110457 213.47829864397644 0 177.8985822033137"/></g><g transform="rotate(270)"><path d="M 0 177.8985822033137 Q 59.29952740110457 213.47829864397644 0 266.84787330497056 Q -59.29952740110457 213.47829864397644 0 177.8985822033137"/></g><g transform="rotate(288)"><path d="M 0 177.8985822033137 Q 59.29952740110457 213.47829864397644 0 266.84787330497056 Q -59.29952740110457 213.47829864397644 0 177.8985822033137"/></g><g transform="rotate(306)"><path d="M 0 177.8985822033137 Q 59.29952740110457 213.47829864397644 0 266.84787330497056 Q -59.29952740110457 213.47829864397644 0 177.8985822033137"/></g><g transform="rotate(324)"><path d="M 0 177.8985822033137 Q 59.29952740110457 213.47829864397644 0 266.84787330497056 Q -59.29952740110457 213.47829864397644 0 177.8985822033137"/></g><g transform="rotate(342)"><path d="M 0 177.8985822033137 Q 59.29952740110457 213.47829864397644 0 266.84787330497056 Q -59.29952740110457 213.47829864397644 0 177.8985822033137"/></g><g transform="rotate(0)"><circle cx="0" cy="246.43450953811407" r="61.60862738452852"/></g><g transform="rotate(18)"><circle cx="0" cy="246.43450953811407" r="61.60862738452852"/></g><g transform="rotate(36)"><circle cx="0" cy="246.43450953811407" r="61.60862738452852"/></g><g transform="rotate(54)"><circle cx="0" cy="246.43450953811407" r="61.60862738452852"/></g><g transform="rotate(72)"><circle cx="0" cy="246.43450953811407" r="61.60862738452852"/></g><g transform="rotate(90)"><circle cx="0" cy="246.43450953811407" r="61.60862738452852"/></g><g transform="rotate(108)"><circle cx="0" cy="246.43450953811407" r="61.60862738452852"/></g><g transform="rotate(126)"><circle cx="0" cy="246.43450953811407" r="61.60862738452852"/></g><g transform="rotate(144)"><circle cx="0" cy="246.43450953811407" r="61.60862738452852"/></g><g transform="rotate(162)"><circle cx="0" cy="246.43450953811407" r="61.60862738452852"/></g><g transform="rotate(180)"><circle cx="0" cy="246.43450953811407" r="61.60862738452852"/></g><g transform="rotate(198)"><circle cx="0" cy="246.43450953811407" r="61.60862738452852"/></g><g transform="rotate(216)"><circle cx="0" cy="246.43450953811407" r="61.60862738452852"/></g><g transform="rotate(234)"><circle cx="0" cy="246.43450953811407" r="61.60862738452852"/></g><g transform="rotate(252)"><circle cx="0" cy="246.43450953811407" r="61.60862738452852"/></g><g transform="rotate(270)"><circle cx="0" cy="246.43450953811407" r="61.60862738452852"/></g><g transform="rotate(288)"><circle cx="0" cy="246.43450953811407" r="61.60862738452852"/></g><g transform="rotate(306)"><circle cx="0" cy="246.43450953811407" r="61.60862738452852"/></g><g transform="rotate(324)"><circle cx="0" cy="246.43450953811407" r="61.60862738452852"/></g><g transform="rotate(342)"><circle cx="0" cy="246.43450953811407" r="61.60862738452852"/></g><g transform="rotate(0)"><circle cx="0" cy="304.154123025015" r="76.03853075625375"/></g><g transform="rotate(18)"><circle cx="0" cy="304.154123025015" r="76.03853075625375"/></g><g transform="rotate(36)"><circle cx="0" cy="304.154123025015" r="76.03853075625375"/></g><g transform="rotate(54)"><circle cx="0" cy="304.154123025015" r="76.03853075625375"/></g><g transform="rotate(72)"><circle cx="0" cy="304.154123025015" r="76.03853075625375"/></g><g transform="rotate(90)"><circle cx="0" cy="304.154123025015" r="76.03853075625375"/></g><g transform="rotate(108)"><circle cx="0" cy="304.154123025015" r="76.03853075625375"/></g><g transform="rotate(126)"><circle cx="0" cy="304.154123025015" r="76.03853075625375"/></g><g transform="rotate(144)"><circle cx="0" cy="304.154123025015" r="76.03853075625375"/></g><g transform="rotate(162)"><circle cx="0" cy="304.154123025015" r="76.03853075625375"/></g><g transform="rotate(180)"><circle cx="0" cy="304.154123025015" r="76.03853075625375"/></g><g transform="rotate(198)"><circle cx="0" cy="304.154123025015" r="76.03853075625375"/></g><g transform="rotate(216)"><circle cx="0" cy="304.154123025015" r="76.03853075625375"/></g><g transform="rotate(234)"><circle cx="0" cy="304.154123025015" r="76.03853075625375"/></g><g transform="rotate(252)"><circle cx="0" cy="304.154123025015" r="76.03853075625375"/></g><g transform="rotate(270)"><circle cx="0" cy="304.154123025015" r="76.03853075625375"/></g><g transform="rotate(288)"><circle cx="0" cy="304.154123025015" r="76.03853075625375"/></g><g transform="rotate(306)"><circle cx="0" cy="304.154123025015" r="76.03853075625375"/></g><g transform="rotate(324)"><circle cx="0" cy="304.154123025015" r="76.03853075625375"/></g><g transform="rotate(342)"><circle cx="0" cy="304.154123025015" r="76.03853075625375"/></g></g></svg>