<svg xmlns="http://www.w3.org/2000/svg" viewBox="0 0 800 800" width="800" height="800">
    <rect width="100%" height="100%" fill="white"/>
    <g transform="translate(400, 400)" fill="none" stroke="black" stroke-width="4" stroke-linecap="round" stroke-linejoin="round"><g transform="rotate(0)"><path d="M 0 48.453658684156835 L 12.113414671039209 58.1443904209882 L 0 67.83512215781957 L -12.113414671039209 58.1443904209882 Z"/></g><g transform="rotate(36)"><path d="M 0 48.453658684156835 L 12.113414671039209 58.1443904209882 L 0 67.83512215781957 L -12.113414671039209 58.1443904209882 Z"/></g><g transform="rotate(72)"><path d="M 0 48.453658684156835 L 12.113414671039209 58.1443904209882 L 0 67.83512215781957 L -12.113414671039209 58.1443904209882 Z"/></g><g transform="rotate(108)"><path d="M 0 48.453658684156835 L 12.113414671039209 58.1443904209882 L 0 67.83512215781957 L -12.113414671039209 58.1443904209882 Z"/></g><g transform="rotate(144)"><path d="M 0 48.453658684156835 L 12.113414671039209 58.1443904209882 L 0 67.83512215781957 L -12.113414671039209 58.1443904209882 Z"/></g><g transform="rotate(180)"><path d="M 0 48.453658684156835 L 12.113414671039209 58.1443904209882 L 0 67.83512215781957 L -12.113414671039209 58.1443904209882 Z"/></g><g transform="rotate(216)"><path d="M 0 48.453658684156835 L 12.113414671039209 58.1443904209882 L 0 67.83512215781957 L -12.113414671039209 58.1443904209882 Z"/></g><g transform="rotate(252)"><path d="M 0 48.453658684156835 L 12.113414671039209 58.1443904209882 L 0 67.83512215781957 L -12.113414671039209 58.1443904209882 Z"/></g><g transform="rotate(288)"><path d="M 0 48.453658684156835 L 12.113414671039209 58.1443904209882 L 0 67.83512215781957 L -12.113414671039209 58.1443904209882 Z"/></g><g transform="rotate(324)"><path d="M 0 48.453658684156835 L 12.113414671039209 58.1443904209882 L 0 67.83512215781957 L -12.113414671039209 58.1443904209882 Z"/></g><g transform="rotate(0)"><circle cx="0" cy="80.88456014222983" r="20.221140035557458"/></g><g transform="rotate(36)"><circle cx="0" cy="80.88456014222983" r="20.221140035557458"/></g><g transform="rotate(72)"><circle cx="0" cy="80.88456014222983" r="20.221140035557458"/></g><g transform="rotate(108)"><circle cx="0" cy="80.88456014222983" r="20.221140035557458"/></g><g transform="rotate(144)"><circle cx="0" cy="80.88456014222983" r="20.221140035557458"/></g><g transform="rotate(180)"><circle cx="0" cy="80.88456014222983" r="20.221140035557458"/></g><g transform="rotate(216)"><circle cx="0" cy="80.88456014222983" r="20.221140035557458"/></g><g transform="rotate(252)"><circle cx="0" cy="80.88456014222983" r="20.221140035557458"/></g><g transform="rotate(288)"><circle cx="0" cy="80.88456014222983" r="20.221140035557458"/></g><g transform="rotate(324)"><circle cx="0" cy="80.88456014222983" r="20.221140035557458"/></g><g transform="rotate(0)"><path d="M 0 121.45679275143064 L 30.36419818785766 145.74815130171677 L 0 170.03950985200288 L -30.36419818785766 145.74815130171677 Z"/></g><g transform="rotate(36)"><path d="M 0 121.45679275143064 L 30.36419818785766 145.74815130171677 L 0 170.03950985200288 L -30.36419818785766 145.74815130171677 Z"/></g><g transform="rotate(72)"><path d="M 0 121.45679275143064 L 30.36419818785766 145.74815130171677 L 0 170.03950985200288 L -30.36419818785766 145.74815130171677 Z"/></g><g transform="rotate(108)"><path d="M 0 121.45679275143064 L 30.36419818785766 145.74815130171677 L 0 170.03950985200288 L -30.36419818785766 145.74815130171677 Z"/></g><g transform="rotate(144)"><path d="M 0 121.45679275143064 L 30.36419818785766 145.74815130171677 L 0 170.03950985200288 L -30.36419818785766 145.74815130171677 Z"/></g><g transform="rotate(180)"><path d="M 0 121.45679275143064 L 30.36419818785766 145.74815130171677 L 0 170.03950985200288 L -30.36419818785766 145.74815130171677 Z"/></g><g transform="rotate(216)"><path d="M 0 121.45679275143064 L 30.36419818785766 145.74815130171677 L 0 170.03950985200288 L -30.36419818785766 145.74815130171677 Z"/></g><g transform="rotate(252)"><path d="M 0 121.45679275143064 L 30.36419818785766 145.74815130171677 L 0 170.03950985200288 L -30.36419818785766 145.74815130171677 Z"/></g><g transform="rotate(288)"><path d="M 0 121.45679275143064 L 30.36419818785766 145.74815130171677 L 0 170.03950985200288 L -30.36419818785766 145.74815130171677 Z"/></g><g transform="rotate(324)"><path d="M 0 121.45679275143064 L 30.36419818785766 145.74815130171677 L 0 170.03950985200288 L -30.36419818785766 145.74815130171677 Z"/></g><g transform="rotate(0)"><path d="M 0 156.88119876353693 L 39.22029969088423 188.25743851624432 L 0 219.63367826895168 L -39.22029969088423 188.25743851624432 Z"/></g><g transform="rotate(36)"><path d="M 0 156.88119876353693 L 39.22029969088423 188.25743851624432 L 0 219.63367826895168 L -39.22029969088423 188.25743851624432 Z"/></g><g transform="rotate(72)"><path d="M 0 156.88119876353693 L 39.22029969088423 188.25743851624432 L 0 219.63367826895168 L -39.22029969088423 188.25743851624432 Z"/></g><g transform="rotate(108)"><path d="M 0 156.88119876353693 L 39.22029969088423 188.25743851624432 L 0 219.63367826895168 L -39.22029969088423 188.25743851624432 Z"/></g><g transform="rotate(144)"><path d="M 0 156.88119876353693 L 39.22029969088423 188.25743851624432 L 0 219.63367826895168 L -39.22029969088423 188.25743851624432 Z"/></g><g transform="rotate(180)"><path d="M 0 156.88119876353693 L 39.22029969088423 188.25743851624432 L 0 219.63367826895168 L -39.22029969088423 188.25743851624432 Z"/></g><g transform="rotate(216)"><path d="M 0 156.88119876353693 L 39.22029969088423 188.25743851624432 L 0 219.63367826895168 L -39.22029969088423 188.25743851624432 Z"/></g><g transform="rotate(252)"><path d="M 0 156.88119876353693 L 39.22029969088423 188.25743851624432 L 0 219.63367826895168 L -39.22029969088423 188.25743851624432 Z"/></g><g transform="rotate(288)"><path d="M 0 156.88119876353693 L 39.22029969088423 188.25743851624432 L 0 219.63367826895168 L -39.22029969088423 188.25743851624432 Z"/></g><g transform="rotate(324)"><path d="M 0 156.88119876353693 L 39.22029969088423 188.25743851624432 L 0 219.63367826895168 L -39.22029969088423 188.25743851624432 Z"/></g><g transform="rotate(0)"><path d="M 0 183.48433259615882 L 0 238.52963237500649"/></g><g transform="rotate(36)"><path d="M 0 183.48433259615882 L 0 238.52963237500649"/></g><g transform="rotate(72)"><path d="M 0 183.48433259615882 L 0 238.52963237500649"/></g><g transform="rotate(108)"><path d="M 0 183.48433259615882 L 0 238.52963237500649"/></g><g transform="rotate(144)"><path d="M 0 183.48433259615882 L 0 238.52963237500649"/></g><g transform="rotate(180)"><path d="M 0 183.48433259615882 L 0 238.52963237500649"/></g><g transform="rotate(216)"><path d="M 0 183.48433259615882 L 0 238.52963237500649"/></g><g transform="rotate(252)"><path d="M 0 183.48433259615882 L 0 238.52963237500649"/></g><g transform="rotate(288)"><path d="M 0 183.48433259615882 L 0 238.52963237500649"/></g><g transform="rotate(324)"><path d="M 0 183.48433259615882 L 0 238.52963237500649"/></g><g transform="rotate(0)"><circle cx="0" cy="229.40103438010232" r="57.35025859502558"/></g><g transform="rotate(36)"><circle cx="0" cy="229.40103438010232" r="57.35025859502558"/></g><g transform="rotate(72)"><circle cx="0" cy="229.40103438010232" r="57.35025859502558"/></g><g transform="rotate(108)"><circle cx="0" cy="229.40103438010232" r="57.35025859502558"/></g><g transform="rotate(144)"><circle cx="0" cy="229.40103438010232" r="57.35025859502558"/></g><g transform="rotate(180)"><circle cx="0" cy="229.40103438010232" r="57.35025859502558"/></g><g transform="rotate(216)"><circle cx="0" cy="229.40103438010232" r="57.35025859502558"/></g><g transform="rotate(252)"><circle cx="0" cy="229.40103438010232" r="57.35025859502558"/></g><g transform="rotate(288)"><circle cx="0" cy="229.40103438010232" r="57.35025859502558"/></g><g transform="rotate(324)"><circle cx="0" cy="229.40103438010232" r="57.35025859502558"/></g><g transform="rotate(0)"><path d="M -66.15288674094094 264.6115469637638 Q 0 317.53385635651654 66.15288674094094 264.6115469637638"/></g><g transform="rotate(36)"><path d="M -66.15288674094094 264.6115469637638 Q 0 317.53385635651654 66.15288674094094 264.6115469637638"/></g><g transform="rotate(72)"><path d="M -66.15288674094094 264.6115469637638 Q 0 317.53385635651654 66.15288674094094 264.6115469637638"/></g><g transform="rotate(108)"><path d="M -66.15288674094094 264.6115469637638 Q 0 317.53385635651654 66.15288674094094 264.6115469637638"/></g><g transform="rotate(144)"><path d="M -66.15288674094094 264.6115469637638 Q 0 317.53385635651654 66.15288674094094 264.6115469637638"/></g><g transform="rotate(180)"><path d="M -66.15288674094094 264.6115469637638 Q 0 317.53385635651654 66.15288674094094 264.6115469637638"/></g><g transform="rotate(216)"><path d="M -66.15288674094094 264.6115469637638 Q 0 317.53385635651654 66.15288674094094 264.6115469637638"/></g><g transform="rotate(252)"><path d="M -66.15288674094094 264.6115469637638 Q 0 317.53385635651654 66.15288674094094 264.6115469637638"/></g><g transform="rotate(288)"><path d="M -66.15288674094094 264.6115469637638 Q 0 317.53385635651654 66.15288674094094 264.6115469637638"/></g><g transform="rotate(324)"><path d="M -66.15288674094094 264.6115469637638 Q 0 317.53385635651654 66.15288674094094 264.6115469637638"/></g><g transform="rotate(0)"><circle cx="0" cy="291.3939771558055" r="72.84849428895137"/></g><g transform="rotate(36)"><circle cx="0" cy="291.3939771558055" r="72.84849428895137"/></g><g transform="rotate(72)"><circle cx="0" cy="291.3939771558055" r="72.84849428895137"/></g><g transform="rotate(108)"><circle cx="0" cy="291.3939771558055" r="72.84849428895137"/></g><g transform="rotate(144)"><circle cx="0" cy="291.3939771558055" r="72.84849428895137"/></g><g transform="rotate(180)"><circle cx="0" cy="291.3939771558055" r="72.84849428895137"/></g><g transform="rotate(216)"><circle cx="0" cy="291.3939771558055" r="72.84849428895137"/></g><g transform="rotate(252)"><circle cx="0" cy="291.3939771558055" r="72.84849428895137"/></g><g transform="rotate(288)"><circle cx="0" cy="291.3939771558055" r="72.84849428895137"/></g><g transform="rotate(324)"><circle cx="0" cy="291.3939771558055" r="72.84849428895137"/></g><g transform="rotate(0)"><path d="M 0 327.1574332373631 Q 109.0524777457877 392.58891988483566 0 490.7361498560446 Q -109.0524777457877 392.58891988483566 0 327.1574332373631"/></g><g transform="rotate(36)"><path d="M 0 327.1574332373631 Q 109.0524777457877 392.58891988483566 0 490.7361498560446 Q -109.0524777457877 392.58891988483566 0 327.1574332373631"/></g><g transform="rotate(72)"><path d="M 0 327.1574332373631 Q 109.0524777457877 392.58891988483566 0 490.7361498560446 Q -109.0524777457877 392.58891988483566 0 327.1574332373631"/></g><g transform="rotate(108)"><path d="M 0 327.1574332373631 Q 109.0524777457877 392.58891988483566 0 490.7361498560446 Q -109.0524777457877 392.58891988483566 0 327.1574332373631"/></g><g transform="rotate(144)"><path d="M 0 327.1574332373631 Q 109.0524777457877 392.58891988483566 0 490.7361498560446 Q -109.0524777457877 392.58891988483566 0 327.1574332373631"/></g><g transform="rotate(180)"><path d="M 0 327.1574332373631 Q 109.0524777457877 392.58891988483566 0 490.7361498560446 Q -109.0524777457877 392.58891988483566 0 327.1574332373631"/></g><g transform="rotate(216)"><path d="M 0 327.1574332373631 Q 109.0524777457877 392.58891988483566 0 490.7361498560446 Q -109.0524777457877 392.58891988483566 0 327.1574332373631"/></g><g transform="rotate(252)"><path d="M 0 327.1574332373631 Q 109.0524777457877 392.58891988483566 0 490.7361498560446 Q -109.0524777457877 392.58891988483566 0 327.1574332373631"/></g><g transform="rotate(288)"><path d="M 0 327.1574332373631 Q 109.0524777457877 392.58891988483566 0 490.7361498560446 Q -109.0524777457877 392.58891988483566 0 327.1574332373631"/></g><g transform="rotate(324)"><path d="M 0 327.1574332373631 Q 109.0524777457877 392.58891988483566 0 490.7361498560446 Q -109.0524777457877 392.58891988483566 0 327.1574332373631"/></g></g></svg>