<svg xmlns="http://www.w3.org/2000/svg" viewBox="0 0 800 800" width="800" height="800">
    <rect width="100%" height="100%" fill="white"/>
    <g transform="translate(400, 400)" fill="none" stroke="black" stroke-width="4" stroke-linecap="round" stroke-linejoin="round"><g transform="rotate(0)"><path d="M 0 57.69776003435254 L 14.424440008588135 69.23731204122305 L 0 80.77686404809356 L -14.424440008588135 69.23731204122305 Z"/></g><g transform="rotate(30)"><path d="M 0 57.69776003435254 L 14.424440008588135 69.23731204122305 L 0 80.77686404809356 L -14.424440008588135 69.23731204122305 Z"/></g><g transform="rotate(60)"><path d="M 0 57.69776003435254 L 14.424440008588135 69.23731204122305 L 0 80.77686404809356 L -14.424440008588135 69.23731204122305 Z"/></g><g transform="rotate(90)"><path d="M 0 57.69776003435254 L 14.424440008588135 69.23731204122305 L 0 80.77686404809356 L -14.424440008588135 69.23731204122305 Z"/></g><g transform="rotate(120)"><path d="M 0 57.69776003435254 L 14.424440008588135 69.23731204122305 L 0 80.77686404809356 L -14.424440008588135 69.23731204122305 Z"/></g><g transform="rotate(150)"><path d="M 0 57.69776003435254 L 14.424440008588135 69.23731204122305 L 0 80.77686404809356 L -14.424440008588135 69.23731204122305 Z"/></g><g transform="rotate(180)"><path d="M 0 57.69776003435254 L 14.424440008588135 69.23731204122305 L 0 80.77686404809356 L -14.424440008588135 69.23731204122305 Z"/></g><g transform="rotate(210)"><path d="M 0 57.69776003435254 L 14.424440008588135 69.23731204122305 L 0 80.77686404809356 L -14.424440008588135 69.23731204122305 Z"/></g><g transform="rotate(240)"><path d="M 0 57.69776003435254 L 14.424440008588135 69.23731204122305 L 0 80.77686404809356 L -14.424440008588135 69.23731204122305 Z"/></g><g transform="rotate(270)"><path d="M 0 57.69776003435254 L 14.424440008588135 69.23731204122305 L 0 80.77686404809356 L -14.424440008588135 69.23731204122305 Z"/></g><g transform="rotate(300)"><path d="M 0 57.69776003435254 L 14.424440008588135 69.23731204122305 L 0 80.77686404809356 L -14.424440008588135 69.23731204122305 Z"/></g><g transform="rotate(330)"><path d="M 0 57.69776003435254 L 14.424440008588135 69.23731204122305 L 0 80.77686404809356 L -14.424440008588135 69.23731204122305 Z"/></g><g transform="rotate(0)"><path d="M 0 81.3148474227637 Q 27.104949140921235 97.57781690731645 0 121.97227113414556 Q -27.104949140921235 97.57781690731645 0 81.3148474227637"/></g><g transform="rotate(30)"><path d="M 0 81.3148474227637 Q 27.104949140921235 97.57781690731645 0 121.97227113414556 Q -27.104949140921235 97.57781690731645 0 81.3148474227637"/></g><g transform="rotate(60)"><path d="M 0 81.3148474227637 Q 27.104949140921235 97.57781690731645 0 121.97227113414556 Q -27.104949140921235 97.57781690731645 0 81.3148474227637"/></g><g transform="rotate(90)"><path d="M 0 81.3148474227637 Q 27.104949140921235 97.57781690731645 0 121.97227113414556 Q -27.104949140921235 97.57781690731645 0 81.3148474227637"/></g><g transform="rotate(120)"><path d="M 0 81.3148474227637 Q 27.104949140921235 97.57781690731645 0 121.97227113414556 Q -27.104949140921235 97.57781690731645 0 81.3148474227637"/></g><g transform="rotate(150)"><path d="M 0 81.3148474227637 Q 27.104949140921235 97.57781690731645 0 121.97227113414556 Q -27.104949140921235 97.57781690731645 0 81.3148474227637"/></g><g transform="rotate(180)"><path d="M 0 81.3148474227637 Q 27.104949140921235 97.57781690731645 0 121.97227113414556 Q -27.104949140921235 97.57781690731645 0 81.3148474227637"/></g><g transform="rotate(210)"><path d="M 0 81.3148474227637 Q 27.104949140921235 97.57781690731645 0 121.97227113414556 Q -27.104949140921235 97.57781690731645 0 81.3148474227637"/></g><g transform="rotate(240)"><path d="M 0 81.3148474227637 Q 27.104949140921235 97.57781690731645 0 121.97227113414556 Q -27.104949140921235 97.57781690731645 0 81.3148474227637"/></g><g transform="rotate(270)"><path d="M 0 81.3148474227637 Q 27.104949140921235 97.57781690731645 0 121.97227113414556 Q -27.104949140921235 97.57781690731645 0 81.3148474227637"/></g><g transform="rotate(300)"><path d="M 0 81.3148474227637 Q 27.104949140921235 97.57781690731645 0 121.97227113414556 Q -27.104949140921235 97.57781690731645 0 81.3148474227637"/></g><g transform="rotate(330)"><path d="M 0 81.3148474227637 Q 27.104949140921235 97.57781690731645 0 121.97227113414556 Q -27.104949140921235 97.57781690731645 0 81.3148474227637"/></g><g transform="rotate(0)"><path d="M 0 128.17740511149168 L 0 166.63062664493918"/></g><g transform="rotate(30)"><path d="M 0 128.17740511149168 L 0 166.63062664493918"/></g><g transform="rotate(60)"><path d="M 0 128.17740511149168 L 0 166.63062664493918"/></g><g transform="rotate(90)"><path d="M 0 128.17740511149168 L 0 166.63062664493918"/></g><g transform="rotate(120)"><path d="M 0 128.17740511149168 L 0 166.63062664493918"/></g><g transform="rotate(150)"><path d="M 0 128.17740511149168 L 0 166.63062664493918"/></g><g transform="rotate(180)"><path d="M 0 128.17740511149168 L 0 166.63062664493918"/></g><g transform="rotate(210)"><path d="M 0 128.17740511149168 L 0 166.63062664493918"/></g><g transform="rotate(240)"><path d="M 0 128.17740511149168 L 0 166.63062664493918"/></g><g transform="rotate(270)"><path d="M 0 128.17740511149168 L 0 166.63062664493918"/></g><g transform="rotate(300)"><path d="M 0 128.17740511149168 L 0 166.63062664493918"/></g><g transform="rotate(330)"><path d="M 0 128.17740511149168 L 0 166.63062664493918"/></g><g transform="rotate(0)"><path d="M 0 162.52064411528409 L 0 211.2768373498693"/></g><g transform="rotate(30)"><path d="M 0 162.52064411528409 L 0 211.2768373498693"/></g><g transform="rotate(60)"><path d="M 0 162.52064411528409 L 0 211.2768373498693"/></g><g transform="rotate(90)"><path d="M 0 162.52064411528409 L 0 211.2768373498693"/></g><g transform="rotate(120)"><path d="M 0 162.52064411528409 L 0 211.2768373498693"/></g><g transform="rotate(150)"><path d="M 0 162.52064411528409 L 0 211.2768373498693"/></g><g transform="rotate(180)"><path d="M 0 162.52064411528409 L 0 211.2768373498693"/></g><g transform="rotate(210)"><path d="M 0 162.52064411528409 L 0 211.2768373498693"/></g><g transform="rotate(240)"><path d="M 0 162.52064411528409 L 0 211.2768373498693"/></g><g transform="rotate(270)"><path d="M 0 162.52064411528409 L 0 211.2768373498693"/></g><g transform="rotate(300)"><path d="M 0 162.52064411528409 L 0 211.2768373498693"/></g><g transform="rotate(330)"><path d="M 0 162.52064411528409 L 0 211.2768373498693"/></g><g transform="rotate(0)"><path d="M -52.493136315606534 209.97254526242614 Q 0 251.96705431491137 52.493136315606534 209.97254526242614"/></g><g transform="rotate(30)"><path d="M -52.493136315606534 209.97254526242614 Q 0 251.96705431491137 52.493136315606534 209.97254526242614"/></g><g transform="rotate(60)"><path d="M -52.493136315606534 209.97254526242614 Q 0 251.96705431491137 52.493136315606534 209.97254526242614"/></g><g transform="rotate(90)"><path d="M -52.493136315606534 209.97254526242614 Q 0 251.96705431491137 52.493136315606534 209.97254526242614"/></g><g transform="rotate(120)"><path d="M -52.493136315606534 209.97254526242614 Q 0 251.96705431491137 52.493136315606534 209.97254526242614"/></g><g transform="rotate(150)"><path d="M -52.493136315606534 209.97254526242614 Q 0 251.96705431491137 52.493136315606534 209.97254526242614"/></g><g transform="rotate(180)"><path d="M -52.493136315606534 209.97254526242614 Q 0 251.96705431491137 52.493136315606534 209.97254526242614"/></g><g transform="rotate(210)"><path d="M -52.493136315606534 209.97254526242614 Q 0 251.96705431491137 52.493136315606534 209.97254526242614"/></g><g transform="rotate(240)"><path d="M -52.493136315606534 209.97254526242614 Q 0 251.96705431491137 52.493136315606534 209.97254526242614"/></g><g transform="rotate(270)"><path d="M -52.493136315606534 209.97254526242614 Q 0 251.96705431491137 52.493136315606534 209.97254526242614"/></g><g transform="rotate(300)"><path d="M -52.493136315606534 209.97254526242614 Q 0 251.96705431491137 52.493136315606534 209.97254526242614"/></g><g transform="rotate(330)"><path d="M -52.493136315606534 209.97254526242614 Q 0 251.96705431491137 52.493136315606534 209.97254526242614"/></g><g transform="rotate(0)"><circle cx="0" cy="241.55383630655706" r="60.388459076639265"/></g><g transform="rotate(30)"><circle cx="0" cy="241.55383630655706" r="60.388459076639265"/></g><g transform="rotate(60)"><circle cx="0" cy="241.55383630655706" r="60.388459076639265"/></g><g transform="rotate(90)"><circle cx="0" cy="241.55383630655706" r="60.388459076639265"/></g><g transform="rotate(120)"><circle cx="0" cy="241.55383630655706" r="60.388459076639265"/></g><g transform="rotate(150)"><circle cx="0" cy="241.55383630655706" r="60.388459076639265"/></g><g transform="rotate(180)"><circle cx="0" cy="241.55383630655706" r="60.388459076639265"/></g><g transform="rotate(210)"><circle cx="0" cy="241.55383630655706" r="60.388459076639265"/></g><g transform="rotate(240)"><circle cx="0" cy="241.55383630655706" r="60.388459076639265"/></g><g transform="rotate(270)"><circle cx="0" cy="241.55383630655706" r="60.388459076639265"/></g><g transform="rotate(300)"><circle cx="0" cy="241.55383630655706" r="60.388459076639265"/></g><g transform="rotate(330)"><circle cx="0" cy="241.55383630655706" r="60.388459076639265"/></g><g transform="rotate(0)"><path d="M 0 297.13506132364273 Q 99.04502044121425 356.5620735883713 0 445.7025919854641 Q -99.04502044121425 356.5620735883713 0 297.13506132364273"/></g><g transform="rotate(30)"><path d="M 0 297.13506132364273 Q 99.04502044121425 356.5620735883713 0 445.7025919854641 Q -99.04502044121425 356.5620735883713 0 297.13506132364273"/></g><g transform="rotate(60)"><path d="M 0 297.13506132364273 Q 99.04502044121425 356.5620735883713 0 445.7025919854641 Q -99.04502044121425 356.5620735883713 0 297.13506132364273"/></g><g transform="rotate(90)"><path d="M 0 297.13506132364273 Q 99.04502044121425 356.5620735883713 0 445.7025919854641 Q -99.04502044121425 356.5620735883713 0 297.13506132364273"/></g><g transform="rotate(120)"><path d="M 0 297.13506132364273 Q 99.04502044121425 356.5620735883713 0 445.7025919854641 Q -99.04502044121425 356.5620735883713 0 297.13506132364273"/></g><g transform="rotate(150)"><path d="M 0 297.13506132364273 Q 99.04502044121425 356.5620735883713 0 445.7025919854641 Q -99.04502044121425 356.5620735883713 0 297.13506132364273"/></g><g transform="rotate(180)"><path d="M 0 297.13506132364273 Q 99.04502044121425 356.5620735883713 0 445.7025919854641 Q -99.04502044121425 356.5620735883713 0 297.13506132364273"/></g><g transform="rotate(210)"><path d="M 0 297.13506132364273 Q 99.04502044121425 356.5620735883713 0 445.7025919854641 Q -99.04502044121425 356.5620735883713 0 297.13506132364273"/></g><g transform="rotate(240)"><path d="M 0 297.13506132364273 Q 99.04502044121425 356.5620735883713 0 445.7025919854641 Q -99.04502044121425 356.5620735883713 0 297.13506132364273"/></g><g transform="rotate(270)"><path d="M 0 297.13506132364273 Q 99.04502044121425 356.5620735883713 0 445.7025919854641 Q -99.04502044121425 356.5620735883713 0 297.13506132364273"/></g><g transform="rotate(300)"><path d="M 0 297.13506132364273 Q 99.04502044121425 356.5620735883713 0 445.7025919854641 Q -99.04502044121425 356.5620735883713 0 297.13506132364273"/></g><g transform="rotate(330)"><path d="M 0 297.13506132364273 Q 99.04502044121425 356.5620735883713 0 445.7025919854641 Q -99.04502044121425 356.5620735883713 0 297.13506132364273"/></g><g transform="rotate(0)"><path d="M 0 330.5797463003546 L 0 429.753670190461"/></g><g transform="rotate(30)"><path d="M 0 330.5797463003546 L 0 429.753670190461"/></g><g transform="rotate(60)"><path d="M 0 330.5797463003546 L 0 429.753670190461"/></g><g transform="rotate(90)"><path d="M 0 330.5797463003546 L 0 429.753670190461"/></g><g transform="rotate(120)"><path d="M 0 330.5797463003546 L 0 429.753670190461"/></g><g transform="rotate(150)"><path d="M 0 330.5797463003546 L 0 429.753670190461"/></g><g transform="rotate(180)"><path d="M 0 330.5797463003546 L 0 429.753670190461"/></g><g transform="rotate(210)"><path d="M 0 330.5797463003546 L 0 429.753670190461"/></g><g transform="rotate(240)"><path d="M 0 330.5797463003546 L 0 429.753670190461"/></g><g transform="rotate(270)"><path d="M 0 330.5797463003546 L 0 429.753670190461"/></g><g transform="rotate(300)"><path d="M 0 330.5797463003546 L 0 429.753670190461"/></g><g transform="rotate(330)"><path d="M 0 330.5797463003546 L 0 429.753670190461"/></g></g></svg>