<svg xmlns="http://www.w3.org/2000/svg" viewBox="0 0 800 800" width="800" height="800">
    <rect width="100%" height="100%" fill="white"/>
    <g transform="translate(400, 400)" fill="none" stroke="black" stroke-width="4" stroke-linecap="round" stroke-linejoin="round"><g transform="rotate(0)"><path d="M 0 51.27254081889987 L 12.818135204724967 61.527048982679844 L 0 71.78155714645982 L -12.818135204724967 61.527048982679844 Z"/></g><g transform="rotate(30)"><path d="M 0 51.27254081889987 L 12.818135204724967 61.527048982679844 L 0 71.78155714645982 L -12.818135204724967 61.527048982679844 Z"/></g><g transform="rotate(60)"><path d="M 0 51.27254081889987 L 12.818135204724967 61.527048982679844 L 0 71.78155714645982 L -12.818135204724967 61.527048982679844 Z"/></g><g transform="rotate(90)"><path d="M 0 51.27254081889987 L 12.818135204724967 61.527048982679844 L 0 71.78155714645982 L -12.818135204724967 61.527048982679844 Z"/></g><g transform="rotate(120)"><path d="M 0 51.27254081889987 L 12.818135204724967 61.527048982679844 L 0 71.78155714645982 L -12.818135204724967 61.527048982679844 Z"/></g><g transform="rotate(150)"><path d="M 0 51.27254081889987 L 12.818135204724967 61.527048982679844 L 0 71.78155714645982 L -12.818135204724967 61.527048982679844 Z"/></g><g transform="rotate(180)"><path d="M 0 51.27254081889987 L 12.818135204724967 61.527048982679844 L 0 71.78155714645982 L -12.818135204724967 61.527048982679844 Z"/></g><g transform="rotate(210)"><path d="M 0 51.27254081889987 L 12.818135204724967 61.527048982679844 L 0 71.78155714645982 L -12.818135204724967 61.527048982679844 Z"/></g><g transform="rotate(240)"><path d="M 0 51.27254081889987 L 12.818135204724967 61.527048982679844 L 0 71.78155714645982 L -12.818135204724967 61.527048982679844 Z"/></g><g transform="rotate(270)"><path d="M 0 51.27254081889987 L 12.818135204724967 61.527048982679844 L 0 71.78155714645982 L -12.818135204724967 61.527048982679844 Z"/></g><g transform="rotate(300)"><path d="M 0 51.27254081889987 L 12.818135204724967 61.527048982679844 L 0 71.78155714645982 L -12.818135204724967 61.527048982679844 Z"/></g><g transform="rotate(330)"><path d="M 0 51.27254081889987 L 12.818135204724967 61.527048982679844 L 0 71.78155714645982 L -12.818135204724967 61.527048982679844 Z"/></g><g transform="rotate(0)"><circle cx="0" cy="86.9906189199537" r="21.747654729988426"/></g><g transform="rotate(30)"><circle cx="0" cy="86.9906189199537" r="21.747654729988426"/></g><g transform="rotate(60)"><circle cx="0" cy="86.9906189199537" r="21.747654729988426"/></g><g transform="rotate(90)"><circle cx="0" cy="86.9906189199537" r="21.747654729988426"/></g><g transform="rotate(120)"><circle cx="0" cy="86.9906189199537" r="21.747654729988426"/></g><g transform="rotate(150)"><circle cx="0" cy="86.9906189199537" r="21.747654729988426"/></g><g transform="rotate(180)"><circle cx="0" cy="86.9906189199537" r="21.747654729988426"/></g><g transform="rotate(210)"><circle cx="0" cy="86.9906189199537" r="21.747654729988426"/></g><g transform="rotate(240)"><circle cx="0" cy="86.9906189199537" r="21.747654729988426"/></g><g transform="rotate(270)"><circle cx="0" cy="86.9906189199537" r="21.747654729988426"/></g><g transform="rotate(300)"><circle cx="0" cy="86.9906189199537" r="21.747654729988426"/></g><g transform="rotate(330)"><circle cx="0" cy="86.9906189199537" r="21.747654729988426"/></g><g transform="rotate(0)"><path d="M 0 135.9851212054491 L 0 176.78065756708384"/></g><g transform="rotate(30)"><path d="M 0 135.9851212054491 L 0 176.78065756708384"/></g><g transform="rotate(60)"><path d="M 0 135.9851212054491 L 0 176.78065756708384"/></g><g transform="rotate(90)"><path d="M 0 135.9851212054491 L 0 176.78065756708384"/></g><g transform="rotate(120)"><path d="M 0 135.9851212054491 L 0 176.78065756708384"/></g><g transform="rotate(150)"><path d="M 0 135.9851212054491 L 0 176.78065756708384"/></g><g transform="rotate(180)"><path d="M 0 135.9851212054491 L 0 176.78065756708384"/></g><g transform="rotate(210)"><path d="M 0 135.9851212054491 L 0 176.78065756708384"/></g><g transform="rotate(240)"><path d="M 0 135.9851212054491 L 0 176.78065756708384"/></g><g transform="rotate(270)"><path d="M 0 135.9851212054491 L 0 176.78065756708384"/></g><g transform="rotate(300)"><path d="M 0 135.9851212054491 L 0 176.78065756708384"/></g><g transform="rotate(330)"><path d="M 0 135.9851212054491 L 0 176.78065756708384"/></g><g transform="rotate(0)"><path d="M -44.49184753233567 177.96739012934268 Q 0 213.5608681552112 44.49184753233567 177.96739012934268"/></g><g transform="rotate(30)"><path d="M -44.49184753233567 177.96739012934268 Q 0 213.5608681552112 44.49184753233567 177.96739012934268"/></g><g transform="rotate(60)"><path d="M -44.49184753233567 177.96739012934268 Q 0 213.5608681552112 44.49184753233567 177.96739012934268"/></g><g transform="rotate(90)"><path d="M -44.49184753233567 177.96739012934268 Q 0 213.5608681552112 44.49184753233567 177.96739012934268"/></g><g transform="rotate(120)"><path d="M -44.49184753233567 177.96739012934268 Q 0 213.5608681552112 44.49184753233567 177.96739012934268"/></g><g transform="rotate(150)"><path d="M -44.49184753233567 177.96739012934268 Q 0 213.5608681552112 44.49184753233567 177.96739012934268"/></g><g transform="rotate(180)"><path d="M -44.49184753233567 177.96739012934268 Q 0 213.5608681552112 44.49184753233567 177.96739012934268"/></g><g transform="rotate(210)"><path d="M -44.49184753233567 177.96739012934268 Q 0 213.5608681552112 44.49184753233567 177.96739012934268"/></g><g transform="rotate(240)"><path d="M -44.49184753233567 177.96739012934268 Q 0 213.5608681552112 44.49184753233567 177.96739012934268"/></g><g transform="rotate(270)"><path d="M -44.49184753233567 177.96739012934268 Q 0 213.5608681552112 44.49184753233567 177.96739012934268"/></g><g transform="rotate(300)"><path d="M -44.49184753233567 177.96739012934268 Q 0 213.5608681552112 44.49184753233567 177.96739012934268"/></g><g transform="rotate(330)"><path d="M -44.49184753233567 177.96739012934268 Q 0 213.5608681552112 44.49184753233567 177.96739012934268"/></g><g transform="rotate(0)"><circle cx="0" cy="217.879275996238" r="54.4698189990595"/></g><g transform="rotate(30)"><circle cx="0" cy="217.879275996238" r="54.4698189990595"/></g><g transform="rotate(60)"><circle cx="0" cy="217.879275996238" r="54.4698189990595"/></g><g transform="rotate(90)"><circle cx="0" cy="217.879275996238" r="54.4698189990595"/></g><g transform="rotate(120)"><circle cx="0" cy="217.879275996238" r="54.4698189990595"/></g><g transform="rotate(150)"><circle cx="0" cy="217.879275996238" r="54.4698189990595"/></g><g transform="rotate(180)"><circle cx="0" cy="217.879275996238" r="54.4698189990595"/></g><g transform="rotate(210)"><circle cx="0" cy="217.879275996238" r="54.4698189990595"/></g><g transform="rotate(240)"><circle cx="0" cy="217.879275996238" r="54.4698189990595"/></g><g transform="rotate(270)"><circle cx="0" cy="217.879275996238" r="54.4698189990595"/></g><g transform="rotate(300)"><circle cx="0" cy="217.879275996238" r="54.4698189990595"/></g><g transform="rotate(330)"><circle cx="0" cy="217.879275996238" r="54.4698189990595"/></g><g transform="rotate(0)"><path d="M -60.25983857689425 241.039354307577 Q 0 289.2472251690924 60.25983857689425 241.039354307577"/></g><g transform="rotate(30)"><path d="M -60.25983857689425 241.039354307577 Q 0 289.2472251690924 60.25983857689425 241.039354307577"/></g><g transform="rotate(60)"><path d="M -60.25983857689425 241.039354307577 Q 0 289.2472251690924 60.25983857689425 241.039354307577"/></g><g transform="rotate(90)"><path d="M -60.25983857689425 241.039354307577 Q 0 289.2472251690924 60.25983857689425 241.039354307577"/></g><g transform="rotate(120)"><path d="M -60.25983857689425 241.039354307577 Q 0 289.2472251690924 60.25983857689425 241.039354307577"/></g><g transform="rotate(150)"><path d="M -60.25983857689425 241.039354307577 Q 0 289.2472251690924 60.25983857689425 241.039354307577"/></g><g transform="rotate(180)"><path d="M -60.25983857689425 241.039354307577 Q 0 289.2472251690924 60.25983857689425 241.039354307577"/></g><g transform="rotate(210)"><path d="M -60.25983857689425 241.039354307577 Q 0 289.2472251690924 60.25983857689425 241.039354307577"/></g><g transform="rotate(240)"><path d="M -60.25983857689425 241.039354307577 Q 0 289.2472251690924 60.25983857689425 241.039354307577"/></g><g transform="rotate(270)"><path d="M -60.25983857689425 241.039354307577 Q 0 289.2472251690924 60.25983857689425 241.039354307577"/></g><g transform="rotate(300)"><path d="M -60.25983857689425 241.039354307577 Q 0 289.2472251690924 60.25983857689425 241.039354307577"/></g><g transform="rotate(330)"><path d="M -60.25983857689425 241.039354307577 Q 0 289.2472251690924 60.25983857689425 241.039354307577"/></g><g transform="rotate(0)"><circle cx="0" cy="296.5645947679877" r="74.14114869199693"/></g><g transform="rotate(30)"><circle cx="0" cy="296.5645947679877" r="74.14114869199693"/></g><g transform="rotate(60)"><circle cx="0" cy="296.5645947679877" r="74.14114869199693"/></g><g transform="rotate(90)"><circle cx="0" cy="296.5645947679877" r="74.14114869199693"/></g><g transform="rotate(120)"><circle cx="0" cy="296.5645947679877" r="74.14114869199693"/></g><g transform="rotate(150)"><circle cx="0" cy="296.5645947679877" r="74.14114869199693"/></g><g transform="rotate(180)"><circle cx="0" cy="296.5645947679877" r="74.14114869199693"/></g><g transform="rotate(210)"><circle cx="0" cy="296.5645947679877" r="74.14114869199693"/></g><g transform="rotate(240)"><circle cx="0" cy="296.5645947679877" r="74.14114869199693"/></g><g transform="rotate(270)"><circle cx="0" cy="296.5645947679877" r="74.14114869199693"/></g><g transform="rotate(300)"><circle cx="0" cy="296.5645947679877" r="74.14114869199693"/></g><g transform="rotate(330)"><circle cx="0" cy="296.5645947679877" r="74.14114869199693"/></g><g transform="rotate(0)"><path d="M 0 322.78086085803807 L 0 419.6151191154495"/></g><g transform="rotate(30)"><path d="M 0 322.78086085803807 L 0 419.6151191154495"/></g><g transform="rotate(60)"><path d="M 0 322.78086085803807 L 0 419.6151191154495"/></g><g transform="rotate(90)"><path d="M 0 322.78086085803807 L 0 419.6151191154495"/></g><g transform="rotate(120)"><path d="M 0 322.78086085803807 L 0 419.6151191154495"/></g><g transform="rotate(150)"><path d="M 0 322.78086085803807 L 0 419.6151191154495"/></g><g transform="rotate(180)"><path d="M 0 322.78086085803807 L 0 419.6151191154495"/></g><g transform="rotate(210)"><path d="M 0 322.78086085803807 L 0 419.6151191154495"/></g><g transform="rotate(240)"><path d="M 0 322.78086085803807 L 0 419.6151191154495"/></g><g transform="rotate(270)"><path d="M 0 322.78086085803807 L 0 419.6151191154495"/></g><g transform="rotate(300)"><path d="M 0 322.78086085803807 L 0 419.6151191154495"/></g><g transform="rotate(330)"><path d="M 0 322.78086085803807 L 0 419.6151191154495"/></g></g></svg>