<svg xmlns="http://www.w3.org/2000/svg" viewBox="0 0 800 800" width="800" height="800">
    <rect width="100%" height="100%" fill="white"/>
    <g transform="translate(400, 400)" fill="none" stroke="black" stroke-width="4" stroke-linecap="round" stroke-linejoin="round"><g transform="rotate(0)"><path d="M 0 41.02057460229844 L 0 53.32674698298797"/></g><g transform="rotate(22.5)"><path d="M 0 41.02057460229844 L 0 53.32674698298797"/></g><g transform="rotate(45)"><path d="M 0 41.02057460229844 L 0 53.32674698298797"/></g><g transform="rotate(67.5)"><path d="M 0 41.02057460229844 L 0 53.32674698298797"/></g><g transform="rotate(90)"><path d="M 0 41.02057460229844 L 0 53.32674698298797"/></g><g transform="rotate(112.5)"><path d="M 0 41.02057460229844 L 0 53.32674698298797"/></g><g transform="rotate(135)"><path d="M 0 41.02057460229844 L 0 53.32674698298797"/></g><g transform="rotate(157.5)"><path d="M 0 41.02057460229844 L 0 53.32674698298797"/></g><g transform="rotate(180)"><path d="M 0 41.02057460229844 L 0 53.32674698298797"/></g><g transform="rotate(202.5)"><path d="M 0 41.02057460229844 L 0 53.32674698298797"/></g><g transform="rotate(225)"><path d="M 0 41.02057460229844 L 0 53.32674698298797"/></g><g transform="rotate(247.5)"><path d="M 0 41.02057460229844 L 0 53.32674698298797"/></g><g transform="rotate(270)"><path d="M 0 41.02057460229844 L 0 53.32674698298797"/></g><g transform="rotate(292.5)"><path d="M 0 41.02057460229844 L 0 53.32674698298797"/></g><g transform="rotate(315)"><path d="M 0 41.02057460229844 L 0 53.32674698298797"/></g><g transform="rotate(337.5)"><path d="M 0 41.02057460229844 L 0 53.32674698298797"/></g><g transform="rotate(0)"><path d="M 0 92.31923319865018 L 0 120.01500315824524"/></g><g transform="rotate(22.5)"><path d="M 0 92.31923319865018 L 0 120.01500315824524"/></g><g transform="rotate(45)"><path d="M 0 92.31923319865018 L 0 120.01500315824524"/></g><g transform="rotate(67.5)"><path d="M 0 92.31923319865018 L 0 120.01500315824524"/></g><g transform="rotate(90)"><path d="M 0 92.31923319865018 L 0 120.01500315824524"/></g><g transform="rotate(112.5)"><path d="M 0 92.31923319865018 L 0 120.01500315824524"/></g><g transform="rotate(135)"><path d="M 0 92.31923319865018 L 0 120.01500315824524"/></g><g transform="rotate(157.5)"><path d="M 0 92.31923319865018 L 0 120.01500315824524"/></g><g transform="rotate(180)"><path d="M 0 92.31923319865018 L 0 120.01500315824524"/></g><g transform="rotate(202.5)"><path d="M 0 92.31923319865018 L 0 120.01500315824524"/></g><g transform="rotate(225)"><path d="M 0 92.31923319865018 L 0 120.01500315824524"/></g><g transform="rotate(247.5)"><path d="M 0 92.31923319865018 L 0 120.01500315824524"/></g><g transform="rotate(270)"><path d="M 0 92.31923319865018 L 0 120.01500315824524"/></g><g transform="rotate(292.5)"><path d="M 0 92.31923319865018 L 0 120.01500315824524"/></g><g transform="rotate(315)"><path d="M 0 92.31923319865018 L 0 120.01500315824524"/></g><g transform="rotate(337.5)"><path d="M 0 92.31923319865018 L 0 120.01500315824524"/></g><g transform="rotate(0)"><path d="M -32.148923923959956 128.59569569583982 Q 0 154.3148348350078 32.148923923959956 128.59569569583982"/></g><g transform="rotate(22.5)"><path d="M -32.148923923959956 128.59569569583982 Q 0 154.3148348350078 32.148923923959956 128.59569569583982"/></g><g transform="rotate(45)"><path d="M -32.148923923959956 128.59569569583982 Q 0 154.3148348350078 32.148923923959956 128.59569569583982"/></g><g transform="rotate(67.5)"><path d="M -32.148923923959956 128.59569569583982 Q 0 154.3148348350078 32.148923923959956 128.59569569583982"/></g><g transform="rotate(90)"><path d="M -32.148923923959956 128.59569569583982 Q 0 154.3148348350078 32.148923923959956 128.59569569583982"/></g><g transform="rotate(112.5)"><path d="M -32.148923923959956 128.59569569583982 Q 0 154.3148348350078 32.148923923959956 128.59569569583982"/></g><g transform="rotate(135)"><path d="M -32.148923923959956 128.59569569583982 Q 0 154.3148348350078 32.148923923959956 128.59569569583982"/></g><g transform="rotate(157.5)"><path d="M -32.148923923959956 128.59569569583982 Q 0 154.3148348350078 32.148923923959956 128.59569569583982"/></g><g transform="rotate(180)"><path d="M -32.148923923959956 128.59569569583982 Q 0 154.3148348350078 32.148923923959956 128.59569569583982"/></g><g transform="rotate(202.5)"><path d="M -32.148923923959956 128.59569569583982 Q 0 154.3148348350078 32.148923923959956 128.59569569583982"/></g><g transform="rotate(225)"><path d="M -32.148923923959956 128.59569569583982 Q 0 154.3148348350078 32.148923923959956 128.59569569583982"/></g><g transform="rotate(247.5)"><path d="M -32.148923923959956 128.59569569583982 Q 0 154.3148348350078 32.148923923959956 128.59569569583982"/></g><g transform="rotate(270)"><path d="M -32.148923923959956 128.59569569583982 Q 0 154.3148348350078 32.148923923959956 128.59569569583982"/></g><g transform="rotate(292.5)"><path d="M -32.148923923959956 128.59569569583982 Q 0 154.3148348350078 32.148923923959956 128.59569569583982"/></g><g transform="rotate(315)"><path d="M -32.148923923959956 128.59569569583982 Q 0 154.3148348350078 32.148923923959956 128.59569569583982"/></g><g transform="rotate(337.5)"><path d="M -32.148923923959956 128.59569569583982 Q 0 154.3148348350078 32.148923923959956 128.59569569583982"/></g><g transform="rotate(0)"><path d="M 0 162.06942746881396 L 0 210.69025570945814"/></g><g transform="rotate(22.5)"><path d="M 0 162.06942746881396 L 0 210.69025570945814"/></g><g transform="rotate(45)"><path d="M 0 162.06942746881396 L 0 210.69025570945814"/></g><g transform="rotate(67.5)"><path d="M 0 162.06942746881396 L 0 210.69025570945814"/></g><g transform="rotate(90)"><path d="M 0 162.06942746881396 L 0 210.69025570945814"/></g><g transform="rotate(112.5)"><path d="M 0 162.06942746881396 L 0 210.69025570945814"/></g><g transform="rotate(135)"><path d="M 0 162.06942746881396 L 0 210.69025570945814"/></g><g transform="rotate(157.5)"><path d="M 0 162.06942746881396 L 0 210.69025570945814"/></g><g transform="rotate(180)"><path d="M 0 162.06942746881396 L 0 210.69025570945814"/></g><g transform="rotate(202.5)"><path d="M 0 162.06942746881396 L 0 210.69025570945814"/></g><g transform="rotate(225)"><path d="M 0 162.06942746881396 L 0 210.69025570945814"/></g><g transform="rotate(247.5)"><path d="M 0 162.06942746881396 L 0 210.69025570945814"/></g><g transform="rotate(270)"><path d="M 0 162.06942746881396 L 0 210.69025570945814"/></g><g transform="rotate(292.5)"><path d="M 0 162.06942746881396 L 0 210.69025570945814"/></g><g transform="rotate(315)"><path d="M 0 162.06942746881396 L 0 210.69025570945814"/></g><g transform="rotate(337.5)"><path d="M 0 162.06942746881396 L 0 210.69025570945814"/></g><g transform="rotate(0)"><circle cx="0" cy="214.1160876257345" r="53.52902190643363"/></g><g transform="rotate(22.5)"><circle cx="0" cy="214.1160876257345" r="53.52902190643363"/></g><g transform="rotate(45)"><circle cx="0" cy="214.1160876257345" r="53.52902190643363"/></g><g transform="rotate(67.5)"><circle cx="0" cy="214.1160876257345" r="53.52902190643363"/></g><g transform="rotate(90)"><circle cx="0" cy="214.1160876257345" r="53.52902190643363"/></g><g transform="rotate(112.5)"><circle cx="0" cy="214.1160876257345" r="53.52902190643363"/></g><g transform="rotate(135)"><circle cx="0" cy="214.1160876257345" r="53.52902190643363"/></g><g transform="rotate(157.5)"><circle cx="0" cy="214.1160876257345" r="53.52902190643363"/></g><g transform="rotate(180)"><circle cx="0" cy="214.1160876257345" r="53.52902190643363"/></g><g transform="rotate(202.5)"><circle cx="0" cy="214.1160876257345" r="53.52902190643363"/></g><g transform="rotate(225)"><circle cx="0" cy="214.1160876257345" r="53.52902190643363"/></g><g transform="rotate(247.5)"><circle cx="0" cy="214.1160876257345" r="53.52902190643363"/></g><g transform="rotate(270)"><circle cx="0" cy="214.1160876257345" r="53.52902190643363"/></g><g transform="rotate(292.5)"><circle cx="0" cy="214.1160876257345" r="53.52902190643363"/></g><g transform="rotate(315)"><circle cx="0" cy="214.1160876257345" r="53.52902190643363"/></g><g transform="rotate(337.5)"><circle cx="0" cy="214.1160876257345" r="53.52902190643363"/></g><g transform="rotate(0)"><path d="M 0 257.6828808756545 Q 85.89429362521817 309.2194570507854 0 386.5243213134818 Q -85.89429362521817 309.2194570507854 0 257.6828808756545"/></g><g transform="rotate(22.5)"><path d="M 0 257.6828808756545 Q 85.89429362521817 309.2194570507854 0 386.5243213134818 Q -85.89429362521817 309.2194570507854 0 257.6828808756545"/></g><g transform="rotate(45)"><path d="M 0 257.6828808756545 Q 85.89429362521817 309.2194570507854 0 386.5243213134818 Q -85.89429362521817 309.2194570507854 0 257.6828808756545"/></g><g transform="rotate(67.5)"><path d="M 0 257.6828808756545 Q 85.89429362521817 309.2194570507854 0 386.5243213134818 Q -85.89429362521817 309.2194570507854 0 257.6828808756545"/></g><g transform="rotate(90)"><path d="M 0 257.6828808756545 Q 85.89429362521817 309.2194570507854 0 386.5243213134818 Q -85.89429362521817 309.2194570507854 0 257.6828808756545"/></g><g transform="rotate(112.5)"><path d="M 0 257.6828808756545 Q 85.89429362521817 309.2194570507854 0 386.5243213134818 Q -85.89429362521817 309.2194570507854 0 257.6828808756545"/></g><g transform="rotate(135)"><path d="M 0 257.6828808756545 Q 85.89429362521817 309.2194570507854 0 386.5243213134818 Q -85.89429362521817 309.2194570507854 0 257.6828808756545"/></g><g transform="rotate(157.5)"><path d="M 0 257.6828808756545 Q 85.89429362521817 309.2194570507854 0 386.5243213134818 Q -85.89429362521817 309.2194570507854 0 257.6828808756545"/></g><g transform="rotate(180)"><path d="M 0 257.6828808756545 Q 85.89429362521817 309.2194570507854 0 386.5243213134818 Q -85.89429362521817 309.2194570507854 0 257.6828808756545"/></g><g transform="rotate(202.5)"><path d="M 0 257.6828808756545 Q 85.89429362521817 309.2194570507854 0 386.5243213134818 Q -85.89429362521817 309.2194570507854 0 257.6828808756545"/></g><g transform="rotate(225)"><path d="M 0 257.6828808756545 Q 85.89429362521817 309.2194570507854 0 386.5243213134818 Q -85.89429362521817 309.2194570507854 0 257.6828808756545"/></g><g transform="rotate(247.5)"><path d="M 0 257.6828808756545 Q 85.89429362521817 309.2194570507854 0 386.5243213134818 Q -85.89429362521817 309.2194570507854 0 257.6828808756545"/></g><g transform="rotate(270)"><path d="M 0 257.6828808756545 Q 85.89429362521817 309.2194570507854 0 386.5243213134818 Q -85.89429362521817 309.2194570507854 0 257.6828808756545"/></g><g transform="rotate(292.5)"><path d="M 0 257.6828808756545 Q 85.89429362521817 309.2194570507854 0 386.5243213134818 Q -85.89429362521817 309.2194570507854 0 257.6828808756545"/></g><g transform="rotate(315)"><path d="M 0 257.6828808756545 Q 85.89429362521817 309.2194570507854 0 386.5243213134818 Q -85.89429362521817 309.2194570507854 0 257.6828808756545"/></g><g transform="rotate(337.5)"><path d="M 0 257.6828808756545 Q 85.89429362521817 309.2194570507854 0 386.5243213134818 Q -85.89429362521817 309.2194570507854 0 257.6828808756545"/></g><g transform="rotate(0)"><path d="M 0 291.85021066572517 L 0 379.4052738654427"/></g><g transform="rotate(22.5)"><path d="M 0 291.85021066572517 L 0 379.4052738654427"/></g><g transform="rotate(45)"><path d="M 0 291.85021066572517 L 0 379.4052738654427"/></g><g transform="rotate(67.5)"><path d="M 0 291.85021066572517 L 0 379.4052738654427"/></g><g transform="rotate(90)"><path d="M 0 291.85021066572517 L 0 379.4052738654427"/></g><g transform="rotate(112.5)"><path d="M 0 291.85021066572517 L 0 379.4052738654427"/></g><g transform="rotate(135)"><path d="M 0 291.85021066572517 L 0 379.4052738654427"/></g><g transform="rotate(157.5)"><path d="M 0 291.85021066572517 L 0 379.4052738654427"/></g><g transform="rotate(180)"><path d="M 0 291.85021066572517 L 0 379.4052738654427"/></g><g transform="rotate(202.5)"><path d="M 0 291.85021066572517 L 0 379.4052738654427"/></g><g transform="rotate(225)"><path d="M 0 291.85021066572517 L 0 379.4052738654427"/></g><g transform="rotate(247.5)"><path d="M 0 291.85021066572517 L 0 379.4052738654427"/></g><g transform="rotate(270)"><path d="M 0 291.85021066572517 L 0 379.4052738654427"/></g><g transform="rotate(292.5)"><path d="M 0 291.85021066572517 L 0 379.4052738654427"/></g><g transform="rotate(315)"><path d="M 0 291.85021066572517 L 0 379.4052738654427"/></g><g transform="rotate(337.5)"><path d="M 0 291.85021066572517 L 0 379.4052738654427"/></g><g transform="rotate(0)"><path d="M 0 338.8057468691841 Q 112.93524895639469 406.5668962430209 0 508.2086203037761 Q -112.93524895639469 406.5668962430209 0 338.8057468691841"/></g><g transform="rotate(22.5)"><path d="M 0 338.8057468691841 Q 112.93524895639469 406.5668962430209 0 508.2086203037761 Q -112.93524895639469 406.5668962430209 0 338.8057468691841"/></g><g transform="rotate(45)"><path d="M 0 338.8057468691841 Q 112.93524895639469 406.5668962430209 0 508.2086203037761 Q -112.93524895639469 406.5668962430209 0 338.8057468691841"/></g><g transform="rotate(67.5)"><path d="M 0 338.8057468691841 Q 112.93524895639469 406.5668962430209 0 508.2086203037761 Q -112.93524895639469 406.5668962430209 0 338.8057468691841"/></g><g transform="rotate(90)"><path d="M 0 338.8057468691841 Q 112.93524895639469 406.5668962430209 0 508.2086203037761 Q -112.93524895639469 406.5668962430209 0 338.8057468691841"/></g><g transform="rotate(112.5)"><path d="M 0 338.8057468691841 Q 112.93524895639469 406.5668962430209 0 508.2086203037761 Q -112.93524895639469 406.5668962430209 0 338.8057468691841"/></g><g transform="rotate(135)"><path d="M 0 338.8057468691841 Q 112.93524895639469 406.5668962430209 0 508.2086203037761 Q -112.93524895639469 406.5668962430209 0 338.8057468691841"/></g><g transform="rotate(157.5)"><path d="M 0 338.8057468691841 Q 112.93524895639469 406.5668962430209 0 508.2086203037761 Q -112.93524895639469 406.5668962430209 0 338.8057468691841"/></g><g transform="rotate(180)"><path d="M 0 338.8057468691841 Q 112.93524895639469 406.5668962430209 0 508.2086203037761 Q -112.93524895639469 406.5668962430209 0 338.8057468691841"/></g><g transform="rotate(202.5)"><path d="M 0 338.8057468691841 Q 112.93524895639469 406.5668962430209 0 508.2086203037761 Q -112.93524895639469 406.5668962430209 0 338.8057468691841"/></g><g transform="rotate(225)"><path d="M 0 338.8057468691841 Q 112.93524895639469 406.5668962430209 0 508.2086203037761 Q -112.93524895639469 406.5668962430209 0 338.8057468691841"/></g><g transform="rotate(247.5)"><path d="M 0 338.8057468691841 Q 112.93524895639469 406.5668962430209 0 508.2086203037761 Q -112.93524895639469 406.5668962430209 0 338.8057468691841"/></g><g transform="rotate(270)"><path d="M 0 338.8057468691841 Q 112.93524895639469 406.5668962430209 0 508.2086203037761 Q -112.93524895639469 406.5668962430209 0 338.8057468691841"/></g><g transform="rotate(292.5)"><path d="M 0 338.8057468691841 Q 112.93524895639469 406.5668962430209 0 508.2086203037761 Q -112.93524895639469 406.5668962430209 0 338.8057468691841"/></g><g transform="rotate(315)"><path d="M 0 338.8057468691841 Q 112.93524895639469 406.5668962430209 0 508.2086203037761 Q -112.93524895639469 406.5668962430209 0 338.8057468691841"/></g><g transform="rotate(337.5)"><path d="M 0 338.8057468691841 Q 112.93524895639469 406.5668962430209 0 508.2086203037761 Q -112.93524895639469 406.5668962430209 0 338.8057468691841"/></g></g></svg>