<svg xmlns="http://www.w3.org/2000/svg" viewBox="0 0 800 800" width="800" height="800">
    <rect width="100%" height="100%" fill="white"/>
    <g transform="translate(400, 400)" fill="none" stroke="black" stroke-width="4" stroke-linecap="round" stroke-linejoin="round"><g transform="rotate(0)"><path d="M -14.727584341308102 58.91033736523241 Q 0 70.69240483827889 14.727584341308102 58.91033736523241"/></g><g transform="rotate(22.5)"><path d="M -14.727584341308102 58.91033736523241 Q 0 70.69240483827889 14.727584341308102 58.91033736523241"/></g><g transform="rotate(45)"><path d="M -14.727584341308102 58.91033736523241 Q 0 70.69240483827889 14.727584341308102 58.91033736523241"/></g><g transform="rotate(67.5)"><path d="M -14.727584341308102 58.91033736523241 Q 0 70.69240483827889 14.727584341308102 58.91033736523241"/></g><g transform="rotate(90)"><path d="M -14.727584341308102 58.91033736523241 Q 0 70.69240483827889 14.727584341308102 58.91033736523241"/></g><g transform="rotate(112.5)"><path d="M -14.727584341308102 58.91033736523241 Q 0 70.69240483827889 14.727584341308102 58.91033736523241"/></g><g transform="rotate(135)"><path d="M -14.727584341308102 58.91033736523241 Q 0 70.69240483827889 14.727584341308102 58.91033736523241"/></g><g transform="rotate(157.5)"><path d="M -14.727584341308102 58.91033736523241 Q 0 70.69240483827889 14.727584341308102 58.91033736523241"/></g><g transform="rotate(180)"><path d="M -14.727584341308102 58.91033736523241 Q 0 70.69240483827889 14.727584341308102 58.91033736523241"/></g><g transform="rotate(202.5)"><path d="M -14.727584341308102 58.91033736523241 Q 0 70.69240483827889 14.727584341308102 58.91033736523241"/></g><g transform="rotate(225)"><path d="M -14.727584341308102 58.91033736523241 Q 0 70.69240483827889 14.727584341308102 58.91033736523241"/></g><g transform="rotate(247.5)"><path d="M -14.727584341308102 58.91033736523241 Q 0 70.69240483827889 14.727584341308102 58.91033736523241"/></g><g transform="rotate(270)"><path d="M -14.727584341308102 58.91033736523241 Q 0 70.69240483827889 14.727584341308102 58.91033736523241"/></g><g transform="rotate(292.5)"><path d="M -14.727584341308102 58.91033736523241 Q 0 70.69240483827889 14.727584341308102 58.91033736523241"/></g><g transform="rotate(315)"><path d="M -14.727584341308102 58.91033736523241 Q 0 70.69240483827889 14.727584341308102 58.91033736523241"/></g><g transform="rotate(337.5)"><path d="M -14.727584341308102 58.91033736523241 Q 0 70.69240483827889 14.727584341308102 58.91033736523241"/></g><g transform="rotate(0)"><path d="M -23.59885115758516 94.39540463034064 Q 0 113.27448555640876 23.59885115758516 94.39540463034064"/></g><g transform="rotate(22.5)"><path d="M -23.59885115758516 94.39540463034064 Q 0 113.27448555640876 23.59885115758516 94.39540463034064"/></g><g transform="rotate(45)"><path d="M -23.59885115758516 94.39540463034064 Q 0 113.27448555640876 23.59885115758516 94.39540463034064"/></g><g transform="rotate(67.5)"><path d="M -23.59885115758516 94.39540463034064 Q 0 113.27448555640876 23.59885115758516 94.39540463034064"/></g><g transform="rotate(90)"><path d="M -23.59885115758516 94.39540463034064 Q 0 113.27448555640876 23.59885115758516 94.39540463034064"/></g><g transform="rotate(112.5)"><path d="M -23.59885115758516 94.39540463034064 Q 0 113.27448555640876 23.59885115758516 94.39540463034064"/></g><g transform="rotate(135)"><path d="M -23.59885115758516 94.39540463034064 Q 0 113.27448555640876 23.59885115758516 94.39540463034064"/></g><g transform="rotate(157.5)"><path d="M -23.59885115758516 94.39540463034064 Q 0 113.27448555640876 23.59885115758516 94.39540463034064"/></g><g transform="rotate(180)"><path d="M -23.59885115758516 94.39540463034064 Q 0 113.27448555640876 23.59885115758516 94.39540463034064"/></g><g transform="rotate(202.5)"><path d="M -23.59885115758516 94.39540463034064 Q 0 113.27448555640876 23.59885115758516 94.39540463034064"/></g><g transform="rotate(225)"><path d="M -23.59885115758516 94.39540463034064 Q 0 113.27448555640876 23.59885115758516 94.39540463034064"/></g><g transform="rotate(247.5)"><path d="M -23.59885115758516 94.39540463034064 Q 0 113.27448555640876 23.59885115758516 94.39540463034064"/></g><g transform="rotate(270)"><path d="M -23.59885115758516 94.39540463034064 Q 0 113.27448555640876 23.59885115758516 94.39540463034064"/></g><g transform="rotate(292.5)"><path d="M -23.59885115758516 94.39540463034064 Q 0 113.27448555640876 23.59885115758516 94.39540463034064"/></g><g transform="rotate(315)"><path d="M -23.59885115758516 94.39540463034064 Q 0 113.27448555640876 23.59885115758516 94.39540463034064"/></g><g transform="rotate(337.5)"><path d="M -23.59885115758516 94.39540463034064 Q 0 113.27448555640876 23.59885115758516 94.39540463034064"/></g><g transform="rotate(0)"><circle cx="0" cy="120.76877370011061" r="30.192193425027654"/></g><g transform="rotate(22.5)"><circle cx="0" cy="120.76877370011061" r="30.192193425027654"/></g><g transform="rotate(45)"><circle cx="0" cy="120.76877370011061" r="30.192193425027654"/></g><g transform="rotate(67.5)"><circle cx="0" cy="120.76877370011061" r="30.192193425027654"/></g><g transform="rotate(90)"><circle cx="0" cy="120.76877370011061" r="30.192193425027654"/></g><g transform="rotate(112.5)"><circle cx="0" cy="120.76877370011061" r="30.192193425027654"/></g><g transform="rotate(135)"><circle cx="0" cy="120.76877370011061" r="30.192193425027654"/></g><g transform="rotate(157.5)"><circle cx="0" cy="120.76877370011061" r="30.192193425027654"/></g><g transform="rotate(180)"><circle cx="0" cy="120.76877370011061" r="30.192193425027654"/></g><g transform="rotate(202.5)"><circle cx="0" cy="120.76877370011061" r="30.192193425027654"/></g><g transform="rotate(225)"><circle cx="0" cy="120.76877370011061" r="30.192193425027654"/></g><g transform="rotate(247.5)"><circle cx="0" cy="120.76877370011061" r="30.192193425027654"/></g><g transform="rotate(270)"><circle cx="0" cy="120.76877370011061" r="30.192193425027654"/></g><g transform="rotate(292.5)"><circle cx="0" cy="120.76877370011061" r="30.192193425027654"/></g><g transform="rotate(315)"><circle cx="0" cy="120.76877370011061" r="30.192193425027654"/></g><g transform="rotate(337.5)"><circle cx="0" cy="120.76877370011061" r="30.192193425027654"/></g><g transform="rotate(0)"><path d="M -42.28379716281779 169.13518865127116 Q 0 202.9622263815254 42.28379716281779 169.13518865127116"/></g><g transform="rotate(22.5)"><path d="M -42.28379716281779 169.13518865127116 Q 0 202.9622263815254 42.28379716281779 169.13518865127116"/></g><g transform="rotate(45)"><path d="M -42.28379716281779 169.13518865127116 Q 0 202.9622263815254 42.28379716281779 169.13518865127116"/></g><g transform="rotate(67.5)"><path d="M -42.28379716281779 169.13518865127116 Q 0 202.9622263815254 42.28379716281779 169.13518865127116"/></g><g transform="rotate(90)"><path d="M -42.28379716281779 169.13518865127116 Q 0 202.9622263815254 42.28379716281779 169.13518865127116"/></g><g transform="rotate(112.5)"><path d="M -42.28379716281779 169.13518865127116 Q 0 202.9622263815254 42.28379716281779 169.13518865127116"/></g><g transform="rotate(135)"><path d="M -42.28379716281779 169.13518865127116 Q 0 202.9622263815254 42.28379716281779 169.13518865127116"/></g><g transform="rotate(157.5)"><path d="M -42.28379716281779 169.13518865127116 Q 0 202.9622263815254 42.28379716281779 169.13518865127116"/></g><g transform="rotate(180)"><path d="M -42.28379716281779 169.13518865127116 Q 0 202.9622263815254 42.28379716281779 169.13518865127116"/></g><g transform="rotate(202.5)"><path d="M -42.28379716281779 169.13518865127116 Q 0 202.9622263815254 42.28379716281779 169.13518865127116"/></g><g transform="rotate(225)"><path d="M -42.28379716281779 169.13518865127116 Q 0 202.9622263815254 42.28379716281779 169.13518865127116"/></g><g transform="rotate(247.5)"><path d="M -42.28379716281779 169.13518865127116 Q 0 202.9622263815254 42.28379716281779 169.13518865127116"/></g><g transform="rotate(270)"><path d="M -42.28379716281779 169.13518865127116 Q 0 202.9622263815254 42.28379716281779 169.13518865127116"/></g><g transform="rotate(292.5)"><path d="M -42.28379716281779 169.13518865127116 Q 0 202.9622263815254 42.28379716281779 169.13518865127116"/></g><g transform="rotate(315)"><path d="M -42.28379716281779 169.13518865127116 Q 0 202.9622263815254 42.28379716281779 169.13518865127116"/></g><g transform="rotate(337.5)"><path d="M -42.28379716281779 169.13518865127116 Q 0 202.9622263815254 42.28379716281779 169.13518865127116"/></g><g transform="rotate(0)"><circle cx="0" cy="213.5663935681805" r="53.391598392045125"/></g><g transform="rotate(22.5)"><circle cx="0" cy="213.5663935681805" r="53.391598392045125"/></g><g transform="rotate(45)"><circle cx="0" cy="213.5663935681805" r="53.391598392045125"/></g><g transform="rotate(67.5)"><circle cx="0" cy="213.5663935681805" r="53.391598392045125"/></g><g transform="rotate(90)"><circle cx="0" cy="213.5663935681805" r="53.391598392045125"/></g><g transform="rotate(112.5)"><circle cx="0" cy="213.5663935681805" r="53.391598392045125"/></g><g transform="rotate(135)"><circle cx="0" cy="213.5663935681805" r="53.391598392045125"/></g><g transform="rotate(157.5)"><circle cx="0" cy="213.5663935681805" r="53.391598392045125"/></g><g transform="rotate(180)"><circle cx="0" cy="213.5663935681805" r="53.391598392045125"/></g><g transform="rotate(202.5)"><circle cx="0" cy="213.5663935681805" r="53.391598392045125"/></g><g transform="rotate(225)"><circle cx="0" cy="213.5663935681805" r="53.391598392045125"/></g><g transform="rotate(247.5)"><circle cx="0" cy="213.5663935681805" r="53.391598392045125"/></g><g transform="rotate(270)"><circle cx="0" cy="213.5663935681805" r="53.391598392045125"/></g><g transform="rotate(292.5)"><circle cx="0" cy="213.5663935681805" r="53.391598392045125"/></g><g transform="rotate(315)"><circle cx="0" cy="213.5663935681805" r="53.391598392045125"/></g><g transform="rotate(337.5)"><circle cx="0" cy="213.5663935681805" r="53.391598392045125"/></g><g transform="rotate(0)"><path d="M 0 245.84131351206452 L 0 319.59370756568387"/></g><g transform="rotate(22.5)"><path d="M 0 245.84131351206452 L 0 319.59370756568387"/></g><g transform="rotate(45)"><path d="M 0 245.84131351206452 L 0 319.59370756568387"/></g><g transform="rotate(67.5)"><path d="M 0 245.84131351206452 L 0 319.59370756568387"/></g><g transform="rotate(90)"><path d="M 0 245.84131351206452 L 0 319.59370756568387"/></g><g transform="rotate(112.5)"><path d="M 0 245.84131351206452 L 0 319.59370756568387"/></g><g transform="rotate(135)"><path d="M 0 245.84131351206452 L 0 319.59370756568387"/></g><g transform="rotate(157.5)"><path d="M 0 245.84131351206452 L 0 319.59370756568387"/></g><g transform="rotate(180)"><path d="M 0 245.84131351206452 L 0 319.59370756568387"/></g><g transform="rotate(202.5)"><path d="M 0 245.84131351206452 L 0 319.59370756568387"/></g><g transform="rotate(225)"><path d="M 0 245.84131351206452 L 0 319.59370756568387"/></g><g transform="rotate(247.5)"><path d="M 0 245.84131351206452 L 0 319.59370756568387"/></g><g transform="rotate(270)"><path d="M 0 245.84131351206452 L 0 319.59370756568387"/></g><g transform="rotate(292.5)"><path d="M 0 245.84131351206452 L 0 319.59370756568387"/></g><g transform="rotate(315)"><path d="M 0 245.84131351206452 L 0 319.59370756568387"/></g><g transform="rotate(337.5)"><path d="M 0 245.84131351206452 L 0 319.59370756568387"/></g><g transform="rotate(0)"><path d="M -71.81970645557158 287.2788258222863 Q 0 344.73459098674357 71.81970645557158 287.2788258222863"/></g><g transform="rotate(22.5)"><path d="M -71.81970645557158 287.2788258222863 Q 0 344.73459098674357 71.81970645557158 287.2788258222863"/></g><g transform="rotate(45)"><path d="M -71.81970645557158 287.2788258222863 Q 0 344.73459098674357 71.81970645557158 287.2788258222863"/></g><g transform="rotate(67.5)"><path d="M -71.81970645557158 287.2788258222863 Q 0 344.73459098674357 71.81970645557158 287.2788258222863"/></g><g transform="rotate(90)"><path d="M -71.81970645557158 287.2788258222863 Q 0 344.73459098674357 71.81970645557158 287.2788258222863"/></g><g transform="rotate(112.5)"><path d="M -71.81970645557158 287.2788258222863 Q 0 344.73459098674357 71.81970645557158 287.2788258222863"/></g><g transform="rotate(135)"><path d="M -71.81970645557158 287.2788258222863 Q 0 344.73459098674357 71.81970645557158 287.2788258222863"/></g><g transform="rotate(157.5)"><path d="M -71.81970645557158 287.2788258222863 Q 0 344.73459098674357 71.81970645557158 287.2788258222863"/></g><g transform="rotate(180)"><path d="M -71.81970645557158 287.2788258222863 Q 0 344.73459098674357 71.81970645557158 287.2788258222863"/></g><g transform="rotate(202.5)"><path d="M -71.81970645557158 287.2788258222863 Q 0 344.73459098674357 71.81970645557158 287.2788258222863"/></g><g transform="rotate(225)"><path d="M -71.81970645557158 287.2788258222863 Q 0 344.73459098674357 71.81970645557158 287.2788258222863"/></g><g transform="rotate(247.5)"><path d="M -71.81970645557158 287.2788258222863 Q 0 344.73459098674357 71.81970645557158 287.2788258222863"/></g><g transform="rotate(270)"><path d="M -71.81970645557158 287.2788258222863 Q 0 344.73459098674357 71.81970645557158 287.2788258222863"/></g><g transform="rotate(292.5)"><path d="M -71.81970645557158 287.2788258222863 Q 0 344.73459098674357 71.81970645557158 287.2788258222863"/></g><g transform="rotate(315)"><path d="M -71.81970645557158 287.2788258222863 Q 0 344.73459098674357 71.81970645557158 287.2788258222863"/></g><g transform="rotate(337.5)"><path d="M -71.81970645557158 287.2788258222863 Q 0 344.73459098674357 71.81970645557158 287.2788258222863"/></g><g transform="rotate(0)"><path d="M -83.47644938272424 333.90579753089696 Q 0 400.68695703707635 83.47644938272424 333.90579753089696"/></g><g transform="rotate(22.5)"><path d="M -83.47644938272424 333.90579753089696 Q 0 400.68695703707635 83.47644938272424 333.90579753089696"/></g><g transform="rotate(45)"><path d="M -83.47644938272424 333.90579753089696 Q 0 400.68695703707635 83.47644938272424 333.90579753089696"/></g><g transform="rotate(67.5)"><path d="M -83.47644938272424 333.90579753089696 Q 0 400.68695703707635 83.47644938272424 333.90579753089696"/></g><g transform="rotate(90)"><path d="M -83.47644938272424 333.90579753089696 Q 0 400.68695703707635 83.47644938272424 333.90579753089696"/></g><g transform="rotate(112.5)"><path d="M -83.47644938272424 333.90579753089696 Q 0 400.68695703707635 83.47644938272424 333.90579753089696"/></g><g transform="rotate(135)"><path d="M -83.47644938272424 333.90579753089696 Q 0 400.68695703707635 83.47644938272424 333.90579753089696"/></g><g transform="rotate(157.5)"><path d="M -83.47644938272424 333.90579753089696 Q 0 400.68695703707635 83.47644938272424 333.90579753089696"/></g><g transform="rotate(180)"><path d="M -83.47644938272424 333.90579753089696 Q 0 400.68695703707635 83.47644938272424 333.90579753089696"/></g><g transform="rotate(202.5)"><path d="M -83.47644938272424 333.90579753089696 Q 0 400.68695703707635 83.47644938272424 333.90579753089696"/></g><g transform="rotate(225)"><path d="M -83.47644938272424 333.90579753089696 Q 0 400.68695703707635 83.47644938272424 333.90579753089696"/></g><g transform="rotate(247.5)"><path d="M -83.47644938272424 333.90579753089696 Q 0 400.68695703707635 83.47644938272424 333.90579753089696"/></g><g transform="rotate(270)"><path d="M -83.47644938272424 333.90579753089696 Q 0 400.68695703707635 83.47644938272424 333.90579753089696"/></g><g transform="rotate(292.5)"><path d="M -83.47644938272424 333.90579753089696 Q 0 400.68695703707635 83.47644938272424 333.90579753089696"/></g><g transform="rotate(315)"><path d="M -83.47644938272424 333.90579753089696 Q 0 400.68695703707635 83.47644938272424 333.90579753089696"/></g><g transform="rotate(337.5)"><path d="M -83.47644938272424 333.90579753089696 Q 0 400.68695703707635 83.47644938272424 333.90579753089696"/></g></g></svg>