<svg xmlns="http://www.w3.org/2000/svg" viewBox="0 0 800 800" width="800" height="800">
    <rect width="100%" height="100%" fill="white"/>
    <g transform="translate(400, 400)" fill="none" stroke="black" stroke-width="4" stroke-linecap="round" stroke-linejoin="round"><g transform="rotate(0)"><path d="M -13.420499506173655 53.68199802469462 Q 0 64.41839762963355 13.420499506173655 53.68199802469462"/></g><g transform="rotate(60)"><path d="M -13.420499506173655 53.68199802469462 Q 0 64.41839762963355 13.420499506173655 53.68199802469462"/></g><g transform="rotate(120)"><path d="M -13.420499506173655 53.68199802469462 Q 0 64.41839762963355 13.420499506173655 53.68199802469462"/></g><g transform="rotate(180)"><path d="M -13.420499506173655 53.68199802469462 Q 0 64.41839762963355 13.420499506173655 53.68199802469462"/></g><g transform="rotate(240)"><path d="M -13.420499506173655 53.68199802469462 Q 0 64.41839762963355 13.420499506173655 53.68199802469462"/></g><g transform="rotate(300)"><path d="M -13.420499506173655 53.68199802469462 Q 0 64.41839762963355 13.420499506173655 53.68199802469462"/></g><g transform="rotate(0)"><path d="M 0 95.41776016406301 Q 31.80592005468767 114.50131219687562 0 143.12664024609452 Q -31.80592005468767 114.50131219687562 0 95.41776016406301"/></g><g transform="rotate(60)"><path d="M 0 95.41776016406301 Q 31.80592005468767 114.50131219687562 0 143.12664024609452 Q -31.80592005468767 114.50131219687562 0 95.41776016406301"/></g><g transform="rotate(120)"><path d="M 0 95.41776016406301 Q 31.80592005468767 114.50131219687562 0 143.12664024609452 Q -31.80592005468767 114.50131219687562 0 95.41776016406301"/></g><g transform="rotate(180)"><path d="M 0 95.41776016406301 Q 31.80592005468767 114.50131219687562 0 143.12664024609452 Q -31.80592005468767 114.50131219687562 0 95.41776016406301"/></g><g transform="rotate(240)"><path d="M 0 95.41776016406301 Q 31.80592005468767 114.50131219687562 0 143.12664024609452 Q -31.80592005468767 114.50131219687562 0 95.41776016406301"/></g><g transform="rotate(300)"><path d="M 0 95.41776016406301 Q 31.80592005468767 114.50131219687562 0 143.12664024609452 Q -31.80592005468767 114.50131219687562 0 95.41776016406301"/></g><g transform="rotate(0)"><path d="M 0 126.66833878132618 L 0 164.66884041572405"/></g><g transform="rotate(60)"><path d="M 0 126.66833878132618 L 0 164.66884041572405"/></g><g transform="rotate(120)"><path d="M 0 126.66833878132618 L 0 164.66884041572405"/></g><g transform="rotate(180)"><path d="M 0 126.66833878132618 L 0 164.66884041572405"/></g><g transform="rotate(240)"><path d="M 0 126.66833878132618 L 0 164.66884041572405"/></g><g transform="rotate(300)"><path d="M 0 126.66833878132618 L 0 164.66884041572405"/></g><g transform="rotate(0)"><path d="M 0 166.3415270407374 Q 55.4471756802458 199.60983244888487 0 249.51229056110608 Q -55.4471756802458 199.60983244888487 0 166.3415270407374"/></g><g transform="rotate(60)"><path d="M 0 166.3415270407374 Q 55.4471756802458 199.60983244888487 0 249.51229056110608 Q -55.4471756802458 199.60983244888487 0 166.3415270407374"/></g><g transform="rotate(120)"><path d="M 0 166.3415270407374 Q 55.4471756802458 199.60983244888487 0 249.51229056110608 Q -55.4471756802458 199.60983244888487 0 166.3415270407374"/></g><g transform="rotate(180)"><path d="M 0 166.3415270407374 Q 55.4471756802458 199.60983244888487 0 249.51229056110608 Q -55.4471756802458 199.60983244888487 0 166.3415270407374"/></g><g transform="rotate(240)"><path d="M 0 166.3415270407374 Q 55.4471756802458 199.60983244888487 0 249.51229056110608 Q -55.4471756802458 199.60983244888487 0 166.3415270407374"/></g><g transform="rotate(300)"><path d="M 0 166.3415270407374 Q 55.4471756802458 199.60983244888487 0 249.51229056110608 Q -55.4471756802458 199.60983244888487 0 166.3415270407374"/></g><g transform="rotate(0)"><path d="M 0 199.63647419328078 Q 66.54549139776026 239.5637690319369 0 299.4547112899212 Q -66.54549139776026 239.5637690319369 0 199.63647419328078"/></g><g transform="rotate(60)"><path d="M 0 199.63647419328078 Q 66.54549139776026 239.5637690319369 0 299.4547112899212 Q -66.54549139776026 239.5637690319369 0 199.63647419328078"/></g><g transform="rotate(120)"><path d="M 0 199.63647419328078 Q 66.54549139776026 239.5637690319369 0 299.4547112899212 Q -66.54549139776026 239.5637690319369 0 199.63647419328078"/></g><g transform="rotate(180)"><path d="M 0 199.63647419328078 Q 66.54549139776026 239.5637690319369 0 299.4547112899212 Q -66.54549139776026 239.5637690319369 0 199.63647419328078"/></g><g transform="rotate(240)"><path d="M 0 199.63647419328078 Q 66.54549139776026 239.5637690319369 0 299.4547112899212 Q -66.54549139776026 239.5637690319369 0 199.63647419328078"/></g><g transform="rotate(300)"><path d="M 0 199.63647419328078 Q 66.54549139776026 239.5637690319369 0 299.4547112899212 Q -66.54549139776026 239.5637690319369 0 199.63647419328078"/></g><g transform="rotate(0)"><path d="M 0 226.5100628349723 L 56.627515708743076 271.81207540196675 L 0 317.1140879689612 L -56.627515708743076 271.81207540196675 Z"/></g><g transform="rotate(60)"><path d="M 0 226.5100628349723 L 56.627515708743076 271.81207540196675 L 0 317.1140879689612 L -56.627515708743076 271.81207540196675 Z"/></g><g transform="rotate(120)"><path d="M 0 226.5100628349723 L 56.627515708743076 271.81207540196675 L 0 317.1140879689612 L -56.627515708743076 271.81207540196675 Z"/></g><g transform="rotate(180)"><path d="M 0 226.5100628349723 L 56.627515708743076 271.81207540196675 L 0 317.1140879689612 L -56.627515708743076 271.81207540196675 Z"/></g><g transform="rotate(240)"><path d="M 0 226.5100628349723 L 56.627515708743076 271.81207540196675 L 0 317.1140879689612 L -56.627515708743076 271.81207540196675 Z"/></g><g transform="rotate(300)"><path d="M 0 226.5100628349723 L 56.627515708743076 271.81207540196675 L 0 317.1140879689612 L -56.627515708743076 271.81207540196675 Z"/></g><g transform="rotate(0)"><path d="M 0 272.6118530596917 Q 90.8706176865639 327.1342236716301 0 408.9177795895376 Q -90.8706176865639 327.1342236716301 0 272.6118530596917"/></g><g transform="rotate(60)"><path d="M 0 272.6118530596917 Q 90.8706176865639 327.1342236716301 0 408.9177795895376 Q -90.8706176865639 327.1342236716301 0 272.6118530596917"/></g><g transform="rotate(120)"><path d="M 0 272.6118530596917 Q 90.8706176865639 327.1342236716301 0 408.9177795895376 Q -90.8706176865639 327.1342236716301 0 272.6118530596917"/></g><g transform="rotate(180)"><path d="M 0 272.6118530596917 Q 90.8706176865639 327.1342236716301 0 408.9177795895376 Q -90.8706176865639 327.1342236716301 0 272.6118530596917"/></g><g transform="rotate(240)"><path d="M 0 272.6118530596917 Q 90.8706176865639 327.1342236716301 0 408.9177795895376 Q -90.8706176865639 327.1342236716301 0 272.6118530596917"/></g><g transform="rotate(300)"><path d="M 0 272.6118530596917 Q 90.8706176865639 327.1342236716301 0 408.9177795895376 Q -90.8706176865639 327.1342236716301 0 272.6118530596917"/></g><g transform="rotate(0)"><path d="M 0 297.0943317877957 L 74.27358294694892 356.5131981453548 L 0 415.93206450291393 L -74.27358294694892 356.5131981453548 Z"/></g><g transform="rotate(60)"><path d="M 0 297.0943317877957 L 74.27358294694892 356.5131981453548 L 0 415.93206450291393 L -74.27358294694892 356.5131981453548 Z"/></g><g transform="rotate(120)"><path d="M 0 297.0943317877957 L 74.27358294694892 356.5131981453548 L 0 415.93206450291393 L -74.27358294694892 356.5131981453548 Z"/></g><g transform="rotate(180)"><path d="M 0 297.0943317877957 L 74.27358294694892 356.5131981453548 L 0 415.93206450291393 L -74.27358294694892 356.5131981453548 Z"/></g><g transform="rotate(240)"><path d="M 0 297.0943317877957 L 74.27358294694892 356.5131981453548 L 0 415.93206450291393 L -74.27358294694892 356.5131981453548 Z"/></g><g transform="rotate(300)"><path d="M 0 297.0943317877957 L 74.27358294694892 356.5131981453548 L 0 415.93206450291393 L -74.27358294694892 356.5131981453548 Z"/></g><g transform="rotate(0)"><path d="M -84.88430920044064 339.53723680176256 Q 0 407.44468416211504 84.88430920044064 339.53723680176256"/></g><g transform="rotate(60)"><path d="M -84.88430920044064 339.53723680176256 Q 0 407.44468416211504 84.88430920044064 339.53723680176256"/></g><g transform="rotate(120)"><path d="M -84.88430920044064 339.53723680176256 Q 0 407.44468416211504 84.88430920044064 339.53723680176256"/></g><g transform="rotate(180)"><path d="M -84.88430920044064 339.53723680176256 Q 0 407.44468416211504 84.88430920044064 339.53723680176256"/></g><g transform="rotate(240)"><path d="M -84.88430920044064 339.53723680176256 Q 0 407.44468416211504 84.88430920044064 339.53723680176256"/></g><g transform="rotate(300)"><path d="M -84.88430920044064 339.53723680176256 Q 0 407.44468416211504 84.88430920044064 339.53723680176256"/></g></g></svg>