<svg xmlns="http://www.w3.org/2000/svg" viewBox="0 0 800 800" width="800" height="800">
    <rect width="100%" height="100%" fill="white"/>
    <g transform="translate(400, 400)" fill="none" stroke="black" stroke-width="4" stroke-linecap="round" stroke-linejoin="round"><g transform="rotate(0)"><path d="M 0 54.485150426626205 L 0 70.83069555461407"/></g><g transform="rotate(18)"><path d="M 0 54.485150426626205 L 0 70.83069555461407"/></g><g transform="rotate(36)"><path d="M 0 54.485150426626205 L 0 70.83069555461407"/></g><g transform="rotate(54)"><path d="M 0 54.485150426626205 L 0 70.83069555461407"/></g><g transform="rotate(72)"><path d="M 0 54.485150426626205 L 0 70.83069555461407"/></g><g transform="rotate(90)"><path d="M 0 54.485150426626205 L 0 70.83069555461407"/></g><g transform="rotate(108)"><path d="M 0 54.485150426626205 L 0 70.83069555461407"/></g><g transform="rotate(126)"><path d="M 0 54.485150426626205 L 0 70.83069555461407"/></g><g transform="rotate(144)"><path d="M 0 54.485150426626205 L 0 70.83069555461407"/></g><g transform="rotate(162)"><path d="M 0 54.485150426626205 L 0 70.83069555461407"/></g><g transform="rotate(180)"><path d="M 0 54.485150426626205 L 0 70.83069555461407"/></g><g transform="rotate(198)"><path d="M 0 54.485150426626205 L 0 70.83069555461407"/></g><g transform="rotate(216)"><path d="M 0 54.485150426626205 L 0 70.83069555461407"/></g><g transform="rotate(234)"><path d="M 0 54.485150426626205 L 0 70.83069555461407"/></g><g transform="rotate(252)"><path d="M 0 54.485150426626205 L 0 70.83069555461407"/></g><g transform="rotate(270)"><path d="M 0 54.485150426626205 L 0 70.83069555461407"/></g><g transform="rotate(288)"><path d="M 0 54.485150426626205 L 0 70.83069555461407"/></g><g transform="rotate(306)"><path d="M 0 54.485150426626205 L 0 70.83069555461407"/></g><g transform="rotate(324)"><path d="M 0 54.485150426626205 L 0 70.83069555461407"/></g><g transform="rotate(342)"><path d="M 0 54.485150426626205 L 0 70.83069555461407"/></g><g transform="rotate(0)"><path d="M -27.038183292839676 108.1527331713587 Q 0 129.78327980563043 27.038183292839676 108.1527331713587"/></g><g transform="rotate(18)"><path d="M -27.038183292839676 108.1527331713587 Q 0 129.78327980563043 27.038183292839676 108.1527331713587"/></g><g transform="rotate(36)"><path d="M -27.038183292839676 108.1527331713587 Q 0 129.78327980563043 27.038183292839676 108.1527331713587"/></g><g transform="rotate(54)"><path d="M -27.038183292839676 108.1527331713587 Q 0 129.78327980563043 27.038183292839676 108.1527331713587"/></g><g transform="rotate(72)"><path d="M -27.038183292839676 108.1527331713587 Q 0 129.78327980563043 27.038183292839676 108.1527331713587"/></g><g transform="rotate(90)"><path d="M -27.038183292839676 108.1527331713587 Q 0 129.78327980563043 27.038183292839676 108.1527331713587"/></g><g transform="rotate(108)"><path d="M -27.038183292839676 108.1527331713587 Q 0 129.78327980563043 27.038183292839676 108.1527331713587"/></g><g transform="rotate(126)"><path d="M -27.038183292839676 108.1527331713587 Q 0 129.78327980563043 27.038183292839676 108.1527331713587"/></g><g transform="rotate(144)"><path d="M -27.038183292839676 108.1527331713587 Q 0 129.78327980563043 27.038183292839676 108.1527331713587"/></g><g transform="rotate(162)"><path d="M -27.038183292839676 108.1527331713587 Q 0 129.78327980563043 27.038183292839676 108.1527331713587"/></g><g transform="rotate(180)"><path d="M -27.038183292839676 108.1527331713587 Q 0 129.78327980563043 27.038183292839676 108.1527331713587"/></g><g transform="rotate(198)"><path d="M -27.038183292839676 108.1527331713587 Q 0 129.78327980563043 27.038183292839676 108.1527331713587"/></g><g transform="rotate(216)"><path d="M -27.038183292839676 108.1527331713587 Q 0 129.78327980563043 27.038183292839676 108.1527331713587"/></g><g transform="rotate(234)"><path d="M -27.038183292839676 108.1527331713587 Q 0 129.78327980563043 27.038183292839676 108.1527331713587"/></g><g transform="rotate(252)"><path d="M -27.038183292839676 108.1527331713587 Q 0 129.78327980563043 27.038183292839676 108.1527331713587"/></g><g transform="rotate(270)"><path d="M -27.038183292839676 108.1527331713587 Q 0 129.78327980563043 27.038183292839676 108.1527331713587"/></g><g transform="rotate(288)"><path d="M -27.038183292839676 108.1527331713587 Q 0 129.78327980563043 27.038183292839676 108.1527331713587"/></g><g transform="rotate(306)"><path d="M -27.038183292839676 108.1527331713587 Q 0 129.78327980563043 27.038183292839676 108.1527331713587"/></g><g transform="rotate(324)"><path d="M -27.038183292839676 108.1527331713587 Q 0 129.78327980563043 27.038183292839676 108.1527331713587"/></g><g transform="rotate(342)"><path d="M -27.038183292839676 108.1527331713587 Q 0 129.78327980563043 27.038183292839676 108.1527331713587"/></g><g transform="rotate(0)"><path d="M 0 170.0812631584704 L 0 221.10564210601152"/></g><g transform="rotate(18)"><path d="M 0 170.0812631584704 L 0 221.10564210601152"/></g><g transform="rotate(36)"><path d="M 0 170.0812631584704 L 0 221.10564210601152"/></g><g transform="rotate(54)"><path d="M 0 170.0812631584704 L 0 221.10564210601152"/></g><g transform="rotate(72)"><path d="M 0 170.0812631584704 L 0 221.10564210601152"/></g><g transform="rotate(90)"><path d="M 0 170.0812631584704 L 0 221.10564210601152"/></g><g transform="rotate(108)"><path d="M 0 170.0812631584704 L 0 221.10564210601152"/></g><g transform="rotate(126)"><path d="M 0 170.0812631584704 L 0 221.10564210601152"/></g><g transform="rotate(144)"><path d="M 0 170.0812631584704 L 0 221.10564210601152"/></g><g transform="rotate(162)"><path d="M 0 170.0812631584704 L 0 221.10564210601152"/></g><g transform="rotate(180)"><path d="M 0 170.0812631584704 L 0 221.10564210601152"/></g><g transform="rotate(198)"><path d="M 0 170.0812631584704 L 0 221.10564210601152"/></g><g transform="rotate(216)"><path d="M 0 170.0812631584704 L 0 221.10564210601152"/></g><g transform="rotate(234)"><path d="M 0 170.0812631584704 L 0 221.10564210601152"/></g><g transform="rotate(252)"><path d="M 0 170.0812631584704 L 0 221.10564210601152"/></g><g transform="rotate(270)"><path d="M 0 170.0812631584704 L 0 221.10564210601152"/></g><g transform="rotate(288)"><path d="M 0 170.0812631584704 L 0 221.10564210601152"/></g><g transform="rotate(306)"><path d="M 0 170.0812631584704 L 0 221.10564210601152"/></g><g transform="rotate(324)"><path d="M 0 170.0812631584704 L 0 221.10564210601152"/></g><g transform="rotate(342)"><path d="M 0 170.0812631584704 L 0 221.10564210601152"/></g><g transform="rotate(0)"><path d="M 0 232.24401712231338 L 0 301.9172222590074"/></g><g transform="rotate(18)"><path d="M 0 232.24401712231338 L 0 301.9172222590074"/></g><g transform="rotate(36)"><path d="M 0 232.24401712231338 L 0 301.9172222590074"/></g><g transform="rotate(54)"><path d="M 0 232.24401712231338 L 0 301.9172222590074"/></g><g transform="rotate(72)"><path d="M 0 232.24401712231338 L 0 301.9172222590074"/></g><g transform="rotate(90)"><path d="M 0 232.24401712231338 L 0 301.9172222590074"/></g><g transform="rotate(108)"><path d="M 0 232.24401712231338 L 0 301.9172222590074"/></g><g transform="rotate(126)"><path d="M 0 232.24401712231338 L 0 301.9172222590074"/></g><g transform="rotate(144)"><path d="M 0 232.24401712231338 L 0 301.9172222590074"/></g><g transform="rotate(162)"><path d="M 0 232.24401712231338 L 0 301.9172222590074"/></g><g transform="rotate(180)"><path d="M 0 232.24401712231338 L 0 301.9172222590074"/></g><g transform="rotate(198)"><path d="M 0 232.24401712231338 L 0 301.9172222590074"/></g><g transform="rotate(216)"><path d="M 0 232.24401712231338 L 0 301.9172222590074"/></g><g transform="rotate(234)"><path d="M 0 232.24401712231338 L 0 301.9172222590074"/></g><g transform="rotate(252)"><path d="M 0 232.24401712231338 L 0 301.9172222590074"/></g><g transform="rotate(270)"><path d="M 0 232.24401712231338 L 0 301.9172222590074"/></g><g transform="rotate(288)"><path d="M 0 232.24401712231338 L 0 301.9172222590074"/></g><g transform="rotate(306)"><path d="M 0 232.24401712231338 L 0 301.9172222590074"/></g><g transform="rotate(324)"><path d="M 0 232.24401712231338 L 0 301.9172222590074"/></g><g transform="rotate(342)"><path d="M 0 232.24401712231338 L 0 301.9172222590074"/></g><g transform="rotate(0)"><path d="M 0 299.92591062933207 Q 99.97530354311068 359.91109275519847 0 449.8888659439981 Q -99.97530354311068 359.91109275519847 0 299.92591062933207"/></g><g transform="rotate(18)"><path d="M 0 299.92591062933207 Q 99.97530354311068 359.91109275519847 0 449.8888659439981 Q -99.97530354311068 359.91109275519847 0 299.92591062933207"/></g><g transform="rotate(36)"><path d="M 0 299.92591062933207 Q 99.97530354311068 359.91109275519847 0 449.8888659439981 Q -99.97530354311068 359.91109275519847 0 299.92591062933207"/></g><g transform="rotate(54)"><path d="M 0 299.92591062933207 Q 99.97530354311068 359.91109275519847 0 449.8888659439981 Q -99.97530354311068 359.91109275519847 0 299.92591062933207"/></g><g transform="rotate(72)"><path d="M 0 299.92591062933207 Q 99.97530354311068 359.91109275519847 0 449.8888659439981 Q -99.97530354311068 359.91109275519847 0 299.92591062933207"/></g><g transform="rotate(90)"><path d="M 0 299.92591062933207 Q 99.97530354311068 359.91109275519847 0 449.8888659439981 Q -99.97530354311068 359.91109275519847 0 299.92591062933207"/></g><g transform="rotate(108)"><path d="M 0 299.92591062933207 Q 99.97530354311068 359.91109275519847 0 449.8888659439981 Q -99.97530354311068 359.91109275519847 0 299.92591062933207"/></g><g transform="rotate(126)"><path d="M 0 299.92591062933207 Q 99.97530354311068 359.91109275519847 0 449.8888659439981 Q -99.97530354311068 359.91109275519847 0 299.92591062933207"/></g><g transform="rotate(144)"><path d="M 0 299.92591062933207 Q 99.97530354311068 359.91109275519847 0 449.8888659439981 Q -99.97530354311068 359.91109275519847 0 299.92591062933207"/></g><g transform="rotate(162)"><path d="M 0 299.92591062933207 Q 99.97530354311068 359.91109275519847 0 449.8888659439981 Q -99.97530354311068 359.91109275519847 0 299.92591062933207"/></g><g transform="rotate(180)"><path d="M 0 299.92591062933207 Q 99.97530354311068 359.91109275519847 0 449.8888659439981 Q -99.97530354311068 359.91109275519847 0 299.92591062933207"/></g><g transform="rotate(198)"><path d="M 0 299.92591062933207 Q 99.97530354311068 359.91109275519847 0 449.8888659439981 Q -99.97530354311068 359.91109275519847 0 299.92591062933207"/></g><g transform="rotate(216)"><path d="M 0 299.92591062933207 Q 99.97530354311068 359.91109275519847 0 449.8888659439981 Q -99.97530354311068 359.91109275519847 0 299.92591062933207"/></g><g transform="rotate(234)"><path d="M 0 299.92591062933207 Q 99.97530354311068 359.91109275519847 0 449.8888659439981 Q -99.97530354311068 359.91109275519847 0 299.92591062933207"/></g><g transform="rotate(252)"><path d="M 0 299.92591062933207 Q 99.97530354311068 359.91109275519847 0 449.8888659439981 Q -99.97530354311068 359.91109275519847 0 299.92591062933207"/></g><g transform="rotate(270)"><path d="M 0 299.92591062933207 Q 99.97530354311068 359.91109275519847 0 449.8888659439981 Q -99.97530354311068 359.91109275519847 0 299.92591062933207"/></g><g transform="rotate(288)"><path d="M 0 299.92591062933207 Q 99.97530354311068 359.91109275519847 0 449.8888659439981 Q -99.97530354311068 359.91109275519847 0 299.92591062933207"/></g><g transform="rotate(306)"><path d="M 0 299.92591062933207 Q 99.97530354311068 359.91109275519847 0 449.8888659439981 Q -99.97530354311068 359.91109275519847 0 299.92591062933207"/></g><g transform="rotate(324)"><path d="M 0 299.92591062933207 Q 99.97530354311068 359.91109275519847 0 449.8888659439981 Q -99.97530354311068 359.91109275519847 0 299.92591062933207"/></g><g transform="rotate(342)"><path d="M 0 299.92591062933207 Q 99.97530354311068 359.91109275519847 0 449.8888659439981 Q -99.97530354311068 359.91109275519847 0 299.92591062933207"/></g></g></svg>