<svg xmlns="http://www.w3.org/2000/svg" viewBox="0 0 800 800" width="800" height="800">
    <rect width="100%" height="100%" fill="white"/>
    <g transform="translate(400, 400)" fill="none" stroke="black" stroke-width="4" stroke-linecap="round" stroke-linejoin="round"><g transform="rotate(0)"><path d="M 0 40.516642169095576 L 10.129160542273894 48.61997060291469 L 0 56.7232990367338 L -10.129160542273894 48.61997060291469 Z"/></g><g transform="rotate(30)"><path d="M 0 40.516642169095576 L 10.129160542273894 48.61997060291469 L 0 56.7232990367338 L -10.129160542273894 48.61997060291469 Z"/></g><g transform="rotate(60)"><path d="M 0 40.516642169095576 L 10.129160542273894 48.61997060291469 L 0 56.7232990367338 L -10.129160542273894 48.61997060291469 Z"/></g><g transform="rotate(90)"><path d="M 0 40.516642169095576 L 10.129160542273894 48.61997060291469 L 0 56.7232990367338 L -10.129160542273894 48.61997060291469 Z"/></g><g transform="rotate(120)"><path d="M 0 40.516642169095576 L 10.129160542273894 48.61997060291469 L 0 56.7232990367338 L -10.129160542273894 48.61997060291469 Z"/></g><g transform="rotate(150)"><path d="M 0 40.516642169095576 L 10.129160542273894 48.61997060291469 L 0 56.7232990367338 L -10.129160542273894 48.61997060291469 Z"/></g><g transform="rotate(180)"><path d="M 0 40.516642169095576 L 10.129160542273894 48.61997060291469 L 0 56.7232990367338 L -10.129160542273894 48.61997060291469 Z"/></g><g transform="rotate(210)"><path d="M 0 40.516642169095576 L 10.129160542273894 48.61997060291469 L 0 56.7232990367338 L -10.129160542273894 48.61997060291469 Z"/></g><g transform="rotate(240)"><path d="M 0 40.516642169095576 L 10.129160542273894 48.61997060291469 L 0 56.7232990367338 L -10.129160542273894 48.61997060291469 Z"/></g><g transform="rotate(270)"><path d="M 0 40.516642169095576 L 10.129160542273894 48.61997060291469 L 0 56.7232990367338 L -10.129160542273894 48.61997060291469 Z"/></g><g transform="rotate(300)"><path d="M 0 40.516642169095576 L 10.129160542273894 48.61997060291469 L 0 56.7232990367338 L -10.129160542273894 48.61997060291469 Z"/></g><g transform="rotate(330)"><path d="M 0 40.516642169095576 L 10.129160542273894 48.61997060291469 L 0 56.7232990367338 L -10.129160542273894 48.61997060291469 Z"/></g><g transform="rotate(0)"><path d="M 0 88.69074747032886 L 0 115.29797171142752"/></g><g transform="rotate(30)"><path d="M 0 88.69074747032886 L 0 115.29797171142752"/></g><g transform="rotate(60)"><path d="M 0 88.69074747032886 L 0 115.29797171142752"/></g><g transform="rotate(90)"><path d="M 0 88.69074747032886 L 0 115.29797171142752"/></g><g transform="rotate(120)"><path d="M 0 88.69074747032886 L 0 115.29797171142752"/></g><g transform="rotate(150)"><path d="M 0 88.69074747032886 L 0 115.29797171142752"/></g><g transform="rotate(180)"><path d="M 0 88.69074747032886 L 0 115.29797171142752"/></g><g transform="rotate(210)"><path d="M 0 88.69074747032886 L 0 115.29797171142752"/></g><g transform="rotate(240)"><path d="M 0 88.69074747032886 L 0 115.29797171142752"/></g><g transform="rotate(270)"><path d="M 0 88.69074747032886 L 0 115.29797171142752"/></g><g transform="rotate(300)"><path d="M 0 88.69074747032886 L 0 115.29797171142752"/></g><g transform="rotate(330)"><path d="M 0 88.69074747032886 L 0 115.29797171142752"/></g><g transform="rotate(0)"><path d="M 0 145.2454161051927 L 36.311354026298176 174.29449932623123 L 0 203.34358254726976 L -36.311354026298176 174.29449932623123 Z"/></g><g transform="rotate(30)"><path d="M 0 145.2454161051927 L 36.311354026298176 174.29449932623123 L 0 203.34358254726976 L -36.311354026298176 174.29449932623123 Z"/></g><g transform="rotate(60)"><path d="M 0 145.2454161051927 L 36.311354026298176 174.29449932623123 L 0 203.34358254726976 L -36.311354026298176 174.29449932623123 Z"/></g><g transform="rotate(90)"><path d="M 0 145.2454161051927 L 36.311354026298176 174.29449932623123 L 0 203.34358254726976 L -36.311354026298176 174.29449932623123 Z"/></g><g transform="rotate(120)"><path d="M 0 145.2454161051927 L 36.311354026298176 174.29449932623123 L 0 203.34358254726976 L -36.311354026298176 174.29449932623123 Z"/></g><g transform="rotate(150)"><path d="M 0 145.2454161051927 L 36.311354026298176 174.29449932623123 L 0 203.34358254726976 L -36.311354026298176 174.29449932623123 Z"/></g><g transform="rotate(180)"><path d="M 0 145.2454161051927 L 36.311354026298176 174.29449932623123 L 0 203.34358254726976 L -36.311354026298176 174.29449932623123 Z"/></g><g transform="rotate(210)"><path d="M 0 145.2454161051927 L 36.311354026298176 174.29449932623123 L 0 203.34358254726976 L -36.311354026298176 174.29449932623123 Z"/></g><g transform="rotate(240)"><path d="M 0 145.2454161051927 L 36.311354026298176 174.29449932623123 L 0 203.34358254726976 L -36.311354026298176 174.29449932623123 Z"/></g><g transform="rotate(270)"><path d="M 0 145.2454161051927 L 36.311354026298176 174.29449932623123 L 0 203.34358254726976 L -36.311354026298176 174.29449932623123 Z"/></g><g transform="rotate(300)"><path d="M 0 145.2454161051927 L 36.311354026298176 174.29449932623123 L 0 203.34358254726976 L -36.311354026298176 174.29449932623123 Z"/></g><g transform="rotate(330)"><path d="M 0 145.2454161051927 L 36.311354026298176 174.29449932623123 L 0 203.34358254726976 L -36.311354026298176 174.29449932623123 Z"/></g><g transform="rotate(0)"><circle cx="0" cy="187.41635929061366" r="46.854089822653414"/></g><g transform="rotate(30)"><circle cx="0" cy="187.41635929061366" r="46.854089822653414"/></g><g transform="rotate(60)"><circle cx="0" cy="187.41635929061366" r="46.854089822653414"/></g><g transform="rotate(90)"><circle cx="0" cy="187.41635929061366" r="46.854089822653414"/></g><g transform="rotate(120)"><circle cx="0" cy="187.41635929061366" r="46.854089822653414"/></g><g transform="rotate(150)"><circle cx="0" cy="187.41635929061366" r="46.854089822653414"/></g><g transform="rotate(180)"><circle cx="0" cy="187.41635929061366" r="46.854089822653414"/></g><g transform="rotate(210)"><circle cx="0" cy="187.41635929061366" r="46.854089822653414"/></g><g transform="rotate(240)"><circle cx="0" cy="187.41635929061366" r="46.854089822653414"/></g><g transform="rotate(270)"><circle cx="0" cy="187.41635929061366" r="46.854089822653414"/></g><g transform="rotate(300)"><circle cx="0" cy="187.41635929061366" r="46.854089822653414"/></g><g transform="rotate(330)"><circle cx="0" cy="187.41635929061366" r="46.854089822653414"/></g><g transform="rotate(0)"><path d="M 0 229.4468537418704 Q 76.48228458062347 275.3362244902445 0 344.1702806128056 Q -76.48228458062347 275.3362244902445 0 229.4468537418704"/></g><g transform="rotate(30)"><path d="M 0 229.4468537418704 Q 76.48228458062347 275.3362244902445 0 344.1702806128056 Q -76.48228458062347 275.3362244902445 0 229.4468537418704"/></g><g transform="rotate(60)"><path d="M 0 229.4468537418704 Q 76.48228458062347 275.3362244902445 0 344.1702806128056 Q -76.48228458062347 275.3362244902445 0 229.4468537418704"/></g><g transform="rotate(90)"><path d="M 0 229.4468537418704 Q 76.48228458062347 275.3362244902445 0 344.1702806128056 Q -76.48228458062347 275.3362244902445 0 229.4468537418704"/></g><g transform="rotate(120)"><path d="M 0 229.4468537418704 Q 76.48228458062347 275.3362244902445 0 344.1702806128056 Q -76.48228458062347 275.3362244902445 0 229.4468537418704"/></g><g transform="rotate(150)"><path d="M 0 229.4468537418704 Q 76.48228458062347 275.3362244902445 0 344.1702806128056 Q -76.48228458062347 275.3362244902445 0 229.4468537418704"/></g><g transform="rotate(180)"><path d="M 0 229.4468537418704 Q 76.48228458062347 275.3362244902445 0 344.1702806128056 Q -76.48228458062347 275.3362244902445 0 229.4468537418704"/></g><g transform="rotate(210)"><path d="M 0 229.4468537418704 Q 76.48228458062347 275.3362244902445 0 344.1702806128056 Q -76.48228458062347 275.3362244902445 0 229.4468537418704"/></g><g transform="rotate(240)"><path d="M 0 229.4468537418704 Q 76.48228458062347 275.3362244902445 0 344.1702806128056 Q -76.48228458062347 275.3362244902445 0 229.4468537418704"/></g><g transform="rotate(270)"><path d="M 0 229.4468537418704 Q 76.48228458062347 275.3362244902445 0 344.1702806128056 Q -76.48228458062347 275.3362244902445 0 229.4468537418704"/></g><g transform="rotate(300)"><path d="M 0 229.4468537418704 Q 76.48228458062347 275.3362244902445 0 344.1702806128056 Q -76.48228458062347 275.3362244902445 0 229.4468537418704"/></g><g transform="rotate(330)"><path d="M 0 229.4468537418704 Q 76.48228458062347 275.3362244902445 0 344.1702806128056 Q -76.48228458062347 275.3362244902445 0 229.4468537418704"/></g><g transform="rotate(0)"><path d="M -69.88534064580952 279.5413625832381 Q 0 335.4496350998857 69.88534064580952 279.5413625832381"/></g><g transform="rotate(30)"><path d="M -69.88534064580952 279.5413625832381 Q 0 335.4496350998857 69.88534064580952 279.5413625832381"/></g><g transform="rotate(60)"><path d="M -69.88534064580952 279.5413625832381 Q 0 335.4496350998857 69.88534064580952 279.5413625832381"/></g><g transform="rotate(90)"><path d="M -69.88534064580952 279.5413625832381 Q 0 335.4496350998857 69.88534064580952 279.5413625832381"/></g><g transform="rotate(120)"><path d="M -69.88534064580952 279.5413625832381 Q 0 335.4496350998857 69.88534064580952 279.5413625832381"/></g><g transform="rotate(150)"><path d="M -69.88534064580952 279.5413625832381 Q 0 335.4496350998857 69.88534064580952 279.5413625832381"/></g><g transform="rotate(180)"><path d="M -69.88534064580952 279.5413625832381 Q 0 335.4496350998857 69.88534064580952 279.5413625832381"/></g><g transform="rotate(210)"><path d="M -69.88534064580952 279.5413625832381 Q 0 335.4496350998857 69.88534064580952 279.5413625832381"/></g><g transform="rotate(240)"><path d="M -69.88534064580952 279.5413625832381 Q 0 335.4496350998857 69.88534064580952 279.5413625832381"/></g><g transform="rotate(270)"><path d="M -69.88534064580952 279.5413625832381 Q 0 335.4496350998857 69.88534064580952 279.5413625832381"/></g><g transform="rotate(300)"><path d="M -69.88534064580952 279.5413625832381 Q 0 335.4496350998857 69.88534064580952 279.5413625832381"/></g><g transform="rotate(330)"><path d="M -69.88534064580952 279.5413625832381 Q 0 335.4496350998857 69.88534064580952 279.5413625832381"/></g><g transform="rotate(0)"><path d="M 0 316.70715674691434 L 0 411.71930377098863"/></g><g transform="rotate(30)"><path d="M 0 316.70715674691434 L 0 411.71930377098863"/></g><g transform="rotate(60)"><path d="M 0 316.70715674691434 L 0 411.71930377098863"/></g><g transform="rotate(90)"><path d="M 0 316.70715674691434 L 0 411.71930377098863"/></g><g transform="rotate(120)"><path d="M 0 316.70715674691434 L 0 411.71930377098863"/></g><g transform="rotate(150)"><path d="M 0 316.70715674691434 L 0 411.71930377098863"/></g><g transform="rotate(180)"><path d="M 0 316.70715674691434 L 0 411.71930377098863"/></g><g transform="rotate(210)"><path d="M 0 316.70715674691434 L 0 411.71930377098863"/></g><g transform="rotate(240)"><path d="M 0 316.70715674691434 L 0 411.71930377098863"/></g><g transform="rotate(270)"><path d="M 0 316.70715674691434 L 0 411.71930377098863"/></g><g transform="rotate(300)"><path d="M 0 316.70715674691434 L 0 411.71930377098863"/></g><g transform="rotate(330)"><path d="M 0 316.70715674691434 L 0 411.71930377098863"/></g></g></svg>