<svg xmlns="http://www.w3.org/2000/svg" viewBox="0 0 800 800" width="800" height="800">
    <rect width="100%" height="100%" fill="white"/>
    <g transform="translate(400, 400)" fill="none" stroke="black" stroke-width="4" stroke-linecap="round" stroke-linejoin="round"><g transform="rotate(0)"><path d="M -10.40475363493897 41.61901453975588 Q 0 49.94281744770706 10.40475363493897 41.61901453975588"/></g><g transform="rotate(18)"><path d="M -10.40475363493897 41.61901453975588 Q 0 49.94281744770706 10.40475363493897 41.61901453975588"/></g><g transform="rotate(36)"><path d="M -10.40475363493897 41.61901453975588 Q 0 49.94281744770706 10.40475363493897 41.61901453975588"/></g><g transform="rotate(54)"><path d="M -10.40475363493897 41.61901453975588 Q 0 49.94281744770706 10.40475363493897 41.61901453975588"/></g><g transform="rotate(72)"><path d="M -10.40475363493897 41.61901453975588 Q 0 49.94281744770706 10.40475363493897 41.61901453975588"/></g><g transform="rotate(90)"><path d="M -10.40475363493897 41.61901453975588 Q 0 49.94281744770706 10.40475363493897 41.61901453975588"/></g><g transform="rotate(108)"><path d="M -10.40475363493897 41.61901453975588 Q 0 49.94281744770706 10.40475363493897 41.61901453975588"/></g><g transform="rotate(126)"><path d="M -10.40475363493897 41.61901453975588 Q 0 49.94281744770706 10.40475363493897 41.61901453975588"/></g><g transform="rotate(144)"><path d="M -10.40475363493897 41.61901453975588 Q 0 49.94281744770706 10.40475363493897 41.61901453975588"/></g><g transform="rotate(162)"><path d="M -10.40475363493897 41.61901453975588 Q 0 49.94281744770706 10.40475363493897 41.61901453975588"/></g><g transform="rotate(180)"><path d="M -10.40475363493897 41.61901453975588 Q 0 49.94281744770706 10.40475363493897 41.61901453975588"/></g><g transform="rotate(198)"><path d="M -10.40475363493897 41.61901453975588 Q 0 49.94281744770706 10.40475363493897 41.61901453975588"/></g><g transform="rotate(216)"><path d="M -10.40475363493897 41.61901453975588 Q 0 49.94281744770706 10.40475363493897 41.61901453975588"/></g><g transform="rotate(234)"><path d="M -10.40475363493897 41.61901453975588 Q 0 49.94281744770706 10.40475363493897 41.61901453975588"/></g><g transform="rotate(252)"><path d="M -10.40475363493897 41.61901453975588 Q 0 49.94281744770706 10.40475363493897 41.61901453975588"/></g><g transform="rotate(270)"><path d="M -10.40475363493897 41.61901453975588 Q 0 49.94281744770706 10.40475363493897 41.61901453975588"/></g><g transform="rotate(288)"><path d="M -10.40475363493897 41.61901453975588 Q 0 49.94281744770706 10.40475363493897 41.61901453975588"/></g><g transform="rotate(306)"><path d="M -10.40475363493897 41.61901453975588 Q 0 49.94281744770706 10.40475363493897 41.61901453975588"/></g><g transform="rotate(324)"><path d="M -10.40475363493897 41.61901453975588 Q 0 49.94281744770706 10.40475363493897 41.61901453975588"/></g><g transform="rotate(342)"><path d="M -10.40475363493897 41.61901453975588 Q 0 49.94281744770706 10.40475363493897 41.61901453975588"/></g><g transform="rotate(0)"><circle cx="0" cy="106.21474743913859" r="26.553686859784648"/></g><g transform="rotate(18)"><circle cx="0" cy="106.21474743913859" r="26.553686859784648"/></g><g transform="rotate(36)"><circle cx="0" cy="106.21474743913859" r="26.553686859784648"/></g><g transform="rotate(54)"><circle cx="0" cy="106.21474743913859" r="26.553686859784648"/></g><g transform="rotate(72)"><circle cx="0" cy="106.21474743913859" r="26.553686859784648"/></g><g transform="rotate(90)"><circle cx="0" cy="106.21474743913859" r="26.553686859784648"/></g><g transform="rotate(108)"><circle cx="0" cy="106.21474743913859" r="26.553686859784648"/></g><g transform="rotate(126)"><circle cx="0" cy="106.21474743913859" r="26.553686859784648"/></g><g transform="rotate(144)"><circle cx="0" cy="106.21474743913859" r="26.553686859784648"/></g><g transform="rotate(162)"><circle cx="0" cy="106.21474743913859" r="26.553686859784648"/></g><g transform="rotate(180)"><circle cx="0" cy="106.21474743913859" r="26.553686859784648"/></g><g transform="rotate(198)"><circle cx="0" cy="106.21474743913859" r="26.553686859784648"/></g><g transform="rotate(216)"><circle cx="0" cy="106.21474743913859" r="26.553686859784648"/></g><g transform="rotate(234)"><circle cx="0" cy="106.21474743913859" r="26.553686859784648"/></g><g transform="rotate(252)"><circle cx="0" cy="106.21474743913859" r="26.553686859784648"/></g><g transform="rotate(270)"><circle cx="0" cy="106.21474743913859" r="26.553686859784648"/></g><g transform="rotate(288)"><circle cx="0" cy="106.21474743913859" r="26.553686859784648"/></g><g transform="rotate(306)"><circle cx="0" cy="106.21474743913859" r="26.553686859784648"/></g><g transform="rotate(324)"><circle cx="0" cy="106.21474743913859" r="26.553686859784648"/></g><g transform="rotate(342)"><circle cx="0" cy="106.21474743913859" r="26.553686859784648"/></g><g transform="rotate(0)"><path d="M 0 180.08606463391334 Q 60.02868821130445 216.103277560696 0 270.12909695087 Q -60.02868821130445 216.103277560696 0 180.08606463391334"/></g><g transform="rotate(18)"><path d="M 0 180.08606463391334 Q 60.02868821130445 216.103277560696 0 270.12909695087 Q -60.02868821130445 216.103277560696 0 180.08606463391334"/></g><g transform="rotate(36)"><path d="M 0 180.08606463391334 Q 60.02868821130445 216.103277560696 0 270.12909695087 Q -60.02868821130445 216.103277560696 0 180.08606463391334"/></g><g transform="rotate(54)"><path d="M 0 180.08606463391334 Q 60.02868821130445 216.103277560696 0 270.12909695087 Q -60.02868821130445 216.103277560696 0 180.08606463391334"/></g><g transform="rotate(72)"><path d="M 0 180.08606463391334 Q 60.02868821130445 216.103277560696 0 270.12909695087 Q -60.02868821130445 216.103277560696 0 180.08606463391334"/></g><g transform="rotate(90)"><path d="M 0 180.08606463391334 Q 60.02868821130445 216.103277560696 0 270.12909695087 Q -60.02868821130445 216.103277560696 0 180.08606463391334"/></g><g transform="rotate(108)"><path d="M 0 180.08606463391334 Q 60.02868821130445 216.103277560696 0 270.12909695087 Q -60.02868821130445 216.103277560696 0 180.08606463391334"/></g><g transform="rotate(126)"><path d="M 0 180.08606463391334 Q 60.02868821130445 216.103277560696 0 270.12909695087 Q -60.02868821130445 216.103277560696 0 180.08606463391334"/></g><g transform="rotate(144)"><path d="M 0 180.08606463391334 Q 60.02868821130445 216.103277560696 0 270.12909695087 Q -60.02868821130445 216.103277560696 0 180.08606463391334"/></g><g transform="rotate(162)"><path d="M 0 180.08606463391334 Q 60.02868821130445 216.103277560696 0 270.12909695087 Q -60.02868821130445 216.103277560696 0 180.08606463391334"/></g><g transform="rotate(180)"><path d="M 0 180.08606463391334 Q 60.02868821130445 216.103277560696 0 270.12909695087 Q -60.02868821130445 216.103277560696 0 180.08606463391334"/></g><g transform="rotate(198)"><path d="M 0 180.08606463391334 Q 60.02868821130445 216.103277560696 0 270.12909695087 Q -60.02868821130445 216.103277560696 0 180.08606463391334"/></g><g transform="rotate(216)"><path d="M 0 180.08606463391334 Q 60.02868821130445 216.103277560696 0 270.12909695087 Q -60.02868821130445 216.103277560696 0 180.08606463391334"/></g><g transform="rotate(234)"><path d="M 0 180.08606463391334 Q 60.02868821130445 216.103277560696 0 270.12909695087 Q -60.02868821130445 216.103277560696 0 180.08606463391334"/></g><g transform="rotate(252)"><path d="M 0 180.08606463391334 Q 60.02868821130445 216.103277560696 0 270.12909695087 Q -60.02868821130445 216.103277560696 0 180.08606463391334"/></g><g transform="rotate(270)"><path d="M 0 180.08606463391334 Q 60.02868821130445 216.103277560696 0 270.12909695087 Q -60.02868821130445 216.103277560696 0 180.08606463391334"/></g><g transform="rotate(288)"><path d="M 0 180.08606463391334 Q 60.02868821130445 216.103277560696 0 270.12909695087 Q -60.02868821130445 216.103277560696 0 180.08606463391334"/></g><g transform="rotate(306)"><path d="M 0 180.08606463391334 Q 60.02868821130445 216.103277560696 0 270.12909695087 Q -60.02868821130445 216.103277560696 0 180.08606463391334"/></g><g transform="rotate(324)"><path d="M 0 180.08606463391334 Q 60.02868821130445 216.103277560696 0 270.12909695087 Q -60.02868821130445 216.103277560696 0 180.08606463391334"/></g><g transform="rotate(342)"><path d="M 0 180.08606463391334 Q 60.02868821130445 216.103277560696 0 270.12909695087 Q -60.02868821130445 216.103277560696 0 180.08606463391334"/></g><g transform="rotate(0)"><circle cx="0" cy="251.61589032318443" r="62.90397258079611"/></g><g transform="rotate(18)"><circle cx="0" cy="251.61589032318443" r="62.90397258079611"/></g><g transform="rotate(36)"><circle cx="0" cy="251.61589032318443" r="62.90397258079611"/></g><g transform="rotate(54)"><circle cx="0" cy="251.61589032318443" r="62.90397258079611"/></g><g transform="rotate(72)"><circle cx="0" cy="251.61589032318443" r="62.90397258079611"/></g><g transform="rotate(90)"><circle cx="0" cy="251.61589032318443" r="62.90397258079611"/></g><g transform="rotate(108)"><circle cx="0" cy="251.61589032318443" r="62.90397258079611"/></g><g transform="rotate(126)"><circle cx="0" cy="251.61589032318443" r="62.90397258079611"/></g><g transform="rotate(144)"><circle cx="0" cy="251.61589032318443" r="62.90397258079611"/></g><g transform="rotate(162)"><circle cx="0" cy="251.61589032318443" r="62.90397258079611"/></g><g transform="rotate(180)"><circle cx="0" cy="251.61589032318443" r="62.90397258079611"/></g><g transform="rotate(198)"><circle cx="0" cy="251.61589032318443" r="62.90397258079611"/></g><g transform="rotate(216)"><circle cx="0" cy="251.61589032318443" r="62.90397258079611"/></g><g transform="rotate(234)"><circle cx="0" cy="251.61589032318443" r="62.90397258079611"/></g><g transform="rotate(252)"><circle cx="0" cy="251.61589032318443" r="62.90397258079611"/></g><g transform="rotate(270)"><circle cx="0" cy="251.61589032318443" r="62.90397258079611"/></g><g transform="rotate(288)"><circle cx="0" cy="251.61589032318443" r="62.90397258079611"/></g><g transform="rotate(306)"><circle cx="0" cy="251.61589032318443" r="62.90397258079611"/></g><g transform="rotate(324)"><circle cx="0" cy="251.61589032318443" r="62.90397258079611"/></g><g transform="rotate(342)"><circle cx="0" cy="251.61589032318443" r="62.90397258079611"/></g><g transform="rotate(0)"><path d="M 0 308.0866514602676 L 0 400.5126468983479"/></g><g transform="rotate(18)"><path d="M 0 308.0866514602676 L 0 400.5126468983479"/></g><g transform="rotate(36)"><path d="M 0 308.0866514602676 L 0 400.5126468983479"/></g><g transform="rotate(54)"><path d="M 0 308.0866514602676 L 0 400.5126468983479"/></g><g transform="rotate(72)"><path d="M 0 308.0866514602676 L 0 400.5126468983479"/></g><g transform="rotate(90)"><path d="M 0 308.0866514602676 L 0 400.5126468983479"/></g><g transform="rotate(108)"><path d="M 0 308.0866514602676 L 0 400.5126468983479"/></g><g transform="rotate(126)"><path d="M 0 308.0866514602676 L 0 400.5126468983479"/></g><g transform="rotate(144)"><path d="M 0 308.0866514602676 L 0 400.5126468983479"/></g><g transform="rotate(162)"><path d="M 0 308.0866514602676 L 0 400.5126468983479"/></g><g transform="rotate(180)"><path d="M 0 308.0866514602676 L 0 400.5126468983479"/></g><g transform="rotate(198)"><path d="M 0 308.0866514602676 L 0 400.5126468983479"/></g><g transform="rotate(216)"><path d="M 0 308.0866514602676 L 0 400.5126468983479"/></g><g transform="rotate(234)"><path d="M 0 308.0866514602676 L 0 400.5126468983479"/></g><g transform="rotate(252)"><path d="M 0 308.0866514602676 L 0 400.5126468983479"/></g><g transform="rotate(270)"><path d="M 0 308.0866514602676 L 0 400.5126468983479"/></g><g transform="rotate(288)"><path d="M 0 308.0866514602676 L 0 400.5126468983479"/></g><g transform="rotate(306)"><path d="M 0 308.0866514602676 L 0 400.5126468983479"/></g><g transform="rotate(324)"><path d="M 0 308.0866514602676 L 0 400.5126468983479"/></g><g transform="rotate(342)"><path d="M 0 308.0866514602676 L 0 400.5126468983479"/></g></g></svg>