<svg xmlns="http://www.w3.org/2000/svg" viewBox="0 0 800 800" width="800" height="800">
    <rect width="100%" height="100%" fill="white"/>
    <g transform="translate(400, 400)" fill="none" stroke="black" stroke-width="4" stroke-linecap="round" stroke-linejoin="round"><g transform="rotate(0)"><path d="M 0 56.595387663692236 Q 18.865129221230745 67.91446519643068 0 84.89308149553835 Q -18.865129221230745 67.91446519643068 0 56.595387663692236"/></g><g transform="rotate(18)"><path d="M 0 56.595387663692236 Q 18.865129221230745 67.91446519643068 0 84.89308149553835 Q -18.865129221230745 67.91446519643068 0 56.595387663692236"/></g><g transform="rotate(36)"><path d="M 0 56.595387663692236 Q 18.865129221230745 67.91446519643068 0 84.89308149553835 Q -18.865129221230745 67.91446519643068 0 56.595387663692236"/></g><g transform="rotate(54)"><path d="M 0 56.595387663692236 Q 18.865129221230745 67.91446519643068 0 84.89308149553835 Q -18.865129221230745 67.91446519643068 0 56.595387663692236"/></g><g transform="rotate(72)"><path d="M 0 56.595387663692236 Q 18.865129221230745 67.91446519643068 0 84.89308149553835 Q -18.865129221230745 67.91446519643068 0 56.595387663692236"/></g><g transform="rotate(90)"><path d="M 0 56.595387663692236 Q 18.865129221230745 67.91446519643068 0 84.89308149553835 Q -18.865129221230745 67.91446519643068 0 56.595387663692236"/></g><g transform="rotate(108)"><path d="M 0 56.595387663692236 Q 18.865129221230745 67.91446519643068 0 84.89308149553835 Q -18.865129221230745 67.91446519643068 0 56.595387663692236"/></g><g transform="rotate(126)"><path d="M 0 56.595387663692236 Q 18.865129221230745 67.91446519643068 0 84.89308149553835 Q -18.865129221230745 67.91446519643068 0 56.595387663692236"/></g><g transform="rotate(144)"><path d="M 0 56.595387663692236 Q 18.865129221230745 67.91446519643068 0 84.89308149553835 Q -18.865129221230745 67.91446519643068 0 56.595387663692236"/></g><g transform="rotate(162)"><path d="M 0 56.595387663692236 Q 18.865129221230745 67.91446519643068 0 84.89308149553835 Q -18.865129221230745 67.91446519643068 0 56.595387663692236"/></g><g transform="rotate(180)"><path d="M 0 56.595387663692236 Q 18.865129221230745 67.91446519643068 0 84.89308149553835 Q -18.865129221230745 67.91446519643068 0 56.595387663692236"/></g><g transform="rotate(198)"><path d="M 0 56.595387663692236 Q 18.865129221230745 67.91446519643068 0 84.89308149553835 Q -18.865129221230745 67.91446519643068 0 56.595387663692236"/></g><g transform="rotate(216)"><path d="M 0 56.595387663692236 Q 18.865129221230745 67.91446519643068 0 84.89308149553835 Q -18.865129221230745 67.91446519643068 0 56.595387663692236"/></g><g transform="rotate(234)"><path d="M 0 56.595387663692236 Q 18.865129221230745 67.91446519643068 0 84.89308149553835 Q -18.865129221230745 67.91446519643068 0 56.595387663692236"/></g><g transform="rotate(252)"><path d="M 0 56.595387663692236 Q 18.865129221230745 67.91446519643068 0 84.89308149553835 Q -18.865129221230745 67.91446519643068 0 56.595387663692236"/></g><g transform="rotate(270)"><path d="M 0 56.595387663692236 Q 18.865129221230745 67.91446519643068 0 84.89308149553835 Q -18.865129221230745 67.91446519643068 0 56.595387663692236"/></g><g transform="rotate(288)"><path d="M 0 56.595387663692236 Q 18.865129221230745 67.91446519643068 0 84.89308149553835 Q -18.865129221230745 67.91446519643068 0 56.595387663692236"/></g><g transform="rotate(306)"><path d="M 0 56.595387663692236 Q 18.865129221230745 67.91446519643068 0 84.89308149553835 Q -18.865129221230745 67.91446519643068 0 56.595387663692236"/></g><g transform="rotate(324)"><path d="M 0 56.595387663692236 Q 18.865129221230745 67.91446519643068 0 84.89308149553835 Q -18.865129221230745 67.91446519643068 0 56.595387663692236"/></g><g transform="rotate(342)"><path d="M 0 56.595387663692236 Q 18.865129221230745 67.91446519643068 0 84.89308149553835 Q -18.865129221230745 67.91446519643068 0 56.595387663692236"/></g><g transform="rotate(0)"><path d="M -30.519140434917063 122.07656173966825 Q 0 146.4918740876019 30.519140434917063 122.07656173966825"/></g><g transform="rotate(18)"><path d="M -30.519140434917063 122.07656173966825 Q 0 146.4918740876019 30.519140434917063 122.07656173966825"/></g><g transform="rotate(36)"><path d="M -30.519140434917063 122.07656173966825 Q 0 146.4918740876019 30.519140434917063 122.07656173966825"/></g><g transform="rotate(54)"><path d="M -30.519140434917063 122.07656173966825 Q 0 146.4918740876019 30.519140434917063 122.07656173966825"/></g><g transform="rotate(72)"><path d="M -30.519140434917063 122.07656173966825 Q 0 146.4918740876019 30.519140434917063 122.07656173966825"/></g><g transform="rotate(90)"><path d="M -30.519140434917063 122.07656173966825 Q 0 146.4918740876019 30.519140434917063 122.07656173966825"/></g><g transform="rotate(108)"><path d="M -30.519140434917063 122.07656173966825 Q 0 146.4918740876019 30.519140434917063 122.07656173966825"/></g><g transform="rotate(126)"><path d="M -30.519140434917063 122.07656173966825 Q 0 146.4918740876019 30.519140434917063 122.07656173966825"/></g><g transform="rotate(144)"><path d="M -30.519140434917063 122.07656173966825 Q 0 146.4918740876019 30.519140434917063 122.07656173966825"/></g><g transform="rotate(162)"><path d="M -30.519140434917063 122.07656173966825 Q 0 146.4918740876019 30.519140434917063 122.07656173966825"/></g><g transform="rotate(180)"><path d="M -30.519140434917063 122.07656173966825 Q 0 146.4918740876019 30.519140434917063 122.07656173966825"/></g><g transform="rotate(198)"><path d="M -30.519140434917063 122.07656173966825 Q 0 146.4918740876019 30.519140434917063 122.07656173966825"/></g><g transform="rotate(216)"><path d="M -30.519140434917063 122.07656173966825 Q 0 146.4918740876019 30.519140434917063 122.07656173966825"/></g><g transform="rotate(234)"><path d="M -30.519140434917063 122.07656173966825 Q 0 146.4918740876019 30.519140434917063 122.07656173966825"/></g><g transform="rotate(252)"><path d="M -30.519140434917063 122.07656173966825 Q 0 146.4918740876019 30.519140434917063 122.07656173966825"/></g><g transform="rotate(270)"><path d="M -30.519140434917063 122.07656173966825 Q 0 146.4918740876019 30.519140434917063 122.07656173966825"/></g><g transform="rotate(288)"><path d="M -30.519140434917063 122.07656173966825 Q 0 146.4918740876019 30.519140434917063 122.07656173966825"/></g><g transform="rotate(306)"><path d="M -30.519140434917063 122.07656173966825 Q 0 146.4918740876019 30.519140434917063 122.07656173966825"/></g><g transform="rotate(324)"><path d="M -30.519140434917063 122.07656173966825 Q 0 146.4918740876019 30.519140434917063 122.07656173966825"/></g><g transform="rotate(342)"><path d="M -30.519140434917063 122.07656173966825 Q 0 146.4918740876019 30.519140434917063 122.07656173966825"/></g><g transform="rotate(0)"><circle cx="0" cy="209.9081851541996" r="52.4770462885499"/></g><g transform="rotate(18)"><circle cx="0" cy="209.9081851541996" r="52.4770462885499"/></g><g transform="rotate(36)"><circle cx="0" cy="209.9081851541996" r="52.4770462885499"/></g><g transform="rotate(54)"><circle cx="0" cy="209.9081851541996" r="52.4770462885499"/></g><g transform="rotate(72)"><circle cx="0" cy="209.9081851541996" r="52.4770462885499"/></g><g transform="rotate(90)"><circle cx="0" cy="209.9081851541996" r="52.4770462885499"/></g><g transform="rotate(108)"><circle cx="0" cy="209.9081851541996" r="52.4770462885499"/></g><g transform="rotate(126)"><circle cx="0" cy="209.9081851541996" r="52.4770462885499"/></g><g transform="rotate(144)"><circle cx="0" cy="209.9081851541996" r="52.4770462885499"/></g><g transform="rotate(162)"><circle cx="0" cy="209.9081851541996" r="52.4770462885499"/></g><g transform="rotate(180)"><circle cx="0" cy="209.9081851541996" r="52.4770462885499"/></g><g transform="rotate(198)"><circle cx="0" cy="209.9081851541996" r="52.4770462885499"/></g><g transform="rotate(216)"><circle cx="0" cy="209.9081851541996" r="52.4770462885499"/></g><g transform="rotate(234)"><circle cx="0" cy="209.9081851541996" r="52.4770462885499"/></g><g transform="rotate(252)"><circle cx="0" cy="209.9081851541996" r="52.4770462885499"/></g><g transform="rotate(270)"><circle cx="0" cy="209.9081851541996" r="52.4770462885499"/></g><g transform="rotate(288)"><circle cx="0" cy="209.9081851541996" r="52.4770462885499"/></g><g transform="rotate(306)"><circle cx="0" cy="209.9081851541996" r="52.4770462885499"/></g><g transform="rotate(324)"><circle cx="0" cy="209.9081851541996" r="52.4770462885499"/></g><g transform="rotate(342)"><circle cx="0" cy="209.9081851541996" r="52.4770462885499"/></g><g transform="rotate(0)"><path d="M 0 293.1782559398562 Q 97.7260853132854 351.8139071278274 0 439.76738390978426 Q -97.7260853132854 351.8139071278274 0 293.1782559398562"/></g><g transform="rotate(18)"><path d="M 0 293.1782559398562 Q 97.7260853132854 351.8139071278274 0 439.76738390978426 Q -97.7260853132854 351.8139071278274 0 293.1782559398562"/></g><g transform="rotate(36)"><path d="M 0 293.1782559398562 Q 97.7260853132854 351.8139071278274 0 439.76738390978426 Q -97.7260853132854 351.8139071278274 0 293.1782559398562"/></g><g transform="rotate(54)"><path d="M 0 293.1782559398562 Q 97.7260853132854 351.8139071278274 0 439.76738390978426 Q -97.7260853132854 351.8139071278274 0 293.1782559398562"/></g><g transform="rotate(72)"><path d="M 0 293.1782559398562 Q 97.7260853132854 351.8139071278274 0 439.76738390978426 Q -97.7260853132854 351.8139071278274 0 293.1782559398562"/></g><g transform="rotate(90)"><path d="M 0 293.1782559398562 Q 97.7260853132854 351.8139071278274 0 439.76738390978426 Q -97.7260853132854 351.8139071278274 0 293.1782559398562"/></g><g transform="rotate(108)"><path d="M 0 293.1782559398562 Q 97.7260853132854 351.8139071278274 0 439.76738390978426 Q -97.7260853132854 351.8139071278274 0 293.1782559398562"/></g><g transform="rotate(126)"><path d="M 0 293.1782559398562 Q 97.7260853132854 351.8139071278274 0 439.76738390978426 Q -97.7260853132854 351.8139071278274 0 293.1782559398562"/></g><g transform="rotate(144)"><path d="M 0 293.1782559398562 Q 97.7260853132854 351.8139071278274 0 439.76738390978426 Q -97.7260853132854 351.8139071278274 0 293.1782559398562"/></g><g transform="rotate(162)"><path d="M 0 293.1782559398562 Q 97.7260853132854 351.8139071278274 0 439.76738390978426 Q -97.7260853132854 351.8139071278274 0 293.1782559398562"/></g><g transform="rotate(180)"><path d="M 0 293.1782559398562 Q 97.7260853132854 351.8139071278274 0 439.76738390978426 Q -97.7260853132854 351.8139071278274 0 293.1782559398562"/></g><g transform="rotate(198)"><path d="M 0 293.1782559398562 Q 97.7260853132854 351.8139071278274 0 439.76738390978426 Q -97.7260853132854 351.8139071278274 0 293.1782559398562"/></g><g transform="rotate(216)"><path d="M 0 293.1782559398562 Q 97.7260853132854 351.8139071278274 0 439.76738390978426 Q -97.7260853132854 351.8139071278274 0 293.1782559398562"/></g><g transform="rotate(234)"><path d="M 0 293.1782559398562 Q 97.7260853132854 351.8139071278274 0 439.76738390978426 Q -97.7260853132854 351.8139071278274 0 293.1782559398562"/></g><g transform="rotate(252)"><path d="M 0 293.1782559398562 Q 97.7260853132854 351.8139071278274 0 439.76738390978426 Q -97.7260853132854 351.8139071278274 0 293.1782559398562"/></g><g transform="rotate(270)"><path d="M 0 293.1782559398562 Q 97.7260853132854 351.8139071278274 0 439.76738390978426 Q -97.7260853132854 351.8139071278274 0 293.1782559398562"/></g><g transform="rotate(288)"><path d="M 0 293.1782559398562 Q 97.7260853132854 351.8139071278274 0 439.76738390978426 Q -97.7260853132854 351.8139071278274 0 293.1782559398562"/></g><g transform="rotate(306)"><path d="M 0 293.1782559398562 Q 97.7260853132854 351.8139071278274 0 439.76738390978426 Q -97.7260853132854 351.8139071278274 0 293.1782559398562"/></g><g transform="rotate(324)"><path d="M 0 293.1782559398562 Q 97.7260853132854 351.8139071278274 0 439.76738390978426 Q -97.7260853132854 351.8139071278274 0 293.1782559398562"/></g><g transform="rotate(342)"><path d="M 0 293.1782559398562 Q 97.7260853132854 351.8139071278274 0 439.76738390978426 Q -97.7260853132854 351.8139071278274 0 293.1782559398562"/></g></g></svg>