<svg xmlns="http://www.w3.org/2000/svg" viewBox="0 0 800 800" width="800" height="800">
    <rect width="100%" height="100%" fill="white"/>
    <g transform="translate(400, 400)" fill="none" stroke="black" stroke-width="4" stroke-linecap="round" stroke-linejoin="round"><g transform="rotate(0)"><path d="M 0 46.84735388029367 L 0 60.90156004438177"/></g><g transform="rotate(25.714285714285715)"><path d="M 0 46.84735388029367 L 0 60.90156004438177"/></g><g transform="rotate(51.42857142857143)"><path d="M 0 46.84735388029367 L 0 60.90156004438177"/></g><g transform="rotate(77.14285714285714)"><path d="M 0 46.84735388029367 L 0 60.90156004438177"/></g><g transform="rotate(102.85714285714286)"><path d="M 0 46.84735388029367 L 0 60.90156004438177"/></g><g transform="rotate(128.57142857142858)"><path d="M 0 46.84735388029367 L 0 60.90156004438177"/></g><g transform="rotate(154.28571428571428)"><path d="M 0 46.84735388029367 L 0 60.90156004438177"/></g><g transform="rotate(180)"><path d="M 0 46.84735388029367 L 0 60.90156004438177"/></g><g transform="rotate(205.71428571428572)"><path d="M 0 46.84735388029367 L 0 60.90156004438177"/></g><g transform="rotate(231.42857142857142)"><path d="M 0 46.84735388029367 L 0 60.90156004438177"/></g><g transform="rotate(257.14285714285717)"><path d="M 0 46.84735388029367 L 0 60.90156004438177"/></g><g transform="rotate(282.85714285714283)"><path d="M 0 46.84735388029367 L 0 60.90156004438177"/></g><g transform="rotate(308.57142857142856)"><path d="M 0 46.84735388029367 L 0 60.90156004438177"/></g><g transform="rotate(334.2857142857143)"><path d="M 0 46.84735388029367 L 0 60.90156004438177"/></g><g transform="rotate(0)"><path d="M 0 136.74794746097177 Q 45.58264915365726 164.09753695316613 0 205.12192119145766 Q -45.58264915365726 164.09753695316613 0 136.74794746097177"/></g><g transform="rotate(25.714285714285715)"><path d="M 0 136.74794746097177 Q 45.58264915365726 164.09753695316613 0 205.12192119145766 Q -45.58264915365726 164.09753695316613 0 136.74794746097177"/></g><g transform="rotate(51.42857142857143)"><path d="M 0 136.74794746097177 Q 45.58264915365726 164.09753695316613 0 205.12192119145766 Q -45.58264915365726 164.09753695316613 0 136.74794746097177"/></g><g transform="rotate(77.14285714285714)"><path d="M 0 136.74794746097177 Q 45.58264915365726 164.09753695316613 0 205.12192119145766 Q -45.58264915365726 164.09753695316613 0 136.74794746097177"/></g><g transform="rotate(102.85714285714286)"><path d="M 0 136.74794746097177 Q 45.58264915365726 164.09753695316613 0 205.12192119145766 Q -45.58264915365726 164.09753695316613 0 136.74794746097177"/></g><g transform="rotate(128.57142857142858)"><path d="M 0 136.74794746097177 Q 45.58264915365726 164.09753695316613 0 205.12192119145766 Q -45.58264915365726 164.09753695316613 0 136.74794746097177"/></g><g transform="rotate(154.28571428571428)"><path d="M 0 136.74794746097177 Q 45.58264915365726 164.09753695316613 0 205.12192119145766 Q -45.58264915365726 164.09753695316613 0 136.74794746097177"/></g><g transform="rotate(180)"><path d="M 0 136.74794746097177 Q 45.58264915365726 164.09753695316613 0 205.12192119145766 Q -45.58264915365726 164.09753695316613 0 136.74794746097177"/></g><g transform="rotate(205.71428571428572)"><path d="M 0 136.74794746097177 Q 45.58264915365726 164.09753695316613 0 205.12192119145766 Q -45.58264915365726 164.09753695316613 0 136.74794746097177"/></g><g transform="rotate(231.42857142857142)"><path d="M 0 136.74794746097177 Q 45.58264915365726 164.09753695316613 0 205.12192119145766 Q -45.58264915365726 164.09753695316613 0 136.74794746097177"/></g><g transform="rotate(257.14285714285717)"><path d="M 0 136.74794746097177 Q 45.58264915365726 164.09753695316613 0 205.12192119145766 Q -45.58264915365726 164.09753695316613 0 136.74794746097177"/></g><g transform="rotate(282.85714285714283)"><path d="M 0 136.74794746097177 Q 45.58264915365726 164.09753695316613 0 205.12192119145766 Q -45.58264915365726 164.09753695316613 0 136.74794746097177"/></g><g transform="rotate(308.57142857142856)"><path d="M 0 136.74794746097177 Q 45.58264915365726 164.09753695316613 0 205.12192119145766 Q -45.58264915365726 164.09753695316613 0 136.74794746097177"/></g><g transform="rotate(334.2857142857143)"><path d="M 0 136.74794746097177 Q 45.58264915365726 164.09753695316613 0 205.12192119145766 Q -45.58264915365726 164.09753695316613 0 136.74794746097177"/></g><g transform="rotate(0)"><path d="M 0 217.29761066380888 L 54.32440266595222 260.75713279657066 L 0 304.21665492933244 L -54.32440266595222 260.75713279657066 Z"/></g><g transform="rotate(25.714285714285715)"><path d="M 0 217.29761066380888 L 54.32440266595222 260.75713279657066 L 0 304.21665492933244 L -54.32440266595222 260.75713279657066 Z"/></g><g transform="rotate(51.42857142857143)"><path d="M 0 217.29761066380888 L 54.32440266595222 260.75713279657066 L 0 304.21665492933244 L -54.32440266595222 260.75713279657066 Z"/></g><g transform="rotate(77.14285714285714)"><path d="M 0 217.29761066380888 L 54.32440266595222 260.75713279657066 L 0 304.21665492933244 L -54.32440266595222 260.75713279657066 Z"/></g><g transform="rotate(102.85714285714286)"><path d="M 0 217.29761066380888 L 54.32440266595222 260.75713279657066 L 0 304.21665492933244 L -54.32440266595222 260.75713279657066 Z"/></g><g transform="rotate(128.57142857142858)"><path d="M 0 217.29761066380888 L 54.32440266595222 260.75713279657066 L 0 304.21665492933244 L -54.32440266595222 260.75713279657066 Z"/></g><g transform="rotate(154.28571428571428)"><path d="M 0 217.29761066380888 L 54.32440266595222 260.75713279657066 L 0 304.21665492933244 L -54.32440266595222 260.75713279657066 Z"/></g><g transform="rotate(180)"><path d="M 0 217.29761066380888 L 54.32440266595222 260.75713279657066 L 0 304.21665492933244 L -54.32440266595222 260.75713279657066 Z"/></g><g transform="rotate(205.71428571428572)"><path d="M 0 217.29761066380888 L 54.32440266595222 260.75713279657066 L 0 304.21665492933244 L -54.32440266595222 260.75713279657066 Z"/></g><g transform="rotate(231.42857142857142)"><path d="M 0 217.29761066380888 L 54.32440266595222 260.75713279657066 L 0 304.21665492933244 L -54.32440266595222 260.75713279657066 Z"/></g><g transform="rotate(257.14285714285717)"><path d="M 0 217.29761066380888 L 54.32440266595222 260.75713279657066 L 0 304.21665492933244 L -54.32440266595222 260.75713279657066 Z"/></g><g transform="rotate(282.85714285714283)"><path d="M 0 217.29761066380888 L 54.32440266595222 260.75713279657066 L 0 304.21665492933244 L -54.32440266595222 260.75713279657066 Z"/></g><g transform="rotate(308.57142857142856)"><path d="M 0 217.29761066380888 L 54.32440266595222 260.75713279657066 L 0 304.21665492933244 L -54.32440266595222 260.75713279657066 Z"/></g><g transform="rotate(334.2857142857143)"><path d="M 0 217.29761066380888 L 54.32440266595222 260.75713279657066 L 0 304.21665492933244 L -54.32440266595222 260.75713279657066 Z"/></g><g transform="rotate(0)"><path d="M 0 289.0762186003849 L 0 375.79908418050036"/></g><g transform="rotate(25.714285714285715)"><path d="M 0 289.0762186003849 L 0 375.79908418050036"/></g><g transform="rotate(51.42857142857143)"><path d="M 0 289.0762186003849 L 0 375.79908418050036"/></g><g transform="rotate(77.14285714285714)"><path d="M 0 289.0762186003849 L 0 375.79908418050036"/></g><g transform="rotate(102.85714285714286)"><path d="M 0 289.0762186003849 L 0 375.79908418050036"/></g><g transform="rotate(128.57142857142858)"><path d="M 0 289.0762186003849 L 0 375.79908418050036"/></g><g transform="rotate(154.28571428571428)"><path d="M 0 289.0762186003849 L 0 375.79908418050036"/></g><g transform="rotate(180)"><path d="M 0 289.0762186003849 L 0 375.79908418050036"/></g><g transform="rotate(205.71428571428572)"><path d="M 0 289.0762186003849 L 0 375.79908418050036"/></g><g transform="rotate(231.42857142857142)"><path d="M 0 289.0762186003849 L 0 375.79908418050036"/></g><g transform="rotate(257.14285714285717)"><path d="M 0 289.0762186003849 L 0 375.79908418050036"/></g><g transform="rotate(282.85714285714283)"><path d="M 0 289.0762186003849 L 0 375.79908418050036"/></g><g transform="rotate(308.57142857142856)"><path d="M 0 289.0762186003849 L 0 375.79908418050036"/></g><g transform="rotate(334.2857142857143)"><path d="M 0 289.0762186003849 L 0 375.79908418050036"/></g></g></svg>