<svg xmlns="http://www.w3.org/2000/svg" viewBox="0 0 800 800" width="800" height="800">
    <rect width="100%" height="100%" fill="white"/>
    <g transform="translate(400, 400)" fill="none" stroke="black" stroke-width="4" stroke-linecap="round" stroke-linejoin="round"><g transform="rotate(0)"><circle cx="0" cy="49.76074351929128" r="12.44018587982282"/></g><g transform="rotate(25.714285714285715)"><circle cx="0" cy="49.76074351929128" r="12.44018587982282"/></g><g transform="rotate(51.42857142857143)"><circle cx="0" cy="49.76074351929128" r="12.44018587982282"/></g><g transform="rotate(77.14285714285714)"><circle cx="0" cy="49.76074351929128" r="12.44018587982282"/></g><g transform="rotate(102.85714285714286)"><circle cx="0" cy="49.76074351929128" r="12.44018587982282"/></g><g transform="rotate(128.57142857142858)"><circle cx="0" cy="49.76074351929128" r="12.44018587982282"/></g><g transform="rotate(154.28571428571428)"><circle cx="0" cy="49.76074351929128" r="12.44018587982282"/></g><g transform="rotate(180)"><circle cx="0" cy="49.76074351929128" r="12.44018587982282"/></g><g transform="rotate(205.71428571428572)"><circle cx="0" cy="49.76074351929128" r="12.44018587982282"/></g><g transform="rotate(231.42857142857142)"><circle cx="0" cy="49.76074351929128" r="12.44018587982282"/></g><g transform="rotate(257.14285714285717)"><circle cx="0" cy="49.76074351929128" r="12.44018587982282"/></g><g transform="rotate(282.85714285714283)"><circle cx="0" cy="49.76074351929128" r="12.44018587982282"/></g><g transform="rotate(308.57142857142856)"><circle cx="0" cy="49.76074351929128" r="12.44018587982282"/></g><g transform="rotate(334.2857142857143)"><circle cx="0" cy="49.76074351929128" r="12.44018587982282"/></g><g transform="rotate(0)"><path d="M -28.073909481366478 112.29563792546591 Q 0 134.75476551055908 28.073909481366478 112.29563792546591"/></g><g transform="rotate(25.714285714285715)"><path d="M -28.073909481366478 112.29563792546591 Q 0 134.75476551055908 28.073909481366478 112.29563792546591"/></g><g transform="rotate(51.42857142857143)"><path d="M -28.073909481366478 112.29563792546591 Q 0 134.75476551055908 28.073909481366478 112.29563792546591"/></g><g transform="rotate(77.14285714285714)"><path d="M -28.073909481366478 112.29563792546591 Q 0 134.75476551055908 28.073909481366478 112.29563792546591"/></g><g transform="rotate(102.85714285714286)"><path d="M -28.073909481366478 112.29563792546591 Q 0 134.75476551055908 28.073909481366478 112.29563792546591"/></g><g transform="rotate(128.57142857142858)"><path d="M -28.073909481366478 112.29563792546591 Q 0 134.75476551055908 28.073909481366478 112.29563792546591"/></g><g transform="rotate(154.28571428571428)"><path d="M -28.073909481366478 112.29563792546591 Q 0 134.75476551055908 28.073909481366478 112.29563792546591"/></g><g transform="rotate(180)"><path d="M -28.073909481366478 112.29563792546591 Q 0 134.75476551055908 28.073909481366478 112.29563792546591"/></g><g transform="rotate(205.71428571428572)"><path d="M -28.073909481366478 112.29563792546591 Q 0 134.75476551055908 28.073909481366478 112.29563792546591"/></g><g transform="rotate(231.42857142857142)"><path d="M -28.073909481366478 112.29563792546591 Q 0 134.75476551055908 28.073909481366478 112.29563792546591"/></g><g transform="rotate(257.14285714285717)"><path d="M -28.073909481366478 112.29563792546591 Q 0 134.75476551055908 28.073909481366478 112.29563792546591"/></g><g transform="rotate(282.85714285714283)"><path d="M -28.073909481366478 112.29563792546591 Q 0 134.75476551055908 28.073909481366478 112.29563792546591"/></g><g transform="rotate(308.57142857142856)"><path d="M -28.073909481366478 112.29563792546591 Q 0 134.75476551055908 28.073909481366478 112.29563792546591"/></g><g transform="rotate(334.2857142857143)"><path d="M -28.073909481366478 112.29563792546591 Q 0 134.75476551055908 28.073909481366478 112.29563792546591"/></g><g transform="rotate(0)"><path d="M 0 158.3152348144601 L 0 205.80980525879812"/></g><g transform="rotate(25.714285714285715)"><path d="M 0 158.3152348144601 L 0 205.80980525879812"/></g><g transform="rotate(51.42857142857143)"><path d="M 0 158.3152348144601 L 0 205.80980525879812"/></g><g transform="rotate(77.14285714285714)"><path d="M 0 158.3152348144601 L 0 205.80980525879812"/></g><g transform="rotate(102.85714285714286)"><path d="M 0 158.3152348144601 L 0 205.80980525879812"/></g><g transform="rotate(128.57142857142858)"><path d="M 0 158.3152348144601 L 0 205.80980525879812"/></g><g transform="rotate(154.28571428571428)"><path d="M 0 158.3152348144601 L 0 205.80980525879812"/></g><g transform="rotate(180)"><path d="M 0 158.3152348144601 L 0 205.80980525879812"/></g><g transform="rotate(205.71428571428572)"><path d="M 0 158.3152348144601 L 0 205.80980525879812"/></g><g transform="rotate(231.42857142857142)"><path d="M 0 158.3152348144601 L 0 205.80980525879812"/></g><g transform="rotate(257.14285714285717)"><path d="M 0 158.3152348144601 L 0 205.80980525879812"/></g><g transform="rotate(282.85714285714283)"><path d="M 0 158.3152348144601 L 0 205.80980525879812"/></g><g transform="rotate(308.57142857142856)"><path d="M 0 158.3152348144601 L 0 205.80980525879812"/></g><g transform="rotate(334.2857142857143)"><path d="M 0 158.3152348144601 L 0 205.80980525879812"/></g><g transform="rotate(0)"><path d="M 0 202.57961416617036 L 0 263.35349841602147"/></g><g transform="rotate(25.714285714285715)"><path d="M 0 202.57961416617036 L 0 263.35349841602147"/></g><g transform="rotate(51.42857142857143)"><path d="M 0 202.57961416617036 L 0 263.35349841602147"/></g><g transform="rotate(77.14285714285714)"><path d="M 0 202.57961416617036 L 0 263.35349841602147"/></g><g transform="rotate(102.85714285714286)"><path d="M 0 202.57961416617036 L 0 263.35349841602147"/></g><g transform="rotate(128.57142857142858)"><path d="M 0 202.57961416617036 L 0 263.35349841602147"/></g><g transform="rotate(154.28571428571428)"><path d="M 0 202.57961416617036 L 0 263.35349841602147"/></g><g transform="rotate(180)"><path d="M 0 202.57961416617036 L 0 263.35349841602147"/></g><g transform="rotate(205.71428571428572)"><path d="M 0 202.57961416617036 L 0 263.35349841602147"/></g><g transform="rotate(231.42857142857142)"><path d="M 0 202.57961416617036 L 0 263.35349841602147"/></g><g transform="rotate(257.14285714285717)"><path d="M 0 202.57961416617036 L 0 263.35349841602147"/></g><g transform="rotate(282.85714285714283)"><path d="M 0 202.57961416617036 L 0 263.35349841602147"/></g><g transform="rotate(308.57142857142856)"><path d="M 0 202.57961416617036 L 0 263.35349841602147"/></g><g transform="rotate(334.2857142857143)"><path d="M 0 202.57961416617036 L 0 263.35349841602147"/></g><g transform="rotate(0)"><path d="M 0 268.63347910655045 L 0 349.2235228385156"/></g><g transform="rotate(25.714285714285715)"><path d="M 0 268.63347910655045 L 0 349.2235228385156"/></g><g transform="rotate(51.42857142857143)"><path d="M 0 268.63347910655045 L 0 349.2235228385156"/></g><g transform="rotate(77.14285714285714)"><path d="M 0 268.63347910655045 L 0 349.2235228385156"/></g><g transform="rotate(102.85714285714286)"><path d="M 0 268.63347910655045 L 0 349.2235228385156"/></g><g transform="rotate(128.57142857142858)"><path d="M 0 268.63347910655045 L 0 349.2235228385156"/></g><g transform="rotate(154.28571428571428)"><path d="M 0 268.63347910655045 L 0 349.2235228385156"/></g><g transform="rotate(180)"><path d="M 0 268.63347910655045 L 0 349.2235228385156"/></g><g transform="rotate(205.71428571428572)"><path d="M 0 268.63347910655045 L 0 349.2235228385156"/></g><g transform="rotate(231.42857142857142)"><path d="M 0 268.63347910655045 L 0 349.2235228385156"/></g><g transform="rotate(257.14285714285717)"><path d="M 0 268.63347910655045 L 0 349.2235228385156"/></g><g transform="rotate(282.85714285714283)"><path d="M 0 268.63347910655045 L 0 349.2235228385156"/></g><g transform="rotate(308.57142857142856)"><path d="M 0 268.63347910655045 L 0 349.2235228385156"/></g><g transform="rotate(334.2857142857143)"><path d="M 0 268.63347910655045 L 0 349.2235228385156"/></g><g transform="rotate(0)"><path d="M -76.89179509567718 307.5671803827087 Q 0 369.08061645925045 76.89179509567718 307.5671803827087"/></g><g transform="rotate(25.714285714285715)"><path d="M -76.89179509567718 307.5671803827087 Q 0 369.08061645925045 76.89179509567718 307.5671803827087"/></g><g transform="rotate(51.42857142857143)"><path d="M -76.89179509567718 307.5671803827087 Q 0 369.08061645925045 76.89179509567718 307.5671803827087"/></g><g transform="rotate(77.14285714285714)"><path d="M -76.89179509567718 307.5671803827087 Q 0 369.08061645925045 76.89179509567718 307.5671803827087"/></g><g transform="rotate(102.85714285714286)"><path d="M -76.89179509567718 307.5671803827087 Q 0 369.08061645925045 76.89179509567718 307.5671803827087"/></g><g transform="rotate(128.57142857142858)"><path d="M -76.89179509567718 307.5671803827087 Q 0 369.08061645925045 76.89179509567718 307.5671803827087"/></g><g transform="rotate(154.28571428571428)"><path d="M -76.89179509567718 307.5671803827087 Q 0 369.08061645925045 76.89179509567718 307.5671803827087"/></g><g transform="rotate(180)"><path d="M -76.89179509567718 307.5671803827087 Q 0 369.08061645925045 76.89179509567718 307.5671803827087"/></g><g transform="rotate(205.71428571428572)"><path d="M -76.89179509567718 307.5671803827087 Q 0 369.08061645925045 76.89179509567718 307.5671803827087"/></g><g transform="rotate(231.42857142857142)"><path d="M -76.89179509567718 307.5671803827087 Q 0 369.08061645925045 76.89179509567718 307.5671803827087"/></g><g transform="rotate(257.14285714285717)"><path d="M -76.89179509567718 307.5671803827087 Q 0 369.08061645925045 76.89179509567718 307.5671803827087"/></g><g transform="rotate(282.85714285714283)"><path d="M -76.89179509567718 307.5671803827087 Q 0 369.08061645925045 76.89179509567718 307.5671803827087"/></g><g transform="rotate(308.57142857142856)"><path d="M -76.89179509567718 307.5671803827087 Q 0 369.08061645925045 76.89179509567718 307.5671803827087"/></g><g transform="rotate(334.2857142857143)"><path d="M -76.89179509567718 307.5671803827087 Q 0 369.08061645925045 76.89179509567718 307.5671803827087"/></g></g></svg>