<svg xmlns="http://www.w3.org/2000/svg" viewBox="0 0 800 800" width="800" height="800">
    <rect width="100%" height="100%" fill="white"/>
    <g transform="translate(400, 400)" fill="none" stroke="black" stroke-width="4" stroke-linecap="round" stroke-linejoin="round"><g transform="rotate(0)"><circle cx="0" cy="55.28830282855779" r="13.822075707139447"/></g><g transform="rotate(20)"><circle cx="0" cy="55.28830282855779" r="13.822075707139447"/></g><g transform="rotate(40)"><circle cx="0" cy="55.28830282855779" r="13.822075707139447"/></g><g transform="rotate(60)"><circle cx="0" cy="55.28830282855779" r="13.822075707139447"/></g><g transform="rotate(80)"><circle cx="0" cy="55.28830282855779" r="13.822075707139447"/></g><g transform="rotate(100)"><circle cx="0" cy="55.28830282855779" r="13.822075707139447"/></g><g transform="rotate(120)"><circle cx="0" cy="55.28830282855779" r="13.822075707139447"/></g><g transform="rotate(140)"><circle cx="0" cy="55.28830282855779" r="13.822075707139447"/></g><g transform="rotate(160)"><circle cx="0" cy="55.28830282855779" r="13.822075707139447"/></g><g transform="rotate(180)"><circle cx="0" cy="55.28830282855779" r="13.822075707139447"/></g><g transform="rotate(200)"><circle cx="0" cy="55.28830282855779" r="13.822075707139447"/></g><g transform="rotate(220)"><circle cx="0" cy="55.28830282855779" r="13.822075707139447"/></g><g transform="rotate(240)"><circle cx="0" cy="55.28830282855779" r="13.822075707139447"/></g><g transform="rotate(260)"><circle cx="0" cy="55.28830282855779" r="13.822075707139447"/></g><g transform="rotate(280)"><circle cx="0" cy="55.28830282855779" r="13.822075707139447"/></g><g transform="rotate(300)"><circle cx="0" cy="55.28830282855779" r="13.822075707139447"/></g><g transform="rotate(320)"><circle cx="0" cy="55.28830282855779" r="13.822075707139447"/></g><g transform="rotate(340)"><circle cx="0" cy="55.28830282855779" r="13.822075707139447"/></g><g transform="rotate(0)"><circle cx="0" cy="94.15754744849568" r="23.53938686212392"/></g><g transform="rotate(20)"><circle cx="0" cy="94.15754744849568" r="23.53938686212392"/></g><g transform="rotate(40)"><circle cx="0" cy="94.15754744849568" r="23.53938686212392"/></g><g transform="rotate(60)"><circle cx="0" cy="94.15754744849568" r="23.53938686212392"/></g><g transform="rotate(80)"><circle cx="0" cy="94.15754744849568" r="23.53938686212392"/></g><g transform="rotate(100)"><circle cx="0" cy="94.15754744849568" r="23.53938686212392"/></g><g transform="rotate(120)"><circle cx="0" cy="94.15754744849568" r="23.53938686212392"/></g><g transform="rotate(140)"><circle cx="0" cy="94.15754744849568" r="23.53938686212392"/></g><g transform="rotate(160)"><circle cx="0" cy="94.15754744849568" r="23.53938686212392"/></g><g transform="rotate(180)"><circle cx="0" cy="94.15754744849568" r="23.53938686212392"/></g><g transform="rotate(200)"><circle cx="0" cy="94.15754744849568" r="23.53938686212392"/></g><g transform="rotate(220)"><circle cx="0" cy="94.15754744849568" r="23.53938686212392"/></g><g transform="rotate(240)"><circle cx="0" cy="94.15754744849568" r="23.53938686212392"/></g><g transform="rotate(260)"><circle cx="0" cy="94.15754744849568" r="23.53938686212392"/></g><g transform="rotate(280)"><circle cx="0" cy="94.15754744849568" r="23.53938686212392"/></g><g transform="rotate(300)"><circle cx="0" cy="94.15754744849568" r="23.53938686212392"/></g><g transform="rotate(320)"><circle cx="0" cy="94.15754744849568" r="23.53938686212392"/></g><g transform="rotate(340)"><circle cx="0" cy="94.15754744849568" r="23.53938686212392"/></g><g transform="rotate(0)"><path d="M 0 140.03387007529716 L 0 182.04403109788632"/></g><g transform="rotate(20)"><path d="M 0 140.03387007529716 L 0 182.04403109788632"/></g><g transform="rotate(40)"><path d="M 0 140.03387007529716 L 0 182.04403109788632"/></g><g transform="rotate(60)"><path d="M 0 140.03387007529716 L 0 182.04403109788632"/></g><g transform="rotate(80)"><path d="M 0 140.03387007529716 L 0 182.04403109788632"/></g><g transform="rotate(100)"><path d="M 0 140.03387007529716 L 0 182.04403109788632"/></g><g transform="rotate(120)"><path d="M 0 140.03387007529716 L 0 182.04403109788632"/></g><g transform="rotate(140)"><path d="M 0 140.03387007529716 L 0 182.04403109788632"/></g><g transform="rotate(160)"><path d="M 0 140.03387007529716 L 0 182.04403109788632"/></g><g transform="rotate(180)"><path d="M 0 140.03387007529716 L 0 182.04403109788632"/></g><g transform="rotate(200)"><path d="M 0 140.03387007529716 L 0 182.04403109788632"/></g><g transform="rotate(220)"><path d="M 0 140.03387007529716 L 0 182.04403109788632"/></g><g transform="rotate(240)"><path d="M 0 140.03387007529716 L 0 182.04403109788632"/></g><g transform="rotate(260)"><path d="M 0 140.03387007529716 L 0 182.04403109788632"/></g><g transform="rotate(280)"><path d="M 0 140.03387007529716 L 0 182.04403109788632"/></g><g transform="rotate(300)"><path d="M 0 140.03387007529716 L 0 182.04403109788632"/></g><g transform="rotate(320)"><path d="M 0 140.03387007529716 L 0 182.04403109788632"/></g><g transform="rotate(340)"><path d="M 0 140.03387007529716 L 0 182.04403109788632"/></g><g transform="rotate(0)"><path d="M -44.4890077533533 177.9560310134132 Q 0 213.54723721609582 44.4890077533533 177.9560310134132"/></g><g transform="rotate(20)"><path d="M -44.4890077533533 177.9560310134132 Q 0 213.54723721609582 44.4890077533533 177.9560310134132"/></g><g transform="rotate(40)"><path d="M -44.4890077533533 177.9560310134132 Q 0 213.54723721609582 44.4890077533533 177.9560310134132"/></g><g transform="rotate(60)"><path d="M -44.4890077533533 177.9560310134132 Q 0 213.54723721609582 44.4890077533533 177.9560310134132"/></g><g transform="rotate(80)"><path d="M -44.4890077533533 177.9560310134132 Q 0 213.54723721609582 44.4890077533533 177.9560310134132"/></g><g transform="rotate(100)"><path d="M -44.4890077533533 177.9560310134132 Q 0 213.54723721609582 44.4890077533533 177.9560310134132"/></g><g transform="rotate(120)"><path d="M -44.4890077533533 177.9560310134132 Q 0 213.54723721609582 44.4890077533533 177.9560310134132"/></g><g transform="rotate(140)"><path d="M -44.4890077533533 177.9560310134132 Q 0 213.54723721609582 44.4890077533533 177.9560310134132"/></g><g transform="rotate(160)"><path d="M -44.4890077533533 177.9560310134132 Q 0 213.54723721609582 44.4890077533533 177.9560310134132"/></g><g transform="rotate(180)"><path d="M -44.4890077533533 177.9560310134132 Q 0 213.54723721609582 44.4890077533533 177.9560310134132"/></g><g transform="rotate(200)"><path d="M -44.4890077533533 177.9560310134132 Q 0 213.54723721609582 44.4890077533533 177.9560310134132"/></g><g transform="rotate(220)"><path d="M -44.4890077533533 177.9560310134132 Q 0 213.54723721609582 44.4890077533533 177.9560310134132"/></g><g transform="rotate(240)"><path d="M -44.4890077533533 177.9560310134132 Q 0 213.54723721609582 44.4890077533533 177.9560310134132"/></g><g transform="rotate(260)"><path d="M -44.4890077533533 177.9560310134132 Q 0 213.54723721609582 44.4890077533533 177.9560310134132"/></g><g transform="rotate(280)"><path d="M -44.4890077533533 177.9560310134132 Q 0 213.54723721609582 44.4890077533533 177.9560310134132"/></g><g transform="rotate(300)"><path d="M -44.4890077533533 177.9560310134132 Q 0 213.54723721609582 44.4890077533533 177.9560310134132"/></g><g transform="rotate(320)"><path d="M -44.4890077533533 177.9560310134132 Q 0 213.54723721609582 44.4890077533533 177.9560310134132"/></g><g transform="rotate(340)"><path d="M -44.4890077533533 177.9560310134132 Q 0 213.54723721609582 44.4890077533533 177.9560310134132"/></g><g transform="rotate(0)"><path d="M 0 233.29471214474844 L 0 303.283125788173"/></g><g transform="rotate(20)"><path d="M 0 233.29471214474844 L 0 303.283125788173"/></g><g transform="rotate(40)"><path d="M 0 233.29471214474844 L 0 303.283125788173"/></g><g transform="rotate(60)"><path d="M 0 233.29471214474844 L 0 303.283125788173"/></g><g transform="rotate(80)"><path d="M 0 233.29471214474844 L 0 303.283125788173"/></g><g transform="rotate(100)"><path d="M 0 233.29471214474844 L 0 303.283125788173"/></g><g transform="rotate(120)"><path d="M 0 233.29471214474844 L 0 303.283125788173"/></g><g transform="rotate(140)"><path d="M 0 233.29471214474844 L 0 303.283125788173"/></g><g transform="rotate(160)"><path d="M 0 233.29471214474844 L 0 303.283125788173"/></g><g transform="rotate(180)"><path d="M 0 233.29471214474844 L 0 303.283125788173"/></g><g transform="rotate(200)"><path d="M 0 233.29471214474844 L 0 303.283125788173"/></g><g transform="rotate(220)"><path d="M 0 233.29471214474844 L 0 303.283125788173"/></g><g transform="rotate(240)"><path d="M 0 233.29471214474844 L 0 303.283125788173"/></g><g transform="rotate(260)"><path d="M 0 233.29471214474844 L 0 303.283125788173"/></g><g transform="rotate(280)"><path d="M 0 233.29471214474844 L 0 303.283125788173"/></g><g transform="rotate(300)"><path d="M 0 233.29471214474844 L 0 303.283125788173"/></g><g transform="rotate(320)"><path d="M 0 233.29471214474844 L 0 303.283125788173"/></g><g transform="rotate(340)"><path d="M 0 233.29471214474844 L 0 303.283125788173"/></g><g transform="rotate(0)"><path d="M 0 282.4323341283681 L 70.60808353209202 338.9188009540417 L 0 395.4052677797153 L -70.60808353209202 338.9188009540417 Z"/></g><g transform="rotate(20)"><path d="M 0 282.4323341283681 L 70.60808353209202 338.9188009540417 L 0 395.4052677797153 L -70.60808353209202 338.9188009540417 Z"/></g><g transform="rotate(40)"><path d="M 0 282.4323341283681 L 70.60808353209202 338.9188009540417 L 0 395.4052677797153 L -70.60808353209202 338.9188009540417 Z"/></g><g transform="rotate(60)"><path d="M 0 282.4323341283681 L 70.60808353209202 338.9188009540417 L 0 395.4052677797153 L -70.60808353209202 338.9188009540417 Z"/></g><g transform="rotate(80)"><path d="M 0 282.4323341283681 L 70.60808353209202 338.9188009540417 L 0 395.4052677797153 L -70.60808353209202 338.9188009540417 Z"/></g><g transform="rotate(100)"><path d="M 0 282.4323341283681 L 70.60808353209202 338.9188009540417 L 0 395.4052677797153 L -70.60808353209202 338.9188009540417 Z"/></g><g transform="rotate(120)"><path d="M 0 282.4323341283681 L 70.60808353209202 338.9188009540417 L 0 395.4052677797153 L -70.60808353209202 338.9188009540417 Z"/></g><g transform="rotate(140)"><path d="M 0 282.4323341283681 L 70.60808353209202 338.9188009540417 L 0 395.4052677797153 L -70.60808353209202 338.9188009540417 Z"/></g><g transform="rotate(160)"><path d="M 0 282.4323341283681 L 70.60808353209202 338.9188009540417 L 0 395.4052677797153 L -70.60808353209202 338.9188009540417 Z"/></g><g transform="rotate(180)"><path d="M 0 282.4323341283681 L 70.60808353209202 338.9188009540417 L 0 395.4052677797153 L -70.60808353209202 338.9188009540417 Z"/></g><g transform="rotate(200)"><path d="M 0 282.4323341283681 L 70.60808353209202 338.9188009540417 L 0 395.4052677797153 L -70.60808353209202 338.9188009540417 Z"/></g><g transform="rotate(220)"><path d="M 0 282.4323341283681 L 70.60808353209202 338.9188009540417 L 0 395.4052677797153 L -70.60808353209202 338.9188009540417 Z"/></g><g transform="rotate(240)"><path d="M 0 282.4323341283681 L 70.60808353209202 338.9188009540417 L 0 395.4052677797153 L -70.60808353209202 338.9188009540417 Z"/></g><g transform="rotate(260)"><path d="M 0 282.4323341283681 L 70.60808353209202 338.9188009540417 L 0 395.4052677797153 L -70.60808353209202 338.9188009540417 Z"/></g><g transform="rotate(280)"><path d="M 0 282.4323341283681 L 70.60808353209202 338.9188009540417 L 0 395.4052677797153 L -70.60808353209202 338.9188009540417 Z"/></g><g transform="rotate(300)"><path d="M 0 282.4323341283681 L 70.60808353209202 338.9188009540417 L 0 395.4052677797153 L -70.60808353209202 338.9188009540417 Z"/></g><g transform="rotate(320)"><path d="M 0 282.4323341283681 L 70.60808353209202 338.9188009540417 L 0 395.4052677797153 L -70.60808353209202 338.9188009540417 Z"/></g><g transform="rotate(340)"><path d="M 0 282.4323341283681 L 70.60808353209202 338.9188009540417 L 0 395.4052677797153 L -70.60808353209202 338.9188009540417 Z"/></g><g transform="rotate(0)"><circle cx="0" cy="328.7068506509864" r="82.1767126627466"/></g><g transform="rotate(20)"><circle cx="0" cy="328.7068506509864" r="82.1767126627466"/></g><g transform="rotate(40)"><circle cx="0" cy="328.7068506509864" r="82.1767126627466"/></g><g transform="rotate(60)"><circle cx="0" cy="328.7068506509864" r="82.1767126627466"/></g><g transform="rotate(80)"><circle cx="0" cy="328.7068506509864" r="82.1767126627466"/></g><g transform="rotate(100)"><circle cx="0" cy="328.7068506509864" r="82.1767126627466"/></g><g transform="rotate(120)"><circle cx="0" cy="328.7068506509864" r="82.1767126627466"/></g><g transform="rotate(140)"><circle cx="0" cy="328.7068506509864" r="82.1767126627466"/></g><g transform="rotate(160)"><circle cx="0" cy="328.7068506509864" r="82.1767126627466"/></g><g transform="rotate(180)"><circle cx="0" cy="328.7068506509864" r="82.1767126627466"/></g><g transform="rotate(200)"><circle cx="0" cy="328.7068506509864" r="82.1767126627466"/></g><g transform="rotate(220)"><circle cx="0" cy="328.7068506509864" r="82.1767126627466"/></g><g transform="rotate(240)"><circle cx="0" cy="328.7068506509864" r="82.1767126627466"/></g><g transform="rotate(260)"><circle cx="0" cy="328.7068506509864" r="82.1767126627466"/></g><g transform="rotate(280)"><circle cx="0" cy="328.7068506509864" r="82.1767126627466"/></g><g transform="rotate(300)"><circle cx="0" cy="328.7068506509864" r="82.1767126627466"/></g><g transform="rotate(320)"><circle cx="0" cy="328.7068506509864" r="82.1767126627466"/></g><g transform="rotate(340)"><circle cx="0" cy="328.7068506509864" r="82.1767126627466"/></g></g></svg>