<svg xmlns="http://www.w3.org/2000/svg" viewBox="0 0 800 800" width="800" height="800">
    <rect width="100%" height="100%" fill="white"/>
    <g transform="translate(400, 400)" fill="none" stroke="black" stroke-width="4" stroke-linecap="round" stroke-linejoin="round"><g transform="rotate(0)"><path d="M 0 42.626879406161606 L 10.656719851540402 51.15225528739393 L 0 59.67763116862624 L -10.656719851540402 51.15225528739393 Z"/></g><g transform="rotate(25.714285714285715)"><path d="M 0 42.626879406161606 L 10.656719851540402 51.15225528739393 L 0 59.67763116862624 L -10.656719851540402 51.15225528739393 Z"/></g><g transform="rotate(51.42857142857143)"><path d="M 0 42.626879406161606 L 10.656719851540402 51.15225528739393 L 0 59.67763116862624 L -10.656719851540402 51.15225528739393 Z"/></g><g transform="rotate(77.14285714285714)"><path d="M 0 42.626879406161606 L 10.656719851540402 51.15225528739393 L 0 59.67763116862624 L -10.656719851540402 51.15225528739393 Z"/></g><g transform="rotate(102.85714285714286)"><path d="M 0 42.626879406161606 L 10.656719851540402 51.15225528739393 L 0 59.67763116862624 L -10.656719851540402 51.15225528739393 Z"/></g><g transform="rotate(128.57142857142858)"><path d="M 0 42.626879406161606 L 10.656719851540402 51.15225528739393 L 0 59.67763116862624 L -10.656719851540402 51.15225528739393 Z"/></g><g transform="rotate(154.28571428571428)"><path d="M 0 42.626879406161606 L 10.656719851540402 51.15225528739393 L 0 59.67763116862624 L -10.656719851540402 51.15225528739393 Z"/></g><g transform="rotate(180)"><path d="M 0 42.626879406161606 L 10.656719851540402 51.15225528739393 L 0 59.67763116862624 L -10.656719851540402 51.15225528739393 Z"/></g><g transform="rotate(205.71428571428572)"><path d="M 0 42.626879406161606 L 10.656719851540402 51.15225528739393 L 0 59.67763116862624 L -10.656719851540402 51.15225528739393 Z"/></g><g transform="rotate(231.42857142857142)"><path d="M 0 42.626879406161606 L 10.656719851540402 51.15225528739393 L 0 59.67763116862624 L -10.656719851540402 51.15225528739393 Z"/></g><g transform="rotate(257.14285714285717)"><path d="M 0 42.626879406161606 L 10.656719851540402 51.15225528739393 L 0 59.67763116862624 L -10.656719851540402 51.15225528739393 Z"/></g><g transform="rotate(282.85714285714283)"><path d="M 0 42.626879406161606 L 10.656719851540402 51.15225528739393 L 0 59.67763116862624 L -10.656719851540402 51.15225528739393 Z"/></g><g transform="rotate(308.57142857142856)"><path d="M 0 42.626879406161606 L 10.656719851540402 51.15225528739393 L 0 59.67763116862624 L -10.656719851540402 51.15225528739393 Z"/></g><g transform="rotate(334.2857142857143)"><path d="M 0 42.626879406161606 L 10.656719851540402 51.15225528739393 L 0 59.67763116862624 L -10.656719851540402 51.15225528739393 Z"/></g><g transform="rotate(0)"><path d="M 0 94.23362365768602 Q 31.41120788589534 113.08034838922323 0 141.35043548652902 Q -31.41120788589534 113.08034838922323 0 94.23362365768602"/></g><g transform="rotate(25.714285714285715)"><path d="M 0 94.23362365768602 Q 31.41120788589534 113.08034838922323 0 141.35043548652902 Q -31.41120788589534 113.08034838922323 0 94.23362365768602"/></g><g transform="rotate(51.42857142857143)"><path d="M 0 94.23362365768602 Q 31.41120788589534 113.08034838922323 0 141.35043548652902 Q -31.41120788589534 113.08034838922323 0 94.23362365768602"/></g><g transform="rotate(77.14285714285714)"><path d="M 0 94.23362365768602 Q 31.41120788589534 113.08034838922323 0 141.35043548652902 Q -31.41120788589534 113.08034838922323 0 94.23362365768602"/></g><g transform="rotate(102.85714285714286)"><path d="M 0 94.23362365768602 Q 31.41120788589534 113.08034838922323 0 141.35043548652902 Q -31.41120788589534 113.08034838922323 0 94.23362365768602"/></g><g transform="rotate(128.57142857142858)"><path d="M 0 94.23362365768602 Q 31.41120788589534 113.08034838922323 0 141.35043548652902 Q -31.41120788589534 113.08034838922323 0 94.23362365768602"/></g><g transform="rotate(154.28571428571428)"><path d="M 0 94.23362365768602 Q 31.41120788589534 113.08034838922323 0 141.35043548652902 Q -31.41120788589534 113.08034838922323 0 94.23362365768602"/></g><g transform="rotate(180)"><path d="M 0 94.23362365768602 Q 31.41120788589534 113.08034838922323 0 141.35043548652902 Q -31.41120788589534 113.08034838922323 0 94.23362365768602"/></g><g transform="rotate(205.71428571428572)"><path d="M 0 94.23362365768602 Q 31.41120788589534 113.08034838922323 0 141.35043548652902 Q -31.41120788589534 113.08034838922323 0 94.23362365768602"/></g><g transform="rotate(231.42857142857142)"><path d="M 0 94.23362365768602 Q 31.41120788589534 113.08034838922323 0 141.35043548652902 Q -31.41120788589534 113.08034838922323 0 94.23362365768602"/></g><g transform="rotate(257.14285714285717)"><path d="M 0 94.23362365768602 Q 31.41120788589534 113.08034838922323 0 141.35043548652902 Q -31.41120788589534 113.08034838922323 0 94.23362365768602"/></g><g transform="rotate(282.85714285714283)"><path d="M 0 94.23362365768602 Q 31.41120788589534 113.08034838922323 0 141.35043548652902 Q -31.41120788589534 113.08034838922323 0 94.23362365768602"/></g><g transform="rotate(308.57142857142856)"><path d="M 0 94.23362365768602 Q 31.41120788589534 113.08034838922323 0 141.35043548652902 Q -31.41120788589534 113.08034838922323 0 94.23362365768602"/></g><g transform="rotate(334.2857142857143)"><path d="M 0 94.23362365768602 Q 31.41120788589534 113.08034838922323 0 141.35043548652902 Q -31.41120788589534 113.08034838922323 0 94.23362365768602"/></g><g transform="rotate(0)"><path d="M -37.07760833475429 148.31043333901715 Q 0 177.9725200068206 37.07760833475429 148.31043333901715"/></g><g transform="rotate(25.714285714285715)"><path d="M -37.07760833475429 148.31043333901715 Q 0 177.9725200068206 37.07760833475429 148.31043333901715"/></g><g transform="rotate(51.42857142857143)"><path d="M -37.07760833475429 148.31043333901715 Q 0 177.9725200068206 37.07760833475429 148.31043333901715"/></g><g transform="rotate(77.14285714285714)"><path d="M -37.07760833475429 148.31043333901715 Q 0 177.9725200068206 37.07760833475429 148.31043333901715"/></g><g transform="rotate(102.85714285714286)"><path d="M -37.07760833475429 148.31043333901715 Q 0 177.9725200068206 37.07760833475429 148.31043333901715"/></g><g transform="rotate(128.57142857142858)"><path d="M -37.07760833475429 148.31043333901715 Q 0 177.9725200068206 37.07760833475429 148.31043333901715"/></g><g transform="rotate(154.28571428571428)"><path d="M -37.07760833475429 148.31043333901715 Q 0 177.9725200068206 37.07760833475429 148.31043333901715"/></g><g transform="rotate(180)"><path d="M -37.07760833475429 148.31043333901715 Q 0 177.9725200068206 37.07760833475429 148.31043333901715"/></g><g transform="rotate(205.71428571428572)"><path d="M -37.07760833475429 148.31043333901715 Q 0 177.9725200068206 37.07760833475429 148.31043333901715"/></g><g transform="rotate(231.42857142857142)"><path d="M -37.07760833475429 148.31043333901715 Q 0 177.9725200068206 37.07760833475429 148.31043333901715"/></g><g transform="rotate(257.14285714285717)"><path d="M -37.07760833475429 148.31043333901715 Q 0 177.9725200068206 37.07760833475429 148.31043333901715"/></g><g transform="rotate(282.85714285714283)"><path d="M -37.07760833475429 148.31043333901715 Q 0 177.9725200068206 37.07760833475429 148.31043333901715"/></g><g transform="rotate(308.57142857142856)"><path d="M -37.07760833475429 148.31043333901715 Q 0 177.9725200068206 37.07760833475429 148.31043333901715"/></g><g transform="rotate(334.2857142857143)"><path d="M -37.07760833475429 148.31043333901715 Q 0 177.9725200068206 37.07760833475429 148.31043333901715"/></g><g transform="rotate(0)"><path d="M 0 203.2077409652993 L 50.80193524132483 243.84928915835917 L 0 284.49083735141903 L -50.80193524132483 243.84928915835917 Z"/></g><g transform="rotate(25.714285714285715)"><path d="M 0 203.2077409652993 L 50.80193524132483 243.84928915835917 L 0 284.49083735141903 L -50.80193524132483 243.84928915835917 Z"/></g><g transform="rotate(51.42857142857143)"><path d="M 0 203.2077409652993 L 50.80193524132483 243.84928915835917 L 0 284.49083735141903 L -50.80193524132483 243.84928915835917 Z"/></g><g transform="rotate(77.14285714285714)"><path d="M 0 203.2077409652993 L 50.80193524132483 243.84928915835917 L 0 284.49083735141903 L -50.80193524132483 243.84928915835917 Z"/></g><g transform="rotate(102.85714285714286)"><path d="M 0 203.2077409652993 L 50.80193524132483 243.84928915835917 L 0 284.49083735141903 L -50.80193524132483 243.84928915835917 Z"/></g><g transform="rotate(128.57142857142858)"><path d="M 0 203.2077409652993 L 50.80193524132483 243.84928915835917 L 0 284.49083735141903 L -50.80193524132483 243.84928915835917 Z"/></g><g transform="rotate(154.28571428571428)"><path d="M 0 203.2077409652993 L 50.80193524132483 243.84928915835917 L 0 284.49083735141903 L -50.80193524132483 243.84928915835917 Z"/></g><g transform="rotate(180)"><path d="M 0 203.2077409652993 L 50.80193524132483 243.84928915835917 L 0 284.49083735141903 L -50.80193524132483 243.84928915835917 Z"/></g><g transform="rotate(205.71428571428572)"><path d="M 0 203.2077409652993 L 50.80193524132483 243.84928915835917 L 0 284.49083735141903 L -50.80193524132483 243.84928915835917 Z"/></g><g transform="rotate(231.42857142857142)"><path d="M 0 203.2077409652993 L 50.80193524132483 243.84928915835917 L 0 284.49083735141903 L -50.80193524132483 243.84928915835917 Z"/></g><g transform="rotate(257.14285714285717)"><path d="M 0 203.2077409652993 L 50.80193524132483 243.84928915835917 L 0 284.49083735141903 L -50.80193524132483 243.84928915835917 Z"/></g><g transform="rotate(282.85714285714283)"><path d="M 0 203.2077409652993 L 50.80193524132483 243.84928915835917 L 0 284.49083735141903 L -50.80193524132483 243.84928915835917 Z"/></g><g transform="rotate(308.57142857142856)"><path d="M 0 203.2077409652993 L 50.80193524132483 243.84928915835917 L 0 284.49083735141903 L -50.80193524132483 243.84928915835917 Z"/></g><g transform="rotate(334.2857142857143)"><path d="M 0 203.2077409652993 L 50.80193524132483 243.84928915835917 L 0 284.49083735141903 L -50.80193524132483 243.84928915835917 Z"/></g><g transform="rotate(0)"><path d="M 0 260.4727382756149 Q 86.82424609187164 312.5672859307379 0 390.7091074134224 Q -86.82424609187164 312.5672859307379 0 260.4727382756149"/></g><g transform="rotate(25.714285714285715)"><path d="M 0 260.4727382756149 Q 86.82424609187164 312.5672859307379 0 390.7091074134224 Q -86.82424609187164 312.5672859307379 0 260.4727382756149"/></g><g transform="rotate(51.42857142857143)"><path d="M 0 260.4727382756149 Q 86.82424609187164 312.5672859307379 0 390.7091074134224 Q -86.82424609187164 312.5672859307379 0 260.4727382756149"/></g><g transform="rotate(77.14285714285714)"><path d="M 0 260.4727382756149 Q 86.82424609187164 312.5672859307379 0 390.7091074134224 Q -86.82424609187164 312.5672859307379 0 260.4727382756149"/></g><g transform="rotate(102.85714285714286)"><path d="M 0 260.4727382756149 Q 86.82424609187164 312.5672859307379 0 390.7091074134224 Q -86.82424609187164 312.5672859307379 0 260.4727382756149"/></g><g transform="rotate(128.57142857142858)"><path d="M 0 260.4727382756149 Q 86.82424609187164 312.5672859307379 0 390.7091074134224 Q -86.82424609187164 312.5672859307379 0 260.4727382756149"/></g><g transform="rotate(154.28571428571428)"><path d="M 0 260.4727382756149 Q 86.82424609187164 312.5672859307379 0 390.7091074134224 Q -86.82424609187164 312.5672859307379 0 260.4727382756149"/></g><g transform="rotate(180)"><path d="M 0 260.4727382756149 Q 86.82424609187164 312.5672859307379 0 390.7091074134224 Q -86.82424609187164 312.5672859307379 0 260.4727382756149"/></g><g transform="rotate(205.71428571428572)"><path d="M 0 260.4727382756149 Q 86.82424609187164 312.5672859307379 0 390.7091074134224 Q -86.82424609187164 312.5672859307379 0 260.4727382756149"/></g><g transform="rotate(231.42857142857142)"><path d="M 0 260.4727382756149 Q 86.82424609187164 312.5672859307379 0 390.7091074134224 Q -86.82424609187164 312.5672859307379 0 260.4727382756149"/></g><g transform="rotate(257.14285714285717)"><path d="M 0 260.4727382756149 Q 86.82424609187164 312.5672859307379 0 390.7091074134224 Q -86.82424609187164 312.5672859307379 0 260.4727382756149"/></g><g transform="rotate(282.85714285714283)"><path d="M 0 260.4727382756149 Q 86.82424609187164 312.5672859307379 0 390.7091074134224 Q -86.82424609187164 312.5672859307379 0 260.4727382756149"/></g><g transform="rotate(308.57142857142856)"><path d="M 0 260.4727382756149 Q 86.82424609187164 312.5672859307379 0 390.7091074134224 Q -86.82424609187164 312.5672859307379 0 260.4727382756149"/></g><g transform="rotate(334.2857142857143)"><path d="M 0 260.4727382756149 Q 86.82424609187164 312.5672859307379 0 390.7091074134224 Q -86.82424609187164 312.5672859307379 0 260.4727382756149"/></g><g transform="rotate(0)"><path d="M 0 309.4781680420662 L 0 402.3216184546861"/></g><g transform="rotate(25.714285714285715)"><path d="M 0 309.4781680420662 L 0 402.3216184546861"/></g><g transform="rotate(51.42857142857143)"><path d="M 0 309.4781680420662 L 0 402.3216184546861"/></g><g transform="rotate(77.14285714285714)"><path d="M 0 309.4781680420662 L 0 402.3216184546861"/></g><g transform="rotate(102.85714285714286)"><path d="M 0 309.4781680420662 L 0 402.3216184546861"/></g><g transform="rotate(128.57142857142858)"><path d="M 0 309.4781680420662 L 0 402.3216184546861"/></g><g transform="rotate(154.28571428571428)"><path d="M 0 309.4781680420662 L 0 402.3216184546861"/></g><g transform="rotate(180)"><path d="M 0 309.4781680420662 L 0 402.3216184546861"/></g><g transform="rotate(205.71428571428572)"><path d="M 0 309.4781680420662 L 0 402.3216184546861"/></g><g transform="rotate(231.42857142857142)"><path d="M 0 309.4781680420662 L 0 402.3216184546861"/></g><g transform="rotate(257.14285714285717)"><path d="M 0 309.4781680420662 L 0 402.3216184546861"/></g><g transform="rotate(282.85714285714283)"><path d="M 0 309.4781680420662 L 0 402.3216184546861"/></g><g transform="rotate(308.57142857142856)"><path d="M 0 309.4781680420662 L 0 402.3216184546861"/></g><g transform="rotate(334.2857142857143)"><path d="M 0 309.4781680420662 L 0 402.3216184546861"/></g></g></svg>