<svg xmlns="http://www.w3.org/2000/svg" viewBox="0 0 800 800" width="800" height="800">
    <rect width="100%" height="100%" fill="white"/>
    <g transform="translate(400, 400)" fill="none" stroke="black" stroke-width="4" stroke-linecap="round" stroke-linejoin="round"><g transform="rotate(0)"><circle cx="0" cy="40.8158621378243" r="10.203965534456074"/></g><g transform="rotate(60)"><circle cx="0" cy="40.8158621378243" r="10.203965534456074"/></g><g transform="rotate(120)"><circle cx="0" cy="40.8158621378243" r="10.203965534456074"/></g><g transform="rotate(180)"><circle cx="0" cy="40.8158621378243" r="10.203965534456074"/></g><g transform="rotate(240)"><circle cx="0" cy="40.8158621378243" r="10.203965534456074"/></g><g transform="rotate(300)"><circle cx="0" cy="40.8158621378243" r="10.203965534456074"/></g><g transform="rotate(0)"><path d="M -24.481054719071835 97.92421887628734 Q 0 117.50906265154481 24.481054719071835 97.92421887628734"/></g><g transform="rotate(60)"><path d="M -24.481054719071835 97.92421887628734 Q 0 117.50906265154481 24.481054719071835 97.92421887628734"/></g><g transform="rotate(120)"><path d="M -24.481054719071835 97.92421887628734 Q 0 117.50906265154481 24.481054719071835 97.92421887628734"/></g><g transform="rotate(180)"><path d="M -24.481054719071835 97.92421887628734 Q 0 117.50906265154481 24.481054719071835 97.92421887628734"/></g><g transform="rotate(240)"><path d="M -24.481054719071835 97.92421887628734 Q 0 117.50906265154481 24.481054719071835 97.92421887628734"/></g><g transform="rotate(300)"><path d="M -24.481054719071835 97.92421887628734 Q 0 117.50906265154481 24.481054719071835 97.92421887628734"/></g><g transform="rotate(0)"><path d="M 0 125.56202914565802 Q 41.85400971521934 150.67443497478962 0 188.34304371848702 Q -41.85400971521934 150.67443497478962 0 125.56202914565802"/></g><g transform="rotate(60)"><path d="M 0 125.56202914565802 Q 41.85400971521934 150.67443497478962 0 188.34304371848702 Q -41.85400971521934 150.67443497478962 0 125.56202914565802"/></g><g transform="rotate(120)"><path d="M 0 125.56202914565802 Q 41.85400971521934 150.67443497478962 0 188.34304371848702 Q -41.85400971521934 150.67443497478962 0 125.56202914565802"/></g><g transform="rotate(180)"><path d="M 0 125.56202914565802 Q 41.85400971521934 150.67443497478962 0 188.34304371848702 Q -41.85400971521934 150.67443497478962 0 125.56202914565802"/></g><g transform="rotate(240)"><path d="M 0 125.56202914565802 Q 41.85400971521934 150.67443497478962 0 188.34304371848702 Q -41.85400971521934 150.67443497478962 0 125.56202914565802"/></g><g transform="rotate(300)"><path d="M 0 125.56202914565802 Q 41.85400971521934 150.67443497478962 0 188.34304371848702 Q -41.85400971521934 150.67443497478962 0 125.56202914565802"/></g><g transform="rotate(0)"><path d="M 0 179.04673357494175 L 44.76168339373544 214.8560802899301 L 0 250.66542700491843 L -44.76168339373544 214.8560802899301 Z"/></g><g transform="rotate(60)"><path d="M 0 179.04673357494175 L 44.76168339373544 214.8560802899301 L 0 250.66542700491843 L -44.76168339373544 214.8560802899301 Z"/></g><g transform="rotate(120)"><path d="M 0 179.04673357494175 L 44.76168339373544 214.8560802899301 L 0 250.66542700491843 L -44.76168339373544 214.8560802899301 Z"/></g><g transform="rotate(180)"><path d="M 0 179.04673357494175 L 44.76168339373544 214.8560802899301 L 0 250.66542700491843 L -44.76168339373544 214.8560802899301 Z"/></g><g transform="rotate(240)"><path d="M 0 179.04673357494175 L 44.76168339373544 214.8560802899301 L 0 250.66542700491843 L -44.76168339373544 214.8560802899301 Z"/></g><g transform="rotate(300)"><path d="M 0 179.04673357494175 L 44.76168339373544 214.8560802899301 L 0 250.66542700491843 L -44.76168339373544 214.8560802899301 Z"/></g><g transform="rotate(0)"><path d="M 0 205.57499280199409 L 0 267.2474906425923"/></g><g transform="rotate(60)"><path d="M 0 205.57499280199409 L 0 267.2474906425923"/></g><g transform="rotate(120)"><path d="M 0 205.57499280199409 L 0 267.2474906425923"/></g><g transform="rotate(180)"><path d="M 0 205.57499280199409 L 0 267.2474906425923"/></g><g transform="rotate(240)"><path d="M 0 205.57499280199409 L 0 267.2474906425923"/></g><g transform="rotate(300)"><path d="M 0 205.57499280199409 L 0 267.2474906425923"/></g><g transform="rotate(0)"><circle cx="0" cy="246.82129739783704" r="61.70532434945926"/></g><g transform="rotate(60)"><circle cx="0" cy="246.82129739783704" r="61.70532434945926"/></g><g transform="rotate(120)"><circle cx="0" cy="246.82129739783704" r="61.70532434945926"/></g><g transform="rotate(180)"><circle cx="0" cy="246.82129739783704" r="61.70532434945926"/></g><g transform="rotate(240)"><circle cx="0" cy="246.82129739783704" r="61.70532434945926"/></g><g transform="rotate(300)"><circle cx="0" cy="246.82129739783704" r="61.70532434945926"/></g><g transform="rotate(0)"><circle cx="0" cy="280.5639825761318" r="70.14099564403296"/></g><g transform="rotate(60)"><circle cx="0" cy="280.5639825761318" r="70.14099564403296"/></g><g transform="rotate(120)"><circle cx="0" cy="280.5639825761318" r="70.14099564403296"/></g><g transform="rotate(180)"><circle cx="0" cy="280.5639825761318" r="70.14099564403296"/></g><g transform="rotate(240)"><circle cx="0" cy="280.5639825761318" r="70.14099564403296"/></g><g transform="rotate(300)"><circle cx="0" cy="280.5639825761318" r="70.14099564403296"/></g><g transform="rotate(0)"><path d="M 0 331.3801515940577 L 82.84503789851442 397.6561819128692 L 0 463.9322122316807 L -82.84503789851442 397.6561819128692 Z"/></g><g transform="rotate(60)"><path d="M 0 331.3801515940577 L 82.84503789851442 397.6561819128692 L 0 463.9322122316807 L -82.84503789851442 397.6561819128692 Z"/></g><g transform="rotate(120)"><path d="M 0 331.3801515940577 L 82.84503789851442 397.6561819128692 L 0 463.9322122316807 L -82.84503789851442 397.6561819128692 Z"/></g><g transform="rotate(180)"><path d="M 0 331.3801515940577 L 82.84503789851442 397.6561819128692 L 0 463.9322122316807 L -82.84503789851442 397.6561819128692 Z"/></g><g transform="rotate(240)"><path d="M 0 331.3801515940577 L 82.84503789851442 397.6561819128692 L 0 463.9322122316807 L -82.84503789851442 397.6561819128692 Z"/></g><g transform="rotate(300)"><path d="M 0 331.3801515940577 L 82.84503789851442 397.6561819128692 L 0 463.9322122316807 L -82.84503789851442 397.6561819128692 Z"/></g></g></svg>