<svg xmlns="http://www.w3.org/2000/svg" viewBox="0 0 800 800" width="800" height="800">
    <rect width="100%" height="100%" fill="white"/>
    <g transform="translate(400, 400)" fill="none" stroke="black" stroke-width="4" stroke-linecap="round" stroke-linejoin="round"><g transform="rotate(0)"><path d="M 0 40.217422200366855 L 10.054355550091714 48.260906640440226 L 0 56.30439108051359 L -10.054355550091714 48.260906640440226 Z"/></g><g transform="rotate(20)"><path d="M 0 40.217422200366855 L 10.054355550091714 48.260906640440226 L 0 56.30439108051359 L -10.054355550091714 48.260906640440226 Z"/></g><g transform="rotate(40)"><path d="M 0 40.217422200366855 L 10.054355550091714 48.260906640440226 L 0 56.30439108051359 L -10.054355550091714 48.260906640440226 Z"/></g><g transform="rotate(60)"><path d="M 0 40.217422200366855 L 10.054355550091714 48.260906640440226 L 0 56.30439108051359 L -10.054355550091714 48.260906640440226 Z"/></g><g transform="rotate(80)"><path d="M 0 40.217422200366855 L 10.054355550091714 48.260906640440226 L 0 56.30439108051359 L -10.054355550091714 48.260906640440226 Z"/></g><g transform="rotate(100)"><path d="M 0 40.217422200366855 L 10.054355550091714 48.260906640440226 L 0 56.30439108051359 L -10.054355550091714 48.260906640440226 Z"/></g><g transform="rotate(120)"><path d="M 0 40.217422200366855 L 10.054355550091714 48.260906640440226 L 0 56.30439108051359 L -10.054355550091714 48.260906640440226 Z"/></g><g transform="rotate(140)"><path d="M 0 40.217422200366855 L 10.054355550091714 48.260906640440226 L 0 56.30439108051359 L -10.054355550091714 48.260906640440226 Z"/></g><g transform="rotate(160)"><path d="M 0 40.217422200366855 L 10.054355550091714 48.260906640440226 L 0 56.30439108051359 L -10.054355550091714 48.260906640440226 Z"/></g><g transform="rotate(180)"><path d="M 0 40.217422200366855 L 10.054355550091714 48.260906640440226 L 0 56.30439108051359 L -10.054355550091714 48.260906640440226 Z"/></g><g transform="rotate(200)"><path d="M 0 40.217422200366855 L 10.054355550091714 48.260906640440226 L 0 56.30439108051359 L -10.054355550091714 48.260906640440226 Z"/></g><g transform="rotate(220)"><path d="M 0 40.217422200366855 L 10.054355550091714 48.260906640440226 L 0 56.30439108051359 L -10.054355550091714 48.260906640440226 Z"/></g><g transform="rotate(240)"><path d="M 0 40.217422200366855 L 10.054355550091714 48.260906640440226 L 0 56.30439108051359 L -10.054355550091714 48.260906640440226 Z"/></g><g transform="rotate(260)"><path d="M 0 40.217422200366855 L 10.054355550091714 48.260906640440226 L 0 56.30439108051359 L -10.054355550091714 48.260906640440226 Z"/></g><g transform="rotate(280)"><path d="M 0 40.217422200366855 L 10.054355550091714 48.260906640440226 L 0 56.30439108051359 L -10.054355550091714 48.260906640440226 Z"/></g><g transform="rotate(300)"><path d="M 0 40.217422200366855 L 10.054355550091714 48.260906640440226 L 0 56.30439108051359 L -10.054355550091714 48.260906640440226 Z"/></g><g transform="rotate(320)"><path d="M 0 40.217422200366855 L 10.054355550091714 48.260906640440226 L 0 56.30439108051359 L -10.054355550091714 48.260906640440226 Z"/></g><g transform="rotate(340)"><path d="M 0 40.217422200366855 L 10.054355550091714 48.260906640440226 L 0 56.30439108051359 L -10.054355550091714 48.260906640440226 Z"/></g><g transform="rotate(0)"><circle cx="0" cy="112.02870463579893" r="28.007176158949733"/></g><g transform="rotate(20)"><circle cx="0" cy="112.02870463579893" r="28.007176158949733"/></g><g transform="rotate(40)"><circle cx="0" cy="112.02870463579893" r="28.007176158949733"/></g><g transform="rotate(60)"><circle cx="0" cy="112.02870463579893" r="28.007176158949733"/></g><g transform="rotate(80)"><circle cx="0" cy="112.02870463579893" r="28.007176158949733"/></g><g transform="rotate(100)"><circle cx="0" cy="112.02870463579893" r="28.007176158949733"/></g><g transform="rotate(120)"><circle cx="0" cy="112.02870463579893" r="28.007176158949733"/></g><g transform="rotate(140)"><circle cx="0" cy="112.02870463579893" r="28.007176158949733"/></g><g transform="rotate(160)"><circle cx="0" cy="112.02870463579893" r="28.007176158949733"/></g><g transform="rotate(180)"><circle cx="0" cy="112.02870463579893" r="28.007176158949733"/></g><g transform="rotate(200)"><circle cx="0" cy="112.02870463579893" r="28.007176158949733"/></g><g transform="rotate(220)"><circle cx="0" cy="112.02870463579893" r="28.007176158949733"/></g><g transform="rotate(240)"><circle cx="0" cy="112.02870463579893" r="28.007176158949733"/></g><g transform="rotate(260)"><circle cx="0" cy="112.02870463579893" r="28.007176158949733"/></g><g transform="rotate(280)"><circle cx="0" cy="112.02870463579893" r="28.007176158949733"/></g><g transform="rotate(300)"><circle cx="0" cy="112.02870463579893" r="28.007176158949733"/></g><g transform="rotate(320)"><circle cx="0" cy="112.02870463579893" r="28.007176158949733"/></g><g transform="rotate(340)"><circle cx="0" cy="112.02870463579893" r="28.007176158949733"/></g><g transform="rotate(0)"><path d="M -42.517915051896125 170.0716602075845 Q 0 204.0859922491014 42.517915051896125 170.0716602075845"/></g><g transform="rotate(20)"><path d="M -42.517915051896125 170.0716602075845 Q 0 204.0859922491014 42.517915051896125 170.0716602075845"/></g><g transform="rotate(40)"><path d="M -42.517915051896125 170.0716602075845 Q 0 204.0859922491014 42.517915051896125 170.0716602075845"/></g><g transform="rotate(60)"><path d="M -42.517915051896125 170.0716602075845 Q 0 204.0859922491014 42.517915051896125 170.0716602075845"/></g><g transform="rotate(80)"><path d="M -42.517915051896125 170.0716602075845 Q 0 204.0859922491014 42.517915051896125 170.0716602075845"/></g><g transform="rotate(100)"><path d="M -42.517915051896125 170.0716602075845 Q 0 204.0859922491014 42.517915051896125 170.0716602075845"/></g><g transform="rotate(120)"><path d="M -42.517915051896125 170.0716602075845 Q 0 204.0859922491014 42.517915051896125 170.0716602075845"/></g><g transform="rotate(140)"><path d="M -42.517915051896125 170.0716602075845 Q 0 204.0859922491014 42.517915051896125 170.0716602075845"/></g><g transform="rotate(160)"><path d="M -42.517915051896125 170.0716602075845 Q 0 204.0859922491014 42.517915051896125 170.0716602075845"/></g><g transform="rotate(180)"><path d="M -42.517915051896125 170.0716602075845 Q 0 204.0859922491014 42.517915051896125 170.0716602075845"/></g><g transform="rotate(200)"><path d="M -42.517915051896125 170.0716602075845 Q 0 204.0859922491014 42.517915051896125 170.0716602075845"/></g><g transform="rotate(220)"><path d="M -42.517915051896125 170.0716602075845 Q 0 204.0859922491014 42.517915051896125 170.0716602075845"/></g><g transform="rotate(240)"><path d="M -42.517915051896125 170.0716602075845 Q 0 204.0859922491014 42.517915051896125 170.0716602075845"/></g><g transform="rotate(260)"><path d="M -42.517915051896125 170.0716602075845 Q 0 204.0859922491014 42.517915051896125 170.0716602075845"/></g><g transform="rotate(280)"><path d="M -42.517915051896125 170.0716602075845 Q 0 204.0859922491014 42.517915051896125 170.0716602075845"/></g><g transform="rotate(300)"><path d="M -42.517915051896125 170.0716602075845 Q 0 204.0859922491014 42.517915051896125 170.0716602075845"/></g><g transform="rotate(320)"><path d="M -42.517915051896125 170.0716602075845 Q 0 204.0859922491014 42.517915051896125 170.0716602075845"/></g><g transform="rotate(340)"><path d="M -42.517915051896125 170.0716602075845 Q 0 204.0859922491014 42.517915051896125 170.0716602075845"/></g><g transform="rotate(0)"><path d="M 0 233.50027072057128 Q 77.83342357352376 280.2003248646855 0 350.2504060808569 Q -77.83342357352376 280.2003248646855 0 233.50027072057128"/></g><g transform="rotate(20)"><path d="M 0 233.50027072057128 Q 77.83342357352376 280.2003248646855 0 350.2504060808569 Q -77.83342357352376 280.2003248646855 0 233.50027072057128"/></g><g transform="rotate(40)"><path d="M 0 233.50027072057128 Q 77.83342357352376 280.2003248646855 0 350.2504060808569 Q -77.83342357352376 280.2003248646855 0 233.50027072057128"/></g><g transform="rotate(60)"><path d="M 0 233.50027072057128 Q 77.83342357352376 280.2003248646855 0 350.2504060808569 Q -77.83342357352376 280.2003248646855 0 233.50027072057128"/></g><g transform="rotate(80)"><path d="M 0 233.50027072057128 Q 77.83342357352376 280.2003248646855 0 350.2504060808569 Q -77.83342357352376 280.2003248646855 0 233.50027072057128"/></g><g transform="rotate(100)"><path d="M 0 233.50027072057128 Q 77.83342357352376 280.2003248646855 0 350.2504060808569 Q -77.83342357352376 280.2003248646855 0 233.50027072057128"/></g><g transform="rotate(120)"><path d="M 0 233.50027072057128 Q 77.83342357352376 280.2003248646855 0 350.2504060808569 Q -77.83342357352376 280.2003248646855 0 233.50027072057128"/></g><g transform="rotate(140)"><path d="M 0 233.50027072057128 Q 77.83342357352376 280.2003248646855 0 350.2504060808569 Q -77.83342357352376 280.2003248646855 0 233.50027072057128"/></g><g transform="rotate(160)"><path d="M 0 233.50027072057128 Q 77.83342357352376 280.2003248646855 0 350.2504060808569 Q -77.83342357352376 280.2003248646855 0 233.50027072057128"/></g><g transform="rotate(180)"><path d="M 0 233.50027072057128 Q 77.83342357352376 280.2003248646855 0 350.2504060808569 Q -77.83342357352376 280.2003248646855 0 233.50027072057128"/></g><g transform="rotate(200)"><path d="M 0 233.50027072057128 Q 77.83342357352376 280.2003248646855 0 350.2504060808569 Q -77.83342357352376 280.2003248646855 0 233.50027072057128"/></g><g transform="rotate(220)"><path d="M 0 233.50027072057128 Q 77.83342357352376 280.2003248646855 0 350.2504060808569 Q -77.83342357352376 280.2003248646855 0 233.50027072057128"/></g><g transform="rotate(240)"><path d="M 0 233.50027072057128 Q 77.83342357352376 280.2003248646855 0 350.2504060808569 Q -77.83342357352376 280.2003248646855 0 233.50027072057128"/></g><g transform="rotate(260)"><path d="M 0 233.50027072057128 Q 77.83342357352376 280.2003248646855 0 350.2504060808569 Q -77.83342357352376 280.2003248646855 0 233.50027072057128"/></g><g transform="rotate(280)"><path d="M 0 233.50027072057128 Q 77.83342357352376 280.2003248646855 0 350.2504060808569 Q -77.83342357352376 280.2003248646855 0 233.50027072057128"/></g><g transform="rotate(300)"><path d="M 0 233.50027072057128 Q 77.83342357352376 280.2003248646855 0 350.2504060808569 Q -77.83342357352376 280.2003248646855 0 233.50027072057128"/></g><g transform="rotate(320)"><path d="M 0 233.50027072057128 Q 77.83342357352376 280.2003248646855 0 350.2504060808569 Q -77.83342357352376 280.2003248646855 0 233.50027072057128"/></g><g transform="rotate(340)"><path d="M 0 233.50027072057128 Q 77.83342357352376 280.2003248646855 0 350.2504060808569 Q -77.83342357352376 280.2003248646855 0 233.50027072057128"/></g><g transform="rotate(0)"><circle cx="0" cy="303.604428967461" r="75.90110724186525"/></g><g transform="rotate(20)"><circle cx="0" cy="303.604428967461" r="75.90110724186525"/></g><g transform="rotate(40)"><circle cx="0" cy="303.604428967461" r="75.90110724186525"/></g><g transform="rotate(60)"><circle cx="0" cy="303.604428967461" r="75.90110724186525"/></g><g transform="rotate(80)"><circle cx="0" cy="303.604428967461" r="75.90110724186525"/></g><g transform="rotate(100)"><circle cx="0" cy="303.604428967461" r="75.90110724186525"/></g><g transform="rotate(120)"><circle cx="0" cy="303.604428967461" r="75.90110724186525"/></g><g transform="rotate(140)"><circle cx="0" cy="303.604428967461" r="75.90110724186525"/></g><g transform="rotate(160)"><circle cx="0" cy="303.604428967461" r="75.90110724186525"/></g><g transform="rotate(180)"><circle cx="0" cy="303.604428967461" r="75.90110724186525"/></g><g transform="rotate(200)"><circle cx="0" cy="303.604428967461" r="75.90110724186525"/></g><g transform="rotate(220)"><circle cx="0" cy="303.604428967461" r="75.90110724186525"/></g><g transform="rotate(240)"><circle cx="0" cy="303.604428967461" r="75.90110724186525"/></g><g transform="rotate(260)"><circle cx="0" cy="303.604428967461" r="75.90110724186525"/></g><g transform="rotate(280)"><circle cx="0" cy="303.604428967461" r="75.90110724186525"/></g><g transform="rotate(300)"><circle cx="0" cy="303.604428967461" r="75.90110724186525"/></g><g transform="rotate(320)"><circle cx="0" cy="303.604428967461" r="75.90110724186525"/></g><g transform="rotate(340)"><circle cx="0" cy="303.604428967461" r="75.90110724186525"/></g></g></svg>