<svg xmlns="http://www.w3.org/2000/svg" viewBox="0 0 800 800" width="800" height="800">
    <rect width="100%" height="100%" fill="white"/>
    <g transform="translate(400, 400)" fill="none" stroke="black" stroke-width="4" stroke-linecap="round" stroke-linejoin="round"><g transform="rotate(0)"><path d="M 0 55.49301529303193 L 0 72.14091988094151"/></g><g transform="rotate(30)"><path d="M 0 55.49301529303193 L 0 72.14091988094151"/></g><g transform="rotate(60)"><path d="M 0 55.49301529303193 L 0 72.14091988094151"/></g><g transform="rotate(90)"><path d="M 0 55.49301529303193 L 0 72.14091988094151"/></g><g transform="rotate(120)"><path d="M 0 55.49301529303193 L 0 72.14091988094151"/></g><g transform="rotate(150)"><path d="M 0 55.49301529303193 L 0 72.14091988094151"/></g><g transform="rotate(180)"><path d="M 0 55.49301529303193 L 0 72.14091988094151"/></g><g transform="rotate(210)"><path d="M 0 55.49301529303193 L 0 72.14091988094151"/></g><g transform="rotate(240)"><path d="M 0 55.49301529303193 L 0 72.14091988094151"/></g><g transform="rotate(270)"><path d="M 0 55.49301529303193 L 0 72.14091988094151"/></g><g transform="rotate(300)"><path d="M 0 55.49301529303193 L 0 72.14091988094151"/></g><g transform="rotate(330)"><path d="M 0 55.49301529303193 L 0 72.14091988094151"/></g><g transform="rotate(0)"><circle cx="0" cy="96.17160938990614" r="24.042902347476534"/></g><g transform="rotate(30)"><circle cx="0" cy="96.17160938990614" r="24.042902347476534"/></g><g transform="rotate(60)"><circle cx="0" cy="96.17160938990614" r="24.042902347476534"/></g><g transform="rotate(90)"><circle cx="0" cy="96.17160938990614" r="24.042902347476534"/></g><g transform="rotate(120)"><circle cx="0" cy="96.17160938990614" r="24.042902347476534"/></g><g transform="rotate(150)"><circle cx="0" cy="96.17160938990614" r="24.042902347476534"/></g><g transform="rotate(180)"><circle cx="0" cy="96.17160938990614" r="24.042902347476534"/></g><g transform="rotate(210)"><circle cx="0" cy="96.17160938990614" r="24.042902347476534"/></g><g transform="rotate(240)"><circle cx="0" cy="96.17160938990614" r="24.042902347476534"/></g><g transform="rotate(270)"><circle cx="0" cy="96.17160938990614" r="24.042902347476534"/></g><g transform="rotate(300)"><circle cx="0" cy="96.17160938990614" r="24.042902347476534"/></g><g transform="rotate(330)"><circle cx="0" cy="96.17160938990614" r="24.042902347476534"/></g><g transform="rotate(0)"><path d="M -39.57640796589355 158.3056318635742 Q 0 189.96675823628905 39.57640796589355 158.3056318635742"/></g><g transform="rotate(30)"><path d="M -39.57640796589355 158.3056318635742 Q 0 189.96675823628905 39.57640796589355 158.3056318635742"/></g><g transform="rotate(60)"><path d="M -39.57640796589355 158.3056318635742 Q 0 189.96675823628905 39.57640796589355 158.3056318635742"/></g><g transform="rotate(90)"><path d="M -39.57640796589355 158.3056318635742 Q 0 189.96675823628905 39.57640796589355 158.3056318635742"/></g><g transform="rotate(120)"><path d="M -39.57640796589355 158.3056318635742 Q 0 189.96675823628905 39.57640796589355 158.3056318635742"/></g><g transform="rotate(150)"><path d="M -39.57640796589355 158.3056318635742 Q 0 189.96675823628905 39.57640796589355 158.3056318635742"/></g><g transform="rotate(180)"><path d="M -39.57640796589355 158.3056318635742 Q 0 189.96675823628905 39.57640796589355 158.3056318635742"/></g><g transform="rotate(210)"><path d="M -39.57640796589355 158.3056318635742 Q 0 189.96675823628905 39.57640796589355 158.3056318635742"/></g><g transform="rotate(240)"><path d="M -39.57640796589355 158.3056318635742 Q 0 189.96675823628905 39.57640796589355 158.3056318635742"/></g><g transform="rotate(270)"><path d="M -39.57640796589355 158.3056318635742 Q 0 189.96675823628905 39.57640796589355 158.3056318635742"/></g><g transform="rotate(300)"><path d="M -39.57640796589355 158.3056318635742 Q 0 189.96675823628905 39.57640796589355 158.3056318635742"/></g><g transform="rotate(330)"><path d="M -39.57640796589355 158.3056318635742 Q 0 189.96675823628905 39.57640796589355 158.3056318635742"/></g><g transform="rotate(0)"><path d="M 0 203.83586776442826 Q 67.94528925480942 244.6030413173139 0 305.7538016466424 Q -67.94528925480942 244.6030413173139 0 203.83586776442826"/></g><g transform="rotate(30)"><path d="M 0 203.83586776442826 Q 67.94528925480942 244.6030413173139 0 305.7538016466424 Q -67.94528925480942 244.6030413173139 0 203.83586776442826"/></g><g transform="rotate(60)"><path d="M 0 203.83586776442826 Q 67.94528925480942 244.6030413173139 0 305.7538016466424 Q -67.94528925480942 244.6030413173139 0 203.83586776442826"/></g><g transform="rotate(90)"><path d="M 0 203.83586776442826 Q 67.94528925480942 244.6030413173139 0 305.7538016466424 Q -67.94528925480942 244.6030413173139 0 203.83586776442826"/></g><g transform="rotate(120)"><path d="M 0 203.83586776442826 Q 67.94528925480942 244.6030413173139 0 305.7538016466424 Q -67.94528925480942 244.6030413173139 0 203.83586776442826"/></g><g transform="rotate(150)"><path d="M 0 203.83586776442826 Q 67.94528925480942 244.6030413173139 0 305.7538016466424 Q -67.94528925480942 244.6030413173139 0 203.83586776442826"/></g><g transform="rotate(180)"><path d="M 0 203.83586776442826 Q 67.94528925480942 244.6030413173139 0 305.7538016466424 Q -67.94528925480942 244.6030413173139 0 203.83586776442826"/></g><g transform="rotate(210)"><path d="M 0 203.83586776442826 Q 67.94528925480942 244.6030413173139 0 305.7538016466424 Q -67.94528925480942 244.6030413173139 0 203.83586776442826"/></g><g transform="rotate(240)"><path d="M 0 203.83586776442826 Q 67.94528925480942 244.6030413173139 0 305.7538016466424 Q -67.94528925480942 244.6030413173139 0 203.83586776442826"/></g><g transform="rotate(270)"><path d="M 0 203.83586776442826 Q 67.94528925480942 244.6030413173139 0 305.7538016466424 Q -67.94528925480942 244.6030413173139 0 203.83586776442826"/></g><g transform="rotate(300)"><path d="M 0 203.83586776442826 Q 67.94528925480942 244.6030413173139 0 305.7538016466424 Q -67.94528925480942 244.6030413173139 0 203.83586776442826"/></g><g transform="rotate(330)"><path d="M 0 203.83586776442826 Q 67.94528925480942 244.6030413173139 0 305.7538016466424 Q -67.94528925480942 244.6030413173139 0 203.83586776442826"/></g><g transform="rotate(0)"><circle cx="0" cy="272.3119974446794" r="68.07799936116984"/></g><g transform="rotate(30)"><circle cx="0" cy="272.3119974446794" r="68.07799936116984"/></g><g transform="rotate(60)"><circle cx="0" cy="272.3119974446794" r="68.07799936116984"/></g><g transform="rotate(90)"><circle cx="0" cy="272.3119974446794" r="68.07799936116984"/></g><g transform="rotate(120)"><circle cx="0" cy="272.3119974446794" r="68.07799936116984"/></g><g transform="rotate(150)"><circle cx="0" cy="272.3119974446794" r="68.07799936116984"/></g><g transform="rotate(180)"><circle cx="0" cy="272.3119974446794" r="68.07799936116984"/></g><g transform="rotate(210)"><circle cx="0" cy="272.3119974446794" r="68.07799936116984"/></g><g transform="rotate(240)"><circle cx="0" cy="272.3119974446794" r="68.07799936116984"/></g><g transform="rotate(270)"><circle cx="0" cy="272.3119974446794" r="68.07799936116984"/></g><g transform="rotate(300)"><circle cx="0" cy="272.3119974446794" r="68.07799936116984"/></g><g transform="rotate(330)"><circle cx="0" cy="272.3119974446794" r="68.07799936116984"/></g><g transform="rotate(0)"><circle cx="0" cy="311.3891557014237" r="77.84728892535593"/></g><g transform="rotate(30)"><circle cx="0" cy="311.3891557014237" r="77.84728892535593"/></g><g transform="rotate(60)"><circle cx="0" cy="311.3891557014237" r="77.84728892535593"/></g><g transform="rotate(90)"><circle cx="0" cy="311.3891557014237" r="77.84728892535593"/></g><g transform="rotate(120)"><circle cx="0" cy="311.3891557014237" r="77.84728892535593"/></g><g transform="rotate(150)"><circle cx="0" cy="311.3891557014237" r="77.84728892535593"/></g><g transform="rotate(180)"><circle cx="0" cy="311.3891557014237" r="77.84728892535593"/></g><g transform="rotate(210)"><circle cx="0" cy="311.3891557014237" r="77.84728892535593"/></g><g transform="rotate(240)"><circle cx="0" cy="311.3891557014237" r="77.84728892535593"/></g><g transform="rotate(270)"><circle cx="0" cy="311.3891557014237" r="77.84728892535593"/></g><g transform="rotate(300)"><circle cx="0" cy="311.3891557014237" r="77.84728892535593"/></g><g transform="rotate(330)"><circle cx="0" cy="311.3891557014237" r="77.84728892535593"/></g></g></svg>