<svg xmlns="http://www.w3.org/2000/svg" viewBox="0 0 800 800" width="800" height="800">
    <rect width="100%" height="100%" fill="white"/>
    <g transform="translate(400, 400)" fill="none" stroke="black" stroke-width="4" stroke-linecap="round" stroke-linejoin="round"><g transform="rotate(0)"><path d="M 0 53.98121799342334 L 13.495304498355836 64.77746159210801 L 0 75.57370519079268 L -13.495304498355836 64.77746159210801 Z"/></g><g transform="rotate(22.5)"><path d="M 0 53.98121799342334 L 13.495304498355836 64.77746159210801 L 0 75.57370519079268 L -13.495304498355836 64.77746159210801 Z"/></g><g transform="rotate(45)"><path d="M 0 53.98121799342334 L 13.495304498355836 64.77746159210801 L 0 75.57370519079268 L -13.495304498355836 64.77746159210801 Z"/></g><g transform="rotate(67.5)"><path d="M 0 53.98121799342334 L 13.495304498355836 64.77746159210801 L 0 75.57370519079268 L -13.495304498355836 64.77746159210801 Z"/></g><g transform="rotate(90)"><path d="M 0 53.98121799342334 L 13.495304498355836 64.77746159210801 L 0 75.57370519079268 L -13.495304498355836 64.77746159210801 Z"/></g><g transform="rotate(112.5)"><path d="M 0 53.98121799342334 L 13.495304498355836 64.77746159210801 L 0 75.57370519079268 L -13.495304498355836 64.77746159210801 Z"/></g><g transform="rotate(135)"><path d="M 0 53.98121799342334 L 13.495304498355836 64.77746159210801 L 0 75.57370519079268 L -13.495304498355836 64.77746159210801 Z"/></g><g transform="rotate(157.5)"><path d="M 0 53.98121799342334 L 13.495304498355836 64.77746159210801 L 0 75.57370519079268 L -13.495304498355836 64.77746159210801 Z"/></g><g transform="rotate(180)"><path d="M 0 53.98121799342334 L 13.495304498355836 64.77746159210801 L 0 75.57370519079268 L -13.495304498355836 64.77746159210801 Z"/></g><g transform="rotate(202.5)"><path d="M 0 53.98121799342334 L 13.495304498355836 64.77746159210801 L 0 75.57370519079268 L -13.495304498355836 64.77746159210801 Z"/></g><g transform="rotate(225)"><path d="M 0 53.98121799342334 L 13.495304498355836 64.77746159210801 L 0 75.57370519079268 L -13.495304498355836 64.77746159210801 Z"/></g><g transform="rotate(247.5)"><path d="M 0 53.98121799342334 L 13.495304498355836 64.77746159210801 L 0 75.57370519079268 L -13.495304498355836 64.77746159210801 Z"/></g><g transform="rotate(270)"><path d="M 0 53.98121799342334 L 13.495304498355836 64.77746159210801 L 0 75.57370519079268 L -13.495304498355836 64.77746159210801 Z"/></g><g transform="rotate(292.5)"><path d="M 0 53.98121799342334 L 13.495304498355836 64.77746159210801 L 0 75.57370519079268 L -13.495304498355836 64.77746159210801 Z"/></g><g transform="rotate(315)"><path d="M 0 53.98121799342334 L 13.495304498355836 64.77746159210801 L 0 75.57370519079268 L -13.495304498355836 64.77746159210801 Z"/></g><g transform="rotate(337.5)"><path d="M 0 53.98121799342334 L 13.495304498355836 64.77746159210801 L 0 75.57370519079268 L -13.495304498355836 64.77746159210801 Z"/></g><g transform="rotate(0)"><path d="M 0 134.80996172875166 L 0 175.25295024737716"/></g><g transform="rotate(22.5)"><path d="M 0 134.80996172875166 L 0 175.25295024737716"/></g><g transform="rotate(45)"><path d="M 0 134.80996172875166 L 0 175.25295024737716"/></g><g transform="rotate(67.5)"><path d="M 0 134.80996172875166 L 0 175.25295024737716"/></g><g transform="rotate(90)"><path d="M 0 134.80996172875166 L 0 175.25295024737716"/></g><g transform="rotate(112.5)"><path d="M 0 134.80996172875166 L 0 175.25295024737716"/></g><g transform="rotate(135)"><path d="M 0 134.80996172875166 L 0 175.25295024737716"/></g><g transform="rotate(157.5)"><path d="M 0 134.80996172875166 L 0 175.25295024737716"/></g><g transform="rotate(180)"><path d="M 0 134.80996172875166 L 0 175.25295024737716"/></g><g transform="rotate(202.5)"><path d="M 0 134.80996172875166 L 0 175.25295024737716"/></g><g transform="rotate(225)"><path d="M 0 134.80996172875166 L 0 175.25295024737716"/></g><g transform="rotate(247.5)"><path d="M 0 134.80996172875166 L 0 175.25295024737716"/></g><g transform="rotate(270)"><path d="M 0 134.80996172875166 L 0 175.25295024737716"/></g><g transform="rotate(292.5)"><path d="M 0 134.80996172875166 L 0 175.25295024737716"/></g><g transform="rotate(315)"><path d="M 0 134.80996172875166 L 0 175.25295024737716"/></g><g transform="rotate(337.5)"><path d="M 0 134.80996172875166 L 0 175.25295024737716"/></g><g transform="rotate(0)"><path d="M -51.82560303481296 207.30241213925183 Q 0 248.7628945671022 51.82560303481296 207.30241213925183"/></g><g transform="rotate(22.5)"><path d="M -51.82560303481296 207.30241213925183 Q 0 248.7628945671022 51.82560303481296 207.30241213925183"/></g><g transform="rotate(45)"><path d="M -51.82560303481296 207.30241213925183 Q 0 248.7628945671022 51.82560303481296 207.30241213925183"/></g><g transform="rotate(67.5)"><path d="M -51.82560303481296 207.30241213925183 Q 0 248.7628945671022 51.82560303481296 207.30241213925183"/></g><g transform="rotate(90)"><path d="M -51.82560303481296 207.30241213925183 Q 0 248.7628945671022 51.82560303481296 207.30241213925183"/></g><g transform="rotate(112.5)"><path d="M -51.82560303481296 207.30241213925183 Q 0 248.7628945671022 51.82560303481296 207.30241213925183"/></g><g transform="rotate(135)"><path d="M -51.82560303481296 207.30241213925183 Q 0 248.7628945671022 51.82560303481296 207.30241213925183"/></g><g transform="rotate(157.5)"><path d="M -51.82560303481296 207.30241213925183 Q 0 248.7628945671022 51.82560303481296 207.30241213925183"/></g><g transform="rotate(180)"><path d="M -51.82560303481296 207.30241213925183 Q 0 248.7628945671022 51.82560303481296 207.30241213925183"/></g><g transform="rotate(202.5)"><path d="M -51.82560303481296 207.30241213925183 Q 0 248.7628945671022 51.82560303481296 207.30241213925183"/></g><g transform="rotate(225)"><path d="M -51.82560303481296 207.30241213925183 Q 0 248.7628945671022 51.82560303481296 207.30241213925183"/></g><g transform="rotate(247.5)"><path d="M -51.82560303481296 207.30241213925183 Q 0 248.7628945671022 51.82560303481296 207.30241213925183"/></g><g transform="rotate(270)"><path d="M -51.82560303481296 207.30241213925183 Q 0 248.7628945671022 51.82560303481296 207.30241213925183"/></g><g transform="rotate(292.5)"><path d="M -51.82560303481296 207.30241213925183 Q 0 248.7628945671022 51.82560303481296 207.30241213925183"/></g><g transform="rotate(315)"><path d="M -51.82560303481296 207.30241213925183 Q 0 248.7628945671022 51.82560303481296 207.30241213925183"/></g><g transform="rotate(337.5)"><path d="M -51.82560303481296 207.30241213925183 Q 0 248.7628945671022 51.82560303481296 207.30241213925183"/></g><g transform="rotate(0)"><circle cx="0" cy="288.44809180125594" r="72.11202295031399"/></g><g transform="rotate(22.5)"><circle cx="0" cy="288.44809180125594" r="72.11202295031399"/></g><g transform="rotate(45)"><circle cx="0" cy="288.44809180125594" r="72.11202295031399"/></g><g transform="rotate(67.5)"><circle cx="0" cy="288.44809180125594" r="72.11202295031399"/></g><g transform="rotate(90)"><circle cx="0" cy="288.44809180125594" r="72.11202295031399"/></g><g transform="rotate(112.5)"><circle cx="0" cy="288.44809180125594" r="72.11202295031399"/></g><g transform="rotate(135)"><circle cx="0" cy="288.44809180125594" r="72.11202295031399"/></g><g transform="rotate(157.5)"><circle cx="0" cy="288.44809180125594" r="72.11202295031399"/></g><g transform="rotate(180)"><circle cx="0" cy="288.44809180125594" r="72.11202295031399"/></g><g transform="rotate(202.5)"><circle cx="0" cy="288.44809180125594" r="72.11202295031399"/></g><g transform="rotate(225)"><circle cx="0" cy="288.44809180125594" r="72.11202295031399"/></g><g transform="rotate(247.5)"><circle cx="0" cy="288.44809180125594" r="72.11202295031399"/></g><g transform="rotate(270)"><circle cx="0" cy="288.44809180125594" r="72.11202295031399"/></g><g transform="rotate(292.5)"><circle cx="0" cy="288.44809180125594" r="72.11202295031399"/></g><g transform="rotate(315)"><circle cx="0" cy="288.44809180125594" r="72.11202295031399"/></g><g transform="rotate(337.5)"><circle cx="0" cy="288.44809180125594" r="72.11202295031399"/></g></g></svg>