<svg xmlns="http://www.w3.org/2000/svg" viewBox="0 0 800 800" width="800" height="800">
    <rect width="100%" height="100%" fill="white"/>
    <g transform="translate(400, 400)" fill="none" stroke="black" stroke-width="4" stroke-linecap="round" stroke-linejoin="round"><g transform="rotate(0)"><path d="M 0 59.71348976716399 Q 19.904496589054663 71.65618772059679 0 89.57023465074599 Q -19.904496589054663 71.65618772059679 0 59.71348976716399"/></g><g transform="rotate(25.714285714285715)"><path d="M 0 59.71348976716399 Q 19.904496589054663 71.65618772059679 0 89.57023465074599 Q -19.904496589054663 71.65618772059679 0 59.71348976716399"/></g><g transform="rotate(51.42857142857143)"><path d="M 0 59.71348976716399 Q 19.904496589054663 71.65618772059679 0 89.57023465074599 Q -19.904496589054663 71.65618772059679 0 59.71348976716399"/></g><g transform="rotate(77.14285714285714)"><path d="M 0 59.71348976716399 Q 19.904496589054663 71.65618772059679 0 89.57023465074599 Q -19.904496589054663 71.65618772059679 0 59.71348976716399"/></g><g transform="rotate(102.85714285714286)"><path d="M 0 59.71348976716399 Q 19.904496589054663 71.65618772059679 0 89.57023465074599 Q -19.904496589054663 71.65618772059679 0 59.71348976716399"/></g><g transform="rotate(128.57142857142858)"><path d="M 0 59.71348976716399 Q 19.904496589054663 71.65618772059679 0 89.57023465074599 Q -19.904496589054663 71.65618772059679 0 59.71348976716399"/></g><g transform="rotate(154.28571428571428)"><path d="M 0 59.71348976716399 Q 19.904496589054663 71.65618772059679 0 89.57023465074599 Q -19.904496589054663 71.65618772059679 0 59.71348976716399"/></g><g transform="rotate(180)"><path d="M 0 59.71348976716399 Q 19.904496589054663 71.65618772059679 0 89.57023465074599 Q -19.904496589054663 71.65618772059679 0 59.71348976716399"/></g><g transform="rotate(205.71428571428572)"><path d="M 0 59.71348976716399 Q 19.904496589054663 71.65618772059679 0 89.57023465074599 Q -19.904496589054663 71.65618772059679 0 59.71348976716399"/></g><g transform="rotate(231.42857142857142)"><path d="M 0 59.71348976716399 Q 19.904496589054663 71.65618772059679 0 89.57023465074599 Q -19.904496589054663 71.65618772059679 0 59.71348976716399"/></g><g transform="rotate(257.14285714285717)"><path d="M 0 59.71348976716399 Q 19.904496589054663 71.65618772059679 0 89.57023465074599 Q -19.904496589054663 71.65618772059679 0 59.71348976716399"/></g><g transform="rotate(282.85714285714283)"><path d="M 0 59.71348976716399 Q 19.904496589054663 71.65618772059679 0 89.57023465074599 Q -19.904496589054663 71.65618772059679 0 59.71348976716399"/></g><g transform="rotate(308.57142857142856)"><path d="M 0 59.71348976716399 Q 19.904496589054663 71.65618772059679 0 89.57023465074599 Q -19.904496589054663 71.65618772059679 0 59.71348976716399"/></g><g transform="rotate(334.2857142857143)"><path d="M 0 59.71348976716399 Q 19.904496589054663 71.65618772059679 0 89.57023465074599 Q -19.904496589054663 71.65618772059679 0 59.71348976716399"/></g><g transform="rotate(0)"><circle cx="0" cy="122.68593319319189" r="30.67148329829797"/></g><g transform="rotate(25.714285714285715)"><circle cx="0" cy="122.68593319319189" r="30.67148329829797"/></g><g transform="rotate(51.42857142857143)"><circle cx="0" cy="122.68593319319189" r="30.67148329829797"/></g><g transform="rotate(77.14285714285714)"><circle cx="0" cy="122.68593319319189" r="30.67148329829797"/></g><g transform="rotate(102.85714285714286)"><circle cx="0" cy="122.68593319319189" r="30.67148329829797"/></g><g transform="rotate(128.57142857142858)"><circle cx="0" cy="122.68593319319189" r="30.67148329829797"/></g><g transform="rotate(154.28571428571428)"><circle cx="0" cy="122.68593319319189" r="30.67148329829797"/></g><g transform="rotate(180)"><circle cx="0" cy="122.68593319319189" r="30.67148329829797"/></g><g transform="rotate(205.71428571428572)"><circle cx="0" cy="122.68593319319189" r="30.67148329829797"/></g><g transform="rotate(231.42857142857142)"><circle cx="0" cy="122.68593319319189" r="30.67148329829797"/></g><g transform="rotate(257.14285714285717)"><circle cx="0" cy="122.68593319319189" r="30.67148329829797"/></g><g transform="rotate(282.85714285714283)"><circle cx="0" cy="122.68593319319189" r="30.67148329829797"/></g><g transform="rotate(308.57142857142856)"><circle cx="0" cy="122.68593319319189" r="30.67148329829797"/></g><g transform="rotate(334.2857142857143)"><circle cx="0" cy="122.68593319319189" r="30.67148329829797"/></g><g transform="rotate(0)"><circle cx="0" cy="175.29280918836594" r="43.823202297091484"/></g><g transform="rotate(25.714285714285715)"><circle cx="0" cy="175.29280918836594" r="43.823202297091484"/></g><g transform="rotate(51.42857142857143)"><circle cx="0" cy="175.29280918836594" r="43.823202297091484"/></g><g transform="rotate(77.14285714285714)"><circle cx="0" cy="175.29280918836594" r="43.823202297091484"/></g><g transform="rotate(102.85714285714286)"><circle cx="0" cy="175.29280918836594" r="43.823202297091484"/></g><g transform="rotate(128.57142857142858)"><circle cx="0" cy="175.29280918836594" r="43.823202297091484"/></g><g transform="rotate(154.28571428571428)"><circle cx="0" cy="175.29280918836594" r="43.823202297091484"/></g><g transform="rotate(180)"><circle cx="0" cy="175.29280918836594" r="43.823202297091484"/></g><g transform="rotate(205.71428571428572)"><circle cx="0" cy="175.29280918836594" r="43.823202297091484"/></g><g transform="rotate(231.42857142857142)"><circle cx="0" cy="175.29280918836594" r="43.823202297091484"/></g><g transform="rotate(257.14285714285717)"><circle cx="0" cy="175.29280918836594" r="43.823202297091484"/></g><g transform="rotate(282.85714285714283)"><circle cx="0" cy="175.29280918836594" r="43.823202297091484"/></g><g transform="rotate(308.57142857142856)"><circle cx="0" cy="175.29280918836594" r="43.823202297091484"/></g><g transform="rotate(334.2857142857143)"><circle cx="0" cy="175.29280918836594" r="43.823202297091484"/></g><g transform="rotate(0)"><path d="M 0 241.70434539951384 L 60.42608634987846 290.0452144794166 L 0 338.38608355931933 L -60.42608634987846 290.0452144794166 Z"/></g><g transform="rotate(25.714285714285715)"><path d="M 0 241.70434539951384 L 60.42608634987846 290.0452144794166 L 0 338.38608355931933 L -60.42608634987846 290.0452144794166 Z"/></g><g transform="rotate(51.42857142857143)"><path d="M 0 241.70434539951384 L 60.42608634987846 290.0452144794166 L 0 338.38608355931933 L -60.42608634987846 290.0452144794166 Z"/></g><g transform="rotate(77.14285714285714)"><path d="M 0 241.70434539951384 L 60.42608634987846 290.0452144794166 L 0 338.38608355931933 L -60.42608634987846 290.0452144794166 Z"/></g><g transform="rotate(102.85714285714286)"><path d="M 0 241.70434539951384 L 60.42608634987846 290.0452144794166 L 0 338.38608355931933 L -60.42608634987846 290.0452144794166 Z"/></g><g transform="rotate(128.57142857142858)"><path d="M 0 241.70434539951384 L 60.42608634987846 290.0452144794166 L 0 338.38608355931933 L -60.42608634987846 290.0452144794166 Z"/></g><g transform="rotate(154.28571428571428)"><path d="M 0 241.70434539951384 L 60.42608634987846 290.0452144794166 L 0 338.38608355931933 L -60.42608634987846 290.0452144794166 Z"/></g><g transform="rotate(180)"><path d="M 0 241.70434539951384 L 60.42608634987846 290.0452144794166 L 0 338.38608355931933 L -60.42608634987846 290.0452144794166 Z"/></g><g transform="rotate(205.71428571428572)"><path d="M 0 241.70434539951384 L 60.42608634987846 290.0452144794166 L 0 338.38608355931933 L -60.42608634987846 290.0452144794166 Z"/></g><g transform="rotate(231.42857142857142)"><path d="M 0 241.70434539951384 L 60.42608634987846 290.0452144794166 L 0 338.38608355931933 L -60.42608634987846 290.0452144794166 Z"/></g><g transform="rotate(257.14285714285717)"><path d="M 0 241.70434539951384 L 60.42608634987846 290.0452144794166 L 0 338.38608355931933 L -60.42608634987846 290.0452144794166 Z"/></g><g transform="rotate(282.85714285714283)"><path d="M 0 241.70434539951384 L 60.42608634987846 290.0452144794166 L 0 338.38608355931933 L -60.42608634987846 290.0452144794166 Z"/></g><g transform="rotate(308.57142857142856)"><path d="M 0 241.70434539951384 L 60.42608634987846 290.0452144794166 L 0 338.38608355931933 L -60.42608634987846 290.0452144794166 Z"/></g><g transform="rotate(334.2857142857143)"><path d="M 0 241.70434539951384 L 60.42608634987846 290.0452144794166 L 0 338.38608355931933 L -60.42608634987846 290.0452144794166 Z"/></g><g transform="rotate(0)"><circle cx="0" cy="296.078052226454" r="74.0195130566135"/></g><g transform="rotate(25.714285714285715)"><circle cx="0" cy="296.078052226454" r="74.0195130566135"/></g><g transform="rotate(51.42857142857143)"><circle cx="0" cy="296.078052226454" r="74.0195130566135"/></g><g transform="rotate(77.14285714285714)"><circle cx="0" cy="296.078052226454" r="74.0195130566135"/></g><g transform="rotate(102.85714285714286)"><circle cx="0" cy="296.078052226454" r="74.0195130566135"/></g><g transform="rotate(128.57142857142858)"><circle cx="0" cy="296.078052226454" r="74.0195130566135"/></g><g transform="rotate(154.28571428571428)"><circle cx="0" cy="296.078052226454" r="74.0195130566135"/></g><g transform="rotate(180)"><circle cx="0" cy="296.078052226454" r="74.0195130566135"/></g><g transform="rotate(205.71428571428572)"><circle cx="0" cy="296.078052226454" r="74.0195130566135"/></g><g transform="rotate(231.42857142857142)"><circle cx="0" cy="296.078052226454" r="74.0195130566135"/></g><g transform="rotate(257.14285714285717)"><circle cx="0" cy="296.078052226454" r="74.0195130566135"/></g><g transform="rotate(282.85714285714283)"><circle cx="0" cy="296.078052226454" r="74.0195130566135"/></g><g transform="rotate(308.57142857142856)"><circle cx="0" cy="296.078052226454" r="74.0195130566135"/></g><g transform="rotate(334.2857142857143)"><circle cx="0" cy="296.078052226454" r="74.0195130566135"/></g></g></svg>