<svg xmlns="http://www.w3.org/2000/svg" viewBox="0 0 800 800" width="800" height="800">
    <rect width="100%" height="100%" fill="white"/>
    <g transform="translate(400, 400)" fill="none" stroke="black" stroke-width="4" stroke-linecap="round" stroke-linejoin="round"><g transform="rotate(0)"><path d="M 0 49.25681108608842 L 0 64.03385441191494"/></g><g transform="rotate(36)"><path d="M 0 49.25681108608842 L 0 64.03385441191494"/></g><g transform="rotate(72)"><path d="M 0 49.25681108608842 L 0 64.03385441191494"/></g><g transform="rotate(108)"><path d="M 0 49.25681108608842 L 0 64.03385441191494"/></g><g transform="rotate(144)"><path d="M 0 49.25681108608842 L 0 64.03385441191494"/></g><g transform="rotate(180)"><path d="M 0 49.25681108608842 L 0 64.03385441191494"/></g><g transform="rotate(216)"><path d="M 0 49.25681108608842 L 0 64.03385441191494"/></g><g transform="rotate(252)"><path d="M 0 49.25681108608842 L 0 64.03385441191494"/></g><g transform="rotate(288)"><path d="M 0 49.25681108608842 L 0 64.03385441191494"/></g><g transform="rotate(324)"><path d="M 0 49.25681108608842 L 0 64.03385441191494"/></g><g transform="rotate(0)"><path d="M 0 113.61953314952552 L 0 147.7053930943832"/></g><g transform="rotate(36)"><path d="M 0 113.61953314952552 L 0 147.7053930943832"/></g><g transform="rotate(72)"><path d="M 0 113.61953314952552 L 0 147.7053930943832"/></g><g transform="rotate(108)"><path d="M 0 113.61953314952552 L 0 147.7053930943832"/></g><g transform="rotate(144)"><path d="M 0 113.61953314952552 L 0 147.7053930943832"/></g><g transform="rotate(180)"><path d="M 0 113.61953314952552 L 0 147.7053930943832"/></g><g transform="rotate(216)"><path d="M 0 113.61953314952552 L 0 147.7053930943832"/></g><g transform="rotate(252)"><path d="M 0 113.61953314952552 L 0 147.7053930943832"/></g><g transform="rotate(288)"><path d="M 0 113.61953314952552 L 0 147.7053930943832"/></g><g transform="rotate(324)"><path d="M 0 113.61953314952552 L 0 147.7053930943832"/></g><g transform="rotate(0)"><path d="M 0 184.86971712857485 L 46.21742928214371 221.8436605542898 L 0 258.8176039800048 L -46.21742928214371 221.8436605542898 Z"/></g><g transform="rotate(36)"><path d="M 0 184.86971712857485 L 46.21742928214371 221.8436605542898 L 0 258.8176039800048 L -46.21742928214371 221.8436605542898 Z"/></g><g transform="rotate(72)"><path d="M 0 184.86971712857485 L 46.21742928214371 221.8436605542898 L 0 258.8176039800048 L -46.21742928214371 221.8436605542898 Z"/></g><g transform="rotate(108)"><path d="M 0 184.86971712857485 L 46.21742928214371 221.8436605542898 L 0 258.8176039800048 L -46.21742928214371 221.8436605542898 Z"/></g><g transform="rotate(144)"><path d="M 0 184.86971712857485 L 46.21742928214371 221.8436605542898 L 0 258.8176039800048 L -46.21742928214371 221.8436605542898 Z"/></g><g transform="rotate(180)"><path d="M 0 184.86971712857485 L 46.21742928214371 221.8436605542898 L 0 258.8176039800048 L -46.21742928214371 221.8436605542898 Z"/></g><g transform="rotate(216)"><path d="M 0 184.86971712857485 L 46.21742928214371 221.8436605542898 L 0 258.8176039800048 L -46.21742928214371 221.8436605542898 Z"/></g><g transform="rotate(252)"><path d="M 0 184.86971712857485 L 46.21742928214371 221.8436605542898 L 0 258.8176039800048 L -46.21742928214371 221.8436605542898 Z"/></g><g transform="rotate(288)"><path d="M 0 184.86971712857485 L 46.21742928214371 221.8436605542898 L 0 258.8176039800048 L -46.21742928214371 221.8436605542898 Z"/></g><g transform="rotate(324)"><path d="M 0 184.86971712857485 L 46.21742928214371 221.8436605542898 L 0 258.8176039800048 L -46.21742928214371 221.8436605542898 Z"/></g><g transform="rotate(0)"><circle cx="0" cy="242.78368884511292" r="60.69592221127823"/></g><g transform="rotate(36)"><circle cx="0" cy="242.78368884511292" r="60.69592221127823"/></g><g transform="rotate(72)"><circle cx="0" cy="242.78368884511292" r="60.69592221127823"/></g><g transform="rotate(108)"><circle cx="0" cy="242.78368884511292" r="60.69592221127823"/></g><g transform="rotate(144)"><circle cx="0" cy="242.78368884511292" r="60.69592221127823"/></g><g transform="rotate(180)"><circle cx="0" cy="242.78368884511292" r="60.69592221127823"/></g><g transform="rotate(216)"><circle cx="0" cy="242.78368884511292" r="60.69592221127823"/></g><g transform="rotate(252)"><circle cx="0" cy="242.78368884511292" r="60.69592221127823"/></g><g transform="rotate(288)"><circle cx="0" cy="242.78368884511292" r="60.69592221127823"/></g><g transform="rotate(324)"><circle cx="0" cy="242.78368884511292" r="60.69592221127823"/></g><g transform="rotate(0)"><path d="M 0 303.7737690322101 L 0 394.90589974187316"/></g><g transform="rotate(36)"><path d="M 0 303.7737690322101 L 0 394.90589974187316"/></g><g transform="rotate(72)"><path d="M 0 303.7737690322101 L 0 394.90589974187316"/></g><g transform="rotate(108)"><path d="M 0 303.7737690322101 L 0 394.90589974187316"/></g><g transform="rotate(144)"><path d="M 0 303.7737690322101 L 0 394.90589974187316"/></g><g transform="rotate(180)"><path d="M 0 303.7737690322101 L 0 394.90589974187316"/></g><g transform="rotate(216)"><path d="M 0 303.7737690322101 L 0 394.90589974187316"/></g><g transform="rotate(252)"><path d="M 0 303.7737690322101 L 0 394.90589974187316"/></g><g transform="rotate(288)"><path d="M 0 303.7737690322101 L 0 394.90589974187316"/></g><g transform="rotate(324)"><path d="M 0 303.7737690322101 L 0 394.90589974187316"/></g></g></svg>