<svg xmlns="http://www.w3.org/2000/svg" viewBox="0 0 800 800" width="800" height="800">
    <rect width="100%" height="100%" fill="white"/>
    <g transform="translate(400, 400)" fill="none" stroke="black" stroke-width="4" stroke-linecap="round" stroke-linejoin="round"><g transform="rotate(0)"><path d="M 0 52.674133158288896 L 0 68.47637310577556"/></g><g transform="rotate(30)"><path d="M 0 52.674133158288896 L 0 68.47637310577556"/></g><g transform="rotate(60)"><path d="M 0 52.674133158288896 L 0 68.47637310577556"/></g><g transform="rotate(90)"><path d="M 0 52.674133158288896 L 0 68.47637310577556"/></g><g transform="rotate(120)"><path d="M 0 52.674133158288896 L 0 68.47637310577556"/></g><g transform="rotate(150)"><path d="M 0 52.674133158288896 L 0 68.47637310577556"/></g><g transform="rotate(180)"><path d="M 0 52.674133158288896 L 0 68.47637310577556"/></g><g transform="rotate(210)"><path d="M 0 52.674133158288896 L 0 68.47637310577556"/></g><g transform="rotate(240)"><path d="M 0 52.674133158288896 L 0 68.47637310577556"/></g><g transform="rotate(270)"><path d="M 0 52.674133158288896 L 0 68.47637310577556"/></g><g transform="rotate(300)"><path d="M 0 52.674133158288896 L 0 68.47637310577556"/></g><g transform="rotate(330)"><path d="M 0 52.674133158288896 L 0 68.47637310577556"/></g><g transform="rotate(0)"><circle cx="0" cy="86.89094743757909" r="21.72273685939477"/></g><g transform="rotate(30)"><circle cx="0" cy="86.89094743757909" r="21.72273685939477"/></g><g transform="rotate(60)"><circle cx="0" cy="86.89094743757909" r="21.72273685939477"/></g><g transform="rotate(90)"><circle cx="0" cy="86.89094743757909" r="21.72273685939477"/></g><g transform="rotate(120)"><circle cx="0" cy="86.89094743757909" r="21.72273685939477"/></g><g transform="rotate(150)"><circle cx="0" cy="86.89094743757909" r="21.72273685939477"/></g><g transform="rotate(180)"><circle cx="0" cy="86.89094743757909" r="21.72273685939477"/></g><g transform="rotate(210)"><circle cx="0" cy="86.89094743757909" r="21.72273685939477"/></g><g transform="rotate(240)"><circle cx="0" cy="86.89094743757909" r="21.72273685939477"/></g><g transform="rotate(270)"><circle cx="0" cy="86.89094743757909" r="21.72273685939477"/></g><g transform="rotate(300)"><circle cx="0" cy="86.89094743757909" r="21.72273685939477"/></g><g transform="rotate(330)"><circle cx="0" cy="86.89094743757909" r="21.72273685939477"/></g><g transform="rotate(0)"><circle cx="0" cy="137.4280970603494" r="34.35702426508735"/></g><g transform="rotate(30)"><circle cx="0" cy="137.4280970603494" r="34.35702426508735"/></g><g transform="rotate(60)"><circle cx="0" cy="137.4280970603494" r="34.35702426508735"/></g><g transform="rotate(90)"><circle cx="0" cy="137.4280970603494" r="34.35702426508735"/></g><g transform="rotate(120)"><circle cx="0" cy="137.4280970603494" r="34.35702426508735"/></g><g transform="rotate(150)"><circle cx="0" cy="137.4280970603494" r="34.35702426508735"/></g><g transform="rotate(180)"><circle cx="0" cy="137.4280970603494" r="34.35702426508735"/></g><g transform="rotate(210)"><circle cx="0" cy="137.4280970603494" r="34.35702426508735"/></g><g transform="rotate(240)"><circle cx="0" cy="137.4280970603494" r="34.35702426508735"/></g><g transform="rotate(270)"><circle cx="0" cy="137.4280970603494" r="34.35702426508735"/></g><g transform="rotate(300)"><circle cx="0" cy="137.4280970603494" r="34.35702426508735"/></g><g transform="rotate(330)"><circle cx="0" cy="137.4280970603494" r="34.35702426508735"/></g><g transform="rotate(0)"><path d="M 0 193.22586687481297 L 0 251.19362693725685"/></g><g transform="rotate(30)"><path d="M 0 193.22586687481297 L 0 251.19362693725685"/></g><g transform="rotate(60)"><path d="M 0 193.22586687481297 L 0 251.19362693725685"/></g><g transform="rotate(90)"><path d="M 0 193.22586687481297 L 0 251.19362693725685"/></g><g transform="rotate(120)"><path d="M 0 193.22586687481297 L 0 251.19362693725685"/></g><g transform="rotate(150)"><path d="M 0 193.22586687481297 L 0 251.19362693725685"/></g><g transform="rotate(180)"><path d="M 0 193.22586687481297 L 0 251.19362693725685"/></g><g transform="rotate(210)"><path d="M 0 193.22586687481297 L 0 251.19362693725685"/></g><g transform="rotate(240)"><path d="M 0 193.22586687481297 L 0 251.19362693725685"/></g><g transform="rotate(270)"><path d="M 0 193.22586687481297 L 0 251.19362693725685"/></g><g transform="rotate(300)"><path d="M 0 193.22586687481297 L 0 251.19362693725685"/></g><g transform="rotate(330)"><path d="M 0 193.22586687481297 L 0 251.19362693725685"/></g><g transform="rotate(0)"><path d="M 0 225.21864134618747 L 0 292.7842337500437"/></g><g transform="rotate(30)"><path d="M 0 225.21864134618747 L 0 292.7842337500437"/></g><g transform="rotate(60)"><path d="M 0 225.21864134618747 L 0 292.7842337500437"/></g><g transform="rotate(90)"><path d="M 0 225.21864134618747 L 0 292.7842337500437"/></g><g transform="rotate(120)"><path d="M 0 225.21864134618747 L 0 292.7842337500437"/></g><g transform="rotate(150)"><path d="M 0 225.21864134618747 L 0 292.7842337500437"/></g><g transform="rotate(180)"><path d="M 0 225.21864134618747 L 0 292.7842337500437"/></g><g transform="rotate(210)"><path d="M 0 225.21864134618747 L 0 292.7842337500437"/></g><g transform="rotate(240)"><path d="M 0 225.21864134618747 L 0 292.7842337500437"/></g><g transform="rotate(270)"><path d="M 0 225.21864134618747 L 0 292.7842337500437"/></g><g transform="rotate(300)"><path d="M 0 225.21864134618747 L 0 292.7842337500437"/></g><g transform="rotate(330)"><path d="M 0 225.21864134618747 L 0 292.7842337500437"/></g><g transform="rotate(0)"><path d="M -70.96945497523328 283.8778199009331 Q 0 340.65338388111974 70.96945497523328 283.8778199009331"/></g><g transform="rotate(30)"><path d="M -70.96945497523328 283.8778199009331 Q 0 340.65338388111974 70.96945497523328 283.8778199009331"/></g><g transform="rotate(60)"><path d="M -70.96945497523328 283.8778199009331 Q 0 340.65338388111974 70.96945497523328 283.8778199009331"/></g><g transform="rotate(90)"><path d="M -70.96945497523328 283.8778199009331 Q 0 340.65338388111974 70.96945497523328 283.8778199009331"/></g><g transform="rotate(120)"><path d="M -70.96945497523328 283.8778199009331 Q 0 340.65338388111974 70.96945497523328 283.8778199009331"/></g><g transform="rotate(150)"><path d="M -70.96945497523328 283.8778199009331 Q 0 340.65338388111974 70.96945497523328 283.8778199009331"/></g><g transform="rotate(180)"><path d="M -70.96945497523328 283.8778199009331 Q 0 340.65338388111974 70.96945497523328 283.8778199009331"/></g><g transform="rotate(210)"><path d="M -70.96945497523328 283.8778199009331 Q 0 340.65338388111974 70.96945497523328 283.8778199009331"/></g><g transform="rotate(240)"><path d="M -70.96945497523328 283.8778199009331 Q 0 340.65338388111974 70.96945497523328 283.8778199009331"/></g><g transform="rotate(270)"><path d="M -70.96945497523328 283.8778199009331 Q 0 340.65338388111974 70.96945497523328 283.8778199009331"/></g><g transform="rotate(300)"><path d="M -70.96945497523328 283.8778199009331 Q 0 340.65338388111974 70.96945497523328 283.8778199009331"/></g><g transform="rotate(330)"><path d="M -70.96945497523328 283.8778199009331 Q 0 340.65338388111974 70.96945497523328 283.8778199009331"/></g><g transform="rotate(0)"><path d="M 0 314.7066976030224 Q 104.9022325343408 377.64803712362686 0 472.06004640453364 Q -104.9022325343408 377.64803712362686 0 314.7066976030224"/></g><g transform="rotate(30)"><path d="M 0 314.7066976030224 Q 104.9022325343408 377.64803712362686 0 472.06004640453364 Q -104.9022325343408 377.64803712362686 0 314.7066976030224"/></g><g transform="rotate(60)"><path d="M 0 314.7066976030224 Q 104.9022325343408 377.64803712362686 0 472.06004640453364 Q -104.9022325343408 377.64803712362686 0 314.7066976030224"/></g><g transform="rotate(90)"><path d="M 0 314.7066976030224 Q 104.9022325343408 377.64803712362686 0 472.06004640453364 Q -104.9022325343408 377.64803712362686 0 314.7066976030224"/></g><g transform="rotate(120)"><path d="M 0 314.7066976030224 Q 104.9022325343408 377.64803712362686 0 472.06004640453364 Q -104.9022325343408 377.64803712362686 0 314.7066976030224"/></g><g transform="rotate(150)"><path d="M 0 314.7066976030224 Q 104.9022325343408 377.64803712362686 0 472.06004640453364 Q -104.9022325343408 377.64803712362686 0 314.7066976030224"/></g><g transform="rotate(180)"><path d="M 0 314.7066976030224 Q 104.9022325343408 377.64803712362686 0 472.06004640453364 Q -104.9022325343408 377.64803712362686 0 314.7066976030224"/></g><g transform="rotate(210)"><path d="M 0 314.7066976030224 Q 104.9022325343408 377.64803712362686 0 472.06004640453364 Q -104.9022325343408 377.64803712362686 0 314.7066976030224"/></g><g transform="rotate(240)"><path d="M 0 314.7066976030224 Q 104.9022325343408 377.64803712362686 0 472.06004640453364 Q -104.9022325343408 377.64803712362686 0 314.7066976030224"/></g><g transform="rotate(270)"><path d="M 0 314.7066976030224 Q 104.9022325343408 377.64803712362686 0 472.06004640453364 Q -104.9022325343408 377.64803712362686 0 314.7066976030224"/></g><g transform="rotate(300)"><path d="M 0 314.7066976030224 Q 104.9022325343408 377.64803712362686 0 472.06004640453364 Q -104.9022325343408 377.64803712362686 0 314.7066976030224"/></g><g transform="rotate(330)"><path d="M 0 314.7066976030224 Q 104.9022325343408 377.64803712362686 0 472.06004640453364 Q -104.9022325343408 377.64803712362686 0 314.7066976030224"/></g></g></svg>