<svg xmlns="http://www.w3.org/2000/svg" viewBox="0 0 800 800" width="800" height="800">
    <rect width="100%" height="100%" fill="white"/>
    <g transform="translate(400, 400)" fill="none" stroke="black" stroke-width="4" stroke-linecap="round" stroke-linejoin="round"><g transform="rotate(0)"><path d="M -11.33388914517127 45.33555658068508 Q 0 54.402667896822095 11.33388914517127 45.33555658068508"/></g><g transform="rotate(20)"><path d="M -11.33388914517127 45.33555658068508 Q 0 54.402667896822095 11.33388914517127 45.33555658068508"/></g><g transform="rotate(40)"><path d="M -11.33388914517127 45.33555658068508 Q 0 54.402667896822095 11.33388914517127 45.33555658068508"/></g><g transform="rotate(60)"><path d="M -11.33388914517127 45.33555658068508 Q 0 54.402667896822095 11.33388914517127 45.33555658068508"/></g><g transform="rotate(80)"><path d="M -11.33388914517127 45.33555658068508 Q 0 54.402667896822095 11.33388914517127 45.33555658068508"/></g><g transform="rotate(100)"><path d="M -11.33388914517127 45.33555658068508 Q 0 54.402667896822095 11.33388914517127 45.33555658068508"/></g><g transform="rotate(120)"><path d="M -11.33388914517127 45.33555658068508 Q 0 54.402667896822095 11.33388914517127 45.33555658068508"/></g><g transform="rotate(140)"><path d="M -11.33388914517127 45.33555658068508 Q 0 54.402667896822095 11.33388914517127 45.33555658068508"/></g><g transform="rotate(160)"><path d="M -11.33388914517127 45.33555658068508 Q 0 54.402667896822095 11.33388914517127 45.33555658068508"/></g><g transform="rotate(180)"><path d="M -11.33388914517127 45.33555658068508 Q 0 54.402667896822095 11.33388914517127 45.33555658068508"/></g><g transform="rotate(200)"><path d="M -11.33388914517127 45.33555658068508 Q 0 54.402667896822095 11.33388914517127 45.33555658068508"/></g><g transform="rotate(220)"><path d="M -11.33388914517127 45.33555658068508 Q 0 54.402667896822095 11.33388914517127 45.33555658068508"/></g><g transform="rotate(240)"><path d="M -11.33388914517127 45.33555658068508 Q 0 54.402667896822095 11.33388914517127 45.33555658068508"/></g><g transform="rotate(260)"><path d="M -11.33388914517127 45.33555658068508 Q 0 54.402667896822095 11.33388914517127 45.33555658068508"/></g><g transform="rotate(280)"><path d="M -11.33388914517127 45.33555658068508 Q 0 54.402667896822095 11.33388914517127 45.33555658068508"/></g><g transform="rotate(300)"><path d="M -11.33388914517127 45.33555658068508 Q 0 54.402667896822095 11.33388914517127 45.33555658068508"/></g><g transform="rotate(320)"><path d="M -11.33388914517127 45.33555658068508 Q 0 54.402667896822095 11.33388914517127 45.33555658068508"/></g><g transform="rotate(340)"><path d="M -11.33388914517127 45.33555658068508 Q 0 54.402667896822095 11.33388914517127 45.33555658068508"/></g><g transform="rotate(0)"><path d="M -22.17990828328766 88.71963313315064 Q 0 106.46355975978076 22.17990828328766 88.71963313315064"/></g><g transform="rotate(20)"><path d="M -22.17990828328766 88.71963313315064 Q 0 106.46355975978076 22.17990828328766 88.71963313315064"/></g><g transform="rotate(40)"><path d="M -22.17990828328766 88.71963313315064 Q 0 106.46355975978076 22.17990828328766 88.71963313315064"/></g><g transform="rotate(60)"><path d="M -22.17990828328766 88.71963313315064 Q 0 106.46355975978076 22.17990828328766 88.71963313315064"/></g><g transform="rotate(80)"><path d="M -22.17990828328766 88.71963313315064 Q 0 106.46355975978076 22.17990828328766 88.71963313315064"/></g><g transform="rotate(100)"><path d="M -22.17990828328766 88.71963313315064 Q 0 106.46355975978076 22.17990828328766 88.71963313315064"/></g><g transform="rotate(120)"><path d="M -22.17990828328766 88.71963313315064 Q 0 106.46355975978076 22.17990828328766 88.71963313315064"/></g><g transform="rotate(140)"><path d="M -22.17990828328766 88.71963313315064 Q 0 106.46355975978076 22.17990828328766 88.71963313315064"/></g><g transform="rotate(160)"><path d="M -22.17990828328766 88.71963313315064 Q 0 106.46355975978076 22.17990828328766 88.71963313315064"/></g><g transform="rotate(180)"><path d="M -22.17990828328766 88.71963313315064 Q 0 106.46355975978076 22.17990828328766 88.71963313315064"/></g><g transform="rotate(200)"><path d="M -22.17990828328766 88.71963313315064 Q 0 106.46355975978076 22.17990828328766 88.71963313315064"/></g><g transform="rotate(220)"><path d="M -22.17990828328766 88.71963313315064 Q 0 106.46355975978076 22.17990828328766 88.71963313315064"/></g><g transform="rotate(240)"><path d="M -22.17990828328766 88.71963313315064 Q 0 106.46355975978076 22.17990828328766 88.71963313315064"/></g><g transform="rotate(260)"><path d="M -22.17990828328766 88.71963313315064 Q 0 106.46355975978076 22.17990828328766 88.71963313315064"/></g><g transform="rotate(280)"><path d="M -22.17990828328766 88.71963313315064 Q 0 106.46355975978076 22.17990828328766 88.71963313315064"/></g><g transform="rotate(300)"><path d="M -22.17990828328766 88.71963313315064 Q 0 106.46355975978076 22.17990828328766 88.71963313315064"/></g><g transform="rotate(320)"><path d="M -22.17990828328766 88.71963313315064 Q 0 106.46355975978076 22.17990828328766 88.71963313315064"/></g><g transform="rotate(340)"><path d="M -22.17990828328766 88.71963313315064 Q 0 106.46355975978076 22.17990828328766 88.71963313315064"/></g><g transform="rotate(0)"><path d="M 0 132.9610576061532 L 33.2402644015383 159.55326912738383 L 0 186.14548064861447 L -33.2402644015383 159.55326912738383 Z"/></g><g transform="rotate(20)"><path d="M 0 132.9610576061532 L 33.2402644015383 159.55326912738383 L 0 186.14548064861447 L -33.2402644015383 159.55326912738383 Z"/></g><g transform="rotate(40)"><path d="M 0 132.9610576061532 L 33.2402644015383 159.55326912738383 L 0 186.14548064861447 L -33.2402644015383 159.55326912738383 Z"/></g><g transform="rotate(60)"><path d="M 0 132.9610576061532 L 33.2402644015383 159.55326912738383 L 0 186.14548064861447 L -33.2402644015383 159.55326912738383 Z"/></g><g transform="rotate(80)"><path d="M 0 132.9610576061532 L 33.2402644015383 159.55326912738383 L 0 186.14548064861447 L -33.2402644015383 159.55326912738383 Z"/></g><g transform="rotate(100)"><path d="M 0 132.9610576061532 L 33.2402644015383 159.55326912738383 L 0 186.14548064861447 L -33.2402644015383 159.55326912738383 Z"/></g><g transform="rotate(120)"><path d="M 0 132.9610576061532 L 33.2402644015383 159.55326912738383 L 0 186.14548064861447 L -33.2402644015383 159.55326912738383 Z"/></g><g transform="rotate(140)"><path d="M 0 132.9610576061532 L 33.2402644015383 159.55326912738383 L 0 186.14548064861447 L -33.2402644015383 159.55326912738383 Z"/></g><g transform="rotate(160)"><path d="M 0 132.9610576061532 L 33.2402644015383 159.55326912738383 L 0 186.14548064861447 L -33.2402644015383 159.55326912738383 Z"/></g><g transform="rotate(180)"><path d="M 0 132.9610576061532 L 33.2402644015383 159.55326912738383 L 0 186.14548064861447 L -33.2402644015383 159.55326912738383 Z"/></g><g transform="rotate(200)"><path d="M 0 132.9610576061532 L 33.2402644015383 159.55326912738383 L 0 186.14548064861447 L -33.2402644015383 159.55326912738383 Z"/></g><g transform="rotate(220)"><path d="M 0 132.9610576061532 L 33.2402644015383 159.55326912738383 L 0 186.14548064861447 L -33.2402644015383 159.55326912738383 Z"/></g><g transform="rotate(240)"><path d="M 0 132.9610576061532 L 33.2402644015383 159.55326912738383 L 0 186.14548064861447 L -33.2402644015383 159.55326912738383 Z"/></g><g transform="rotate(260)"><path d="M 0 132.9610576061532 L 33.2402644015383 159.55326912738383 L 0 186.14548064861447 L -33.2402644015383 159.55326912738383 Z"/></g><g transform="rotate(280)"><path d="M 0 132.9610576061532 L 33.2402644015383 159.55326912738383 L 0 186.14548064861447 L -33.2402644015383 159.55326912738383 Z"/></g><g transform="rotate(300)"><path d="M 0 132.9610576061532 L 33.2402644015383 159.55326912738383 L 0 186.14548064861447 L -33.2402644015383 159.55326912738383 Z"/></g><g transform="rotate(320)"><path d="M 0 132.9610576061532 L 33.2402644015383 159.55326912738383 L 0 186.14548064861447 L -33.2402644015383 159.55326912738383 Z"/></g><g transform="rotate(340)"><path d="M 0 132.9610576061532 L 33.2402644015383 159.55326912738383 L 0 186.14548064861447 L -33.2402644015383 159.55326912738383 Z"/></g><g transform="rotate(0)"><path d="M 0 173.68844263721257 L 0 225.79497542837635"/></g><g transform="rotate(20)"><path d="M 0 173.68844263721257 L 0 225.79497542837635"/></g><g transform="rotate(40)"><path d="M 0 173.68844263721257 L 0 225.79497542837635"/></g><g transform="rotate(60)"><path d="M 0 173.68844263721257 L 0 225.79497542837635"/></g><g transform="rotate(80)"><path d="M 0 173.68844263721257 L 0 225.79497542837635"/></g><g transform="rotate(100)"><path d="M 0 173.68844263721257 L 0 225.79497542837635"/></g><g transform="rotate(120)"><path d="M 0 173.68844263721257 L 0 225.79497542837635"/></g><g transform="rotate(140)"><path d="M 0 173.68844263721257 L 0 225.79497542837635"/></g><g transform="rotate(160)"><path d="M 0 173.68844263721257 L 0 225.79497542837635"/></g><g transform="rotate(180)"><path d="M 0 173.68844263721257 L 0 225.79497542837635"/></g><g transform="rotate(200)"><path d="M 0 173.68844263721257 L 0 225.79497542837635"/></g><g transform="rotate(220)"><path d="M 0 173.68844263721257 L 0 225.79497542837635"/></g><g transform="rotate(240)"><path d="M 0 173.68844263721257 L 0 225.79497542837635"/></g><g transform="rotate(260)"><path d="M 0 173.68844263721257 L 0 225.79497542837635"/></g><g transform="rotate(280)"><path d="M 0 173.68844263721257 L 0 225.79497542837635"/></g><g transform="rotate(300)"><path d="M 0 173.68844263721257 L 0 225.79497542837635"/></g><g transform="rotate(320)"><path d="M 0 173.68844263721257 L 0 225.79497542837635"/></g><g transform="rotate(340)"><path d="M 0 173.68844263721257 L 0 225.79497542837635"/></g><g transform="rotate(0)"><path d="M -51.41491570859216 205.65966283436865 Q 0 246.79159540124238 51.41491570859216 205.65966283436865"/></g><g transform="rotate(20)"><path d="M -51.41491570859216 205.65966283436865 Q 0 246.79159540124238 51.41491570859216 205.65966283436865"/></g><g transform="rotate(40)"><path d="M -51.41491570859216 205.65966283436865 Q 0 246.79159540124238 51.41491570859216 205.65966283436865"/></g><g transform="rotate(60)"><path d="M -51.41491570859216 205.65966283436865 Q 0 246.79159540124238 51.41491570859216 205.65966283436865"/></g><g transform="rotate(80)"><path d="M -51.41491570859216 205.65966283436865 Q 0 246.79159540124238 51.41491570859216 205.65966283436865"/></g><g transform="rotate(100)"><path d="M -51.41491570859216 205.65966283436865 Q 0 246.79159540124238 51.41491570859216 205.65966283436865"/></g><g transform="rotate(120)"><path d="M -51.41491570859216 205.65966283436865 Q 0 246.79159540124238 51.41491570859216 205.65966283436865"/></g><g transform="rotate(140)"><path d="M -51.41491570859216 205.65966283436865 Q 0 246.79159540124238 51.41491570859216 205.65966283436865"/></g><g transform="rotate(160)"><path d="M -51.41491570859216 205.65966283436865 Q 0 246.79159540124238 51.41491570859216 205.65966283436865"/></g><g transform="rotate(180)"><path d="M -51.41491570859216 205.65966283436865 Q 0 246.79159540124238 51.41491570859216 205.65966283436865"/></g><g transform="rotate(200)"><path d="M -51.41491570859216 205.65966283436865 Q 0 246.79159540124238 51.41491570859216 205.65966283436865"/></g><g transform="rotate(220)"><path d="M -51.41491570859216 205.65966283436865 Q 0 246.79159540124238 51.41491570859216 205.65966283436865"/></g><g transform="rotate(240)"><path d="M -51.41491570859216 205.65966283436865 Q 0 246.79159540124238 51.41491570859216 205.65966283436865"/></g><g transform="rotate(260)"><path d="M -51.41491570859216 205.65966283436865 Q 0 246.79159540124238 51.41491570859216 205.65966283436865"/></g><g transform="rotate(280)"><path d="M -51.41491570859216 205.65966283436865 Q 0 246.79159540124238 51.41491570859216 205.65966283436865"/></g><g transform="rotate(300)"><path d="M -51.41491570859216 205.65966283436865 Q 0 246.79159540124238 51.41491570859216 205.65966283436865"/></g><g transform="rotate(320)"><path d="M -51.41491570859216 205.65966283436865 Q 0 246.79159540124238 51.41491570859216 205.65966283436865"/></g><g transform="rotate(340)"><path d="M -51.41491570859216 205.65966283436865 Q 0 246.79159540124238 51.41491570859216 205.65966283436865"/></g><g transform="rotate(0)"><circle cx="0" cy="246.35579551104456" r="61.58894887776114"/></g><g transform="rotate(20)"><circle cx="0" cy="246.35579551104456" r="61.58894887776114"/></g><g transform="rotate(40)"><circle cx="0" cy="246.35579551104456" r="61.58894887776114"/></g><g transform="rotate(60)"><circle cx="0" cy="246.35579551104456" r="61.58894887776114"/></g><g transform="rotate(80)"><circle cx="0" cy="246.35579551104456" r="61.58894887776114"/></g><g transform="rotate(100)"><circle cx="0" cy="246.35579551104456" r="61.58894887776114"/></g><g transform="rotate(120)"><circle cx="0" cy="246.35579551104456" r="61.58894887776114"/></g><g transform="rotate(140)"><circle cx="0" cy="246.35579551104456" r="61.58894887776114"/></g><g transform="rotate(160)"><circle cx="0" cy="246.35579551104456" r="61.58894887776114"/></g><g transform="rotate(180)"><circle cx="0" cy="246.35579551104456" r="61.58894887776114"/></g><g transform="rotate(200)"><circle cx="0" cy="246.35579551104456" r="61.58894887776114"/></g><g transform="rotate(220)"><circle cx="0" cy="246.35579551104456" r="61.58894887776114"/></g><g transform="rotate(240)"><circle cx="0" cy="246.35579551104456" r="61.58894887776114"/></g><g transform="rotate(260)"><circle cx="0" cy="246.35579551104456" r="61.58894887776114"/></g><g transform="rotate(280)"><circle cx="0" cy="246.35579551104456" r="61.58894887776114"/></g><g transform="rotate(300)"><circle cx="0" cy="246.35579551104456" r="61.58894887776114"/></g><g transform="rotate(320)"><circle cx="0" cy="246.35579551104456" r="61.58894887776114"/></g><g transform="rotate(340)"><circle cx="0" cy="246.35579551104456" r="61.58894887776114"/></g><g transform="rotate(0)"><path d="M 0 287.8492923779413 L 71.96232309448533 345.4191508535296 L 0 402.98900932911783 L -71.96232309448533 345.4191508535296 Z"/></g><g transform="rotate(20)"><path d="M 0 287.8492923779413 L 71.96232309448533 345.4191508535296 L 0 402.98900932911783 L -71.96232309448533 345.4191508535296 Z"/></g><g transform="rotate(40)"><path d="M 0 287.8492923779413 L 71.96232309448533 345.4191508535296 L 0 402.98900932911783 L -71.96232309448533 345.4191508535296 Z"/></g><g transform="rotate(60)"><path d="M 0 287.8492923779413 L 71.96232309448533 345.4191508535296 L 0 402.98900932911783 L -71.96232309448533 345.4191508535296 Z"/></g><g transform="rotate(80)"><path d="M 0 287.8492923779413 L 71.96232309448533 345.4191508535296 L 0 402.98900932911783 L -71.96232309448533 345.4191508535296 Z"/></g><g transform="rotate(100)"><path d="M 0 287.8492923779413 L 71.96232309448533 345.4191508535296 L 0 402.98900932911783 L -71.96232309448533 345.4191508535296 Z"/></g><g transform="rotate(120)"><path d="M 0 287.8492923779413 L 71.96232309448533 345.4191508535296 L 0 402.98900932911783 L -71.96232309448533 345.4191508535296 Z"/></g><g transform="rotate(140)"><path d="M 0 287.8492923779413 L 71.96232309448533 345.4191508535296 L 0 402.98900932911783 L -71.96232309448533 345.4191508535296 Z"/></g><g transform="rotate(160)"><path d="M 0 287.8492923779413 L 71.96232309448533 345.4191508535296 L 0 402.98900932911783 L -71.96232309448533 345.4191508535296 Z"/></g><g transform="rotate(180)"><path d="M 0 287.8492923779413 L 71.96232309448533 345.4191508535296 L 0 402.98900932911783 L -71.96232309448533 345.4191508535296 Z"/></g><g transform="rotate(200)"><path d="M 0 287.8492923779413 L 71.96232309448533 345.4191508535296 L 0 402.98900932911783 L -71.96232309448533 345.4191508535296 Z"/></g><g transform="rotate(220)"><path d="M 0 287.8492923779413 L 71.96232309448533 345.4191508535296 L 0 402.98900932911783 L -71.96232309448533 345.4191508535296 Z"/></g><g transform="rotate(240)"><path d="M 0 287.8492923779413 L 71.96232309448533 345.4191508535296 L 0 402.98900932911783 L -71.96232309448533 345.4191508535296 Z"/></g><g transform="rotate(260)"><path d="M 0 287.8492923779413 L 71.96232309448533 345.4191508535296 L 0 402.98900932911783 L -71.96232309448533 345.4191508535296 Z"/></g><g transform="rotate(280)"><path d="M 0 287.8492923779413 L 71.96232309448533 345.4191508535296 L 0 402.98900932911783 L -71.96232309448533 345.4191508535296 Z"/></g><g transform="rotate(300)"><path d="M 0 287.8492923779413 L 71.96232309448533 345.4191508535296 L 0 402.98900932911783 L -71.96232309448533 345.4191508535296 Z"/></g><g transform="rotate(320)"><path d="M 0 287.8492923779413 L 71.96232309448533 345.4191508535296 L 0 402.98900932911783 L -71.96232309448533 345.4191508535296 Z"/></g><g transform="rotate(340)"><path d="M 0 287.8492923779413 L 71.96232309448533 345.4191508535296 L 0 402.98900932911783 L -71.96232309448533 345.4191508535296 Z"/></g><g transform="rotate(0)"><path d="M -80.42617074330337 321.7046829732135 Q 0 386.0456195678562 80.42617074330337 321.7046829732135"/></g><g transform="rotate(20)"><path d="M -80.42617074330337 321.7046829732135 Q 0 386.0456195678562 80.42617074330337 321.7046829732135"/></g><g transform="rotate(40)"><path d="M -80.42617074330337 321.7046829732135 Q 0 386.0456195678562 80.42617074330337 321.7046829732135"/></g><g transform="rotate(60)"><path d="M -80.42617074330337 321.7046829732135 Q 0 386.0456195678562 80.42617074330337 321.7046829732135"/></g><g transform="rotate(80)"><path d="M -80.42617074330337 321.7046829732135 Q 0 386.0456195678562 80.42617074330337 321.7046829732135"/></g><g transform="rotate(100)"><path d="M -80.42617074330337 321.7046829732135 Q 0 386.0456195678562 80.42617074330337 321.7046829732135"/></g><g transform="rotate(120)"><path d="M -80.42617074330337 321.7046829732135 Q 0 386.0456195678562 80.42617074330337 321.7046829732135"/></g><g transform="rotate(140)"><path d="M -80.42617074330337 321.7046829732135 Q 0 386.0456195678562 80.42617074330337 321.7046829732135"/></g><g transform="rotate(160)"><path d="M -80.42617074330337 321.7046829732135 Q 0 386.0456195678562 80.42617074330337 321.7046829732135"/></g><g transform="rotate(180)"><path d="M -80.42617074330337 321.7046829732135 Q 0 386.0456195678562 80.42617074330337 321.7046829732135"/></g><g transform="rotate(200)"><path d="M -80.42617074330337 321.7046829732135 Q 0 386.0456195678562 80.42617074330337 321.7046829732135"/></g><g transform="rotate(220)"><path d="M -80.42617074330337 321.7046829732135 Q 0 386.0456195678562 80.42617074330337 321.7046829732135"/></g><g transform="rotate(240)"><path d="M -80.42617074330337 321.7046829732135 Q 0 386.0456195678562 80.42617074330337 321.7046829732135"/></g><g transform="rotate(260)"><path d="M -80.42617074330337 321.7046829732135 Q 0 386.0456195678562 80.42617074330337 321.7046829732135"/></g><g transform="rotate(280)"><path d="M -80.42617074330337 321.7046829732135 Q 0 386.0456195678562 80.42617074330337 321.7046829732135"/></g><g transform="rotate(300)"><path d="M -80.42617074330337 321.7046829732135 Q 0 386.0456195678562 80.42617074330337 321.7046829732135"/></g><g transform="rotate(320)"><path d="M -80.42617074330337 321.7046829732135 Q 0 386.0456195678562 80.42617074330337 321.7046829732135"/></g><g transform="rotate(340)"><path d="M -80.42617074330337 321.7046829732135 Q 0 386.0456195678562 80.42617074330337 321.7046829732135"/></g></g></svg>