<svg xmlns="http://www.w3.org/2000/svg" viewBox="0 0 800 800" width="800" height="800">
    <rect width="100%" height="100%" fill="white"/>
    <g transform="translate(400, 400)" fill="none" stroke="black" stroke-width="4" stroke-linecap="round" stroke-linejoin="round"><g transform="rotate(0)"><path d="M 0 52.374913189560175 L 0 68.08738714642823"/></g><g transform="rotate(20)"><path d="M 0 52.374913189560175 L 0 68.08738714642823"/></g><g transform="rotate(40)"><path d="M 0 52.374913189560175 L 0 68.08738714642823"/></g><g transform="rotate(60)"><path d="M 0 52.374913189560175 L 0 68.08738714642823"/></g><g transform="rotate(80)"><path d="M 0 52.374913189560175 L 0 68.08738714642823"/></g><g transform="rotate(100)"><path d="M 0 52.374913189560175 L 0 68.08738714642823"/></g><g transform="rotate(120)"><path d="M 0 52.374913189560175 L 0 68.08738714642823"/></g><g transform="rotate(140)"><path d="M 0 52.374913189560175 L 0 68.08738714642823"/></g><g transform="rotate(160)"><path d="M 0 52.374913189560175 L 0 68.08738714642823"/></g><g transform="rotate(180)"><path d="M 0 52.374913189560175 L 0 68.08738714642823"/></g><g transform="rotate(200)"><path d="M 0 52.374913189560175 L 0 68.08738714642823"/></g><g transform="rotate(220)"><path d="M 0 52.374913189560175 L 0 68.08738714642823"/></g><g transform="rotate(240)"><path d="M 0 52.374913189560175 L 0 68.08738714642823"/></g><g transform="rotate(260)"><path d="M 0 52.374913189560175 L 0 68.08738714642823"/></g><g transform="rotate(280)"><path d="M 0 52.374913189560175 L 0 68.08738714642823"/></g><g transform="rotate(300)"><path d="M 0 52.374913189560175 L 0 68.08738714642823"/></g><g transform="rotate(320)"><path d="M 0 52.374913189560175 L 0 68.08738714642823"/></g><g transform="rotate(340)"><path d="M 0 52.374913189560175 L 0 68.08738714642823"/></g><g transform="rotate(0)"><path d="M -24.890559484095625 99.5622379363825 Q 0 119.47468552365899 24.890559484095625 99.5622379363825"/></g><g transform="rotate(20)"><path d="M -24.890559484095625 99.5622379363825 Q 0 119.47468552365899 24.890559484095625 99.5622379363825"/></g><g transform="rotate(40)"><path d="M -24.890559484095625 99.5622379363825 Q 0 119.47468552365899 24.890559484095625 99.5622379363825"/></g><g transform="rotate(60)"><path d="M -24.890559484095625 99.5622379363825 Q 0 119.47468552365899 24.890559484095625 99.5622379363825"/></g><g transform="rotate(80)"><path d="M -24.890559484095625 99.5622379363825 Q 0 119.47468552365899 24.890559484095625 99.5622379363825"/></g><g transform="rotate(100)"><path d="M -24.890559484095625 99.5622379363825 Q 0 119.47468552365899 24.890559484095625 99.5622379363825"/></g><g transform="rotate(120)"><path d="M -24.890559484095625 99.5622379363825 Q 0 119.47468552365899 24.890559484095625 99.5622379363825"/></g><g transform="rotate(140)"><path d="M -24.890559484095625 99.5622379363825 Q 0 119.47468552365899 24.890559484095625 99.5622379363825"/></g><g transform="rotate(160)"><path d="M -24.890559484095625 99.5622379363825 Q 0 119.47468552365899 24.890559484095625 99.5622379363825"/></g><g transform="rotate(180)"><path d="M -24.890559484095625 99.5622379363825 Q 0 119.47468552365899 24.890559484095625 99.5622379363825"/></g><g transform="rotate(200)"><path d="M -24.890559484095625 99.5622379363825 Q 0 119.47468552365899 24.890559484095625 99.5622379363825"/></g><g transform="rotate(220)"><path d="M -24.890559484095625 99.5622379363825 Q 0 119.47468552365899 24.890559484095625 99.5622379363825"/></g><g transform="rotate(240)"><path d="M -24.890559484095625 99.5622379363825 Q 0 119.47468552365899 24.890559484095625 99.5622379363825"/></g><g transform="rotate(260)"><path d="M -24.890559484095625 99.5622379363825 Q 0 119.47468552365899 24.890559484095625 99.5622379363825"/></g><g transform="rotate(280)"><path d="M -24.890559484095625 99.5622379363825 Q 0 119.47468552365899 24.890559484095625 99.5622379363825"/></g><g transform="rotate(300)"><path d="M -24.890559484095625 99.5622379363825 Q 0 119.47468552365899 24.890559484095625 99.5622379363825"/></g><g transform="rotate(320)"><path d="M -24.890559484095625 99.5622379363825 Q 0 119.47468552365899 24.890559484095625 99.5622379363825"/></g><g transform="rotate(340)"><path d="M -24.890559484095625 99.5622379363825 Q 0 119.47468552365899 24.890559484095625 99.5622379363825"/></g><g transform="rotate(0)"><path d="M 0 160.92100782940787 L 40.23025195735197 193.10520939528945 L 0 225.289410961171 L -40.23025195735197 193.10520939528945 Z"/></g><g transform="rotate(20)"><path d="M 0 160.92100782940787 L 40.23025195735197 193.10520939528945 L 0 225.289410961171 L -40.23025195735197 193.10520939528945 Z"/></g><g transform="rotate(40)"><path d="M 0 160.92100782940787 L 40.23025195735197 193.10520939528945 L 0 225.289410961171 L -40.23025195735197 193.10520939528945 Z"/></g><g transform="rotate(60)"><path d="M 0 160.92100782940787 L 40.23025195735197 193.10520939528945 L 0 225.289410961171 L -40.23025195735197 193.10520939528945 Z"/></g><g transform="rotate(80)"><path d="M 0 160.92100782940787 L 40.23025195735197 193.10520939528945 L 0 225.289410961171 L -40.23025195735197 193.10520939528945 Z"/></g><g transform="rotate(100)"><path d="M 0 160.92100782940787 L 40.23025195735197 193.10520939528945 L 0 225.289410961171 L -40.23025195735197 193.10520939528945 Z"/></g><g transform="rotate(120)"><path d="M 0 160.92100782940787 L 40.23025195735197 193.10520939528945 L 0 225.289410961171 L -40.23025195735197 193.10520939528945 Z"/></g><g transform="rotate(140)"><path d="M 0 160.92100782940787 L 40.23025195735197 193.10520939528945 L 0 225.289410961171 L -40.23025195735197 193.10520939528945 Z"/></g><g transform="rotate(160)"><path d="M 0 160.92100782940787 L 40.23025195735197 193.10520939528945 L 0 225.289410961171 L -40.23025195735197 193.10520939528945 Z"/></g><g transform="rotate(180)"><path d="M 0 160.92100782940787 L 40.23025195735197 193.10520939528945 L 0 225.289410961171 L -40.23025195735197 193.10520939528945 Z"/></g><g transform="rotate(200)"><path d="M 0 160.92100782940787 L 40.23025195735197 193.10520939528945 L 0 225.289410961171 L -40.23025195735197 193.10520939528945 Z"/></g><g transform="rotate(220)"><path d="M 0 160.92100782940787 L 40.23025195735197 193.10520939528945 L 0 225.289410961171 L -40.23025195735197 193.10520939528945 Z"/></g><g transform="rotate(240)"><path d="M 0 160.92100782940787 L 40.23025195735197 193.10520939528945 L 0 225.289410961171 L -40.23025195735197 193.10520939528945 Z"/></g><g transform="rotate(260)"><path d="M 0 160.92100782940787 L 40.23025195735197 193.10520939528945 L 0 225.289410961171 L -40.23025195735197 193.10520939528945 Z"/></g><g transform="rotate(280)"><path d="M 0 160.92100782940787 L 40.23025195735197 193.10520939528945 L 0 225.289410961171 L -40.23025195735197 193.10520939528945 Z"/></g><g transform="rotate(300)"><path d="M 0 160.92100782940787 L 40.23025195735197 193.10520939528945 L 0 225.289410961171 L -40.23025195735197 193.10520939528945 Z"/></g><g transform="rotate(320)"><path d="M 0 160.92100782940787 L 40.23025195735197 193.10520939528945 L 0 225.289410961171 L -40.23025195735197 193.10520939528945 Z"/></g><g transform="rotate(340)"><path d="M 0 160.92100782940787 L 40.23025195735197 193.10520939528945 L 0 225.289410961171 L -40.23025195735197 193.10520939528945 Z"/></g><g transform="rotate(0)"><path d="M -51.82744457619265 207.3097783047706 Q 0 248.7717339657247 51.82744457619265 207.3097783047706"/></g><g transform="rotate(20)"><path d="M -51.82744457619265 207.3097783047706 Q 0 248.7717339657247 51.82744457619265 207.3097783047706"/></g><g transform="rotate(40)"><path d="M -51.82744457619265 207.3097783047706 Q 0 248.7717339657247 51.82744457619265 207.3097783047706"/></g><g transform="rotate(60)"><path d="M -51.82744457619265 207.3097783047706 Q 0 248.7717339657247 51.82744457619265 207.3097783047706"/></g><g transform="rotate(80)"><path d="M -51.82744457619265 207.3097783047706 Q 0 248.7717339657247 51.82744457619265 207.3097783047706"/></g><g transform="rotate(100)"><path d="M -51.82744457619265 207.3097783047706 Q 0 248.7717339657247 51.82744457619265 207.3097783047706"/></g><g transform="rotate(120)"><path d="M -51.82744457619265 207.3097783047706 Q 0 248.7717339657247 51.82744457619265 207.3097783047706"/></g><g transform="rotate(140)"><path d="M -51.82744457619265 207.3097783047706 Q 0 248.7717339657247 51.82744457619265 207.3097783047706"/></g><g transform="rotate(160)"><path d="M -51.82744457619265 207.3097783047706 Q 0 248.7717339657247 51.82744457619265 207.3097783047706"/></g><g transform="rotate(180)"><path d="M -51.82744457619265 207.3097783047706 Q 0 248.7717339657247 51.82744457619265 207.3097783047706"/></g><g transform="rotate(200)"><path d="M -51.82744457619265 207.3097783047706 Q 0 248.7717339657247 51.82744457619265 207.3097783047706"/></g><g transform="rotate(220)"><path d="M -51.82744457619265 207.3097783047706 Q 0 248.7717339657247 51.82744457619265 207.3097783047706"/></g><g transform="rotate(240)"><path d="M -51.82744457619265 207.3097783047706 Q 0 248.7717339657247 51.82744457619265 207.3097783047706"/></g><g transform="rotate(260)"><path d="M -51.82744457619265 207.3097783047706 Q 0 248.7717339657247 51.82744457619265 207.3097783047706"/></g><g transform="rotate(280)"><path d="M -51.82744457619265 207.3097783047706 Q 0 248.7717339657247 51.82744457619265 207.3097783047706"/></g><g transform="rotate(300)"><path d="M -51.82744457619265 207.3097783047706 Q 0 248.7717339657247 51.82744457619265 207.3097783047706"/></g><g transform="rotate(320)"><path d="M -51.82744457619265 207.3097783047706 Q 0 248.7717339657247 51.82744457619265 207.3097783047706"/></g><g transform="rotate(340)"><path d="M -51.82744457619265 207.3097783047706 Q 0 248.7717339657247 51.82744457619265 207.3097783047706"/></g><g transform="rotate(0)"><path d="M 0 256.70954990511143 Q 85.56984996837048 308.0514598861337 0 385.06432485766715 Q -85.56984996837048 308.0514598861337 0 256.70954990511143"/></g><g transform="rotate(20)"><path d="M 0 256.70954990511143 Q 85.56984996837048 308.0514598861337 0 385.06432485766715 Q -85.56984996837048 308.0514598861337 0 256.70954990511143"/></g><g transform="rotate(40)"><path d="M 0 256.70954990511143 Q 85.56984996837048 308.0514598861337 0 385.06432485766715 Q -85.56984996837048 308.0514598861337 0 256.70954990511143"/></g><g transform="rotate(60)"><path d="M 0 256.70954990511143 Q 85.56984996837048 308.0514598861337 0 385.06432485766715 Q -85.56984996837048 308.0514598861337 0 256.70954990511143"/></g><g transform="rotate(80)"><path d="M 0 256.70954990511143 Q 85.56984996837048 308.0514598861337 0 385.06432485766715 Q -85.56984996837048 308.0514598861337 0 256.70954990511143"/></g><g transform="rotate(100)"><path d="M 0 256.70954990511143 Q 85.56984996837048 308.0514598861337 0 385.06432485766715 Q -85.56984996837048 308.0514598861337 0 256.70954990511143"/></g><g transform="rotate(120)"><path d="M 0 256.70954990511143 Q 85.56984996837048 308.0514598861337 0 385.06432485766715 Q -85.56984996837048 308.0514598861337 0 256.70954990511143"/></g><g transform="rotate(140)"><path d="M 0 256.70954990511143 Q 85.56984996837048 308.0514598861337 0 385.06432485766715 Q -85.56984996837048 308.0514598861337 0 256.70954990511143"/></g><g transform="rotate(160)"><path d="M 0 256.70954990511143 Q 85.56984996837048 308.0514598861337 0 385.06432485766715 Q -85.56984996837048 308.0514598861337 0 256.70954990511143"/></g><g transform="rotate(180)"><path d="M 0 256.70954990511143 Q 85.56984996837048 308.0514598861337 0 385.06432485766715 Q -85.56984996837048 308.0514598861337 0 256.70954990511143"/></g><g transform="rotate(200)"><path d="M 0 256.70954990511143 Q 85.56984996837048 308.0514598861337 0 385.06432485766715 Q -85.56984996837048 308.0514598861337 0 256.70954990511143"/></g><g transform="rotate(220)"><path d="M 0 256.70954990511143 Q 85.56984996837048 308.0514598861337 0 385.06432485766715 Q -85.56984996837048 308.0514598861337 0 256.70954990511143"/></g><g transform="rotate(240)"><path d="M 0 256.70954990511143 Q 85.56984996837048 308.0514598861337 0 385.06432485766715 Q -85.56984996837048 308.0514598861337 0 256.70954990511143"/></g><g transform="rotate(260)"><path d="M 0 256.70954990511143 Q 85.56984996837048 308.0514598861337 0 385.06432485766715 Q -85.56984996837048 308.0514598861337 0 256.70954990511143"/></g><g transform="rotate(280)"><path d="M 0 256.70954990511143 Q 85.56984996837048 308.0514598861337 0 385.06432485766715 Q -85.56984996837048 308.0514598861337 0 256.70954990511143"/></g><g transform="rotate(300)"><path d="M 0 256.70954990511143 Q 85.56984996837048 308.0514598861337 0 385.06432485766715 Q -85.56984996837048 308.0514598861337 0 256.70954990511143"/></g><g transform="rotate(320)"><path d="M 0 256.70954990511143 Q 85.56984996837048 308.0514598861337 0 385.06432485766715 Q -85.56984996837048 308.0514598861337 0 256.70954990511143"/></g><g transform="rotate(340)"><path d="M 0 256.70954990511143 Q 85.56984996837048 308.0514598861337 0 385.06432485766715 Q -85.56984996837048 308.0514598861337 0 256.70954990511143"/></g><g transform="rotate(0)"><circle cx="0" cy="326.1216946101437" r="81.53042365253593"/></g><g transform="rotate(20)"><circle cx="0" cy="326.1216946101437" r="81.53042365253593"/></g><g transform="rotate(40)"><circle cx="0" cy="326.1216946101437" r="81.53042365253593"/></g><g transform="rotate(60)"><circle cx="0" cy="326.1216946101437" r="81.53042365253593"/></g><g transform="rotate(80)"><circle cx="0" cy="326.1216946101437" r="81.53042365253593"/></g><g transform="rotate(100)"><circle cx="0" cy="326.1216946101437" r="81.53042365253593"/></g><g transform="rotate(120)"><circle cx="0" cy="326.1216946101437" r="81.53042365253593"/></g><g transform="rotate(140)"><circle cx="0" cy="326.1216946101437" r="81.53042365253593"/></g><g transform="rotate(160)"><circle cx="0" cy="326.1216946101437" r="81.53042365253593"/></g><g transform="rotate(180)"><circle cx="0" cy="326.1216946101437" r="81.53042365253593"/></g><g transform="rotate(200)"><circle cx="0" cy="326.1216946101437" r="81.53042365253593"/></g><g transform="rotate(220)"><circle cx="0" cy="326.1216946101437" r="81.53042365253593"/></g><g transform="rotate(240)"><circle cx="0" cy="326.1216946101437" r="81.53042365253593"/></g><g transform="rotate(260)"><circle cx="0" cy="326.1216946101437" r="81.53042365253593"/></g><g transform="rotate(280)"><circle cx="0" cy="326.1216946101437" r="81.53042365253593"/></g><g transform="rotate(300)"><circle cx="0" cy="326.1216946101437" r="81.53042365253593"/></g><g transform="rotate(320)"><circle cx="0" cy="326.1216946101437" r="81.53042365253593"/></g><g transform="rotate(340)"><circle cx="0" cy="326.1216946101437" r="81.53042365253593"/></g></g></svg>