<svg xmlns="http://www.w3.org/2000/svg" viewBox="0 0 800 800" width="800" height="800">
    <rect width="100%" height="100%" fill="white"/>
    <g transform="translate(400, 400)" fill="none" stroke="black" stroke-width="4" stroke-linecap="round" stroke-linejoin="round"><g transform="rotate(0)"><path d="M 0 48.9575911173597 L 0 63.64486845256761"/></g><g transform="rotate(22.5)"><path d="M 0 48.9575911173597 L 0 63.64486845256761"/></g><g transform="rotate(45)"><path d="M 0 48.9575911173597 L 0 63.64486845256761"/></g><g transform="rotate(67.5)"><path d="M 0 48.9575911173597 L 0 63.64486845256761"/></g><g transform="rotate(90)"><path d="M 0 48.9575911173597 L 0 63.64486845256761"/></g><g transform="rotate(112.5)"><path d="M 0 48.9575911173597 L 0 63.64486845256761"/></g><g transform="rotate(135)"><path d="M 0 48.9575911173597 L 0 63.64486845256761"/></g><g transform="rotate(157.5)"><path d="M 0 48.9575911173597 L 0 63.64486845256761"/></g><g transform="rotate(180)"><path d="M 0 48.9575911173597 L 0 63.64486845256761"/></g><g transform="rotate(202.5)"><path d="M 0 48.9575911173597 L 0 63.64486845256761"/></g><g transform="rotate(225)"><path d="M 0 48.9575911173597 L 0 63.64486845256761"/></g><g transform="rotate(247.5)"><path d="M 0 48.9575911173597 L 0 63.64486845256761"/></g><g transform="rotate(270)"><path d="M 0 48.9575911173597 L 0 63.64486845256761"/></g><g transform="rotate(292.5)"><path d="M 0 48.9575911173597 L 0 63.64486845256761"/></g><g transform="rotate(315)"><path d="M 0 48.9575911173597 L 0 63.64486845256761"/></g><g transform="rotate(337.5)"><path d="M 0 48.9575911173597 L 0 63.64486845256761"/></g><g transform="rotate(0)"><path d="M 0 134.67177602928132 Q 44.89059200976044 161.60613123513758 0 202.00766404392198 Q -44.89059200976044 161.60613123513758 0 134.67177602928132"/></g><g transform="rotate(22.5)"><path d="M 0 134.67177602928132 Q 44.89059200976044 161.60613123513758 0 202.00766404392198 Q -44.89059200976044 161.60613123513758 0 134.67177602928132"/></g><g transform="rotate(45)"><path d="M 0 134.67177602928132 Q 44.89059200976044 161.60613123513758 0 202.00766404392198 Q -44.89059200976044 161.60613123513758 0 134.67177602928132"/></g><g transform="rotate(67.5)"><path d="M 0 134.67177602928132 Q 44.89059200976044 161.60613123513758 0 202.00766404392198 Q -44.89059200976044 161.60613123513758 0 134.67177602928132"/></g><g transform="rotate(90)"><path d="M 0 134.67177602928132 Q 44.89059200976044 161.60613123513758 0 202.00766404392198 Q -44.89059200976044 161.60613123513758 0 134.67177602928132"/></g><g transform="rotate(112.5)"><path d="M 0 134.67177602928132 Q 44.89059200976044 161.60613123513758 0 202.00766404392198 Q -44.89059200976044 161.60613123513758 0 134.67177602928132"/></g><g transform="rotate(135)"><path d="M 0 134.67177602928132 Q 44.89059200976044 161.60613123513758 0 202.00766404392198 Q -44.89059200976044 161.60613123513758 0 134.67177602928132"/></g><g transform="rotate(157.5)"><path d="M 0 134.67177602928132 Q 44.89059200976044 161.60613123513758 0 202.00766404392198 Q -44.89059200976044 161.60613123513758 0 134.67177602928132"/></g><g transform="rotate(180)"><path d="M 0 134.67177602928132 Q 44.89059200976044 161.60613123513758 0 202.00766404392198 Q -44.89059200976044 161.60613123513758 0 134.67177602928132"/></g><g transform="rotate(202.5)"><path d="M 0 134.67177602928132 Q 44.89059200976044 161.60613123513758 0 202.00766404392198 Q -44.89059200976044 161.60613123513758 0 134.67177602928132"/></g><g transform="rotate(225)"><path d="M 0 134.67177602928132 Q 44.89059200976044 161.60613123513758 0 202.00766404392198 Q -44.89059200976044 161.60613123513758 0 134.67177602928132"/></g><g transform="rotate(247.5)"><path d="M 0 134.67177602928132 Q 44.89059200976044 161.60613123513758 0 202.00766404392198 Q -44.89059200976044 161.60613123513758 0 134.67177602928132"/></g><g transform="rotate(270)"><path d="M 0 134.67177602928132 Q 44.89059200976044 161.60613123513758 0 202.00766404392198 Q -44.89059200976044 161.60613123513758 0 134.67177602928132"/></g><g transform="rotate(292.5)"><path d="M 0 134.67177602928132 Q 44.89059200976044 161.60613123513758 0 202.00766404392198 Q -44.89059200976044 161.60613123513758 0 134.67177602928132"/></g><g transform="rotate(315)"><path d="M 0 134.67177602928132 Q 44.89059200976044 161.60613123513758 0 202.00766404392198 Q -44.89059200976044 161.60613123513758 0 134.67177602928132"/></g><g transform="rotate(337.5)"><path d="M 0 134.67177602928132 Q 44.89059200976044 161.60613123513758 0 202.00766404392198 Q -44.89059200976044 161.60613123513758 0 134.67177602928132"/></g><g transform="rotate(0)"><path d="M 0 205.1245326595381 L 0 266.6618924573995"/></g><g transform="rotate(22.5)"><path d="M 0 205.1245326595381 L 0 266.6618924573995"/></g><g transform="rotate(45)"><path d="M 0 205.1245326595381 L 0 266.6618924573995"/></g><g transform="rotate(67.5)"><path d="M 0 205.1245326595381 L 0 266.6618924573995"/></g><g transform="rotate(90)"><path d="M 0 205.1245326595381 L 0 266.6618924573995"/></g><g transform="rotate(112.5)"><path d="M 0 205.1245326595381 L 0 266.6618924573995"/></g><g transform="rotate(135)"><path d="M 0 205.1245326595381 L 0 266.6618924573995"/></g><g transform="rotate(157.5)"><path d="M 0 205.1245326595381 L 0 266.6618924573995"/></g><g transform="rotate(180)"><path d="M 0 205.1245326595381 L 0 266.6618924573995"/></g><g transform="rotate(202.5)"><path d="M 0 205.1245326595381 L 0 266.6618924573995"/></g><g transform="rotate(225)"><path d="M 0 205.1245326595381 L 0 266.6618924573995"/></g><g transform="rotate(247.5)"><path d="M 0 205.1245326595381 L 0 266.6618924573995"/></g><g transform="rotate(270)"><path d="M 0 205.1245326595381 L 0 266.6618924573995"/></g><g transform="rotate(292.5)"><path d="M 0 205.1245326595381 L 0 266.6618924573995"/></g><g transform="rotate(315)"><path d="M 0 205.1245326595381 L 0 266.6618924573995"/></g><g transform="rotate(337.5)"><path d="M 0 205.1245326595381 L 0 266.6618924573995"/></g><g transform="rotate(0)"><path d="M 0 282.0104574179277 Q 94.0034858059759 338.4125489015132 0 423.0156861268915 Q -94.0034858059759 338.4125489015132 0 282.0104574179277"/></g><g transform="rotate(22.5)"><path d="M 0 282.0104574179277 Q 94.0034858059759 338.4125489015132 0 423.0156861268915 Q -94.0034858059759 338.4125489015132 0 282.0104574179277"/></g><g transform="rotate(45)"><path d="M 0 282.0104574179277 Q 94.0034858059759 338.4125489015132 0 423.0156861268915 Q -94.0034858059759 338.4125489015132 0 282.0104574179277"/></g><g transform="rotate(67.5)"><path d="M 0 282.0104574179277 Q 94.0034858059759 338.4125489015132 0 423.0156861268915 Q -94.0034858059759 338.4125489015132 0 282.0104574179277"/></g><g transform="rotate(90)"><path d="M 0 282.0104574179277 Q 94.0034858059759 338.4125489015132 0 423.0156861268915 Q -94.0034858059759 338.4125489015132 0 282.0104574179277"/></g><g transform="rotate(112.5)"><path d="M 0 282.0104574179277 Q 94.0034858059759 338.4125489015132 0 423.0156861268915 Q -94.0034858059759 338.4125489015132 0 282.0104574179277"/></g><g transform="rotate(135)"><path d="M 0 282.0104574179277 Q 94.0034858059759 338.4125489015132 0 423.0156861268915 Q -94.0034858059759 338.4125489015132 0 282.0104574179277"/></g><g transform="rotate(157.5)"><path d="M 0 282.0104574179277 Q 94.0034858059759 338.4125489015132 0 423.0156861268915 Q -94.0034858059759 338.4125489015132 0 282.0104574179277"/></g><g transform="rotate(180)"><path d="M 0 282.0104574179277 Q 94.0034858059759 338.4125489015132 0 423.0156861268915 Q -94.0034858059759 338.4125489015132 0 282.0104574179277"/></g><g transform="rotate(202.5)"><path d="M 0 282.0104574179277 Q 94.0034858059759 338.4125489015132 0 423.0156861268915 Q -94.0034858059759 338.4125489015132 0 282.0104574179277"/></g><g transform="rotate(225)"><path d="M 0 282.0104574179277 Q 94.0034858059759 338.4125489015132 0 423.0156861268915 Q -94.0034858059759 338.4125489015132 0 282.0104574179277"/></g><g transform="rotate(247.5)"><path d="M 0 282.0104574179277 Q 94.0034858059759 338.4125489015132 0 423.0156861268915 Q -94.0034858059759 338.4125489015132 0 282.0104574179277"/></g><g transform="rotate(270)"><path d="M 0 282.0104574179277 Q 94.0034858059759 338.4125489015132 0 423.0156861268915 Q -94.0034858059759 338.4125489015132 0 282.0104574179277"/></g><g transform="rotate(292.5)"><path d="M 0 282.0104574179277 Q 94.0034858059759 338.4125489015132 0 423.0156861268915 Q -94.0034858059759 338.4125489015132 0 282.0104574179277"/></g><g transform="rotate(315)"><path d="M 0 282.0104574179277 Q 94.0034858059759 338.4125489015132 0 423.0156861268915 Q -94.0034858059759 338.4125489015132 0 282.0104574179277"/></g><g transform="rotate(337.5)"><path d="M 0 282.0104574179277 Q 94.0034858059759 338.4125489015132 0 423.0156861268915 Q -94.0034858059759 338.4125489015132 0 282.0104574179277"/></g></g></svg>