<svg xmlns="http://www.w3.org/2000/svg" viewBox="0 0 800 800" width="800" height="800">
    <rect width="100%" height="100%" fill="white"/>
    <g transform="translate(400, 400)" fill="none" stroke="black" stroke-width="4" stroke-linecap="round" stroke-linejoin="round"><g transform="rotate(0)"><path d="M 0 46.548133911564946 L 0 60.51257408503443"/></g><g transform="rotate(60)"><path d="M 0 46.548133911564946 L 0 60.51257408503443"/></g><g transform="rotate(120)"><path d="M 0 46.548133911564946 L 0 60.51257408503443"/></g><g transform="rotate(180)"><path d="M 0 46.548133911564946 L 0 60.51257408503443"/></g><g transform="rotate(240)"><path d="M 0 46.548133911564946 L 0 60.51257408503443"/></g><g transform="rotate(300)"><path d="M 0 46.548133911564946 L 0 60.51257408503443"/></g><g transform="rotate(0)"><circle cx="0" cy="77.35574589628312" r="19.33893647407078"/></g><g transform="rotate(60)"><circle cx="0" cy="77.35574589628312" r="19.33893647407078"/></g><g transform="rotate(120)"><circle cx="0" cy="77.35574589628312" r="19.33893647407078"/></g><g transform="rotate(180)"><circle cx="0" cy="77.35574589628312" r="19.33893647407078"/></g><g transform="rotate(240)"><circle cx="0" cy="77.35574589628312" r="19.33893647407078"/></g><g transform="rotate(300)"><circle cx="0" cy="77.35574589628312" r="19.33893647407078"/></g><g transform="rotate(0)"><path d="M 0 116.66353730588324 L 0 151.66259849764822"/></g><g transform="rotate(60)"><path d="M 0 116.66353730588324 L 0 151.66259849764822"/></g><g transform="rotate(120)"><path d="M 0 116.66353730588324 L 0 151.66259849764822"/></g><g transform="rotate(180)"><path d="M 0 116.66353730588324 L 0 151.66259849764822"/></g><g transform="rotate(240)"><path d="M 0 116.66353730588324 L 0 151.66259849764822"/></g><g transform="rotate(300)"><path d="M 0 116.66353730588324 L 0 151.66259849764822"/></g><g transform="rotate(0)"><path d="M -36.742413459966585 146.96965383986634 Q 0 176.3635846078396 36.742413459966585 146.96965383986634"/></g><g transform="rotate(60)"><path d="M -36.742413459966585 146.96965383986634 Q 0 176.3635846078396 36.742413459966585 146.96965383986634"/></g><g transform="rotate(120)"><path d="M -36.742413459966585 146.96965383986634 Q 0 176.3635846078396 36.742413459966585 146.96965383986634"/></g><g transform="rotate(180)"><path d="M -36.742413459966585 146.96965383986634 Q 0 176.3635846078396 36.742413459966585 146.96965383986634"/></g><g transform="rotate(240)"><path d="M -36.742413459966585 146.96965383986634 Q 0 176.3635846078396 36.742413459966585 146.96965383986634"/></g><g transform="rotate(300)"><path d="M -36.742413459966585 146.96965383986634 Q 0 176.3635846078396 36.742413459966585 146.96965383986634"/></g><g transform="rotate(0)"><circle cx="0" cy="191.47573336234524" r="47.86893334058631"/></g><g transform="rotate(60)"><circle cx="0" cy="191.47573336234524" r="47.86893334058631"/></g><g transform="rotate(120)"><circle cx="0" cy="191.47573336234524" r="47.86893334058631"/></g><g transform="rotate(180)"><circle cx="0" cy="191.47573336234524" r="47.86893334058631"/></g><g transform="rotate(240)"><circle cx="0" cy="191.47573336234524" r="47.86893334058631"/></g><g transform="rotate(300)"><circle cx="0" cy="191.47573336234524" r="47.86893334058631"/></g><g transform="rotate(0)"><path d="M 0 228.4210504943298 L 0 296.9473656426287"/></g><g transform="rotate(60)"><path d="M 0 228.4210504943298 L 0 296.9473656426287"/></g><g transform="rotate(120)"><path d="M 0 228.4210504943298 L 0 296.9473656426287"/></g><g transform="rotate(180)"><path d="M 0 228.4210504943298 L 0 296.9473656426287"/></g><g transform="rotate(240)"><path d="M 0 228.4210504943298 L 0 296.9473656426287"/></g><g transform="rotate(300)"><path d="M 0 228.4210504943298 L 0 296.9473656426287"/></g><g transform="rotate(0)"><path d="M 0 271.32639020991826 L 0 352.7243072728937"/></g><g transform="rotate(60)"><path d="M 0 271.32639020991826 L 0 352.7243072728937"/></g><g transform="rotate(120)"><path d="M 0 271.32639020991826 L 0 352.7243072728937"/></g><g transform="rotate(180)"><path d="M 0 271.32639020991826 L 0 352.7243072728937"/></g><g transform="rotate(240)"><path d="M 0 271.32639020991826 L 0 352.7243072728937"/></g><g transform="rotate(300)"><path d="M 0 271.32639020991826 L 0 352.7243072728937"/></g><g transform="rotate(0)"><circle cx="0" cy="293.91962309264477" r="73.47990577316119"/></g><g transform="rotate(60)"><circle cx="0" cy="293.91962309264477" r="73.47990577316119"/></g><g transform="rotate(120)"><circle cx="0" cy="293.91962309264477" r="73.47990577316119"/></g><g transform="rotate(180)"><circle cx="0" cy="293.91962309264477" r="73.47990577316119"/></g><g transform="rotate(240)"><circle cx="0" cy="293.91962309264477" r="73.47990577316119"/></g><g transform="rotate(300)"><circle cx="0" cy="293.91962309264477" r="73.47990577316119"/></g><g transform="rotate(0)"><path d="M 0 329.70636115823356 L 0 428.61826950570367"/></g><g transform="rotate(60)"><path d="M 0 329.70636115823356 L 0 428.61826950570367"/></g><g transform="rotate(120)"><path d="M 0 329.70636115823356 L 0 428.61826950570367"/></g><g transform="rotate(180)"><path d="M 0 329.70636115823356 L 0 428.61826950570367"/></g><g transform="rotate(240)"><path d="M 0 329.70636115823356 L 0 428.61826950570367"/></g><g transform="rotate(300)"><path d="M 0 329.70636115823356 L 0 428.61826950570367"/></g></g></svg>