<svg xmlns="http://www.w3.org/2000/svg" viewBox="0 0 800 800" width="800" height="800">
    <rect width="100%" height="100%" fill="white"/>
    <g transform="translate(400, 400)" fill="none" stroke="black" stroke-width="4" stroke-linecap="round" stroke-linejoin="round"><g transform="rotate(0)"><circle cx="0" cy="43.63474427256733" r="10.908686068141833"/></g><g transform="rotate(60)"><circle cx="0" cy="43.63474427256733" r="10.908686068141833"/></g><g transform="rotate(120)"><circle cx="0" cy="43.63474427256733" r="10.908686068141833"/></g><g transform="rotate(180)"><circle cx="0" cy="43.63474427256733" r="10.908686068141833"/></g><g transform="rotate(240)"><circle cx="0" cy="43.63474427256733" r="10.908686068141833"/></g><g transform="rotate(300)"><circle cx="0" cy="43.63474427256733" r="10.908686068141833"/></g><g transform="rotate(0)"><path d="M -24.896458302391693 99.58583320956677 Q 0 119.50299985148013 24.896458302391693 99.58583320956677"/></g><g transform="rotate(60)"><path d="M -24.896458302391693 99.58583320956677 Q 0 119.50299985148013 24.896458302391693 99.58583320956677"/></g><g transform="rotate(120)"><path d="M -24.896458302391693 99.58583320956677 Q 0 119.50299985148013 24.896458302391693 99.58583320956677"/></g><g transform="rotate(180)"><path d="M -24.896458302391693 99.58583320956677 Q 0 119.50299985148013 24.896458302391693 99.58583320956677"/></g><g transform="rotate(240)"><path d="M -24.896458302391693 99.58583320956677 Q 0 119.50299985148013 24.896458302391693 99.58583320956677"/></g><g transform="rotate(300)"><path d="M -24.896458302391693 99.58583320956677 Q 0 119.50299985148013 24.896458302391693 99.58583320956677"/></g><g transform="rotate(0)"><path d="M 0 131.2014687107876 L 32.8003671776969 157.4417624529451 L 0 183.68205619510263 L -32.8003671776969 157.4417624529451 Z"/></g><g transform="rotate(60)"><path d="M 0 131.2014687107876 L 32.8003671776969 157.4417624529451 L 0 183.68205619510263 L -32.8003671776969 157.4417624529451 Z"/></g><g transform="rotate(120)"><path d="M 0 131.2014687107876 L 32.8003671776969 157.4417624529451 L 0 183.68205619510263 L -32.8003671776969 157.4417624529451 Z"/></g><g transform="rotate(180)"><path d="M 0 131.2014687107876 L 32.8003671776969 157.4417624529451 L 0 183.68205619510263 L -32.8003671776969 157.4417624529451 Z"/></g><g transform="rotate(240)"><path d="M 0 131.2014687107876 L 32.8003671776969 157.4417624529451 L 0 183.68205619510263 L -32.8003671776969 157.4417624529451 Z"/></g><g transform="rotate(300)"><path d="M 0 131.2014687107876 L 32.8003671776969 157.4417624529451 L 0 183.68205619510263 L -32.8003671776969 157.4417624529451 Z"/></g><g transform="rotate(0)"><path d="M -41.69989790185355 166.7995916074142 Q 0 200.15950992889702 41.69989790185355 166.7995916074142"/></g><g transform="rotate(60)"><path d="M -41.69989790185355 166.7995916074142 Q 0 200.15950992889702 41.69989790185355 166.7995916074142"/></g><g transform="rotate(120)"><path d="M -41.69989790185355 166.7995916074142 Q 0 200.15950992889702 41.69989790185355 166.7995916074142"/></g><g transform="rotate(180)"><path d="M -41.69989790185355 166.7995916074142 Q 0 200.15950992889702 41.69989790185355 166.7995916074142"/></g><g transform="rotate(240)"><path d="M -41.69989790185355 166.7995916074142 Q 0 200.15950992889702 41.69989790185355 166.7995916074142"/></g><g transform="rotate(300)"><path d="M -41.69989790185355 166.7995916074142 Q 0 200.15950992889702 41.69989790185355 166.7995916074142"/></g><g transform="rotate(0)"><circle cx="0" cy="202.19215842429549" r="50.54803960607387"/></g><g transform="rotate(60)"><circle cx="0" cy="202.19215842429549" r="50.54803960607387"/></g><g transform="rotate(120)"><circle cx="0" cy="202.19215842429549" r="50.54803960607387"/></g><g transform="rotate(180)"><circle cx="0" cy="202.19215842429549" r="50.54803960607387"/></g><g transform="rotate(240)"><circle cx="0" cy="202.19215842429549" r="50.54803960607387"/></g><g transform="rotate(300)"><circle cx="0" cy="202.19215842429549" r="50.54803960607387"/></g><g transform="rotate(0)"><path d="M -64.05934877577238 256.2373951030895 Q 0 307.4848741237074 64.05934877577238 256.2373951030895"/></g><g transform="rotate(60)"><path d="M -64.05934877577238 256.2373951030895 Q 0 307.4848741237074 64.05934877577238 256.2373951030895"/></g><g transform="rotate(120)"><path d="M -64.05934877577238 256.2373951030895 Q 0 307.4848741237074 64.05934877577238 256.2373951030895"/></g><g transform="rotate(180)"><path d="M -64.05934877577238 256.2373951030895 Q 0 307.4848741237074 64.05934877577238 256.2373951030895"/></g><g transform="rotate(240)"><path d="M -64.05934877577238 256.2373951030895 Q 0 307.4848741237074 64.05934877577238 256.2373951030895"/></g><g transform="rotate(300)"><path d="M -64.05934877577238 256.2373951030895 Q 0 307.4848741237074 64.05934877577238 256.2373951030895"/></g><g transform="rotate(0)"><path d="M 0 285.85036371368915 Q 95.28345457122971 343.020436456427 0 428.7755455705337 Q -95.28345457122971 343.020436456427 0 285.85036371368915"/></g><g transform="rotate(60)"><path d="M 0 285.85036371368915 Q 95.28345457122971 343.020436456427 0 428.7755455705337 Q -95.28345457122971 343.020436456427 0 285.85036371368915"/></g><g transform="rotate(120)"><path d="M 0 285.85036371368915 Q 95.28345457122971 343.020436456427 0 428.7755455705337 Q -95.28345457122971 343.020436456427 0 285.85036371368915"/></g><g transform="rotate(180)"><path d="M 0 285.85036371368915 Q 95.28345457122971 343.020436456427 0 428.7755455705337 Q -95.28345457122971 343.020436456427 0 285.85036371368915"/></g><g transform="rotate(240)"><path d="M 0 285.85036371368915 Q 95.28345457122971 343.020436456427 0 428.7755455705337 Q -95.28345457122971 343.020436456427 0 285.85036371368915"/></g><g transform="rotate(300)"><path d="M 0 285.85036371368915 Q 95.28345457122971 343.020436456427 0 428.7755455705337 Q -95.28345457122971 343.020436456427 0 285.85036371368915"/></g><g transform="rotate(0)"><path d="M 0 331.6559241851792 Q 110.55197472839306 397.987109022215 0 497.48388627776876 Q -110.55197472839306 397.987109022215 0 331.6559241851792"/></g><g transform="rotate(60)"><path d="M 0 331.6559241851792 Q 110.55197472839306 397.987109022215 0 497.48388627776876 Q -110.55197472839306 397.987109022215 0 331.6559241851792"/></g><g transform="rotate(120)"><path d="M 0 331.6559241851792 Q 110.55197472839306 397.987109022215 0 497.48388627776876 Q -110.55197472839306 397.987109022215 0 331.6559241851792"/></g><g transform="rotate(180)"><path d="M 0 331.6559241851792 Q 110.55197472839306 397.987109022215 0 497.48388627776876 Q -110.55197472839306 397.987109022215 0 331.6559241851792"/></g><g transform="rotate(240)"><path d="M 0 331.6559241851792 Q 110.55197472839306 397.987109022215 0 497.48388627776876 Q -110.55197472839306 397.987109022215 0 331.6559241851792"/></g><g transform="rotate(300)"><path d="M 0 331.6559241851792 Q 110.55197472839306 397.987109022215 0 497.48388627776876 Q -110.55197472839306 397.987109022215 0 331.6559241851792"/></g></g></svg>