<svg xmlns="http://www.w3.org/2000/svg" viewBox="0 0 800 800" width="800" height="800">
    <rect width="100%" height="100%" fill="white"/>
    <g transform="translate(400, 400)" fill="none" stroke="black" stroke-width="4" stroke-linecap="round" stroke-linejoin="round"><g transform="rotate(0)"><circle cx="0" cy="46.642641415819526" r="11.660660353954881"/></g><g transform="rotate(18)"><circle cx="0" cy="46.642641415819526" r="11.660660353954881"/></g><g transform="rotate(36)"><circle cx="0" cy="46.642641415819526" r="11.660660353954881"/></g><g transform="rotate(54)"><circle cx="0" cy="46.642641415819526" r="11.660660353954881"/></g><g transform="rotate(72)"><circle cx="0" cy="46.642641415819526" r="11.660660353954881"/></g><g transform="rotate(90)"><circle cx="0" cy="46.642641415819526" r="11.660660353954881"/></g><g transform="rotate(108)"><circle cx="0" cy="46.642641415819526" r="11.660660353954881"/></g><g transform="rotate(126)"><circle cx="0" cy="46.642641415819526" r="11.660660353954881"/></g><g transform="rotate(144)"><circle cx="0" cy="46.642641415819526" r="11.660660353954881"/></g><g transform="rotate(162)"><circle cx="0" cy="46.642641415819526" r="11.660660353954881"/></g><g transform="rotate(180)"><circle cx="0" cy="46.642641415819526" r="11.660660353954881"/></g><g transform="rotate(198)"><circle cx="0" cy="46.642641415819526" r="11.660660353954881"/></g><g transform="rotate(216)"><circle cx="0" cy="46.642641415819526" r="11.660660353954881"/></g><g transform="rotate(234)"><circle cx="0" cy="46.642641415819526" r="11.660660353954881"/></g><g transform="rotate(252)"><circle cx="0" cy="46.642641415819526" r="11.660660353954881"/></g><g transform="rotate(270)"><circle cx="0" cy="46.642641415819526" r="11.660660353954881"/></g><g transform="rotate(288)"><circle cx="0" cy="46.642641415819526" r="11.660660353954881"/></g><g transform="rotate(306)"><circle cx="0" cy="46.642641415819526" r="11.660660353954881"/></g><g transform="rotate(324)"><circle cx="0" cy="46.642641415819526" r="11.660660353954881"/></g><g transform="rotate(342)"><circle cx="0" cy="46.642641415819526" r="11.660660353954881"/></g><g transform="rotate(0)"><path d="M 0 106.35293313860893 Q 35.450977712869644 127.62351976633072 0 159.5293997079134 Q -35.450977712869644 127.62351976633072 0 106.35293313860893"/></g><g transform="rotate(18)"><path d="M 0 106.35293313860893 Q 35.450977712869644 127.62351976633072 0 159.5293997079134 Q -35.450977712869644 127.62351976633072 0 106.35293313860893"/></g><g transform="rotate(36)"><path d="M 0 106.35293313860893 Q 35.450977712869644 127.62351976633072 0 159.5293997079134 Q -35.450977712869644 127.62351976633072 0 106.35293313860893"/></g><g transform="rotate(54)"><path d="M 0 106.35293313860893 Q 35.450977712869644 127.62351976633072 0 159.5293997079134 Q -35.450977712869644 127.62351976633072 0 106.35293313860893"/></g><g transform="rotate(72)"><path d="M 0 106.35293313860893 Q 35.450977712869644 127.62351976633072 0 159.5293997079134 Q -35.450977712869644 127.62351976633072 0 106.35293313860893"/></g><g transform="rotate(90)"><path d="M 0 106.35293313860893 Q 35.450977712869644 127.62351976633072 0 159.5293997079134 Q -35.450977712869644 127.62351976633072 0 106.35293313860893"/></g><g transform="rotate(108)"><path d="M 0 106.35293313860893 Q 35.450977712869644 127.62351976633072 0 159.5293997079134 Q -35.450977712869644 127.62351976633072 0 106.35293313860893"/></g><g transform="rotate(126)"><path d="M 0 106.35293313860893 Q 35.450977712869644 127.62351976633072 0 159.5293997079134 Q -35.450977712869644 127.62351976633072 0 106.35293313860893"/></g><g transform="rotate(144)"><path d="M 0 106.35293313860893 Q 35.450977712869644 127.62351976633072 0 159.5293997079134 Q -35.450977712869644 127.62351976633072 0 106.35293313860893"/></g><g transform="rotate(162)"><path d="M 0 106.35293313860893 Q 35.450977712869644 127.62351976633072 0 159.5293997079134 Q -35.450977712869644 127.62351976633072 0 106.35293313860893"/></g><g transform="rotate(180)"><path d="M 0 106.35293313860893 Q 35.450977712869644 127.62351976633072 0 159.5293997079134 Q -35.450977712869644 127.62351976633072 0 106.35293313860893"/></g><g transform="rotate(198)"><path d="M 0 106.35293313860893 Q 35.450977712869644 127.62351976633072 0 159.5293997079134 Q -35.450977712869644 127.62351976633072 0 106.35293313860893"/></g><g transform="rotate(216)"><path d="M 0 106.35293313860893 Q 35.450977712869644 127.62351976633072 0 159.5293997079134 Q -35.450977712869644 127.62351976633072 0 106.35293313860893"/></g><g transform="rotate(234)"><path d="M 0 106.35293313860893 Q 35.450977712869644 127.62351976633072 0 159.5293997079134 Q -35.450977712869644 127.62351976633072 0 106.35293313860893"/></g><g transform="rotate(252)"><path d="M 0 106.35293313860893 Q 35.450977712869644 127.62351976633072 0 159.5293997079134 Q -35.450977712869644 127.62351976633072 0 106.35293313860893"/></g><g transform="rotate(270)"><path d="M 0 106.35293313860893 Q 35.450977712869644 127.62351976633072 0 159.5293997079134 Q -35.450977712869644 127.62351976633072 0 106.35293313860893"/></g><g transform="rotate(288)"><path d="M 0 106.35293313860893 Q 35.450977712869644 127.62351976633072 0 159.5293997079134 Q -35.450977712869644 127.62351976633072 0 106.35293313860893"/></g><g transform="rotate(306)"><path d="M 0 106.35293313860893 Q 35.450977712869644 127.62351976633072 0 159.5293997079134 Q -35.450977712869644 127.62351976633072 0 106.35293313860893"/></g><g transform="rotate(324)"><path d="M 0 106.35293313860893 Q 35.450977712869644 127.62351976633072 0 159.5293997079134 Q -35.450977712869644 127.62351976633072 0 106.35293313860893"/></g><g transform="rotate(342)"><path d="M 0 106.35293313860893 Q 35.450977712869644 127.62351976633072 0 159.5293997079134 Q -35.450977712869644 127.62351976633072 0 106.35293313860893"/></g><g transform="rotate(0)"><path d="M 0 182.26394411362708 L 0 236.9431273477152"/></g><g transform="rotate(18)"><path d="M 0 182.26394411362708 L 0 236.9431273477152"/></g><g transform="rotate(36)"><path d="M 0 182.26394411362708 L 0 236.9431273477152"/></g><g transform="rotate(54)"><path d="M 0 182.26394411362708 L 0 236.9431273477152"/></g><g transform="rotate(72)"><path d="M 0 182.26394411362708 L 0 236.9431273477152"/></g><g transform="rotate(90)"><path d="M 0 182.26394411362708 L 0 236.9431273477152"/></g><g transform="rotate(108)"><path d="M 0 182.26394411362708 L 0 236.9431273477152"/></g><g transform="rotate(126)"><path d="M 0 182.26394411362708 L 0 236.9431273477152"/></g><g transform="rotate(144)"><path d="M 0 182.26394411362708 L 0 236.9431273477152"/></g><g transform="rotate(162)"><path d="M 0 182.26394411362708 L 0 236.9431273477152"/></g><g transform="rotate(180)"><path d="M 0 182.26394411362708 L 0 236.9431273477152"/></g><g transform="rotate(198)"><path d="M 0 182.26394411362708 L 0 236.9431273477152"/></g><g transform="rotate(216)"><path d="M 0 182.26394411362708 L 0 236.9431273477152"/></g><g transform="rotate(234)"><path d="M 0 182.26394411362708 L 0 236.9431273477152"/></g><g transform="rotate(252)"><path d="M 0 182.26394411362708 L 0 236.9431273477152"/></g><g transform="rotate(270)"><path d="M 0 182.26394411362708 L 0 236.9431273477152"/></g><g transform="rotate(288)"><path d="M 0 182.26394411362708 L 0 236.9431273477152"/></g><g transform="rotate(306)"><path d="M 0 182.26394411362708 L 0 236.9431273477152"/></g><g transform="rotate(324)"><path d="M 0 182.26394411362708 L 0 236.9431273477152"/></g><g transform="rotate(342)"><path d="M 0 182.26394411362708 L 0 236.9431273477152"/></g><g transform="rotate(0)"><circle cx="0" cy="238.0535247065127" r="59.51338117662817"/></g><g transform="rotate(18)"><circle cx="0" cy="238.0535247065127" r="59.51338117662817"/></g><g transform="rotate(36)"><circle cx="0" cy="238.0535247065127" r="59.51338117662817"/></g><g transform="rotate(54)"><circle cx="0" cy="238.0535247065127" r="59.51338117662817"/></g><g transform="rotate(72)"><circle cx="0" cy="238.0535247065127" r="59.51338117662817"/></g><g transform="rotate(90)"><circle cx="0" cy="238.0535247065127" r="59.51338117662817"/></g><g transform="rotate(108)"><circle cx="0" cy="238.0535247065127" r="59.51338117662817"/></g><g transform="rotate(126)"><circle cx="0" cy="238.0535247065127" r="59.51338117662817"/></g><g transform="rotate(144)"><circle cx="0" cy="238.0535247065127" r="59.51338117662817"/></g><g transform="rotate(162)"><circle cx="0" cy="238.0535247065127" r="59.51338117662817"/></g><g transform="rotate(180)"><circle cx="0" cy="238.0535247065127" r="59.51338117662817"/></g><g transform="rotate(198)"><circle cx="0" cy="238.0535247065127" r="59.51338117662817"/></g><g transform="rotate(216)"><circle cx="0" cy="238.0535247065127" r="59.51338117662817"/></g><g transform="rotate(234)"><circle cx="0" cy="238.0535247065127" r="59.51338117662817"/></g><g transform="rotate(252)"><circle cx="0" cy="238.0535247065127" r="59.51338117662817"/></g><g transform="rotate(270)"><circle cx="0" cy="238.0535247065127" r="59.51338117662817"/></g><g transform="rotate(288)"><circle cx="0" cy="238.0535247065127" r="59.51338117662817"/></g><g transform="rotate(306)"><circle cx="0" cy="238.0535247065127" r="59.51338117662817"/></g><g transform="rotate(324)"><circle cx="0" cy="238.0535247065127" r="59.51338117662817"/></g><g transform="rotate(342)"><circle cx="0" cy="238.0535247065127" r="59.51338117662817"/></g><g transform="rotate(0)"><path d="M -78.92442455841228 315.69769823364913 Q 0 378.83723788037895 78.92442455841228 315.69769823364913"/></g><g transform="rotate(18)"><path d="M -78.92442455841228 315.69769823364913 Q 0 378.83723788037895 78.92442455841228 315.69769823364913"/></g><g transform="rotate(36)"><path d="M -78.92442455841228 315.69769823364913 Q 0 378.83723788037895 78.92442455841228 315.69769823364913"/></g><g transform="rotate(54)"><path d="M -78.92442455841228 315.69769823364913 Q 0 378.83723788037895 78.92442455841228 315.69769823364913"/></g><g transform="rotate(72)"><path d="M -78.92442455841228 315.69769823364913 Q 0 378.83723788037895 78.92442455841228 315.69769823364913"/></g><g transform="rotate(90)"><path d="M -78.92442455841228 315.69769823364913 Q 0 378.83723788037895 78.92442455841228 315.69769823364913"/></g><g transform="rotate(108)"><path d="M -78.92442455841228 315.69769823364913 Q 0 378.83723788037895 78.92442455841228 315.69769823364913"/></g><g transform="rotate(126)"><path d="M -78.92442455841228 315.69769823364913 Q 0 378.83723788037895 78.92442455841228 315.69769823364913"/></g><g transform="rotate(144)"><path d="M -78.92442455841228 315.69769823364913 Q 0 378.83723788037895 78.92442455841228 315.69769823364913"/></g><g transform="rotate(162)"><path d="M -78.92442455841228 315.69769823364913 Q 0 378.83723788037895 78.92442455841228 315.69769823364913"/></g><g transform="rotate(180)"><path d="M -78.92442455841228 315.69769823364913 Q 0 378.83723788037895 78.92442455841228 315.69769823364913"/></g><g transform="rotate(198)"><path d="M -78.92442455841228 315.69769823364913 Q 0 378.83723788037895 78.92442455841228 315.69769823364913"/></g><g transform="rotate(216)"><path d="M -78.92442455841228 315.69769823364913 Q 0 378.83723788037895 78.92442455841228 315.69769823364913"/></g><g transform="rotate(234)"><path d="M -78.92442455841228 315.69769823364913 Q 0 378.83723788037895 78.92442455841228 315.69769823364913"/></g><g transform="rotate(252)"><path d="M -78.92442455841228 315.69769823364913 Q 0 378.83723788037895 78.92442455841228 315.69769823364913"/></g><g transform="rotate(270)"><path d="M -78.92442455841228 315.69769823364913 Q 0 378.83723788037895 78.92442455841228 315.69769823364913"/></g><g transform="rotate(288)"><path d="M -78.92442455841228 315.69769823364913 Q 0 378.83723788037895 78.92442455841228 315.69769823364913"/></g><g transform="rotate(306)"><path d="M -78.92442455841228 315.69769823364913 Q 0 378.83723788037895 78.92442455841228 315.69769823364913"/></g><g transform="rotate(324)"><path d="M -78.92442455841228 315.69769823364913 Q 0 378.83723788037895 78.92442455841228 315.69769823364913"/></g><g transform="rotate(342)"><path d="M -78.92442455841228 315.69769823364913 Q 0 378.83723788037895 78.92442455841228 315.69769823364913"/></g></g></svg>