<svg xmlns="http://www.w3.org/2000/svg" viewBox="0 0 800 800" width="800" height="800">
    <rect width="100%" height="100%" fill="white"/>
    <g transform="translate(400, 400)" fill="none" stroke="black" stroke-width="4" stroke-linecap="round" stroke-linejoin="round"><g transform="rotate(0)"><path d="M 0 54.185930457897484 Q 18.06197681929916 65.02311654947698 0 81.27889568684623 Q -18.06197681929916 65.02311654947698 0 54.185930457897484"/></g><g transform="rotate(36)"><path d="M 0 54.185930457897484 Q 18.06197681929916 65.02311654947698 0 81.27889568684623 Q -18.06197681929916 65.02311654947698 0 54.185930457897484"/></g><g transform="rotate(72)"><path d="M 0 54.185930457897484 Q 18.06197681929916 65.02311654947698 0 81.27889568684623 Q -18.06197681929916 65.02311654947698 0 54.185930457897484"/></g><g transform="rotate(108)"><path d="M 0 54.185930457897484 Q 18.06197681929916 65.02311654947698 0 81.27889568684623 Q -18.06197681929916 65.02311654947698 0 54.185930457897484"/></g><g transform="rotate(144)"><path d="M 0 54.185930457897484 Q 18.06197681929916 65.02311654947698 0 81.27889568684623 Q -18.06197681929916 65.02311654947698 0 54.185930457897484"/></g><g transform="rotate(180)"><path d="M 0 54.185930457897484 Q 18.06197681929916 65.02311654947698 0 81.27889568684623 Q -18.06197681929916 65.02311654947698 0 54.185930457897484"/></g><g transform="rotate(216)"><path d="M 0 54.185930457897484 Q 18.06197681929916 65.02311654947698 0 81.27889568684623 Q -18.06197681929916 65.02311654947698 0 54.185930457897484"/></g><g transform="rotate(252)"><path d="M 0 54.185930457897484 Q 18.06197681929916 65.02311654947698 0 81.27889568684623 Q -18.06197681929916 65.02311654947698 0 54.185930457897484"/></g><g transform="rotate(288)"><path d="M 0 54.185930457897484 Q 18.06197681929916 65.02311654947698 0 81.27889568684623 Q -18.06197681929916 65.02311654947698 0 54.185930457897484"/></g><g transform="rotate(324)"><path d="M 0 54.185930457897484 Q 18.06197681929916 65.02311654947698 0 81.27889568684623 Q -18.06197681929916 65.02311654947698 0 54.185930457897484"/></g><g transform="rotate(0)"><path d="M 0 84.76053160667006 L 0 110.18869108867108"/></g><g transform="rotate(36)"><path d="M 0 84.76053160667006 L 0 110.18869108867108"/></g><g transform="rotate(72)"><path d="M 0 84.76053160667006 L 0 110.18869108867108"/></g><g transform="rotate(108)"><path d="M 0 84.76053160667006 L 0 110.18869108867108"/></g><g transform="rotate(144)"><path d="M 0 84.76053160667006 L 0 110.18869108867108"/></g><g transform="rotate(180)"><path d="M 0 84.76053160667006 L 0 110.18869108867108"/></g><g transform="rotate(216)"><path d="M 0 84.76053160667006 L 0 110.18869108867108"/></g><g transform="rotate(252)"><path d="M 0 84.76053160667006 L 0 110.18869108867108"/></g><g transform="rotate(288)"><path d="M 0 84.76053160667006 L 0 110.18869108867108"/></g><g transform="rotate(324)"><path d="M 0 84.76053160667006 L 0 110.18869108867108"/></g><g transform="rotate(0)"><circle cx="0" cy="121.44718980054475" r="30.361797450136187"/></g><g transform="rotate(36)"><circle cx="0" cy="121.44718980054475" r="30.361797450136187"/></g><g transform="rotate(72)"><circle cx="0" cy="121.44718980054475" r="30.361797450136187"/></g><g transform="rotate(108)"><circle cx="0" cy="121.44718980054475" r="30.361797450136187"/></g><g transform="rotate(144)"><circle cx="0" cy="121.44718980054475" r="30.361797450136187"/></g><g transform="rotate(180)"><circle cx="0" cy="121.44718980054475" r="30.361797450136187"/></g><g transform="rotate(216)"><circle cx="0" cy="121.44718980054475" r="30.361797450136187"/></g><g transform="rotate(252)"><circle cx="0" cy="121.44718980054475" r="30.361797450136187"/></g><g transform="rotate(288)"><circle cx="0" cy="121.44718980054475" r="30.361797450136187"/></g><g transform="rotate(324)"><circle cx="0" cy="121.44718980054475" r="30.361797450136187"/></g><g transform="rotate(0)"><path d="M -39.53436309044871 158.13745236179483 Q 0 189.7649428341538 39.53436309044871 158.13745236179483"/></g><g transform="rotate(36)"><path d="M -39.53436309044871 158.13745236179483 Q 0 189.7649428341538 39.53436309044871 158.13745236179483"/></g><g transform="rotate(72)"><path d="M -39.53436309044871 158.13745236179483 Q 0 189.7649428341538 39.53436309044871 158.13745236179483"/></g><g transform="rotate(108)"><path d="M -39.53436309044871 158.13745236179483 Q 0 189.7649428341538 39.53436309044871 158.13745236179483"/></g><g transform="rotate(144)"><path d="M -39.53436309044871 158.13745236179483 Q 0 189.7649428341538 39.53436309044871 158.13745236179483"/></g><g transform="rotate(180)"><path d="M -39.53436309044871 158.13745236179483 Q 0 189.7649428341538 39.53436309044871 158.13745236179483"/></g><g transform="rotate(216)"><path d="M -39.53436309044871 158.13745236179483 Q 0 189.7649428341538 39.53436309044871 158.13745236179483"/></g><g transform="rotate(252)"><path d="M -39.53436309044871 158.13745236179483 Q 0 189.7649428341538 39.53436309044871 158.13745236179483"/></g><g transform="rotate(288)"><path d="M -39.53436309044871 158.13745236179483 Q 0 189.7649428341538 39.53436309044871 158.13745236179483"/></g><g transform="rotate(324)"><path d="M -39.53436309044871 158.13745236179483 Q 0 189.7649428341538 39.53436309044871 158.13745236179483"/></g><g transform="rotate(0)"><circle cx="0" cy="187.16285093428775" r="46.79071273357194"/></g><g transform="rotate(36)"><circle cx="0" cy="187.16285093428775" r="46.79071273357194"/></g><g transform="rotate(72)"><circle cx="0" cy="187.16285093428775" r="46.79071273357194"/></g><g transform="rotate(108)"><circle cx="0" cy="187.16285093428775" r="46.79071273357194"/></g><g transform="rotate(144)"><circle cx="0" cy="187.16285093428775" r="46.79071273357194"/></g><g transform="rotate(180)"><circle cx="0" cy="187.16285093428775" r="46.79071273357194"/></g><g transform="rotate(216)"><circle cx="0" cy="187.16285093428775" r="46.79071273357194"/></g><g transform="rotate(252)"><circle cx="0" cy="187.16285093428775" r="46.79071273357194"/></g><g transform="rotate(288)"><circle cx="0" cy="187.16285093428775" r="46.79071273357194"/></g><g transform="rotate(324)"><circle cx="0" cy="187.16285093428775" r="46.79071273357194"/></g><g transform="rotate(0)"><path d="M 0 233.2230096988173 L 0 303.18991260846246"/></g><g transform="rotate(36)"><path d="M 0 233.2230096988173 L 0 303.18991260846246"/></g><g transform="rotate(72)"><path d="M 0 233.2230096988173 L 0 303.18991260846246"/></g><g transform="rotate(108)"><path d="M 0 233.2230096988173 L 0 303.18991260846246"/></g><g transform="rotate(144)"><path d="M 0 233.2230096988173 L 0 303.18991260846246"/></g><g transform="rotate(180)"><path d="M 0 233.2230096988173 L 0 303.18991260846246"/></g><g transform="rotate(216)"><path d="M 0 233.2230096988173 L 0 303.18991260846246"/></g><g transform="rotate(252)"><path d="M 0 233.2230096988173 L 0 303.18991260846246"/></g><g transform="rotate(288)"><path d="M 0 233.2230096988173 L 0 303.18991260846246"/></g><g transform="rotate(324)"><path d="M 0 233.2230096988173 L 0 303.18991260846246"/></g><g transform="rotate(0)"><path d="M 0 262.04062126421684 Q 87.34687375473895 314.4487455170602 0 393.06093189632526 Q -87.34687375473895 314.4487455170602 0 262.04062126421684"/></g><g transform="rotate(36)"><path d="M 0 262.04062126421684 Q 87.34687375473895 314.4487455170602 0 393.06093189632526 Q -87.34687375473895 314.4487455170602 0 262.04062126421684"/></g><g transform="rotate(72)"><path d="M 0 262.04062126421684 Q 87.34687375473895 314.4487455170602 0 393.06093189632526 Q -87.34687375473895 314.4487455170602 0 262.04062126421684"/></g><g transform="rotate(108)"><path d="M 0 262.04062126421684 Q 87.34687375473895 314.4487455170602 0 393.06093189632526 Q -87.34687375473895 314.4487455170602 0 262.04062126421684"/></g><g transform="rotate(144)"><path d="M 0 262.04062126421684 Q 87.34687375473895 314.4487455170602 0 393.06093189632526 Q -87.34687375473895 314.4487455170602 0 262.04062126421684"/></g><g transform="rotate(180)"><path d="M 0 262.04062126421684 Q 87.34687375473895 314.4487455170602 0 393.06093189632526 Q -87.34687375473895 314.4487455170602 0 262.04062126421684"/></g><g transform="rotate(216)"><path d="M 0 262.04062126421684 Q 87.34687375473895 314.4487455170602 0 393.06093189632526 Q -87.34687375473895 314.4487455170602 0 262.04062126421684"/></g><g transform="rotate(252)"><path d="M 0 262.04062126421684 Q 87.34687375473895 314.4487455170602 0 393.06093189632526 Q -87.34687375473895 314.4487455170602 0 262.04062126421684"/></g><g transform="rotate(288)"><path d="M 0 262.04062126421684 Q 87.34687375473895 314.4487455170602 0 393.06093189632526 Q -87.34687375473895 314.4487455170602 0 262.04062126421684"/></g><g transform="rotate(324)"><path d="M 0 262.04062126421684 Q 87.34687375473895 314.4487455170602 0 393.06093189632526 Q -87.34687375473895 314.4487455170602 0 262.04062126421684"/></g><g transform="rotate(0)"><path d="M 0 305.04455976550366 Q 101.68151992183455 366.0534717186044 0 457.5668396482555 Q -101.68151992183455 366.0534717186044 0 305.04455976550366"/></g><g transform="rotate(36)"><path d="M 0 305.04455976550366 Q 101.68151992183455 366.0534717186044 0 457.5668396482555 Q -101.68151992183455 366.0534717186044 0 305.04455976550366"/></g><g transform="rotate(72)"><path d="M 0 305.04455976550366 Q 101.68151992183455 366.0534717186044 0 457.5668396482555 Q -101.68151992183455 366.0534717186044 0 305.04455976550366"/></g><g transform="rotate(108)"><path d="M 0 305.04455976550366 Q 101.68151992183455 366.0534717186044 0 457.5668396482555 Q -101.68151992183455 366.0534717186044 0 305.04455976550366"/></g><g transform="rotate(144)"><path d="M 0 305.04455976550366 Q 101.68151992183455 366.0534717186044 0 457.5668396482555 Q -101.68151992183455 366.0534717186044 0 305.04455976550366"/></g><g transform="rotate(180)"><path d="M 0 305.04455976550366 Q 101.68151992183455 366.0534717186044 0 457.5668396482555 Q -101.68151992183455 366.0534717186044 0 305.04455976550366"/></g><g transform="rotate(216)"><path d="M 0 305.04455976550366 Q 101.68151992183455 366.0534717186044 0 457.5668396482555 Q -101.68151992183455 366.0534717186044 0 305.04455976550366"/></g><g transform="rotate(252)"><path d="M 0 305.04455976550366 Q 101.68151992183455 366.0534717186044 0 457.5668396482555 Q -101.68151992183455 366.0534717186044 0 305.04455976550366"/></g><g transform="rotate(288)"><path d="M 0 305.04455976550366 Q 101.68151992183455 366.0534717186044 0 457.5668396482555 Q -101.68151992183455 366.0534717186044 0 305.04455976550366"/></g><g transform="rotate(324)"><path d="M 0 305.04455976550366 Q 101.68151992183455 366.0534717186044 0 457.5668396482555 Q -101.68151992183455 366.0534717186044 0 305.04455976550366"/></g><g transform="rotate(0)"><circle cx="0" cy="327.4956819503051" r="81.87392048757627"/></g><g transform="rotate(36)"><circle cx="0" cy="327.4956819503051" r="81.87392048757627"/></g><g transform="rotate(72)"><circle cx="0" cy="327.4956819503051" r="81.87392048757627"/></g><g transform="rotate(108)"><circle cx="0" cy="327.4956819503051" r="81.87392048757627"/></g><g transform="rotate(144)"><circle cx="0" cy="327.4956819503051" r="81.87392048757627"/></g><g transform="rotate(180)"><circle cx="0" cy="327.4956819503051" r="81.87392048757627"/></g><g transform="rotate(216)"><circle cx="0" cy="327.4956819503051" r="81.87392048757627"/></g><g transform="rotate(252)"><circle cx="0" cy="327.4956819503051" r="81.87392048757627"/></g><g transform="rotate(288)"><circle cx="0" cy="327.4956819503051" r="81.87392048757627"/></g><g transform="rotate(324)"><circle cx="0" cy="327.4956819503051" r="81.87392048757627"/></g></g></svg>