<svg xmlns="http://www.w3.org/2000/svg" viewBox="0 0 800 800" width="800" height="800">
    <rect width="100%" height="100%" fill="white"/>
    <g transform="translate(400, 400)" fill="none" stroke="black" stroke-width="4" stroke-linecap="round" stroke-linejoin="round"><g transform="rotate(0)"><path d="M 0 48.65837114863098 L 0 63.25588249322027"/></g><g transform="rotate(60)"><path d="M 0 48.65837114863098 L 0 63.25588249322027"/></g><g transform="rotate(120)"><path d="M 0 48.65837114863098 L 0 63.25588249322027"/></g><g transform="rotate(180)"><path d="M 0 48.65837114863098 L 0 63.25588249322027"/></g><g transform="rotate(240)"><path d="M 0 48.65837114863098 L 0 63.25588249322027"/></g><g transform="rotate(300)"><path d="M 0 48.65837114863098 L 0 63.25588249322027"/></g><g transform="rotate(0)"><circle cx="0" cy="99.72401890903711" r="24.93100472725928"/></g><g transform="rotate(60)"><circle cx="0" cy="99.72401890903711" r="24.93100472725928"/></g><g transform="rotate(120)"><circle cx="0" cy="99.72401890903711" r="24.93100472725928"/></g><g transform="rotate(180)"><circle cx="0" cy="99.72401890903711" r="24.93100472725928"/></g><g transform="rotate(240)"><circle cx="0" cy="99.72401890903711" r="24.93100472725928"/></g><g transform="rotate(300)"><circle cx="0" cy="99.72401890903711" r="24.93100472725928"/></g><g transform="rotate(0)"><circle cx="0" cy="133.37934819050133" r="33.34483704762533"/></g><g transform="rotate(60)"><circle cx="0" cy="133.37934819050133" r="33.34483704762533"/></g><g transform="rotate(120)"><circle cx="0" cy="133.37934819050133" r="33.34483704762533"/></g><g transform="rotate(180)"><circle cx="0" cy="133.37934819050133" r="33.34483704762533"/></g><g transform="rotate(240)"><circle cx="0" cy="133.37934819050133" r="33.34483704762533"/></g><g transform="rotate(300)"><circle cx="0" cy="133.37934819050133" r="33.34483704762533"/></g><g transform="rotate(0)"><path d="M 0 173.23722599074244 L 0 225.20839378796518"/></g><g transform="rotate(60)"><path d="M 0 173.23722599074244 L 0 225.20839378796518"/></g><g transform="rotate(120)"><path d="M 0 173.23722599074244 L 0 225.20839378796518"/></g><g transform="rotate(180)"><path d="M 0 173.23722599074244 L 0 225.20839378796518"/></g><g transform="rotate(240)"><path d="M 0 173.23722599074244 L 0 225.20839378796518"/></g><g transform="rotate(300)"><path d="M 0 173.23722599074244 L 0 225.20839378796518"/></g><g transform="rotate(0)"><circle cx="0" cy="209.80320519767702" r="52.450801299419254"/></g><g transform="rotate(60)"><circle cx="0" cy="209.80320519767702" r="52.450801299419254"/></g><g transform="rotate(120)"><circle cx="0" cy="209.80320519767702" r="52.450801299419254"/></g><g transform="rotate(180)"><circle cx="0" cy="209.80320519767702" r="52.450801299419254"/></g><g transform="rotate(240)"><circle cx="0" cy="209.80320519767702" r="52.450801299419254"/></g><g transform="rotate(300)"><circle cx="0" cy="209.80320519767702" r="52.450801299419254"/></g><g transform="rotate(0)"><path d="M 0 242.48484008014202 Q 80.82828002671401 290.9818080961704 0 363.72726012021303 Q -80.82828002671401 290.9818080961704 0 242.48484008014202"/></g><g transform="rotate(60)"><path d="M 0 242.48484008014202 Q 80.82828002671401 290.9818080961704 0 363.72726012021303 Q -80.82828002671401 290.9818080961704 0 242.48484008014202"/></g><g transform="rotate(120)"><path d="M 0 242.48484008014202 Q 80.82828002671401 290.9818080961704 0 363.72726012021303 Q -80.82828002671401 290.9818080961704 0 242.48484008014202"/></g><g transform="rotate(180)"><path d="M 0 242.48484008014202 Q 80.82828002671401 290.9818080961704 0 363.72726012021303 Q -80.82828002671401 290.9818080961704 0 242.48484008014202"/></g><g transform="rotate(240)"><path d="M 0 242.48484008014202 Q 80.82828002671401 290.9818080961704 0 363.72726012021303 Q -80.82828002671401 290.9818080961704 0 242.48484008014202"/></g><g transform="rotate(300)"><path d="M 0 242.48484008014202 Q 80.82828002671401 290.9818080961704 0 363.72726012021303 Q -80.82828002671401 290.9818080961704 0 242.48484008014202"/></g><g transform="rotate(0)"><path d="M 0 282.56444172002375 Q 94.18814724000792 339.0773300640285 0 423.8466625800356 Q -94.18814724000792 339.0773300640285 0 282.56444172002375"/></g><g transform="rotate(60)"><path d="M 0 282.56444172002375 Q 94.18814724000792 339.0773300640285 0 423.8466625800356 Q -94.18814724000792 339.0773300640285 0 282.56444172002375"/></g><g transform="rotate(120)"><path d="M 0 282.56444172002375 Q 94.18814724000792 339.0773300640285 0 423.8466625800356 Q -94.18814724000792 339.0773300640285 0 282.56444172002375"/></g><g transform="rotate(180)"><path d="M 0 282.56444172002375 Q 94.18814724000792 339.0773300640285 0 423.8466625800356 Q -94.18814724000792 339.0773300640285 0 282.56444172002375"/></g><g transform="rotate(240)"><path d="M 0 282.56444172002375 Q 94.18814724000792 339.0773300640285 0 423.8466625800356 Q -94.18814724000792 339.0773300640285 0 282.56444172002375"/></g><g transform="rotate(300)"><path d="M 0 282.56444172002375 Q 94.18814724000792 339.0773300640285 0 423.8466625800356 Q -94.18814724000792 339.0773300640285 0 282.56444172002375"/></g><g transform="rotate(0)"><path d="M -82.48267088551074 329.93068354204297 Q 0 395.91682025045156 82.48267088551074 329.93068354204297"/></g><g transform="rotate(60)"><path d="M -82.48267088551074 329.93068354204297 Q 0 395.91682025045156 82.48267088551074 329.93068354204297"/></g><g transform="rotate(120)"><path d="M -82.48267088551074 329.93068354204297 Q 0 395.91682025045156 82.48267088551074 329.93068354204297"/></g><g transform="rotate(180)"><path d="M -82.48267088551074 329.93068354204297 Q 0 395.91682025045156 82.48267088551074 329.93068354204297"/></g><g transform="rotate(240)"><path d="M -82.48267088551074 329.93068354204297 Q 0 395.91682025045156 82.48267088551074 329.93068354204297"/></g><g transform="rotate(300)"><path d="M -82.48267088551074 329.93068354204297 Q 0 395.91682025045156 82.48267088551074 329.93068354204297"/></g></g></svg>