<svg xmlns="http://www.w3.org/2000/svg" viewBox="0 0 800 800" width="800" height="800">
    <rect width="100%" height="100%" fill="white"/>
    <g transform="translate(400, 400)" fill="none" stroke="black" stroke-width="4" stroke-linecap="round" stroke-linejoin="round"><g transform="rotate(0)"><path d="M 0 50.76860838569701 Q 16.922869461899 60.92233006283641 0 76.15291257854551 Q -16.922869461899 60.92233006283641 0 50.76860838569701"/></g><g transform="rotate(60)"><path d="M 0 50.76860838569701 Q 16.922869461899 60.92233006283641 0 76.15291257854551 Q -16.922869461899 60.92233006283641 0 50.76860838569701"/></g><g transform="rotate(120)"><path d="M 0 50.76860838569701 Q 16.922869461899 60.92233006283641 0 76.15291257854551 Q -16.922869461899 60.92233006283641 0 50.76860838569701"/></g><g transform="rotate(180)"><path d="M 0 50.76860838569701 Q 16.922869461899 60.92233006283641 0 76.15291257854551 Q -16.922869461899 60.92233006283641 0 50.76860838569701"/></g><g transform="rotate(240)"><path d="M 0 50.76860838569701 Q 16.922869461899 60.92233006283641 0 76.15291257854551 Q -16.922869461899 60.92233006283641 0 50.76860838569701"/></g><g transform="rotate(300)"><path d="M 0 50.76860838569701 Q 16.922869461899 60.92233006283641 0 76.15291257854551 Q -16.922869461899 60.92233006283641 0 50.76860838569701"/></g><g transform="rotate(0)"><path d="M 0 103.36213319163238 L 25.840533297908095 124.03455982995885 L 0 144.70698646828532 L -25.840533297908095 124.03455982995885 Z"/></g><g transform="rotate(60)"><path d="M 0 103.36213319163238 L 25.840533297908095 124.03455982995885 L 0 144.70698646828532 L -25.840533297908095 124.03455982995885 Z"/></g><g transform="rotate(120)"><path d="M 0 103.36213319163238 L 25.840533297908095 124.03455982995885 L 0 144.70698646828532 L -25.840533297908095 124.03455982995885 Z"/></g><g transform="rotate(180)"><path d="M 0 103.36213319163238 L 25.840533297908095 124.03455982995885 L 0 144.70698646828532 L -25.840533297908095 124.03455982995885 Z"/></g><g transform="rotate(240)"><path d="M 0 103.36213319163238 L 25.840533297908095 124.03455982995885 L 0 144.70698646828532 L -25.840533297908095 124.03455982995885 Z"/></g><g transform="rotate(300)"><path d="M 0 103.36213319163238 L 25.840533297908095 124.03455982995885 L 0 144.70698646828532 L -25.840533297908095 124.03455982995885 Z"/></g><g transform="rotate(0)"><path d="M 0 132.63484161480199 L 33.158710403700496 159.16180993776237 L 0 185.68877826072276 L -33.158710403700496 159.16180993776237 Z"/></g><g transform="rotate(60)"><path d="M 0 132.63484161480199 L 33.158710403700496 159.16180993776237 L 0 185.68877826072276 L -33.158710403700496 159.16180993776237 Z"/></g><g transform="rotate(120)"><path d="M 0 132.63484161480199 L 33.158710403700496 159.16180993776237 L 0 185.68877826072276 L -33.158710403700496 159.16180993776237 Z"/></g><g transform="rotate(180)"><path d="M 0 132.63484161480199 L 33.158710403700496 159.16180993776237 L 0 185.68877826072276 L -33.158710403700496 159.16180993776237 Z"/></g><g transform="rotate(240)"><path d="M 0 132.63484161480199 L 33.158710403700496 159.16180993776237 L 0 185.68877826072276 L -33.158710403700496 159.16180993776237 Z"/></g><g transform="rotate(300)"><path d="M 0 132.63484161480199 L 33.158710403700496 159.16180993776237 L 0 185.68877826072276 L -33.158710403700496 159.16180993776237 Z"/></g><g transform="rotate(0)"><path d="M 0 183.31432195114238 Q 61.104773983714125 219.97718634137084 0 274.9714829267136 Q -61.104773983714125 219.97718634137084 0 183.31432195114238"/></g><g transform="rotate(60)"><path d="M 0 183.31432195114238 Q 61.104773983714125 219.97718634137084 0 274.9714829267136 Q -61.104773983714125 219.97718634137084 0 183.31432195114238"/></g><g transform="rotate(120)"><path d="M 0 183.31432195114238 Q 61.104773983714125 219.97718634137084 0 274.9714829267136 Q -61.104773983714125 219.97718634137084 0 183.31432195114238"/></g><g transform="rotate(180)"><path d="M 0 183.31432195114238 Q 61.104773983714125 219.97718634137084 0 274.9714829267136 Q -61.104773983714125 219.97718634137084 0 183.31432195114238"/></g><g transform="rotate(240)"><path d="M 0 183.31432195114238 Q 61.104773983714125 219.97718634137084 0 274.9714829267136 Q -61.104773983714125 219.97718634137084 0 183.31432195114238"/></g><g transform="rotate(300)"><path d="M 0 183.31432195114238 Q 61.104773983714125 219.97718634137084 0 274.9714829267136 Q -61.104773983714125 219.97718634137084 0 183.31432195114238"/></g><g transform="rotate(0)"><circle cx="0" cy="233.21004211237388" r="58.30251052809347"/></g><g transform="rotate(60)"><circle cx="0" cy="233.21004211237388" r="58.30251052809347"/></g><g transform="rotate(120)"><circle cx="0" cy="233.21004211237388" r="58.30251052809347"/></g><g transform="rotate(180)"><circle cx="0" cy="233.21004211237388" r="58.30251052809347"/></g><g transform="rotate(240)"><circle cx="0" cy="233.21004211237388" r="58.30251052809347"/></g><g transform="rotate(300)"><circle cx="0" cy="233.21004211237388" r="58.30251052809347"/></g><g transform="rotate(0)"><path d="M 0 282.8978360151606 L 70.72445900379014 339.4774032181927 L 0 396.0569704212248 L -70.72445900379014 339.4774032181927 Z"/></g><g transform="rotate(60)"><path d="M 0 282.8978360151606 L 70.72445900379014 339.4774032181927 L 0 396.0569704212248 L -70.72445900379014 339.4774032181927 Z"/></g><g transform="rotate(120)"><path d="M 0 282.8978360151606 L 70.72445900379014 339.4774032181927 L 0 396.0569704212248 L -70.72445900379014 339.4774032181927 Z"/></g><g transform="rotate(180)"><path d="M 0 282.8978360151606 L 70.72445900379014 339.4774032181927 L 0 396.0569704212248 L -70.72445900379014 339.4774032181927 Z"/></g><g transform="rotate(240)"><path d="M 0 282.8978360151606 L 70.72445900379014 339.4774032181927 L 0 396.0569704212248 L -70.72445900379014 339.4774032181927 Z"/></g><g transform="rotate(300)"><path d="M 0 282.8978360151606 L 70.72445900379014 339.4774032181927 L 0 396.0569704212248 L -70.72445900379014 339.4774032181927 Z"/></g><g transform="rotate(0)"><circle cx="0" cy="321.4215408491769" r="80.35538521229422"/></g><g transform="rotate(60)"><circle cx="0" cy="321.4215408491769" r="80.35538521229422"/></g><g transform="rotate(120)"><circle cx="0" cy="321.4215408491769" r="80.35538521229422"/></g><g transform="rotate(180)"><circle cx="0" cy="321.4215408491769" r="80.35538521229422"/></g><g transform="rotate(240)"><circle cx="0" cy="321.4215408491769" r="80.35538521229422"/></g><g transform="rotate(300)"><circle cx="0" cy="321.4215408491769" r="80.35538521229422"/></g></g></svg>