<svg xmlns="http://www.w3.org/2000/svg" viewBox="0 0 800 800" width="800" height="800">
    <rect width="100%" height="100%" fill="white"/>
    <g transform="translate(400, 400)" fill="none" stroke="black" stroke-width="4" stroke-linecap="round" stroke-linejoin="round"><g transform="rotate(0)"><path d="M 0 40.01270973589271 Q 13.337569911964238 48.015251683071256 0 60.01906460383907 Q -13.337569911964238 48.015251683071256 0 40.01270973589271"/></g><g transform="rotate(45)"><path d="M 0 40.01270973589271 Q 13.337569911964238 48.015251683071256 0 60.01906460383907 Q -13.337569911964238 48.015251683071256 0 40.01270973589271"/></g><g transform="rotate(90)"><path d="M 0 40.01270973589271 Q 13.337569911964238 48.015251683071256 0 60.01906460383907 Q -13.337569911964238 48.015251683071256 0 40.01270973589271"/></g><g transform="rotate(135)"><path d="M 0 40.01270973589271 Q 13.337569911964238 48.015251683071256 0 60.01906460383907 Q -13.337569911964238 48.015251683071256 0 40.01270973589271"/></g><g transform="rotate(180)"><path d="M 0 40.01270973589271 Q 13.337569911964238 48.015251683071256 0 60.01906460383907 Q -13.337569911964238 48.015251683071256 0 40.01270973589271"/></g><g transform="rotate(225)"><path d="M 0 40.01270973589271 Q 13.337569911964238 48.015251683071256 0 60.01906460383907 Q -13.337569911964238 48.015251683071256 0 40.01270973589271"/></g><g transform="rotate(270)"><path d="M 0 40.01270973589271 Q 13.337569911964238 48.015251683071256 0 60.01906460383907 Q -13.337569911964238 48.015251683071256 0 40.01270973589271"/></g><g transform="rotate(315)"><path d="M 0 40.01270973589271 Q 13.337569911964238 48.015251683071256 0 60.01906460383907 Q -13.337569911964238 48.015251683071256 0 40.01270973589271"/></g><g transform="rotate(0)"><path d="M 0 106.96702364676943 Q 35.655674548923145 128.3604283761233 0 160.45053547015414 Q -35.655674548923145 128.3604283761233 0 106.96702364676943"/></g><g transform="rotate(45)"><path d="M 0 106.96702364676943 Q 35.655674548923145 128.3604283761233 0 160.45053547015414 Q -35.655674548923145 128.3604283761233 0 106.96702364676943"/></g><g transform="rotate(90)"><path d="M 0 106.96702364676943 Q 35.655674548923145 128.3604283761233 0 160.45053547015414 Q -35.655674548923145 128.3604283761233 0 106.96702364676943"/></g><g transform="rotate(135)"><path d="M 0 106.96702364676943 Q 35.655674548923145 128.3604283761233 0 160.45053547015414 Q -35.655674548923145 128.3604283761233 0 106.96702364676943"/></g><g transform="rotate(180)"><path d="M 0 106.96702364676943 Q 35.655674548923145 128.3604283761233 0 160.45053547015414 Q -35.655674548923145 128.3604283761233 0 106.96702364676943"/></g><g transform="rotate(225)"><path d="M 0 106.96702364676943 Q 35.655674548923145 128.3604283761233 0 160.45053547015414 Q -35.655674548923145 128.3604283761233 0 106.96702364676943"/></g><g transform="rotate(270)"><path d="M 0 106.96702364676943 Q 35.655674548923145 128.3604283761233 0 160.45053547015414 Q -35.655674548923145 128.3604283761233 0 106.96702364676943"/></g><g transform="rotate(315)"><path d="M 0 106.96702364676943 Q 35.655674548923145 128.3604283761233 0 160.45053547015414 Q -35.655674548923145 128.3604283761233 0 106.96702364676943"/></g><g transform="rotate(0)"><path d="M 0 165.70466032406938 Q 55.23488677468979 198.84559238888326 0 248.55699048610407 Q -55.23488677468979 198.84559238888326 0 165.70466032406938"/></g><g transform="rotate(45)"><path d="M 0 165.70466032406938 Q 55.23488677468979 198.84559238888326 0 248.55699048610407 Q -55.23488677468979 198.84559238888326 0 165.70466032406938"/></g><g transform="rotate(90)"><path d="M 0 165.70466032406938 Q 55.23488677468979 198.84559238888326 0 248.55699048610407 Q -55.23488677468979 198.84559238888326 0 165.70466032406938"/></g><g transform="rotate(135)"><path d="M 0 165.70466032406938 Q 55.23488677468979 198.84559238888326 0 248.55699048610407 Q -55.23488677468979 198.84559238888326 0 165.70466032406938"/></g><g transform="rotate(180)"><path d="M 0 165.70466032406938 Q 55.23488677468979 198.84559238888326 0 248.55699048610407 Q -55.23488677468979 198.84559238888326 0 165.70466032406938"/></g><g transform="rotate(225)"><path d="M 0 165.70466032406938 Q 55.23488677468979 198.84559238888326 0 248.55699048610407 Q -55.23488677468979 198.84559238888326 0 165.70466032406938"/></g><g transform="rotate(270)"><path d="M 0 165.70466032406938 Q 55.23488677468979 198.84559238888326 0 248.55699048610407 Q -55.23488677468979 198.84559238888326 0 165.70466032406938"/></g><g transform="rotate(315)"><path d="M 0 165.70466032406938 Q 55.23488677468979 198.84559238888326 0 248.55699048610407 Q -55.23488677468979 198.84559238888326 0 165.70466032406938"/></g><g transform="rotate(0)"><path d="M -54.61939420667477 218.47757682669908 Q 0 262.1730921920389 54.61939420667477 218.47757682669908"/></g><g transform="rotate(45)"><path d="M -54.61939420667477 218.47757682669908 Q 0 262.1730921920389 54.61939420667477 218.47757682669908"/></g><g transform="rotate(90)"><path d="M -54.61939420667477 218.47757682669908 Q 0 262.1730921920389 54.61939420667477 218.47757682669908"/></g><g transform="rotate(135)"><path d="M -54.61939420667477 218.47757682669908 Q 0 262.1730921920389 54.61939420667477 218.47757682669908"/></g><g transform="rotate(180)"><path d="M -54.61939420667477 218.47757682669908 Q 0 262.1730921920389 54.61939420667477 218.47757682669908"/></g><g transform="rotate(225)"><path d="M -54.61939420667477 218.47757682669908 Q 0 262.1730921920389 54.61939420667477 218.47757682669908"/></g><g transform="rotate(270)"><path d="M -54.61939420667477 218.47757682669908 Q 0 262.1730921920389 54.61939420667477 218.47757682669908"/></g><g transform="rotate(315)"><path d="M -54.61939420667477 218.47757682669908 Q 0 262.1730921920389 54.61939420667477 218.47757682669908"/></g><g transform="rotate(0)"><path d="M 0 272.39666747705394 Q 90.79888915901797 326.87600097246474 0 408.5950012155809 Q -90.79888915901797 326.87600097246474 0 272.39666747705394"/></g><g transform="rotate(45)"><path d="M 0 272.39666747705394 Q 90.79888915901797 326.87600097246474 0 408.5950012155809 Q -90.79888915901797 326.87600097246474 0 272.39666747705394"/></g><g transform="rotate(90)"><path d="M 0 272.39666747705394 Q 90.79888915901797 326.87600097246474 0 408.5950012155809 Q -90.79888915901797 326.87600097246474 0 272.39666747705394"/></g><g transform="rotate(135)"><path d="M 0 272.39666747705394 Q 90.79888915901797 326.87600097246474 0 408.5950012155809 Q -90.79888915901797 326.87600097246474 0 272.39666747705394"/></g><g transform="rotate(180)"><path d="M 0 272.39666747705394 Q 90.79888915901797 326.87600097246474 0 408.5950012155809 Q -90.79888915901797 326.87600097246474 0 272.39666747705394"/></g><g transform="rotate(225)"><path d="M 0 272.39666747705394 Q 90.79888915901797 326.87600097246474 0 408.5950012155809 Q -90.79888915901797 326.87600097246474 0 272.39666747705394"/></g><g transform="rotate(270)"><path d="M 0 272.39666747705394 Q 90.79888915901797 326.87600097246474 0 408.5950012155809 Q -90.79888915901797 326.87600097246474 0 272.39666747705394"/></g><g transform="rotate(315)"><path d="M 0 272.39666747705394 Q 90.79888915901797 326.87600097246474 0 408.5950012155809 Q -90.79888915901797 326.87600097246474 0 272.39666747705394"/></g><g transform="rotate(0)"><circle cx="0" cy="310.9236538146312" r="77.7309134536578"/></g><g transform="rotate(45)"><circle cx="0" cy="310.9236538146312" r="77.7309134536578"/></g><g transform="rotate(90)"><circle cx="0" cy="310.9236538146312" r="77.7309134536578"/></g><g transform="rotate(135)"><circle cx="0" cy="310.9236538146312" r="77.7309134536578"/></g><g transform="rotate(180)"><circle cx="0" cy="310.9236538146312" r="77.7309134536578"/></g><g transform="rotate(225)"><circle cx="0" cy="310.9236538146312" r="77.7309134536578"/></g><g transform="rotate(270)"><circle cx="0" cy="310.9236538146312" r="77.7309134536578"/></g><g transform="rotate(315)"><circle cx="0" cy="310.9236538146312" r="77.7309134536578"/></g></g></svg>