<svg xmlns="http://www.w3.org/2000/svg" viewBox="0 0 800 800" width="800" height="800">
    <rect width="100%" height="100%" fill="white"/>
    <g transform="translate(400, 400)" fill="none" stroke="black" stroke-width="4" stroke-linecap="round" stroke-linejoin="round"><g transform="rotate(0)"><path d="M 0 56.296167694963515 Q 18.765389231654506 67.55540123395622 0 84.44425154244527 Q -18.765389231654506 67.55540123395622 0 56.296167694963515"/></g><g transform="rotate(36)"><path d="M 0 56.296167694963515 Q 18.765389231654506 67.55540123395622 0 84.44425154244527 Q -18.765389231654506 67.55540123395622 0 56.296167694963515"/></g><g transform="rotate(72)"><path d="M 0 56.296167694963515 Q 18.765389231654506 67.55540123395622 0 84.44425154244527 Q -18.765389231654506 67.55540123395622 0 56.296167694963515"/></g><g transform="rotate(108)"><path d="M 0 56.296167694963515 Q 18.765389231654506 67.55540123395622 0 84.44425154244527 Q -18.765389231654506 67.55540123395622 0 56.296167694963515"/></g><g transform="rotate(144)"><path d="M 0 56.296167694963515 Q 18.765389231654506 67.55540123395622 0 84.44425154244527 Q -18.765389231654506 67.55540123395622 0 56.296167694963515"/></g><g transform="rotate(180)"><path d="M 0 56.296167694963515 Q 18.765389231654506 67.55540123395622 0 84.44425154244527 Q -18.765389231654506 67.55540123395622 0 56.296167694963515"/></g><g transform="rotate(216)"><path d="M 0 56.296167694963515 Q 18.765389231654506 67.55540123395622 0 84.44425154244527 Q -18.765389231654506 67.55540123395622 0 56.296167694963515"/></g><g transform="rotate(252)"><path d="M 0 56.296167694963515 Q 18.765389231654506 67.55540123395622 0 84.44425154244527 Q -18.765389231654506 67.55540123395622 0 56.296167694963515"/></g><g transform="rotate(288)"><path d="M 0 56.296167694963515 Q 18.765389231654506 67.55540123395622 0 84.44425154244527 Q -18.765389231654506 67.55540123395622 0 56.296167694963515"/></g><g transform="rotate(324)"><path d="M 0 56.296167694963515 Q 18.765389231654506 67.55540123395622 0 84.44425154244527 Q -18.765389231654506 67.55540123395622 0 56.296167694963515"/></g><g transform="rotate(0)"><path d="M 0 82.6843601749796 L 0 107.48966822747349"/></g><g transform="rotate(36)"><path d="M 0 82.6843601749796 L 0 107.48966822747349"/></g><g transform="rotate(72)"><path d="M 0 82.6843601749796 L 0 107.48966822747349"/></g><g transform="rotate(108)"><path d="M 0 82.6843601749796 L 0 107.48966822747349"/></g><g transform="rotate(144)"><path d="M 0 82.6843601749796 L 0 107.48966822747349"/></g><g transform="rotate(180)"><path d="M 0 82.6843601749796 L 0 107.48966822747349"/></g><g transform="rotate(216)"><path d="M 0 82.6843601749796 L 0 107.48966822747349"/></g><g transform="rotate(252)"><path d="M 0 82.6843601749796 L 0 107.48966822747349"/></g><g transform="rotate(288)"><path d="M 0 82.6843601749796 L 0 107.48966822747349"/></g><g transform="rotate(324)"><path d="M 0 82.6843601749796 L 0 107.48966822747349"/></g><g transform="rotate(0)"><path d="M -32.31852794906849 129.27411179627396 Q 0 155.12893415552875 32.31852794906849 129.27411179627396"/></g><g transform="rotate(36)"><path d="M -32.31852794906849 129.27411179627396 Q 0 155.12893415552875 32.31852794906849 129.27411179627396"/></g><g transform="rotate(72)"><path d="M -32.31852794906849 129.27411179627396 Q 0 155.12893415552875 32.31852794906849 129.27411179627396"/></g><g transform="rotate(108)"><path d="M -32.31852794906849 129.27411179627396 Q 0 155.12893415552875 32.31852794906849 129.27411179627396"/></g><g transform="rotate(144)"><path d="M -32.31852794906849 129.27411179627396 Q 0 155.12893415552875 32.31852794906849 129.27411179627396"/></g><g transform="rotate(180)"><path d="M -32.31852794906849 129.27411179627396 Q 0 155.12893415552875 32.31852794906849 129.27411179627396"/></g><g transform="rotate(216)"><path d="M -32.31852794906849 129.27411179627396 Q 0 155.12893415552875 32.31852794906849 129.27411179627396"/></g><g transform="rotate(252)"><path d="M -32.31852794906849 129.27411179627396 Q 0 155.12893415552875 32.31852794906849 129.27411179627396"/></g><g transform="rotate(288)"><path d="M -32.31852794906849 129.27411179627396 Q 0 155.12893415552875 32.31852794906849 129.27411179627396"/></g><g transform="rotate(324)"><path d="M -32.31852794906849 129.27411179627396 Q 0 155.12893415552875 32.31852794906849 129.27411179627396"/></g><g transform="rotate(0)"><path d="M 0 151.07169117933762 L 0 196.3931985331389"/></g><g transform="rotate(36)"><path d="M 0 151.07169117933762 L 0 196.3931985331389"/></g><g transform="rotate(72)"><path d="M 0 151.07169117933762 L 0 196.3931985331389"/></g><g transform="rotate(108)"><path d="M 0 151.07169117933762 L 0 196.3931985331389"/></g><g transform="rotate(144)"><path d="M 0 151.07169117933762 L 0 196.3931985331389"/></g><g transform="rotate(180)"><path d="M 0 151.07169117933762 L 0 196.3931985331389"/></g><g transform="rotate(216)"><path d="M 0 151.07169117933762 L 0 196.3931985331389"/></g><g transform="rotate(252)"><path d="M 0 151.07169117933762 L 0 196.3931985331389"/></g><g transform="rotate(288)"><path d="M 0 151.07169117933762 L 0 196.3931985331389"/></g><g transform="rotate(324)"><path d="M 0 151.07169117933762 L 0 196.3931985331389"/></g><g transform="rotate(0)"><circle cx="0" cy="187.71254499184175" r="46.92813624796044"/></g><g transform="rotate(36)"><circle cx="0" cy="187.71254499184175" r="46.92813624796044"/></g><g transform="rotate(72)"><circle cx="0" cy="187.71254499184175" r="46.92813624796044"/></g><g transform="rotate(108)"><circle cx="0" cy="187.71254499184175" r="46.92813624796044"/></g><g transform="rotate(144)"><circle cx="0" cy="187.71254499184175" r="46.92813624796044"/></g><g transform="rotate(180)"><circle cx="0" cy="187.71254499184175" r="46.92813624796044"/></g><g transform="rotate(216)"><circle cx="0" cy="187.71254499184175" r="46.92813624796044"/></g><g transform="rotate(252)"><circle cx="0" cy="187.71254499184175" r="46.92813624796044"/></g><g transform="rotate(288)"><circle cx="0" cy="187.71254499184175" r="46.92813624796044"/></g><g transform="rotate(324)"><circle cx="0" cy="187.71254499184175" r="46.92813624796044"/></g><g transform="rotate(0)"><circle cx="0" cy="225.0645770624073" r="56.266144265601824"/></g><g transform="rotate(36)"><circle cx="0" cy="225.0645770624073" r="56.266144265601824"/></g><g transform="rotate(72)"><circle cx="0" cy="225.0645770624073" r="56.266144265601824"/></g><g transform="rotate(108)"><circle cx="0" cy="225.0645770624073" r="56.266144265601824"/></g><g transform="rotate(144)"><circle cx="0" cy="225.0645770624073" r="56.266144265601824"/></g><g transform="rotate(180)"><circle cx="0" cy="225.0645770624073" r="56.266144265601824"/></g><g transform="rotate(216)"><circle cx="0" cy="225.0645770624073" r="56.266144265601824"/></g><g transform="rotate(252)"><circle cx="0" cy="225.0645770624073" r="56.266144265601824"/></g><g transform="rotate(288)"><circle cx="0" cy="225.0645770624073" r="56.266144265601824"/></g><g transform="rotate(324)"><circle cx="0" cy="225.0645770624073" r="56.266144265601824"/></g><g transform="rotate(0)"><circle cx="0" cy="266.6120061076557" r="66.65300152691393"/></g><g transform="rotate(36)"><circle cx="0" cy="266.6120061076557" r="66.65300152691393"/></g><g transform="rotate(72)"><circle cx="0" cy="266.6120061076557" r="66.65300152691393"/></g><g transform="rotate(108)"><circle cx="0" cy="266.6120061076557" r="66.65300152691393"/></g><g transform="rotate(144)"><circle cx="0" cy="266.6120061076557" r="66.65300152691393"/></g><g transform="rotate(180)"><circle cx="0" cy="266.6120061076557" r="66.65300152691393"/></g><g transform="rotate(216)"><circle cx="0" cy="266.6120061076557" r="66.65300152691393"/></g><g transform="rotate(252)"><circle cx="0" cy="266.6120061076557" r="66.65300152691393"/></g><g transform="rotate(288)"><circle cx="0" cy="266.6120061076557" r="66.65300152691393"/></g><g transform="rotate(324)"><circle cx="0" cy="266.6120061076557" r="66.65300152691393"/></g><g transform="rotate(0)"><path d="M 0 289.9445091037908 L 72.4861272759477 347.9334109245489 L 0 405.92231274530707 L -72.4861272759477 347.9334109245489 Z"/></g><g transform="rotate(36)"><path d="M 0 289.9445091037908 L 72.4861272759477 347.9334109245489 L 0 405.92231274530707 L -72.4861272759477 347.9334109245489 Z"/></g><g transform="rotate(72)"><path d="M 0 289.9445091037908 L 72.4861272759477 347.9334109245489 L 0 405.92231274530707 L -72.4861272759477 347.9334109245489 Z"/></g><g transform="rotate(108)"><path d="M 0 289.9445091037908 L 72.4861272759477 347.9334109245489 L 0 405.92231274530707 L -72.4861272759477 347.9334109245489 Z"/></g><g transform="rotate(144)"><path d="M 0 289.9445091037908 L 72.4861272759477 347.9334109245489 L 0 405.92231274530707 L -72.4861272759477 347.9334109245489 Z"/></g><g transform="rotate(180)"><path d="M 0 289.9445091037908 L 72.4861272759477 347.9334109245489 L 0 405.92231274530707 L -72.4861272759477 347.9334109245489 Z"/></g><g transform="rotate(216)"><path d="M 0 289.9445091037908 L 72.4861272759477 347.9334109245489 L 0 405.92231274530707 L -72.4861272759477 347.9334109245489 Z"/></g><g transform="rotate(252)"><path d="M 0 289.9445091037908 L 72.4861272759477 347.9334109245489 L 0 405.92231274530707 L -72.4861272759477 347.9334109245489 Z"/></g><g transform="rotate(288)"><path d="M 0 289.9445091037908 L 72.4861272759477 347.9334109245489 L 0 405.92231274530707 L -72.4861272759477 347.9334109245489 Z"/></g><g transform="rotate(324)"><path d="M 0 289.9445091037908 L 72.4861272759477 347.9334109245489 L 0 405.92231274530707 L -72.4861272759477 347.9334109245489 Z"/></g><g transform="rotate(0)"><path d="M 0 325.7271385839623 Q 108.57571286132077 390.8725663007547 0 488.59070787594345 Q -108.57571286132077 390.8725663007547 0 325.7271385839623"/></g><g transform="rotate(36)"><path d="M 0 325.7271385839623 Q 108.57571286132077 390.8725663007547 0 488.59070787594345 Q -108.57571286132077 390.8725663007547 0 325.7271385839623"/></g><g transform="rotate(72)"><path d="M 0 325.7271385839623 Q 108.57571286132077 390.8725663007547 0 488.59070787594345 Q -108.57571286132077 390.8725663007547 0 325.7271385839623"/></g><g transform="rotate(108)"><path d="M 0 325.7271385839623 Q 108.57571286132077 390.8725663007547 0 488.59070787594345 Q -108.57571286132077 390.8725663007547 0 325.7271385839623"/></g><g transform="rotate(144)"><path d="M 0 325.7271385839623 Q 108.57571286132077 390.8725663007547 0 488.59070787594345 Q -108.57571286132077 390.8725663007547 0 325.7271385839623"/></g><g transform="rotate(180)"><path d="M 0 325.7271385839623 Q 108.57571286132077 390.8725663007547 0 488.59070787594345 Q -108.57571286132077 390.8725663007547 0 325.7271385839623"/></g><g transform="rotate(216)"><path d="M 0 325.7271385839623 Q 108.57571286132077 390.8725663007547 0 488.59070787594345 Q -108.57571286132077 390.8725663007547 0 325.7271385839623"/></g><g transform="rotate(252)"><path d="M 0 325.7271385839623 Q 108.57571286132077 390.8725663007547 0 488.59070787594345 Q -108.57571286132077 390.8725663007547 0 325.7271385839623"/></g><g transform="rotate(288)"><path d="M 0 325.7271385839623 Q 108.57571286132077 390.8725663007547 0 488.59070787594345 Q -108.57571286132077 390.8725663007547 0 325.7271385839623"/></g><g transform="rotate(324)"><path d="M 0 325.7271385839623 Q 108.57571286132077 390.8725663007547 0 488.59070787594345 Q -108.57571286132077 390.8725663007547 0 325.7271385839623"/></g></g></svg>