<svg xmlns="http://www.w3.org/2000/svg" viewBox="0 0 800 800" width="800" height="800">
    <rect width="100%" height="100%" fill="white"/>
    <g transform="translate(400, 400)" fill="none" stroke="black" stroke-width="4" stroke-linecap="round" stroke-linejoin="round"><g transform="rotate(0)"><path d="M 0 56.80010012816638 L 14.200025032041594 68.16012015379965 L 0 79.52014017943293 L -14.200025032041594 68.16012015379965 Z"/></g><g transform="rotate(22.5)"><path d="M 0 56.80010012816638 L 14.200025032041594 68.16012015379965 L 0 79.52014017943293 L -14.200025032041594 68.16012015379965 Z"/></g><g transform="rotate(45)"><path d="M 0 56.80010012816638 L 14.200025032041594 68.16012015379965 L 0 79.52014017943293 L -14.200025032041594 68.16012015379965 Z"/></g><g transform="rotate(67.5)"><path d="M 0 56.80010012816638 L 14.200025032041594 68.16012015379965 L 0 79.52014017943293 L -14.200025032041594 68.16012015379965 Z"/></g><g transform="rotate(90)"><path d="M 0 56.80010012816638 L 14.200025032041594 68.16012015379965 L 0 79.52014017943293 L -14.200025032041594 68.16012015379965 Z"/></g><g transform="rotate(112.5)"><path d="M 0 56.80010012816638 L 14.200025032041594 68.16012015379965 L 0 79.52014017943293 L -14.200025032041594 68.16012015379965 Z"/></g><g transform="rotate(135)"><path d="M 0 56.80010012816638 L 14.200025032041594 68.16012015379965 L 0 79.52014017943293 L -14.200025032041594 68.16012015379965 Z"/></g><g transform="rotate(157.5)"><path d="M 0 56.80010012816638 L 14.200025032041594 68.16012015379965 L 0 79.52014017943293 L -14.200025032041594 68.16012015379965 Z"/></g><g transform="rotate(180)"><path d="M 0 56.80010012816638 L 14.200025032041594 68.16012015379965 L 0 79.52014017943293 L -14.200025032041594 68.16012015379965 Z"/></g><g transform="rotate(202.5)"><path d="M 0 56.80010012816638 L 14.200025032041594 68.16012015379965 L 0 79.52014017943293 L -14.200025032041594 68.16012015379965 Z"/></g><g transform="rotate(225)"><path d="M 0 56.80010012816638 L 14.200025032041594 68.16012015379965 L 0 79.52014017943293 L -14.200025032041594 68.16012015379965 Z"/></g><g transform="rotate(247.5)"><path d="M 0 56.80010012816638 L 14.200025032041594 68.16012015379965 L 0 79.52014017943293 L -14.200025032041594 68.16012015379965 Z"/></g><g transform="rotate(270)"><path d="M 0 56.80010012816638 L 14.200025032041594 68.16012015379965 L 0 79.52014017943293 L -14.200025032041594 68.16012015379965 Z"/></g><g transform="rotate(292.5)"><path d="M 0 56.80010012816638 L 14.200025032041594 68.16012015379965 L 0 79.52014017943293 L -14.200025032041594 68.16012015379965 Z"/></g><g transform="rotate(315)"><path d="M 0 56.80010012816638 L 14.200025032041594 68.16012015379965 L 0 79.52014017943293 L -14.200025032041594 68.16012015379965 Z"/></g><g transform="rotate(337.5)"><path d="M 0 56.80010012816638 L 14.200025032041594 68.16012015379965 L 0 79.52014017943293 L -14.200025032041594 68.16012015379965 Z"/></g><g transform="rotate(0)"><path d="M -23.006782904396662 92.02713161758665 Q 0 110.43255794110398 23.006782904396662 92.02713161758665"/></g><g transform="rotate(22.5)"><path d="M -23.006782904396662 92.02713161758665 Q 0 110.43255794110398 23.006782904396662 92.02713161758665"/></g><g transform="rotate(45)"><path d="M -23.006782904396662 92.02713161758665 Q 0 110.43255794110398 23.006782904396662 92.02713161758665"/></g><g transform="rotate(67.5)"><path d="M -23.006782904396662 92.02713161758665 Q 0 110.43255794110398 23.006782904396662 92.02713161758665"/></g><g transform="rotate(90)"><path d="M -23.006782904396662 92.02713161758665 Q 0 110.43255794110398 23.006782904396662 92.02713161758665"/></g><g transform="rotate(112.5)"><path d="M -23.006782904396662 92.02713161758665 Q 0 110.43255794110398 23.006782904396662 92.02713161758665"/></g><g transform="rotate(135)"><path d="M -23.006782904396662 92.02713161758665 Q 0 110.43255794110398 23.006782904396662 92.02713161758665"/></g><g transform="rotate(157.5)"><path d="M -23.006782904396662 92.02713161758665 Q 0 110.43255794110398 23.006782904396662 92.02713161758665"/></g><g transform="rotate(180)"><path d="M -23.006782904396662 92.02713161758665 Q 0 110.43255794110398 23.006782904396662 92.02713161758665"/></g><g transform="rotate(202.5)"><path d="M -23.006782904396662 92.02713161758665 Q 0 110.43255794110398 23.006782904396662 92.02713161758665"/></g><g transform="rotate(225)"><path d="M -23.006782904396662 92.02713161758665 Q 0 110.43255794110398 23.006782904396662 92.02713161758665"/></g><g transform="rotate(247.5)"><path d="M -23.006782904396662 92.02713161758665 Q 0 110.43255794110398 23.006782904396662 92.02713161758665"/></g><g transform="rotate(270)"><path d="M -23.006782904396662 92.02713161758665 Q 0 110.43255794110398 23.006782904396662 92.02713161758665"/></g><g transform="rotate(292.5)"><path d="M -23.006782904396662 92.02713161758665 Q 0 110.43255794110398 23.006782904396662 92.02713161758665"/></g><g transform="rotate(315)"><path d="M -23.006782904396662 92.02713161758665 Q 0 110.43255794110398 23.006782904396662 92.02713161758665"/></g><g transform="rotate(337.5)"><path d="M -23.006782904396662 92.02713161758665 Q 0 110.43255794110398 23.006782904396662 92.02713161758665"/></g><g transform="rotate(0)"><path d="M 0 124.05296281549252 Q 41.35098760516417 148.86355537859103 0 186.0794442232388 Q -41.35098760516417 148.86355537859103 0 124.05296281549252"/></g><g transform="rotate(22.5)"><path d="M 0 124.05296281549252 Q 41.35098760516417 148.86355537859103 0 186.0794442232388 Q -41.35098760516417 148.86355537859103 0 124.05296281549252"/></g><g transform="rotate(45)"><path d="M 0 124.05296281549252 Q 41.35098760516417 148.86355537859103 0 186.0794442232388 Q -41.35098760516417 148.86355537859103 0 124.05296281549252"/></g><g transform="rotate(67.5)"><path d="M 0 124.05296281549252 Q 41.35098760516417 148.86355537859103 0 186.0794442232388 Q -41.35098760516417 148.86355537859103 0 124.05296281549252"/></g><g transform="rotate(90)"><path d="M 0 124.05296281549252 Q 41.35098760516417 148.86355537859103 0 186.0794442232388 Q -41.35098760516417 148.86355537859103 0 124.05296281549252"/></g><g transform="rotate(112.5)"><path d="M 0 124.05296281549252 Q 41.35098760516417 148.86355537859103 0 186.0794442232388 Q -41.35098760516417 148.86355537859103 0 124.05296281549252"/></g><g transform="rotate(135)"><path d="M 0 124.05296281549252 Q 41.35098760516417 148.86355537859103 0 186.0794442232388 Q -41.35098760516417 148.86355537859103 0 124.05296281549252"/></g><g transform="rotate(157.5)"><path d="M 0 124.05296281549252 Q 41.35098760516417 148.86355537859103 0 186.0794442232388 Q -41.35098760516417 148.86355537859103 0 124.05296281549252"/></g><g transform="rotate(180)"><path d="M 0 124.05296281549252 Q 41.35098760516417 148.86355537859103 0 186.0794442232388 Q -41.35098760516417 148.86355537859103 0 124.05296281549252"/></g><g transform="rotate(202.5)"><path d="M 0 124.05296281549252 Q 41.35098760516417 148.86355537859103 0 186.0794442232388 Q -41.35098760516417 148.86355537859103 0 124.05296281549252"/></g><g transform="rotate(225)"><path d="M 0 124.05296281549252 Q 41.35098760516417 148.86355537859103 0 186.0794442232388 Q -41.35098760516417 148.86355537859103 0 124.05296281549252"/></g><g transform="rotate(247.5)"><path d="M 0 124.05296281549252 Q 41.35098760516417 148.86355537859103 0 186.0794442232388 Q -41.35098760516417 148.86355537859103 0 124.05296281549252"/></g><g transform="rotate(270)"><path d="M 0 124.05296281549252 Q 41.35098760516417 148.86355537859103 0 186.0794442232388 Q -41.35098760516417 148.86355537859103 0 124.05296281549252"/></g><g transform="rotate(292.5)"><path d="M 0 124.05296281549252 Q 41.35098760516417 148.86355537859103 0 186.0794442232388 Q -41.35098760516417 148.86355537859103 0 124.05296281549252"/></g><g transform="rotate(315)"><path d="M 0 124.05296281549252 Q 41.35098760516417 148.86355537859103 0 186.0794442232388 Q -41.35098760516417 148.86355537859103 0 124.05296281549252"/></g><g transform="rotate(337.5)"><path d="M 0 124.05296281549252 Q 41.35098760516417 148.86355537859103 0 186.0794442232388 Q -41.35098760516417 148.86355537859103 0 124.05296281549252"/></g><g transform="rotate(0)"><path d="M 0 162.86761650039506 L 40.716904125098765 195.44113980047408 L 0 228.01466310055307 L -40.716904125098765 195.44113980047408 Z"/></g><g transform="rotate(22.5)"><path d="M 0 162.86761650039506 L 40.716904125098765 195.44113980047408 L 0 228.01466310055307 L -40.716904125098765 195.44113980047408 Z"/></g><g transform="rotate(45)"><path d="M 0 162.86761650039506 L 40.716904125098765 195.44113980047408 L 0 228.01466310055307 L -40.716904125098765 195.44113980047408 Z"/></g><g transform="rotate(67.5)"><path d="M 0 162.86761650039506 L 40.716904125098765 195.44113980047408 L 0 228.01466310055307 L -40.716904125098765 195.44113980047408 Z"/></g><g transform="rotate(90)"><path d="M 0 162.86761650039506 L 40.716904125098765 195.44113980047408 L 0 228.01466310055307 L -40.716904125098765 195.44113980047408 Z"/></g><g transform="rotate(112.5)"><path d="M 0 162.86761650039506 L 40.716904125098765 195.44113980047408 L 0 228.01466310055307 L -40.716904125098765 195.44113980047408 Z"/></g><g transform="rotate(135)"><path d="M 0 162.86761650039506 L 40.716904125098765 195.44113980047408 L 0 228.01466310055307 L -40.716904125098765 195.44113980047408 Z"/></g><g transform="rotate(157.5)"><path d="M 0 162.86761650039506 L 40.716904125098765 195.44113980047408 L 0 228.01466310055307 L -40.716904125098765 195.44113980047408 Z"/></g><g transform="rotate(180)"><path d="M 0 162.86761650039506 L 40.716904125098765 195.44113980047408 L 0 228.01466310055307 L -40.716904125098765 195.44113980047408 Z"/></g><g transform="rotate(202.5)"><path d="M 0 162.86761650039506 L 40.716904125098765 195.44113980047408 L 0 228.01466310055307 L -40.716904125098765 195.44113980047408 Z"/></g><g transform="rotate(225)"><path d="M 0 162.86761650039506 L 40.716904125098765 195.44113980047408 L 0 228.01466310055307 L -40.716904125098765 195.44113980047408 Z"/></g><g transform="rotate(247.5)"><path d="M 0 162.86761650039506 L 40.716904125098765 195.44113980047408 L 0 228.01466310055307 L -40.716904125098765 195.44113980047408 Z"/></g><g transform="rotate(270)"><path d="M 0 162.86761650039506 L 40.716904125098765 195.44113980047408 L 0 228.01466310055307 L -40.716904125098765 195.44113980047408 Z"/></g><g transform="rotate(292.5)"><path d="M 0 162.86761650039506 L 40.716904125098765 195.44113980047408 L 0 228.01466310055307 L -40.716904125098765 195.44113980047408 Z"/></g><g transform="rotate(315)"><path d="M 0 162.86761650039506 L 40.716904125098765 195.44113980047408 L 0 228.01466310055307 L -40.716904125098765 195.44113980047408 Z"/></g><g transform="rotate(337.5)"><path d="M 0 162.86761650039506 L 40.716904125098765 195.44113980047408 L 0 228.01466310055307 L -40.716904125098765 195.44113980047408 Z"/></g><g transform="rotate(0)"><circle cx="0" cy="195.23892173284872" r="48.80973043321218"/></g><g transform="rotate(22.5)"><circle cx="0" cy="195.23892173284872" r="48.80973043321218"/></g><g transform="rotate(45)"><circle cx="0" cy="195.23892173284872" r="48.80973043321218"/></g><g transform="rotate(67.5)"><circle cx="0" cy="195.23892173284872" r="48.80973043321218"/></g><g transform="rotate(90)"><circle cx="0" cy="195.23892173284872" r="48.80973043321218"/></g><g transform="rotate(112.5)"><circle cx="0" cy="195.23892173284872" r="48.80973043321218"/></g><g transform="rotate(135)"><circle cx="0" cy="195.23892173284872" r="48.80973043321218"/></g><g transform="rotate(157.5)"><circle cx="0" cy="195.23892173284872" r="48.80973043321218"/></g><g transform="rotate(180)"><circle cx="0" cy="195.23892173284872" r="48.80973043321218"/></g><g transform="rotate(202.5)"><circle cx="0" cy="195.23892173284872" r="48.80973043321218"/></g><g transform="rotate(225)"><circle cx="0" cy="195.23892173284872" r="48.80973043321218"/></g><g transform="rotate(247.5)"><circle cx="0" cy="195.23892173284872" r="48.80973043321218"/></g><g transform="rotate(270)"><circle cx="0" cy="195.23892173284872" r="48.80973043321218"/></g><g transform="rotate(292.5)"><circle cx="0" cy="195.23892173284872" r="48.80973043321218"/></g><g transform="rotate(315)"><circle cx="0" cy="195.23892173284872" r="48.80973043321218"/></g><g transform="rotate(337.5)"><circle cx="0" cy="195.23892173284872" r="48.80973043321218"/></g><g transform="rotate(0)"><path d="M -57.94438098156307 231.7775239262523 Q 0 278.13302871150273 57.94438098156307 231.7775239262523"/></g><g transform="rotate(22.5)"><path d="M -57.94438098156307 231.7775239262523 Q 0 278.13302871150273 57.94438098156307 231.7775239262523"/></g><g transform="rotate(45)"><path d="M -57.94438098156307 231.7775239262523 Q 0 278.13302871150273 57.94438098156307 231.7775239262523"/></g><g transform="rotate(67.5)"><path d="M -57.94438098156307 231.7775239262523 Q 0 278.13302871150273 57.94438098156307 231.7775239262523"/></g><g transform="rotate(90)"><path d="M -57.94438098156307 231.7775239262523 Q 0 278.13302871150273 57.94438098156307 231.7775239262523"/></g><g transform="rotate(112.5)"><path d="M -57.94438098156307 231.7775239262523 Q 0 278.13302871150273 57.94438098156307 231.7775239262523"/></g><g transform="rotate(135)"><path d="M -57.94438098156307 231.7775239262523 Q 0 278.13302871150273 57.94438098156307 231.7775239262523"/></g><g transform="rotate(157.5)"><path d="M -57.94438098156307 231.7775239262523 Q 0 278.13302871150273 57.94438098156307 231.7775239262523"/></g><g transform="rotate(180)"><path d="M -57.94438098156307 231.7775239262523 Q 0 278.13302871150273 57.94438098156307 231.7775239262523"/></g><g transform="rotate(202.5)"><path d="M -57.94438098156307 231.7775239262523 Q 0 278.13302871150273 57.94438098156307 231.7775239262523"/></g><g transform="rotate(225)"><path d="M -57.94438098156307 231.7775239262523 Q 0 278.13302871150273 57.94438098156307 231.7775239262523"/></g><g transform="rotate(247.5)"><path d="M -57.94438098156307 231.7775239262523 Q 0 278.13302871150273 57.94438098156307 231.7775239262523"/></g><g transform="rotate(270)"><path d="M -57.94438098156307 231.7775239262523 Q 0 278.13302871150273 57.94438098156307 231.7775239262523"/></g><g transform="rotate(292.5)"><path d="M -57.94438098156307 231.7775239262523 Q 0 278.13302871150273 57.94438098156307 231.7775239262523"/></g><g transform="rotate(315)"><path d="M -57.94438098156307 231.7775239262523 Q 0 278.13302871150273 57.94438098156307 231.7775239262523"/></g><g transform="rotate(337.5)"><path d="M -57.94438098156307 231.7775239262523 Q 0 278.13302871150273 57.94438098156307 231.7775239262523"/></g><g transform="rotate(0)"><circle cx="0" cy="256.0407743121808" r="64.0101935780452"/></g><g transform="rotate(22.5)"><circle cx="0" cy="256.0407743121808" r="64.0101935780452"/></g><g transform="rotate(45)"><circle cx="0" cy="256.0407743121808" r="64.0101935780452"/></g><g transform="rotate(67.5)"><circle cx="0" cy="256.0407743121808" r="64.0101935780452"/></g><g transform="rotate(90)"><circle cx="0" cy="256.0407743121808" r="64.0101935780452"/></g><g transform="rotate(112.5)"><circle cx="0" cy="256.0407743121808" r="64.0101935780452"/></g><g transform="rotate(135)"><circle cx="0" cy="256.0407743121808" r="64.0101935780452"/></g><g transform="rotate(157.5)"><circle cx="0" cy="256.0407743121808" r="64.0101935780452"/></g><g transform="rotate(180)"><circle cx="0" cy="256.0407743121808" r="64.0101935780452"/></g><g transform="rotate(202.5)"><circle cx="0" cy="256.0407743121808" r="64.0101935780452"/></g><g transform="rotate(225)"><circle cx="0" cy="256.0407743121808" r="64.0101935780452"/></g><g transform="rotate(247.5)"><circle cx="0" cy="256.0407743121808" r="64.0101935780452"/></g><g transform="rotate(270)"><circle cx="0" cy="256.0407743121808" r="64.0101935780452"/></g><g transform="rotate(292.5)"><circle cx="0" cy="256.0407743121808" r="64.0101935780452"/></g><g transform="rotate(315)"><circle cx="0" cy="256.0407743121808" r="64.0101935780452"/></g><g transform="rotate(337.5)"><circle cx="0" cy="256.0407743121808" r="64.0101935780452"/></g><g transform="rotate(0)"><circle cx="0" cy="297.89473708149876" r="74.47368427037469"/></g><g transform="rotate(22.5)"><circle cx="0" cy="297.89473708149876" r="74.47368427037469"/></g><g transform="rotate(45)"><circle cx="0" cy="297.89473708149876" r="74.47368427037469"/></g><g transform="rotate(67.5)"><circle cx="0" cy="297.89473708149876" r="74.47368427037469"/></g><g transform="rotate(90)"><circle cx="0" cy="297.89473708149876" r="74.47368427037469"/></g><g transform="rotate(112.5)"><circle cx="0" cy="297.89473708149876" r="74.47368427037469"/></g><g transform="rotate(135)"><circle cx="0" cy="297.89473708149876" r="74.47368427037469"/></g><g transform="rotate(157.5)"><circle cx="0" cy="297.89473708149876" r="74.47368427037469"/></g><g transform="rotate(180)"><circle cx="0" cy="297.89473708149876" r="74.47368427037469"/></g><g transform="rotate(202.5)"><circle cx="0" cy="297.89473708149876" r="74.47368427037469"/></g><g transform="rotate(225)"><circle cx="0" cy="297.89473708149876" r="74.47368427037469"/></g><g transform="rotate(247.5)"><circle cx="0" cy="297.89473708149876" r="74.47368427037469"/></g><g transform="rotate(270)"><circle cx="0" cy="297.89473708149876" r="74.47368427037469"/></g><g transform="rotate(292.5)"><circle cx="0" cy="297.89473708149876" r="74.47368427037469"/></g><g transform="rotate(315)"><circle cx="0" cy="297.89473708149876" r="74.47368427037469"/></g><g transform="rotate(337.5)"><circle cx="0" cy="297.89473708149876" r="74.47368427037469"/></g><g transform="rotate(0)"><path d="M -83.4213959331262 333.6855837325048 Q 0 400.42270047900575 83.4213959331262 333.6855837325048"/></g><g transform="rotate(22.5)"><path d="M -83.4213959331262 333.6855837325048 Q 0 400.42270047900575 83.4213959331262 333.6855837325048"/></g><g transform="rotate(45)"><path d="M -83.4213959331262 333.6855837325048 Q 0 400.42270047900575 83.4213959331262 333.6855837325048"/></g><g transform="rotate(67.5)"><path d="M -83.4213959331262 333.6855837325048 Q 0 400.42270047900575 83.4213959331262 333.6855837325048"/></g><g transform="rotate(90)"><path d="M -83.4213959331262 333.6855837325048 Q 0 400.42270047900575 83.4213959331262 333.6855837325048"/></g><g transform="rotate(112.5)"><path d="M -83.4213959331262 333.6855837325048 Q 0 400.42270047900575 83.4213959331262 333.6855837325048"/></g><g transform="rotate(135)"><path d="M -83.4213959331262 333.6855837325048 Q 0 400.42270047900575 83.4213959331262 333.6855837325048"/></g><g transform="rotate(157.5)"><path d="M -83.4213959331262 333.6855837325048 Q 0 400.42270047900575 83.4213959331262 333.6855837325048"/></g><g transform="rotate(180)"><path d="M -83.4213959331262 333.6855837325048 Q 0 400.42270047900575 83.4213959331262 333.6855837325048"/></g><g transform="rotate(202.5)"><path d="M -83.4213959331262 333.6855837325048 Q 0 400.42270047900575 83.4213959331262 333.6855837325048"/></g><g transform="rotate(225)"><path d="M -83.4213959331262 333.6855837325048 Q 0 400.42270047900575 83.4213959331262 333.6855837325048"/></g><g transform="rotate(247.5)"><path d="M -83.4213959331262 333.6855837325048 Q 0 400.42270047900575 83.4213959331262 333.6855837325048"/></g><g transform="rotate(270)"><path d="M -83.4213959331262 333.6855837325048 Q 0 400.42270047900575 83.4213959331262 333.6855837325048"/></g><g transform="rotate(292.5)"><path d="M -83.4213959331262 333.6855837325048 Q 0 400.42270047900575 83.4213959331262 333.6855837325048"/></g><g transform="rotate(315)"><path d="M -83.4213959331262 333.6855837325048 Q 0 400.42270047900575 83.4213959331262 333.6855837325048"/></g><g transform="rotate(337.5)"><path d="M -83.4213959331262 333.6855837325048 Q 0 400.42270047900575 83.4213959331262 333.6855837325048"/></g></g></svg>