<svg xmlns="http://www.w3.org/2000/svg" viewBox="0 0 800 800" width="800" height="800">
    <rect width="100%" height="100%" fill="white"/>
    <g transform="translate(400, 400)" fill="none" stroke="black" stroke-width="4" stroke-linecap="round" stroke-linejoin="round"><g transform="rotate(0)"><path d="M 0 45.54026904515922 Q 15.18008968171974 54.648322854191065 0 68.31040356773883 Q -15.18008968171974 54.648322854191065 0 45.54026904515922"/></g><g transform="rotate(30)"><path d="M 0 45.54026904515922 Q 15.18008968171974 54.648322854191065 0 68.31040356773883 Q -15.18008968171974 54.648322854191065 0 45.54026904515922"/></g><g transform="rotate(60)"><path d="M 0 45.54026904515922 Q 15.18008968171974 54.648322854191065 0 68.31040356773883 Q -15.18008968171974 54.648322854191065 0 45.54026904515922"/></g><g transform="rotate(90)"><path d="M 0 45.54026904515922 Q 15.18008968171974 54.648322854191065 0 68.31040356773883 Q -15.18008968171974 54.648322854191065 0 45.54026904515922"/></g><g transform="rotate(120)"><path d="M 0 45.54026904515922 Q 15.18008968171974 54.648322854191065 0 68.31040356773883 Q -15.18008968171974 54.648322854191065 0 45.54026904515922"/></g><g transform="rotate(150)"><path d="M 0 45.54026904515922 Q 15.18008968171974 54.648322854191065 0 68.31040356773883 Q -15.18008968171974 54.648322854191065 0 45.54026904515922"/></g><g transform="rotate(180)"><path d="M 0 45.54026904515922 Q 15.18008968171974 54.648322854191065 0 68.31040356773883 Q -15.18008968171974 54.648322854191065 0 45.54026904515922"/></g><g transform="rotate(210)"><path d="M 0 45.54026904515922 Q 15.18008968171974 54.648322854191065 0 68.31040356773883 Q -15.18008968171974 54.648322854191065 0 45.54026904515922"/></g><g transform="rotate(240)"><path d="M 0 45.54026904515922 Q 15.18008968171974 54.648322854191065 0 68.31040356773883 Q -15.18008968171974 54.648322854191065 0 45.54026904515922"/></g><g transform="rotate(270)"><path d="M 0 45.54026904515922 Q 15.18008968171974 54.648322854191065 0 68.31040356773883 Q -15.18008968171974 54.648322854191065 0 45.54026904515922"/></g><g transform="rotate(300)"><path d="M 0 45.54026904515922 Q 15.18008968171974 54.648322854191065 0 68.31040356773883 Q -15.18008968171974 54.648322854191065 0 45.54026904515922"/></g><g transform="rotate(330)"><path d="M 0 45.54026904515922 Q 15.18008968171974 54.648322854191065 0 68.31040356773883 Q -15.18008968171974 54.648322854191065 0 45.54026904515922"/></g><g transform="rotate(0)"><path d="M -20.77866186387837 83.11464745551348 Q 0 99.73757694661617 20.77866186387837 83.11464745551348"/></g><g transform="rotate(30)"><path d="M -20.77866186387837 83.11464745551348 Q 0 99.73757694661617 20.77866186387837 83.11464745551348"/></g><g transform="rotate(60)"><path d="M -20.77866186387837 83.11464745551348 Q 0 99.73757694661617 20.77866186387837 83.11464745551348"/></g><g transform="rotate(90)"><path d="M -20.77866186387837 83.11464745551348 Q 0 99.73757694661617 20.77866186387837 83.11464745551348"/></g><g transform="rotate(120)"><path d="M -20.77866186387837 83.11464745551348 Q 0 99.73757694661617 20.77866186387837 83.11464745551348"/></g><g transform="rotate(150)"><path d="M -20.77866186387837 83.11464745551348 Q 0 99.73757694661617 20.77866186387837 83.11464745551348"/></g><g transform="rotate(180)"><path d="M -20.77866186387837 83.11464745551348 Q 0 99.73757694661617 20.77866186387837 83.11464745551348"/></g><g transform="rotate(210)"><path d="M -20.77866186387837 83.11464745551348 Q 0 99.73757694661617 20.77866186387837 83.11464745551348"/></g><g transform="rotate(240)"><path d="M -20.77866186387837 83.11464745551348 Q 0 99.73757694661617 20.77866186387837 83.11464745551348"/></g><g transform="rotate(270)"><path d="M -20.77866186387837 83.11464745551348 Q 0 99.73757694661617 20.77866186387837 83.11464745551348"/></g><g transform="rotate(300)"><path d="M -20.77866186387837 83.11464745551348 Q 0 99.73757694661617 20.77866186387837 83.11464745551348"/></g><g transform="rotate(330)"><path d="M -20.77866186387837 83.11464745551348 Q 0 99.73757694661617 20.77866186387837 83.11464745551348"/></g><g transform="rotate(0)"><path d="M 0 135.994724156335 Q 45.331574718778334 163.193668987602 0 203.9920862345025 Q -45.331574718778334 163.193668987602 0 135.994724156335"/></g><g transform="rotate(30)"><path d="M 0 135.994724156335 Q 45.331574718778334 163.193668987602 0 203.9920862345025 Q -45.331574718778334 163.193668987602 0 135.994724156335"/></g><g transform="rotate(60)"><path d="M 0 135.994724156335 Q 45.331574718778334 163.193668987602 0 203.9920862345025 Q -45.331574718778334 163.193668987602 0 135.994724156335"/></g><g transform="rotate(90)"><path d="M 0 135.994724156335 Q 45.331574718778334 163.193668987602 0 203.9920862345025 Q -45.331574718778334 163.193668987602 0 135.994724156335"/></g><g transform="rotate(120)"><path d="M 0 135.994724156335 Q 45.331574718778334 163.193668987602 0 203.9920862345025 Q -45.331574718778334 163.193668987602 0 135.994724156335"/></g><g transform="rotate(150)"><path d="M 0 135.994724156335 Q 45.331574718778334 163.193668987602 0 203.9920862345025 Q -45.331574718778334 163.193668987602 0 135.994724156335"/></g><g transform="rotate(180)"><path d="M 0 135.994724156335 Q 45.331574718778334 163.193668987602 0 203.9920862345025 Q -45.331574718778334 163.193668987602 0 135.994724156335"/></g><g transform="rotate(210)"><path d="M 0 135.994724156335 Q 45.331574718778334 163.193668987602 0 203.9920862345025 Q -45.331574718778334 163.193668987602 0 135.994724156335"/></g><g transform="rotate(240)"><path d="M 0 135.994724156335 Q 45.331574718778334 163.193668987602 0 203.9920862345025 Q -45.331574718778334 163.193668987602 0 135.994724156335"/></g><g transform="rotate(270)"><path d="M 0 135.994724156335 Q 45.331574718778334 163.193668987602 0 203.9920862345025 Q -45.331574718778334 163.193668987602 0 135.994724156335"/></g><g transform="rotate(300)"><path d="M 0 135.994724156335 Q 45.331574718778334 163.193668987602 0 203.9920862345025 Q -45.331574718778334 163.193668987602 0 135.994724156335"/></g><g transform="rotate(330)"><path d="M 0 135.994724156335 Q 45.331574718778334 163.193668987602 0 203.9920862345025 Q -45.331574718778334 163.193668987602 0 135.994724156335"/></g><g transform="rotate(0)"><path d="M 0 176.71113653108478 L 44.177784132771194 212.05336383730173 L 0 247.39559114351866 L -44.177784132771194 212.05336383730173 Z"/></g><g transform="rotate(30)"><path d="M 0 176.71113653108478 L 44.177784132771194 212.05336383730173 L 0 247.39559114351866 L -44.177784132771194 212.05336383730173 Z"/></g><g transform="rotate(60)"><path d="M 0 176.71113653108478 L 44.177784132771194 212.05336383730173 L 0 247.39559114351866 L -44.177784132771194 212.05336383730173 Z"/></g><g transform="rotate(90)"><path d="M 0 176.71113653108478 L 44.177784132771194 212.05336383730173 L 0 247.39559114351866 L -44.177784132771194 212.05336383730173 Z"/></g><g transform="rotate(120)"><path d="M 0 176.71113653108478 L 44.177784132771194 212.05336383730173 L 0 247.39559114351866 L -44.177784132771194 212.05336383730173 Z"/></g><g transform="rotate(150)"><path d="M 0 176.71113653108478 L 44.177784132771194 212.05336383730173 L 0 247.39559114351866 L -44.177784132771194 212.05336383730173 Z"/></g><g transform="rotate(180)"><path d="M 0 176.71113653108478 L 44.177784132771194 212.05336383730173 L 0 247.39559114351866 L -44.177784132771194 212.05336383730173 Z"/></g><g transform="rotate(210)"><path d="M 0 176.71113653108478 L 44.177784132771194 212.05336383730173 L 0 247.39559114351866 L -44.177784132771194 212.05336383730173 Z"/></g><g transform="rotate(240)"><path d="M 0 176.71113653108478 L 44.177784132771194 212.05336383730173 L 0 247.39559114351866 L -44.177784132771194 212.05336383730173 Z"/></g><g transform="rotate(270)"><path d="M 0 176.71113653108478 L 44.177784132771194 212.05336383730173 L 0 247.39559114351866 L -44.177784132771194 212.05336383730173 Z"/></g><g transform="rotate(300)"><path d="M 0 176.71113653108478 L 44.177784132771194 212.05336383730173 L 0 247.39559114351866 L -44.177784132771194 212.05336383730173 Z"/></g><g transform="rotate(330)"><path d="M 0 176.71113653108478 L 44.177784132771194 212.05336383730173 L 0 247.39559114351866 L -44.177784132771194 212.05336383730173 Z"/></g><g transform="rotate(0)"><path d="M 0 214.20075765810907 Q 71.40025255270302 257.0409091897309 0 321.3011364871636 Q -71.40025255270302 257.0409091897309 0 214.20075765810907"/></g><g transform="rotate(30)"><path d="M 0 214.20075765810907 Q 71.40025255270302 257.0409091897309 0 321.3011364871636 Q -71.40025255270302 257.0409091897309 0 214.20075765810907"/></g><g transform="rotate(60)"><path d="M 0 214.20075765810907 Q 71.40025255270302 257.0409091897309 0 321.3011364871636 Q -71.40025255270302 257.0409091897309 0 214.20075765810907"/></g><g transform="rotate(90)"><path d="M 0 214.20075765810907 Q 71.40025255270302 257.0409091897309 0 321.3011364871636 Q -71.40025255270302 257.0409091897309 0 214.20075765810907"/></g><g transform="rotate(120)"><path d="M 0 214.20075765810907 Q 71.40025255270302 257.0409091897309 0 321.3011364871636 Q -71.40025255270302 257.0409091897309 0 214.20075765810907"/></g><g transform="rotate(150)"><path d="M 0 214.20075765810907 Q 71.40025255270302 257.0409091897309 0 321.3011364871636 Q -71.40025255270302 257.0409091897309 0 214.20075765810907"/></g><g transform="rotate(180)"><path d="M 0 214.20075765810907 Q 71.40025255270302 257.0409091897309 0 321.3011364871636 Q -71.40025255270302 257.0409091897309 0 214.20075765810907"/></g><g transform="rotate(210)"><path d="M 0 214.20075765810907 Q 71.40025255270302 257.0409091897309 0 321.3011364871636 Q -71.40025255270302 257.0409091897309 0 214.20075765810907"/></g><g transform="rotate(240)"><path d="M 0 214.20075765810907 Q 71.40025255270302 257.0409091897309 0 321.3011364871636 Q -71.40025255270302 257.0409091897309 0 214.20075765810907"/></g><g transform="rotate(270)"><path d="M 0 214.20075765810907 Q 71.40025255270302 257.0409091897309 0 321.3011364871636 Q -71.40025255270302 257.0409091897309 0 214.20075765810907"/></g><g transform="rotate(300)"><path d="M 0 214.20075765810907 Q 71.40025255270302 257.0409091897309 0 321.3011364871636 Q -71.40025255270302 257.0409091897309 0 214.20075765810907"/></g><g transform="rotate(330)"><path d="M 0 214.20075765810907 Q 71.40025255270302 257.0409091897309 0 321.3011364871636 Q -71.40025255270302 257.0409091897309 0 214.20075765810907"/></g><g transform="rotate(0)"><path d="M 0 257.21737898886204 Q 85.73912632962067 308.66085478663445 0 385.82606848329306 Q -85.73912632962067 308.66085478663445 0 257.21737898886204"/></g><g transform="rotate(30)"><path d="M 0 257.21737898886204 Q 85.73912632962067 308.66085478663445 0 385.82606848329306 Q -85.73912632962067 308.66085478663445 0 257.21737898886204"/></g><g transform="rotate(60)"><path d="M 0 257.21737898886204 Q 85.73912632962067 308.66085478663445 0 385.82606848329306 Q -85.73912632962067 308.66085478663445 0 257.21737898886204"/></g><g transform="rotate(90)"><path d="M 0 257.21737898886204 Q 85.73912632962067 308.66085478663445 0 385.82606848329306 Q -85.73912632962067 308.66085478663445 0 257.21737898886204"/></g><g transform="rotate(120)"><path d="M 0 257.21737898886204 Q 85.73912632962067 308.66085478663445 0 385.82606848329306 Q -85.73912632962067 308.66085478663445 0 257.21737898886204"/></g><g transform="rotate(150)"><path d="M 0 257.21737898886204 Q 85.73912632962067 308.66085478663445 0 385.82606848329306 Q -85.73912632962067 308.66085478663445 0 257.21737898886204"/></g><g transform="rotate(180)"><path d="M 0 257.21737898886204 Q 85.73912632962067 308.66085478663445 0 385.82606848329306 Q -85.73912632962067 308.66085478663445 0 257.21737898886204"/></g><g transform="rotate(210)"><path d="M 0 257.21737898886204 Q 85.73912632962067 308.66085478663445 0 385.82606848329306 Q -85.73912632962067 308.66085478663445 0 257.21737898886204"/></g><g transform="rotate(240)"><path d="M 0 257.21737898886204 Q 85.73912632962067 308.66085478663445 0 385.82606848329306 Q -85.73912632962067 308.66085478663445 0 257.21737898886204"/></g><g transform="rotate(270)"><path d="M 0 257.21737898886204 Q 85.73912632962067 308.66085478663445 0 385.82606848329306 Q -85.73912632962067 308.66085478663445 0 257.21737898886204"/></g><g transform="rotate(300)"><path d="M 0 257.21737898886204 Q 85.73912632962067 308.66085478663445 0 385.82606848329306 Q -85.73912632962067 308.66085478663445 0 257.21737898886204"/></g><g transform="rotate(330)"><path d="M 0 257.21737898886204 Q 85.73912632962067 308.66085478663445 0 385.82606848329306 Q -85.73912632962067 308.66085478663445 0 257.21737898886204"/></g><g transform="rotate(0)"><path d="M 0 299.13552046753466 L 0 388.87617660779506"/></g><g transform="rotate(30)"><path d="M 0 299.13552046753466 L 0 388.87617660779506"/></g><g transform="rotate(60)"><path d="M 0 299.13552046753466 L 0 388.87617660779506"/></g><g transform="rotate(90)"><path d="M 0 299.13552046753466 L 0 388.87617660779506"/></g><g transform="rotate(120)"><path d="M 0 299.13552046753466 L 0 388.87617660779506"/></g><g transform="rotate(150)"><path d="M 0 299.13552046753466 L 0 388.87617660779506"/></g><g transform="rotate(180)"><path d="M 0 299.13552046753466 L 0 388.87617660779506"/></g><g transform="rotate(210)"><path d="M 0 299.13552046753466 L 0 388.87617660779506"/></g><g transform="rotate(240)"><path d="M 0 299.13552046753466 L 0 388.87617660779506"/></g><g transform="rotate(270)"><path d="M 0 299.13552046753466 L 0 388.87617660779506"/></g><g transform="rotate(300)"><path d="M 0 299.13552046753466 L 0 388.87617660779506"/></g><g transform="rotate(330)"><path d="M 0 299.13552046753466 L 0 388.87617660779506"/></g><g transform="rotate(0)"><path d="M 0 329.1302782483399 Q 109.71009274944663 394.95633389800787 0 493.69541737250984 Q -109.71009274944663 394.95633389800787 0 329.1302782483399"/></g><g transform="rotate(30)"><path d="M 0 329.1302782483399 Q 109.71009274944663 394.95633389800787 0 493.69541737250984 Q -109.71009274944663 394.95633389800787 0 329.1302782483399"/></g><g transform="rotate(60)"><path d="M 0 329.1302782483399 Q 109.71009274944663 394.95633389800787 0 493.69541737250984 Q -109.71009274944663 394.95633389800787 0 329.1302782483399"/></g><g transform="rotate(90)"><path d="M 0 329.1302782483399 Q 109.71009274944663 394.95633389800787 0 493.69541737250984 Q -109.71009274944663 394.95633389800787 0 329.1302782483399"/></g><g transform="rotate(120)"><path d="M 0 329.1302782483399 Q 109.71009274944663 394.95633389800787 0 493.69541737250984 Q -109.71009274944663 394.95633389800787 0 329.1302782483399"/></g><g transform="rotate(150)"><path d="M 0 329.1302782483399 Q 109.71009274944663 394.95633389800787 0 493.69541737250984 Q -109.71009274944663 394.95633389800787 0 329.1302782483399"/></g><g transform="rotate(180)"><path d="M 0 329.1302782483399 Q 109.71009274944663 394.95633389800787 0 493.69541737250984 Q -109.71009274944663 394.95633389800787 0 329.1302782483399"/></g><g transform="rotate(210)"><path d="M 0 329.1302782483399 Q 109.71009274944663 394.95633389800787 0 493.69541737250984 Q -109.71009274944663 394.95633389800787 0 329.1302782483399"/></g><g transform="rotate(240)"><path d="M 0 329.1302782483399 Q 109.71009274944663 394.95633389800787 0 493.69541737250984 Q -109.71009274944663 394.95633389800787 0 329.1302782483399"/></g><g transform="rotate(270)"><path d="M 0 329.1302782483399 Q 109.71009274944663 394.95633389800787 0 493.69541737250984 Q -109.71009274944663 394.95633389800787 0 329.1302782483399"/></g><g transform="rotate(300)"><path d="M 0 329.1302782483399 Q 109.71009274944663 394.95633389800787 0 493.69541737250984 Q -109.71009274944663 394.95633389800787 0 329.1302782483399"/></g><g transform="rotate(330)"><path d="M 0 329.1302782483399 Q 109.71009274944663 394.95633389800787 0 493.69541737250984 Q -109.71009274944663 394.95633389800787 0 329.1302782483399"/></g></g></svg>