<svg xmlns="http://www.w3.org/2000/svg" viewBox="0 0 800 800" width="800" height="800">
    <rect width="100%" height="100%" fill="white"/>
    <g transform="translate(400, 400)" fill="none" stroke="black" stroke-width="4" stroke-linecap="round" stroke-linejoin="round"><g transform="rotate(0)"><circle cx="0" cy="59.00484486948699" r="14.751211217371747"/></g><g transform="rotate(25.714285714285715)"><circle cx="0" cy="59.00484486948699" r="14.751211217371747"/></g><g transform="rotate(51.42857142857143)"><circle cx="0" cy="59.00484486948699" r="14.751211217371747"/></g><g transform="rotate(77.14285714285714)"><circle cx="0" cy="59.00484486948699" r="14.751211217371747"/></g><g transform="rotate(102.85714285714286)"><circle cx="0" cy="59.00484486948699" r="14.751211217371747"/></g><g transform="rotate(128.57142857142858)"><circle cx="0" cy="59.00484486948699" r="14.751211217371747"/></g><g transform="rotate(154.28571428571428)"><circle cx="0" cy="59.00484486948699" r="14.751211217371747"/></g><g transform="rotate(180)"><circle cx="0" cy="59.00484486948699" r="14.751211217371747"/></g><g transform="rotate(205.71428571428572)"><circle cx="0" cy="59.00484486948699" r="14.751211217371747"/></g><g transform="rotate(231.42857142857142)"><circle cx="0" cy="59.00484486948699" r="14.751211217371747"/></g><g transform="rotate(257.14285714285717)"><circle cx="0" cy="59.00484486948699" r="14.751211217371747"/></g><g transform="rotate(282.85714285714283)"><circle cx="0" cy="59.00484486948699" r="14.751211217371747"/></g><g transform="rotate(308.57142857142856)"><circle cx="0" cy="59.00484486948699" r="14.751211217371747"/></g><g transform="rotate(334.2857142857143)"><circle cx="0" cy="59.00484486948699" r="14.751211217371747"/></g><g transform="rotate(0)"><path d="M 0 118.948147428222 L 29.7370368570555 142.73777691386638 L 0 166.5274063995108 L -29.7370368570555 142.73777691386638 Z"/></g><g transform="rotate(25.714285714285715)"><path d="M 0 118.948147428222 L 29.7370368570555 142.73777691386638 L 0 166.5274063995108 L -29.7370368570555 142.73777691386638 Z"/></g><g transform="rotate(51.42857142857143)"><path d="M 0 118.948147428222 L 29.7370368570555 142.73777691386638 L 0 166.5274063995108 L -29.7370368570555 142.73777691386638 Z"/></g><g transform="rotate(77.14285714285714)"><path d="M 0 118.948147428222 L 29.7370368570555 142.73777691386638 L 0 166.5274063995108 L -29.7370368570555 142.73777691386638 Z"/></g><g transform="rotate(102.85714285714286)"><path d="M 0 118.948147428222 L 29.7370368570555 142.73777691386638 L 0 166.5274063995108 L -29.7370368570555 142.73777691386638 Z"/></g><g transform="rotate(128.57142857142858)"><path d="M 0 118.948147428222 L 29.7370368570555 142.73777691386638 L 0 166.5274063995108 L -29.7370368570555 142.73777691386638 Z"/></g><g transform="rotate(154.28571428571428)"><path d="M 0 118.948147428222 L 29.7370368570555 142.73777691386638 L 0 166.5274063995108 L -29.7370368570555 142.73777691386638 Z"/></g><g transform="rotate(180)"><path d="M 0 118.948147428222 L 29.7370368570555 142.73777691386638 L 0 166.5274063995108 L -29.7370368570555 142.73777691386638 Z"/></g><g transform="rotate(205.71428571428572)"><path d="M 0 118.948147428222 L 29.7370368570555 142.73777691386638 L 0 166.5274063995108 L -29.7370368570555 142.73777691386638 Z"/></g><g transform="rotate(231.42857142857142)"><path d="M 0 118.948147428222 L 29.7370368570555 142.73777691386638 L 0 166.5274063995108 L -29.7370368570555 142.73777691386638 Z"/></g><g transform="rotate(257.14285714285717)"><path d="M 0 118.948147428222 L 29.7370368570555 142.73777691386638 L 0 166.5274063995108 L -29.7370368570555 142.73777691386638 Z"/></g><g transform="rotate(282.85714285714283)"><path d="M 0 118.948147428222 L 29.7370368570555 142.73777691386638 L 0 166.5274063995108 L -29.7370368570555 142.73777691386638 Z"/></g><g transform="rotate(308.57142857142856)"><path d="M 0 118.948147428222 L 29.7370368570555 142.73777691386638 L 0 166.5274063995108 L -29.7370368570555 142.73777691386638 Z"/></g><g transform="rotate(334.2857142857143)"><path d="M 0 118.948147428222 L 29.7370368570555 142.73777691386638 L 0 166.5274063995108 L -29.7370368570555 142.73777691386638 Z"/></g><g transform="rotate(0)"><circle cx="0" cy="177.48029161896557" r="44.37007290474139"/></g><g transform="rotate(25.714285714285715)"><circle cx="0" cy="177.48029161896557" r="44.37007290474139"/></g><g transform="rotate(51.42857142857143)"><circle cx="0" cy="177.48029161896557" r="44.37007290474139"/></g><g transform="rotate(77.14285714285714)"><circle cx="0" cy="177.48029161896557" r="44.37007290474139"/></g><g transform="rotate(102.85714285714286)"><circle cx="0" cy="177.48029161896557" r="44.37007290474139"/></g><g transform="rotate(128.57142857142858)"><circle cx="0" cy="177.48029161896557" r="44.37007290474139"/></g><g transform="rotate(154.28571428571428)"><circle cx="0" cy="177.48029161896557" r="44.37007290474139"/></g><g transform="rotate(180)"><circle cx="0" cy="177.48029161896557" r="44.37007290474139"/></g><g transform="rotate(205.71428571428572)"><circle cx="0" cy="177.48029161896557" r="44.37007290474139"/></g><g transform="rotate(231.42857142857142)"><circle cx="0" cy="177.48029161896557" r="44.37007290474139"/></g><g transform="rotate(257.14285714285717)"><circle cx="0" cy="177.48029161896557" r="44.37007290474139"/></g><g transform="rotate(282.85714285714283)"><circle cx="0" cy="177.48029161896557" r="44.37007290474139"/></g><g transform="rotate(308.57142857142856)"><circle cx="0" cy="177.48029161896557" r="44.37007290474139"/></g><g transform="rotate(334.2857142857143)"><circle cx="0" cy="177.48029161896557" r="44.37007290474139"/></g><g transform="rotate(0)"><path d="M 0 246.8857261845842 L 61.72143154614605 296.262871421501 L 0 345.64001665841784 L -61.72143154614605 296.262871421501 Z"/></g><g transform="rotate(25.714285714285715)"><path d="M 0 246.8857261845842 L 61.72143154614605 296.262871421501 L 0 345.64001665841784 L -61.72143154614605 296.262871421501 Z"/></g><g transform="rotate(51.42857142857143)"><path d="M 0 246.8857261845842 L 61.72143154614605 296.262871421501 L 0 345.64001665841784 L -61.72143154614605 296.262871421501 Z"/></g><g transform="rotate(77.14285714285714)"><path d="M 0 246.8857261845842 L 61.72143154614605 296.262871421501 L 0 345.64001665841784 L -61.72143154614605 296.262871421501 Z"/></g><g transform="rotate(102.85714285714286)"><path d="M 0 246.8857261845842 L 61.72143154614605 296.262871421501 L 0 345.64001665841784 L -61.72143154614605 296.262871421501 Z"/></g><g transform="rotate(128.57142857142858)"><path d="M 0 246.8857261845842 L 61.72143154614605 296.262871421501 L 0 345.64001665841784 L -61.72143154614605 296.262871421501 Z"/></g><g transform="rotate(154.28571428571428)"><path d="M 0 246.8857261845842 L 61.72143154614605 296.262871421501 L 0 345.64001665841784 L -61.72143154614605 296.262871421501 Z"/></g><g transform="rotate(180)"><path d="M 0 246.8857261845842 L 61.72143154614605 296.262871421501 L 0 345.64001665841784 L -61.72143154614605 296.262871421501 Z"/></g><g transform="rotate(205.71428571428572)"><path d="M 0 246.8857261845842 L 61.72143154614605 296.262871421501 L 0 345.64001665841784 L -61.72143154614605 296.262871421501 Z"/></g><g transform="rotate(231.42857142857142)"><path d="M 0 246.8857261845842 L 61.72143154614605 296.262871421501 L 0 345.64001665841784 L -61.72143154614605 296.262871421501 Z"/></g><g transform="rotate(257.14285714285717)"><path d="M 0 246.8857261845842 L 61.72143154614605 296.262871421501 L 0 345.64001665841784 L -61.72143154614605 296.262871421501 Z"/></g><g transform="rotate(282.85714285714283)"><path d="M 0 246.8857261845842 L 61.72143154614605 296.262871421501 L 0 345.64001665841784 L -61.72143154614605 296.262871421501 Z"/></g><g transform="rotate(308.57142857142856)"><path d="M 0 246.8857261845842 L 61.72143154614605 296.262871421501 L 0 345.64001665841784 L -61.72143154614605 296.262871421501 Z"/></g><g transform="rotate(334.2857142857143)"><path d="M 0 246.8857261845842 L 61.72143154614605 296.262871421501 L 0 345.64001665841784 L -61.72143154614605 296.262871421501 Z"/></g><g transform="rotate(0)"><path d="M 0 300.0105806617066 L 0 390.0137548602186"/></g><g transform="rotate(25.714285714285715)"><path d="M 0 300.0105806617066 L 0 390.0137548602186"/></g><g transform="rotate(51.42857142857143)"><path d="M 0 300.0105806617066 L 0 390.0137548602186"/></g><g transform="rotate(77.14285714285714)"><path d="M 0 300.0105806617066 L 0 390.0137548602186"/></g><g transform="rotate(102.85714285714286)"><path d="M 0 300.0105806617066 L 0 390.0137548602186"/></g><g transform="rotate(128.57142857142858)"><path d="M 0 300.0105806617066 L 0 390.0137548602186"/></g><g transform="rotate(154.28571428571428)"><path d="M 0 300.0105806617066 L 0 390.0137548602186"/></g><g transform="rotate(180)"><path d="M 0 300.0105806617066 L 0 390.0137548602186"/></g><g transform="rotate(205.71428571428572)"><path d="M 0 300.0105806617066 L 0 390.0137548602186"/></g><g transform="rotate(231.42857142857142)"><path d="M 0 300.0105806617066 L 0 390.0137548602186"/></g><g transform="rotate(257.14285714285717)"><path d="M 0 300.0105806617066 L 0 390.0137548602186"/></g><g transform="rotate(282.85714285714283)"><path d="M 0 300.0105806617066 L 0 390.0137548602186"/></g><g transform="rotate(308.57142857142856)"><path d="M 0 300.0105806617066 L 0 390.0137548602186"/></g><g transform="rotate(334.2857142857143)"><path d="M 0 300.0105806617066 L 0 390.0137548602186"/></g></g></svg>