<svg xmlns="http://www.w3.org/2000/svg" viewBox="0 0 800 800" width="800" height="800">
    <rect width="100%" height="100%" fill="white"/>
    <g transform="translate(400, 400)" fill="none" stroke="black" stroke-width="4" stroke-linecap="round" stroke-linejoin="round"><g transform="rotate(0)"><path d="M 0 46.343421447090805 L 11.585855361772701 55.612105736508965 L 0 64.88079002592713 L -11.585855361772701 55.612105736508965 Z"/></g><g transform="rotate(36)"><path d="M 0 46.343421447090805 L 11.585855361772701 55.612105736508965 L 0 64.88079002592713 L -11.585855361772701 55.612105736508965 Z"/></g><g transform="rotate(72)"><path d="M 0 46.343421447090805 L 11.585855361772701 55.612105736508965 L 0 64.88079002592713 L -11.585855361772701 55.612105736508965 Z"/></g><g transform="rotate(108)"><path d="M 0 46.343421447090805 L 11.585855361772701 55.612105736508965 L 0 64.88079002592713 L -11.585855361772701 55.612105736508965 Z"/></g><g transform="rotate(144)"><path d="M 0 46.343421447090805 L 11.585855361772701 55.612105736508965 L 0 64.88079002592713 L -11.585855361772701 55.612105736508965 Z"/></g><g transform="rotate(180)"><path d="M 0 46.343421447090805 L 11.585855361772701 55.612105736508965 L 0 64.88079002592713 L -11.585855361772701 55.612105736508965 Z"/></g><g transform="rotate(216)"><path d="M 0 46.343421447090805 L 11.585855361772701 55.612105736508965 L 0 64.88079002592713 L -11.585855361772701 55.612105736508965 Z"/></g><g transform="rotate(252)"><path d="M 0 46.343421447090805 L 11.585855361772701 55.612105736508965 L 0 64.88079002592713 L -11.585855361772701 55.612105736508965 Z"/></g><g transform="rotate(288)"><path d="M 0 46.343421447090805 L 11.585855361772701 55.612105736508965 L 0 64.88079002592713 L -11.585855361772701 55.612105736508965 Z"/></g><g transform="rotate(324)"><path d="M 0 46.343421447090805 L 11.585855361772701 55.612105736508965 L 0 64.88079002592713 L -11.585855361772701 55.612105736508965 Z"/></g><g transform="rotate(0)"><circle cx="0" cy="127.40517601836473" r="31.851294004591182"/></g><g transform="rotate(36)"><circle cx="0" cy="127.40517601836473" r="31.851294004591182"/></g><g transform="rotate(72)"><circle cx="0" cy="127.40517601836473" r="31.851294004591182"/></g><g transform="rotate(108)"><circle cx="0" cy="127.40517601836473" r="31.851294004591182"/></g><g transform="rotate(144)"><circle cx="0" cy="127.40517601836473" r="31.851294004591182"/></g><g transform="rotate(180)"><circle cx="0" cy="127.40517601836473" r="31.851294004591182"/></g><g transform="rotate(216)"><circle cx="0" cy="127.40517601836473" r="31.851294004591182"/></g><g transform="rotate(252)"><circle cx="0" cy="127.40517601836473" r="31.851294004591182"/></g><g transform="rotate(288)"><circle cx="0" cy="127.40517601836473" r="31.851294004591182"/></g><g transform="rotate(324)"><circle cx="0" cy="127.40517601836473" r="31.851294004591182"/></g><g transform="rotate(0)"><path d="M 0 202.51875964459032 Q 67.50625321486343 243.02251157350838 0 303.7781394668855 Q -67.50625321486343 243.02251157350838 0 202.51875964459032"/></g><g transform="rotate(36)"><path d="M 0 202.51875964459032 Q 67.50625321486343 243.02251157350838 0 303.7781394668855 Q -67.50625321486343 243.02251157350838 0 202.51875964459032"/></g><g transform="rotate(72)"><path d="M 0 202.51875964459032 Q 67.50625321486343 243.02251157350838 0 303.7781394668855 Q -67.50625321486343 243.02251157350838 0 202.51875964459032"/></g><g transform="rotate(108)"><path d="M 0 202.51875964459032 Q 67.50625321486343 243.02251157350838 0 303.7781394668855 Q -67.50625321486343 243.02251157350838 0 202.51875964459032"/></g><g transform="rotate(144)"><path d="M 0 202.51875964459032 Q 67.50625321486343 243.02251157350838 0 303.7781394668855 Q -67.50625321486343 243.02251157350838 0 202.51875964459032"/></g><g transform="rotate(180)"><path d="M 0 202.51875964459032 Q 67.50625321486343 243.02251157350838 0 303.7781394668855 Q -67.50625321486343 243.02251157350838 0 202.51875964459032"/></g><g transform="rotate(216)"><path d="M 0 202.51875964459032 Q 67.50625321486343 243.02251157350838 0 303.7781394668855 Q -67.50625321486343 243.02251157350838 0 202.51875964459032"/></g><g transform="rotate(252)"><path d="M 0 202.51875964459032 Q 67.50625321486343 243.02251157350838 0 303.7781394668855 Q -67.50625321486343 243.02251157350838 0 202.51875964459032"/></g><g transform="rotate(288)"><path d="M 0 202.51875964459032 Q 67.50625321486343 243.02251157350838 0 303.7781394668855 Q -67.50625321486343 243.02251157350838 0 202.51875964459032"/></g><g transform="rotate(324)"><path d="M 0 202.51875964459032 Q 67.50625321486343 243.02251157350838 0 303.7781394668855 Q -67.50625321486343 243.02251157350838 0 202.51875964459032"/></g><g transform="rotate(0)"><circle cx="0" cy="297.28029327932745" r="74.32007331983186"/></g><g transform="rotate(36)"><circle cx="0" cy="297.28029327932745" r="74.32007331983186"/></g><g transform="rotate(72)"><circle cx="0" cy="297.28029327932745" r="74.32007331983186"/></g><g transform="rotate(108)"><circle cx="0" cy="297.28029327932745" r="74.32007331983186"/></g><g transform="rotate(144)"><circle cx="0" cy="297.28029327932745" r="74.32007331983186"/></g><g transform="rotate(180)"><circle cx="0" cy="297.28029327932745" r="74.32007331983186"/></g><g transform="rotate(216)"><circle cx="0" cy="297.28029327932745" r="74.32007331983186"/></g><g transform="rotate(252)"><circle cx="0" cy="297.28029327932745" r="74.32007331983186"/></g><g transform="rotate(288)"><circle cx="0" cy="297.28029327932745" r="74.32007331983186"/></g><g transform="rotate(324)"><circle cx="0" cy="297.28029327932745" r="74.32007331983186"/></g></g></svg>