<svg xmlns="http://www.w3.org/2000/svg" viewBox="0 0 800 800" width="800" height="800">
    <rect width="100%" height="100%" fill="white"/>
    <g transform="translate(400, 400)" fill="none" stroke="black" stroke-width="4" stroke-linecap="round" stroke-linejoin="round"><g transform="rotate(0)"><circle cx="0" cy="41.11508210655302" r="10.278770526638255"/></g><g transform="rotate(22.5)"><circle cx="0" cy="41.11508210655302" r="10.278770526638255"/></g><g transform="rotate(45)"><circle cx="0" cy="41.11508210655302" r="10.278770526638255"/></g><g transform="rotate(67.5)"><circle cx="0" cy="41.11508210655302" r="10.278770526638255"/></g><g transform="rotate(90)"><circle cx="0" cy="41.11508210655302" r="10.278770526638255"/></g><g transform="rotate(112.5)"><circle cx="0" cy="41.11508210655302" r="10.278770526638255"/></g><g transform="rotate(135)"><circle cx="0" cy="41.11508210655302" r="10.278770526638255"/></g><g transform="rotate(157.5)"><circle cx="0" cy="41.11508210655302" r="10.278770526638255"/></g><g transform="rotate(180)"><circle cx="0" cy="41.11508210655302" r="10.278770526638255"/></g><g transform="rotate(202.5)"><circle cx="0" cy="41.11508210655302" r="10.278770526638255"/></g><g transform="rotate(225)"><circle cx="0" cy="41.11508210655302" r="10.278770526638255"/></g><g transform="rotate(247.5)"><circle cx="0" cy="41.11508210655302" r="10.278770526638255"/></g><g transform="rotate(270)"><circle cx="0" cy="41.11508210655302" r="10.278770526638255"/></g><g transform="rotate(292.5)"><circle cx="0" cy="41.11508210655302" r="10.278770526638255"/></g><g transform="rotate(315)"><circle cx="0" cy="41.11508210655302" r="10.278770526638255"/></g><g transform="rotate(337.5)"><circle cx="0" cy="41.11508210655302" r="10.278770526638255"/></g><g transform="rotate(0)"><path d="M 0 132.87197599653155 L 33.21799399913289 159.44637119583786 L 0 186.02076639514416 L -33.21799399913289 159.44637119583786 Z"/></g><g transform="rotate(22.5)"><path d="M 0 132.87197599653155 L 33.21799399913289 159.44637119583786 L 0 186.02076639514416 L -33.21799399913289 159.44637119583786 Z"/></g><g transform="rotate(45)"><path d="M 0 132.87197599653155 L 33.21799399913289 159.44637119583786 L 0 186.02076639514416 L -33.21799399913289 159.44637119583786 Z"/></g><g transform="rotate(67.5)"><path d="M 0 132.87197599653155 L 33.21799399913289 159.44637119583786 L 0 186.02076639514416 L -33.21799399913289 159.44637119583786 Z"/></g><g transform="rotate(90)"><path d="M 0 132.87197599653155 L 33.21799399913289 159.44637119583786 L 0 186.02076639514416 L -33.21799399913289 159.44637119583786 Z"/></g><g transform="rotate(112.5)"><path d="M 0 132.87197599653155 L 33.21799399913289 159.44637119583786 L 0 186.02076639514416 L -33.21799399913289 159.44637119583786 Z"/></g><g transform="rotate(135)"><path d="M 0 132.87197599653155 L 33.21799399913289 159.44637119583786 L 0 186.02076639514416 L -33.21799399913289 159.44637119583786 Z"/></g><g transform="rotate(157.5)"><path d="M 0 132.87197599653155 L 33.21799399913289 159.44637119583786 L 0 186.02076639514416 L -33.21799399913289 159.44637119583786 Z"/></g><g transform="rotate(180)"><path d="M 0 132.87197599653155 L 33.21799399913289 159.44637119583786 L 0 186.02076639514416 L -33.21799399913289 159.44637119583786 Z"/></g><g transform="rotate(202.5)"><path d="M 0 132.87197599653155 L 33.21799399913289 159.44637119583786 L 0 186.02076639514416 L -33.21799399913289 159.44637119583786 Z"/></g><g transform="rotate(225)"><path d="M 0 132.87197599653155 L 33.21799399913289 159.44637119583786 L 0 186.02076639514416 L -33.21799399913289 159.44637119583786 Z"/></g><g transform="rotate(247.5)"><path d="M 0 132.87197599653155 L 33.21799399913289 159.44637119583786 L 0 186.02076639514416 L -33.21799399913289 159.44637119583786 Z"/></g><g transform="rotate(270)"><path d="M 0 132.87197599653155 L 33.21799399913289 159.44637119583786 L 0 186.02076639514416 L -33.21799399913289 159.44637119583786 Z"/></g><g transform="rotate(292.5)"><path d="M 0 132.87197599653155 L 33.21799399913289 159.44637119583786 L 0 186.02076639514416 L -33.21799399913289 159.44637119583786 Z"/></g><g transform="rotate(315)"><path d="M 0 132.87197599653155 L 33.21799399913289 159.44637119583786 L 0 186.02076639514416 L -33.21799399913289 159.44637119583786 Z"/></g><g transform="rotate(337.5)"><path d="M 0 132.87197599653155 L 33.21799399913289 159.44637119583786 L 0 186.02076639514416 L -33.21799399913289 159.44637119583786 Z"/></g><g transform="rotate(0)"><path d="M -54.32680340367369 217.30721361469477 Q 0 260.76865633763373 54.32680340367369 217.30721361469477"/></g><g transform="rotate(22.5)"><path d="M -54.32680340367369 217.30721361469477 Q 0 260.76865633763373 54.32680340367369 217.30721361469477"/></g><g transform="rotate(45)"><path d="M -54.32680340367369 217.30721361469477 Q 0 260.76865633763373 54.32680340367369 217.30721361469477"/></g><g transform="rotate(67.5)"><path d="M -54.32680340367369 217.30721361469477 Q 0 260.76865633763373 54.32680340367369 217.30721361469477"/></g><g transform="rotate(90)"><path d="M -54.32680340367369 217.30721361469477 Q 0 260.76865633763373 54.32680340367369 217.30721361469477"/></g><g transform="rotate(112.5)"><path d="M -54.32680340367369 217.30721361469477 Q 0 260.76865633763373 54.32680340367369 217.30721361469477"/></g><g transform="rotate(135)"><path d="M -54.32680340367369 217.30721361469477 Q 0 260.76865633763373 54.32680340367369 217.30721361469477"/></g><g transform="rotate(157.5)"><path d="M -54.32680340367369 217.30721361469477 Q 0 260.76865633763373 54.32680340367369 217.30721361469477"/></g><g transform="rotate(180)"><path d="M -54.32680340367369 217.30721361469477 Q 0 260.76865633763373 54.32680340367369 217.30721361469477"/></g><g transform="rotate(202.5)"><path d="M -54.32680340367369 217.30721361469477 Q 0 260.76865633763373 54.32680340367369 217.30721361469477"/></g><g transform="rotate(225)"><path d="M -54.32680340367369 217.30721361469477 Q 0 260.76865633763373 54.32680340367369 217.30721361469477"/></g><g transform="rotate(247.5)"><path d="M -54.32680340367369 217.30721361469477 Q 0 260.76865633763373 54.32680340367369 217.30721361469477"/></g><g transform="rotate(270)"><path d="M -54.32680340367369 217.30721361469477 Q 0 260.76865633763373 54.32680340367369 217.30721361469477"/></g><g transform="rotate(292.5)"><path d="M -54.32680340367369 217.30721361469477 Q 0 260.76865633763373 54.32680340367369 217.30721361469477"/></g><g transform="rotate(315)"><path d="M -54.32680340367369 217.30721361469477 Q 0 260.76865633763373 54.32680340367369 217.30721361469477"/></g><g transform="rotate(337.5)"><path d="M -54.32680340367369 217.30721361469477 Q 0 260.76865633763373 54.32680340367369 217.30721361469477"/></g><g transform="rotate(0)"><path d="M 0 287.819965002127 L 71.95499125053175 345.3839580025524 L 0 402.9479510029778 L -71.95499125053175 345.3839580025524 Z"/></g><g transform="rotate(22.5)"><path d="M 0 287.819965002127 L 71.95499125053175 345.3839580025524 L 0 402.9479510029778 L -71.95499125053175 345.3839580025524 Z"/></g><g transform="rotate(45)"><path d="M 0 287.819965002127 L 71.95499125053175 345.3839580025524 L 0 402.9479510029778 L -71.95499125053175 345.3839580025524 Z"/></g><g transform="rotate(67.5)"><path d="M 0 287.819965002127 L 71.95499125053175 345.3839580025524 L 0 402.9479510029778 L -71.95499125053175 345.3839580025524 Z"/></g><g transform="rotate(90)"><path d="M 0 287.819965002127 L 71.95499125053175 345.3839580025524 L 0 402.9479510029778 L -71.95499125053175 345.3839580025524 Z"/></g><g transform="rotate(112.5)"><path d="M 0 287.819965002127 L 71.95499125053175 345.3839580025524 L 0 402.9479510029778 L -71.95499125053175 345.3839580025524 Z"/></g><g transform="rotate(135)"><path d="M 0 287.819965002127 L 71.95499125053175 345.3839580025524 L 0 402.9479510029778 L -71.95499125053175 345.3839580025524 Z"/></g><g transform="rotate(157.5)"><path d="M 0 287.819965002127 L 71.95499125053175 345.3839580025524 L 0 402.9479510029778 L -71.95499125053175 345.3839580025524 Z"/></g><g transform="rotate(180)"><path d="M 0 287.819965002127 L 71.95499125053175 345.3839580025524 L 0 402.9479510029778 L -71.95499125053175 345.3839580025524 Z"/></g><g transform="rotate(202.5)"><path d="M 0 287.819965002127 L 71.95499125053175 345.3839580025524 L 0 402.9479510029778 L -71.95499125053175 345.3839580025524 Z"/></g><g transform="rotate(225)"><path d="M 0 287.819965002127 L 71.95499125053175 345.3839580025524 L 0 402.9479510029778 L -71.95499125053175 345.3839580025524 Z"/></g><g transform="rotate(247.5)"><path d="M 0 287.819965002127 L 71.95499125053175 345.3839580025524 L 0 402.9479510029778 L -71.95499125053175 345.3839580025524 Z"/></g><g transform="rotate(270)"><path d="M 0 287.819965002127 L 71.95499125053175 345.3839580025524 L 0 402.9479510029778 L -71.95499125053175 345.3839580025524 Z"/></g><g transform="rotate(292.5)"><path d="M 0 287.819965002127 L 71.95499125053175 345.3839580025524 L 0 402.9479510029778 L -71.95499125053175 345.3839580025524 Z"/></g><g transform="rotate(315)"><path d="M 0 287.819965002127 L 71.95499125053175 345.3839580025524 L 0 402.9479510029778 L -71.95499125053175 345.3839580025524 Z"/></g><g transform="rotate(337.5)"><path d="M 0 287.819965002127 L 71.95499125053175 345.3839580025524 L 0 402.9479510029778 L -71.95499125053175 345.3839580025524 Z"/></g></g></svg>