<svg xmlns="http://www.w3.org/2000/svg" viewBox="0 0 800 800" width="800" height="800">
    <rect width="100%" height="100%" fill="white"/>
    <g transform="translate(400, 400)" fill="none" stroke="black" stroke-width="4" stroke-linecap="round" stroke-linejoin="round"><g transform="rotate(0)"><path d="M 0 57.0993200968951 L 14.274830024223775 68.51918411627412 L 0 79.93904813565314 L -14.274830024223775 68.51918411627412 Z"/></g><g transform="rotate(45)"><path d="M 0 57.0993200968951 L 14.274830024223775 68.51918411627412 L 0 79.93904813565314 L -14.274830024223775 68.51918411627412 Z"/></g><g transform="rotate(90)"><path d="M 0 57.0993200968951 L 14.274830024223775 68.51918411627412 L 0 79.93904813565314 L -14.274830024223775 68.51918411627412 Z"/></g><g transform="rotate(135)"><path d="M 0 57.0993200968951 L 14.274830024223775 68.51918411627412 L 0 79.93904813565314 L -14.274830024223775 68.51918411627412 Z"/></g><g transform="rotate(180)"><path d="M 0 57.0993200968951 L 14.274830024223775 68.51918411627412 L 0 79.93904813565314 L -14.274830024223775 68.51918411627412 Z"/></g><g transform="rotate(225)"><path d="M 0 57.0993200968951 L 14.274830024223775 68.51918411627412 L 0 79.93904813565314 L -14.274830024223775 68.51918411627412 Z"/></g><g transform="rotate(270)"><path d="M 0 57.0993200968951 L 14.274830024223775 68.51918411627412 L 0 79.93904813565314 L -14.274830024223775 68.51918411627412 Z"/></g><g transform="rotate(315)"><path d="M 0 57.0993200968951 L 14.274830024223775 68.51918411627412 L 0 79.93904813565314 L -14.274830024223775 68.51918411627412 Z"/></g><g transform="rotate(0)"><path d="M 0 115.4193331822753 L 28.854833295568824 138.50319981873034 L 0 161.5870664551854 L -28.854833295568824 138.50319981873034 Z"/></g><g transform="rotate(45)"><path d="M 0 115.4193331822753 L 28.854833295568824 138.50319981873034 L 0 161.5870664551854 L -28.854833295568824 138.50319981873034 Z"/></g><g transform="rotate(90)"><path d="M 0 115.4193331822753 L 28.854833295568824 138.50319981873034 L 0 161.5870664551854 L -28.854833295568824 138.50319981873034 Z"/></g><g transform="rotate(135)"><path d="M 0 115.4193331822753 L 28.854833295568824 138.50319981873034 L 0 161.5870664551854 L -28.854833295568824 138.50319981873034 Z"/></g><g transform="rotate(180)"><path d="M 0 115.4193331822753 L 28.854833295568824 138.50319981873034 L 0 161.5870664551854 L -28.854833295568824 138.50319981873034 Z"/></g><g transform="rotate(225)"><path d="M 0 115.4193331822753 L 28.854833295568824 138.50319981873034 L 0 161.5870664551854 L -28.854833295568824 138.50319981873034 Z"/></g><g transform="rotate(270)"><path d="M 0 115.4193331822753 L 28.854833295568824 138.50319981873034 L 0 161.5870664551854 L -28.854833295568824 138.50319981873034 Z"/></g><g transform="rotate(315)"><path d="M 0 115.4193331822753 L 28.854833295568824 138.50319981873034 L 0 161.5870664551854 L -28.854833295568824 138.50319981873034 Z"/></g><g transform="rotate(0)"><path d="M -43.17175904335454 172.68703617341816 Q 0 207.2244434081018 43.17175904335454 172.68703617341816"/></g><g transform="rotate(45)"><path d="M -43.17175904335454 172.68703617341816 Q 0 207.2244434081018 43.17175904335454 172.68703617341816"/></g><g transform="rotate(90)"><path d="M -43.17175904335454 172.68703617341816 Q 0 207.2244434081018 43.17175904335454 172.68703617341816"/></g><g transform="rotate(135)"><path d="M -43.17175904335454 172.68703617341816 Q 0 207.2244434081018 43.17175904335454 172.68703617341816"/></g><g transform="rotate(180)"><path d="M -43.17175904335454 172.68703617341816 Q 0 207.2244434081018 43.17175904335454 172.68703617341816"/></g><g transform="rotate(225)"><path d="M -43.17175904335454 172.68703617341816 Q 0 207.2244434081018 43.17175904335454 172.68703617341816"/></g><g transform="rotate(270)"><path d="M -43.17175904335454 172.68703617341816 Q 0 207.2244434081018 43.17175904335454 172.68703617341816"/></g><g transform="rotate(315)"><path d="M -43.17175904335454 172.68703617341816 Q 0 207.2244434081018 43.17175904335454 172.68703617341816"/></g><g transform="rotate(0)"><path d="M -59.2435453152284 236.9741812609136 Q 0 284.3690175130963 59.2435453152284 236.9741812609136"/></g><g transform="rotate(45)"><path d="M -59.2435453152284 236.9741812609136 Q 0 284.3690175130963 59.2435453152284 236.9741812609136"/></g><g transform="rotate(90)"><path d="M -59.2435453152284 236.9741812609136 Q 0 284.3690175130963 59.2435453152284 236.9741812609136"/></g><g transform="rotate(135)"><path d="M -59.2435453152284 236.9741812609136 Q 0 284.3690175130963 59.2435453152284 236.9741812609136"/></g><g transform="rotate(180)"><path d="M -59.2435453152284 236.9741812609136 Q 0 284.3690175130963 59.2435453152284 236.9741812609136"/></g><g transform="rotate(225)"><path d="M -59.2435453152284 236.9741812609136 Q 0 284.3690175130963 59.2435453152284 236.9741812609136"/></g><g transform="rotate(270)"><path d="M -59.2435453152284 236.9741812609136 Q 0 284.3690175130963 59.2435453152284 236.9741812609136"/></g><g transform="rotate(315)"><path d="M -59.2435453152284 236.9741812609136 Q 0 284.3690175130963 59.2435453152284 236.9741812609136"/></g><g transform="rotate(0)"><path d="M 0 308.00198142789304 Q 102.66732714263101 369.60237771347164 0 462.00297214183956 Q -102.66732714263101 369.60237771347164 0 308.00198142789304"/></g><g transform="rotate(45)"><path d="M 0 308.00198142789304 Q 102.66732714263101 369.60237771347164 0 462.00297214183956 Q -102.66732714263101 369.60237771347164 0 308.00198142789304"/></g><g transform="rotate(90)"><path d="M 0 308.00198142789304 Q 102.66732714263101 369.60237771347164 0 462.00297214183956 Q -102.66732714263101 369.60237771347164 0 308.00198142789304"/></g><g transform="rotate(135)"><path d="M 0 308.00198142789304 Q 102.66732714263101 369.60237771347164 0 462.00297214183956 Q -102.66732714263101 369.60237771347164 0 308.00198142789304"/></g><g transform="rotate(180)"><path d="M 0 308.00198142789304 Q 102.66732714263101 369.60237771347164 0 462.00297214183956 Q -102.66732714263101 369.60237771347164 0 308.00198142789304"/></g><g transform="rotate(225)"><path d="M 0 308.00198142789304 Q 102.66732714263101 369.60237771347164 0 462.00297214183956 Q -102.66732714263101 369.60237771347164 0 308.00198142789304"/></g><g transform="rotate(270)"><path d="M 0 308.00198142789304 Q 102.66732714263101 369.60237771347164 0 462.00297214183956 Q -102.66732714263101 369.60237771347164 0 308.00198142789304"/></g><g transform="rotate(315)"><path d="M 0 308.00198142789304 Q 102.66732714263101 369.60237771347164 0 462.00297214183956 Q -102.66732714263101 369.60237771347164 0 308.00198142789304"/></g></g></svg>