<svg xmlns="http://www.w3.org/2000/svg" viewBox="0 0 800 800" width="800" height="800">
    <rect width="100%" height="100%" fill="white"/>
    <g transform="translate(400, 400)" fill="none" stroke="black" stroke-width="4" stroke-linecap="round" stroke-linejoin="round"><g transform="rotate(0)"><circle cx="0" cy="44.233184210024774" r="11.058296052506194"/></g><g transform="rotate(36)"><circle cx="0" cy="44.233184210024774" r="11.058296052506194"/></g><g transform="rotate(72)"><circle cx="0" cy="44.233184210024774" r="11.058296052506194"/></g><g transform="rotate(108)"><circle cx="0" cy="44.233184210024774" r="11.058296052506194"/></g><g transform="rotate(144)"><circle cx="0" cy="44.233184210024774" r="11.058296052506194"/></g><g transform="rotate(180)"><circle cx="0" cy="44.233184210024774" r="11.058296052506194"/></g><g transform="rotate(216)"><circle cx="0" cy="44.233184210024774" r="11.058296052506194"/></g><g transform="rotate(252)"><circle cx="0" cy="44.233184210024774" r="11.058296052506194"/></g><g transform="rotate(288)"><circle cx="0" cy="44.233184210024774" r="11.058296052506194"/></g><g transform="rotate(324)"><circle cx="0" cy="44.233184210024774" r="11.058296052506194"/></g><g transform="rotate(0)"><circle cx="0" cy="113.48134745005518" r="28.370336862513795"/></g><g transform="rotate(36)"><circle cx="0" cy="113.48134745005518" r="28.370336862513795"/></g><g transform="rotate(72)"><circle cx="0" cy="113.48134745005518" r="28.370336862513795"/></g><g transform="rotate(108)"><circle cx="0" cy="113.48134745005518" r="28.370336862513795"/></g><g transform="rotate(144)"><circle cx="0" cy="113.48134745005518" r="28.370336862513795"/></g><g transform="rotate(180)"><circle cx="0" cy="113.48134745005518" r="28.370336862513795"/></g><g transform="rotate(216)"><circle cx="0" cy="113.48134745005518" r="28.370336862513795"/></g><g transform="rotate(252)"><circle cx="0" cy="113.48134745005518" r="28.370336862513795"/></g><g transform="rotate(288)"><circle cx="0" cy="113.48134745005518" r="28.370336862513795"/></g><g transform="rotate(324)"><circle cx="0" cy="113.48134745005518" r="28.370336862513795"/></g><g transform="rotate(0)"><path d="M -45.67295941221528 182.6918376488611 Q 0 219.23020517863333 45.67295941221528 182.6918376488611"/></g><g transform="rotate(36)"><path d="M -45.67295941221528 182.6918376488611 Q 0 219.23020517863333 45.67295941221528 182.6918376488611"/></g><g transform="rotate(72)"><path d="M -45.67295941221528 182.6918376488611 Q 0 219.23020517863333 45.67295941221528 182.6918376488611"/></g><g transform="rotate(108)"><path d="M -45.67295941221528 182.6918376488611 Q 0 219.23020517863333 45.67295941221528 182.6918376488611"/></g><g transform="rotate(144)"><path d="M -45.67295941221528 182.6918376488611 Q 0 219.23020517863333 45.67295941221528 182.6918376488611"/></g><g transform="rotate(180)"><path d="M -45.67295941221528 182.6918376488611 Q 0 219.23020517863333 45.67295941221528 182.6918376488611"/></g><g transform="rotate(216)"><path d="M -45.67295941221528 182.6918376488611 Q 0 219.23020517863333 45.67295941221528 182.6918376488611"/></g><g transform="rotate(252)"><path d="M -45.67295941221528 182.6918376488611 Q 0 219.23020517863333 45.67295941221528 182.6918376488611"/></g><g transform="rotate(288)"><path d="M -45.67295941221528 182.6918376488611 Q 0 219.23020517863333 45.67295941221528 182.6918376488611"/></g><g transform="rotate(324)"><path d="M -45.67295941221528 182.6918376488611 Q 0 219.23020517863333 45.67295941221528 182.6918376488611"/></g><g transform="rotate(0)"><path d="M 0 236.34605446178466 Q 78.78201815392822 283.61526535414157 0 354.519081692677 Q -78.78201815392822 283.61526535414157 0 236.34605446178466"/></g><g transform="rotate(36)"><path d="M 0 236.34605446178466 Q 78.78201815392822 283.61526535414157 0 354.519081692677 Q -78.78201815392822 283.61526535414157 0 236.34605446178466"/></g><g transform="rotate(72)"><path d="M 0 236.34605446178466 Q 78.78201815392822 283.61526535414157 0 354.519081692677 Q -78.78201815392822 283.61526535414157 0 236.34605446178466"/></g><g transform="rotate(108)"><path d="M 0 236.34605446178466 Q 78.78201815392822 283.61526535414157 0 354.519081692677 Q -78.78201815392822 283.61526535414157 0 236.34605446178466"/></g><g transform="rotate(144)"><path d="M 0 236.34605446178466 Q 78.78201815392822 283.61526535414157 0 354.519081692677 Q -78.78201815392822 283.61526535414157 0 236.34605446178466"/></g><g transform="rotate(180)"><path d="M 0 236.34605446178466 Q 78.78201815392822 283.61526535414157 0 354.519081692677 Q -78.78201815392822 283.61526535414157 0 236.34605446178466"/></g><g transform="rotate(216)"><path d="M 0 236.34605446178466 Q 78.78201815392822 283.61526535414157 0 354.519081692677 Q -78.78201815392822 283.61526535414157 0 236.34605446178466"/></g><g transform="rotate(252)"><path d="M 0 236.34605446178466 Q 78.78201815392822 283.61526535414157 0 354.519081692677 Q -78.78201815392822 283.61526535414157 0 236.34605446178466"/></g><g transform="rotate(288)"><path d="M 0 236.34605446178466 Q 78.78201815392822 283.61526535414157 0 354.519081692677 Q -78.78201815392822 283.61526535414157 0 236.34605446178466"/></g><g transform="rotate(324)"><path d="M 0 236.34605446178466 Q 78.78201815392822 283.61526535414157 0 354.519081692677 Q -78.78201815392822 283.61526535414157 0 236.34605446178466"/></g><g transform="rotate(0)"><path d="M 0 296.1627222588286 L 0 385.01153893647717"/></g><g transform="rotate(36)"><path d="M 0 296.1627222588286 L 0 385.01153893647717"/></g><g transform="rotate(72)"><path d="M 0 296.1627222588286 L 0 385.01153893647717"/></g><g transform="rotate(108)"><path d="M 0 296.1627222588286 L 0 385.01153893647717"/></g><g transform="rotate(144)"><path d="M 0 296.1627222588286 L 0 385.01153893647717"/></g><g transform="rotate(180)"><path d="M 0 296.1627222588286 L 0 385.01153893647717"/></g><g transform="rotate(216)"><path d="M 0 296.1627222588286 L 0 385.01153893647717"/></g><g transform="rotate(252)"><path d="M 0 296.1627222588286 L 0 385.01153893647717"/></g><g transform="rotate(288)"><path d="M 0 296.1627222588286 L 0 385.01153893647717"/></g><g transform="rotate(324)"><path d="M 0 296.1627222588286 L 0 385.01153893647717"/></g></g></svg>