<svg xmlns="http://www.w3.org/2000/svg" viewBox="0 0 800 800" width="800" height="800">
    <rect width="100%" height="100%" fill="white"/>
    <g transform="translate(400, 400)" fill="none" stroke="black" stroke-width="4" stroke-linecap="round" stroke-linejoin="round"><g transform="rotate(0)"><path d="M -12.640973980305716 50.563895921222866 Q 0 60.67667510546744 12.640973980305716 50.563895921222866"/></g><g transform="rotate(30)"><path d="M -12.640973980305716 50.563895921222866 Q 0 60.67667510546744 12.640973980305716 50.563895921222866"/></g><g transform="rotate(60)"><path d="M -12.640973980305716 50.563895921222866 Q 0 60.67667510546744 12.640973980305716 50.563895921222866"/></g><g transform="rotate(90)"><path d="M -12.640973980305716 50.563895921222866 Q 0 60.67667510546744 12.640973980305716 50.563895921222866"/></g><g transform="rotate(120)"><path d="M -12.640973980305716 50.563895921222866 Q 0 60.67667510546744 12.640973980305716 50.563895921222866"/></g><g transform="rotate(150)"><path d="M -12.640973980305716 50.563895921222866 Q 0 60.67667510546744 12.640973980305716 50.563895921222866"/></g><g transform="rotate(180)"><path d="M -12.640973980305716 50.563895921222866 Q 0 60.67667510546744 12.640973980305716 50.563895921222866"/></g><g transform="rotate(210)"><path d="M -12.640973980305716 50.563895921222866 Q 0 60.67667510546744 12.640973980305716 50.563895921222866"/></g><g transform="rotate(240)"><path d="M -12.640973980305716 50.563895921222866 Q 0 60.67667510546744 12.640973980305716 50.563895921222866"/></g><g transform="rotate(270)"><path d="M -12.640973980305716 50.563895921222866 Q 0 60.67667510546744 12.640973980305716 50.563895921222866"/></g><g transform="rotate(300)"><path d="M -12.640973980305716 50.563895921222866 Q 0 60.67667510546744 12.640973980305716 50.563895921222866"/></g><g transform="rotate(330)"><path d="M -12.640973980305716 50.563895921222866 Q 0 60.67667510546744 12.640973980305716 50.563895921222866"/></g><g transform="rotate(0)"><circle cx="0" cy="83.25283315498382" r="20.813208288745955"/></g><g transform="rotate(30)"><circle cx="0" cy="83.25283315498382" r="20.813208288745955"/></g><g transform="rotate(60)"><circle cx="0" cy="83.25283315498382" r="20.813208288745955"/></g><g transform="rotate(90)"><circle cx="0" cy="83.25283315498382" r="20.813208288745955"/></g><g transform="rotate(120)"><circle cx="0" cy="83.25283315498382" r="20.813208288745955"/></g><g transform="rotate(150)"><circle cx="0" cy="83.25283315498382" r="20.813208288745955"/></g><g transform="rotate(180)"><circle cx="0" cy="83.25283315498382" r="20.813208288745955"/></g><g transform="rotate(210)"><circle cx="0" cy="83.25283315498382" r="20.813208288745955"/></g><g transform="rotate(240)"><circle cx="0" cy="83.25283315498382" r="20.813208288745955"/></g><g transform="rotate(270)"><circle cx="0" cy="83.25283315498382" r="20.813208288745955"/></g><g transform="rotate(300)"><circle cx="0" cy="83.25283315498382" r="20.813208288745955"/></g><g transform="rotate(330)"><circle cx="0" cy="83.25283315498382" r="20.813208288745955"/></g><g transform="rotate(0)"><path d="M 0 138.17260363604873 L 0 179.62438472686335"/></g><g transform="rotate(30)"><path d="M 0 138.17260363604873 L 0 179.62438472686335"/></g><g transform="rotate(60)"><path d="M 0 138.17260363604873 L 0 179.62438472686335"/></g><g transform="rotate(90)"><path d="M 0 138.17260363604873 L 0 179.62438472686335"/></g><g transform="rotate(120)"><path d="M 0 138.17260363604873 L 0 179.62438472686335"/></g><g transform="rotate(150)"><path d="M 0 138.17260363604873 L 0 179.62438472686335"/></g><g transform="rotate(180)"><path d="M 0 138.17260363604873 L 0 179.62438472686335"/></g><g transform="rotate(210)"><path d="M 0 138.17260363604873 L 0 179.62438472686335"/></g><g transform="rotate(240)"><path d="M 0 138.17260363604873 L 0 179.62438472686335"/></g><g transform="rotate(270)"><path d="M 0 138.17260363604873 L 0 179.62438472686335"/></g><g transform="rotate(300)"><path d="M 0 138.17260363604873 L 0 179.62438472686335"/></g><g transform="rotate(330)"><path d="M 0 138.17260363604873 L 0 179.62438472686335"/></g><g transform="rotate(0)"><path d="M -40.78719272860326 163.14877091441303 Q 0 195.77852509729564 40.78719272860326 163.14877091441303"/></g><g transform="rotate(30)"><path d="M -40.78719272860326 163.14877091441303 Q 0 195.77852509729564 40.78719272860326 163.14877091441303"/></g><g transform="rotate(60)"><path d="M -40.78719272860326 163.14877091441303 Q 0 195.77852509729564 40.78719272860326 163.14877091441303"/></g><g transform="rotate(90)"><path d="M -40.78719272860326 163.14877091441303 Q 0 195.77852509729564 40.78719272860326 163.14877091441303"/></g><g transform="rotate(120)"><path d="M -40.78719272860326 163.14877091441303 Q 0 195.77852509729564 40.78719272860326 163.14877091441303"/></g><g transform="rotate(150)"><path d="M -40.78719272860326 163.14877091441303 Q 0 195.77852509729564 40.78719272860326 163.14877091441303"/></g><g transform="rotate(180)"><path d="M -40.78719272860326 163.14877091441303 Q 0 195.77852509729564 40.78719272860326 163.14877091441303"/></g><g transform="rotate(210)"><path d="M -40.78719272860326 163.14877091441303 Q 0 195.77852509729564 40.78719272860326 163.14877091441303"/></g><g transform="rotate(240)"><path d="M -40.78719272860326 163.14877091441303 Q 0 195.77852509729564 40.78719272860326 163.14877091441303"/></g><g transform="rotate(270)"><path d="M -40.78719272860326 163.14877091441303 Q 0 195.77852509729564 40.78719272860326 163.14877091441303"/></g><g transform="rotate(300)"><path d="M -40.78719272860326 163.14877091441303 Q 0 195.77852509729564 40.78719272860326 163.14877091441303"/></g><g transform="rotate(330)"><path d="M -40.78719272860326 163.14877091441303 Q 0 195.77852509729564 40.78719272860326 163.14877091441303"/></g><g transform="rotate(0)"><path d="M 0 201.8118044314906 L 0 262.3553457609378"/></g><g transform="rotate(30)"><path d="M 0 201.8118044314906 L 0 262.3553457609378"/></g><g transform="rotate(60)"><path d="M 0 201.8118044314906 L 0 262.3553457609378"/></g><g transform="rotate(90)"><path d="M 0 201.8118044314906 L 0 262.3553457609378"/></g><g transform="rotate(120)"><path d="M 0 201.8118044314906 L 0 262.3553457609378"/></g><g transform="rotate(150)"><path d="M 0 201.8118044314906 L 0 262.3553457609378"/></g><g transform="rotate(180)"><path d="M 0 201.8118044314906 L 0 262.3553457609378"/></g><g transform="rotate(210)"><path d="M 0 201.8118044314906 L 0 262.3553457609378"/></g><g transform="rotate(240)"><path d="M 0 201.8118044314906 L 0 262.3553457609378"/></g><g transform="rotate(270)"><path d="M 0 201.8118044314906 L 0 262.3553457609378"/></g><g transform="rotate(300)"><path d="M 0 201.8118044314906 L 0 262.3553457609378"/></g><g transform="rotate(330)"><path d="M 0 201.8118044314906 L 0 262.3553457609378"/></g><g transform="rotate(0)"><path d="M 0 243.46482396591455 L 60.86620599147864 292.15778875909746 L 0 340.85075355228037 L -60.86620599147864 292.15778875909746 Z"/></g><g transform="rotate(30)"><path d="M 0 243.46482396591455 L 60.86620599147864 292.15778875909746 L 0 340.85075355228037 L -60.86620599147864 292.15778875909746 Z"/></g><g transform="rotate(60)"><path d="M 0 243.46482396591455 L 60.86620599147864 292.15778875909746 L 0 340.85075355228037 L -60.86620599147864 292.15778875909746 Z"/></g><g transform="rotate(90)"><path d="M 0 243.46482396591455 L 60.86620599147864 292.15778875909746 L 0 340.85075355228037 L -60.86620599147864 292.15778875909746 Z"/></g><g transform="rotate(120)"><path d="M 0 243.46482396591455 L 60.86620599147864 292.15778875909746 L 0 340.85075355228037 L -60.86620599147864 292.15778875909746 Z"/></g><g transform="rotate(150)"><path d="M 0 243.46482396591455 L 60.86620599147864 292.15778875909746 L 0 340.85075355228037 L -60.86620599147864 292.15778875909746 Z"/></g><g transform="rotate(180)"><path d="M 0 243.46482396591455 L 60.86620599147864 292.15778875909746 L 0 340.85075355228037 L -60.86620599147864 292.15778875909746 Z"/></g><g transform="rotate(210)"><path d="M 0 243.46482396591455 L 60.86620599147864 292.15778875909746 L 0 340.85075355228037 L -60.86620599147864 292.15778875909746 Z"/></g><g transform="rotate(240)"><path d="M 0 243.46482396591455 L 60.86620599147864 292.15778875909746 L 0 340.85075355228037 L -60.86620599147864 292.15778875909746 Z"/></g><g transform="rotate(270)"><path d="M 0 243.46482396591455 L 60.86620599147864 292.15778875909746 L 0 340.85075355228037 L -60.86620599147864 292.15778875909746 Z"/></g><g transform="rotate(300)"><path d="M 0 243.46482396591455 L 60.86620599147864 292.15778875909746 L 0 340.85075355228037 L -60.86620599147864 292.15778875909746 Z"/></g><g transform="rotate(330)"><path d="M 0 243.46482396591455 L 60.86620599147864 292.15778875909746 L 0 340.85075355228037 L -60.86620599147864 292.15778875909746 Z"/></g><g transform="rotate(0)"><path d="M 0 295.84959847386926 L 0 384.60447801603004"/></g><g transform="rotate(30)"><path d="M 0 295.84959847386926 L 0 384.60447801603004"/></g><g transform="rotate(60)"><path d="M 0 295.84959847386926 L 0 384.60447801603004"/></g><g transform="rotate(90)"><path d="M 0 295.84959847386926 L 0 384.60447801603004"/></g><g transform="rotate(120)"><path d="M 0 295.84959847386926 L 0 384.60447801603004"/></g><g transform="rotate(150)"><path d="M 0 295.84959847386926 L 0 384.60447801603004"/></g><g transform="rotate(180)"><path d="M 0 295.84959847386926 L 0 384.60447801603004"/></g><g transform="rotate(210)"><path d="M 0 295.84959847386926 L 0 384.60447801603004"/></g><g transform="rotate(240)"><path d="M 0 295.84959847386926 L 0 384.60447801603004"/></g><g transform="rotate(270)"><path d="M 0 295.84959847386926 L 0 384.60447801603004"/></g><g transform="rotate(300)"><path d="M 0 295.84959847386926 L 0 384.60447801603004"/></g><g transform="rotate(330)"><path d="M 0 295.84959847386926 L 0 384.60447801603004"/></g><g transform="rotate(0)"><path d="M -81.85125940130092 327.4050376052037 Q 0 392.8860451262444 81.85125940130092 327.4050376052037"/></g><g transform="rotate(30)"><path d="M -81.85125940130092 327.4050376052037 Q 0 392.8860451262444 81.85125940130092 327.4050376052037"/></g><g transform="rotate(60)"><path d="M -81.85125940130092 327.4050376052037 Q 0 392.8860451262444 81.85125940130092 327.4050376052037"/></g><g transform="rotate(90)"><path d="M -81.85125940130092 327.4050376052037 Q 0 392.8860451262444 81.85125940130092 327.4050376052037"/></g><g transform="rotate(120)"><path d="M -81.85125940130092 327.4050376052037 Q 0 392.8860451262444 81.85125940130092 327.4050376052037"/></g><g transform="rotate(150)"><path d="M -81.85125940130092 327.4050376052037 Q 0 392.8860451262444 81.85125940130092 327.4050376052037"/></g><g transform="rotate(180)"><path d="M -81.85125940130092 327.4050376052037 Q 0 392.8860451262444 81.85125940130092 327.4050376052037"/></g><g transform="rotate(210)"><path d="M -81.85125940130092 327.4050376052037 Q 0 392.8860451262444 81.85125940130092 327.4050376052037"/></g><g transform="rotate(240)"><path d="M -81.85125940130092 327.4050376052037 Q 0 392.8860451262444 81.85125940130092 327.4050376052037"/></g><g transform="rotate(270)"><path d="M -81.85125940130092 327.4050376052037 Q 0 392.8860451262444 81.85125940130092 327.4050376052037"/></g><g transform="rotate(300)"><path d="M -81.85125940130092 327.4050376052037 Q 0 392.8860451262444 81.85125940130092 327.4050376052037"/></g><g transform="rotate(330)"><path d="M -81.85125940130092 327.4050376052037 Q 0 392.8860451262444 81.85125940130092 327.4050376052037"/></g></g></svg>