<svg xmlns="http://www.w3.org/2000/svg" viewBox="0 0 800 800" width="800" height="800">
    <rect width="100%" height="100%" fill="white"/>
    <g transform="translate(400, 400)" fill="none" stroke="black" stroke-width="4" stroke-linecap="round" stroke-linejoin="round"><g transform="rotate(0)"><path d="M -13.948058815440163 55.79223526176065 Q 0 66.95068231411278 13.948058815440163 55.79223526176065"/></g><g transform="rotate(60)"><path d="M -13.948058815440163 55.79223526176065 Q 0 66.95068231411278 13.948058815440163 55.79223526176065"/></g><g transform="rotate(120)"><path d="M -13.948058815440163 55.79223526176065 Q 0 66.95068231411278 13.948058815440163 55.79223526176065"/></g><g transform="rotate(180)"><path d="M -13.948058815440163 55.79223526176065 Q 0 66.95068231411278 13.948058815440163 55.79223526176065"/></g><g transform="rotate(240)"><path d="M -13.948058815440163 55.79223526176065 Q 0 66.95068231411278 13.948058815440163 55.79223526176065"/></g><g transform="rotate(300)"><path d="M -13.948058815440163 55.79223526176065 Q 0 66.95068231411278 13.948058815440163 55.79223526176065"/></g><g transform="rotate(0)"><path d="M 0 97.786033176817 Q 32.59534439227233 117.3432398121804 0 146.6790497652255 Q -32.59534439227233 117.3432398121804 0 97.786033176817"/></g><g transform="rotate(60)"><path d="M 0 97.786033176817 Q 32.59534439227233 117.3432398121804 0 146.6790497652255 Q -32.59534439227233 117.3432398121804 0 97.786033176817"/></g><g transform="rotate(120)"><path d="M 0 97.786033176817 Q 32.59534439227233 117.3432398121804 0 146.6790497652255 Q -32.59534439227233 117.3432398121804 0 97.786033176817"/></g><g transform="rotate(180)"><path d="M 0 97.786033176817 Q 32.59534439227233 117.3432398121804 0 146.6790497652255 Q -32.59534439227233 117.3432398121804 0 97.786033176817"/></g><g transform="rotate(240)"><path d="M 0 97.786033176817 Q 32.59534439227233 117.3432398121804 0 146.6790497652255 Q -32.59534439227233 117.3432398121804 0 97.786033176817"/></g><g transform="rotate(300)"><path d="M 0 97.786033176817 Q 32.59534439227233 117.3432398121804 0 146.6790497652255 Q -32.59534439227233 117.3432398121804 0 97.786033176817"/></g><g transform="rotate(0)"><circle cx="0" cy="123.38414966594428" r="30.84603741648607"/></g><g transform="rotate(60)"><circle cx="0" cy="123.38414966594428" r="30.84603741648607"/></g><g transform="rotate(120)"><circle cx="0" cy="123.38414966594428" r="30.84603741648607"/></g><g transform="rotate(180)"><circle cx="0" cy="123.38414966594428" r="30.84603741648607"/></g><g transform="rotate(240)"><circle cx="0" cy="123.38414966594428" r="30.84603741648607"/></g><g transform="rotate(300)"><circle cx="0" cy="123.38414966594428" r="30.84603741648607"/></g><g transform="rotate(0)"><circle cx="0" cy="172.6090991916135" r="43.152274797903374"/></g><g transform="rotate(60)"><circle cx="0" cy="172.6090991916135" r="43.152274797903374"/></g><g transform="rotate(120)"><circle cx="0" cy="172.6090991916135" r="43.152274797903374"/></g><g transform="rotate(180)"><circle cx="0" cy="172.6090991916135" r="43.152274797903374"/></g><g transform="rotate(240)"><circle cx="0" cy="172.6090991916135" r="43.152274797903374"/></g><g transform="rotate(300)"><circle cx="0" cy="172.6090991916135" r="43.152274797903374"/></g><g transform="rotate(0)"><path d="M 0 217.96394602861255 Q 72.65464867620419 261.55673523433506 0 326.94591904291883 Q -72.65464867620419 261.55673523433506 0 217.96394602861255"/></g><g transform="rotate(60)"><path d="M 0 217.96394602861255 Q 72.65464867620419 261.55673523433506 0 326.94591904291883 Q -72.65464867620419 261.55673523433506 0 217.96394602861255"/></g><g transform="rotate(120)"><path d="M 0 217.96394602861255 Q 72.65464867620419 261.55673523433506 0 326.94591904291883 Q -72.65464867620419 261.55673523433506 0 217.96394602861255"/></g><g transform="rotate(180)"><path d="M 0 217.96394602861255 Q 72.65464867620419 261.55673523433506 0 326.94591904291883 Q -72.65464867620419 261.55673523433506 0 217.96394602861255"/></g><g transform="rotate(240)"><path d="M 0 217.96394602861255 Q 72.65464867620419 261.55673523433506 0 326.94591904291883 Q -72.65464867620419 261.55673523433506 0 217.96394602861255"/></g><g transform="rotate(300)"><path d="M 0 217.96394602861255 Q 72.65464867620419 261.55673523433506 0 326.94591904291883 Q -72.65464867620419 261.55673523433506 0 217.96394602861255"/></g><g transform="rotate(0)"><path d="M 0 240.57385242078453 L 0 312.7460081470199"/></g><g transform="rotate(60)"><path d="M 0 240.57385242078453 L 0 312.7460081470199"/></g><g transform="rotate(120)"><path d="M 0 240.57385242078453 L 0 312.7460081470199"/></g><g transform="rotate(180)"><path d="M 0 240.57385242078453 L 0 312.7460081470199"/></g><g transform="rotate(240)"><path d="M 0 240.57385242078453 L 0 312.7460081470199"/></g><g transform="rotate(300)"><path d="M 0 240.57385242078453 L 0 312.7460081470199"/></g><g transform="rotate(0)"><circle cx="0" cy="283.8499045697972" r="70.9624761424493"/></g><g transform="rotate(60)"><circle cx="0" cy="283.8499045697972" r="70.9624761424493"/></g><g transform="rotate(120)"><circle cx="0" cy="283.8499045697972" r="70.9624761424493"/></g><g transform="rotate(180)"><circle cx="0" cy="283.8499045697972" r="70.9624761424493"/></g><g transform="rotate(240)"><circle cx="0" cy="283.8499045697972" r="70.9624761424493"/></g><g transform="rotate(300)"><circle cx="0" cy="283.8499045697972" r="70.9624761424493"/></g><g transform="rotate(0)"><path d="M 0 333.1053922371939 L 0 433.03700990835205"/></g><g transform="rotate(60)"><path d="M 0 333.1053922371939 L 0 433.03700990835205"/></g><g transform="rotate(120)"><path d="M 0 333.1053922371939 L 0 433.03700990835205"/></g><g transform="rotate(180)"><path d="M 0 333.1053922371939 L 0 433.03700990835205"/></g><g transform="rotate(240)"><path d="M 0 333.1053922371939 L 0 433.03700990835205"/></g><g transform="rotate(300)"><path d="M 0 333.1053922371939 L 0 433.03700990835205"/></g></g></svg>