<svg xmlns="http://www.w3.org/2000/svg" viewBox="0 0 800 800" width="800" height="800">
    <rect width="100%" height="100%" fill="white"/>
    <g transform="translate(400, 400)" fill="none" stroke="black" stroke-width="4" stroke-linecap="round" stroke-linejoin="round"><g transform="rotate(0)"><circle cx="0" cy="47.35128631349653" r="11.837821578374133"/></g><g transform="rotate(18)"><circle cx="0" cy="47.35128631349653" r="11.837821578374133"/></g><g transform="rotate(36)"><circle cx="0" cy="47.35128631349653" r="11.837821578374133"/></g><g transform="rotate(54)"><circle cx="0" cy="47.35128631349653" r="11.837821578374133"/></g><g transform="rotate(72)"><circle cx="0" cy="47.35128631349653" r="11.837821578374133"/></g><g transform="rotate(90)"><circle cx="0" cy="47.35128631349653" r="11.837821578374133"/></g><g transform="rotate(108)"><circle cx="0" cy="47.35128631349653" r="11.837821578374133"/></g><g transform="rotate(126)"><circle cx="0" cy="47.35128631349653" r="11.837821578374133"/></g><g transform="rotate(144)"><circle cx="0" cy="47.35128631349653" r="11.837821578374133"/></g><g transform="rotate(162)"><circle cx="0" cy="47.35128631349653" r="11.837821578374133"/></g><g transform="rotate(180)"><circle cx="0" cy="47.35128631349653" r="11.837821578374133"/></g><g transform="rotate(198)"><circle cx="0" cy="47.35128631349653" r="11.837821578374133"/></g><g transform="rotate(216)"><circle cx="0" cy="47.35128631349653" r="11.837821578374133"/></g><g transform="rotate(234)"><circle cx="0" cy="47.35128631349653" r="11.837821578374133"/></g><g transform="rotate(252)"><circle cx="0" cy="47.35128631349653" r="11.837821578374133"/></g><g transform="rotate(270)"><circle cx="0" cy="47.35128631349653" r="11.837821578374133"/></g><g transform="rotate(288)"><circle cx="0" cy="47.35128631349653" r="11.837821578374133"/></g><g transform="rotate(306)"><circle cx="0" cy="47.35128631349653" r="11.837821578374133"/></g><g transform="rotate(324)"><circle cx="0" cy="47.35128631349653" r="11.837821578374133"/></g><g transform="rotate(342)"><circle cx="0" cy="47.35128631349653" r="11.837821578374133"/></g><g transform="rotate(0)"><path d="M 0 110.09071890357882 L 0 143.11793457465248"/></g><g transform="rotate(18)"><path d="M 0 110.09071890357882 L 0 143.11793457465248"/></g><g transform="rotate(36)"><path d="M 0 110.09071890357882 L 0 143.11793457465248"/></g><g transform="rotate(54)"><path d="M 0 110.09071890357882 L 0 143.11793457465248"/></g><g transform="rotate(72)"><path d="M 0 110.09071890357882 L 0 143.11793457465248"/></g><g transform="rotate(90)"><path d="M 0 110.09071890357882 L 0 143.11793457465248"/></g><g transform="rotate(108)"><path d="M 0 110.09071890357882 L 0 143.11793457465248"/></g><g transform="rotate(126)"><path d="M 0 110.09071890357882 L 0 143.11793457465248"/></g><g transform="rotate(144)"><path d="M 0 110.09071890357882 L 0 143.11793457465248"/></g><g transform="rotate(162)"><path d="M 0 110.09071890357882 L 0 143.11793457465248"/></g><g transform="rotate(180)"><path d="M 0 110.09071890357882 L 0 143.11793457465248"/></g><g transform="rotate(198)"><path d="M 0 110.09071890357882 L 0 143.11793457465248"/></g><g transform="rotate(216)"><path d="M 0 110.09071890357882 L 0 143.11793457465248"/></g><g transform="rotate(234)"><path d="M 0 110.09071890357882 L 0 143.11793457465248"/></g><g transform="rotate(252)"><path d="M 0 110.09071890357882 L 0 143.11793457465248"/></g><g transform="rotate(270)"><path d="M 0 110.09071890357882 L 0 143.11793457465248"/></g><g transform="rotate(288)"><path d="M 0 110.09071890357882 L 0 143.11793457465248"/></g><g transform="rotate(306)"><path d="M 0 110.09071890357882 L 0 143.11793457465248"/></g><g transform="rotate(324)"><path d="M 0 110.09071890357882 L 0 143.11793457465248"/></g><g transform="rotate(342)"><path d="M 0 110.09071890357882 L 0 143.11793457465248"/></g><g transform="rotate(0)"><path d="M 0 180.07646168302745 L 0 234.0994001879357"/></g><g transform="rotate(18)"><path d="M 0 180.07646168302745 L 0 234.0994001879357"/></g><g transform="rotate(36)"><path d="M 0 180.07646168302745 L 0 234.0994001879357"/></g><g transform="rotate(54)"><path d="M 0 180.07646168302745 L 0 234.0994001879357"/></g><g transform="rotate(72)"><path d="M 0 180.07646168302745 L 0 234.0994001879357"/></g><g transform="rotate(90)"><path d="M 0 180.07646168302745 L 0 234.0994001879357"/></g><g transform="rotate(108)"><path d="M 0 180.07646168302745 L 0 234.0994001879357"/></g><g transform="rotate(126)"><path d="M 0 180.07646168302745 L 0 234.0994001879357"/></g><g transform="rotate(144)"><path d="M 0 180.07646168302745 L 0 234.0994001879357"/></g><g transform="rotate(162)"><path d="M 0 180.07646168302745 L 0 234.0994001879357"/></g><g transform="rotate(180)"><path d="M 0 180.07646168302745 L 0 234.0994001879357"/></g><g transform="rotate(198)"><path d="M 0 180.07646168302745 L 0 234.0994001879357"/></g><g transform="rotate(216)"><path d="M 0 180.07646168302745 L 0 234.0994001879357"/></g><g transform="rotate(234)"><path d="M 0 180.07646168302745 L 0 234.0994001879357"/></g><g transform="rotate(252)"><path d="M 0 180.07646168302745 L 0 234.0994001879357"/></g><g transform="rotate(270)"><path d="M 0 180.07646168302745 L 0 234.0994001879357"/></g><g transform="rotate(288)"><path d="M 0 180.07646168302745 L 0 234.0994001879357"/></g><g transform="rotate(306)"><path d="M 0 180.07646168302745 L 0 234.0994001879357"/></g><g transform="rotate(324)"><path d="M 0 180.07646168302745 L 0 234.0994001879357"/></g><g transform="rotate(342)"><path d="M 0 180.07646168302745 L 0 234.0994001879357"/></g><g transform="rotate(0)"><path d="M 0 232.87214392144233 L 58.21803598036058 279.4465727057308 L 0 326.0210014900192 L -58.21803598036058 279.4465727057308 Z"/></g><g transform="rotate(18)"><path d="M 0 232.87214392144233 L 58.21803598036058 279.4465727057308 L 0 326.0210014900192 L -58.21803598036058 279.4465727057308 Z"/></g><g transform="rotate(36)"><path d="M 0 232.87214392144233 L 58.21803598036058 279.4465727057308 L 0 326.0210014900192 L -58.21803598036058 279.4465727057308 Z"/></g><g transform="rotate(54)"><path d="M 0 232.87214392144233 L 58.21803598036058 279.4465727057308 L 0 326.0210014900192 L -58.21803598036058 279.4465727057308 Z"/></g><g transform="rotate(72)"><path d="M 0 232.87214392144233 L 58.21803598036058 279.4465727057308 L 0 326.0210014900192 L -58.21803598036058 279.4465727057308 Z"/></g><g transform="rotate(90)"><path d="M 0 232.87214392144233 L 58.21803598036058 279.4465727057308 L 0 326.0210014900192 L -58.21803598036058 279.4465727057308 Z"/></g><g transform="rotate(108)"><path d="M 0 232.87214392144233 L 58.21803598036058 279.4465727057308 L 0 326.0210014900192 L -58.21803598036058 279.4465727057308 Z"/></g><g transform="rotate(126)"><path d="M 0 232.87214392144233 L 58.21803598036058 279.4465727057308 L 0 326.0210014900192 L -58.21803598036058 279.4465727057308 Z"/></g><g transform="rotate(144)"><path d="M 0 232.87214392144233 L 58.21803598036058 279.4465727057308 L 0 326.0210014900192 L -58.21803598036058 279.4465727057308 Z"/></g><g transform="rotate(162)"><path d="M 0 232.87214392144233 L 58.21803598036058 279.4465727057308 L 0 326.0210014900192 L -58.21803598036058 279.4465727057308 Z"/></g><g transform="rotate(180)"><path d="M 0 232.87214392144233 L 58.21803598036058 279.4465727057308 L 0 326.0210014900192 L -58.21803598036058 279.4465727057308 Z"/></g><g transform="rotate(198)"><path d="M 0 232.87214392144233 L 58.21803598036058 279.4465727057308 L 0 326.0210014900192 L -58.21803598036058 279.4465727057308 Z"/></g><g transform="rotate(216)"><path d="M 0 232.87214392144233 L 58.21803598036058 279.4465727057308 L 0 326.0210014900192 L -58.21803598036058 279.4465727057308 Z"/></g><g transform="rotate(234)"><path d="M 0 232.87214392144233 L 58.21803598036058 279.4465727057308 L 0 326.0210014900192 L -58.21803598036058 279.4465727057308 Z"/></g><g transform="rotate(252)"><path d="M 0 232.87214392144233 L 58.21803598036058 279.4465727057308 L 0 326.0210014900192 L -58.21803598036058 279.4465727057308 Z"/></g><g transform="rotate(270)"><path d="M 0 232.87214392144233 L 58.21803598036058 279.4465727057308 L 0 326.0210014900192 L -58.21803598036058 279.4465727057308 Z"/></g><g transform="rotate(288)"><path d="M 0 232.87214392144233 L 58.21803598036058 279.4465727057308 L 0 326.0210014900192 L -58.21803598036058 279.4465727057308 Z"/></g><g transform="rotate(306)"><path d="M 0 232.87214392144233 L 58.21803598036058 279.4465727057308 L 0 326.0210014900192 L -58.21803598036058 279.4465727057308 Z"/></g><g transform="rotate(324)"><path d="M 0 232.87214392144233 L 58.21803598036058 279.4465727057308 L 0 326.0210014900192 L -58.21803598036058 279.4465727057308 Z"/></g><g transform="rotate(342)"><path d="M 0 232.87214392144233 L 58.21803598036058 279.4465727057308 L 0 326.0210014900192 L -58.21803598036058 279.4465727057308 Z"/></g><g transform="rotate(0)"><path d="M 0 311.7651697983965 Q 103.92172326613218 374.1182037580758 0 467.6477546975948 Q -103.92172326613218 374.1182037580758 0 311.7651697983965"/></g><g transform="rotate(18)"><path d="M 0 311.7651697983965 Q 103.92172326613218 374.1182037580758 0 467.6477546975948 Q -103.92172326613218 374.1182037580758 0 311.7651697983965"/></g><g transform="rotate(36)"><path d="M 0 311.7651697983965 Q 103.92172326613218 374.1182037580758 0 467.6477546975948 Q -103.92172326613218 374.1182037580758 0 311.7651697983965"/></g><g transform="rotate(54)"><path d="M 0 311.7651697983965 Q 103.92172326613218 374.1182037580758 0 467.6477546975948 Q -103.92172326613218 374.1182037580758 0 311.7651697983965"/></g><g transform="rotate(72)"><path d="M 0 311.7651697983965 Q 103.92172326613218 374.1182037580758 0 467.6477546975948 Q -103.92172326613218 374.1182037580758 0 311.7651697983965"/></g><g transform="rotate(90)"><path d="M 0 311.7651697983965 Q 103.92172326613218 374.1182037580758 0 467.6477546975948 Q -103.92172326613218 374.1182037580758 0 311.7651697983965"/></g><g transform="rotate(108)"><path d="M 0 311.7651697983965 Q 103.92172326613218 374.1182037580758 0 467.6477546975948 Q -103.92172326613218 374.1182037580758 0 311.7651697983965"/></g><g transform="rotate(126)"><path d="M 0 311.7651697983965 Q 103.92172326613218 374.1182037580758 0 467.6477546975948 Q -103.92172326613218 374.1182037580758 0 311.7651697983965"/></g><g transform="rotate(144)"><path d="M 0 311.7651697983965 Q 103.92172326613218 374.1182037580758 0 467.6477546975948 Q -103.92172326613218 374.1182037580758 0 311.7651697983965"/></g><g transform="rotate(162)"><path d="M 0 311.7651697983965 Q 103.92172326613218 374.1182037580758 0 467.6477546975948 Q -103.92172326613218 374.1182037580758 0 311.7651697983965"/></g><g transform="rotate(180)"><path d="M 0 311.7651697983965 Q 103.92172326613218 374.1182037580758 0 467.6477546975948 Q -103.92172326613218 374.1182037580758 0 311.7651697983965"/></g><g transform="rotate(198)"><path d="M 0 311.7651697983965 Q 103.92172326613218 374.1182037580758 0 467.6477546975948 Q -103.92172326613218 374.1182037580758 0 311.7651697983965"/></g><g transform="rotate(216)"><path d="M 0 311.7651697983965 Q 103.92172326613218 374.1182037580758 0 467.6477546975948 Q -103.92172326613218 374.1182037580758 0 311.7651697983965"/></g><g transform="rotate(234)"><path d="M 0 311.7651697983965 Q 103.92172326613218 374.1182037580758 0 467.6477546975948 Q -103.92172326613218 374.1182037580758 0 311.7651697983965"/></g><g transform="rotate(252)"><path d="M 0 311.7651697983965 Q 103.92172326613218 374.1182037580758 0 467.6477546975948 Q -103.92172326613218 374.1182037580758 0 311.7651697983965"/></g><g transform="rotate(270)"><path d="M 0 311.7651697983965 Q 103.92172326613218 374.1182037580758 0 467.6477546975948 Q -103.92172326613218 374.1182037580758 0 311.7651697983965"/></g><g transform="rotate(288)"><path d="M 0 311.7651697983965 Q 103.92172326613218 374.1182037580758 0 467.6477546975948 Q -103.92172326613218 374.1182037580758 0 311.7651697983965"/></g><g transform="rotate(306)"><path d="M 0 311.7651697983965 Q 103.92172326613218 374.1182037580758 0 467.6477546975948 Q -103.92172326613218 374.1182037580758 0 311.7651697983965"/></g><g transform="rotate(324)"><path d="M 0 311.7651697983965 Q 103.92172326613218 374.1182037580758 0 467.6477546975948 Q -103.92172326613218 374.1182037580758 0 311.7651697983965"/></g><g transform="rotate(342)"><path d="M 0 311.7651697983965 Q 103.92172326613218 374.1182037580758 0 467.6477546975948 Q -103.92172326613218 374.1182037580758 0 311.7651697983965"/></g></g></svg>