<svg xmlns="http://www.w3.org/2000/svg" viewBox="0 0 800 800" width="800" height="800">
    <rect width="100%" height="100%" fill="white"/>
    <g transform="translate(400, 400)" fill="none" stroke="black" stroke-width="4" stroke-linecap="round" stroke-linejoin="round"><g transform="rotate(0)"><circle cx="0" cy="43.93396424129605" r="10.983491060324013"/></g><g transform="rotate(22.5)"><circle cx="0" cy="43.93396424129605" r="10.983491060324013"/></g><g transform="rotate(45)"><circle cx="0" cy="43.93396424129605" r="10.983491060324013"/></g><g transform="rotate(67.5)"><circle cx="0" cy="43.93396424129605" r="10.983491060324013"/></g><g transform="rotate(90)"><circle cx="0" cy="43.93396424129605" r="10.983491060324013"/></g><g transform="rotate(112.5)"><circle cx="0" cy="43.93396424129605" r="10.983491060324013"/></g><g transform="rotate(135)"><circle cx="0" cy="43.93396424129605" r="10.983491060324013"/></g><g transform="rotate(157.5)"><circle cx="0" cy="43.93396424129605" r="10.983491060324013"/></g><g transform="rotate(180)"><circle cx="0" cy="43.93396424129605" r="10.983491060324013"/></g><g transform="rotate(202.5)"><circle cx="0" cy="43.93396424129605" r="10.983491060324013"/></g><g transform="rotate(225)"><circle cx="0" cy="43.93396424129605" r="10.983491060324013"/></g><g transform="rotate(247.5)"><circle cx="0" cy="43.93396424129605" r="10.983491060324013"/></g><g transform="rotate(270)"><circle cx="0" cy="43.93396424129605" r="10.983491060324013"/></g><g transform="rotate(292.5)"><circle cx="0" cy="43.93396424129605" r="10.983491060324013"/></g><g transform="rotate(315)"><circle cx="0" cy="43.93396424129605" r="10.983491060324013"/></g><g transform="rotate(337.5)"><circle cx="0" cy="43.93396424129605" r="10.983491060324013"/></g><g transform="rotate(0)"><path d="M 0 90.08914588536653 L 22.522286471341634 108.10697506243984 L 0 126.12480423951314 L -22.522286471341634 108.10697506243984 Z"/></g><g transform="rotate(22.5)"><path d="M 0 90.08914588536653 L 22.522286471341634 108.10697506243984 L 0 126.12480423951314 L -22.522286471341634 108.10697506243984 Z"/></g><g transform="rotate(45)"><path d="M 0 90.08914588536653 L 22.522286471341634 108.10697506243984 L 0 126.12480423951314 L -22.522286471341634 108.10697506243984 Z"/></g><g transform="rotate(67.5)"><path d="M 0 90.08914588536653 L 22.522286471341634 108.10697506243984 L 0 126.12480423951314 L -22.522286471341634 108.10697506243984 Z"/></g><g transform="rotate(90)"><path d="M 0 90.08914588536653 L 22.522286471341634 108.10697506243984 L 0 126.12480423951314 L -22.522286471341634 108.10697506243984 Z"/></g><g transform="rotate(112.5)"><path d="M 0 90.08914588536653 L 22.522286471341634 108.10697506243984 L 0 126.12480423951314 L -22.522286471341634 108.10697506243984 Z"/></g><g transform="rotate(135)"><path d="M 0 90.08914588536653 L 22.522286471341634 108.10697506243984 L 0 126.12480423951314 L -22.522286471341634 108.10697506243984 Z"/></g><g transform="rotate(157.5)"><path d="M 0 90.08914588536653 L 22.522286471341634 108.10697506243984 L 0 126.12480423951314 L -22.522286471341634 108.10697506243984 Z"/></g><g transform="rotate(180)"><path d="M 0 90.08914588536653 L 22.522286471341634 108.10697506243984 L 0 126.12480423951314 L -22.522286471341634 108.10697506243984 Z"/></g><g transform="rotate(202.5)"><path d="M 0 90.08914588536653 L 22.522286471341634 108.10697506243984 L 0 126.12480423951314 L -22.522286471341634 108.10697506243984 Z"/></g><g transform="rotate(225)"><path d="M 0 90.08914588536653 L 22.522286471341634 108.10697506243984 L 0 126.12480423951314 L -22.522286471341634 108.10697506243984 Z"/></g><g transform="rotate(247.5)"><path d="M 0 90.08914588536653 L 22.522286471341634 108.10697506243984 L 0 126.12480423951314 L -22.522286471341634 108.10697506243984 Z"/></g><g transform="rotate(270)"><path d="M 0 90.08914588536653 L 22.522286471341634 108.10697506243984 L 0 126.12480423951314 L -22.522286471341634 108.10697506243984 Z"/></g><g transform="rotate(292.5)"><path d="M 0 90.08914588536653 L 22.522286471341634 108.10697506243984 L 0 126.12480423951314 L -22.522286471341634 108.10697506243984 Z"/></g><g transform="rotate(315)"><path d="M 0 90.08914588536653 L 22.522286471341634 108.10697506243984 L 0 126.12480423951314 L -22.522286471341634 108.10697506243984 Z"/></g><g transform="rotate(337.5)"><path d="M 0 90.08914588536653 L 22.522286471341634 108.10697506243984 L 0 126.12480423951314 L -22.522286471341634 108.10697506243984 Z"/></g><g transform="rotate(0)"><path d="M 0 114.05776429093547 Q 38.01925476364516 136.86931714912257 0 171.0866464364032 Q -38.01925476364516 136.86931714912257 0 114.05776429093547"/></g><g transform="rotate(22.5)"><path d="M 0 114.05776429093547 Q 38.01925476364516 136.86931714912257 0 171.0866464364032 Q -38.01925476364516 136.86931714912257 0 114.05776429093547"/></g><g transform="rotate(45)"><path d="M 0 114.05776429093547 Q 38.01925476364516 136.86931714912257 0 171.0866464364032 Q -38.01925476364516 136.86931714912257 0 114.05776429093547"/></g><g transform="rotate(67.5)"><path d="M 0 114.05776429093547 Q 38.01925476364516 136.86931714912257 0 171.0866464364032 Q -38.01925476364516 136.86931714912257 0 114.05776429093547"/></g><g transform="rotate(90)"><path d="M 0 114.05776429093547 Q 38.01925476364516 136.86931714912257 0 171.0866464364032 Q -38.01925476364516 136.86931714912257 0 114.05776429093547"/></g><g transform="rotate(112.5)"><path d="M 0 114.05776429093547 Q 38.01925476364516 136.86931714912257 0 171.0866464364032 Q -38.01925476364516 136.86931714912257 0 114.05776429093547"/></g><g transform="rotate(135)"><path d="M 0 114.05776429093547 Q 38.01925476364516 136.86931714912257 0 171.0866464364032 Q -38.01925476364516 136.86931714912257 0 114.05776429093547"/></g><g transform="rotate(157.5)"><path d="M 0 114.05776429093547 Q 38.01925476364516 136.86931714912257 0 171.0866464364032 Q -38.01925476364516 136.86931714912257 0 114.05776429093547"/></g><g transform="rotate(180)"><path d="M 0 114.05776429093547 Q 38.01925476364516 136.86931714912257 0 171.0866464364032 Q -38.01925476364516 136.86931714912257 0 114.05776429093547"/></g><g transform="rotate(202.5)"><path d="M 0 114.05776429093547 Q 38.01925476364516 136.86931714912257 0 171.0866464364032 Q -38.01925476364516 136.86931714912257 0 114.05776429093547"/></g><g transform="rotate(225)"><path d="M 0 114.05776429093547 Q 38.01925476364516 136.86931714912257 0 171.0866464364032 Q -38.01925476364516 136.86931714912257 0 114.05776429093547"/></g><g transform="rotate(247.5)"><path d="M 0 114.05776429093547 Q 38.01925476364516 136.86931714912257 0 171.0866464364032 Q -38.01925476364516 136.86931714912257 0 114.05776429093547"/></g><g transform="rotate(270)"><path d="M 0 114.05776429093547 Q 38.01925476364516 136.86931714912257 0 171.0866464364032 Q -38.01925476364516 136.86931714912257 0 114.05776429093547"/></g><g transform="rotate(292.5)"><path d="M 0 114.05776429093547 Q 38.01925476364516 136.86931714912257 0 171.0866464364032 Q -38.01925476364516 136.86931714912257 0 114.05776429093547"/></g><g transform="rotate(315)"><path d="M 0 114.05776429093547 Q 38.01925476364516 136.86931714912257 0 171.0866464364032 Q -38.01925476364516 136.86931714912257 0 114.05776429093547"/></g><g transform="rotate(337.5)"><path d="M 0 114.05776429093547 Q 38.01925476364516 136.86931714912257 0 171.0866464364032 Q -38.01925476364516 136.86931714912257 0 114.05776429093547"/></g><g transform="rotate(0)"><path d="M 0 162.2394897012661 L 0 210.91133661164594"/></g><g transform="rotate(22.5)"><path d="M 0 162.2394897012661 L 0 210.91133661164594"/></g><g transform="rotate(45)"><path d="M 0 162.2394897012661 L 0 210.91133661164594"/></g><g transform="rotate(67.5)"><path d="M 0 162.2394897012661 L 0 210.91133661164594"/></g><g transform="rotate(90)"><path d="M 0 162.2394897012661 L 0 210.91133661164594"/></g><g transform="rotate(112.5)"><path d="M 0 162.2394897012661 L 0 210.91133661164594"/></g><g transform="rotate(135)"><path d="M 0 162.2394897012661 L 0 210.91133661164594"/></g><g transform="rotate(157.5)"><path d="M 0 162.2394897012661 L 0 210.91133661164594"/></g><g transform="rotate(180)"><path d="M 0 162.2394897012661 L 0 210.91133661164594"/></g><g transform="rotate(202.5)"><path d="M 0 162.2394897012661 L 0 210.91133661164594"/></g><g transform="rotate(225)"><path d="M 0 162.2394897012661 L 0 210.91133661164594"/></g><g transform="rotate(247.5)"><path d="M 0 162.2394897012661 L 0 210.91133661164594"/></g><g transform="rotate(270)"><path d="M 0 162.2394897012661 L 0 210.91133661164594"/></g><g transform="rotate(292.5)"><path d="M 0 162.2394897012661 L 0 210.91133661164594"/></g><g transform="rotate(315)"><path d="M 0 162.2394897012661 L 0 210.91133661164594"/></g><g transform="rotate(337.5)"><path d="M 0 162.2394897012661 L 0 210.91133661164594"/></g><g transform="rotate(0)"><path d="M 0 183.39966256378426 Q 61.133220854594754 220.0795950765411 0 275.0994938456764 Q -61.133220854594754 220.0795950765411 0 183.39966256378426"/></g><g transform="rotate(22.5)"><path d="M 0 183.39966256378426 Q 61.133220854594754 220.0795950765411 0 275.0994938456764 Q -61.133220854594754 220.0795950765411 0 183.39966256378426"/></g><g transform="rotate(45)"><path d="M 0 183.39966256378426 Q 61.133220854594754 220.0795950765411 0 275.0994938456764 Q -61.133220854594754 220.0795950765411 0 183.39966256378426"/></g><g transform="rotate(67.5)"><path d="M 0 183.39966256378426 Q 61.133220854594754 220.0795950765411 0 275.0994938456764 Q -61.133220854594754 220.0795950765411 0 183.39966256378426"/></g><g transform="rotate(90)"><path d="M 0 183.39966256378426 Q 61.133220854594754 220.0795950765411 0 275.0994938456764 Q -61.133220854594754 220.0795950765411 0 183.39966256378426"/></g><g transform="rotate(112.5)"><path d="M 0 183.39966256378426 Q 61.133220854594754 220.0795950765411 0 275.0994938456764 Q -61.133220854594754 220.0795950765411 0 183.39966256378426"/></g><g transform="rotate(135)"><path d="M 0 183.39966256378426 Q 61.133220854594754 220.0795950765411 0 275.0994938456764 Q -61.133220854594754 220.0795950765411 0 183.39966256378426"/></g><g transform="rotate(157.5)"><path d="M 0 183.39966256378426 Q 61.133220854594754 220.0795950765411 0 275.0994938456764 Q -61.133220854594754 220.0795950765411 0 183.39966256378426"/></g><g transform="rotate(180)"><path d="M 0 183.39966256378426 Q 61.133220854594754 220.0795950765411 0 275.0994938456764 Q -61.133220854594754 220.0795950765411 0 183.39966256378426"/></g><g transform="rotate(202.5)"><path d="M 0 183.39966256378426 Q 61.133220854594754 220.0795950765411 0 275.0994938456764 Q -61.133220854594754 220.0795950765411 0 183.39966256378426"/></g><g transform="rotate(225)"><path d="M 0 183.39966256378426 Q 61.133220854594754 220.0795950765411 0 275.0994938456764 Q -61.133220854594754 220.0795950765411 0 183.39966256378426"/></g><g transform="rotate(247.5)"><path d="M 0 183.39966256378426 Q 61.133220854594754 220.0795950765411 0 275.0994938456764 Q -61.133220854594754 220.0795950765411 0 183.39966256378426"/></g><g transform="rotate(270)"><path d="M 0 183.39966256378426 Q 61.133220854594754 220.0795950765411 0 275.0994938456764 Q -61.133220854594754 220.0795950765411 0 183.39966256378426"/></g><g transform="rotate(292.5)"><path d="M 0 183.39966256378426 Q 61.133220854594754 220.0795950765411 0 275.0994938456764 Q -61.133220854594754 220.0795950765411 0 183.39966256378426"/></g><g transform="rotate(315)"><path d="M 0 183.39966256378426 Q 61.133220854594754 220.0795950765411 0 275.0994938456764 Q -61.133220854594754 220.0795950765411 0 183.39966256378426"/></g><g transform="rotate(337.5)"><path d="M 0 183.39966256378426 Q 61.133220854594754 220.0795950765411 0 275.0994938456764 Q -61.133220854594754 220.0795950765411 0 183.39966256378426"/></g><g transform="rotate(0)"><circle cx="0" cy="229.8665362668948" r="57.4666340667237"/></g><g transform="rotate(22.5)"><circle cx="0" cy="229.8665362668948" r="57.4666340667237"/></g><g transform="rotate(45)"><circle cx="0" cy="229.8665362668948" r="57.4666340667237"/></g><g transform="rotate(67.5)"><circle cx="0" cy="229.8665362668948" r="57.4666340667237"/></g><g transform="rotate(90)"><circle cx="0" cy="229.8665362668948" r="57.4666340667237"/></g><g transform="rotate(112.5)"><circle cx="0" cy="229.8665362668948" r="57.4666340667237"/></g><g transform="rotate(135)"><circle cx="0" cy="229.8665362668948" r="57.4666340667237"/></g><g transform="rotate(157.5)"><circle cx="0" cy="229.8665362668948" r="57.4666340667237"/></g><g transform="rotate(180)"><circle cx="0" cy="229.8665362668948" r="57.4666340667237"/></g><g transform="rotate(202.5)"><circle cx="0" cy="229.8665362668948" r="57.4666340667237"/></g><g transform="rotate(225)"><circle cx="0" cy="229.8665362668948" r="57.4666340667237"/></g><g transform="rotate(247.5)"><circle cx="0" cy="229.8665362668948" r="57.4666340667237"/></g><g transform="rotate(270)"><circle cx="0" cy="229.8665362668948" r="57.4666340667237"/></g><g transform="rotate(292.5)"><circle cx="0" cy="229.8665362668948" r="57.4666340667237"/></g><g transform="rotate(315)"><circle cx="0" cy="229.8665362668948" r="57.4666340667237"/></g><g transform="rotate(337.5)"><circle cx="0" cy="229.8665362668948" r="57.4666340667237"/></g><g transform="rotate(0)"><path d="M -64.33155929048857 257.3262371619543 Q 0 308.79148459434515 64.33155929048857 257.3262371619543"/></g><g transform="rotate(22.5)"><path d="M -64.33155929048857 257.3262371619543 Q 0 308.79148459434515 64.33155929048857 257.3262371619543"/></g><g transform="rotate(45)"><path d="M -64.33155929048857 257.3262371619543 Q 0 308.79148459434515 64.33155929048857 257.3262371619543"/></g><g transform="rotate(67.5)"><path d="M -64.33155929048857 257.3262371619543 Q 0 308.79148459434515 64.33155929048857 257.3262371619543"/></g><g transform="rotate(90)"><path d="M -64.33155929048857 257.3262371619543 Q 0 308.79148459434515 64.33155929048857 257.3262371619543"/></g><g transform="rotate(112.5)"><path d="M -64.33155929048857 257.3262371619543 Q 0 308.79148459434515 64.33155929048857 257.3262371619543"/></g><g transform="rotate(135)"><path d="M -64.33155929048857 257.3262371619543 Q 0 308.79148459434515 64.33155929048857 257.3262371619543"/></g><g transform="rotate(157.5)"><path d="M -64.33155929048857 257.3262371619543 Q 0 308.79148459434515 64.33155929048857 257.3262371619543"/></g><g transform="rotate(180)"><path d="M -64.33155929048857 257.3262371619543 Q 0 308.79148459434515 64.33155929048857 257.3262371619543"/></g><g transform="rotate(202.5)"><path d="M -64.33155929048857 257.3262371619543 Q 0 308.79148459434515 64.33155929048857 257.3262371619543"/></g><g transform="rotate(225)"><path d="M -64.33155929048857 257.3262371619543 Q 0 308.79148459434515 64.33155929048857 257.3262371619543"/></g><g transform="rotate(247.5)"><path d="M -64.33155929048857 257.3262371619543 Q 0 308.79148459434515 64.33155929048857 257.3262371619543"/></g><g transform="rotate(270)"><path d="M -64.33155929048857 257.3262371619543 Q 0 308.79148459434515 64.33155929048857 257.3262371619543"/></g><g transform="rotate(292.5)"><path d="M -64.33155929048857 257.3262371619543 Q 0 308.79148459434515 64.33155929048857 257.3262371619543"/></g><g transform="rotate(315)"><path d="M -64.33155929048857 257.3262371619543 Q 0 308.79148459434515 64.33155929048857 257.3262371619543"/></g><g transform="rotate(337.5)"><path d="M -64.33155929048857 257.3262371619543 Q 0 308.79148459434515 64.33155929048857 257.3262371619543"/></g><g transform="rotate(0)"><circle cx="0" cy="301.0694457766497" r="75.26736144416242"/></g><g transform="rotate(22.5)"><circle cx="0" cy="301.0694457766497" r="75.26736144416242"/></g><g transform="rotate(45)"><circle cx="0" cy="301.0694457766497" r="75.26736144416242"/></g><g transform="rotate(67.5)"><circle cx="0" cy="301.0694457766497" r="75.26736144416242"/></g><g transform="rotate(90)"><circle cx="0" cy="301.0694457766497" r="75.26736144416242"/></g><g transform="rotate(112.5)"><circle cx="0" cy="301.0694457766497" r="75.26736144416242"/></g><g transform="rotate(135)"><circle cx="0" cy="301.0694457766497" r="75.26736144416242"/></g><g transform="rotate(157.5)"><circle cx="0" cy="301.0694457766497" r="75.26736144416242"/></g><g transform="rotate(180)"><circle cx="0" cy="301.0694457766497" r="75.26736144416242"/></g><g transform="rotate(202.5)"><circle cx="0" cy="301.0694457766497" r="75.26736144416242"/></g><g transform="rotate(225)"><circle cx="0" cy="301.0694457766497" r="75.26736144416242"/></g><g transform="rotate(247.5)"><circle cx="0" cy="301.0694457766497" r="75.26736144416242"/></g><g transform="rotate(270)"><circle cx="0" cy="301.0694457766497" r="75.26736144416242"/></g><g transform="rotate(292.5)"><circle cx="0" cy="301.0694457766497" r="75.26736144416242"/></g><g transform="rotate(315)"><circle cx="0" cy="301.0694457766497" r="75.26736144416242"/></g><g transform="rotate(337.5)"><circle cx="0" cy="301.0694457766497" r="75.26736144416242"/></g><g transform="rotate(0)"><path d="M 0 343.5164593760338 L 85.87911484400846 412.21975125124055 L 0 480.92304312644734 L -85.87911484400846 412.21975125124055 Z"/></g><g transform="rotate(22.5)"><path d="M 0 343.5164593760338 L 85.87911484400846 412.21975125124055 L 0 480.92304312644734 L -85.87911484400846 412.21975125124055 Z"/></g><g transform="rotate(45)"><path d="M 0 343.5164593760338 L 85.87911484400846 412.21975125124055 L 0 480.92304312644734 L -85.87911484400846 412.21975125124055 Z"/></g><g transform="rotate(67.5)"><path d="M 0 343.5164593760338 L 85.87911484400846 412.21975125124055 L 0 480.92304312644734 L -85.87911484400846 412.21975125124055 Z"/></g><g transform="rotate(90)"><path d="M 0 343.5164593760338 L 85.87911484400846 412.21975125124055 L 0 480.92304312644734 L -85.87911484400846 412.21975125124055 Z"/></g><g transform="rotate(112.5)"><path d="M 0 343.5164593760338 L 85.87911484400846 412.21975125124055 L 0 480.92304312644734 L -85.87911484400846 412.21975125124055 Z"/></g><g transform="rotate(135)"><path d="M 0 343.5164593760338 L 85.87911484400846 412.21975125124055 L 0 480.92304312644734 L -85.87911484400846 412.21975125124055 Z"/></g><g transform="rotate(157.5)"><path d="M 0 343.5164593760338 L 85.87911484400846 412.21975125124055 L 0 480.92304312644734 L -85.87911484400846 412.21975125124055 Z"/></g><g transform="rotate(180)"><path d="M 0 343.5164593760338 L 85.87911484400846 412.21975125124055 L 0 480.92304312644734 L -85.87911484400846 412.21975125124055 Z"/></g><g transform="rotate(202.5)"><path d="M 0 343.5164593760338 L 85.87911484400846 412.21975125124055 L 0 480.92304312644734 L -85.87911484400846 412.21975125124055 Z"/></g><g transform="rotate(225)"><path d="M 0 343.5164593760338 L 85.87911484400846 412.21975125124055 L 0 480.92304312644734 L -85.87911484400846 412.21975125124055 Z"/></g><g transform="rotate(247.5)"><path d="M 0 343.5164593760338 L 85.87911484400846 412.21975125124055 L 0 480.92304312644734 L -85.87911484400846 412.21975125124055 Z"/></g><g transform="rotate(270)"><path d="M 0 343.5164593760338 L 85.87911484400846 412.21975125124055 L 0 480.92304312644734 L -85.87911484400846 412.21975125124055 Z"/></g><g transform="rotate(292.5)"><path d="M 0 343.5164593760338 L 85.87911484400846 412.21975125124055 L 0 480.92304312644734 L -85.87911484400846 412.21975125124055 Z"/></g><g transform="rotate(315)"><path d="M 0 343.5164593760338 L 85.87911484400846 412.21975125124055 L 0 480.92304312644734 L -85.87911484400846 412.21975125124055 Z"/></g><g transform="rotate(337.5)"><path d="M 0 343.5164593760338 L 85.87911484400846 412.21975125124055 L 0 480.92304312644734 L -85.87911484400846 412.21975125124055 Z"/></g></g></svg>