<svg xmlns="http://www.w3.org/2000/svg" viewBox="0 0 800 800" width="800" height="800">
    <rect width="100%" height="100%" fill="white"/>
    <g transform="translate(400, 400)" fill="none" stroke="black" stroke-width="4" stroke-linecap="round" stroke-linejoin="round"><g transform="rotate(0)"><path d="M 0 47.65050628222525 Q 15.883502094075084 57.1806075386703 0 71.47575942333788 Q -15.883502094075084 57.1806075386703 0 47.65050628222525"/></g><g transform="rotate(30)"><path d="M 0 47.65050628222525 Q 15.883502094075084 57.1806075386703 0 71.47575942333788 Q -15.883502094075084 57.1806075386703 0 47.65050628222525"/></g><g transform="rotate(60)"><path d="M 0 47.65050628222525 Q 15.883502094075084 57.1806075386703 0 71.47575942333788 Q -15.883502094075084 57.1806075386703 0 47.65050628222525"/></g><g transform="rotate(90)"><path d="M 0 47.65050628222525 Q 15.883502094075084 57.1806075386703 0 71.47575942333788 Q -15.883502094075084 57.1806075386703 0 47.65050628222525"/></g><g transform="rotate(120)"><path d="M 0 47.65050628222525 Q 15.883502094075084 57.1806075386703 0 71.47575942333788 Q -15.883502094075084 57.1806075386703 0 47.65050628222525"/></g><g transform="rotate(150)"><path d="M 0 47.65050628222525 Q 15.883502094075084 57.1806075386703 0 71.47575942333788 Q -15.883502094075084 57.1806075386703 0 47.65050628222525"/></g><g transform="rotate(180)"><path d="M 0 47.65050628222525 Q 15.883502094075084 57.1806075386703 0 71.47575942333788 Q -15.883502094075084 57.1806075386703 0 47.65050628222525"/></g><g transform="rotate(210)"><path d="M 0 47.65050628222525 Q 15.883502094075084 57.1806075386703 0 71.47575942333788 Q -15.883502094075084 57.1806075386703 0 47.65050628222525"/></g><g transform="rotate(240)"><path d="M 0 47.65050628222525 Q 15.883502094075084 57.1806075386703 0 71.47575942333788 Q -15.883502094075084 57.1806075386703 0 47.65050628222525"/></g><g transform="rotate(270)"><path d="M 0 47.65050628222525 Q 15.883502094075084 57.1806075386703 0 71.47575942333788 Q -15.883502094075084 57.1806075386703 0 47.65050628222525"/></g><g transform="rotate(300)"><path d="M 0 47.65050628222525 Q 15.883502094075084 57.1806075386703 0 71.47575942333788 Q -15.883502094075084 57.1806075386703 0 47.65050628222525"/></g><g transform="rotate(330)"><path d="M 0 47.65050628222525 Q 15.883502094075084 57.1806075386703 0 71.47575942333788 Q -15.883502094075084 57.1806075386703 0 47.65050628222525"/></g><g transform="rotate(0)"><path d="M -21.688190434527186 86.75276173810875 Q 0 104.10331408573049 21.688190434527186 86.75276173810875"/></g><g transform="rotate(30)"><path d="M -21.688190434527186 86.75276173810875 Q 0 104.10331408573049 21.688190434527186 86.75276173810875"/></g><g transform="rotate(60)"><path d="M -21.688190434527186 86.75276173810875 Q 0 104.10331408573049 21.688190434527186 86.75276173810875"/></g><g transform="rotate(90)"><path d="M -21.688190434527186 86.75276173810875 Q 0 104.10331408573049 21.688190434527186 86.75276173810875"/></g><g transform="rotate(120)"><path d="M -21.688190434527186 86.75276173810875 Q 0 104.10331408573049 21.688190434527186 86.75276173810875"/></g><g transform="rotate(150)"><path d="M -21.688190434527186 86.75276173810875 Q 0 104.10331408573049 21.688190434527186 86.75276173810875"/></g><g transform="rotate(180)"><path d="M -21.688190434527186 86.75276173810875 Q 0 104.10331408573049 21.688190434527186 86.75276173810875"/></g><g transform="rotate(210)"><path d="M -21.688190434527186 86.75276173810875 Q 0 104.10331408573049 21.688190434527186 86.75276173810875"/></g><g transform="rotate(240)"><path d="M -21.688190434527186 86.75276173810875 Q 0 104.10331408573049 21.688190434527186 86.75276173810875"/></g><g transform="rotate(270)"><path d="M -21.688190434527186 86.75276173810875 Q 0 104.10331408573049 21.688190434527186 86.75276173810875"/></g><g transform="rotate(300)"><path d="M -21.688190434527186 86.75276173810875 Q 0 104.10331408573049 21.688190434527186 86.75276173810875"/></g><g transform="rotate(330)"><path d="M -21.688190434527186 86.75276173810875 Q 0 104.10331408573049 21.688190434527186 86.75276173810875"/></g><g transform="rotate(0)"><path d="M 0 135.25021758063565 L 33.81255439515891 162.30026109676277 L 0 189.3503046128899 L -33.81255439515891 162.30026109676277 Z"/></g><g transform="rotate(30)"><path d="M 0 135.25021758063565 L 33.81255439515891 162.30026109676277 L 0 189.3503046128899 L -33.81255439515891 162.30026109676277 Z"/></g><g transform="rotate(60)"><path d="M 0 135.25021758063565 L 33.81255439515891 162.30026109676277 L 0 189.3503046128899 L -33.81255439515891 162.30026109676277 Z"/></g><g transform="rotate(90)"><path d="M 0 135.25021758063565 L 33.81255439515891 162.30026109676277 L 0 189.3503046128899 L -33.81255439515891 162.30026109676277 Z"/></g><g transform="rotate(120)"><path d="M 0 135.25021758063565 L 33.81255439515891 162.30026109676277 L 0 189.3503046128899 L -33.81255439515891 162.30026109676277 Z"/></g><g transform="rotate(150)"><path d="M 0 135.25021758063565 L 33.81255439515891 162.30026109676277 L 0 189.3503046128899 L -33.81255439515891 162.30026109676277 Z"/></g><g transform="rotate(180)"><path d="M 0 135.25021758063565 L 33.81255439515891 162.30026109676277 L 0 189.3503046128899 L -33.81255439515891 162.30026109676277 Z"/></g><g transform="rotate(210)"><path d="M 0 135.25021758063565 L 33.81255439515891 162.30026109676277 L 0 189.3503046128899 L -33.81255439515891 162.30026109676277 Z"/></g><g transform="rotate(240)"><path d="M 0 135.25021758063565 L 33.81255439515891 162.30026109676277 L 0 189.3503046128899 L -33.81255439515891 162.30026109676277 Z"/></g><g transform="rotate(270)"><path d="M 0 135.25021758063565 L 33.81255439515891 162.30026109676277 L 0 189.3503046128899 L -33.81255439515891 162.30026109676277 Z"/></g><g transform="rotate(300)"><path d="M 0 135.25021758063565 L 33.81255439515891 162.30026109676277 L 0 189.3503046128899 L -33.81255439515891 162.30026109676277 Z"/></g><g transform="rotate(330)"><path d="M 0 135.25021758063565 L 33.81255439515891 162.30026109676277 L 0 189.3503046128899 L -33.81255439515891 162.30026109676277 Z"/></g><g transform="rotate(0)"><path d="M -46.69705812287118 186.7882324914847 Q 0 224.14587898978164 46.69705812287118 186.7882324914847"/></g><g transform="rotate(30)"><path d="M -46.69705812287118 186.7882324914847 Q 0 224.14587898978164 46.69705812287118 186.7882324914847"/></g><g transform="rotate(60)"><path d="M -46.69705812287118 186.7882324914847 Q 0 224.14587898978164 46.69705812287118 186.7882324914847"/></g><g transform="rotate(90)"><path d="M -46.69705812287118 186.7882324914847 Q 0 224.14587898978164 46.69705812287118 186.7882324914847"/></g><g transform="rotate(120)"><path d="M -46.69705812287118 186.7882324914847 Q 0 224.14587898978164 46.69705812287118 186.7882324914847"/></g><g transform="rotate(150)"><path d="M -46.69705812287118 186.7882324914847 Q 0 224.14587898978164 46.69705812287118 186.7882324914847"/></g><g transform="rotate(180)"><path d="M -46.69705812287118 186.7882324914847 Q 0 224.14587898978164 46.69705812287118 186.7882324914847"/></g><g transform="rotate(210)"><path d="M -46.69705812287118 186.7882324914847 Q 0 224.14587898978164 46.69705812287118 186.7882324914847"/></g><g transform="rotate(240)"><path d="M -46.69705812287118 186.7882324914847 Q 0 224.14587898978164 46.69705812287118 186.7882324914847"/></g><g transform="rotate(270)"><path d="M -46.69705812287118 186.7882324914847 Q 0 224.14587898978164 46.69705812287118 186.7882324914847"/></g><g transform="rotate(300)"><path d="M -46.69705812287118 186.7882324914847 Q 0 224.14587898978164 46.69705812287118 186.7882324914847"/></g><g transform="rotate(330)"><path d="M -46.69705812287118 186.7882324914847 Q 0 224.14587898978164 46.69705812287118 186.7882324914847"/></g><g transform="rotate(0)"><path d="M 0 237.60759457280594 Q 79.20253152426865 285.12911348736714 0 356.4113918592089 Q -79.20253152426865 285.12911348736714 0 237.60759457280594"/></g><g transform="rotate(30)"><path d="M 0 237.60759457280594 Q 79.20253152426865 285.12911348736714 0 356.4113918592089 Q -79.20253152426865 285.12911348736714 0 237.60759457280594"/></g><g transform="rotate(60)"><path d="M 0 237.60759457280594 Q 79.20253152426865 285.12911348736714 0 356.4113918592089 Q -79.20253152426865 285.12911348736714 0 237.60759457280594"/></g><g transform="rotate(90)"><path d="M 0 237.60759457280594 Q 79.20253152426865 285.12911348736714 0 356.4113918592089 Q -79.20253152426865 285.12911348736714 0 237.60759457280594"/></g><g transform="rotate(120)"><path d="M 0 237.60759457280594 Q 79.20253152426865 285.12911348736714 0 356.4113918592089 Q -79.20253152426865 285.12911348736714 0 237.60759457280594"/></g><g transform="rotate(150)"><path d="M 0 237.60759457280594 Q 79.20253152426865 285.12911348736714 0 356.4113918592089 Q -79.20253152426865 285.12911348736714 0 237.60759457280594"/></g><g transform="rotate(180)"><path d="M 0 237.60759457280594 Q 79.20253152426865 285.12911348736714 0 356.4113918592089 Q -79.20253152426865 285.12911348736714 0 237.60759457280594"/></g><g transform="rotate(210)"><path d="M 0 237.60759457280594 Q 79.20253152426865 285.12911348736714 0 356.4113918592089 Q -79.20253152426865 285.12911348736714 0 237.60759457280594"/></g><g transform="rotate(240)"><path d="M 0 237.60759457280594 Q 79.20253152426865 285.12911348736714 0 356.4113918592089 Q -79.20253152426865 285.12911348736714 0 237.60759457280594"/></g><g transform="rotate(270)"><path d="M 0 237.60759457280594 Q 79.20253152426865 285.12911348736714 0 356.4113918592089 Q -79.20253152426865 285.12911348736714 0 237.60759457280594"/></g><g transform="rotate(300)"><path d="M 0 237.60759457280594 Q 79.20253152426865 285.12911348736714 0 356.4113918592089 Q -79.20253152426865 285.12911348736714 0 237.60759457280594"/></g><g transform="rotate(330)"><path d="M 0 237.60759457280594 Q 79.20253152426865 285.12911348736714 0 356.4113918592089 Q -79.20253152426865 285.12911348736714 0 237.60759457280594"/></g><g transform="rotate(0)"><circle cx="0" cy="277.6303749238806" r="69.40759373097015"/></g><g transform="rotate(30)"><circle cx="0" cy="277.6303749238806" r="69.40759373097015"/></g><g transform="rotate(60)"><circle cx="0" cy="277.6303749238806" r="69.40759373097015"/></g><g transform="rotate(90)"><circle cx="0" cy="277.6303749238806" r="69.40759373097015"/></g><g transform="rotate(120)"><circle cx="0" cy="277.6303749238806" r="69.40759373097015"/></g><g transform="rotate(150)"><circle cx="0" cy="277.6303749238806" r="69.40759373097015"/></g><g transform="rotate(180)"><circle cx="0" cy="277.6303749238806" r="69.40759373097015"/></g><g transform="rotate(210)"><circle cx="0" cy="277.6303749238806" r="69.40759373097015"/></g><g transform="rotate(240)"><circle cx="0" cy="277.6303749238806" r="69.40759373097015"/></g><g transform="rotate(270)"><circle cx="0" cy="277.6303749238806" r="69.40759373097015"/></g><g transform="rotate(300)"><circle cx="0" cy="277.6303749238806" r="69.40759373097015"/></g><g transform="rotate(330)"><circle cx="0" cy="277.6303749238806" r="69.40759373097015"/></g><g transform="rotate(0)"><path d="M 0 317.9926195966878 Q 105.9975398655626 381.59114351602534 0 476.98892939503173 Q -105.9975398655626 381.59114351602534 0 317.9926195966878"/></g><g transform="rotate(30)"><path d="M 0 317.9926195966878 Q 105.9975398655626 381.59114351602534 0 476.98892939503173 Q -105.9975398655626 381.59114351602534 0 317.9926195966878"/></g><g transform="rotate(60)"><path d="M 0 317.9926195966878 Q 105.9975398655626 381.59114351602534 0 476.98892939503173 Q -105.9975398655626 381.59114351602534 0 317.9926195966878"/></g><g transform="rotate(90)"><path d="M 0 317.9926195966878 Q 105.9975398655626 381.59114351602534 0 476.98892939503173 Q -105.9975398655626 381.59114351602534 0 317.9926195966878"/></g><g transform="rotate(120)"><path d="M 0 317.9926195966878 Q 105.9975398655626 381.59114351602534 0 476.98892939503173 Q -105.9975398655626 381.59114351602534 0 317.9926195966878"/></g><g transform="rotate(150)"><path d="M 0 317.9926195966878 Q 105.9975398655626 381.59114351602534 0 476.98892939503173 Q -105.9975398655626 381.59114351602534 0 317.9926195966878"/></g><g transform="rotate(180)"><path d="M 0 317.9926195966878 Q 105.9975398655626 381.59114351602534 0 476.98892939503173 Q -105.9975398655626 381.59114351602534 0 317.9926195966878"/></g><g transform="rotate(210)"><path d="M 0 317.9926195966878 Q 105.9975398655626 381.59114351602534 0 476.98892939503173 Q -105.9975398655626 381.59114351602534 0 317.9926195966878"/></g><g transform="rotate(240)"><path d="M 0 317.9926195966878 Q 105.9975398655626 381.59114351602534 0 476.98892939503173 Q -105.9975398655626 381.59114351602534 0 317.9926195966878"/></g><g transform="rotate(270)"><path d="M 0 317.9926195966878 Q 105.9975398655626 381.59114351602534 0 476.98892939503173 Q -105.9975398655626 381.59114351602534 0 317.9926195966878"/></g><g transform="rotate(300)"><path d="M 0 317.9926195966878 Q 105.9975398655626 381.59114351602534 0 476.98892939503173 Q -105.9975398655626 381.59114351602534 0 317.9926195966878"/></g><g transform="rotate(330)"><path d="M 0 317.9926195966878 Q 105.9975398655626 381.59114351602534 0 476.98892939503173 Q -105.9975398655626 381.59114351602534 0 317.9926195966878"/></g></g></svg>