<svg xmlns="http://www.w3.org/2000/svg" viewBox="0 0 800 800" width="800" height="800">
    <rect width="100%" height="100%" fill="white"/>
    <g transform="translate(400, 400)" fill="none" stroke="black" stroke-width="4" stroke-linecap="round" stroke-linejoin="round"><g transform="rotate(0)"><circle cx="0" cy="58.70562490075827" r="14.676406225189567"/></g><g transform="rotate(60)"><circle cx="0" cy="58.70562490075827" r="14.676406225189567"/></g><g transform="rotate(120)"><circle cx="0" cy="58.70562490075827" r="14.676406225189567"/></g><g transform="rotate(180)"><circle cx="0" cy="58.70562490075827" r="14.676406225189567"/></g><g transform="rotate(240)"><circle cx="0" cy="58.70562490075827" r="14.676406225189567"/></g><g transform="rotate(300)"><circle cx="0" cy="58.70562490075827" r="14.676406225189567"/></g><g transform="rotate(0)"><path d="M -18.888986465883338 75.55594586353335 Q 0 90.66713503624003 18.888986465883338 75.55594586353335"/></g><g transform="rotate(60)"><path d="M -18.888986465883338 75.55594586353335 Q 0 90.66713503624003 18.888986465883338 75.55594586353335"/></g><g transform="rotate(120)"><path d="M -18.888986465883338 75.55594586353335 Q 0 90.66713503624003 18.888986465883338 75.55594586353335"/></g><g transform="rotate(180)"><path d="M -18.888986465883338 75.55594586353335 Q 0 90.66713503624003 18.888986465883338 75.55594586353335"/></g><g transform="rotate(240)"><path d="M -18.888986465883338 75.55594586353335 Q 0 90.66713503624003 18.888986465883338 75.55594586353335"/></g><g transform="rotate(300)"><path d="M -18.888986465883338 75.55594586353335 Q 0 90.66713503624003 18.888986465883338 75.55594586353335"/></g><g transform="rotate(0)"><path d="M -32.21155456525998 128.84621826103992 Q 0 154.6154619132479 32.21155456525998 128.84621826103992"/></g><g transform="rotate(60)"><path d="M -32.21155456525998 128.84621826103992 Q 0 154.6154619132479 32.21155456525998 128.84621826103992"/></g><g transform="rotate(120)"><path d="M -32.21155456525998 128.84621826103992 Q 0 154.6154619132479 32.21155456525998 128.84621826103992"/></g><g transform="rotate(180)"><path d="M -32.21155456525998 128.84621826103992 Q 0 154.6154619132479 32.21155456525998 128.84621826103992"/></g><g transform="rotate(240)"><path d="M -32.21155456525998 128.84621826103992 Q 0 154.6154619132479 32.21155456525998 128.84621826103992"/></g><g transform="rotate(300)"><path d="M -32.21155456525998 128.84621826103992 Q 0 154.6154619132479 32.21155456525998 128.84621826103992"/></g><g transform="rotate(0)"><circle cx="0" cy="152.77916142406565" r="38.19479035601641"/></g><g transform="rotate(60)"><circle cx="0" cy="152.77916142406565" r="38.19479035601641"/></g><g transform="rotate(120)"><circle cx="0" cy="152.77916142406565" r="38.19479035601641"/></g><g transform="rotate(180)"><circle cx="0" cy="152.77916142406565" r="38.19479035601641"/></g><g transform="rotate(240)"><circle cx="0" cy="152.77916142406565" r="38.19479035601641"/></g><g transform="rotate(300)"><circle cx="0" cy="152.77916142406565" r="38.19479035601641"/></g><g transform="rotate(0)"><path d="M 0 187.2475209666623 Q 62.41584032222077 224.69702515999475 0 280.8712814499935 Q -62.41584032222077 224.69702515999475 0 187.2475209666623"/></g><g transform="rotate(60)"><path d="M 0 187.2475209666623 Q 62.41584032222077 224.69702515999475 0 280.8712814499935 Q -62.41584032222077 224.69702515999475 0 187.2475209666623"/></g><g transform="rotate(120)"><path d="M 0 187.2475209666623 Q 62.41584032222077 224.69702515999475 0 280.8712814499935 Q -62.41584032222077 224.69702515999475 0 187.2475209666623"/></g><g transform="rotate(180)"><path d="M 0 187.2475209666623 Q 62.41584032222077 224.69702515999475 0 280.8712814499935 Q -62.41584032222077 224.69702515999475 0 187.2475209666623"/></g><g transform="rotate(240)"><path d="M 0 187.2475209666623 Q 62.41584032222077 224.69702515999475 0 280.8712814499935 Q -62.41584032222077 224.69702515999475 0 187.2475209666623"/></g><g transform="rotate(300)"><path d="M 0 187.2475209666623 Q 62.41584032222077 224.69702515999475 0 280.8712814499935 Q -62.41584032222077 224.69702515999475 0 187.2475209666623"/></g><g transform="rotate(0)"><path d="M 0 232.7575078120248 L 0 302.58476015563224"/></g><g transform="rotate(60)"><path d="M 0 232.7575078120248 L 0 302.58476015563224"/></g><g transform="rotate(120)"><path d="M 0 232.7575078120248 L 0 302.58476015563224"/></g><g transform="rotate(180)"><path d="M 0 232.7575078120248 L 0 302.58476015563224"/></g><g transform="rotate(240)"><path d="M 0 232.7575078120248 L 0 302.58476015563224"/></g><g transform="rotate(300)"><path d="M 0 232.7575078120248 L 0 302.58476015563224"/></g><g transform="rotate(0)"><path d="M 0 269.3259310660263 Q 89.77531035534211 323.1911172792316 0 403.9888965990395 Q -89.77531035534211 323.1911172792316 0 269.3259310660263"/></g><g transform="rotate(60)"><path d="M 0 269.3259310660263 Q 89.77531035534211 323.1911172792316 0 403.9888965990395 Q -89.77531035534211 323.1911172792316 0 269.3259310660263"/></g><g transform="rotate(120)"><path d="M 0 269.3259310660263 Q 89.77531035534211 323.1911172792316 0 403.9888965990395 Q -89.77531035534211 323.1911172792316 0 269.3259310660263"/></g><g transform="rotate(180)"><path d="M 0 269.3259310660263 Q 89.77531035534211 323.1911172792316 0 403.9888965990395 Q -89.77531035534211 323.1911172792316 0 269.3259310660263"/></g><g transform="rotate(240)"><path d="M 0 269.3259310660263 Q 89.77531035534211 323.1911172792316 0 403.9888965990395 Q -89.77531035534211 323.1911172792316 0 269.3259310660263"/></g><g transform="rotate(300)"><path d="M 0 269.3259310660263 Q 89.77531035534211 323.1911172792316 0 403.9888965990395 Q -89.77531035534211 323.1911172792316 0 269.3259310660263"/></g><g transform="rotate(0)"><path d="M 0 295.3690911446595 Q 98.45636371488649 354.44290937359136 0 443.0536367169892 Q -98.45636371488649 354.44290937359136 0 295.3690911446595"/></g><g transform="rotate(60)"><path d="M 0 295.3690911446595 Q 98.45636371488649 354.44290937359136 0 443.0536367169892 Q -98.45636371488649 354.44290937359136 0 295.3690911446595"/></g><g transform="rotate(120)"><path d="M 0 295.3690911446595 Q 98.45636371488649 354.44290937359136 0 443.0536367169892 Q -98.45636371488649 354.44290937359136 0 295.3690911446595"/></g><g transform="rotate(180)"><path d="M 0 295.3690911446595 Q 98.45636371488649 354.44290937359136 0 443.0536367169892 Q -98.45636371488649 354.44290937359136 0 295.3690911446595"/></g><g transform="rotate(240)"><path d="M 0 295.3690911446595 Q 98.45636371488649 354.44290937359136 0 443.0536367169892 Q -98.45636371488649 354.44290937359136 0 295.3690911446595"/></g><g transform="rotate(300)"><path d="M 0 295.3690911446595 Q 98.45636371488649 354.44290937359136 0 443.0536367169892 Q -98.45636371488649 354.44290937359136 0 295.3690911446595"/></g><g transform="rotate(0)"><path d="M 0 331.13665581163434 L 0 430.4776525551247"/></g><g transform="rotate(60)"><path d="M 0 331.13665581163434 L 0 430.4776525551247"/></g><g transform="rotate(120)"><path d="M 0 331.13665581163434 L 0 430.4776525551247"/></g><g transform="rotate(180)"><path d="M 0 331.13665581163434 L 0 430.4776525551247"/></g><g transform="rotate(240)"><path d="M 0 331.13665581163434 L 0 430.4776525551247"/></g><g transform="rotate(300)"><path d="M 0 331.13665581163434 L 0 430.4776525551247"/></g></g></svg>