<svg xmlns="http://www.w3.org/2000/svg" viewBox="0 0 800 800" width="800" height="800">
    <rect width="100%" height="100%" fill="white"/>
    <g transform="translate(400, 400)" fill="none" stroke="black" stroke-width="4" stroke-linecap="round" stroke-linejoin="round"><g transform="rotate(0)"><path d="M -11.18427916080691 44.73711664322764 Q 0 53.684539971873164 11.18427916080691 44.73711664322764"/></g><g transform="rotate(25.714285714285715)"><path d="M -11.18427916080691 44.73711664322764 Q 0 53.684539971873164 11.18427916080691 44.73711664322764"/></g><g transform="rotate(51.42857142857143)"><path d="M -11.18427916080691 44.73711664322764 Q 0 53.684539971873164 11.18427916080691 44.73711664322764"/></g><g transform="rotate(77.14285714285714)"><path d="M -11.18427916080691 44.73711664322764 Q 0 53.684539971873164 11.18427916080691 44.73711664322764"/></g><g transform="rotate(102.85714285714286)"><path d="M -11.18427916080691 44.73711664322764 Q 0 53.684539971873164 11.18427916080691 44.73711664322764"/></g><g transform="rotate(128.57142857142858)"><path d="M -11.18427916080691 44.73711664322764 Q 0 53.684539971873164 11.18427916080691 44.73711664322764"/></g><g transform="rotate(154.28571428571428)"><path d="M -11.18427916080691 44.73711664322764 Q 0 53.684539971873164 11.18427916080691 44.73711664322764"/></g><g transform="rotate(180)"><path d="M -11.18427916080691 44.73711664322764 Q 0 53.684539971873164 11.18427916080691 44.73711664322764"/></g><g transform="rotate(205.71428571428572)"><path d="M -11.18427916080691 44.73711664322764 Q 0 53.684539971873164 11.18427916080691 44.73711664322764"/></g><g transform="rotate(231.42857142857142)"><path d="M -11.18427916080691 44.73711664322764 Q 0 53.684539971873164 11.18427916080691 44.73711664322764"/></g><g transform="rotate(257.14285714285717)"><path d="M -11.18427916080691 44.73711664322764 Q 0 53.684539971873164 11.18427916080691 44.73711664322764"/></g><g transform="rotate(282.85714285714283)"><path d="M -11.18427916080691 44.73711664322764 Q 0 53.684539971873164 11.18427916080691 44.73711664322764"/></g><g transform="rotate(308.57142857142856)"><path d="M -11.18427916080691 44.73711664322764 Q 0 53.684539971873164 11.18427916080691 44.73711664322764"/></g><g transform="rotate(334.2857142857143)"><path d="M -11.18427916080691 44.73711664322764 Q 0 53.684539971873164 11.18427916080691 44.73711664322764"/></g><g transform="rotate(0)"><path d="M 0 122.82411889266223 Q 40.94137296422074 147.38894267119466 0 184.23617833899334 Q -40.94137296422074 147.38894267119466 0 122.82411889266223"/></g><g transform="rotate(25.714285714285715)"><path d="M 0 122.82411889266223 Q 40.94137296422074 147.38894267119466 0 184.23617833899334 Q -40.94137296422074 147.38894267119466 0 122.82411889266223"/></g><g transform="rotate(51.42857142857143)"><path d="M 0 122.82411889266223 Q 40.94137296422074 147.38894267119466 0 184.23617833899334 Q -40.94137296422074 147.38894267119466 0 122.82411889266223"/></g><g transform="rotate(77.14285714285714)"><path d="M 0 122.82411889266223 Q 40.94137296422074 147.38894267119466 0 184.23617833899334 Q -40.94137296422074 147.38894267119466 0 122.82411889266223"/></g><g transform="rotate(102.85714285714286)"><path d="M 0 122.82411889266223 Q 40.94137296422074 147.38894267119466 0 184.23617833899334 Q -40.94137296422074 147.38894267119466 0 122.82411889266223"/></g><g transform="rotate(128.57142857142858)"><path d="M 0 122.82411889266223 Q 40.94137296422074 147.38894267119466 0 184.23617833899334 Q -40.94137296422074 147.38894267119466 0 122.82411889266223"/></g><g transform="rotate(154.28571428571428)"><path d="M 0 122.82411889266223 Q 40.94137296422074 147.38894267119466 0 184.23617833899334 Q -40.94137296422074 147.38894267119466 0 122.82411889266223"/></g><g transform="rotate(180)"><path d="M 0 122.82411889266223 Q 40.94137296422074 147.38894267119466 0 184.23617833899334 Q -40.94137296422074 147.38894267119466 0 122.82411889266223"/></g><g transform="rotate(205.71428571428572)"><path d="M 0 122.82411889266223 Q 40.94137296422074 147.38894267119466 0 184.23617833899334 Q -40.94137296422074 147.38894267119466 0 122.82411889266223"/></g><g transform="rotate(231.42857142857142)"><path d="M 0 122.82411889266223 Q 40.94137296422074 147.38894267119466 0 184.23617833899334 Q -40.94137296422074 147.38894267119466 0 122.82411889266223"/></g><g transform="rotate(257.14285714285717)"><path d="M 0 122.82411889266223 Q 40.94137296422074 147.38894267119466 0 184.23617833899334 Q -40.94137296422074 147.38894267119466 0 122.82411889266223"/></g><g transform="rotate(282.85714285714283)"><path d="M 0 122.82411889266223 Q 40.94137296422074 147.38894267119466 0 184.23617833899334 Q -40.94137296422074 147.38894267119466 0 122.82411889266223"/></g><g transform="rotate(308.57142857142856)"><path d="M 0 122.82411889266223 Q 40.94137296422074 147.38894267119466 0 184.23617833899334 Q -40.94137296422074 147.38894267119466 0 122.82411889266223"/></g><g transform="rotate(334.2857142857143)"><path d="M 0 122.82411889266223 Q 40.94137296422074 147.38894267119466 0 184.23617833899334 Q -40.94137296422074 147.38894267119466 0 122.82411889266223"/></g><g transform="rotate(0)"><path d="M 0 177.47068866807967 Q 59.15689622269323 212.9648264016956 0 266.2060330021195 Q -59.15689622269323 212.9648264016956 0 177.47068866807967"/></g><g transform="rotate(25.714285714285715)"><path d="M 0 177.47068866807967 Q 59.15689622269323 212.9648264016956 0 266.2060330021195 Q -59.15689622269323 212.9648264016956 0 177.47068866807967"/></g><g transform="rotate(51.42857142857143)"><path d="M 0 177.47068866807967 Q 59.15689622269323 212.9648264016956 0 266.2060330021195 Q -59.15689622269323 212.9648264016956 0 177.47068866807967"/></g><g transform="rotate(77.14285714285714)"><path d="M 0 177.47068866807967 Q 59.15689622269323 212.9648264016956 0 266.2060330021195 Q -59.15689622269323 212.9648264016956 0 177.47068866807967"/></g><g transform="rotate(102.85714285714286)"><path d="M 0 177.47068866807967 Q 59.15689622269323 212.9648264016956 0 266.2060330021195 Q -59.15689622269323 212.9648264016956 0 177.47068866807967"/></g><g transform="rotate(128.57142857142858)"><path d="M 0 177.47068866807967 Q 59.15689622269323 212.9648264016956 0 266.2060330021195 Q -59.15689622269323 212.9648264016956 0 177.47068866807967"/></g><g transform="rotate(154.28571428571428)"><path d="M 0 177.47068866807967 Q 59.15689622269323 212.9648264016956 0 266.2060330021195 Q -59.15689622269323 212.9648264016956 0 177.47068866807967"/></g><g transform="rotate(180)"><path d="M 0 177.47068866807967 Q 59.15689622269323 212.9648264016956 0 266.2060330021195 Q -59.15689622269323 212.9648264016956 0 177.47068866807967"/></g><g transform="rotate(205.71428571428572)"><path d="M 0 177.47068866807967 Q 59.15689622269323 212.9648264016956 0 266.2060330021195 Q -59.15689622269323 212.9648264016956 0 177.47068866807967"/></g><g transform="rotate(231.42857142857142)"><path d="M 0 177.47068866807967 Q 59.15689622269323 212.9648264016956 0 266.2060330021195 Q -59.15689622269323 212.9648264016956 0 177.47068866807967"/></g><g transform="rotate(257.14285714285717)"><path d="M 0 177.47068866807967 Q 59.15689622269323 212.9648264016956 0 266.2060330021195 Q -59.15689622269323 212.9648264016956 0 177.47068866807967"/></g><g transform="rotate(282.85714285714283)"><path d="M 0 177.47068866807967 Q 59.15689622269323 212.9648264016956 0 266.2060330021195 Q -59.15689622269323 212.9648264016956 0 177.47068866807967"/></g><g transform="rotate(308.57142857142856)"><path d="M 0 177.47068866807967 Q 59.15689622269323 212.9648264016956 0 266.2060330021195 Q -59.15689622269323 212.9648264016956 0 177.47068866807967"/></g><g transform="rotate(334.2857142857143)"><path d="M 0 177.47068866807967 Q 59.15689622269323 212.9648264016956 0 266.2060330021195 Q -59.15689622269323 212.9648264016956 0 177.47068866807967"/></g><g transform="rotate(0)"><path d="M -62.035494945710525 248.1419797828421 Q 0 297.7703757394105 62.035494945710525 248.1419797828421"/></g><g transform="rotate(25.714285714285715)"><path d="M -62.035494945710525 248.1419797828421 Q 0 297.7703757394105 62.035494945710525 248.1419797828421"/></g><g transform="rotate(51.42857142857143)"><path d="M -62.035494945710525 248.1419797828421 Q 0 297.7703757394105 62.035494945710525 248.1419797828421"/></g><g transform="rotate(77.14285714285714)"><path d="M -62.035494945710525 248.1419797828421 Q 0 297.7703757394105 62.035494945710525 248.1419797828421"/></g><g transform="rotate(102.85714285714286)"><path d="M -62.035494945710525 248.1419797828421 Q 0 297.7703757394105 62.035494945710525 248.1419797828421"/></g><g transform="rotate(128.57142857142858)"><path d="M -62.035494945710525 248.1419797828421 Q 0 297.7703757394105 62.035494945710525 248.1419797828421"/></g><g transform="rotate(154.28571428571428)"><path d="M -62.035494945710525 248.1419797828421 Q 0 297.7703757394105 62.035494945710525 248.1419797828421"/></g><g transform="rotate(180)"><path d="M -62.035494945710525 248.1419797828421 Q 0 297.7703757394105 62.035494945710525 248.1419797828421"/></g><g transform="rotate(205.71428571428572)"><path d="M -62.035494945710525 248.1419797828421 Q 0 297.7703757394105 62.035494945710525 248.1419797828421"/></g><g transform="rotate(231.42857142857142)"><path d="M -62.035494945710525 248.1419797828421 Q 0 297.7703757394105 62.035494945710525 248.1419797828421"/></g><g transform="rotate(257.14285714285717)"><path d="M -62.035494945710525 248.1419797828421 Q 0 297.7703757394105 62.035494945710525 248.1419797828421"/></g><g transform="rotate(282.85714285714283)"><path d="M -62.035494945710525 248.1419797828421 Q 0 297.7703757394105 62.035494945710525 248.1419797828421"/></g><g transform="rotate(308.57142857142856)"><path d="M -62.035494945710525 248.1419797828421 Q 0 297.7703757394105 62.035494945710525 248.1419797828421"/></g><g transform="rotate(334.2857142857143)"><path d="M -62.035494945710525 248.1419797828421 Q 0 297.7703757394105 62.035494945710525 248.1419797828421"/></g><g transform="rotate(0)"><path d="M 0 303.68909899983555 Q 101.22969966661185 364.42691879980265 0 455.5336484997533 Q -101.22969966661185 364.42691879980265 0 303.68909899983555"/></g><g transform="rotate(25.714285714285715)"><path d="M 0 303.68909899983555 Q 101.22969966661185 364.42691879980265 0 455.5336484997533 Q -101.22969966661185 364.42691879980265 0 303.68909899983555"/></g><g transform="rotate(51.42857142857143)"><path d="M 0 303.68909899983555 Q 101.22969966661185 364.42691879980265 0 455.5336484997533 Q -101.22969966661185 364.42691879980265 0 303.68909899983555"/></g><g transform="rotate(77.14285714285714)"><path d="M 0 303.68909899983555 Q 101.22969966661185 364.42691879980265 0 455.5336484997533 Q -101.22969966661185 364.42691879980265 0 303.68909899983555"/></g><g transform="rotate(102.85714285714286)"><path d="M 0 303.68909899983555 Q 101.22969966661185 364.42691879980265 0 455.5336484997533 Q -101.22969966661185 364.42691879980265 0 303.68909899983555"/></g><g transform="rotate(128.57142857142858)"><path d="M 0 303.68909899983555 Q 101.22969966661185 364.42691879980265 0 455.5336484997533 Q -101.22969966661185 364.42691879980265 0 303.68909899983555"/></g><g transform="rotate(154.28571428571428)"><path d="M 0 303.68909899983555 Q 101.22969966661185 364.42691879980265 0 455.5336484997533 Q -101.22969966661185 364.42691879980265 0 303.68909899983555"/></g><g transform="rotate(180)"><path d="M 0 303.68909899983555 Q 101.22969966661185 364.42691879980265 0 455.5336484997533 Q -101.22969966661185 364.42691879980265 0 303.68909899983555"/></g><g transform="rotate(205.71428571428572)"><path d="M 0 303.68909899983555 Q 101.22969966661185 364.42691879980265 0 455.5336484997533 Q -101.22969966661185 364.42691879980265 0 303.68909899983555"/></g><g transform="rotate(231.42857142857142)"><path d="M 0 303.68909899983555 Q 101.22969966661185 364.42691879980265 0 455.5336484997533 Q -101.22969966661185 364.42691879980265 0 303.68909899983555"/></g><g transform="rotate(257.14285714285717)"><path d="M 0 303.68909899983555 Q 101.22969966661185 364.42691879980265 0 455.5336484997533 Q -101.22969966661185 364.42691879980265 0 303.68909899983555"/></g><g transform="rotate(282.85714285714283)"><path d="M 0 303.68909899983555 Q 101.22969966661185 364.42691879980265 0 455.5336484997533 Q -101.22969966661185 364.42691879980265 0 303.68909899983555"/></g><g transform="rotate(308.57142857142856)"><path d="M 0 303.68909899983555 Q 101.22969966661185 364.42691879980265 0 455.5336484997533 Q -101.22969966661185 364.42691879980265 0 303.68909899983555"/></g><g transform="rotate(334.2857142857143)"><path d="M 0 303.68909899983555 Q 101.22969966661185 364.42691879980265 0 455.5336484997533 Q -101.22969966661185 364.42691879980265 0 303.68909899983555"/></g></g></svg>