<svg xmlns="http://www.w3.org/2000/svg" viewBox="0 0 800 800" width="800" height="800">
    <rect width="100%" height="100%" fill="white"/>
    <g transform="translate(400, 400)" fill="none" stroke="black" stroke-width="4" stroke-linecap="round" stroke-linejoin="round"><g transform="rotate(0)"><path d="M 0 58.201692467555404 L 0 75.66220020782202"/></g><g transform="rotate(22.5)"><path d="M 0 58.201692467555404 L 0 75.66220020782202"/></g><g transform="rotate(45)"><path d="M 0 58.201692467555404 L 0 75.66220020782202"/></g><g transform="rotate(67.5)"><path d="M 0 58.201692467555404 L 0 75.66220020782202"/></g><g transform="rotate(90)"><path d="M 0 58.201692467555404 L 0 75.66220020782202"/></g><g transform="rotate(112.5)"><path d="M 0 58.201692467555404 L 0 75.66220020782202"/></g><g transform="rotate(135)"><path d="M 0 58.201692467555404 L 0 75.66220020782202"/></g><g transform="rotate(157.5)"><path d="M 0 58.201692467555404 L 0 75.66220020782202"/></g><g transform="rotate(180)"><path d="M 0 58.201692467555404 L 0 75.66220020782202"/></g><g transform="rotate(202.5)"><path d="M 0 58.201692467555404 L 0 75.66220020782202"/></g><g transform="rotate(225)"><path d="M 0 58.201692467555404 L 0 75.66220020782202"/></g><g transform="rotate(247.5)"><path d="M 0 58.201692467555404 L 0 75.66220020782202"/></g><g transform="rotate(270)"><path d="M 0 58.201692467555404 L 0 75.66220020782202"/></g><g transform="rotate(292.5)"><path d="M 0 58.201692467555404 L 0 75.66220020782202"/></g><g transform="rotate(315)"><path d="M 0 58.201692467555404 L 0 75.66220020782202"/></g><g transform="rotate(337.5)"><path d="M 0 58.201692467555404 L 0 75.66220020782202"/></g><g transform="rotate(0)"><path d="M 0 86.21317442092631 L 0 112.0771267472042"/></g><g transform="rotate(22.5)"><path d="M 0 86.21317442092631 L 0 112.0771267472042"/></g><g transform="rotate(45)"><path d="M 0 86.21317442092631 L 0 112.0771267472042"/></g><g transform="rotate(67.5)"><path d="M 0 86.21317442092631 L 0 112.0771267472042"/></g><g transform="rotate(90)"><path d="M 0 86.21317442092631 L 0 112.0771267472042"/></g><g transform="rotate(112.5)"><path d="M 0 86.21317442092631 L 0 112.0771267472042"/></g><g transform="rotate(135)"><path d="M 0 86.21317442092631 L 0 112.0771267472042"/></g><g transform="rotate(157.5)"><path d="M 0 86.21317442092631 L 0 112.0771267472042"/></g><g transform="rotate(180)"><path d="M 0 86.21317442092631 L 0 112.0771267472042"/></g><g transform="rotate(202.5)"><path d="M 0 86.21317442092631 L 0 112.0771267472042"/></g><g transform="rotate(225)"><path d="M 0 86.21317442092631 L 0 112.0771267472042"/></g><g transform="rotate(247.5)"><path d="M 0 86.21317442092631 L 0 112.0771267472042"/></g><g transform="rotate(270)"><path d="M 0 86.21317442092631 L 0 112.0771267472042"/></g><g transform="rotate(292.5)"><path d="M 0 86.21317442092631 L 0 112.0771267472042"/></g><g transform="rotate(315)"><path d="M 0 86.21317442092631 L 0 112.0771267472042"/></g><g transform="rotate(337.5)"><path d="M 0 86.21317442092631 L 0 112.0771267472042"/></g><g transform="rotate(0)"><circle cx="0" cy="114.06736724182136" r="28.51684181045534"/></g><g transform="rotate(22.5)"><circle cx="0" cy="114.06736724182136" r="28.51684181045534"/></g><g transform="rotate(45)"><circle cx="0" cy="114.06736724182136" r="28.51684181045534"/></g><g transform="rotate(67.5)"><circle cx="0" cy="114.06736724182136" r="28.51684181045534"/></g><g transform="rotate(90)"><circle cx="0" cy="114.06736724182136" r="28.51684181045534"/></g><g transform="rotate(112.5)"><circle cx="0" cy="114.06736724182136" r="28.51684181045534"/></g><g transform="rotate(135)"><circle cx="0" cy="114.06736724182136" r="28.51684181045534"/></g><g transform="rotate(157.5)"><circle cx="0" cy="114.06736724182136" r="28.51684181045534"/></g><g transform="rotate(180)"><circle cx="0" cy="114.06736724182136" r="28.51684181045534"/></g><g transform="rotate(202.5)"><circle cx="0" cy="114.06736724182136" r="28.51684181045534"/></g><g transform="rotate(225)"><circle cx="0" cy="114.06736724182136" r="28.51684181045534"/></g><g transform="rotate(247.5)"><circle cx="0" cy="114.06736724182136" r="28.51684181045534"/></g><g transform="rotate(270)"><circle cx="0" cy="114.06736724182136" r="28.51684181045534"/></g><g transform="rotate(292.5)"><circle cx="0" cy="114.06736724182136" r="28.51684181045534"/></g><g transform="rotate(315)"><circle cx="0" cy="114.06736724182136" r="28.51684181045534"/></g><g transform="rotate(337.5)"><circle cx="0" cy="114.06736724182136" r="28.51684181045534"/></g><g transform="rotate(0)"><path d="M -40.24580902575205 160.9832361030082 Q 0 193.17988332360986 40.24580902575205 160.9832361030082"/></g><g transform="rotate(22.5)"><path d="M -40.24580902575205 160.9832361030082 Q 0 193.17988332360986 40.24580902575205 160.9832361030082"/></g><g transform="rotate(45)"><path d="M -40.24580902575205 160.9832361030082 Q 0 193.17988332360986 40.24580902575205 160.9832361030082"/></g><g transform="rotate(67.5)"><path d="M -40.24580902575205 160.9832361030082 Q 0 193.17988332360986 40.24580902575205 160.9832361030082"/></g><g transform="rotate(90)"><path d="M -40.24580902575205 160.9832361030082 Q 0 193.17988332360986 40.24580902575205 160.9832361030082"/></g><g transform="rotate(112.5)"><path d="M -40.24580902575205 160.9832361030082 Q 0 193.17988332360986 40.24580902575205 160.9832361030082"/></g><g transform="rotate(135)"><path d="M -40.24580902575205 160.9832361030082 Q 0 193.17988332360986 40.24580902575205 160.9832361030082"/></g><g transform="rotate(157.5)"><path d="M -40.24580902575205 160.9832361030082 Q 0 193.17988332360986 40.24580902575205 160.9832361030082"/></g><g transform="rotate(180)"><path d="M -40.24580902575205 160.9832361030082 Q 0 193.17988332360986 40.24580902575205 160.9832361030082"/></g><g transform="rotate(202.5)"><path d="M -40.24580902575205 160.9832361030082 Q 0 193.17988332360986 40.24580902575205 160.9832361030082"/></g><g transform="rotate(225)"><path d="M -40.24580902575205 160.9832361030082 Q 0 193.17988332360986 40.24580902575205 160.9832361030082"/></g><g transform="rotate(247.5)"><path d="M -40.24580902575205 160.9832361030082 Q 0 193.17988332360986 40.24580902575205 160.9832361030082"/></g><g transform="rotate(270)"><path d="M -40.24580902575205 160.9832361030082 Q 0 193.17988332360986 40.24580902575205 160.9832361030082"/></g><g transform="rotate(292.5)"><path d="M -40.24580902575205 160.9832361030082 Q 0 193.17988332360986 40.24580902575205 160.9832361030082"/></g><g transform="rotate(315)"><path d="M -40.24580902575205 160.9832361030082 Q 0 193.17988332360986 40.24580902575205 160.9832361030082"/></g><g transform="rotate(337.5)"><path d="M -40.24580902575205 160.9832361030082 Q 0 193.17988332360986 40.24580902575205 160.9832361030082"/></g><g transform="rotate(0)"><path d="M 0 199.72114422565534 L 0 259.63748749335195"/></g><g transform="rotate(22.5)"><path d="M 0 199.72114422565534 L 0 259.63748749335195"/></g><g transform="rotate(45)"><path d="M 0 199.72114422565534 L 0 259.63748749335195"/></g><g transform="rotate(67.5)"><path d="M 0 199.72114422565534 L 0 259.63748749335195"/></g><g transform="rotate(90)"><path d="M 0 199.72114422565534 L 0 259.63748749335195"/></g><g transform="rotate(112.5)"><path d="M 0 199.72114422565534 L 0 259.63748749335195"/></g><g transform="rotate(135)"><path d="M 0 199.72114422565534 L 0 259.63748749335195"/></g><g transform="rotate(157.5)"><path d="M 0 199.72114422565534 L 0 259.63748749335195"/></g><g transform="rotate(180)"><path d="M 0 199.72114422565534 L 0 259.63748749335195"/></g><g transform="rotate(202.5)"><path d="M 0 199.72114422565534 L 0 259.63748749335195"/></g><g transform="rotate(225)"><path d="M 0 199.72114422565534 L 0 259.63748749335195"/></g><g transform="rotate(247.5)"><path d="M 0 199.72114422565534 L 0 259.63748749335195"/></g><g transform="rotate(270)"><path d="M 0 199.72114422565534 L 0 259.63748749335195"/></g><g transform="rotate(292.5)"><path d="M 0 199.72114422565534 L 0 259.63748749335195"/></g><g transform="rotate(315)"><path d="M 0 199.72114422565534 L 0 259.63748749335195"/></g><g transform="rotate(337.5)"><path d="M 0 199.72114422565534 L 0 259.63748749335195"/></g><g transform="rotate(0)"><path d="M 0 226.04456094817982 L 56.511140237044955 271.2534731378158 L 0 316.4623853274517 L -56.511140237044955 271.2534731378158 Z"/></g><g transform="rotate(22.5)"><path d="M 0 226.04456094817982 L 56.511140237044955 271.2534731378158 L 0 316.4623853274517 L -56.511140237044955 271.2534731378158 Z"/></g><g transform="rotate(45)"><path d="M 0 226.04456094817982 L 56.511140237044955 271.2534731378158 L 0 316.4623853274517 L -56.511140237044955 271.2534731378158 Z"/></g><g transform="rotate(67.5)"><path d="M 0 226.04456094817982 L 56.511140237044955 271.2534731378158 L 0 316.4623853274517 L -56.511140237044955 271.2534731378158 Z"/></g><g transform="rotate(90)"><path d="M 0 226.04456094817982 L 56.511140237044955 271.2534731378158 L 0 316.4623853274517 L -56.511140237044955 271.2534731378158 Z"/></g><g transform="rotate(112.5)"><path d="M 0 226.04456094817982 L 56.511140237044955 271.2534731378158 L 0 316.4623853274517 L -56.511140237044955 271.2534731378158 Z"/></g><g transform="rotate(135)"><path d="M 0 226.04456094817982 L 56.511140237044955 271.2534731378158 L 0 316.4623853274517 L -56.511140237044955 271.2534731378158 Z"/></g><g transform="rotate(157.5)"><path d="M 0 226.04456094817982 L 56.511140237044955 271.2534731378158 L 0 316.4623853274517 L -56.511140237044955 271.2534731378158 Z"/></g><g transform="rotate(180)"><path d="M 0 226.04456094817982 L 56.511140237044955 271.2534731378158 L 0 316.4623853274517 L -56.511140237044955 271.2534731378158 Z"/></g><g transform="rotate(202.5)"><path d="M 0 226.04456094817982 L 56.511140237044955 271.2534731378158 L 0 316.4623853274517 L -56.511140237044955 271.2534731378158 Z"/></g><g transform="rotate(225)"><path d="M 0 226.04456094817982 L 56.511140237044955 271.2534731378158 L 0 316.4623853274517 L -56.511140237044955 271.2534731378158 Z"/></g><g transform="rotate(247.5)"><path d="M 0 226.04456094817982 L 56.511140237044955 271.2534731378158 L 0 316.4623853274517 L -56.511140237044955 271.2534731378158 Z"/></g><g transform="rotate(270)"><path d="M 0 226.04456094817982 L 56.511140237044955 271.2534731378158 L 0 316.4623853274517 L -56.511140237044955 271.2534731378158 Z"/></g><g transform="rotate(292.5)"><path d="M 0 226.04456094817982 L 56.511140237044955 271.2534731378158 L 0 316.4623853274517 L -56.511140237044955 271.2534731378158 Z"/></g><g transform="rotate(315)"><path d="M 0 226.04456094817982 L 56.511140237044955 271.2534731378158 L 0 316.4623853274517 L -56.511140237044955 271.2534731378158 Z"/></g><g transform="rotate(337.5)"><path d="M 0 226.04456094817982 L 56.511140237044955 271.2534731378158 L 0 316.4623853274517 L -56.511140237044955 271.2534731378158 Z"/></g><g transform="rotate(0)"><path d="M 0 259.8971628615012 Q 86.63238762050041 311.87659543380147 0 389.8457442922518 Q -86.63238762050041 311.87659543380147 0 259.8971628615012"/></g><g transform="rotate(22.5)"><path d="M 0 259.8971628615012 Q 86.63238762050041 311.87659543380147 0 389.8457442922518 Q -86.63238762050041 311.87659543380147 0 259.8971628615012"/></g><g transform="rotate(45)"><path d="M 0 259.8971628615012 Q 86.63238762050041 311.87659543380147 0 389.8457442922518 Q -86.63238762050041 311.87659543380147 0 259.8971628615012"/></g><g transform="rotate(67.5)"><path d="M 0 259.8971628615012 Q 86.63238762050041 311.87659543380147 0 389.8457442922518 Q -86.63238762050041 311.87659543380147 0 259.8971628615012"/></g><g transform="rotate(90)"><path d="M 0 259.8971628615012 Q 86.63238762050041 311.87659543380147 0 389.8457442922518 Q -86.63238762050041 311.87659543380147 0 259.8971628615012"/></g><g transform="rotate(112.5)"><path d="M 0 259.8971628615012 Q 86.63238762050041 311.87659543380147 0 389.8457442922518 Q -86.63238762050041 311.87659543380147 0 259.8971628615012"/></g><g transform="rotate(135)"><path d="M 0 259.8971628615012 Q 86.63238762050041 311.87659543380147 0 389.8457442922518 Q -86.63238762050041 311.87659543380147 0 259.8971628615012"/></g><g transform="rotate(157.5)"><path d="M 0 259.8971628615012 Q 86.63238762050041 311.87659543380147 0 389.8457442922518 Q -86.63238762050041 311.87659543380147 0 259.8971628615012"/></g><g transform="rotate(180)"><path d="M 0 259.8971628615012 Q 86.63238762050041 311.87659543380147 0 389.8457442922518 Q -86.63238762050041 311.87659543380147 0 259.8971628615012"/></g><g transform="rotate(202.5)"><path d="M 0 259.8971628615012 Q 86.63238762050041 311.87659543380147 0 389.8457442922518 Q -86.63238762050041 311.87659543380147 0 259.8971628615012"/></g><g transform="rotate(225)"><path d="M 0 259.8971628615012 Q 86.63238762050041 311.87659543380147 0 389.8457442922518 Q -86.63238762050041 311.87659543380147 0 259.8971628615012"/></g><g transform="rotate(247.5)"><path d="M 0 259.8971628615012 Q 86.63238762050041 311.87659543380147 0 389.8457442922518 Q -86.63238762050041 311.87659543380147 0 259.8971628615012"/></g><g transform="rotate(270)"><path d="M 0 259.8971628615012 Q 86.63238762050041 311.87659543380147 0 389.8457442922518 Q -86.63238762050041 311.87659543380147 0 259.8971628615012"/></g><g transform="rotate(292.5)"><path d="M 0 259.8971628615012 Q 86.63238762050041 311.87659543380147 0 389.8457442922518 Q -86.63238762050041 311.87659543380147 0 259.8971628615012"/></g><g transform="rotate(315)"><path d="M 0 259.8971628615012 Q 86.63238762050041 311.87659543380147 0 389.8457442922518 Q -86.63238762050041 311.87659543380147 0 259.8971628615012"/></g><g transform="rotate(337.5)"><path d="M 0 259.8971628615012 Q 86.63238762050041 311.87659543380147 0 389.8457442922518 Q -86.63238762050041 311.87659543380147 0 259.8971628615012"/></g><g transform="rotate(0)"><path d="M 0 307.4188631669515 L 76.85471579173787 368.9026358003418 L 0 430.3864084337321 L -76.85471579173787 368.9026358003418 Z"/></g><g transform="rotate(22.5)"><path d="M 0 307.4188631669515 L 76.85471579173787 368.9026358003418 L 0 430.3864084337321 L -76.85471579173787 368.9026358003418 Z"/></g><g transform="rotate(45)"><path d="M 0 307.4188631669515 L 76.85471579173787 368.9026358003418 L 0 430.3864084337321 L -76.85471579173787 368.9026358003418 Z"/></g><g transform="rotate(67.5)"><path d="M 0 307.4188631669515 L 76.85471579173787 368.9026358003418 L 0 430.3864084337321 L -76.85471579173787 368.9026358003418 Z"/></g><g transform="rotate(90)"><path d="M 0 307.4188631669515 L 76.85471579173787 368.9026358003418 L 0 430.3864084337321 L -76.85471579173787 368.9026358003418 Z"/></g><g transform="rotate(112.5)"><path d="M 0 307.4188631669515 L 76.85471579173787 368.9026358003418 L 0 430.3864084337321 L -76.85471579173787 368.9026358003418 Z"/></g><g transform="rotate(135)"><path d="M 0 307.4188631669515 L 76.85471579173787 368.9026358003418 L 0 430.3864084337321 L -76.85471579173787 368.9026358003418 Z"/></g><g transform="rotate(157.5)"><path d="M 0 307.4188631669515 L 76.85471579173787 368.9026358003418 L 0 430.3864084337321 L -76.85471579173787 368.9026358003418 Z"/></g><g transform="rotate(180)"><path d="M 0 307.4188631669515 L 76.85471579173787 368.9026358003418 L 0 430.3864084337321 L -76.85471579173787 368.9026358003418 Z"/></g><g transform="rotate(202.5)"><path d="M 0 307.4188631669515 L 76.85471579173787 368.9026358003418 L 0 430.3864084337321 L -76.85471579173787 368.9026358003418 Z"/></g><g transform="rotate(225)"><path d="M 0 307.4188631669515 L 76.85471579173787 368.9026358003418 L 0 430.3864084337321 L -76.85471579173787 368.9026358003418 Z"/></g><g transform="rotate(247.5)"><path d="M 0 307.4188631669515 L 76.85471579173787 368.9026358003418 L 0 430.3864084337321 L -76.85471579173787 368.9026358003418 Z"/></g><g transform="rotate(270)"><path d="M 0 307.4188631669515 L 76.85471579173787 368.9026358003418 L 0 430.3864084337321 L -76.85471579173787 368.9026358003418 Z"/></g><g transform="rotate(292.5)"><path d="M 0 307.4188631669515 L 76.85471579173787 368.9026358003418 L 0 430.3864084337321 L -76.85471579173787 368.9026358003418 Z"/></g><g transform="rotate(315)"><path d="M 0 307.4188631669515 L 76.85471579173787 368.9026358003418 L 0 430.3864084337321 L -76.85471579173787 368.9026358003418 Z"/></g><g transform="rotate(337.5)"><path d="M 0 307.4188631669515 L 76.85471579173787 368.9026358003418 L 0 430.3864084337321 L -76.85471579173787 368.9026358003418 Z"/></g><g transform="rotate(0)"><circle cx="0" cy="343.1782106630918" r="85.79455266577295"/></g><g transform="rotate(22.5)"><circle cx="0" cy="343.1782106630918" r="85.79455266577295"/></g><g transform="rotate(45)"><circle cx="0" cy="343.1782106630918" r="85.79455266577295"/></g><g transform="rotate(67.5)"><circle cx="0" cy="343.1782106630918" r="85.79455266577295"/></g><g transform="rotate(90)"><circle cx="0" cy="343.1782106630918" r="85.79455266577295"/></g><g transform="rotate(112.5)"><circle cx="0" cy="343.1782106630918" r="85.79455266577295"/></g><g transform="rotate(135)"><circle cx="0" cy="343.1782106630918" r="85.79455266577295"/></g><g transform="rotate(157.5)"><circle cx="0" cy="343.1782106630918" r="85.79455266577295"/></g><g transform="rotate(180)"><circle cx="0" cy="343.1782106630918" r="85.79455266577295"/></g><g transform="rotate(202.5)"><circle cx="0" cy="343.1782106630918" r="85.79455266577295"/></g><g transform="rotate(225)"><circle cx="0" cy="343.1782106630918" r="85.79455266577295"/></g><g transform="rotate(247.5)"><circle cx="0" cy="343.1782106630918" r="85.79455266577295"/></g><g transform="rotate(270)"><circle cx="0" cy="343.1782106630918" r="85.79455266577295"/></g><g transform="rotate(292.5)"><circle cx="0" cy="343.1782106630918" r="85.79455266577295"/></g><g transform="rotate(315)"><circle cx="0" cy="343.1782106630918" r="85.79455266577295"/></g><g transform="rotate(337.5)"><circle cx="0" cy="343.1782106630918" r="85.79455266577295"/></g></g></svg>