<svg xmlns="http://www.w3.org/2000/svg" viewBox="0 0 800 800" width="800" height="800">
    <rect width="100%" height="100%" fill="white"/>
    <g transform="translate(400, 400)" fill="none" stroke="black" stroke-width="4" stroke-linecap="round" stroke-linejoin="round"><g transform="rotate(0)"><circle cx="0" cy="44.532404178753495" r="11.133101044688374"/></g><g transform="rotate(20)"><circle cx="0" cy="44.532404178753495" r="11.133101044688374"/></g><g transform="rotate(40)"><circle cx="0" cy="44.532404178753495" r="11.133101044688374"/></g><g transform="rotate(60)"><circle cx="0" cy="44.532404178753495" r="11.133101044688374"/></g><g transform="rotate(80)"><circle cx="0" cy="44.532404178753495" r="11.133101044688374"/></g><g transform="rotate(100)"><circle cx="0" cy="44.532404178753495" r="11.133101044688374"/></g><g transform="rotate(120)"><circle cx="0" cy="44.532404178753495" r="11.133101044688374"/></g><g transform="rotate(140)"><circle cx="0" cy="44.532404178753495" r="11.133101044688374"/></g><g transform="rotate(160)"><circle cx="0" cy="44.532404178753495" r="11.133101044688374"/></g><g transform="rotate(180)"><circle cx="0" cy="44.532404178753495" r="11.133101044688374"/></g><g transform="rotate(200)"><circle cx="0" cy="44.532404178753495" r="11.133101044688374"/></g><g transform="rotate(220)"><circle cx="0" cy="44.532404178753495" r="11.133101044688374"/></g><g transform="rotate(240)"><circle cx="0" cy="44.532404178753495" r="11.133101044688374"/></g><g transform="rotate(260)"><circle cx="0" cy="44.532404178753495" r="11.133101044688374"/></g><g transform="rotate(280)"><circle cx="0" cy="44.532404178753495" r="11.133101044688374"/></g><g transform="rotate(300)"><circle cx="0" cy="44.532404178753495" r="11.133101044688374"/></g><g transform="rotate(320)"><circle cx="0" cy="44.532404178753495" r="11.133101044688374"/></g><g transform="rotate(340)"><circle cx="0" cy="44.532404178753495" r="11.133101044688374"/></g><g transform="rotate(0)"><path d="M 0 97.76243790363273 Q 32.58747930121091 117.31492548435926 0 146.64365685544908 Q -32.58747930121091 117.31492548435926 0 97.76243790363273"/></g><g transform="rotate(20)"><path d="M 0 97.76243790363273 Q 32.58747930121091 117.31492548435926 0 146.64365685544908 Q -32.58747930121091 117.31492548435926 0 97.76243790363273"/></g><g transform="rotate(40)"><path d="M 0 97.76243790363273 Q 32.58747930121091 117.31492548435926 0 146.64365685544908 Q -32.58747930121091 117.31492548435926 0 97.76243790363273"/></g><g transform="rotate(60)"><path d="M 0 97.76243790363273 Q 32.58747930121091 117.31492548435926 0 146.64365685544908 Q -32.58747930121091 117.31492548435926 0 97.76243790363273"/></g><g transform="rotate(80)"><path d="M 0 97.76243790363273 Q 32.58747930121091 117.31492548435926 0 146.64365685544908 Q -32.58747930121091 117.31492548435926 0 97.76243790363273"/></g><g transform="rotate(100)"><path d="M 0 97.76243790363273 Q 32.58747930121091 117.31492548435926 0 146.64365685544908 Q -32.58747930121091 117.31492548435926 0 97.76243790363273"/></g><g transform="rotate(120)"><path d="M 0 97.76243790363273 Q 32.58747930121091 117.31492548435926 0 146.64365685544908 Q -32.58747930121091 117.31492548435926 0 97.76243790363273"/></g><g transform="rotate(140)"><path d="M 0 97.76243790363273 Q 32.58747930121091 117.31492548435926 0 146.64365685544908 Q -32.58747930121091 117.31492548435926 0 97.76243790363273"/></g><g transform="rotate(160)"><path d="M 0 97.76243790363273 Q 32.58747930121091 117.31492548435926 0 146.64365685544908 Q -32.58747930121091 117.31492548435926 0 97.76243790363273"/></g><g transform="rotate(180)"><path d="M 0 97.76243790363273 Q 32.58747930121091 117.31492548435926 0 146.64365685544908 Q -32.58747930121091 117.31492548435926 0 97.76243790363273"/></g><g transform="rotate(200)"><path d="M 0 97.76243790363273 Q 32.58747930121091 117.31492548435926 0 146.64365685544908 Q -32.58747930121091 117.31492548435926 0 97.76243790363273"/></g><g transform="rotate(220)"><path d="M 0 97.76243790363273 Q 32.58747930121091 117.31492548435926 0 146.64365685544908 Q -32.58747930121091 117.31492548435926 0 97.76243790363273"/></g><g transform="rotate(240)"><path d="M 0 97.76243790363273 Q 32.58747930121091 117.31492548435926 0 146.64365685544908 Q -32.58747930121091 117.31492548435926 0 97.76243790363273"/></g><g transform="rotate(260)"><path d="M 0 97.76243790363273 Q 32.58747930121091 117.31492548435926 0 146.64365685544908 Q -32.58747930121091 117.31492548435926 0 97.76243790363273"/></g><g transform="rotate(280)"><path d="M 0 97.76243790363273 Q 32.58747930121091 117.31492548435926 0 146.64365685544908 Q -32.58747930121091 117.31492548435926 0 97.76243790363273"/></g><g transform="rotate(300)"><path d="M 0 97.76243790363273 Q 32.58747930121091 117.31492548435926 0 146.64365685544908 Q -32.58747930121091 117.31492548435926 0 97.76243790363273"/></g><g transform="rotate(320)"><path d="M 0 97.76243790363273 Q 32.58747930121091 117.31492548435926 0 146.64365685544908 Q -32.58747930121091 117.31492548435926 0 97.76243790363273"/></g><g transform="rotate(340)"><path d="M 0 97.76243790363273 Q 32.58747930121091 117.31492548435926 0 146.64365685544908 Q -32.58747930121091 117.31492548435926 0 97.76243790363273"/></g><g transform="rotate(0)"><path d="M 0 153.10368878456455 L 38.27592219614114 183.72442654147747 L 0 214.34516429839036 L -38.27592219614114 183.72442654147747 Z"/></g><g transform="rotate(20)"><path d="M 0 153.10368878456455 L 38.27592219614114 183.72442654147747 L 0 214.34516429839036 L -38.27592219614114 183.72442654147747 Z"/></g><g transform="rotate(40)"><path d="M 0 153.10368878456455 L 38.27592219614114 183.72442654147747 L 0 214.34516429839036 L -38.27592219614114 183.72442654147747 Z"/></g><g transform="rotate(60)"><path d="M 0 153.10368878456455 L 38.27592219614114 183.72442654147747 L 0 214.34516429839036 L -38.27592219614114 183.72442654147747 Z"/></g><g transform="rotate(80)"><path d="M 0 153.10368878456455 L 38.27592219614114 183.72442654147747 L 0 214.34516429839036 L -38.27592219614114 183.72442654147747 Z"/></g><g transform="rotate(100)"><path d="M 0 153.10368878456455 L 38.27592219614114 183.72442654147747 L 0 214.34516429839036 L -38.27592219614114 183.72442654147747 Z"/></g><g transform="rotate(120)"><path d="M 0 153.10368878456455 L 38.27592219614114 183.72442654147747 L 0 214.34516429839036 L -38.27592219614114 183.72442654147747 Z"/></g><g transform="rotate(140)"><path d="M 0 153.10368878456455 L 38.27592219614114 183.72442654147747 L 0 214.34516429839036 L -38.27592219614114 183.72442654147747 Z"/></g><g transform="rotate(160)"><path d="M 0 153.10368878456455 L 38.27592219614114 183.72442654147747 L 0 214.34516429839036 L -38.27592219614114 183.72442654147747 Z"/></g><g transform="rotate(180)"><path d="M 0 153.10368878456455 L 38.27592219614114 183.72442654147747 L 0 214.34516429839036 L -38.27592219614114 183.72442654147747 Z"/></g><g transform="rotate(200)"><path d="M 0 153.10368878456455 L 38.27592219614114 183.72442654147747 L 0 214.34516429839036 L -38.27592219614114 183.72442654147747 Z"/></g><g transform="rotate(220)"><path d="M 0 153.10368878456455 L 38.27592219614114 183.72442654147747 L 0 214.34516429839036 L -38.27592219614114 183.72442654147747 Z"/></g><g transform="rotate(240)"><path d="M 0 153.10368878456455 L 38.27592219614114 183.72442654147747 L 0 214.34516429839036 L -38.27592219614114 183.72442654147747 Z"/></g><g transform="rotate(260)"><path d="M 0 153.10368878456455 L 38.27592219614114 183.72442654147747 L 0 214.34516429839036 L -38.27592219614114 183.72442654147747 Z"/></g><g transform="rotate(280)"><path d="M 0 153.10368878456455 L 38.27592219614114 183.72442654147747 L 0 214.34516429839036 L -38.27592219614114 183.72442654147747 Z"/></g><g transform="rotate(300)"><path d="M 0 153.10368878456455 L 38.27592219614114 183.72442654147747 L 0 214.34516429839036 L -38.27592219614114 183.72442654147747 Z"/></g><g transform="rotate(320)"><path d="M 0 153.10368878456455 L 38.27592219614114 183.72442654147747 L 0 214.34516429839036 L -38.27592219614114 183.72442654147747 Z"/></g><g transform="rotate(340)"><path d="M 0 153.10368878456455 L 38.27592219614114 183.72442654147747 L 0 214.34516429839036 L -38.27592219614114 183.72442654147747 Z"/></g><g transform="rotate(0)"><circle cx="0" cy="213.1192858889699" r="53.279821472242475"/></g><g transform="rotate(20)"><circle cx="0" cy="213.1192858889699" r="53.279821472242475"/></g><g transform="rotate(40)"><circle cx="0" cy="213.1192858889699" r="53.279821472242475"/></g><g transform="rotate(60)"><circle cx="0" cy="213.1192858889699" r="53.279821472242475"/></g><g transform="rotate(80)"><circle cx="0" cy="213.1192858889699" r="53.279821472242475"/></g><g transform="rotate(100)"><circle cx="0" cy="213.1192858889699" r="53.279821472242475"/></g><g transform="rotate(120)"><circle cx="0" cy="213.1192858889699" r="53.279821472242475"/></g><g transform="rotate(140)"><circle cx="0" cy="213.1192858889699" r="53.279821472242475"/></g><g transform="rotate(160)"><circle cx="0" cy="213.1192858889699" r="53.279821472242475"/></g><g transform="rotate(180)"><circle cx="0" cy="213.1192858889699" r="53.279821472242475"/></g><g transform="rotate(200)"><circle cx="0" cy="213.1192858889699" r="53.279821472242475"/></g><g transform="rotate(220)"><circle cx="0" cy="213.1192858889699" r="53.279821472242475"/></g><g transform="rotate(240)"><circle cx="0" cy="213.1192858889699" r="53.279821472242475"/></g><g transform="rotate(260)"><circle cx="0" cy="213.1192858889699" r="53.279821472242475"/></g><g transform="rotate(280)"><circle cx="0" cy="213.1192858889699" r="53.279821472242475"/></g><g transform="rotate(300)"><circle cx="0" cy="213.1192858889699" r="53.279821472242475"/></g><g transform="rotate(320)"><circle cx="0" cy="213.1192858889699" r="53.279821472242475"/></g><g transform="rotate(340)"><circle cx="0" cy="213.1192858889699" r="53.279821472242475"/></g><g transform="rotate(0)"><path d="M 0 272.4813375094285 L 0 354.22573876225704"/></g><g transform="rotate(20)"><path d="M 0 272.4813375094285 L 0 354.22573876225704"/></g><g transform="rotate(40)"><path d="M 0 272.4813375094285 L 0 354.22573876225704"/></g><g transform="rotate(60)"><path d="M 0 272.4813375094285 L 0 354.22573876225704"/></g><g transform="rotate(80)"><path d="M 0 272.4813375094285 L 0 354.22573876225704"/></g><g transform="rotate(100)"><path d="M 0 272.4813375094285 L 0 354.22573876225704"/></g><g transform="rotate(120)"><path d="M 0 272.4813375094285 L 0 354.22573876225704"/></g><g transform="rotate(140)"><path d="M 0 272.4813375094285 L 0 354.22573876225704"/></g><g transform="rotate(160)"><path d="M 0 272.4813375094285 L 0 354.22573876225704"/></g><g transform="rotate(180)"><path d="M 0 272.4813375094285 L 0 354.22573876225704"/></g><g transform="rotate(200)"><path d="M 0 272.4813375094285 L 0 354.22573876225704"/></g><g transform="rotate(220)"><path d="M 0 272.4813375094285 L 0 354.22573876225704"/></g><g transform="rotate(240)"><path d="M 0 272.4813375094285 L 0 354.22573876225704"/></g><g transform="rotate(260)"><path d="M 0 272.4813375094285 L 0 354.22573876225704"/></g><g transform="rotate(280)"><path d="M 0 272.4813375094285 L 0 354.22573876225704"/></g><g transform="rotate(300)"><path d="M 0 272.4813375094285 L 0 354.22573876225704"/></g><g transform="rotate(320)"><path d="M 0 272.4813375094285 L 0 354.22573876225704"/></g><g transform="rotate(340)"><path d="M 0 272.4813375094285 L 0 354.22573876225704"/></g><g transform="rotate(0)"><circle cx="0" cy="310.45815192783874" r="77.61453798195969"/></g><g transform="rotate(20)"><circle cx="0" cy="310.45815192783874" r="77.61453798195969"/></g><g transform="rotate(40)"><circle cx="0" cy="310.45815192783874" r="77.61453798195969"/></g><g transform="rotate(60)"><circle cx="0" cy="310.45815192783874" r="77.61453798195969"/></g><g transform="rotate(80)"><circle cx="0" cy="310.45815192783874" r="77.61453798195969"/></g><g transform="rotate(100)"><circle cx="0" cy="310.45815192783874" r="77.61453798195969"/></g><g transform="rotate(120)"><circle cx="0" cy="310.45815192783874" r="77.61453798195969"/></g><g transform="rotate(140)"><circle cx="0" cy="310.45815192783874" r="77.61453798195969"/></g><g transform="rotate(160)"><circle cx="0" cy="310.45815192783874" r="77.61453798195969"/></g><g transform="rotate(180)"><circle cx="0" cy="310.45815192783874" r="77.61453798195969"/></g><g transform="rotate(200)"><circle cx="0" cy="310.45815192783874" r="77.61453798195969"/></g><g transform="rotate(220)"><circle cx="0" cy="310.45815192783874" r="77.61453798195969"/></g><g transform="rotate(240)"><circle cx="0" cy="310.45815192783874" r="77.61453798195969"/></g><g transform="rotate(260)"><circle cx="0" cy="310.45815192783874" r="77.61453798195969"/></g><g transform="rotate(280)"><circle cx="0" cy="310.45815192783874" r="77.61453798195969"/></g><g transform="rotate(300)"><circle cx="0" cy="310.45815192783874" r="77.61453798195969"/></g><g transform="rotate(320)"><circle cx="0" cy="310.45815192783874" r="77.61453798195969"/></g><g transform="rotate(340)"><circle cx="0" cy="310.45815192783874" r="77.61453798195969"/></g></g></svg>