<svg width="622" height="547" xmlns="http://www.w3.org/2000/svg" preserveAspectRatio="xMidYMid meet">

 <g>
  <title>Layer 1</title>
  <g fill-opacity="0" transform="translate(-30 -36)" id="imagebot_1" fill="#000000">
   <path stroke-width="100" id="imagebot_2" transform="matrix(0.1 0 0 -0.1 0 610)" stroke="#000000" fill="#000000" d="M3460,5730C3460,5725 3442,5720 3420,5720C3398,5720 3380,5716 3380,5710C3380,5705 3362,5700 3340,5700C3318,5700 3300,5696 3300,5690C3300,5685 3291,5680 3280,5680C3269,5680 3260,5676 3260,5670C3260,5665 3251,5660 3240,5660C3227,5660 3220,5653 3220,5640C3220,5623 3213,5620 3175,5620C3130,5620 3127,5617 3030,5520C2975,5465 2924,5420 2915,5420C2905,5420 2900,5411 2900,5392C2900,5376 2892,5358 2880,5350C2869,5342 2860,5328 2860,5318C2860,5307 2853,5300 2840,5300C2825,5300 2820,5293 2820,5272C2820,5256 2812,5238 2800,5230C2789,5222 2780,5208 2780,5198C2780,5188 2775,5180 2769,5180C2764,5180 2761,5176 2765,5171C2768,5166 2763,5155 2755,5147C2747,5138 2740,5121 2740,5108C2740,5095 2731,5078 2720,5070C2706,5060 2700,5044 2700,5018C2700,4990 2696,4980 2684,4980C2673,4980 2670,4974 2675,4960C2679,4949 2677,4940 2671,4940C2665,4940 2660,4919 2660,4890C2660,4863 2656,4840 2650,4840C2645,4840 2640,4827 2640,4810C2640,4794 2636,4780 2630,4780C2624,4780 2620,4753 2620,4720C2620,4667 2618,4660 2600,4660C2585,4660 2580,4653 2580,4631C2580,4615 2586,4599 2593,4596C2603,4591 2603,4589 2593,4584C2583,4580 2580,4513 2580,4299C2580,4027 2580,4020 2600,4020C2618,4020 2620,4013 2620,3951C2620,3905 2616,3880 2608,3877C2598,3873 2599,3869 2610,3861C2618,3856 2621,3847 2616,3843C2612,3839 2602,3844 2594,3854C2582,3872 2580,3863 2580,3777C2580,3691 2570,3656 2557,3693C2555,3699 2549,3701 2544,3697C2539,3693 2542,3684 2550,3679C2561,3671 2562,3667 2553,3663C2546,3661 2540,3650 2540,3639C2540,3628 2533,3620 2524,3620C2516,3620 2491,3602 2470,3580C2446,3556 2422,3540 2408,3540C2395,3540 2378,3531 2370,3520C2359,3505 2344,3500 2308,3500C2267,3500 2260,3497 2260,3480C2260,3462 2253,3460 2183,3459C2023,3458 1945,3462 1942,3471C1940,3476 1930,3480 1919,3480C1909,3480 1900,3485 1900,3490C1900,3496 1892,3500 1882,3500C1872,3500 1858,3509 1850,3519C1843,3530 1833,3537 1829,3534C1825,3532 1810,3541 1796,3555C1782,3569 1764,3580 1755,3580C1747,3580 1740,3584 1740,3589C1740,3594 1726,3603 1710,3610C1694,3617 1680,3626 1680,3631C1680,3636 1673,3640 1664,3640C1644,3640 1620,3664 1620,3684C1620,3696 1610,3700 1582,3700C1556,3700 1540,3706 1530,3720C1522,3731 1508,3740 1498,3740C1488,3740 1480,3745 1480,3750C1480,3756 1471,3760 1460,3760C1449,3760 1440,3765 1440,3770C1440,3776 1426,3780 1409,3780C1392,3780 1381,3784 1385,3790C1389,3796 1380,3800 1366,3800C1352,3800 1340,3805 1340,3810C1340,3816 1331,3820 1320,3820C1309,3820 1300,3825 1300,3830C1300,3836 1273,3840 1240,3840C1207,3840 1180,3844 1180,3850C1180,3856 1133,3860 1060,3860C987,3860 940,3856 940,3850C940,3845 928,3840 914,3840C900,3840 891,3836 895,3830C899,3824 885,3820 861,3820C838,3820 820,3816 820,3810C820,3805 808,3800 794,3800C780,3800 771,3796 774,3792C776,3788 759,3778 734,3771C710,3764 692,3754 695,3750C698,3745 691,3744 680,3747C664,3751 660,3747 660,3726C660,3703 656,3700 624,3700C593,3700 578,3689 494,3605C443,3553 400,3504 400,3495C400,3487 396,3480 390,3480C385,3480 380,3472 380,3462C380,3452 371,3438 360,3430C343,3418 340,3404 340,3338C340,3296 335,3258 330,3255C324,3252 320,3238 320,3225C320,3212 315,3198 310,3195C304,3192 300,3160 300,3124C300,3067 302,3060 320,3060C339,3060 340,3053 340,2964C340,2912 343,2871 347,2873C352,2876 361,2872 368,2864C377,2854 377,2850 369,2850C363,2850 372,2837 389,2821C407,2804 421,2789 420,2786C418,2761 421,2756 430,2770C438,2782 440,2781 440,2763C440,2748 446,2740 456,2740C465,2740 481,2731 491,2719C507,2700 519,2699 621,2699C720,2700 735,2702 750,2720C760,2731 779,2740 794,2740C812,2740 820,2745 820,2758C820,2768 829,2782 840,2790C851,2798 860,2812 860,2822C860,2832 865,2840 870,2840C876,2840 880,2851 880,2864C880,2878 885,2892 890,2895C905,2904 903,3070 888,3070C879,3070 880,3074 890,3080C902,3088 903,3091 891,3099C882,3105 881,3110 889,3114C895,3118 900,3134 900,3151C900,3169 905,3179 913,3177C919,3176 924,3181 923,3188C921,3194 927,3200 936,3200C945,3200 948,3205 944,3212C940,3218 941,3220 948,3216C954,3213 965,3217 973,3225C982,3233 1005,3240 1024,3240C1044,3240 1060,3245 1060,3250C1060,3256 1093,3260 1139,3260C1183,3260 1222,3256 1225,3250C1228,3245 1247,3240 1266,3240C1285,3240 1300,3236 1300,3230C1300,3225 1309,3220 1319,3220C1330,3220 1340,3216 1342,3210C1344,3205 1357,3199 1372,3198C1387,3197 1396,3192 1394,3188C1391,3184 1395,3180 1402,3180C1410,3180 1422,3171 1430,3160C1438,3149 1451,3140 1460,3140C1469,3140 1482,3131 1490,3120C1498,3109 1512,3100 1522,3100C1533,3100 1540,3093 1540,3080C1540,3063 1547,3060 1580,3060C1610,3060 1620,3056 1620,3044C1620,3036 1627,3022 1635,3014C1643,3005 1650,3003 1650,3008C1650,3013 1657,3017 1664,3017C1672,3017 1678,3012 1677,3006C1676,3000 1681,2996 1688,2998C1694,2999 1700,2996 1700,2990C1700,2985 1709,2980 1720,2980C1731,2980 1740,2976 1740,2970C1740,2965 1751,2960 1764,2960C1778,2960 1792,2955 1795,2950C1798,2945 1832,2940 1871,2940C1910,2940 1940,2936 1940,2930C1940,2925 1954,2920 1970,2920C1987,2920 2000,2925 2000,2930C2000,2936 2013,2940 2029,2940C2046,2940 2062,2936 2065,2930C2068,2925 2098,2920 2131,2920C2169,2920 2189,2924 2185,2930C2182,2936 2183,2940 2189,2940C2194,2940 2202,2936 2205,2930C2208,2925 2227,2920 2246,2920C2265,2920 2280,2925 2280,2930C2280,2936 2300,2940 2325,2940C2359,2940 2372,2945 2380,2960C2389,2976 2401,2980 2445,2980C2478,2980 2500,2985 2502,2992C2506,3002 2510,3001 2521,2990C2538,2972 2545,2946 2530,2955C2525,2958 2520,2952 2520,2941C2520,2929 2516,2920 2510,2920C2505,2920 2500,2911 2500,2900C2500,2888 2493,2880 2484,2880C2475,2880 2455,2867 2440,2850C2425,2834 2402,2820 2390,2820C2377,2820 2366,2812 2363,2800C2359,2783 2349,2780 2309,2780C2267,2780 2260,2777 2260,2760C2260,2741 2253,2740 2100,2740C1947,2740 1940,2739 1940,2720C1940,2701 1933,2700 1760,2700C1647,2700 1580,2696 1580,2690C1580,2685 1567,2680 1550,2680C1534,2680 1520,2676 1520,2670C1520,2665 1498,2660 1470,2660C1443,2660 1420,2656 1420,2650C1420,2645 1407,2640 1390,2640C1374,2640 1360,2636 1360,2630C1360,2625 1347,2620 1330,2620C1314,2620 1300,2616 1300,2610C1300,2605 1285,2600 1266,2600C1247,2600 1228,2596 1225,2590C1222,2585 1211,2580 1202,2580C1192,2580 1178,2571 1170,2560C1162,2549 1148,2540 1138,2540C1128,2540 1120,2535 1120,2529C1120,2524 1116,2521 1111,2525C1106,2528 1096,2525 1088,2518C1081,2511 1068,2504 1060,2502C1053,2500 1039,2490 1029,2479C1020,2469 1005,2460 996,2460C987,2460 980,2452 980,2440C980,2427 973,2420 960,2420C948,2420 940,2413 940,2404C940,2386 915,2358 906,2367C903,2371 900,2368 900,2361C900,2354 887,2335 870,2320C854,2305 840,2286 840,2280C840,2273 832,2260 823,2251C813,2242 804,2228 802,2220C800,2212 794,2204 789,2202C784,2200 780,2192 780,2184C780,2176 771,2160 760,2148C749,2136 740,2115 740,2101C740,2080 738,2078 730,2090C723,2101 720,2094 720,2063C720,2039 716,2020 710,2020C705,2020 700,1998 700,1970C700,1943 696,1920 690,1920C684,1920 680,1870 680,1790C680,1693 683,1660 693,1660C701,1660 700,1656 690,1650C677,1641 677,1640 690,1640C703,1640 703,1639 690,1630C680,1624 679,1620 688,1620C696,1620 700,1600 700,1556C700,1520 705,1490 710,1488C716,1486 722,1468 723,1448C724,1428 728,1414 733,1417C737,1419 740,1407 740,1391C740,1374 745,1360 750,1360C756,1360 760,1345 760,1328C760,1303 763,1299 770,1310C777,1321 780,1317 780,1293C780,1275 785,1260 790,1260C796,1260 800,1251 800,1240C800,1229 805,1220 810,1220C816,1220 820,1211 820,1200C820,1189 825,1180 830,1180C836,1180 840,1171 840,1160C840,1147 847,1140 860,1140C876,1140 880,1133 880,1108C880,1083 883,1079 890,1090C898,1102 900,1101 900,1083C900,1067 906,1060 920,1060C931,1060 940,1056 940,1050C940,1045 950,1040 963,1040C981,1040 982,1038 970,1030C960,1024 959,1020 968,1020C974,1020 980,1011 980,1000C980,988 987,980 996,980C1004,980 1029,962 1050,940C1081,908 1096,900 1124,900C1144,900 1160,896 1160,890C1160,885 1173,880 1189,880C1205,880 1221,874 1224,868C1229,858 1231,858 1236,868C1239,875 1262,880 1296,880C1326,880 1350,885 1350,890C1350,896 1357,900 1365,900C1373,900 1380,905 1380,910C1380,916 1387,920 1396,920C1415,920 1512,1018 1505,1031C1501,1036 1504,1040 1509,1040C1516,1040 1520,1076 1520,1140C1520,1200 1516,1240 1510,1240C1505,1240 1500,1249 1500,1260C1500,1271 1496,1280 1490,1280C1485,1280 1480,1287 1480,1296C1480,1314 1457,1340 1440,1340C1434,1340 1422,1347 1414,1355C1404,1364 1403,1370 1410,1370C1417,1370 1416,1376 1406,1385C1398,1393 1383,1400 1373,1400C1358,1400 1357,1402 1370,1410C1382,1418 1381,1420 1363,1420C1350,1420 1341,1423 1341,1428C1345,1450 1338,1460 1320,1460C1305,1460 1300,1467 1300,1488C1300,1504 1292,1522 1280,1530C1269,1538 1260,1552 1260,1562C1260,1572 1256,1580 1250,1580C1244,1580 1240,1627 1240,1700C1240,1789 1243,1820 1253,1820C1261,1820 1260,1824 1250,1830C1240,1836 1239,1840 1248,1840C1255,1840 1260,1853 1260,1871C1260,1888 1264,1899 1270,1895C1276,1892 1280,1896 1280,1904C1280,1913 1285,1920 1290,1920C1296,1920 1300,1934 1300,1950C1300,1971 1305,1980 1316,1980C1325,1980 1345,1994 1360,2010C1375,2027 1395,2040 1404,2040C1413,2040 1420,2045 1420,2050C1420,2056 1429,2060 1440,2060C1451,2060 1460,2066 1460,2073C1460,2082 1462,2082 1468,2073C1474,2064 1480,2066 1490,2080C1502,2096 1516,2100 1562,2100C1594,2100 1620,2104 1620,2110C1620,2116 1643,2120 1670,2120C1698,2120 1720,2125 1720,2130C1720,2136 1763,2140 1830,2140C1897,2140 1940,2144 1940,2150C1940,2156 1963,2160 1990,2160C2018,2160 2040,2165 2040,2170C2040,2176 2069,2180 2106,2180C2142,2180 2169,2183 2167,2188C2164,2192 2183,2196 2208,2198C2234,2199 2257,2205 2258,2210C2260,2216 2284,2220 2311,2220C2338,2220 2360,2225 2360,2230C2360,2236 2369,2240 2380,2240C2391,2240 2400,2245 2400,2250C2400,2256 2420,2260 2444,2260C2469,2260 2492,2265 2495,2270C2498,2276 2510,2280 2521,2280C2531,2280 2540,2285 2540,2290C2540,2296 2556,2300 2575,2300C2594,2300 2610,2305 2610,2310C2610,2316 2617,2320 2625,2320C2633,2320 2640,2325 2640,2330C2640,2336 2649,2340 2660,2340C2673,2340 2680,2347 2680,2360C2680,2373 2687,2380 2700,2380C2713,2380 2720,2387 2720,2400C2720,2416 2727,2420 2756,2420C2794,2420 2820,2438 2820,2464C2820,2473 2823,2479 2828,2479C2849,2475 2860,2482 2860,2498C2860,2509 2868,2516 2880,2517C2900,2519 2900,2513 2900,2099C2900,1826 2897,1680 2890,1680C2885,1680 2880,1685 2880,1692C2880,1700 2877,1700 2871,1695C2866,1689 2860,1663 2859,1635C2857,1601 2850,1580 2837,1568C2827,1559 2819,1549 2819,1546C2820,1543 2820,1522 2820,1500C2820,1467 2817,1460 2800,1460C2787,1460 2780,1453 2780,1440C2780,1429 2776,1420 2770,1420C2765,1420 2760,1411 2760,1400C2760,1389 2756,1380 2750,1380C2745,1380 2740,1371 2740,1360C2740,1349 2735,1340 2729,1340C2724,1340 2722,1335 2725,1330C2728,1324 2724,1317 2716,1314C2707,1311 2700,1304 2700,1299C2700,1280 2626,1187 2608,1182C2603,1181 2596,1180 2590,1180C2585,1180 2580,1171 2580,1160C2580,1147 2573,1140 2560,1140C2548,1140 2540,1133 2540,1124C2540,1103 2501,1068 2487,1077C2481,1080 2480,1078 2484,1072C2488,1065 2486,1060 2480,1060C2474,1060 2451,1042 2430,1020C2409,998 2384,980 2376,980C2367,980 2360,975 2360,969C2360,964 2356,961 2351,964C2346,967 2340,963 2336,955C2333,947 2319,940 2305,940C2291,940 2280,936 2280,930C2280,925 2277,921 2273,921C2268,922 2258,922 2250,921C2237,920 2237,919 2250,910C2261,903 2254,900 2223,900C2187,900 2180,897 2180,880C2180,869 2177,861 2173,861C2168,862 2148,862 2127,861C2097,860 2087,855 2083,840C2079,823 2069,820 2029,820C2002,820 1980,816 1980,810C1980,805 1973,800 1964,800C1956,800 1952,796 1955,790C1958,785 1956,780 1951,780C1945,780 1940,771 1940,760C1940,747 1933,740 1920,740C1907,740 1900,733 1900,720C1900,709 1896,700 1890,700C1885,700 1880,691 1880,680C1880,669 1876,660 1870,660C1864,660 1860,615 1860,544C1860,470 1864,431 1870,435C1876,438 1880,432 1880,421C1880,406 1887,400 1903,400C1921,400 1922,398 1910,390C1898,382 1899,380 1918,380C1933,380 1940,374 1940,360C1940,348 1947,340 1956,340C1965,340 1985,326 2000,310C2019,290 2030,284 2033,292C2037,302 2039,302 2039,293C2040,277 2220,274 2220,290C2220,296 2229,300 2240,300C2251,300 2260,305 2260,310C2260,316 2278,320 2300,320C2325,320 2340,325 2340,333C2340,341 2344,340 2350,330C2356,320 2360,319 2360,328C2360,334 2370,340 2383,340C2401,340 2402,342 2390,350C2379,357 2384,360 2412,360C2432,360 2452,365 2455,370C2458,376 2470,380 2481,380C2491,380 2500,385 2500,390C2500,396 2509,400 2520,400C2531,400 2540,405 2540,410C2540,416 2549,420 2560,420C2571,420 2580,425 2580,430C2580,436 2589,440 2600,440C2611,440 2620,445 2620,450C2620,456 2629,460 2640,460C2654,460 2660,467 2660,483C2660,501 2662,502 2670,490C2676,480 2680,479 2680,488C2680,495 2693,500 2710,500C2733,500 2740,504 2740,520C2740,531 2746,540 2753,540C2760,540 2776,549 2788,560C2800,571 2815,580 2822,580C2830,580 2842,589 2850,600C2858,611 2872,620 2882,620C2893,620 2900,627 2900,640C2900,651 2907,660 2915,660C2924,660 2960,689 2995,725C3031,761 3055,790 3049,790C3043,790 3045,797 3054,805C3062,813 3076,820 3084,820C3093,820 3100,828 3100,838C3100,848 3109,862 3120,870C3131,878 3140,892 3140,902C3140,912 3145,920 3150,920C3156,920 3160,927 3160,936C3160,945 3174,965 3190,980C3207,996 3220,1018 3220,1032C3220,1045 3229,1062 3240,1070C3252,1078 3260,1096 3260,1112C3260,1133 3265,1140 3280,1140C3297,1140 3300,1147 3300,1190C3300,1218 3305,1240 3310,1240C3316,1240 3320,1249 3320,1261C3320,1272 3325,1278 3330,1275C3336,1271 3340,1288 3340,1318C3340,1352 3346,1372 3360,1388C3376,1405 3380,1423 3380,1474C3380,1509 3384,1540 3390,1542C3395,1544 3401,1557 3402,1573C3403,1588 3408,1600 3412,1600C3416,1600 3420,1747 3420,1926C3420,2140 3423,2249 3430,2245C3436,2242 3440,2249 3440,2262C3441,2284 3441,2284 3452,2265C3458,2254 3472,2238 3482,2229C3492,2220 3500,2201 3500,2186C3500,2167 3505,2160 3520,2160C3537,2160 3540,2153 3540,2120C3540,2098 3545,2080 3551,2080C3556,2080 3558,2076 3555,2070C3552,2064 3556,2060 3564,2060C3573,2060 3580,2053 3580,2045C3580,2036 3589,2020 3600,2008C3611,1996 3620,1973 3620,1956C3620,1940 3623,1929 3626,1933C3637,1943 3660,1913 3662,1886C3663,1873 3667,1862 3670,1862C3691,1864 3700,1857 3700,1840C3700,1829 3705,1820 3710,1820C3716,1820 3720,1811 3720,1800C3720,1789 3725,1780 3730,1780C3736,1780 3740,1767 3740,1750C3740,1734 3745,1720 3750,1720C3756,1720 3760,1711 3760,1700C3760,1689 3765,1680 3770,1680C3776,1680 3780,1667 3780,1652C3780,1636 3788,1618 3800,1610C3815,1600 3820,1584 3820,1553C3820,1530 3825,1508 3830,1505C3836,1502 3840,1504 3840,1509C3840,1515 3845,1520 3850,1520C3856,1520 3860,1433 3860,1280C3860,1047 3859,1040 3840,1040C3822,1040 3818,1035 3821,1014C3821,1011 3813,1001 3802,992C3792,983 3781,967 3777,957C3774,948 3766,940 3760,940C3753,940 3731,922 3710,900C3688,877 3668,859 3665,860C3630,862 3620,858 3620,840C3620,823 3613,820 3580,820C3542,820 3540,818 3540,790C3540,769 3535,760 3524,760C3504,760 3480,736 3480,715C3480,706 3476,702 3470,705C3461,710 3455,690 3459,668C3459,663 3455,660 3450,660C3444,660 3440,627 3440,580C3440,533 3444,500 3450,500C3456,500 3460,489 3460,475C3460,446 3500,400 3525,400C3533,400 3539,397 3539,393C3532,349 3540,340 3585,340C3610,340 3630,336 3630,330C3630,324 3657,320 3691,320C3728,320 3749,324 3745,330C3741,336 3756,340 3784,340C3838,340 3860,348 3860,366C3860,375 3871,380 3888,380C3904,380 3922,388 3930,400C3938,411 3952,420 3962,420C3972,420 3980,425 3980,430C3980,436 3987,440 3996,440C4005,440 4025,454 4040,470C4055,487 4073,500 4080,500C4086,500 4098,506 4106,514C4117,525 4117,530 4107,533C4100,536 4103,539 4113,539C4134,540 4162,565 4153,574C4149,577 4154,580 4163,580C4173,580 4180,588 4180,600C4180,618 4190,625 4213,621C4217,621 4220,629 4220,640C4220,651 4225,660 4230,660C4236,660 4240,666 4240,673C4240,681 4250,692 4263,698C4276,704 4279,709 4270,709C4260,710 4263,715 4278,726C4290,734 4300,750 4300,761C4300,771 4305,780 4310,780C4316,780 4320,789 4320,800C4320,811 4325,820 4330,820C4336,820 4340,829 4340,840C4340,851 4345,860 4350,860C4356,860 4360,869 4360,879C4360,890 4364,900 4370,902C4375,904 4381,917 4382,933C4383,948 4388,960 4392,960C4396,960 4400,973 4400,989C4400,1006 4405,1022 4410,1025C4416,1028 4420,1056 4420,1086C4420,1116 4425,1140 4430,1140C4436,1140 4440,1192 4440,1275C4440,1358 4436,1410 4430,1410C4424,1410 4420,1445 4420,1495C4420,1545 4416,1580 4410,1580C4405,1580 4400,1589 4400,1600C4400,1611 4396,1620 4390,1620C4385,1620 4380,1638 4380,1660C4380,1682 4376,1700 4370,1700C4365,1700 4360,1709 4360,1720C4360,1731 4356,1740 4350,1740C4345,1740 4340,1749 4340,1760C4340,1771 4336,1780 4330,1780C4325,1780 4320,1789 4320,1800C4320,1811 4315,1820 4309,1820C4304,1820 4301,1824 4305,1829C4308,1834 4303,1845 4295,1853C4287,1862 4280,1876 4280,1884C4280,1893 4276,1900 4270,1900C4265,1900 4260,1909 4260,1920C4260,1931 4256,1940 4250,1940C4245,1940 4240,1949 4240,1960C4240,1971 4236,1980 4230,1980C4225,1980 4220,1989 4220,2000C4220,2013 4213,2020 4200,2020C4183,2020 4180,2027 4180,2060C4180,2093 4177,2100 4160,2100C4147,2100 4140,2107 4140,2118C4140,2128 4131,2142 4120,2150C4108,2158 4100,2176 4100,2192C4100,2209 4092,2225 4080,2232C4069,2239 4060,2251 4060,2258C4060,2265 4054,2278 4046,2286C4024,2308 4037,2336 4071,2338C4092,2340 4100,2336 4100,2324C4100,2316 4107,2302 4115,2294C4123,2285 4130,2282 4130,2286C4130,2290 4136,2286 4143,2275C4151,2265 4162,2260 4168,2264C4175,2268 4180,2265 4180,2256C4180,2247 4189,2240 4200,2240C4211,2240 4220,2236 4220,2230C4220,2225 4234,2220 4250,2220C4267,2220 4280,2216 4280,2210C4280,2205 4289,2200 4301,2200C4312,2200 4318,2195 4315,2190C4311,2184 4327,2180 4354,2180C4379,2180 4400,2176 4400,2172C4400,2167 4411,2158 4425,2152C4458,2137 4850,2135 4850,2150C4850,2156 4861,2160 4875,2160C4889,2160 4900,2165 4900,2170C4900,2176 4915,2180 4933,2180C4952,2180 4975,2188 4988,2200C5000,2211 5016,2220 5025,2220C5033,2220 5040,2225 5040,2231C5040,2236 5044,2239 5049,2235C5054,2232 5070,2241 5084,2255C5098,2269 5116,2280 5125,2280C5133,2280 5140,2285 5140,2290C5140,2296 5149,2300 5160,2300C5171,2300 5180,2307 5180,2315C5180,2335 5265,2420 5285,2420C5293,2420 5300,2429 5300,2440C5300,2451 5304,2460 5308,2460C5313,2460 5323,2472 5331,2488C5339,2503 5371,2541 5403,2572C5443,2612 5460,2637 5460,2654C5460,2671 5466,2680 5476,2680C5496,2680 5520,2704 5520,2724C5520,2733 5528,2740 5540,2740C5551,2740 5560,2747 5560,2755C5560,2763 5578,2789 5600,2811C5622,2834 5640,2857 5640,2862C5640,2867 5645,2868 5652,2864C5658,2860 5660,2861 5656,2868C5653,2874 5661,2890 5675,2904C5689,2918 5700,2934 5700,2940C5700,2956 5747,3000 5765,3000C5775,3000 5780,3010 5780,3030C5780,3056 5784,3060 5806,3060C5836,3060 5867,3085 5847,3093C5841,3096 5874,3099 5922,3099C6000,3100 6009,3098 6015,3080C6018,3069 6030,3060 6041,3060C6051,3060 6060,3056 6060,3050C6060,3045 6065,3040 6071,3040C6076,3040 6078,3045 6075,3050C6072,3056 6075,3060 6083,3060C6091,3060 6097,3052 6097,3043C6097,2991 6101,2980 6118,2980C6128,2980 6142,2971 6150,2960C6160,2946 6176,2940 6202,2940C6223,2940 6240,2936 6240,2930C6240,2925 6263,2920 6290,2920C6318,2920 6340,2924 6340,2930C6340,2935 6343,2939 6348,2939C6383,2933 6420,2942 6420,2956C6420,2965 6434,2985 6450,3000C6467,3015 6480,3035 6480,3044C6480,3053 6488,3060 6500,3060C6519,3060 6520,3067 6520,3170C6520,3237 6516,3280 6510,3280C6505,3280 6500,3288 6500,3298C6500,3308 6491,3322 6480,3330C6469,3338 6460,3352 6460,3362C6460,3373 6453,3380 6440,3380C6424,3380 6420,3387 6420,3416C6420,3437 6416,3449 6410,3445C6405,3442 6400,3444 6400,3449C6400,3455 6391,3460 6380,3460C6362,3460 6359,3464 6360,3485C6361,3494 6332,3520 6322,3520C6317,3520 6299,3534 6282,3550C6264,3567 6245,3580 6239,3580C6233,3580 6222,3587 6213,3595C6205,3604 6185,3614 6169,3617C6153,3620 6140,3626 6140,3631C6140,3636 6131,3640 6120,3640C6109,3640 6100,3645 6100,3650C6100,3656 6072,3660 6035,3660C5998,3660 5970,3664 5970,3670C5970,3676 5950,3680 5925,3680C5900,3680 5880,3676 5880,3670C5880,3665 5858,3660 5830,3660C5803,3660 5780,3656 5780,3650C5780,3645 5767,3640 5750,3640C5734,3640 5720,3636 5720,3630C5720,3625 5707,3620 5692,3620C5676,3620 5658,3612 5650,3600C5642,3589 5624,3580 5610,3580C5596,3580 5578,3571 5570,3560C5562,3549 5549,3540 5540,3540C5531,3540 5518,3531 5510,3520C5502,3509 5488,3500 5478,3500C5467,3500 5460,3493 5460,3481C5460,3470 5451,3458 5440,3455C5429,3452 5420,3444 5420,3439C5420,3423 5372,3380 5355,3380C5347,3380 5340,3373 5340,3364C5340,3355 5327,3336 5310,3320C5294,3305 5280,3287 5278,3279C5276,3271 5263,3253 5248,3239C5232,3224 5220,3205 5220,3196C5220,3187 5212,3180 5200,3180C5187,3180 5180,3173 5180,3160C5180,3147 5173,3140 5160,3140C5143,3140 5140,3133 5140,3100C5140,3062 5138,3060 5110,3060C5087,3060 5080,3056 5080,3040C5080,3029 5076,3020 5070,3020C5065,3020 5060,3013 5060,3004C5060,2996 5038,2967 5010,2940C4983,2913 4960,2886 4960,2880C4960,2874 4955,2872 4948,2876C4942,2880 4940,2879 4944,2872C4947,2866 4923,2834 4891,2801C4832,2741 4830,2740 4776,2740C4745,2740 4720,2736 4720,2730C4720,2725 4725,2720 4730,2720C4736,2720 4740,2716 4740,2710C4740,2704 4707,2700 4660,2700C4613,2700 4580,2704 4580,2710C4580,2716 4585,2720 4590,2720C4596,2720 4600,2725 4600,2730C4600,2736 4597,2739 4593,2739C4588,2738 4552,2738 4513,2739C4454,2740 4440,2743 4440,2756C4440,2764 4445,2768 4450,2765C4456,2762 4460,2764 4460,2769C4460,2783 4443,2783 4435,2770C4431,2763 4421,2767 4410,2780C4401,2791 4387,2800 4381,2800C4365,2800 4300,2866 4300,2882C4300,2890 4291,2902 4280,2910C4269,2918 4260,2935 4260,2948C4260,2960 4251,2980 4240,2992C4222,3011 4220,3028 4220,3137C4220,3258 4222,3266 4253,3261C4257,3261 4260,3273 4260,3290C4260,3314 4264,3320 4283,3320C4301,3320 4302,3322 4290,3330C4280,3336 4279,3340 4288,3340C4294,3340 4300,3349 4300,3359C4300,3369 4307,3381 4316,3384C4324,3387 4328,3394 4325,3400C4322,3406 4342,3432 4369,3459C4397,3487 4420,3514 4420,3520C4420,3526 4438,3549 4460,3570C4482,3591 4500,3618 4500,3630C4500,3654 4542,3700 4565,3700C4575,3700 4580,3710 4580,3730C4580,3747 4585,3760 4590,3760C4596,3760 4600,3769 4600,3780C4600,3791 4605,3800 4610,3800C4616,3800 4620,3808 4620,3818C4620,3828 4629,3842 4640,3850C4651,3858 4660,3872 4660,3881C4660,3890 4669,3900 4680,3903C4695,3907 4700,3917 4700,3944C4700,3964 4705,3980 4710,3980C4716,3980 4720,3989 4720,4000C4720,4011 4725,4020 4730,4020C4736,4020 4740,4034 4740,4050C4740,4067 4745,4080 4750,4080C4756,4080 4760,4089 4760,4100C4760,4111 4765,4120 4770,4120C4776,4120 4780,4137 4780,4158C4780,4184 4786,4200 4800,4210C4819,4224 4820,4236 4820,4558C4820,4883 4819,4892 4800,4897C4784,4901 4780,4911 4780,4941C4780,4963 4776,4980 4770,4980C4765,4980 4760,4989 4760,5000C4760,5011 4756,5020 4750,5020C4745,5020 4740,5033 4740,5048C4740,5064 4732,5082 4720,5090C4709,5098 4700,5112 4700,5122C4700,5132 4696,5140 4690,5140C4685,5140 4680,5149 4680,5160C4680,5171 4676,5180 4670,5180C4665,5180 4660,5188 4660,5198C4660,5208 4651,5222 4640,5230C4629,5238 4620,5250 4620,5258C4620,5265 4616,5268 4610,5265C4605,5262 4600,5268 4600,5279C4600,5293 4594,5300 4580,5300C4568,5300 4560,5307 4560,5316C4560,5336 4536,5360 4516,5360C4505,5360 4500,5369 4500,5390C4500,5412 4495,5420 4482,5420C4472,5420 4458,5429 4450,5440C4442,5451 4429,5460 4420,5460C4411,5460 4398,5469 4390,5480C4382,5491 4369,5500 4360,5500C4351,5500 4338,5509 4330,5520C4322,5531 4307,5540 4297,5540C4287,5540 4282,5545 4285,5550C4288,5556 4284,5560 4276,5560C4267,5560 4260,5565 4260,5570C4260,5576 4252,5580 4242,5580C4232,5580 4218,5589 4210,5600C4199,5615 4184,5620 4150,5620C4116,5620 4101,5625 4090,5640C4082,5652 4064,5660 4048,5660C4033,5660 4020,5665 4020,5670C4020,5676 4004,5680 3984,5680C3963,5680 3951,5684 3955,5690C3959,5696 3942,5700 3911,5700C3883,5700 3860,5705 3860,5710C3860,5716 3838,5720 3810,5720C3783,5720 3760,5725 3760,5730C3760,5736 3703,5740 3610,5740C3517,5740 3460,5736 3460,5730zM3330,4601C3337,4590 3347,4583 3351,4586C3356,4589 3382,4567 3410,4539L3461,4487L3459,4414L3457,4340L3419,4340L3380,4340L3380,4390C3380,4418 3376,4440 3370,4440C3365,4440 3360,4447 3360,4455C3360,4464 3344,4486 3325,4505C3295,4536 3284,4540 3240,4540C3193,4540 3186,4536 3145,4495C3120,4471 3100,4444 3100,4436C3100,4416 3076,4400 3048,4402C3025,4404 3023,4409 3021,4457C3019,4506 3033,4540 3055,4540C3059,4540 3068,4547 3076,4555C3085,4563 3089,4570 3086,4570C3083,4570 3091,4581 3103,4594C3123,4616 3133,4618 3220,4619C3304,4620 3317,4618 3330,4601zM4180,4320C4180,4309 4187,4300 4195,4300C4218,4300 4260,4254 4260,4230C4260,4207 4284,4177 4294,4187C4297,4191 4300,4154 4300,4107L4300,4020L4240,4020C4180,4020 4180,4020 4180,4050C4180,4067 4185,4080 4190,4080C4196,4080 4200,4098 4200,4120C4200,4142 4196,4160 4190,4160C4185,4160 4180,4174 4180,4190C4180,4212 4175,4220 4162,4220C4152,4220 4138,4229 4130,4240C4119,4255 4104,4260 4068,4260C4042,4260 4020,4256 4020,4251C4020,4246 4011,4244 4000,4247C3984,4251 3980,4247 3980,4226C3980,4207 3975,4200 3960,4200C3949,4200 3940,4196 3940,4190C3940,4185 3922,4180 3900,4180C3860,4180 3860,4180 3860,4220C3860,4253 3863,4260 3880,4260C3891,4260 3900,4265 3900,4270C3900,4276 3908,4280 3918,4281C3932,4281 3932,4283 3915,4290C3896,4298 3896,4299 3918,4299C3933,4300 3940,4306 3940,4320C3940,4339 3947,4340 4060,4340C4173,4340 4180,4339 4180,4320zM3276,3795C3289,3782 3300,3768 3300,3765C3299,3744 3302,3740 3318,3740C3328,3740 3337,3733 3337,3725C3337,3717 3333,3713 3328,3716C3324,3719 3320,3716 3320,3711C3320,3705 3329,3700 3340,3700C3351,3700 3360,3695 3360,3689C3360,3684 3365,3682 3372,3686C3378,3690 3380,3689 3376,3682C3373,3676 3374,3669 3380,3665C3386,3661 3387,3654 3384,3648C3380,3642 3382,3640 3388,3644C3394,3647 3405,3643 3413,3635C3422,3627 3436,3620 3444,3620C3453,3620 3460,3616 3460,3610C3460,3605 3467,3600 3475,3600C3483,3600 3500,3594 3511,3588C3528,3578 3534,3578 3537,3588C3540,3594 3555,3600 3571,3600C3587,3600 3600,3605 3600,3610C3600,3616 3637,3620 3691,3620C3776,3620 3781,3619 3769,3603C3759,3592 3759,3589 3768,3594C3775,3598 3780,3595 3780,3585C3780,3576 3776,3572 3770,3575C3765,3578 3760,3572 3760,3561C3760,3546 3753,3540 3735,3540C3721,3540 3699,3540 3685,3540C3671,3540 3660,3536 3660,3530C3660,3525 3651,3523 3640,3525C3627,3527 3620,3523 3620,3514C3620,3503 3603,3500 3540,3500C3493,3500 3460,3504 3460,3510C3460,3516 3451,3520 3440,3520C3429,3520 3420,3525 3420,3530C3420,3536 3412,3540 3402,3540C3392,3540 3378,3549 3370,3560C3362,3571 3350,3580 3342,3580C3319,3580 3260,3648 3260,3675C3260,3693 3255,3700 3240,3700C3222,3700 3220,3707 3220,3760C3220,3829 3234,3837 3276,3795z"/>
  </g>
 </g>
 <metadata>image/svg+xmlOpenclipart</metadata>
</svg>