<?xml version="1.0" encoding="UTF-8" standalone="no"?>
<!DOCTYPE svg PUBLIC "-//W3C//DTD SVG 1.1//EN" "http://www.w3.org/Graphics/SVG/1.1/DTD/svg11.dtd">
<svg viewBox="0 0 9000 10000" version="1.1" xmlns="http://www.w3.org/2000/svg" xmlns:xlink="http://www.w3.org/1999/xlink" fill-rule="evenodd" stroke="#000" stroke-width="71" fill="none">
	<g id="BlockHead">
		<title>Block Head, by Adam Stanislav</title>
		<rect x="3240.96" y="7347.49" width="2518.07" height="2361.45"/>
		<path d="m7686.75 7347.49h-6373.49v-4806.31l1351.67 780.388l1265.06-2191.15l-542.222-313.053h889.644l-1135.1 1966.06l1450.33 837.349l1265.06-2191.15l-1060.46-612.257h2889.51v856.501l-1351.67-780.388l-1265.06 2191.15c0 0 1185.67 684.546 1185.67 684.546h-1123.15v843.373h1734.94v-843.373h-258.902l1078.18-1867.46zm-4295.18-1566.27h-759.036v542.169h138.554v500.927h3457.83v-472.927h138.554v-542.169h-759.036v509.072h-2216.87zm475.904-2012.05h-1734.94v843.373h1734.94zm-2554.22-1455.84v-1495.97h863.697z"/>
		<g id="Ears">
			<rect x="339.94" y="2955.92" width="759.036" height="2228.92"/>
			<rect x="7901.02" y="2955.92" width="759.036" height="2228.92"/>
		</g>
		<g>
			<rect x="2132.53" y="3769.17" width="1734.94" height="843.373"/>
			<path d="m3355.42 4070.38v506.024h-710.844v-506.024zm-180.723 469.879v-216.867h-349.398v216.867z"/>
		</g>
		<g>
			<path d="m6355.42 4070.38v506.024h-710.844v-506.024zm-180.723 469.879v-216.867h-349.398v216.867z"/>
			<path d="m6867.47 3770.17v843.373h-1734.94v-843.373h1124.89l262.931 151.803l87.643-151.803z"/>
			<path d="m6355.42 4070.38v506.024h-710.844v-506.024zm-180.723 469.879v-216.867h-349.398v216.867z"/>
		</g>
		<g>
			<path id="Hair" d="m7785.41 1730.83l-1450.33-837.349l-1265.06 2191.15l1450.33 837.349z"/>
		<use xlink:href="#Hair" transform="translate(-1927.71,-301.21)"/>
		<use xlink:href="#Hair" transform="translate(-3855.42,-602.41)"/>
		</g>
		<path id="Mouth" d="m2632.53 5781.22h759.036v518.072h2216.87v-518.072h759.036v542.169h-138.554v481.927h-3457.83v-481.927h-138.554z"/>
	</g>
</svg>
