<?xml version="1.0" encoding="UTF-8" standalone="no"?>
<!DOCTYPE svg PUBLIC "-//W3C//DTD SVG 1.1//EN" "http://www.w3.org/Graphics/SVG/1.1/DTD/svg11.dtd">
<svg viewBox="0 0 6500 10000" version="1.1" xmlns="http://www.w3.org/2000/svg" xmlns:xlink="http://www.w3.org/1999/xlink" fill-rule="evenodd" fill="none" stroke="#000" stroke-width="55">
	<g id="StickHead">
		<title>Coloring Book Stick Head, by Adam Stanislav</title>
		<path id="Throat" d="m4243.63 8314.99c0.239 5.406 0.342 10.857 0.342 16.332l0 855.422c0 236.06-191.651 427.711-427.711 427.711l-1132.53 0c-236.06 0-427.711-191.651-427.711-427.711l0-855.422c0-5.475 0.103-10.926 0.342-16.332c304.873 215.98 640.826 335.609 993.634 335.609c352.808 0 688.761-119.629 993.634-335.609z"/>
		<path id="LeftEar" d="m5588.94 2979.35c455.384 43.837 814.097 503.286 814.097 1062.82c0 494.204-279.839 910.331-658.99 1030.97c15.25-183.849 23.105-371.527 23.105-562.199c0-540.936-63.225-1057.78-178.212-1531.59z"/>
		<path id="RightEar" d="m911.055 2979.35c-114.987 473.813-178.212 990.655-178.212 1531.59c0 190.672 7.855 378.35 23.105 562.199c-379.151-120.639-658.99-536.766-658.99-1030.97c0-559.534 358.713-1018.98 814.097-1062.82z"/>
		<ellipse id="Face" cx="3250" cy="4510.94" rx="2517.16" ry="4139.66"/>
		<path id="Nose" d="m3847.85 4844.39c59.723 28.926 120.029 60.842 180.343 95.664c541.318 312.53 879.576 741.59 754.896 957.541c-77.637 134.471-316.585 154.806-616.545 75.548c6.458-23.993 9.902-49.214 9.902-75.234c0-159.59-129.567-289.157-289.157-289.157c-107.95 0-202.163 59.283-251.83 147.04c-19.677-10.749-39.375-21.812-59.073-33.185c-90.825-52.438-175.933-108.156-254.097-165.597c-78.164 57.441-163.272 113.159-254.096 165.597c-19.699 11.373-39.396 22.436-59.073 33.185c-49.668-87.757-143.881-147.04-251.831-147.04c-159.59 0-289.156 129.567-289.156 289.157c0 26.02 3.444 51.241 9.901 75.234c-299.96 79.258-538.908 58.923-616.545-75.548c-124.679-215.951 213.578-645.011 754.897-957.541c60.313-34.822 120.619-66.738 180.343-95.664z"/>
		<path id="Mouth" d="m3864.46 7331.32c209.602 0 379.518-169.916 379.518-379.518c0 0 0 0 0 0c0-418.923-445.386-759.036-993.976-759.036c-548.59 0-993.976 340.113-993.976 759.036c0 0 0 0 0 0c0 209.602 169.916 379.518 379.518 379.518c327.178 0 901.738 0 1228.92 0z"/>
		<path id="MouthSeparator" d="m2557.23 6880c487.524-387.06 918.079-417.439 1277.11 0"/>
		<ellipse id="LeftEye" cx="2175" cy="3500" rx="831.325" ry="403.614"/>
		<ellipse id="RightEye" cx="4325" cy="3500" rx="831.325" ry="403.614"/>
		<path id="LeftIris" d="m2195 3180.72c176.214 0 319.277 143.063 319.277 319.277c0 176.214-143.063 319.277-319.277 319.277c-176.214 0-319.277-143.063-319.277-319.277c0-176.214 143.063-319.277 319.277-319.277zm0 229.879c49.34 0 89.398 40.058 89.398 89.398c0 49.34-40.058 89.398-89.398 89.398c-49.34 0-89.398-40.058-89.398-89.398c0-49.34 40.058-89.398 89.398-89.398z"/>
		<use id="RightIris" xlink:href="#LeftIris" transform="translate(2110)"/>
		<path id="RightBrow" d="m1401.99 2626.51l530.12-156.626l975.904 277.108"/>
		<path id="LeftBrow" d="m5098.01 2626.51l-530.12-156.626l-975.904 277.108"/>
	</g>
</svg>
